<?xml version="1.0" encoding="UTF-8" standalone="no"?>
<!DOCTYPE svg PUBLIC "-//W3C//DTD SVG 1.1//EN"
 "http://www.w3.org/Graphics/SVG/1.1/DTD/svg11.dtd">
<!-- Generated by graphviz version 9.0.0 (20230911.1827)
 -->
<!-- Title: wiNpoS&#45;Shared/DebugNew.h Pages: 1 -->
<svg width="1458pt" height="84pt"
 viewBox="0.00 0.00 1457.88 84.00" xmlns="http://www.w3.org/2000/svg" xmlns:xlink="http://www.w3.org/1999/xlink">
<g id="graph0" class="graph" transform="scale(1 1) rotate(0) translate(4 80)">
<title>wiNpoS&#45;Shared/DebugNew.h</title>
<!-- Node1 -->
<g id="Node000001" class="node">
<title>Node1</title>
<g id="a_Node000001"><a xlink:title=" ">
<polygon fill="#999999" stroke="#666666" points="791.38,-76 650.88,-76 650.88,-56 791.38,-56 791.38,-76"/>
<text text-anchor="middle" x="721.12" y="-62.5" font-family="Helvetica,sans-Serif" font-size="10.00">wiNpoS&#45;Shared/DebugNew.h</text>
</a>
</g>
</g>
<!-- Node2 -->
<g id="Node000002" class="node">
<title>Node2</title>
<g id="a_Node000002"><a xlink:href="wi_npo_s-_app_8cpp.html" target="_top" xlink:title=" ">
<polygon fill="white" stroke="#666666" points="144.25,-20 0,-20 0,0 144.25,0 144.25,-20"/>
<text text-anchor="middle" x="72.12" y="-6.5" font-family="Helvetica,sans-Serif" font-size="10.00">wiNpoS&#45;App/wiNpoS&#45;App.cpp</text>
</a>
</g>
</g>
<!-- Node1&#45;&gt;Node2 -->
<g id="edge1_Node000001_Node000002" class="edge">
<title>Node1&#45;&gt;Node2</title>
<g id="a_edge1_Node000001_Node000002"><a xlink:title=" ">
<path fill="none" stroke="#63b8ff" d="M639.29,-59.33C528.85,-51.5 325.99,-36.45 153.12,-20 150.31,-19.73 147.44,-19.45 144.54,-19.16"/>
<polygon fill="#63b8ff" stroke="#63b8ff" points="638.93,-62.82 649.16,-60.03 639.43,-55.83 638.93,-62.82"/>
</a>
</g>
</g>
<!-- Node3 -->
<g id="Node000003" class="node">
<title>Node3</title>
<g id="a_Node000003"><a xlink:href="_hooks_impl_8cpp.html" target="_top" xlink:title=" ">
<polygon fill="white" stroke="#666666" points="304.12,-20 162.12,-20 162.12,0 304.12,0 304.12,-20"/>
<text text-anchor="middle" x="233.12" y="-6.5" font-family="Helvetica,sans-Serif" font-size="10.00">wiNpoS&#45;Hook/HooksImpl.cpp</text>
</a>
</g>
</g>
<!-- Node1&#45;&gt;Node3 -->
<g id="edge2_Node000001_Node000003" class="edge">
<title>Node1&#45;&gt;Node3</title>
<g id="a_edge2_Node000001_Node000003"><a xlink:title=" ">
<path fill="none" stroke="#63b8ff" d="M639.43,-56.04C557.06,-47 426.26,-32.6 313.12,-20 310.21,-19.68 307.23,-19.34 304.22,-19.01"/>
<polygon fill="#63b8ff" stroke="#63b8ff" points="638.9,-59.51 649.22,-57.12 639.66,-52.55 638.9,-59.51"/>
</a>
</g>
</g>
<!-- Node4 -->
<g id="Node000004" class="node">
<title>Node4</title>
<g id="a_Node000004"><a xlink:href="_task_toolbar_8cpp.html" target="_top" xlink:title=" ">
<polygon fill="white" stroke="#666666" points="470.5,-20 321.75,-20 321.75,0 470.5,0 470.5,-20"/>
<text text-anchor="middle" x="396.12" y="-6.5" font-family="Helvetica,sans-Serif" font-size="10.00">wiNpoS&#45;Hook/TaskToolbar.cpp</text>
</a>
</g>
</g>
<!-- Node1&#45;&gt;Node4 -->
<g id="edge3_Node000001_Node000004" class="edge">
<title>Node1&#45;&gt;Node4</title>
<g id="a_edge3_Node000001_Node000004"><a xlink:title=" ">
<path fill="none" stroke="#63b8ff" d="M653.01,-53.68C593.72,-43.83 508.77,-29.72 453.04,-20.46"/>
<polygon fill="#63b8ff" stroke="#63b8ff" points="652.21,-57.1 662.65,-55.28 653.36,-50.19 652.21,-57.1"/>
</a>
</g>
</g>
<!-- Node5 -->
<g id="Node000005" class="node">
<title>Node5</title>
<g id="a_Node000005"><a xlink:href="_win_pos_wnd_8cpp.html" target="_top" xlink:title=" ">
<polygon fill="white" stroke="#666666" points="639.62,-20 488.62,-20 488.62,0 639.62,0 639.62,-20"/>
<text text-anchor="middle" x="564.12" y="-6.5" font-family="Helvetica,sans-Serif" font-size="10.00">wiNpoS&#45;Hook/WinPosWnd.cpp</text>
</a>
</g>
</g>
<!-- Node1&#45;&gt;Node5 -->
<g id="edge4_Node000001_Node000005" class="edge">
<title>Node1&#45;&gt;Node5</title>
<g id="a_edge4_Node000001_Node000005"><a xlink:title=" ">
<path fill="none" stroke="#63b8ff" d="M683.1,-51.92C654.87,-42.21 617.04,-29.2 591.69,-20.48"/>
<polygon fill="#63b8ff" stroke="#63b8ff" points="681.75,-55.16 692.35,-55.1 684.03,-48.54 681.75,-55.16"/>
</a>
</g>
</g>
<!-- Node6 -->
<g id="Node000006" class="node">
<title>Node6</title>
<g id="a_Node000006"><a xlink:href="wi_npo_s-_hook_2dllmain_8cpp.html" target="_top" xlink:title=" ">
<polygon fill="white" stroke="#666666" points="784.62,-20 657.62,-20 657.62,0 784.62,0 784.62,-20"/>
<text text-anchor="middle" x="721.12" y="-6.5" font-family="Helvetica,sans-Serif" font-size="10.00">wiNpoS&#45;Hook/dllmain.cpp</text>
</a>
</g>
</g>
<!-- Node1&#45;&gt;Node6 -->
<g id="edge5_Node000001_Node000006" class="edge">
<title>Node1&#45;&gt;Node6</title>
<g id="a_edge5_Node000001_Node000006"><a xlink:title=" ">
<path fill="none" stroke="#63b8ff" d="M721.12,-44.13C721.12,-35.9 721.12,-26.85 721.12,-20.3"/>
<polygon fill="#63b8ff" stroke="#63b8ff" points="717.63,-44.08 721.13,-54.08 724.63,-44.08 717.63,-44.08"/>
</a>
</g>
</g>
<!-- Node7 -->
<g id="Node000007" class="node">
<title>Node7</title>
<g id="a_Node000007"><a xlink:href="_hooks_cfg_8cpp.html" target="_top" xlink:title=" ">
<polygon fill="white" stroke="#666666" points="949.38,-20 802.88,-20 802.88,0 949.38,0 949.38,-20"/>
<text text-anchor="middle" x="876.12" y="-6.5" font-family="Helvetica,sans-Serif" font-size="10.00">wiNpoS&#45;Shared/HooksCfg.cpp</text>
</a>
</g>
</g>
<!-- Node1&#45;&gt;Node7 -->
<g id="edge6_Node000001_Node000007" class="edge">
<title>Node1&#45;&gt;Node7</title>
<g id="a_edge6_Node000001_Node000007"><a xlink:title=" ">
<path fill="none" stroke="#63b8ff" d="M758.67,-51.92C786.53,-42.21 823.88,-29.2 848.92,-20.48"/>
<polygon fill="#63b8ff" stroke="#63b8ff" points="757.85,-48.5 749.55,-55.1 760.15,-55.11 757.85,-48.5"/>
</a>
</g>
</g>
<!-- Node8 -->
<g id="Node000008" class="node">
<title>Node8</title>
<g id="a_Node000008"><a xlink:href="_hooks_mgr_8cpp.html" target="_top" xlink:title=" ">
<polygon fill="white" stroke="#666666" points="1116.5,-20 967.75,-20 967.75,0 1116.5,0 1116.5,-20"/>
<text text-anchor="middle" x="1042.12" y="-6.5" font-family="Helvetica,sans-Serif" font-size="10.00">wiNpoS&#45;Shared/HooksMgr.cpp</text>
</a>
</g>
</g>
<!-- Node1&#45;&gt;Node8 -->
<g id="edge7_Node000001_Node000008" class="edge">
<title>Node1&#45;&gt;Node8</title>
<g id="a_edge7_Node000001_Node000008"><a xlink:title=" ">
<path fill="none" stroke="#63b8ff" d="M788.4,-53.68C846.96,-43.83 930.86,-29.72 985.91,-20.46"/>
<polygon fill="#63b8ff" stroke="#63b8ff" points="788.18,-50.17 778.9,-55.28 789.34,-57.07 788.18,-50.17"/>
</a>
</g>
</g>
<!-- Node9 -->
<g id="Node000009" class="node">
<title>Node9</title>
<g id="a_Node000009"><a xlink:href="_utils_8cpp.html" target="_top" xlink:title=" ">
<polygon fill="white" stroke="#666666" points="1258.12,-20 1134.12,-20 1134.12,0 1258.12,0 1258.12,-20"/>
<text text-anchor="middle" x="1196.12" y="-6.5" font-family="Helvetica,sans-Serif" font-size="10.00">wiNpoS&#45;Shared/Utils.cpp</text>
</a>
</g>
</g>
<!-- Node1&#45;&gt;Node9 -->
<g id="edge8_Node000001_Node000009" class="edge">
<title>Node1&#45;&gt;Node9</title>
<g id="a_edge8_Node000001_Node000009"><a xlink:title=" ">
<path fill="none" stroke="#63b8ff" d="M802.79,-56.27C884.42,-47.46 1013.52,-33.29 1125.12,-20 1127.96,-19.66 1130.86,-19.31 1133.79,-18.96"/>
<polygon fill="#63b8ff" stroke="#63b8ff" points="802.66,-52.76 793.09,-57.32 803.41,-59.72 802.66,-52.76"/>
</a>
</g>
</g>
<!-- Node10 -->
<g id="Node000010" class="node">
<title>Node10</title>
<g id="a_Node000010"><a xlink:href="_win_pos_wnd_cfg_8cpp.html" target="_top" xlink:title=" ">
<polygon fill="white" stroke="#666666" points="1449.88,-20 1276.38,-20 1276.38,0 1449.88,0 1449.88,-20"/>
<text text-anchor="middle" x="1363.12" y="-6.5" font-family="Helvetica,sans-Serif" font-size="10.00">wiNpoS&#45;Shared/WinPosWndCfg.cpp</text>
</a>
</g>
</g>
<!-- Node1&#45;&gt;Node10 -->
<g id="edge9_Node000001_Node000010" class="edge">
<title>Node1&#45;&gt;Node10</title>
<g id="a_edge9_Node000001_Node000010"><a xlink:title=" ">
<path fill="none" stroke="#63b8ff" d="M803.16,-58.53C910,-50.03 1102.58,-34.49 1267.12,-20 1270.04,-19.74 1273.01,-19.48 1276.01,-19.21"/>
<polygon fill="#63b8ff" stroke="#63b8ff" points="803.03,-55.03 793.33,-59.31 803.58,-62.01 803.03,-55.03"/>
</a>
</g>
</g>
</g>
</svg>
