<?xml version="1.0" encoding="UTF-8" standalone="no"?>
<!DOCTYPE svg PUBLIC "-//W3C//DTD SVG 1.1//EN"
 "http://www.w3.org/Graphics/SVG/1.1/DTD/svg11.dtd">
<!-- Generated by graphviz version 8.1.0 (20230707.0739)
 -->
<!-- Title: wiNpoS&#45;Shared/HooksCfg.h Pages: 1 -->
<svg width="476pt" height="84pt"
 viewBox="0.00 0.00 476.38 84.00" xmlns="http://www.w3.org/2000/svg" xmlns:xlink="http://www.w3.org/1999/xlink">
<g id="graph0" class="graph" transform="scale(1 1) rotate(0) translate(4 80)">
<title>wiNpoS&#45;Shared/HooksCfg.h</title>
<!-- Node1 -->
<g id="Node000001" class="node">
<title>Node1</title>
<g id="a_Node000001"><a xlink:title=" ">
<polygon fill="#999999" stroke="#666666" points="301.12,-76 165.12,-76 165.12,-56 301.12,-56 301.12,-76"/>
<text text-anchor="middle" x="233.12" y="-62.5" font-family="Helvetica,sans-Serif" font-size="10.00">wiNpoS&#45;Shared/HooksCfg.h</text>
</a>
</g>
</g>
<!-- Node2 -->
<g id="Node000002" class="node">
<title>Node2</title>
<g id="a_Node000002"><a xlink:href="wi_npo_s-_app_8cpp.html" target="_top" xlink:title=" ">
<polygon fill="white" stroke="#666666" points="144.25,-20 0,-20 0,0 144.25,0 144.25,-20"/>
<text text-anchor="middle" x="72.12" y="-6.5" font-family="Helvetica,sans-Serif" font-size="10.00">wiNpoS&#45;App/wiNpoS&#45;App.cpp</text>
</a>
</g>
</g>
<!-- Node1&#45;&gt;Node2 -->
<g id="edge1_Node000001_Node000002" class="edge">
<title>Node1&#45;&gt;Node2</title>
<g id="a_edge1_Node000001_Node000002"><a xlink:title=" ">
<path fill="none" stroke="#63b8ff" d="M194.89,-52.18C165.87,-42.44 126.62,-29.28 100.39,-20.48"/>
<polygon fill="#63b8ff" stroke="#63b8ff" points="193.49,-55.73 204.08,-55.59 195.71,-49.1 193.49,-55.73"/>
</a>
</g>
</g>
<!-- Node3 -->
<g id="Node000003" class="node">
<title>Node3</title>
<g id="a_Node000003"><a xlink:href="_hooks_impl_8cpp.html" target="_top" xlink:title=" ">
<polygon fill="white" stroke="#666666" points="304.12,-20 162.12,-20 162.12,0 304.12,0 304.12,-20"/>
<text text-anchor="middle" x="233.12" y="-6.5" font-family="Helvetica,sans-Serif" font-size="10.00">wiNpoS&#45;Hook/HooksImpl.cpp</text>
</a>
</g>
</g>
<!-- Node1&#45;&gt;Node3 -->
<g id="edge2_Node000001_Node000003" class="edge">
<title>Node1&#45;&gt;Node3</title>
<g id="a_edge2_Node000001_Node000003"><a xlink:title=" ">
<path fill="none" stroke="#63b8ff" d="M233.12,-44.71C233.12,-36.32 233.12,-27.01 233.12,-20.3"/>
<polygon fill="#63b8ff" stroke="#63b8ff" points="229.63,-44.59 233.12,-54.59 236.63,-44.59 229.63,-44.59"/>
</a>
</g>
</g>
<!-- Node4 -->
<g id="Node000004" class="node">
<title>Node4</title>
<g id="a_Node000004"><a xlink:href="_hooks_cfg_8cpp.html" target="_top" xlink:title=" ">
<polygon fill="white" stroke="#666666" points="468.38,-20 321.88,-20 321.88,0 468.38,0 468.38,-20"/>
<text text-anchor="middle" x="395.12" y="-6.5" font-family="Helvetica,sans-Serif" font-size="10.00">wiNpoS&#45;Shared/HooksCfg.cpp</text>
</a>
</g>
</g>
<!-- Node1&#45;&gt;Node4 -->
<g id="edge3_Node000001_Node000004" class="edge">
<title>Node1&#45;&gt;Node4</title>
<g id="a_edge3_Node000001_Node000004"><a xlink:title=" ">
<path fill="none" stroke="#63b8ff" d="M271.59,-52.18C300.79,-42.44 340.29,-29.28 366.69,-20.48"/>
<polygon fill="#63b8ff" stroke="#63b8ff" points="270.72,-49.11 262.34,-55.59 272.94,-55.75 270.72,-49.11"/>
</a>
</g>
</g>
</g>
</svg>
