<?xml version="1.0" encoding="UTF-8" standalone="no"?>
<!DOCTYPE svg PUBLIC "-//W3C//DTD SVG 1.1//EN"
 "http://www.w3.org/Graphics/SVG/1.1/DTD/svg11.dtd">
<!-- Generated by graphviz version 9.0.0 (20230911.1827)
 -->
<!-- Title: ShellHookProc Pages: 1 -->
<svg width="744pt" height="85pt"
 viewBox="0.00 0.00 743.50 85.00" xmlns="http://www.w3.org/2000/svg" xmlns:xlink="http://www.w3.org/1999/xlink">
<g id="graph0" class="graph" transform="scale(1 1) rotate(0) translate(4 81)">
<title>ShellHookProc</title>
<!-- Node1 -->
<g id="Node000001" class="node">
<title>Node1</title>
<g id="a_Node000001"><a xlink:title="the exported hook for the shell procedure">
<polygon fill="#999999" stroke="#666666" points="80.5,-39 0,-39 0,-19 80.5,-19 80.5,-39"/>
<text text-anchor="middle" x="40.25" y="-25.5" font-family="Helvetica,sans-Serif" font-size="10.00">ShellHookProc</text>
</a>
</g>
</g>
<!-- Node2 -->
<g id="Node000002" class="node">
<title>Node2</title>
<g id="a_Node000002"><a xlink:href="class_hooks_cfg.html#ab994ae67a05ce4decf5b7af5314eb913" target="_top" xlink:title="check if someone has disabled stored in config">
<polygon fill="white" stroke="#666666" points="236.38,-58 127.38,-58 127.38,-38 236.38,-38 236.38,-58"/>
<text text-anchor="middle" x="181.88" y="-44.5" font-family="Helvetica,sans-Serif" font-size="10.00">HooksCfg::isDisabled</text>
</a>
</g>
</g>
<!-- Node1&#45;&gt;Node2 -->
<g id="edge1_Node000001_Node000002" class="edge">
<title>Node1&#45;&gt;Node2</title>
<g id="a_edge1_Node000001_Node000002"><a xlink:title=" ">
<path fill="none" stroke="#63b8ff" d="M80.89,-34.39C91.76,-35.87 103.85,-37.52 115.75,-39.14"/>
<polygon fill="#63b8ff" stroke="#63b8ff" points="115.18,-42.59 125.56,-40.47 116.12,-35.66 115.18,-42.59"/>
</a>
</g>
</g>
<!-- Node7 -->
<g id="Node000007" class="node">
<title>Node7</title>
<g id="a_Node000007"><a xlink:href="class_hooks_impl.html#aa3b88c7817f9b5f54c2a0cfc8215c45f" target="_top" xlink:title=" ">
<polygon fill="white" stroke="#666666" points="247.25,-20 116.5,-20 116.5,0 247.25,0 247.25,-20"/>
<text text-anchor="middle" x="181.88" y="-6.5" font-family="Helvetica,sans-Serif" font-size="10.00">HooksImpl::shellHookProc</text>
</a>
</g>
</g>
<!-- Node1&#45;&gt;Node7 -->
<g id="edge6_Node000001_Node000007" class="edge">
<title>Node1&#45;&gt;Node7</title>
<g id="a_edge6_Node000001_Node000007"><a xlink:title=" ">
<path fill="none" stroke="#63b8ff" d="M80.89,-23.61C88.43,-22.58 96.55,-21.48 104.78,-20.35"/>
<polygon fill="#63b8ff" stroke="#63b8ff" points="105.11,-23.84 114.54,-19.03 104.16,-16.91 105.11,-23.84"/>
</a>
</g>
</g>
<!-- Node3 -->
<g id="Node000003" class="node">
<title>Node3</title>
<g id="a_Node000003"><a xlink:href="class_hooks_cfg.html#a9642afc6c6fe88141770403a09cdfc4b" target="_top" xlink:title="read the global config for all apps">
<polygon fill="white" stroke="#666666" points="393,-58 283.25,-58 283.25,-38 393,-38 393,-58"/>
<text text-anchor="middle" x="338.12" y="-44.5" font-family="Helvetica,sans-Serif" font-size="10.00">HooksCfg::readConfig</text>
</a>
</g>
</g>
<!-- Node2&#45;&gt;Node3 -->
<g id="edge2_Node000002_Node000003" class="edge">
<title>Node2&#45;&gt;Node3</title>
<g id="a_edge2_Node000002_Node000003"><a xlink:title=" ">
<path fill="none" stroke="#63b8ff" d="M236.82,-48C248.03,-48 259.96,-48 271.53,-48"/>
<polygon fill="#63b8ff" stroke="#63b8ff" points="271.43,-51.5 281.43,-48 271.43,-44.5 271.43,-51.5"/>
</a>
</g>
</g>
<!-- Node4 -->
<g id="Node000004" class="node">
<title>Node4</title>
<g id="a_Node000004"><a xlink:href="class_hooks_cfg.html#a808e4e4a7bc43b89c87ef172fa8caf6a" target="_top" xlink:title="the path to the global config, for all apps">
<polygon fill="white" stroke="#666666" points="568.38,-77 443.62,-77 443.62,-57 568.38,-57 568.38,-77"/>
<text text-anchor="middle" x="506" y="-63.5" font-family="Helvetica,sans-Serif" font-size="10.00">HooksCfg::getConfigPath</text>
</a>
</g>
</g>
<!-- Node3&#45;&gt;Node4 -->
<g id="edge3_Node000003_Node000004" class="edge">
<title>Node3&#45;&gt;Node4</title>
<g id="a_edge3_Node000003_Node000004"><a xlink:title=" ">
<path fill="none" stroke="#63b8ff" d="M393.44,-54.22C405.79,-55.64 419.1,-57.16 432.09,-58.65"/>
<polygon fill="#63b8ff" stroke="#63b8ff" points="431.54,-62.11 441.87,-59.77 432.34,-55.15 431.54,-62.11"/>
</a>
</g>
</g>
<!-- Node6 -->
<g id="Node000006" class="node">
<title>Node6</title>
<g id="a_Node000006"><a xlink:href="class_hooks_cfg.html#ab8fd861156e6b389e43bbda021f42c50" target="_top" xlink:title="read a JSON config from given path">
<polygon fill="white" stroke="#666666" points="583,-39 429,-39 429,-19 583,-19 583,-39"/>
<text text-anchor="middle" x="506" y="-25.5" font-family="Helvetica,sans-Serif" font-size="10.00">HooksCfg::readConfigDocument</text>
</a>
</g>
</g>
<!-- Node3&#45;&gt;Node6 -->
<g id="edge5_Node000003_Node000006" class="edge">
<title>Node3&#45;&gt;Node6</title>
<g id="a_edge5_Node000003_Node000006"><a xlink:title=" ">
<path fill="none" stroke="#63b8ff" d="M393.44,-41.78C401.08,-40.9 409.09,-39.99 417.17,-39.06"/>
<polygon fill="#63b8ff" stroke="#63b8ff" points="417.55,-42.54 427.09,-37.92 416.75,-35.59 417.55,-42.54"/>
</a>
</g>
</g>
<!-- Node5 -->
<g id="Node000005" class="node">
<title>Node5</title>
<g id="a_Node000005"><a xlink:href="class_hooks_cfg.html#a437c5768d5246cf980d1be5ea6f272c6" target="_top" xlink:title="the directory, where store the configs and logs">
<polygon fill="white" stroke="#666666" points="735.5,-77 619,-77 619,-57 735.5,-57 735.5,-77"/>
<text text-anchor="middle" x="677.25" y="-63.5" font-family="Helvetica,sans-Serif" font-size="10.00">HooksCfg::getConfigDir</text>
</a>
</g>
</g>
<!-- Node4&#45;&gt;Node5 -->
<g id="edge4_Node000004_Node000005" class="edge">
<title>Node4&#45;&gt;Node5</title>
<g id="a_edge4_Node000004_Node000005"><a xlink:title=" ">
<path fill="none" stroke="#63b8ff" d="M568.58,-67C581.23,-67 594.62,-67 607.5,-67"/>
<polygon fill="#63b8ff" stroke="#63b8ff" points="607.14,-70.5 617.14,-67 607.14,-63.5 607.14,-70.5"/>
</a>
</g>
</g>
</g>
</svg>
