<?xml version="1.0" encoding="UTF-8" standalone="no"?>
<!DOCTYPE svg PUBLIC "-//W3C//DTD SVG 1.1//EN"
 "http://www.w3.org/Graphics/SVG/1.1/DTD/svg11.dtd">
<!-- Generated by graphviz version 8.1.0 (20230707.0739)
 -->
<!-- Title: GetMsgProc Pages: 1 -->
<!--zoomable 515 -->

<svg id="main" version="1.1" xmlns="http://www.w3.org/2000/svg" xmlns:xlink="http://www.w3.org/1999/xlink" xml:space="preserve" onload="init(evt)">
<style type="text/css"><![CDATA[
.node, .edge {opacity: 0.7;}
.node.selected, .edge.selected {opacity: 1;}
.edge:hover path { stroke: red; }
.edge:hover polygon { stroke: red; fill: red; }
]]></style>

<defs>
  <circle id="rim" cx="0" cy="0" r="7"/>
  <circle id="rim2" cx="0" cy="0" r="3.5"/>
  <g id="zoomPlus">
    <use xlink:href="#rim" fill="#404040"><set attributeName="fill" to="#808080" begin="zoomplus.mouseover" end="zoomplus.mouseout"/></use>
    <path d="M-4,0h8M0,-4v8" fill="none" stroke="white" stroke-width="1.5" pointer-events="none"/>
  </g>
  <g id="zoomMin">
    <use xlink:href="#rim" fill="#404040"><set attributeName="fill" to="#808080" begin="zoomminus.mouseover" end="zoomminus.mouseout"/></use>
    <path d="M-4,0h8" fill="none" stroke="white" stroke-width="1.5" pointer-events="none"/>
  </g>
  <g id="arrowUp" transform="translate(30 24)">
    <use xlink:href="#rim"/>
    <path pointer-events="none" fill="none" stroke="white" stroke-width="1.5" d="M0,-3.0v7 M-2.5,-0.5L0,-3.0L2.5,-0.5"/>
  </g>
  <g id="arrowRight" transform="rotate(90) translate(36 -43)">
    <use xlink:href="#rim"/>
    <path pointer-events="none" fill="none" stroke="white" stroke-width="1.5" d="M0,-3.0v7 M-2.5,-0.5L0,-3.0L2.5,-0.5"/>
  </g>
  <g id="arrowDown" transform="rotate(180) translate(-30 -48)">
    <use xlink:href="#rim"/>
    <path pointer-events="none" fill="none" stroke="white" stroke-width="1.5" d="M0,-3.0v7 M-2.5,-0.5L0,-3.0L2.5,-0.5"/>
  </g>
  <g id="arrowLeft" transform="rotate(270) translate(-36 17)">
    <use xlink:href="#rim"/>
    <path pointer-events="none" fill="none" stroke="white" stroke-width="1.5" d="M0,-3.0v7 M-2.5,-0.5L0,-3.0L2.5,-0.5"/>
  </g>
  <g id="resetDef">
    <use xlink:href="#rim2" fill="#404040"><set attributeName="fill" to="#808080" begin="reset.mouseover" end="reset.mouseout"/></use>
  </g>
</defs>
<script type="application/ecmascript">
var viewWidth = 1376;
var viewHeight = 515;
var sectionId = 'dynsection-3';
</script>
<script type="application/ecmascript" xlink:href="svg.min.js"/>
<svg id="graph" class="graph">
<g id="viewport">
<title>GetMsgProc</title>
<!-- Node1 -->
<g id="Node000001" class="node">
<title>Node1</title>
<g id="a_Node000001"><a xlink:title="the exported hook for the windows&#45;message procedure">
<polygon fill="#999999" stroke="#666666" points="70.75,-159 0,-159 0,-139 70.75,-139 70.75,-159"/>
<text text-anchor="middle" x="35.38" y="-145.5" font-family="Helvetica,sans-Serif" font-size="10.00">GetMsgProc</text>
</a>
</g>
</g>
<!-- Node2 -->
<g id="Node000002" class="node">
<title>Node2</title>
<g id="a_Node000002"><a xlink:href="class_hooks_impl.html#a07053e18c49265e300fe89b2a5bc28de" target="_top" xlink:title="here the Windows messages are picked up, which do not appear in the main message loop">
<polygon fill="white" stroke="#666666" points="227,-279 106.75,-279 106.75,-259 227,-259 227,-279"/>
<text text-anchor="middle" x="166.88" y="-265.5" font-family="Helvetica,sans-Serif" font-size="10.00">HooksImpl::getMsgProc</text>
</a>
</g>
</g>
<!-- Node1&#45;&gt;Node2 -->
<g id="edge1_Node000001_Node000002" class="edge">
<title>Node1&#45;&gt;Node2</title>
<g id="a_edge1_Node000001_Node000002"><a xlink:title=" ">
<path fill="none" stroke="#63b8ff" d="M47.42,-159.23C69.59,-179.78 119.74,-226.25 147.15,-251.64"/>
<polygon fill="#63b8ff" stroke="#63b8ff" points="144.15,-253.57 153.86,-257.79 148.91,-248.43 144.15,-253.57"/>
</a>
</g>
</g>
<!-- Node32 -->
<g id="Node000032" class="node">
<title>Node32</title>
<g id="a_Node000032"><a xlink:href="class_hooks_cfg.html#ab994ae67a05ce4decf5b7af5314eb913" target="_top" xlink:title="check if someone has disabled stored in config">
<polygon fill="white" stroke="#666666" points="221.38,-140 112.38,-140 112.38,-120 221.38,-120 221.38,-140"/>
<text text-anchor="middle" x="166.88" y="-126.5" font-family="Helvetica,sans-Serif" font-size="10.00">HooksCfg::isDisabled</text>
</a>
</g>
</g>
<!-- Node1&#45;&gt;Node32 -->
<g id="edge43_Node000001_Node000032" class="edge">
<title>Node1&#45;&gt;Node32</title>
<g id="a_edge43_Node000001_Node000032"><a xlink:title=" ">
<path fill="none" stroke="#63b8ff" d="M71.08,-143.91C80.42,-142.54 90.83,-141.01 101.24,-139.48"/>
<polygon fill="#63b8ff" stroke="#63b8ff" points="101.66,-142.81 111.05,-137.9 100.64,-135.89 101.66,-142.81"/>
</a>
</g>
</g>
<!-- Node3 -->
<g id="Node000003" class="node">
<title>Node3</title>
<g id="a_Node000003"><a xlink:href="class_hooks_impl.html#a30acc60a07305d2df36a7798cb73aaa1" target="_top" xlink:title=" ">
<polygon fill="white" stroke="#666666" points="414.75,-431 269,-431 269,-411 414.75,-411 414.75,-431"/>
<text text-anchor="middle" x="341.88" y="-417.5" font-family="Helvetica,sans-Serif" font-size="10.00">HooksImpl::getLButtonUpMsg</text>
</a>
</g>
</g>
<!-- Node2&#45;&gt;Node3 -->
<g id="edge2_Node000002_Node000003" class="edge">
<title>Node2&#45;&gt;Node3</title>
<g id="a_edge2_Node000002_Node000003"><a xlink:title=" ">
<path fill="none" stroke="#63b8ff" d="M172.12,-279.22C183.11,-304.36 215.03,-369.56 263,-402 265.14,-403.45 267.38,-404.78 269.69,-406.02"/>
<polygon fill="#63b8ff" stroke="#63b8ff" points="268,-409.55 278.55,-410.55 270.92,-403.19 268,-409.55"/>
</a>
</g>
</g>
<!-- Node4 -->
<g id="Node000004" class="node">
<title>Node4</title>
<g id="a_Node000004"><a xlink:href="class_hooks_impl.html#a1f4bd7b8436918fc1cd5cea1c3a15bc9" target="_top" xlink:title=" ">
<polygon fill="white" stroke="#666666" points="420.75,-393 263,-393 263,-373 420.75,-373 420.75,-393"/>
<text text-anchor="middle" x="341.88" y="-379.5" font-family="Helvetica,sans-Serif" font-size="10.00">HooksImpl::getNcLButtonUpMsg</text>
</a>
</g>
</g>
<!-- Node2&#45;&gt;Node4 -->
<g id="edge3_Node000002_Node000004" class="edge">
<title>Node2&#45;&gt;Node4</title>
<g id="a_edge3_Node000002_Node000004"><a xlink:title=" ">
<path fill="none" stroke="#63b8ff" d="M175.19,-279.42C189.61,-299.14 223.73,-341.93 263,-364 266.03,-365.7 269.22,-367.26 272.49,-368.67"/>
<polygon fill="#63b8ff" stroke="#63b8ff" points="270.94,-372.21 281.54,-372.51 273.45,-365.67 270.94,-372.21"/>
</a>
</g>
</g>
<!-- Node5 -->
<g id="Node000005" class="node">
<title>Node5</title>
<g id="a_Node000005"><a xlink:href="class_task_toolbar.html#a3159b1e31199ee3691bf2bcf5ec21100" target="_top" xlink:title=" ">
<polygon fill="white" stroke="#666666" points="396.75,-355 287,-355 287,-335 396.75,-335 396.75,-355"/>
<text text-anchor="middle" x="341.88" y="-341.5" font-family="Helvetica,sans-Serif" font-size="10.00">TaskToolbar::initialize</text>
</a>
</g>
</g>
<!-- Node2&#45;&gt;Node5 -->
<g id="edge4_Node000002_Node000005" class="edge">
<title>Node2&#45;&gt;Node5</title>
<g id="a_edge4_Node000002_Node000005"><a xlink:title=" ">
<path fill="none" stroke="#63b8ff" d="M184.54,-279.46C203.14,-290.81 234.39,-308.92 263,-321 271.9,-324.76 281.6,-328.22 291.03,-331.28"/>
<polygon fill="#63b8ff" stroke="#63b8ff" points="289.92,-334.91 300.51,-334.55 292,-328.23 289.92,-334.91"/>
</a>
</g>
</g>
<!-- Node6 -->
<g id="Node000006" class="node">
<title>Node6</title>
<g id="a_Node000006"><a xlink:href="class_hooks_impl.html#ae0d26e76e300b5392e64fb070aafe8d5" target="_top" xlink:title="do the work, if necessary">
<polygon fill="white" stroke="#666666" points="408.38,-241 275.38,-241 275.38,-221 408.38,-221 408.38,-241"/>
<text text-anchor="middle" x="341.88" y="-227.5" font-family="Helvetica,sans-Serif" font-size="10.00">HooksImpl::onCaptionClick</text>
</a>
</g>
</g>
<!-- Node2&#45;&gt;Node6 -->
<g id="edge5_Node000002_Node000006" class="edge">
<title>Node2&#45;&gt;Node6</title>
<g id="a_edge5_Node000002_Node000006"><a xlink:title=" ">
<path fill="none" stroke="#63b8ff" d="M215.61,-258.52C236.41,-253.95 260.98,-248.55 282.82,-243.75"/>
<polygon fill="#63b8ff" stroke="#63b8ff" points="283.28,-247.01 292.3,-241.45 281.78,-240.18 283.28,-247.01"/>
</a>
</g>
</g>
<!-- Node8 -->
<g id="Node000008" class="node">
<title>Node8</title>
<g id="a_Node000008"><a xlink:href="class_hooks_impl.html#a84c9a5c6b0754e092de2ee6a8b8bba1e" target="_top" xlink:title="method to change the size of a window in steps">
<polygon fill="white" stroke="#666666" points="612.25,-291 456.75,-291 456.75,-271 612.25,-271 612.25,-291"/>
<text text-anchor="middle" x="534.5" y="-277.5" font-family="Helvetica,sans-Serif" font-size="10.00">HooksImpl::onIncrementWindow</text>
</a>
</g>
</g>
<!-- Node2&#45;&gt;Node8 -->
<g id="edge33_Node000002_Node000008" class="edge">
<title>Node2&#45;&gt;Node8</title>
<g id="a_edge33_Node000002_Node000008"><a xlink:title=" ">
<path fill="none" stroke="#63b8ff" d="M210.7,-279.42C226.97,-282.88 245.74,-286.29 263,-288 323.79,-294.01 392.62,-292.11 445.64,-288.78"/>
<polygon fill="#63b8ff" stroke="#63b8ff" points="445.61,-292.23 455.36,-288.08 445.15,-285.24 445.61,-292.23"/>
</a>
</g>
</g>
<!-- Node9 -->
<g id="Node000009" class="node">
<title>Node9</title>
<g id="a_Node000009"><a xlink:href="class_hooks_impl.html#ab6696c1ccc12ebdd892883485456ed3c" target="_top" xlink:title=" ">
<polygon fill="white" stroke="#666666" points="604.38,-203 464.62,-203 464.62,-183 604.38,-183 604.38,-203"/>
<text text-anchor="middle" x="534.5" y="-189.5" font-family="Helvetica,sans-Serif" font-size="10.00">HooksImpl::onShowPosWnd</text>
</a>
</g>
</g>
<!-- Node2&#45;&gt;Node9 -->
<g id="edge41_Node000002_Node000009" class="edge">
<title>Node2&#45;&gt;Node9</title>
<g id="a_edge41_Node000002_Node000009"><a xlink:title=" ">
<path fill="none" stroke="#63b8ff" d="M180.77,-258.53C198.21,-245.04 230.86,-222.12 263,-212 324.99,-192.49 398.78,-188.49 453.62,-188.96"/>
<polygon fill="#63b8ff" stroke="#63b8ff" points="453.28,-192.46 463.33,-189.1 453.38,-185.47 453.28,-192.46"/>
</a>
</g>
</g>
<!-- Node25 -->
<g id="Node000025" class="node">
<title>Node25</title>
<g id="a_Node000025"><a xlink:href="class_hooks_impl.html#a924c5db32f07636c8acbc9421c216112" target="_top" xlink:title=" ">
<polygon fill="white" stroke="#666666" points="604.75,-165 464.25,-165 464.25,-145 604.75,-145 604.75,-165"/>
<text text-anchor="middle" x="534.5" y="-151.5" font-family="Helvetica,sans-Serif" font-size="10.00">HooksImpl::onClosePosWnd</text>
</a>
</g>
</g>
<!-- Node2&#45;&gt;Node25 -->
<g id="edge29_Node000002_Node000025" class="edge">
<title>Node2&#45;&gt;Node25</title>
<g id="a_edge29_Node000002_Node000025"><a xlink:title=" ">
<path fill="none" stroke="#63b8ff" d="M175.95,-258.51C190.87,-240.01 224.72,-201.95 263,-185 322.94,-158.45 397.37,-151.87 452.97,-151.41"/>
<polygon fill="#63b8ff" stroke="#63b8ff" points="452.84,-154.91 462.83,-151.39 452.83,-147.91 452.84,-154.91"/>
</a>
</g>
</g>
<!-- Node26 -->
<g id="Node000026" class="node">
<title>Node26</title>
<g id="a_Node000026"><a xlink:href="class_hooks_impl.html#a7628ad89b3625fcd9e8538d94d7b2cde" target="_top" xlink:title="processes the WM_LBUTTONUP event">
<polygon fill="white" stroke="#666666" points="403.88,-279 279.88,-279 279.88,-259 403.88,-259 403.88,-279"/>
<text text-anchor="middle" x="341.88" y="-265.5" font-family="Helvetica,sans-Serif" font-size="10.00">HooksImpl::onLButtonUp</text>
</a>
</g>
</g>
<!-- Node2&#45;&gt;Node26 -->
<g id="edge34_Node000002_Node000026" class="edge">
<title>Node2&#45;&gt;Node26</title>
<g id="a_edge34_Node000002_Node000026"><a xlink:title=" ">
<path fill="none" stroke="#63b8ff" d="M227.41,-269C240.68,-269 254.88,-269 268.6,-269"/>
<polygon fill="#63b8ff" stroke="#63b8ff" points="268.46,-272.5 278.46,-269 268.46,-265.5 268.46,-272.5"/>
</a>
</g>
</g>
<!-- Node27 -->
<g id="Node000027" class="node">
<title>Node27</title>
<g id="a_Node000027"><a xlink:href="class_hooks_impl.html#afe7a8e2c13ab2abe83b4f3d0c462e761" target="_top" xlink:title="this procedure handles the double click in non&#45;client area">
<polygon fill="white" stroke="#666666" points="411,-127 272.75,-127 272.75,-95 411,-95 411,-127"/>
<text text-anchor="start" x="280.75" y="-113.5" font-family="Helvetica,sans-Serif" font-size="10.00">HooksImpl::onNcLButtonDbl</text>
<text text-anchor="middle" x="341.88" y="-101.5" font-family="Helvetica,sans-Serif" font-size="10.00">Click</text>
</a>
</g>
</g>
<!-- Node2&#45;&gt;Node27 -->
<g id="edge37_Node000002_Node000027" class="edge">
<title>Node2&#45;&gt;Node27</title>
<g id="a_edge37_Node000002_Node000027"><a xlink:title=" ">
<path fill="none" stroke="#63b8ff" d="M172.84,-258.83C184.99,-234.97 218.47,-174.83 263,-141 267.29,-137.74 271.97,-134.8 276.85,-132.14"/>
<polygon fill="#63b8ff" stroke="#63b8ff" points="278.01,-134.98 285.41,-127.4 274.89,-128.71 278.01,-134.98"/>
</a>
</g>
</g>
<!-- Node29 -->
<g id="Node000029" class="node">
<title>Node29</title>
<g id="a_Node000029"><a xlink:href="class_hooks_impl.html#a9adf50040968aa66908f643ad1edda53" target="_top" xlink:title="processes the WM_NCLBUTTONDOWN event">
<polygon fill="white" stroke="#666666" points="415.88,-77 267.88,-77 267.88,-57 415.88,-57 415.88,-77"/>
<text text-anchor="middle" x="341.88" y="-63.5" font-family="Helvetica,sans-Serif" font-size="10.00">HooksImpl::onNcLButtonDown</text>
</a>
</g>
</g>
<!-- Node2&#45;&gt;Node29 -->
<g id="edge39_Node000002_Node000029" class="edge">
<title>Node2&#45;&gt;Node29</title>
<g id="a_edge39_Node000002_Node000029"><a xlink:title=" ">
<path fill="none" stroke="#63b8ff" d="M172.91,-258.76C191.45,-221.08 255.31,-92.04 263,-86 264.64,-84.71 266.36,-83.51 268.14,-82.39"/>
<polygon fill="#63b8ff" stroke="#63b8ff" points="269.28,-85.21 276.46,-77.41 265.99,-79.03 269.28,-85.21"/>
</a>
</g>
</g>
<!-- Node30 -->
<g id="Node000030" class="node">
<title>Node30</title>
<g id="a_Node000030"><a xlink:href="class_hooks_impl.html#a88ea927a4d021535e4a5768ef60a50d7" target="_top" xlink:title="processes the WM_NCLBUTTONUP event">
<polygon fill="white" stroke="#666666" points="410.62,-507 273.12,-507 273.12,-487 410.62,-487 410.62,-507"/>
<text text-anchor="middle" x="341.88" y="-493.5" font-family="Helvetica,sans-Serif" font-size="10.00">HooksImpl::onNCLButtonUp</text>
</a>
</g>
</g>
<!-- Node2&#45;&gt;Node30 -->
<g id="edge40_Node000002_Node000030" class="edge">
<title>Node2&#45;&gt;Node30</title>
<g id="a_edge40_Node000002_Node000030"><a xlink:title=" ">
<path fill="none" stroke="#63b8ff" d="M169.33,-279.16C174.76,-313.08 196.98,-423.34 263,-478 264.44,-479.19 265.94,-480.31 267.49,-481.36"/>
<polygon fill="#63b8ff" stroke="#63b8ff" points="265.45,-484.79 275.88,-486.65 268.89,-478.69 265.45,-484.79"/>
</a>
</g>
</g>
<!-- Node31 -->
<g id="Node000031" class="node">
<title>Node31</title>
<g id="a_Node000031"><a xlink:href="class_task_toolbar.html#a2304586dd147f754c7040f781eda1270" target="_top" xlink:title=" ">
<polygon fill="white" stroke="#666666" points="402,-469 281.75,-469 281.75,-449 402,-449 402,-469"/>
<text text-anchor="middle" x="341.88" y="-455.5" font-family="Helvetica,sans-Serif" font-size="10.00">TaskToolbar::uninitialize</text>
</a>
</g>
</g>
<!-- Node2&#45;&gt;Node31 -->
<g id="edge42_Node000002_Node000031" class="edge">
<title>Node2&#45;&gt;Node31</title>
<g id="a_edge42_Node000002_Node000031"><a xlink:title=" ">
<path fill="none" stroke="#63b8ff" d="M170.49,-279.39C178.6,-309.39 206.26,-396.76 263,-440 265.68,-442.04 268.55,-443.87 271.55,-445.5"/>
<polygon fill="#63b8ff" stroke="#63b8ff" points="269.96,-449.08 280.5,-450.08 272.88,-442.72 269.96,-449.08"/>
</a>
</g>
</g>
<!-- Node7 -->
<g id="Node000007" class="node">
<title>Node7</title>
<g id="a_Node000007"><a xlink:href="class_hooks_impl.html#a8ef5405a747979c1f5197848e4a8e684" target="_top" xlink:title=" ">
<polygon fill="white" stroke="#666666" points="599.88,-253 469.12,-253 469.12,-221 599.88,-221 599.88,-253"/>
<text text-anchor="start" x="477.12" y="-239.5" font-family="Helvetica,sans-Serif" font-size="10.00">HooksImpl::hasCaptionDbl</text>
<text text-anchor="middle" x="534.5" y="-227.5" font-family="Helvetica,sans-Serif" font-size="10.00">Clicked</text>
</a>
</g>
</g>
<!-- Node6&#45;&gt;Node7 -->
<g id="edge6_Node000006_Node000007" class="edge">
<title>Node6&#45;&gt;Node7</title>
<g id="a_edge6_Node000006_Node000007"><a xlink:title=" ">
<path fill="none" stroke="#63b8ff" d="M408.74,-233.07C424.72,-233.58 441.93,-234.12 458.3,-234.63"/>
<polygon fill="#63b8ff" stroke="#63b8ff" points="457.81,-238.15 467.92,-234.97 458.03,-231.15 457.81,-238.15"/>
</a>
</g>
</g>
<!-- Node6&#45;&gt;Node8 -->
<g id="edge7_Node000006_Node000008" class="edge">
<title>Node6&#45;&gt;Node8</title>
<g id="a_edge7_Node000006_Node000008"><a xlink:title=" ">
<path fill="none" stroke="#63b8ff" d="M388.34,-241.42C399.02,-244.06 410.32,-246.99 420.75,-250 436.96,-254.67 440.55,-257.3 456.75,-262 463.66,-264 470.96,-265.98 478.19,-267.86"/>
<polygon fill="#63b8ff" stroke="#63b8ff" points="477.14,-271.46 487.7,-270.54 478.87,-264.68 477.14,-271.46"/>
</a>
</g>
</g>
<!-- Node6&#45;&gt;Node9 -->
<g id="edge8_Node000006_Node000009" class="edge">
<title>Node6&#45;&gt;Node9</title>
<g id="a_edge8_Node000006_Node000009"><a xlink:title=" ">
<path fill="none" stroke="#63b8ff" d="M395.47,-220.52C418.7,-215.88 446.2,-210.4 470.52,-205.56"/>
<polygon fill="#63b8ff" stroke="#63b8ff" points="470.96,-208.84 480.08,-203.45 469.59,-201.97 470.96,-208.84"/>
</a>
</g>
</g>
<!-- Node10 -->
<g id="Node000010" class="node">
<title>Node10</title>
<g id="a_Node000010"><a xlink:href="class_win_pos_wnd.html#abec2e67db5543a717d59b02ab8dbb930" target="_top" xlink:title="create the required windows for monitor preview and all configured positions">
<polygon fill="white" stroke="#666666" points="770.38,-307 666.62,-307 666.62,-287 770.38,-287 770.38,-307"/>
<text text-anchor="middle" x="718.5" y="-293.5" font-family="Helvetica,sans-Serif" font-size="10.00">WinPosWnd::create</text>
</a>
</g>
</g>
<!-- Node9&#45;&gt;Node10 -->
<g id="edge9_Node000009_Node000010" class="edge">
<title>Node9&#45;&gt;Node10</title>
<g id="a_edge9_Node000009_Node000010"><a xlink:title=" ">
<path fill="none" stroke="#63b8ff" d="M590.23,-203.41C597.82,-205.75 605.37,-208.58 612.25,-212 646.88,-229.2 680.5,-259.43 700.08,-278.82"/>
<polygon fill="#63b8ff" stroke="#63b8ff" points="697.3,-280.99 706.82,-285.64 702.27,-276.07 697.3,-280.99"/>
</a>
</g>
</g>
<!-- Node24 -->
<g id="Node000024" class="node">
<title>Node24</title>
<g id="a_Node000024"><a xlink:href="class_win_pos_wnd.html#acb456c59641ec336d5c7646764fe7e6a" target="_top" xlink:title=" ">
<polygon fill="white" stroke="#666666" points="788.75,-203 648.25,-203 648.25,-183 788.75,-183 788.75,-203"/>
<text text-anchor="middle" x="718.5" y="-189.5" font-family="Helvetica,sans-Serif" font-size="10.00">WinPosWnd::getWndHandle</text>
</a>
</g>
</g>
<!-- Node9&#45;&gt;Node24 -->
<g id="edge28_Node000009_Node000024" class="edge">
<title>Node9&#45;&gt;Node24</title>
<g id="a_edge28_Node000009_Node000024"><a xlink:title=" ">
<path fill="none" stroke="#63b8ff" d="M604.83,-193C615.37,-193 626.33,-193 637.09,-193"/>
<polygon fill="#63b8ff" stroke="#63b8ff" points="636.76,-196.5 646.76,-193 636.76,-189.5 636.76,-196.5"/>
</a>
</g>
</g>
<!-- Node11 -->
<g id="Node000011" class="node">
<title>Node11</title>
<g id="a_Node000011"><a xlink:href="class_win_pos_wnd.html#a4b607f031e5058874a31918e4cc1ba79" target="_top" xlink:title="if the window looks beyond the edge of the monitor, it is moved so that it is displayed as a whole on...">
<polygon fill="white" stroke="#666666" points="984.75,-335 829.25,-335 829.25,-315 984.75,-315 984.75,-335"/>
<text text-anchor="middle" x="907" y="-321.5" font-family="Helvetica,sans-Serif" font-size="10.00">WinPosWnd::correctEdgecases</text>
</a>
</g>
</g>
<!-- Node10&#45;&gt;Node11 -->
<g id="edge10_Node000010_Node000011" class="edge">
<title>Node10&#45;&gt;Node11</title>
<g id="a_edge10_Node000010_Node000011"><a xlink:title=" ">
<path fill="none" stroke="#63b8ff" d="M770.46,-304.65C787.41,-307.2 806.73,-310.1 825.36,-312.89"/>
<polygon fill="#63b8ff" stroke="#63b8ff" points="824.81,-316.5 835.22,-314.52 825.85,-309.58 824.81,-316.5"/>
</a>
</g>
</g>
<!-- Node12 -->
<g id="Node000012" class="node">
<title>Node12</title>
<g id="a_Node000012"><a xlink:href="class_win_pos_wnd.html#a8abc6edd027488d4f7242b9f12693af8" target="_top" xlink:title="destroys every windows">
<polygon fill="white" stroke="#666666" points="961.5,-165 852.5,-165 852.5,-145 961.5,-145 961.5,-165"/>
<text text-anchor="middle" x="907" y="-151.5" font-family="Helvetica,sans-Serif" font-size="10.00">WinPosWnd::destroy</text>
</a>
</g>
</g>
<!-- Node10&#45;&gt;Node12 -->
<g id="edge11_Node000010_Node000012" class="edge">
<title>Node10&#45;&gt;Node12</title>
<g id="a_edge11_Node000010_Node000012"><a xlink:title=" ">
<path fill="none" stroke="#63b8ff" d="M727.57,-286.86C749.99,-258.78 812.2,-181.63 824.75,-174 830.06,-170.77 835.88,-168.09 841.88,-165.86"/>
<polygon fill="#63b8ff" stroke="#63b8ff" points="842.67,-168.96 851.09,-162.53 840.5,-162.3 842.67,-168.96"/>
</a>
</g>
</g>
<!-- Node13 -->
<g id="Node000013" class="node">
<title>Node13</title>
<g id="a_Node000013"><a xlink:href="class_win_pos_wnd_cfg.html#afe04626c840dd23b6b063f58bcb06dce" target="_top" xlink:title=" ">
<polygon fill="white" stroke="#666666" points="1367.75,-417 1204,-417 1204,-397 1367.75,-397 1367.75,-417"/>
<text text-anchor="middle" x="1285.88" y="-403.5" font-family="Helvetica,sans-Serif" font-size="10.00">WinPosWndCfg::getCloseTimeout</text>
</a>
</g>
</g>
<!-- Node10&#45;&gt;Node13 -->
<g id="edge12_Node000010_Node000013" class="edge">
<title>Node10&#45;&gt;Node13</title>
<g id="a_edge12_Node000010_Node000013"><a xlink:title=" ">
<path fill="none" stroke="#63b8ff" d="M723.68,-307.36C735.11,-334.09 769.74,-405.13 824.75,-432 966.99,-501.46 1164.23,-448.61 1246.47,-421.03"/>
<polygon fill="#63b8ff" stroke="#63b8ff" points="1247.51,-424.03 1255.84,-417.48 1245.25,-417.41 1247.51,-424.03"/>
</a>
</g>
</g>
<!-- Node14 -->
<g id="Node000014" class="node">
<title>Node14</title>
<g id="a_Node000014"><a xlink:href="class_win_pos_wnd_cfg.html#a10a73295ae59c85d651ad0088b235125" target="_top" xlink:title=" ">
<polygon fill="white" stroke="#666666" points="978,-499 836,-499 836,-479 978,-479 978,-499"/>
<text text-anchor="middle" x="907" y="-485.5" font-family="Helvetica,sans-Serif" font-size="10.00">WinPosWndCfg::getMonitors</text>
</a>
</g>
</g>
<!-- Node10&#45;&gt;Node14 -->
<g id="edge13_Node000010_Node000014" class="edge">
<title>Node10&#45;&gt;Node14</title>
<g id="a_edge13_Node000010_Node000014"><a xlink:title=" ">
<path fill="none" stroke="#63b8ff" d="M722.9,-307.09C733.23,-336.25 767.18,-421.31 824.75,-465 829.63,-468.7 835.07,-471.84 840.76,-474.49"/>
<polygon fill="#63b8ff" stroke="#63b8ff" points="838.94,-477.93 849.52,-478.51 841.61,-471.46 838.94,-477.93"/>
</a>
</g>
</g>
<!-- Node15 -->
<g id="Node000015" class="node">
<title>Node15</title>
<g id="a_Node000015"><a xlink:href="class_win_pos_wnd_cfg.html#a1fd1c1c55716a4697a044ae0671cf2aa" target="_top" xlink:title=" ">
<polygon fill="white" stroke="#666666" points="1350.5,-279 1221.25,-279 1221.25,-259 1350.5,-259 1350.5,-279"/>
<text text-anchor="middle" x="1285.88" y="-265.5" font-family="Helvetica,sans-Serif" font-size="10.00">WinPosWndCfg::getScale</text>
</a>
</g>
</g>
<!-- Node10&#45;&gt;Node15 -->
<g id="edge14_Node000010_Node000015" class="edge">
<title>Node10&#45;&gt;Node15</title>
<g id="a_edge14_Node000010_Node000015"><a xlink:title=" ">
<path fill="none" stroke="#63b8ff" d="M736.6,-286.64C756.82,-275.06 791.87,-257.01 824.75,-250 964.37,-220.24 1133.06,-241.24 1222.35,-256.66"/>
<polygon fill="#63b8ff" stroke="#63b8ff" points="1221.65,-260.27 1232.1,-258.56 1222.86,-253.38 1221.65,-260.27"/>
</a>
</g>
</g>
<!-- Node16 -->
<g id="Node000016" class="node">
<title>Node16</title>
<g id="a_Node000016"><a xlink:href="class_win_pos_wnd.html#a159d04333920b8b0ab3b8ecc6f6607dd" target="_top" xlink:title=" ">
<polygon fill="white" stroke="#666666" points="989.25,-423 824.75,-423 824.75,-403 989.25,-403 989.25,-423"/>
<text text-anchor="middle" x="907" y="-409.5" font-family="Helvetica,sans-Serif" font-size="10.00">WinPosWnd::getTotalPreviewRect</text>
</a>
</g>
</g>
<!-- Node10&#45;&gt;Node16 -->
<g id="edge15_Node000010_Node000016" class="edge">
<title>Node10&#45;&gt;Node16</title>
<g id="a_edge15_Node000010_Node000016"><a xlink:title=" ">
<path fill="none" stroke="#63b8ff" d="M727.53,-307.34C743.67,-327.36 782.15,-371.43 824.75,-394 828.22,-395.84 831.86,-397.5 835.61,-399"/>
<polygon fill="#63b8ff" stroke="#63b8ff" points="834.1,-402.54 844.7,-402.62 836.46,-395.95 834.1,-402.54"/>
</a>
</g>
</g>
<!-- Node17 -->
<g id="Node000017" class="node">
<title>Node17</title>
<g id="a_Node000017"><a xlink:href="class_win_pos_wnd.html#a86ca33ea895961e25e6c1601e420f40e" target="_top" xlink:title="initialize the WNDCLASS structure">
<polygon fill="white" stroke="#666666" points="974.25,-203 839.75,-203 839.75,-183 974.25,-183 974.25,-203"/>
<text text-anchor="middle" x="907" y="-189.5" font-family="Helvetica,sans-Serif" font-size="10.00">WinPosWnd::initWndClass</text>
</a>
</g>
</g>
<!-- Node10&#45;&gt;Node17 -->
<g id="edge16_Node000010_Node000017" class="edge">
<title>Node10&#45;&gt;Node17</title>
<g id="a_edge16_Node000010_Node000017"><a xlink:title=" ">
<path fill="none" stroke="#63b8ff" d="M730.26,-286.65C748.36,-269.77 786.66,-236.28 824.75,-217 832.59,-213.03 841.19,-209.61 849.77,-206.7"/>
<polygon fill="#63b8ff" stroke="#63b8ff" points="850.71,-209.75 859.18,-203.39 848.59,-203.08 850.71,-209.75"/>
</a>
</g>
</g>
<!-- Node20 -->
<g id="Node000020" class="node">
<title>Node20</title>
<g id="a_Node000020"><a xlink:href="struct_win_pos_wnd_1_1_monitor_preview.html#a01fe1b4351422928e43305d1758ae6fb" target="_top" xlink:title="move the rectangle to the cursor position">
<polygon fill="white" stroke="#666666" points="978,-385 836,-385 836,-353 978,-353 978,-385"/>
<text text-anchor="start" x="844" y="-371.5" font-family="Helvetica,sans-Serif" font-size="10.00">WinPosWnd::MonitorPreview</text>
<text text-anchor="middle" x="907" y="-359.5" font-family="Helvetica,sans-Serif" font-size="10.00">::offsetToPt</text>
</a>
</g>
</g>
<!-- Node10&#45;&gt;Node20 -->
<g id="edge19_Node000010_Node000020" class="edge">
<title>Node10&#45;&gt;Node20</title>
<g id="a_edge19_Node000010_Node000020"><a xlink:title=" ">
<path fill="none" stroke="#63b8ff" d="M740.55,-307.31C761.58,-317.39 794.96,-332.81 824.75,-344 829.43,-345.76 834.29,-347.48 839.2,-349.16"/>
<polygon fill="#63b8ff" stroke="#63b8ff" points="837.72,-352.69 848.32,-352.53 839.93,-346.05 837.72,-352.69"/>
</a>
</g>
</g>
<!-- Node21 -->
<g id="Node000021" class="node">
<title>Node21</title>
<g id="a_Node000021"><a xlink:href="class_win_pos_wnd_cfg.html#a038475d40481960d701d09f6e39467c8" target="_top" xlink:title=" ">
<polygon fill="white" stroke="#666666" points="975.38,-279 838.62,-279 838.62,-259 975.38,-259 975.38,-279"/>
<text text-anchor="middle" x="907" y="-265.5" font-family="Helvetica,sans-Serif" font-size="10.00">WinPosWndCfg::readConfig</text>
</a>
</g>
</g>
<!-- Node10&#45;&gt;Node21 -->
<g id="edge20_Node000010_Node000021" class="edge">
<title>Node10&#45;&gt;Node21</title>
<g id="a_edge20_Node000010_Node000021"><a xlink:title=" ">
<path fill="none" stroke="#63b8ff" d="M770.46,-289.35C788.12,-286.7 808.33,-283.66 827.67,-280.76"/>
<polygon fill="#63b8ff" stroke="#63b8ff" points="827.94,-284.11 837.31,-279.16 826.9,-277.19 827.94,-284.11"/>
</a>
</g>
</g>
<!-- Node18 -->
<g id="Node000018" class="node">
<title>Node18</title>
<g id="a_Node000018"><a xlink:href="class_win_pos_wnd.html#a104a18975fac2ac85a75eabda629ddb2" target="_top" xlink:title="static WNDPROC. Forwards to the WinPosWnd instances.">
<polygon fill="white" stroke="#666666" points="1168,-184 1025.25,-184 1025.25,-164 1168,-164 1168,-184"/>
<text text-anchor="middle" x="1096.62" y="-170.5" font-family="Helvetica,sans-Serif" font-size="10.00">WinPosWnd::WndProcStatic</text>
</a>
</g>
</g>
<!-- Node17&#45;&gt;Node18 -->
<g id="edge17_Node000017_Node000018" class="edge">
<title>Node17&#45;&gt;Node18</title>
<g id="a_edge17_Node000017_Node000018"><a xlink:title=" ">
<path fill="none" stroke="#63b8ff" d="M974.68,-186.25C987.56,-184.94 1001.19,-183.56 1014.47,-182.22"/>
<polygon fill="#63b8ff" stroke="#63b8ff" points="1014.44,-185.64 1024.03,-181.15 1013.73,-178.67 1014.44,-185.64"/>
</a>
</g>
</g>
<!-- Node19 -->
<g id="Node000019" class="node">
<title>Node19</title>
<g id="a_Node000019"><a xlink:href="class_win_pos_wnd.html#a5ad8686caf3b8310fff6d4bec255f898" target="_top" xlink:title="get the instance of WinPosWnd to a window handle">
<polygon fill="white" stroke="#666666" points="1358.38,-146 1213.38,-146 1213.38,-126 1358.38,-126 1358.38,-146"/>
<text text-anchor="middle" x="1285.88" y="-132.5" font-family="Helvetica,sans-Serif" font-size="10.00">WinPosWnd::getWinPosWnd</text>
</a>
</g>
</g>
<!-- Node18&#45;&gt;Node19 -->
<g id="edge18_Node000018_Node000019" class="edge">
<title>Node18&#45;&gt;Node19</title>
<g id="a_edge18_Node000018_Node000019"><a xlink:title=" ">
<path fill="none" stroke="#63b8ff" d="M1149.29,-163.52C1172.01,-158.91 1198.88,-153.45 1222.68,-148.62"/>
<polygon fill="#63b8ff" stroke="#63b8ff" points="1223.28,-151.87 1232.38,-146.45 1221.88,-145.01 1223.28,-151.87"/>
</a>
</g>
</g>
<!-- Node21&#45;&gt;Node15 -->
<g id="edge22_Node000021_Node000015" class="edge">
<title>Node21&#45;&gt;Node15</title>
<g id="a_edge22_Node000021_Node000015"><a xlink:title=" ">
<path fill="none" stroke="#63b8ff" d="M975.81,-269C1041.89,-269 1142.12,-269 1210.39,-269"/>
<polygon fill="#63b8ff" stroke="#63b8ff" points="1210.06,-272.5 1220.06,-269 1210.06,-265.5 1210.06,-272.5"/>
</a>
</g>
</g>
<!-- Node21&#45;&gt;Node21 -->
<g id="edge23_Node000021_Node000021" class="edge">
<title>Node21&#45;&gt;Node21</title>
<g id="a_edge23_Node000021_Node000021"><a xlink:title=" ">
<path fill="none" stroke="#63b8ff" d="M877.05,-279.34C864.25,-287.98 874.23,-297 907,-297 926.46,-297 937.88,-293.82 941.27,-289.43"/>
<polygon fill="#63b8ff" stroke="#63b8ff" points="944.1,-288.15 936.95,-280.34 937.67,-290.91 944.1,-288.15"/>
</a>
</g>
</g>
<!-- Node22 -->
<g id="Node000022" class="node">
<title>Node22</title>
<g id="a_Node000022"><a xlink:href="class_win_pos_wnd_cfg.html#a93944e9bbc627a502d59f845b3b1e827" target="_top" xlink:title=" ">
<polygon fill="white" stroke="#666666" points="1361.75,-336 1210,-336 1210,-316 1361.75,-316 1361.75,-336"/>
<text text-anchor="middle" x="1285.88" y="-322.5" font-family="Helvetica,sans-Serif" font-size="10.00">WinPosWndCfg::getConfigPath</text>
</a>
</g>
</g>
<!-- Node21&#45;&gt;Node22 -->
<g id="edge21_Node000021_Node000022" class="edge">
<title>Node21&#45;&gt;Node22</title>
<g id="a_edge21_Node000021_Node000022"><a xlink:title=" ">
<path fill="none" stroke="#63b8ff" d="M932.06,-279.35C948.35,-286.51 970.29,-296.44 989.25,-306 1005.59,-314.24 1007.53,-321.41 1025.25,-326 1081.87,-340.67 1147.8,-340.47 1199.05,-336.7"/>
<polygon fill="#63b8ff" stroke="#63b8ff" points="1199.07,-340.13 1208.76,-335.85 1198.51,-333.15 1199.07,-340.13"/>
</a>
</g>
</g>
<!-- Node23 -->
<g id="Node000023" class="node">
<title>Node23</title>
<g id="a_Node000023"><a xlink:href="class_win_pos_wnd_cfg.html#a2e024dd316be8cf377996f7be3017acd" target="_top" xlink:title=" ">
<polygon fill="white" stroke="#666666" points="1165.75,-317 1027.5,-317 1027.5,-297 1165.75,-297 1165.75,-317"/>
<text text-anchor="middle" x="1096.62" y="-303.5" font-family="Helvetica,sans-Serif" font-size="10.00">WinPosWndCfg::writeConfig</text>
</a>
</g>
</g>
<!-- Node21&#45;&gt;Node23 -->
<g id="edge24_Node000021_Node000023" class="edge">
<title>Node21&#45;&gt;Node23</title>
<g id="a_edge24_Node000021_Node000023"><a xlink:title=" ">
<path fill="none" stroke="#63b8ff" d="M959.77,-279.48C982.53,-284.09 1009.46,-289.55 1033.31,-294.38"/>
<polygon fill="#63b8ff" stroke="#63b8ff" points="1032.53,-298 1043.03,-296.55 1033.92,-291.13 1032.53,-298"/>
</a>
</g>
</g>
<!-- Node23&#45;&gt;Node13 -->
<g id="edge25_Node000023_Node000013" class="edge">
<title>Node23&#45;&gt;Node13</title>
<g id="a_edge25_Node000023_Node000013"><a xlink:title=" ">
<path fill="none" stroke="#63b8ff" d="M1116.96,-317.33C1149.9,-334.92 1217.07,-370.79 1255.73,-391.44"/>
<polygon fill="#63b8ff" stroke="#63b8ff" points="1253.9,-394.96 1264.37,-396.58 1257.19,-388.78 1253.9,-394.96"/>
</a>
</g>
</g>
<!-- Node23&#45;&gt;Node15 -->
<g id="edge27_Node000023_Node000015" class="edge">
<title>Node23&#45;&gt;Node15</title>
<g id="a_edge27_Node000023_Node000015"><a xlink:title=" ">
<path fill="none" stroke="#63b8ff" d="M1149.29,-296.52C1172.01,-291.91 1198.88,-286.45 1222.68,-281.62"/>
<polygon fill="#63b8ff" stroke="#63b8ff" points="1223.28,-284.87 1232.38,-279.45 1221.88,-278.01 1223.28,-284.87"/>
</a>
</g>
</g>
<!-- Node23&#45;&gt;Node22 -->
<g id="edge26_Node000023_Node000022" class="edge">
<title>Node23&#45;&gt;Node22</title>
<g id="a_edge26_Node000023_Node000022"><a xlink:title=" ">
<path fill="none" stroke="#63b8ff" d="M1166.02,-313.94C1176.68,-315.02 1187.81,-316.15 1198.79,-317.27"/>
<polygon fill="#63b8ff" stroke="#63b8ff" points="1198.41,-320.85 1208.71,-318.37 1199.12,-313.88 1198.41,-320.85"/>
</a>
</g>
</g>
<!-- Node25&#45;&gt;Node12 -->
<g id="edge30_Node000025_Node000012" class="edge">
<title>Node25&#45;&gt;Node12</title>
<g id="a_edge30_Node000025_Node000012"><a xlink:title=" ">
<path fill="none" stroke="#63b8ff" d="M605.19,-155C673.1,-155 775.5,-155 841.56,-155"/>
<polygon fill="#63b8ff" stroke="#63b8ff" points="841.24,-158.5 851.24,-155 841.24,-151.5 841.24,-158.5"/>
</a>
</g>
</g>
<!-- Node25&#45;&gt;Node19 -->
<g id="edge31_Node000025_Node000019" class="edge">
<title>Node25&#45;&gt;Node19</title>
<g id="a_edge31_Node000025_Node000019"><a xlink:title=" ">
<path fill="none" stroke="#63b8ff" d="M604.99,-149.15C663.54,-144.53 749.55,-138.47 824.75,-136 956.71,-131.67 1110.07,-132.93 1202.2,-134.37"/>
<polygon fill="#63b8ff" stroke="#63b8ff" points="1202.07,-137.88 1212.12,-134.54 1202.18,-130.88 1202.07,-137.88"/>
</a>
</g>
</g>
<!-- Node25&#45;&gt;Node24 -->
<g id="edge32_Node000025_Node000024" class="edge">
<title>Node25&#45;&gt;Node24</title>
<g id="a_edge32_Node000025_Node000024"><a xlink:title=" ">
<path fill="none" stroke="#63b8ff" d="M585.71,-165.48C607.7,-170.07 633.68,-175.5 656.74,-180.31"/>
<polygon fill="#63b8ff" stroke="#63b8ff" points="655.95,-183.93 666.45,-182.55 657.38,-177.08 655.95,-183.93"/>
</a>
</g>
</g>
<!-- Node26&#45;&gt;Node7 -->
<g id="edge35_Node000026_Node000007" class="edge">
<title>Node26&#45;&gt;Node7</title>
<g id="a_edge35_Node000026_Node000007"><a xlink:title=" ">
<path fill="none" stroke="#63b8ff" d="M404.24,-258.7C421.35,-255.83 440.15,-252.67 457.98,-249.68"/>
<polygon fill="#63b8ff" stroke="#63b8ff" points="458.35,-253 467.64,-247.89 457.2,-246.09 458.35,-253"/>
</a>
</g>
</g>
<!-- Node26&#45;&gt;Node8 -->
<g id="edge36_Node000026_Node000008" class="edge">
<title>Node26&#45;&gt;Node8</title>
<g id="a_edge36_Node000026_Node000008"><a xlink:title=" ">
<path fill="none" stroke="#63b8ff" d="M404.24,-272.86C417.51,-273.7 431.79,-274.6 445.85,-275.48"/>
<polygon fill="#63b8ff" stroke="#63b8ff" points="445.33,-279.02 455.53,-276.15 445.77,-272.03 445.33,-279.02"/>
</a>
</g>
</g>
<!-- Node28 -->
<g id="Node000028" class="node">
<title>Node28</title>
<g id="a_Node000028"><a xlink:href="class_hooks_impl.html#a7a48621aa5b57024ae963b861fd508cb" target="_top" xlink:title=" ">
<polygon fill="white" stroke="#666666" points="595.75,-121 473.25,-121 473.25,-101 595.75,-101 595.75,-121"/>
<text text-anchor="middle" x="534.5" y="-107.5" font-family="Helvetica,sans-Serif" font-size="10.00">HooksImpl::hasLastRect</text>
</a>
</g>
</g>
<!-- Node27&#45;&gt;Node28 -->
<g id="edge38_Node000027_Node000028" class="edge">
<title>Node27&#45;&gt;Node28</title>
<g id="a_edge38_Node000027_Node000028"><a xlink:title=" ">
<path fill="none" stroke="#63b8ff" d="M411.43,-111C427.89,-111 445.51,-111 462.09,-111"/>
<polygon fill="#63b8ff" stroke="#63b8ff" points="461.82,-114.5 471.82,-111 461.82,-107.5 461.82,-114.5"/>
</a>
</g>
</g>
<!-- Node33 -->
<g id="Node000033" class="node">
<title>Node33</title>
<g id="a_Node000033"><a xlink:href="class_hooks_cfg.html#a9642afc6c6fe88141770403a09cdfc4b" target="_top" xlink:title="read the global config for all apps">
<polygon fill="white" stroke="#666666" points="396.75,-39 287,-39 287,-19 396.75,-19 396.75,-39"/>
<text text-anchor="middle" x="341.88" y="-25.5" font-family="Helvetica,sans-Serif" font-size="10.00">HooksCfg::readConfig</text>
</a>
</g>
</g>
<!-- Node32&#45;&gt;Node33 -->
<g id="edge44_Node000032_Node000033" class="edge">
<title>Node32&#45;&gt;Node33</title>
<g id="a_edge44_Node000032_Node000033"><a xlink:title=" ">
<path fill="none" stroke="#63b8ff" d="M176.73,-119.69C192.34,-102.19 226.55,-66.76 263,-48 267.29,-45.79 271.85,-43.83 276.53,-42.09"/>
<polygon fill="#63b8ff" stroke="#63b8ff" points="277.51,-45.12 285.88,-38.64 275.29,-38.48 277.51,-45.12"/>
</a>
</g>
</g>
<!-- Node34 -->
<g id="Node000034" class="node">
<title>Node34</title>
<g id="a_Node000034"><a xlink:href="class_hooks_cfg.html#a808e4e4a7bc43b89c87ef172fa8caf6a" target="_top" xlink:title="the path to the global config, for all apps">
<polygon fill="white" stroke="#666666" points="596.88,-58 472.12,-58 472.12,-38 596.88,-38 596.88,-58"/>
<text text-anchor="middle" x="534.5" y="-44.5" font-family="Helvetica,sans-Serif" font-size="10.00">HooksCfg::getConfigPath</text>
</a>
</g>
</g>
<!-- Node33&#45;&gt;Node34 -->
<g id="edge45_Node000033_Node000034" class="edge">
<title>Node33&#45;&gt;Node34</title>
<g id="a_edge45_Node000033_Node000034"><a xlink:title=" ">
<path fill="none" stroke="#63b8ff" d="M397.25,-34.42C417.02,-36.39 439.69,-38.65 460.8,-40.75"/>
<polygon fill="#63b8ff" stroke="#63b8ff" points="460.37,-44.33 470.67,-41.84 461.07,-37.36 460.37,-44.33"/>
</a>
</g>
</g>
<!-- Node36 -->
<g id="Node000036" class="node">
<title>Node36</title>
<g id="a_Node000036"><a xlink:href="class_hooks_cfg.html#ab8fd861156e6b389e43bbda021f42c50" target="_top" xlink:title="read a JSON config from given path">
<polygon fill="white" stroke="#666666" points="611.5,-20 457.5,-20 457.5,0 611.5,0 611.5,-20"/>
<text text-anchor="middle" x="534.5" y="-6.5" font-family="Helvetica,sans-Serif" font-size="10.00">HooksCfg::readConfigDocument</text>
</a>
</g>
</g>
<!-- Node33&#45;&gt;Node36 -->
<g id="edge47_Node000033_Node000036" class="edge">
<title>Node33&#45;&gt;Node36</title>
<g id="a_edge47_Node000033_Node000036"><a xlink:title=" ">
<path fill="none" stroke="#63b8ff" d="M397.25,-23.58C412.5,-22.06 429.49,-20.37 446.14,-18.71"/>
<polygon fill="#63b8ff" stroke="#63b8ff" points="446.42,-22.1 456.02,-17.62 445.72,-15.13 446.42,-22.1"/>
</a>
</g>
</g>
<!-- Node35 -->
<g id="Node000035" class="node">
<title>Node35</title>
<g id="a_Node000035"><a xlink:href="class_hooks_cfg.html#a437c5768d5246cf980d1be5ea6f272c6" target="_top" xlink:title="the directory, where store the configs and logs">
<polygon fill="white" stroke="#666666" points="776.75,-58 660.25,-58 660.25,-38 776.75,-38 776.75,-58"/>
<text text-anchor="middle" x="718.5" y="-44.5" font-family="Helvetica,sans-Serif" font-size="10.00">HooksCfg::getConfigDir</text>
</a>
</g>
</g>
<!-- Node34&#45;&gt;Node35 -->
<g id="edge46_Node000034_Node000035" class="edge">
<title>Node34&#45;&gt;Node35</title>
<g id="a_edge46_Node000034_Node000035"><a xlink:title=" ">
<path fill="none" stroke="#63b8ff" d="M597.37,-48C613.94,-48 631.95,-48 648.86,-48"/>
<polygon fill="#63b8ff" stroke="#63b8ff" points="648.79,-51.5 658.79,-48 648.79,-44.5 648.79,-51.5"/>
</a>
</g>
</g>
</g>
</svg>

<g id="navigator" transform="translate(0 0)" fill="#404254">
  <rect fill="#f2f5e9" fill-opacity="0.5" stroke="#606060" stroke-width=".5" x="0" y="0" width="60" height="60"/>
  <use id="zoomplus" xlink:href="#zoomPlus" x="17" y="9" onmousedown="handleZoom(evt,'in')"/>
  <use id="zoomminus" xlink:href="#zoomMin" x="42" y="9" onmousedown="handleZoom(evt,'out')"/>
  <use id="reset" xlink:href="#resetDef" x="30" y="36" onmousedown="handleReset()"/>
   <use id="arrowup" xlink:href="#arrowUp" x="0" y="0" onmousedown="handlePan(0,-1)"/>
  <use id="arrowright" xlink:href="#arrowRight" x="0" y="0" onmousedown="handlePan(1,0)"/>
  <use id="arrowdown" xlink:href="#arrowDown" x="0" y="0" onmousedown="handlePan(0,1)"/>
  <use id="arrowleft" xlink:href="#arrowLeft" x="0" y="0" onmousedown="handlePan(-1,0)"/>
</g>
<svg viewBox="0 0 15 15" width="100%" height="30px" preserveAspectRatio="xMaxYMin meet">
 <g id="arrow_out" transform="scale(0.3 0.3)">
  <a xlink:href="_hooks_impl_8cpp_ab9f4b48939788d5aa0f404323b16a957_cgraph_org.svg" target="_base">
   <rect id="button" ry="5" rx="5" y="6" x="6" height="38" width="38"
        fill="#f2f5e9" fill-opacity="0.5" stroke="#606060" stroke-width="1.0"/>
   <path id="arrow"
     d="M 11.500037,31.436501 C 11.940474,20.09759 22.043105,11.32322 32.158766,21.979434 L 37.068811,17.246167 C 37.068811,17.246167 37.088388,32 37.088388,32 L 22.160133,31.978069 C 22.160133,31.978069 26.997745,27.140456 26.997745,27.140456 C 18.528582,18.264221 13.291696,25.230495 11.500037,31.436501 z"
     style="fill:#404040;"/>
  </a>
 </g>
</svg>

<style type='text/css'>
<![CDATA[
[data-mouse-over-selected='false'] { opacity: 0.7; }
[data-mouse-over-selected='true']  { opacity: 1.0; }
]]>
</style>
<script type="application/ecmascript"><![CDATA[
document.addEventListener('DOMContentLoaded', (event) => {
  highlightEdges();
  highlightAdjacentNodes();
});
]]></script>
</svg>
