<?xml version="1.0" encoding="UTF-8" standalone="no"?>
<!DOCTYPE svg PUBLIC "-//W3C//DTD SVG 1.1//EN"
 "http://www.w3.org/Graphics/SVG/1.1/DTD/svg11.dtd">
<!-- Generated by graphviz version 8.1.0 (20230707.0739)
 -->
<!-- Title: wiNpoS&#45;Hook/HooksImpl.cpp Pages: 1 -->
<svg width="928pt" height="308pt"
 viewBox="0.00 0.00 927.50 308.00" xmlns="http://www.w3.org/2000/svg" xmlns:xlink="http://www.w3.org/1999/xlink">
<g id="graph0" class="graph" transform="scale(1 1) rotate(0) translate(4 304)">
<title>wiNpoS&#45;Hook/HooksImpl.cpp</title>
<!-- Node1 -->
<g id="Node000001" class="node">
<title>Node1</title>
<g id="a_Node000001"><a xlink:title=" ">
<polygon fill="#999999" stroke="#666666" points="551.5,-300 409.5,-300 409.5,-280 551.5,-280 551.5,-300"/>
<text text-anchor="middle" x="480.5" y="-286.5" font-family="Helvetica,sans-Serif" font-size="10.00">wiNpoS&#45;Hook/HooksImpl.cpp</text>
</a>
</g>
</g>
<!-- Node2 -->
<g id="Node000002" class="node">
<title>Node2</title>
<g id="a_Node000002"><a xlink:href="wi_npo_s-_hook_2pch_8h.html" target="_top" xlink:title=" ">
<polygon fill="white" stroke="#666666" points="124.5,-244 84.5,-244 84.5,-224 124.5,-224 124.5,-244"/>
<text text-anchor="middle" x="104.5" y="-230.5" font-family="Helvetica,sans-Serif" font-size="10.00">pch.h</text>
</a>
</g>
</g>
<!-- Node1&#45;&gt;Node2 -->
<g id="edge1_Node000001_Node000002" class="edge">
<title>Node1&#45;&gt;Node2</title>
<g id="a_edge1_Node000001_Node000002"><a xlink:title=" ">
<path fill="none" stroke="#63b8ff" d="M409.01,-280.22C342.46,-271.8 240.58,-258.29 152.5,-244 146.89,-243.09 140.93,-242.04 135.18,-240.98"/>
<polygon fill="#63b8ff" stroke="#63b8ff" points="136.02,-237.39 125.55,-238.99 134.73,-244.27 136.02,-237.39"/>
</a>
</g>
</g>
<!-- Node5 -->
<g id="Node000005" class="node">
<title>Node5</title>
<g id="a_Node000005"><a xlink:href="_debug_new_8h.html" target="_top" xlink:title=" ">
<polygon fill="white" stroke="#666666" points="231.88,-244 161.12,-244 161.12,-224 231.88,-224 231.88,-244"/>
<text text-anchor="middle" x="196.5" y="-230.5" font-family="Helvetica,sans-Serif" font-size="10.00">DebugNew.h</text>
</a>
</g>
</g>
<!-- Node1&#45;&gt;Node5 -->
<g id="edge4_Node000001_Node000005" class="edge">
<title>Node1&#45;&gt;Node5</title>
<g id="a_edge4_Node000001_Node000005"><a xlink:title=" ">
<path fill="none" stroke="#63b8ff" d="M428.49,-279.5C382.22,-271 312.42,-258.02 242.76,-244.42"/>
<polygon fill="#63b8ff" stroke="#63b8ff" points="243.52,-240.81 233.03,-242.32 242.17,-247.68 243.52,-240.81"/>
</a>
</g>
</g>
<!-- Node6 -->
<g id="Node000006" class="node">
<title>Node6</title>
<g id="a_Node000006"><a xlink:href="_hooks_impl_8h.html" target="_top" xlink:title=" ">
<polygon fill="white" stroke="#666666" points="319.5,-244 249.5,-244 249.5,-224 319.5,-224 319.5,-244"/>
<text text-anchor="middle" x="284.5" y="-230.5" font-family="Helvetica,sans-Serif" font-size="10.00">HooksImpl.h</text>
</a>
</g>
</g>
<!-- Node1&#45;&gt;Node6 -->
<g id="edge5_Node000001_Node000006" class="edge">
<title>Node1&#45;&gt;Node6</title>
<g id="a_edge5_Node000001_Node000006"><a xlink:title=" ">
<path fill="none" stroke="#63b8ff" d="M446.36,-279.59C413.96,-270.67 365.06,-257.19 329.49,-247.39"/>
<polygon fill="#63b8ff" stroke="#63b8ff" points="330.48,-243.76 319.91,-244.48 328.62,-250.51 330.48,-243.76"/>
</a>
</g>
</g>
<!-- Node11 -->
<g id="Node000011" class="node">
<title>Node11</title>
<g id="a_Node000011"><a xlink:href="_utils_8h.html" target="_top" xlink:title=" ">
<polygon fill="white" stroke="#666666" points="371.38,-76 327.62,-76 327.62,-56 371.38,-56 371.38,-76"/>
<text text-anchor="middle" x="349.5" y="-62.5" font-family="Helvetica,sans-Serif" font-size="10.00">Utils.h</text>
</a>
</g>
</g>
<!-- Node1&#45;&gt;Node11 -->
<g id="edge29_Node000001_Node000011" class="edge">
<title>Node1&#45;&gt;Node11</title>
<g id="a_edge29_Node000001_Node000011"><a xlink:title=" ">
<path fill="none" stroke="#63b8ff" d="M463.1,-279.68C436.73,-264.48 387.49,-231.6 366.5,-188 350.75,-155.3 348.46,-112.26 348.67,-87.31"/>
<polygon fill="#63b8ff" stroke="#63b8ff" points="352.2,-87.43 348.94,-77.35 345.2,-87.26 352.2,-87.43"/>
</a>
</g>
</g>
<!-- Node19 -->
<g id="Node000019" class="node">
<title>Node19</title>
<g id="a_Node000019"><a xlink:href="_hooks_mgr_8h.html" target="_top" xlink:title=" ">
<polygon fill="white" stroke="#666666" points="443.75,-188 375.25,-188 375.25,-168 443.75,-168 443.75,-188"/>
<text text-anchor="middle" x="409.5" y="-174.5" font-family="Helvetica,sans-Serif" font-size="10.00">HooksMgr.h</text>
</a>
</g>
</g>
<!-- Node1&#45;&gt;Node19 -->
<g id="edge23_Node000001_Node000019" class="edge">
<title>Node1&#45;&gt;Node19</title>
<g id="a_edge23_Node000001_Node000019"><a xlink:title=" ">
<path fill="none" stroke="#63b8ff" d="M467.78,-279.53C457.33,-271.18 442.79,-258.17 433.5,-244 424.42,-230.15 418.16,-212.4 414.32,-198.95"/>
<polygon fill="#63b8ff" stroke="#63b8ff" points="417.49,-198.22 411.56,-189.44 410.72,-200 417.49,-198.22"/>
</a>
</g>
</g>
<!-- Node20 -->
<g id="Node000020" class="node">
<title>Node20</title>
<g id="a_Node000020"><a xlink:href="_hooks_cfg_8h.html" target="_top" xlink:title=" ">
<polygon fill="white" stroke="#666666" points="504.62,-132 438.38,-132 438.38,-112 504.62,-112 504.62,-132"/>
<text text-anchor="middle" x="471.5" y="-118.5" font-family="Helvetica,sans-Serif" font-size="10.00">HooksCfg.h</text>
</a>
</g>
</g>
<!-- Node1&#45;&gt;Node20 -->
<g id="edge25_Node000001_Node000020" class="edge">
<title>Node1&#45;&gt;Node20</title>
<g id="a_edge25_Node000001_Node000020"><a xlink:title=" ">
<path fill="none" stroke="#63b8ff" d="M476.64,-279.54C473.2,-270.57 468.42,-256.62 466.5,-244 461.15,-208.79 465.07,-167.2 468.33,-143.09"/>
<polygon fill="#63b8ff" stroke="#63b8ff" points="471.9,-143.88 469.88,-133.48 464.97,-142.87 471.9,-143.88"/>
</a>
</g>
</g>
<!-- Node21 -->
<g id="Node000021" class="node">
<title>Node21</title>
<g id="a_Node000021"><a xlink:href="_task_toolbar_8h.html" target="_top" xlink:title=" ">
<polygon fill="white" stroke="#666666" points="551.88,-244 475.12,-244 475.12,-224 551.88,-224 551.88,-244"/>
<text text-anchor="middle" x="513.5" y="-230.5" font-family="Helvetica,sans-Serif" font-size="10.00">TaskToolbar.h</text>
</a>
</g>
</g>
<!-- Node1&#45;&gt;Node21 -->
<g id="edge30_Node000001_Node000021" class="edge">
<title>Node1&#45;&gt;Node21</title>
<g id="a_edge30_Node000001_Node000021"><a xlink:title=" ">
<path fill="none" stroke="#63b8ff" d="M486.25,-279.59C490.65,-272.39 496.86,-262.23 502.24,-253.43"/>
<polygon fill="#63b8ff" stroke="#63b8ff" points="505.59,-255.66 507.82,-245.3 499.62,-252.01 505.59,-255.66"/>
</a>
</g>
</g>
<!-- Node22 -->
<g id="Node000022" class="node">
<title>Node22</title>
<g id="a_Node000022"><a xlink:title=" ">
<polygon fill="#e0e0e0" stroke="#999999" points="627.5,-244 569.5,-244 569.5,-224 627.5,-224 627.5,-244"/>
<text text-anchor="middle" x="598.5" y="-230.5" font-family="Helvetica,sans-Serif" font-size="10.00">Shlwapi.h</text>
</a>
</g>
</g>
<!-- Node1&#45;&gt;Node22 -->
<g id="edge31_Node000001_Node000022" class="edge">
<title>Node1&#45;&gt;Node22</title>
<g id="a_edge31_Node000001_Node000022"><a xlink:title=" ">
<path fill="none" stroke="#63b8ff" d="M501.05,-279.59C519.55,-271.13 546.98,-258.58 568.03,-248.94"/>
<polygon fill="#63b8ff" stroke="#63b8ff" points="569.15,-251.82 576.79,-244.48 566.24,-245.46 569.15,-251.82"/>
</a>
</g>
</g>
<!-- Node23 -->
<g id="Node000023" class="node">
<title>Node23</title>
<g id="a_Node000023"><a xlink:title=" ">
<polygon fill="#e0e0e0" stroke="#999999" points="711.62,-244 645.38,-244 645.38,-224 711.62,-224 711.62,-244"/>
<text text-anchor="middle" x="678.5" y="-230.5" font-family="Helvetica,sans-Serif" font-size="10.00">windowsx.h</text>
</a>
</g>
</g>
<!-- Node1&#45;&gt;Node23 -->
<g id="edge32_Node000001_Node000023" class="edge">
<title>Node1&#45;&gt;Node23</title>
<g id="a_edge32_Node000001_Node000023"><a xlink:title=" ">
<path fill="none" stroke="#63b8ff" d="M514.99,-279.59C548.27,-270.52 598.77,-256.74 634.84,-246.91"/>
<polygon fill="#63b8ff" stroke="#63b8ff" points="635.34,-250.13 644.07,-244.12 633.5,-243.37 635.34,-250.13"/>
</a>
</g>
</g>
<!-- Node24 -->
<g id="Node000024" class="node">
<title>Node24</title>
<g id="a_Node000024"><a xlink:href="wi_npo_s-_hook_2resource_8h.html" target="_top" xlink:title=" ">
<polygon fill="white" stroke="#666666" points="791.38,-244 729.62,-244 729.62,-224 791.38,-224 791.38,-244"/>
<text text-anchor="middle" x="760.5" y="-230.5" font-family="Helvetica,sans-Serif" font-size="10.00">resource.h</text>
</a>
</g>
</g>
<!-- Node1&#45;&gt;Node24 -->
<g id="edge33_Node000001_Node000024" class="edge">
<title>Node1&#45;&gt;Node24</title>
<g id="a_edge33_Node000001_Node000024"><a xlink:title=" ">
<path fill="none" stroke="#63b8ff" d="M533.99,-279.54C580.32,-271.22 649.41,-258.5 718.82,-244.29"/>
<polygon fill="#63b8ff" stroke="#63b8ff" points="719.43,-247.53 728.51,-242.09 718.01,-240.68 719.43,-247.53"/>
</a>
</g>
</g>
<!-- Node25 -->
<g id="Node000025" class="node">
<title>Node25</title>
<g id="a_Node000025"><a xlink:title=" ">
<polygon fill="#e0e0e0" stroke="#999999" points="861.12,-244 809.88,-244 809.88,-224 861.12,-224 861.12,-244"/>
<text text-anchor="middle" x="835.5" y="-230.5" font-family="Helvetica,sans-Serif" font-size="10.00">assert.h</text>
</a>
</g>
</g>
<!-- Node1&#45;&gt;Node25 -->
<g id="edge34_Node000001_Node000025" class="edge">
<title>Node1&#45;&gt;Node25</title>
<g id="a_edge34_Node000001_Node000025"><a xlink:title=" ">
<path fill="none" stroke="#63b8ff" d="M551.74,-281.3C614.37,-274 708.14,-261.8 798.83,-244.13"/>
<polygon fill="#63b8ff" stroke="#63b8ff" points="799.45,-247.38 808.58,-242.01 798.09,-240.51 799.45,-247.38"/>
</a>
</g>
</g>
<!-- Node26 -->
<g id="Node000026" class="node">
<title>Node26</title>
<g id="a_Node000026"><a xlink:title=" ">
<polygon fill="#e0e0e0" stroke="#999999" points="919.5,-244 879.5,-244 879.5,-224 919.5,-224 919.5,-244"/>
<text text-anchor="middle" x="899.5" y="-230.5" font-family="Helvetica,sans-Serif" font-size="10.00">future</text>
</a>
</g>
</g>
<!-- Node1&#45;&gt;Node26 -->
<g id="edge35_Node000001_Node000026" class="edge">
<title>Node1&#45;&gt;Node26</title>
<g id="a_edge35_Node000001_Node000026"><a xlink:title=" ">
<path fill="none" stroke="#63b8ff" d="M551.95,-284.76C628.34,-279.32 753.06,-267.87 868.59,-244.06"/>
<polygon fill="#63b8ff" stroke="#63b8ff" points="868.96,-247.35 878.03,-241.87 867.52,-240.5 868.96,-247.35"/>
</a>
</g>
</g>
<!-- Node3 -->
<g id="Node000003" class="node">
<title>Node3</title>
<g id="a_Node000003"><a xlink:href="wi_npo_s-_hook_2framework_8h.html" target="_top" xlink:title=" ">
<polygon fill="white" stroke="#666666" points="101.75,-188 33.25,-188 33.25,-168 101.75,-168 101.75,-188"/>
<text text-anchor="middle" x="67.5" y="-174.5" font-family="Helvetica,sans-Serif" font-size="10.00">framework.h</text>
</a>
</g>
</g>
<!-- Node2&#45;&gt;Node3 -->
<g id="edge2_Node000002_Node000003" class="edge">
<title>Node2&#45;&gt;Node3</title>
<g id="a_edge2_Node000002_Node000003"><a xlink:title=" ">
<path fill="none" stroke="#63b8ff" d="M98.06,-223.59C93.07,-216.32 86.01,-206.02 79.93,-197.15"/>
<polygon fill="#63b8ff" stroke="#63b8ff" points="82.41,-195.57 73.87,-189.3 76.64,-199.53 82.41,-195.57"/>
</a>
</g>
</g>
<!-- Node4 -->
<g id="Node000004" class="node">
<title>Node4</title>
<g id="a_Node000004"><a xlink:title=" ">
<polygon fill="#e0e0e0" stroke="#999999" points="61,-132 0,-132 0,-112 61,-112 61,-132"/>
<text text-anchor="middle" x="30.5" y="-118.5" font-family="Helvetica,sans-Serif" font-size="10.00">windows.h</text>
</a>
</g>
</g>
<!-- Node3&#45;&gt;Node4 -->
<g id="edge3_Node000003_Node000004" class="edge">
<title>Node3&#45;&gt;Node4</title>
<g id="a_edge3_Node000003_Node000004"><a xlink:title=" ">
<path fill="none" stroke="#63b8ff" d="M61.06,-167.59C56.07,-160.32 49.01,-150.02 42.93,-141.15"/>
<polygon fill="#63b8ff" stroke="#63b8ff" points="45.41,-139.57 36.87,-133.3 39.64,-143.53 45.41,-139.57"/>
</a>
</g>
</g>
<!-- Node7 -->
<g id="Node000007" class="node">
<title>Node7</title>
<g id="a_Node000007"><a xlink:href="_win_pos_wnd_8h.html" target="_top" xlink:title=" ">
<polygon fill="white" stroke="#666666" points="277,-188 198,-188 198,-168 277,-168 277,-188"/>
<text text-anchor="middle" x="237.5" y="-174.5" font-family="Helvetica,sans-Serif" font-size="10.00">WinPosWnd.h</text>
</a>
</g>
</g>
<!-- Node6&#45;&gt;Node7 -->
<g id="edge6_Node000006_Node000007" class="edge">
<title>Node6&#45;&gt;Node7</title>
<g id="a_edge6_Node000006_Node000007"><a xlink:title=" ">
<path fill="none" stroke="#63b8ff" d="M276.31,-223.59C269.84,-216.16 260.63,-205.58 252.8,-196.58"/>
<polygon fill="#63b8ff" stroke="#63b8ff" points="254.8,-194.54 245.59,-189.3 249.52,-199.14 254.8,-194.54"/>
</a>
</g>
</g>
<!-- Node8 -->
<g id="Node000008" class="node">
<title>Node8</title>
<g id="a_Node000008"><a xlink:title=" ">
<polygon fill="#e0e0e0" stroke="#999999" points="305,-76 250,-76 250,-56 305,-56 305,-76"/>
<text text-anchor="middle" x="277.5" y="-62.5" font-family="Helvetica,sans-Serif" font-size="10.00">wtypes.h</text>
</a>
</g>
</g>
<!-- Node7&#45;&gt;Node8 -->
<g id="edge7_Node000007_Node000008" class="edge">
<title>Node7&#45;&gt;Node8</title>
<g id="a_edge7_Node000007_Node000008"><a xlink:title=" ">
<path fill="none" stroke="#63b8ff" d="M242.44,-167.53C247,-158.54 253.76,-144.58 258.5,-132 264.09,-117.18 269.06,-99.95 272.51,-86.96"/>
<polygon fill="#63b8ff" stroke="#63b8ff" points="276.12,-87.96 275.23,-77.4 269.35,-86.21 276.12,-87.96"/>
</a>
</g>
</g>
<!-- Node9 -->
<g id="Node000009" class="node">
<title>Node9</title>
<g id="a_Node000009"><a xlink:title=" ">
<polygon fill="#e0e0e0" stroke="#999999" points="157.88,-76 123.12,-76 123.12,-56 157.88,-56 157.88,-76"/>
<text text-anchor="middle" x="140.5" y="-62.5" font-family="Helvetica,sans-Serif" font-size="10.00">map</text>
</a>
</g>
</g>
<!-- Node7&#45;&gt;Node9 -->
<g id="edge8_Node000007_Node000009" class="edge">
<title>Node7&#45;&gt;Node9</title>
<g id="a_edge8_Node000007_Node000009"><a xlink:title=" ">
<path fill="none" stroke="#63b8ff" d="M199.27,-167.65C180.26,-160.96 158.77,-149.87 146.5,-132 137.57,-118.99 136.58,-100.91 137.53,-87.12"/>
<polygon fill="#63b8ff" stroke="#63b8ff" points="141.1,-87.66 138.72,-77.34 134.14,-86.9 141.1,-87.66"/>
</a>
</g>
</g>
<!-- Node10 -->
<g id="Node000010" class="node">
<title>Node10</title>
<g id="a_Node000010"><a xlink:title=" ">
<polygon fill="#e0e0e0" stroke="#999999" points="137.25,-20 95.75,-20 95.75,0 137.25,0 137.25,-20"/>
<text text-anchor="middle" x="116.5" y="-6.5" font-family="Helvetica,sans-Serif" font-size="10.00">vector</text>
</a>
</g>
</g>
<!-- Node7&#45;&gt;Node10 -->
<g id="edge9_Node000007_Node000010" class="edge">
<title>Node7&#45;&gt;Node10</title>
<g id="a_edge9_Node000007_Node000010"><a xlink:title=" ">
<path fill="none" stroke="#63b8ff" d="M197.76,-167.52C176.82,-160.73 152.12,-149.59 135.5,-132 109.79,-104.79 110.46,-57.79 113.38,-31.08"/>
<polygon fill="#63b8ff" stroke="#63b8ff" points="116.95,-31.75 114.79,-21.38 110.01,-30.83 116.95,-31.75"/>
</a>
</g>
</g>
<!-- Node7&#45;&gt;Node11 -->
<g id="edge10_Node000007_Node000011" class="edge">
<title>Node7&#45;&gt;Node11</title>
<g id="a_edge10_Node000007_Node000011"><a xlink:title=" ">
<path fill="none" stroke="#63b8ff" d="M247.05,-167.62C265.98,-149.03 308.49,-107.28 332.37,-83.82"/>
<polygon fill="#63b8ff" stroke="#63b8ff" points="334.29,-86.86 338.98,-77.35 329.39,-81.86 334.29,-86.86"/>
</a>
</g>
</g>
<!-- Node18 -->
<g id="Node000018" class="node">
<title>Node18</title>
<g id="a_Node000018"><a xlink:href="_win_pos_wnd_cfg_8h.html" target="_top" xlink:title=" ">
<polygon fill="white" stroke="#666666" points="249.12,-132 155.88,-132 155.88,-112 249.12,-112 249.12,-132"/>
<text text-anchor="middle" x="202.5" y="-118.5" font-family="Helvetica,sans-Serif" font-size="10.00">WinPosWndCfg.h</text>
</a>
</g>
</g>
<!-- Node7&#45;&gt;Node18 -->
<g id="edge18_Node000007_Node000018" class="edge">
<title>Node7&#45;&gt;Node18</title>
<g id="a_edge18_Node000007_Node000018"><a xlink:title=" ">
<path fill="none" stroke="#63b8ff" d="M231.4,-167.59C226.74,-160.39 220.15,-150.23 214.45,-141.43"/>
<polygon fill="#63b8ff" stroke="#63b8ff" points="216.9,-139.79 208.53,-133.3 211.03,-143.59 216.9,-139.79"/>
</a>
</g>
</g>
<!-- Node11&#45;&gt;Node10 -->
<g id="edge15_Node000011_Node000010" class="edge">
<title>Node11&#45;&gt;Node10</title>
<g id="a_edge15_Node000011_Node000010"><a xlink:title=" ">
<path fill="none" stroke="#63b8ff" d="M327.44,-59.36C322.84,-58.22 318.02,-57.05 313.5,-56 242.31,-39.48 221.17,-39.32 147.86,-20.46"/>
<polygon fill="#63b8ff" stroke="#63b8ff" points="149.22,-16.94 138.66,-17.81 147.46,-23.71 149.22,-16.94"/>
</a>
</g>
</g>
<!-- Node12 -->
<g id="Node000012" class="node">
<title>Node12</title>
<g id="a_Node000012"><a xlink:title=" ">
<polygon fill="#e0e0e0" stroke="#999999" points="605.5,-20 565.5,-20 565.5,0 605.5,0 605.5,-20"/>
<text text-anchor="middle" x="585.5" y="-6.5" font-family="Helvetica,sans-Serif" font-size="10.00">string</text>
</a>
</g>
</g>
<!-- Node11&#45;&gt;Node12 -->
<g id="edge11_Node000011_Node000012" class="edge">
<title>Node11&#45;&gt;Node12</title>
<g id="a_edge11_Node000011_Node000012"><a xlink:title=" ">
<path fill="none" stroke="#63b8ff" d="M371.71,-60.83C407.99,-53.88 482.4,-39.04 554.65,-20.31"/>
<polygon fill="#63b8ff" stroke="#63b8ff" points="555.5,-23.44 564.28,-17.52 553.72,-16.67 555.5,-23.44"/>
</a>
</g>
</g>
<!-- Node13 -->
<g id="Node000013" class="node">
<title>Node13</title>
<g id="a_Node000013"><a xlink:title=" ">
<polygon fill="#e0e0e0" stroke="#999999" points="547.12,-20 501.88,-20 501.88,0 547.12,0 547.12,-20"/>
<text text-anchor="middle" x="524.5" y="-6.5" font-family="Helvetica,sans-Serif" font-size="10.00">xstring</text>
</a>
</g>
</g>
<!-- Node11&#45;&gt;Node13 -->
<g id="edge12_Node000011_Node000013" class="edge">
<title>Node11&#45;&gt;Node13</title>
<g id="a_edge12_Node000011_Node000013"><a xlink:title=" ">
<path fill="none" stroke="#63b8ff" d="M371.66,-58.16C401.84,-48.85 456.09,-32.11 491.18,-21.28"/>
<polygon fill="#63b8ff" stroke="#63b8ff" points="491.88,-24.42 500.41,-18.13 489.82,-17.73 491.88,-24.42"/>
</a>
</g>
</g>
<!-- Node14 -->
<g id="Node000014" class="node">
<title>Node14</title>
<g id="a_Node000014"><a xlink:title=" ">
<polygon fill="#e0e0e0" stroke="#999999" points="198,-20 155,-20 155,0 198,0 198,-20"/>
<text text-anchor="middle" x="176.5" y="-6.5" font-family="Helvetica,sans-Serif" font-size="10.00">format</text>
</a>
</g>
</g>
<!-- Node11&#45;&gt;Node14 -->
<g id="edge13_Node000011_Node000014" class="edge">
<title>Node11&#45;&gt;Node14</title>
<g id="a_edge13_Node000011_Node000014"><a xlink:title=" ">
<path fill="none" stroke="#63b8ff" d="M327.24,-58.05C297.18,-48.67 243.42,-31.89 208.89,-21.11"/>
<polygon fill="#63b8ff" stroke="#63b8ff" points="209.99,-17.48 199.4,-17.84 207.91,-24.16 209.99,-17.48"/>
</a>
</g>
</g>
<!-- Node15 -->
<g id="Node000015" class="node">
<title>Node15</title>
<g id="a_Node000015"><a xlink:title=" ">
<polygon fill="#e0e0e0" stroke="#999999" points="279.12,-20 215.88,-20 215.88,0 279.12,0 279.12,-20"/>
<text text-anchor="middle" x="247.5" y="-6.5" font-family="Helvetica,sans-Serif" font-size="10.00">debugapi.h</text>
</a>
</g>
</g>
<!-- Node11&#45;&gt;Node15 -->
<g id="edge14_Node000011_Node000015" class="edge">
<title>Node11&#45;&gt;Node15</title>
<g id="a_edge14_Node000011_Node000015"><a xlink:title=" ">
<path fill="none" stroke="#63b8ff" d="M331.73,-55.59C316.11,-47.32 293.11,-35.14 275.09,-25.6"/>
<polygon fill="#63b8ff" stroke="#63b8ff" points="276.88,-22.07 266.41,-20.48 273.61,-28.25 276.88,-22.07"/>
</a>
</g>
</g>
<!-- Node16 -->
<g id="Node000016" class="node">
<title>Node16</title>
<g id="a_Node000016"><a xlink:title=" ">
<polygon fill="#e0e0e0" stroke="#999999" points="353.38,-20 297.62,-20 297.62,0 353.38,0 353.38,-20"/>
<text text-anchor="middle" x="325.5" y="-6.5" font-family="Helvetica,sans-Serif" font-size="10.00">algorithm</text>
</a>
</g>
</g>
<!-- Node11&#45;&gt;Node16 -->
<g id="edge16_Node000011_Node000016" class="edge">
<title>Node11&#45;&gt;Node16</title>
<g id="a_edge16_Node000011_Node000016"><a xlink:title=" ">
<path fill="none" stroke="#63b8ff" d="M345.32,-55.59C342.22,-48.63 337.89,-38.89 334.07,-30.29"/>
<polygon fill="#63b8ff" stroke="#63b8ff" points="336.89,-29.01 329.63,-21.3 330.5,-31.86 336.89,-29.01"/>
</a>
</g>
</g>
<!-- Node17 -->
<g id="Node000017" class="node">
<title>Node17</title>
<g id="a_Node000017"><a xlink:title=" ">
<polygon fill="#e0e0e0" stroke="#999999" points="483.88,-20 371.12,-20 371.12,0 483.88,0 483.88,-20"/>
<text text-anchor="middle" x="427.5" y="-6.5" font-family="Helvetica,sans-Serif" font-size="10.00">vcruntime_exception.h</text>
</a>
</g>
</g>
<!-- Node11&#45;&gt;Node17 -->
<g id="edge17_Node000011_Node000017" class="edge">
<title>Node11&#45;&gt;Node17</title>
<g id="a_edge17_Node000011_Node000017"><a xlink:title=" ">
<path fill="none" stroke="#63b8ff" d="M363.09,-55.59C374.65,-47.59 391.49,-35.93 405.05,-26.54"/>
<polygon fill="#63b8ff" stroke="#63b8ff" points="406.58,-29.05 412.81,-20.48 402.59,-23.29 406.58,-29.05"/>
</a>
</g>
</g>
<!-- Node18&#45;&gt;Node8 -->
<g id="edge19_Node000018_Node000008" class="edge">
<title>Node18&#45;&gt;Node8</title>
<g id="a_edge19_Node000018_Node000008"><a xlink:title=" ">
<path fill="none" stroke="#63b8ff" d="M215.56,-111.59C226.57,-103.67 242.56,-92.16 255.53,-82.82"/>
<polygon fill="#63b8ff" stroke="#63b8ff" points="257.26,-85.16 263.33,-76.48 253.17,-79.48 257.26,-85.16"/>
</a>
</g>
</g>
<!-- Node18&#45;&gt;Node9 -->
<g id="edge20_Node000018_Node000009" class="edge">
<title>Node18&#45;&gt;Node9</title>
<g id="a_edge20_Node000018_Node000009"><a xlink:title=" ">
<path fill="none" stroke="#63b8ff" d="M191.7,-111.59C182.81,-103.85 169.99,-92.69 159.41,-83.47"/>
<polygon fill="#63b8ff" stroke="#63b8ff" points="162.02,-80.23 152.18,-76.3 157.42,-85.51 162.02,-80.23"/>
</a>
</g>
</g>
<!-- Node18&#45;&gt;Node10 -->
<g id="edge21_Node000018_Node000010" class="edge">
<title>Node18&#45;&gt;Node10</title>
<g id="a_edge21_Node000018_Node000010"><a xlink:title=" ">
<path fill="none" stroke="#63b8ff" d="M198.49,-111.58C192.61,-98.38 180.79,-73.97 166.5,-56 158.04,-45.36 146.94,-35.1 137.35,-27.06"/>
<polygon fill="#63b8ff" stroke="#63b8ff" points="140.05,-23.94 130.08,-20.37 135.65,-29.38 140.05,-23.94"/>
</a>
</g>
</g>
<!-- Node18&#45;&gt;Node11 -->
<g id="edge22_Node000018_Node000011" class="edge">
<title>Node18&#45;&gt;Node11</title>
<g id="a_edge22_Node000018_Node000011"><a xlink:title=" ">
<path fill="none" stroke="#63b8ff" d="M228.11,-111.59C252.94,-102.47 290.7,-88.6 317.5,-78.75"/>
<polygon fill="#63b8ff" stroke="#63b8ff" points="318.36,-81.8 326.54,-75.07 315.95,-75.23 318.36,-81.8"/>
</a>
</g>
</g>
<!-- Node19&#45;&gt;Node11 -->
<g id="edge24_Node000019_Node000011" class="edge">
<title>Node19&#45;&gt;Node11</title>
<g id="a_edge24_Node000019_Node000011"><a xlink:title=" ">
<path fill="none" stroke="#63b8ff" d="M404.38,-167.62C394.51,-149.52 372.66,-109.45 359.7,-85.7"/>
<polygon fill="#63b8ff" stroke="#63b8ff" points="362.46,-84.46 354.6,-77.35 356.32,-87.81 362.46,-84.46"/>
</a>
</g>
</g>
<!-- Node20&#45;&gt;Node8 -->
<g id="edge26_Node000020_Node000008" class="edge">
<title>Node20&#45;&gt;Node8</title>
<g id="a_edge26_Node000020_Node000008"><a xlink:title=" ">
<path fill="none" stroke="#63b8ff" d="M438.15,-111.72C404.18,-102.26 351.56,-87.62 315.88,-77.68"/>
<polygon fill="#63b8ff" stroke="#63b8ff" points="316.96,-74.07 306.39,-74.76 315.09,-80.82 316.96,-74.07"/>
</a>
</g>
</g>
<!-- Node20&#45;&gt;Node11 -->
<g id="edge28_Node000020_Node000011" class="edge">
<title>Node20&#45;&gt;Node11</title>
<g id="a_edge28_Node000020_Node000011"><a xlink:title=" ">
<path fill="none" stroke="#63b8ff" d="M450.25,-111.59C431.04,-103.09 402.5,-90.46 380.7,-80.81"/>
<polygon fill="#63b8ff" stroke="#63b8ff" points="382.48,-77.33 371.92,-76.48 379.64,-83.73 382.48,-77.33"/>
</a>
</g>
</g>
<!-- Node20&#45;&gt;Node12 -->
<g id="edge27_Node000020_Node000012" class="edge">
<title>Node20&#45;&gt;Node12</title>
<g id="a_edge27_Node000020_Node000012"><a xlink:title=" ">
<path fill="none" stroke="#63b8ff" d="M481.22,-111.62C500.49,-93.03 543.75,-51.28 568.07,-27.82"/>
<polygon fill="#63b8ff" stroke="#63b8ff" points="570.04,-30.82 574.81,-21.35 565.18,-25.78 570.04,-30.82"/>
</a>
</g>
</g>
</g>
</svg>
