<?xml version="1.0" encoding="UTF-8" standalone="no"?>
<!DOCTYPE svg PUBLIC "-//W3C//DTD SVG 1.1//EN"
 "http://www.w3.org/Graphics/SVG/1.1/DTD/svg11.dtd">
<!-- Generated by graphviz version 9.0.0 (20230911.1827)
 -->
<!-- Title: wiNpoS&#45;Hook/HooksImpl.cpp Pages: 1 -->
<!--zoomable 308 -->

<svg id="main" version="1.1" xmlns="http://www.w3.org/2000/svg" xmlns:xlink="http://www.w3.org/1999/xlink" xml:space="preserve" onload="init(evt)">
<style type="text/css"><![CDATA[
.node, .edge {opacity: 0.7;}
.node.selected, .edge.selected {opacity: 1;}
.edge:hover path { stroke: red; }
.edge:hover polygon { stroke: red; fill: red; }
]]></style>

<defs>
  <circle id="rim" cx="0" cy="0" r="7"/>
  <circle id="rim2" cx="0" cy="0" r="3.5"/>
  <g id="zoomPlus">
    <use xlink:href="#rim" fill="#404040"><set attributeName="fill" to="#808080" begin="zoomplus.mouseover" end="zoomplus.mouseout"/></use>
    <path d="M-4,0h8M0,-4v8" fill="none" stroke="white" stroke-width="1.5" pointer-events="none"/>
  </g>
  <g id="zoomMin">
    <use xlink:href="#rim" fill="#404040"><set attributeName="fill" to="#808080" begin="zoomminus.mouseover" end="zoomminus.mouseout"/></use>
    <path d="M-4,0h8" fill="none" stroke="white" stroke-width="1.5" pointer-events="none"/>
  </g>
  <g id="arrowUp" transform="translate(30 24)">
    <use xlink:href="#rim"/>
    <path pointer-events="none" fill="none" stroke="white" stroke-width="1.5" d="M0,-3.0v7 M-2.5,-0.5L0,-3.0L2.5,-0.5"/>
  </g>
  <g id="arrowRight" transform="rotate(90) translate(36 -43)">
    <use xlink:href="#rim"/>
    <path pointer-events="none" fill="none" stroke="white" stroke-width="1.5" d="M0,-3.0v7 M-2.5,-0.5L0,-3.0L2.5,-0.5"/>
  </g>
  <g id="arrowDown" transform="rotate(180) translate(-30 -48)">
    <use xlink:href="#rim"/>
    <path pointer-events="none" fill="none" stroke="white" stroke-width="1.5" d="M0,-3.0v7 M-2.5,-0.5L0,-3.0L2.5,-0.5"/>
  </g>
  <g id="arrowLeft" transform="rotate(270) translate(-36 17)">
    <use xlink:href="#rim"/>
    <path pointer-events="none" fill="none" stroke="white" stroke-width="1.5" d="M0,-3.0v7 M-2.5,-0.5L0,-3.0L2.5,-0.5"/>
  </g>
  <g id="resetDef">
    <use xlink:href="#rim2" fill="#404040"><set attributeName="fill" to="#808080" begin="reset.mouseover" end="reset.mouseout"/></use>
  </g>
</defs>
<script type="application/ecmascript">
var viewWidth = 928;
var viewHeight = 308;
var sectionId = 'dynsection-0';
</script>
<script type="application/ecmascript" xlink:href="svg.min.js"/>
<svg id="graph" class="graph">
<g id="viewport">
<title>wiNpoS&#45;Hook/HooksImpl.cpp</title>
<!-- Node1 -->
<g id="Node000001" class="node">
<title>Node1</title>
<g id="a_Node000001"><a xlink:title=" ">
<polygon fill="#999999" stroke="#666666" points="551.5,-300 409.5,-300 409.5,-280 551.5,-280 551.5,-300"/>
<text text-anchor="middle" x="480.5" y="-286.5" font-family="Helvetica,sans-Serif" font-size="10.00">wiNpoS&#45;Hook/HooksImpl.cpp</text>
</a>
</g>
</g>
<!-- Node2 -->
<g id="Node000002" class="node">
<title>Node2</title>
<g id="a_Node000002"><a xlink:href="wi_npo_s-_hook_2pch_8h.html" target="_top" xlink:title=" ">
<polygon fill="white" stroke="#666666" points="124.5,-244 84.5,-244 84.5,-224 124.5,-224 124.5,-244"/>
<text text-anchor="middle" x="104.5" y="-230.5" font-family="Helvetica,sans-Serif" font-size="10.00">pch.h</text>
</a>
</g>
</g>
<!-- Node1&#45;&gt;Node2 -->
<g id="edge1_Node000001_Node000002" class="edge">
<title>Node1&#45;&gt;Node2</title>
<g id="a_edge1_Node000001_Node000002"><a xlink:title=" ">
<path fill="none" stroke="#63b8ff" d="M409.01,-280.22C342.46,-271.8 240.58,-258.29 152.5,-244 147.03,-243.11 141.23,-242.09 135.62,-241.07"/>
<polygon fill="#63b8ff" stroke="#63b8ff" points="136.51,-237.67 126.03,-239.26 135.22,-244.55 136.51,-237.67"/>
</a>
</g>
</g>
<!-- Node5 -->
<g id="Node000005" class="node">
<title>Node5</title>
<g id="a_Node000005"><a xlink:href="_debug_new_8h.html" target="_top" xlink:title=" ">
<polygon fill="white" stroke="#666666" points="231.88,-244 161.12,-244 161.12,-224 231.88,-224 231.88,-244"/>
<text text-anchor="middle" x="196.5" y="-230.5" font-family="Helvetica,sans-Serif" font-size="10.00">DebugNew.h</text>
</a>
</g>
</g>
<!-- Node1&#45;&gt;Node5 -->
<g id="edge4_Node000001_Node000005" class="edge">
<title>Node1&#45;&gt;Node5</title>
<g id="a_edge4_Node000001_Node000005"><a xlink:title=" ">
<path fill="none" stroke="#63b8ff" d="M428.49,-279.5C382.31,-271.01 312.7,-258.08 243.18,-244.5"/>
<polygon fill="#63b8ff" stroke="#63b8ff" points="244,-241.1 233.52,-242.61 242.66,-247.97 244,-241.1"/>
</a>
</g>
</g>
<!-- Node6 -->
<g id="Node000006" class="node">
<title>Node6</title>
<g id="a_Node000006"><a xlink:href="_hooks_impl_8h.html" target="_top" xlink:title=" ">
<polygon fill="white" stroke="#666666" points="319.5,-244 249.5,-244 249.5,-224 319.5,-224 319.5,-244"/>
<text text-anchor="middle" x="284.5" y="-230.5" font-family="Helvetica,sans-Serif" font-size="10.00">HooksImpl.h</text>
</a>
</g>
</g>
<!-- Node1&#45;&gt;Node6 -->
<g id="edge5_Node000001_Node000006" class="edge">
<title>Node1&#45;&gt;Node6</title>
<g id="a_edge5_Node000001_Node000006"><a xlink:title=" ">
<path fill="none" stroke="#63b8ff" d="M446.36,-279.59C414.1,-270.71 365.48,-257.31 329.95,-247.52"/>
<polygon fill="#63b8ff" stroke="#63b8ff" points="330.94,-244.16 320.37,-244.88 329.08,-250.91 330.94,-244.16"/>
</a>
</g>
</g>
<!-- Node11 -->
<g id="Node000011" class="node">
<title>Node11</title>
<g id="a_Node000011"><a xlink:href="_utils_8h.html" target="_top" xlink:title=" ">
<polygon fill="white" stroke="#666666" points="371.38,-76 327.62,-76 327.62,-56 371.38,-56 371.38,-76"/>
<text text-anchor="middle" x="349.5" y="-62.5" font-family="Helvetica,sans-Serif" font-size="10.00">Utils.h</text>
</a>
</g>
</g>
<!-- Node1&#45;&gt;Node11 -->
<g id="edge29_Node000001_Node000011" class="edge">
<title>Node1&#45;&gt;Node11</title>
<g id="a_edge29_Node000001_Node000011"><a xlink:title=" ">
<path fill="none" stroke="#63b8ff" d="M463.1,-279.68C436.73,-264.48 387.49,-231.6 366.5,-188 350.83,-155.45 348.48,-112.65 348.67,-87.65"/>
<polygon fill="#63b8ff" stroke="#63b8ff" points="352.16,-87.94 348.91,-77.86 345.17,-87.78 352.16,-87.94"/>
</a>
</g>
</g>
<!-- Node19 -->
<g id="Node000019" class="node">
<title>Node19</title>
<g id="a_Node000019"><a xlink:href="_hooks_mgr_8h.html" target="_top" xlink:title=" ">
<polygon fill="white" stroke="#666666" points="443.75,-188 375.25,-188 375.25,-168 443.75,-168 443.75,-188"/>
<text text-anchor="middle" x="409.5" y="-174.5" font-family="Helvetica,sans-Serif" font-size="10.00">HooksMgr.h</text>
</a>
</g>
</g>
<!-- Node1&#45;&gt;Node19 -->
<g id="edge23_Node000001_Node000019" class="edge">
<title>Node1&#45;&gt;Node19</title>
<g id="a_edge23_Node000001_Node000019"><a xlink:title=" ">
<path fill="none" stroke="#63b8ff" d="M467.78,-279.53C457.33,-271.18 442.79,-258.17 433.5,-244 424.51,-230.29 418.29,-212.76 414.44,-199.36"/>
<polygon fill="#63b8ff" stroke="#63b8ff" points="417.88,-198.68 411.94,-189.9 411.11,-200.46 417.88,-198.68"/>
</a>
</g>
</g>
<!-- Node20 -->
<g id="Node000020" class="node">
<title>Node20</title>
<g id="a_Node000020"><a xlink:href="_hooks_cfg_8h.html" target="_top" xlink:title=" ">
<polygon fill="white" stroke="#666666" points="504.62,-132 438.38,-132 438.38,-112 504.62,-112 504.62,-132"/>
<text text-anchor="middle" x="471.5" y="-118.5" font-family="Helvetica,sans-Serif" font-size="10.00">HooksCfg.h</text>
</a>
</g>
</g>
<!-- Node1&#45;&gt;Node20 -->
<g id="edge25_Node000001_Node000020" class="edge">
<title>Node1&#45;&gt;Node20</title>
<g id="a_edge25_Node000001_Node000020"><a xlink:title=" ">
<path fill="none" stroke="#63b8ff" d="M476.64,-279.54C473.2,-270.57 468.42,-256.62 466.5,-244 461.2,-209.11 465,-167.96 468.24,-143.76"/>
<polygon fill="#63b8ff" stroke="#63b8ff" points="471.69,-144.38 469.67,-133.98 464.76,-143.37 471.69,-144.38"/>
</a>
</g>
</g>
<!-- Node21 -->
<g id="Node000021" class="node">
<title>Node21</title>
<g id="a_Node000021"><a xlink:href="_task_toolbar_8h.html" target="_top" xlink:title=" ">
<polygon fill="white" stroke="#666666" points="551.88,-244 475.12,-244 475.12,-224 551.88,-224 551.88,-244"/>
<text text-anchor="middle" x="513.5" y="-230.5" font-family="Helvetica,sans-Serif" font-size="10.00">TaskToolbar.h</text>
</a>
</g>
</g>
<!-- Node1&#45;&gt;Node21 -->
<g id="edge30_Node000001_Node000021" class="edge">
<title>Node1&#45;&gt;Node21</title>
<g id="a_edge30_Node000001_Node000021"><a xlink:title=" ">
<path fill="none" stroke="#63b8ff" d="M486.25,-279.59C490.55,-272.55 496.59,-262.67 501.89,-254"/>
<polygon fill="#63b8ff" stroke="#63b8ff" points="504.8,-255.95 507.03,-245.59 498.83,-252.3 504.8,-255.95"/>
</a>
</g>
</g>
<!-- Node22 -->
<g id="Node000022" class="node">
<title>Node22</title>
<g id="a_Node000022"><a xlink:title=" ">
<polygon fill="#e0e0e0" stroke="#999999" points="627.5,-244 569.5,-244 569.5,-224 627.5,-224 627.5,-244"/>
<text text-anchor="middle" x="598.5" y="-230.5" font-family="Helvetica,sans-Serif" font-size="10.00">Shlwapi.h</text>
</a>
</g>
</g>
<!-- Node1&#45;&gt;Node22 -->
<g id="edge31_Node000001_Node000022" class="edge">
<title>Node1&#45;&gt;Node22</title>
<g id="a_edge31_Node000001_Node000022"><a xlink:title=" ">
<path fill="none" stroke="#63b8ff" d="M501.05,-279.59C519.38,-271.21 546.49,-258.8 567.46,-249.21"/>
<polygon fill="#63b8ff" stroke="#63b8ff" points="568.77,-252.45 576.41,-245.11 565.86,-246.09 568.77,-252.45"/>
</a>
</g>
</g>
<!-- Node23 -->
<g id="Node000023" class="node">
<title>Node23</title>
<g id="a_Node000023"><a xlink:title=" ">
<polygon fill="#e0e0e0" stroke="#999999" points="711.62,-244 645.38,-244 645.38,-224 711.62,-224 711.62,-244"/>
<text text-anchor="middle" x="678.5" y="-230.5" font-family="Helvetica,sans-Serif" font-size="10.00">windowsx.h</text>
</a>
</g>
</g>
<!-- Node1&#45;&gt;Node23 -->
<g id="edge32_Node000001_Node000023" class="edge">
<title>Node1&#45;&gt;Node23</title>
<g id="a_edge32_Node000001_Node000023"><a xlink:title=" ">
<path fill="none" stroke="#63b8ff" d="M514.99,-279.59C548.12,-270.56 598.34,-256.86 634.37,-247.03"/>
<polygon fill="#63b8ff" stroke="#63b8ff" points="634.88,-250.52 643.61,-244.52 633.04,-243.77 634.88,-250.52"/>
</a>
</g>
</g>
<!-- Node24 -->
<g id="Node000024" class="node">
<title>Node24</title>
<g id="a_Node000024"><a xlink:href="wi_npo_s-_hook_2resource_8h.html" target="_top" xlink:title=" ">
<polygon fill="white" stroke="#666666" points="791.38,-244 729.62,-244 729.62,-224 791.38,-224 791.38,-244"/>
<text text-anchor="middle" x="760.5" y="-230.5" font-family="Helvetica,sans-Serif" font-size="10.00">resource.h</text>
</a>
</g>
</g>
<!-- Node1&#45;&gt;Node24 -->
<g id="edge33_Node000001_Node000024" class="edge">
<title>Node1&#45;&gt;Node24</title>
<g id="a_edge33_Node000001_Node000024"><a xlink:title=" ">
<path fill="none" stroke="#63b8ff" d="M533.99,-279.54C580.22,-271.23 649.12,-258.55 718.4,-244.37"/>
<polygon fill="#63b8ff" stroke="#63b8ff" points="718.94,-247.84 728.03,-242.39 717.53,-240.98 718.94,-247.84"/>
</a>
</g>
</g>
<!-- Node25 -->
<g id="Node000025" class="node">
<title>Node25</title>
<g id="a_Node000025"><a xlink:title=" ">
<polygon fill="#e0e0e0" stroke="#999999" points="861.12,-244 809.88,-244 809.88,-224 861.12,-224 861.12,-244"/>
<text text-anchor="middle" x="835.5" y="-230.5" font-family="Helvetica,sans-Serif" font-size="10.00">assert.h</text>
</a>
</g>
</g>
<!-- Node1&#45;&gt;Node25 -->
<g id="edge34_Node000001_Node000025" class="edge">
<title>Node1&#45;&gt;Node25</title>
<g id="a_edge34_Node000001_Node000025"><a xlink:title=" ">
<path fill="none" stroke="#63b8ff" d="M551.74,-281.3C614.3,-274.01 707.95,-261.83 798.55,-244.19"/>
<polygon fill="#63b8ff" stroke="#63b8ff" points="798.96,-247.67 808.1,-242.3 797.61,-240.81 798.96,-247.67"/>
</a>
</g>
</g>
<!-- Node26 -->
<g id="Node000026" class="node">
<title>Node26</title>
<g id="a_Node000026"><a xlink:title=" ">
<polygon fill="#e0e0e0" stroke="#999999" points="919.5,-244 879.5,-244 879.5,-224 919.5,-224 919.5,-244"/>
<text text-anchor="middle" x="899.5" y="-230.5" font-family="Helvetica,sans-Serif" font-size="10.00">future</text>
</a>
</g>
</g>
<!-- Node1&#45;&gt;Node26 -->
<g id="edge35_Node000001_Node000026" class="edge">
<title>Node1&#45;&gt;Node26</title>
<g id="a_edge35_Node000001_Node000026"><a xlink:title=" ">
<path fill="none" stroke="#63b8ff" d="M551.95,-284.76C628.19,-279.33 752.55,-267.92 867.9,-244.2"/>
<polygon fill="#63b8ff" stroke="#63b8ff" points="868.48,-247.66 877.55,-242.18 867.04,-240.81 868.48,-247.66"/>
</a>
</g>
</g>
<!-- Node3 -->
<g id="Node000003" class="node">
<title>Node3</title>
<g id="a_Node000003"><a xlink:href="wi_npo_s-_hook_2framework_8h.html" target="_top" xlink:title=" ">
<polygon fill="white" stroke="#666666" points="101.75,-188 33.25,-188 33.25,-168 101.75,-168 101.75,-188"/>
<text text-anchor="middle" x="67.5" y="-174.5" font-family="Helvetica,sans-Serif" font-size="10.00">framework.h</text>
</a>
</g>
</g>
<!-- Node2&#45;&gt;Node3 -->
<g id="edge2_Node000002_Node000003" class="edge">
<title>Node2&#45;&gt;Node3</title>
<g id="a_edge2_Node000002_Node000003"><a xlink:title=" ">
<path fill="none" stroke="#63b8ff" d="M98.06,-223.59C93.17,-216.47 86.31,-206.45 80.32,-197.72"/>
<polygon fill="#63b8ff" stroke="#63b8ff" points="83.27,-195.82 74.73,-189.55 77.49,-199.77 83.27,-195.82"/>
</a>
</g>
</g>
<!-- Node4 -->
<g id="Node000004" class="node">
<title>Node4</title>
<g id="a_Node000004"><a xlink:title=" ">
<polygon fill="#e0e0e0" stroke="#999999" points="61,-132 0,-132 0,-112 61,-112 61,-132"/>
<text text-anchor="middle" x="30.5" y="-118.5" font-family="Helvetica,sans-Serif" font-size="10.00">windows.h</text>
</a>
</g>
</g>
<!-- Node3&#45;&gt;Node4 -->
<g id="edge3_Node000003_Node000004" class="edge">
<title>Node3&#45;&gt;Node4</title>
<g id="a_edge3_Node000003_Node000004"><a xlink:title=" ">
<path fill="none" stroke="#63b8ff" d="M61.06,-167.59C56.17,-160.47 49.31,-150.45 43.32,-141.72"/>
<polygon fill="#63b8ff" stroke="#63b8ff" points="46.27,-139.82 37.73,-133.55 40.49,-143.77 46.27,-139.82"/>
</a>
</g>
</g>
<!-- Node7 -->
<g id="Node000007" class="node">
<title>Node7</title>
<g id="a_Node000007"><a xlink:href="_win_pos_wnd_8h.html" target="_top" xlink:title=" ">
<polygon fill="white" stroke="#666666" points="277,-188 198,-188 198,-168 277,-168 277,-188"/>
<text text-anchor="middle" x="237.5" y="-174.5" font-family="Helvetica,sans-Serif" font-size="10.00">WinPosWnd.h</text>
</a>
</g>
</g>
<!-- Node6&#45;&gt;Node7 -->
<g id="edge6_Node000006_Node000007" class="edge">
<title>Node6&#45;&gt;Node7</title>
<g id="a_edge6_Node000006_Node000007"><a xlink:title=" ">
<path fill="none" stroke="#63b8ff" d="M276.31,-223.59C269.91,-216.24 260.82,-205.8 253.05,-196.87"/>
<polygon fill="#63b8ff" stroke="#63b8ff" points="255.79,-194.69 246.59,-189.44 250.51,-199.28 255.79,-194.69"/>
</a>
</g>
</g>
<!-- Node8 -->
<g id="Node000008" class="node">
<title>Node8</title>
<g id="a_Node000008"><a xlink:title=" ">
<polygon fill="#e0e0e0" stroke="#999999" points="305,-76 250,-76 250,-56 305,-56 305,-76"/>
<text text-anchor="middle" x="277.5" y="-62.5" font-family="Helvetica,sans-Serif" font-size="10.00">wtypes.h</text>
</a>
</g>
</g>
<!-- Node7&#45;&gt;Node8 -->
<g id="edge7_Node000007_Node000008" class="edge">
<title>Node7&#45;&gt;Node8</title>
<g id="a_edge7_Node000007_Node000008"><a xlink:title=" ">
<path fill="none" stroke="#63b8ff" d="M242.44,-167.53C247,-158.54 253.76,-144.58 258.5,-132 264.03,-117.33 268.96,-100.3 272.41,-87.35"/>
<polygon fill="#63b8ff" stroke="#63b8ff" points="275.74,-88.43 274.85,-77.87 268.97,-86.68 275.74,-88.43"/>
</a>
</g>
</g>
<!-- Node9 -->
<g id="Node000009" class="node">
<title>Node9</title>
<g id="a_Node000009"><a xlink:title=" ">
<polygon fill="#e0e0e0" stroke="#999999" points="157.88,-76 123.12,-76 123.12,-56 157.88,-56 157.88,-76"/>
<text text-anchor="middle" x="140.5" y="-62.5" font-family="Helvetica,sans-Serif" font-size="10.00">map</text>
</a>
</g>
</g>
<!-- Node7&#45;&gt;Node9 -->
<g id="edge8_Node000007_Node000009" class="edge">
<title>Node7&#45;&gt;Node9</title>
<g id="a_edge8_Node000007_Node000009"><a xlink:title=" ">
<path fill="none" stroke="#63b8ff" d="M199.27,-167.65C180.26,-160.96 158.77,-149.87 146.5,-132 137.66,-119.13 136.6,-101.28 137.5,-87.54"/>
<polygon fill="#63b8ff" stroke="#63b8ff" points="140.95,-88.16 138.56,-77.84 134,-87.41 140.95,-88.16"/>
</a>
</g>
</g>
<!-- Node10 -->
<g id="Node000010" class="node">
<title>Node10</title>
<g id="a_Node000010"><a xlink:title=" ">
<polygon fill="#e0e0e0" stroke="#999999" points="137.25,-20 95.75,-20 95.75,0 137.25,0 137.25,-20"/>
<text text-anchor="middle" x="116.5" y="-6.5" font-family="Helvetica,sans-Serif" font-size="10.00">vector</text>
</a>
</g>
</g>
<!-- Node7&#45;&gt;Node10 -->
<g id="edge9_Node000007_Node000010" class="edge">
<title>Node7&#45;&gt;Node10</title>
<g id="a_edge9_Node000007_Node000010"><a xlink:title=" ">
<path fill="none" stroke="#63b8ff" d="M197.76,-167.52C176.82,-160.73 152.12,-149.59 135.5,-132 109.91,-104.91 110.45,-58.21 113.34,-31.44"/>
<polygon fill="#63b8ff" stroke="#63b8ff" points="116.76,-32.25 114.6,-21.88 109.82,-31.34 116.76,-32.25"/>
</a>
</g>
</g>
<!-- Node7&#45;&gt;Node11 -->
<g id="edge10_Node000007_Node000011" class="edge">
<title>Node7&#45;&gt;Node11</title>
<g id="a_edge10_Node000007_Node000011"><a xlink:title=" ">
<path fill="none" stroke="#63b8ff" d="M247.05,-167.62C265.89,-149.11 308.12,-107.65 332.06,-84.13"/>
<polygon fill="#63b8ff" stroke="#63b8ff" points="334.21,-86.92 338.9,-77.42 329.31,-81.93 334.21,-86.92"/>
</a>
</g>
</g>
<!-- Node18 -->
<g id="Node000018" class="node">
<title>Node18</title>
<g id="a_Node000018"><a xlink:href="_win_pos_wnd_cfg_8h.html" target="_top" xlink:title=" ">
<polygon fill="white" stroke="#666666" points="249.12,-132 155.88,-132 155.88,-112 249.12,-112 249.12,-132"/>
<text text-anchor="middle" x="202.5" y="-118.5" font-family="Helvetica,sans-Serif" font-size="10.00">WinPosWndCfg.h</text>
</a>
</g>
</g>
<!-- Node7&#45;&gt;Node18 -->
<g id="edge18_Node000007_Node000018" class="edge">
<title>Node7&#45;&gt;Node18</title>
<g id="a_edge18_Node000007_Node000018"><a xlink:title=" ">
<path fill="none" stroke="#63b8ff" d="M231.4,-167.59C226.79,-160.47 220.29,-150.45 214.63,-141.72"/>
<polygon fill="#63b8ff" stroke="#63b8ff" points="217.73,-140.06 209.35,-133.57 211.85,-143.86 217.73,-140.06"/>
</a>
</g>
</g>
<!-- Node11&#45;&gt;Node10 -->
<g id="edge15_Node000011_Node000010" class="edge">
<title>Node11&#45;&gt;Node10</title>
<g id="a_edge15_Node000011_Node000010"><a xlink:title=" ">
<path fill="none" stroke="#63b8ff" d="M327.44,-59.36C322.84,-58.22 318.02,-57.05 313.5,-56 242.6,-39.55 221.34,-39.32 148.75,-20.69"/>
<polygon fill="#63b8ff" stroke="#63b8ff" points="149.68,-17.32 139.12,-18.19 147.92,-24.09 149.68,-17.32"/>
</a>
</g>
</g>
<!-- Node12 -->
<g id="Node000012" class="node">
<title>Node12</title>
<g id="a_Node000012"><a xlink:title=" ">
<polygon fill="#e0e0e0" stroke="#999999" points="605.5,-20 565.5,-20 565.5,0 605.5,0 605.5,-20"/>
<text text-anchor="middle" x="585.5" y="-6.5" font-family="Helvetica,sans-Serif" font-size="10.00">string</text>
</a>
</g>
</g>
<!-- Node11&#45;&gt;Node12 -->
<g id="edge11_Node000011_Node000012" class="edge">
<title>Node11&#45;&gt;Node12</title>
<g id="a_edge11_Node000011_Node000012"><a xlink:title=" ">
<path fill="none" stroke="#63b8ff" d="M371.71,-60.83C407.91,-53.89 482.1,-39.1 554.2,-20.43"/>
<polygon fill="#63b8ff" stroke="#63b8ff" points="555.03,-23.83 563.82,-17.9 553.26,-17.05 555.03,-23.83"/>
</a>
</g>
</g>
<!-- Node13 -->
<g id="Node000013" class="node">
<title>Node13</title>
<g id="a_Node000013"><a xlink:title=" ">
<polygon fill="#e0e0e0" stroke="#999999" points="547.12,-20 501.88,-20 501.88,0 547.12,0 547.12,-20"/>
<text text-anchor="middle" x="524.5" y="-6.5" font-family="Helvetica,sans-Serif" font-size="10.00">xstring</text>
</a>
</g>
</g>
<!-- Node11&#45;&gt;Node13 -->
<g id="edge12_Node000011_Node000013" class="edge">
<title>Node11&#45;&gt;Node13</title>
<g id="a_edge12_Node000011_Node000013"><a xlink:title=" ">
<path fill="none" stroke="#63b8ff" d="M371.66,-58.16C401.71,-48.89 455.62,-32.25 490.72,-21.42"/>
<polygon fill="#63b8ff" stroke="#63b8ff" points="491.44,-24.87 499.96,-18.57 489.37,-18.18 491.44,-24.87"/>
</a>
</g>
</g>
<!-- Node14 -->
<g id="Node000014" class="node">
<title>Node14</title>
<g id="a_Node000014"><a xlink:title=" ">
<polygon fill="#e0e0e0" stroke="#999999" points="198,-20 155,-20 155,0 198,0 198,-20"/>
<text text-anchor="middle" x="176.5" y="-6.5" font-family="Helvetica,sans-Serif" font-size="10.00">format</text>
</a>
</g>
</g>
<!-- Node11&#45;&gt;Node14 -->
<g id="edge13_Node000011_Node000014" class="edge">
<title>Node11&#45;&gt;Node14</title>
<g id="a_edge13_Node000011_Node000014"><a xlink:title=" ">
<path fill="none" stroke="#63b8ff" d="M327.24,-58.05C297.31,-48.71 243.88,-32.03 209.34,-21.25"/>
<polygon fill="#63b8ff" stroke="#63b8ff" points="210.44,-17.93 199.85,-18.29 208.35,-24.61 210.44,-17.93"/>
</a>
</g>
</g>
<!-- Node15 -->
<g id="Node000015" class="node">
<title>Node15</title>
<g id="a_Node000015"><a xlink:title=" ">
<polygon fill="#e0e0e0" stroke="#999999" points="279.12,-20 215.88,-20 215.88,0 279.12,0 279.12,-20"/>
<text text-anchor="middle" x="247.5" y="-6.5" font-family="Helvetica,sans-Serif" font-size="10.00">debugapi.h</text>
</a>
</g>
</g>
<!-- Node11&#45;&gt;Node15 -->
<g id="edge14_Node000011_Node000015" class="edge">
<title>Node11&#45;&gt;Node15</title>
<g id="a_edge14_Node000011_Node000015"><a xlink:title=" ">
<path fill="none" stroke="#63b8ff" d="M331.73,-55.59C316.18,-47.36 293.32,-35.26 275.34,-25.74"/>
<polygon fill="#63b8ff" stroke="#63b8ff" points="277.22,-22.77 266.74,-21.19 273.94,-28.96 277.22,-22.77"/>
</a>
</g>
</g>
<!-- Node16 -->
<g id="Node000016" class="node">
<title>Node16</title>
<g id="a_Node000016"><a xlink:title=" ">
<polygon fill="#e0e0e0" stroke="#999999" points="353.38,-20 297.62,-20 297.62,0 353.38,0 353.38,-20"/>
<text text-anchor="middle" x="325.5" y="-6.5" font-family="Helvetica,sans-Serif" font-size="10.00">algorithm</text>
</a>
</g>
</g>
<!-- Node11&#45;&gt;Node16 -->
<g id="edge16_Node000011_Node000016" class="edge">
<title>Node11&#45;&gt;Node16</title>
<g id="a_edge16_Node000011_Node000016"><a xlink:title=" ">
<path fill="none" stroke="#63b8ff" d="M345.32,-55.59C342.26,-48.7 337.99,-39.1 334.2,-30.57"/>
<polygon fill="#63b8ff" stroke="#63b8ff" points="337.51,-29.4 330.25,-21.68 331.11,-32.24 337.51,-29.4"/>
</a>
</g>
</g>
<!-- Node17 -->
<g id="Node000017" class="node">
<title>Node17</title>
<g id="a_Node000017"><a xlink:title=" ">
<polygon fill="#e0e0e0" stroke="#999999" points="483.88,-20 371.12,-20 371.12,0 483.88,0 483.88,-20"/>
<text text-anchor="middle" x="427.5" y="-6.5" font-family="Helvetica,sans-Serif" font-size="10.00">vcruntime_exception.h</text>
</a>
</g>
</g>
<!-- Node11&#45;&gt;Node17 -->
<g id="edge17_Node000011_Node000017" class="edge">
<title>Node11&#45;&gt;Node17</title>
<g id="a_edge17_Node000011_Node000017"><a xlink:title=" ">
<path fill="none" stroke="#63b8ff" d="M363.09,-55.59C374.54,-47.67 391.16,-36.16 404.66,-26.82"/>
<polygon fill="#63b8ff" stroke="#63b8ff" points="406.33,-29.91 412.56,-21.34 402.35,-24.16 406.33,-29.91"/>
</a>
</g>
</g>
<!-- Node18&#45;&gt;Node8 -->
<g id="edge19_Node000018_Node000008" class="edge">
<title>Node18&#45;&gt;Node8</title>
<g id="a_edge19_Node000018_Node000008"><a xlink:title=" ">
<path fill="none" stroke="#63b8ff" d="M215.56,-111.59C226.47,-103.74 242.25,-92.38 255.16,-83.09"/>
<polygon fill="#63b8ff" stroke="#63b8ff" points="257.04,-86.05 263.11,-77.36 252.95,-80.37 257.04,-86.05"/>
</a>
</g>
</g>
<!-- Node18&#45;&gt;Node9 -->
<g id="edge20_Node000018_Node000009" class="edge">
<title>Node18&#45;&gt;Node9</title>
<g id="a_edge20_Node000018_Node000009"><a xlink:title=" ">
<path fill="none" stroke="#63b8ff" d="M191.7,-111.59C182.9,-103.93 170.25,-92.91 159.73,-83.75"/>
<polygon fill="#63b8ff" stroke="#63b8ff" points="162.16,-81.22 152.32,-77.29 157.56,-86.5 162.16,-81.22"/>
</a>
</g>
</g>
<!-- Node18&#45;&gt;Node10 -->
<g id="edge21_Node000018_Node000010" class="edge">
<title>Node18&#45;&gt;Node10</title>
<g id="a_edge21_Node000018_Node000010"><a xlink:title=" ">
<path fill="none" stroke="#63b8ff" d="M198.49,-111.58C192.61,-98.38 180.79,-73.97 166.5,-56 158.21,-45.58 147.39,-35.52 137.94,-27.56"/>
<polygon fill="#63b8ff" stroke="#63b8ff" points="140.22,-24.91 130.26,-21.32 135.81,-30.34 140.22,-24.91"/>
</a>
</g>
</g>
<!-- Node18&#45;&gt;Node11 -->
<g id="edge22_Node000018_Node000011" class="edge">
<title>Node18&#45;&gt;Node11</title>
<g id="a_edge22_Node000018_Node000011"><a xlink:title=" ">
<path fill="none" stroke="#63b8ff" d="M228.11,-111.59C252.72,-102.55 290.03,-88.85 316.79,-79.02"/>
<polygon fill="#63b8ff" stroke="#63b8ff" points="317.94,-82.32 326.12,-75.59 315.53,-75.75 317.94,-82.32"/>
</a>
</g>
</g>
<!-- Node19&#45;&gt;Node11 -->
<g id="edge24_Node000019_Node000011" class="edge">
<title>Node19&#45;&gt;Node11</title>
<g id="a_edge24_Node000019_Node000011"><a xlink:title=" ">
<path fill="none" stroke="#63b8ff" d="M404.38,-167.62C394.6,-149.68 373.05,-110.17 360.05,-86.35"/>
<polygon fill="#63b8ff" stroke="#63b8ff" points="363.19,-84.79 355.33,-77.68 357.04,-88.14 363.19,-84.79"/>
</a>
</g>
</g>
<!-- Node20&#45;&gt;Node8 -->
<g id="edge26_Node000020_Node000008" class="edge">
<title>Node20&#45;&gt;Node8</title>
<g id="a_edge26_Node000020_Node000008"><a xlink:title=" ">
<path fill="none" stroke="#63b8ff" d="M438.15,-111.72C404.33,-102.3 352.02,-87.74 316.34,-77.81"/>
<polygon fill="#63b8ff" stroke="#63b8ff" points="317.42,-74.48 306.85,-75.17 315.54,-81.22 317.42,-74.48"/>
</a>
</g>
</g>
<!-- Node20&#45;&gt;Node11 -->
<g id="edge28_Node000020_Node000011" class="edge">
<title>Node20&#45;&gt;Node11</title>
<g id="a_edge28_Node000020_Node000011"><a xlink:title=" ">
<path fill="none" stroke="#63b8ff" d="M450.25,-111.59C431.21,-103.17 403.02,-90.69 381.3,-81.07"/>
<polygon fill="#63b8ff" stroke="#63b8ff" points="382.86,-77.94 372.3,-77.09 380.03,-84.34 382.86,-77.94"/>
</a>
</g>
</g>
<!-- Node20&#45;&gt;Node12 -->
<g id="edge27_Node000020_Node000012" class="edge">
<title>Node20&#45;&gt;Node12</title>
<g id="a_edge27_Node000020_Node000012"><a xlink:title=" ">
<path fill="none" stroke="#63b8ff" d="M481.22,-111.62C500.4,-93.11 543.38,-51.65 567.75,-28.13"/>
<polygon fill="#63b8ff" stroke="#63b8ff" points="569.95,-30.87 574.72,-21.41 565.09,-25.83 569.95,-30.87"/>
</a>
</g>
</g>
</g>
</svg>

<g id="navigator" transform="translate(0 0)" fill="#404254">
  <rect fill="#f2f5e9" fill-opacity="0.5" stroke="#606060" stroke-width=".5" x="0" y="0" width="60" height="60"/>
  <use id="zoomplus" xlink:href="#zoomPlus" x="17" y="9" onmousedown="handleZoom(evt,'in')"/>
  <use id="zoomminus" xlink:href="#zoomMin" x="42" y="9" onmousedown="handleZoom(evt,'out')"/>
  <use id="reset" xlink:href="#resetDef" x="30" y="36" onmousedown="handleReset()"/>
   <use id="arrowup" xlink:href="#arrowUp" x="0" y="0" onmousedown="handlePan(0,-1)"/>
  <use id="arrowright" xlink:href="#arrowRight" x="0" y="0" onmousedown="handlePan(1,0)"/>
  <use id="arrowdown" xlink:href="#arrowDown" x="0" y="0" onmousedown="handlePan(0,1)"/>
  <use id="arrowleft" xlink:href="#arrowLeft" x="0" y="0" onmousedown="handlePan(-1,0)"/>
</g>
<svg viewBox="0 0 15 15" width="100%" height="30px" preserveAspectRatio="xMaxYMin meet">
 <g id="arrow_out" transform="scale(0.3 0.3)">
  <a xlink:href="_hooks_impl_8cpp__incl_org.svg" target="_base">
   <rect id="button" ry="5" rx="5" y="6" x="6" height="38" width="38"
        fill="#f2f5e9" fill-opacity="0.5" stroke="#606060" stroke-width="1.0"/>
   <path id="arrow"
     d="M 11.500037,31.436501 C 11.940474,20.09759 22.043105,11.32322 32.158766,21.979434 L 37.068811,17.246167 C 37.068811,17.246167 37.088388,32 37.088388,32 L 22.160133,31.978069 C 22.160133,31.978069 26.997745,27.140456 26.997745,27.140456 C 18.528582,18.264221 13.291696,25.230495 11.500037,31.436501 z"
     style="fill:#404040;"/>
  </a>
 </g>
</svg>

<style type='text/css'>
<![CDATA[
[data-mouse-over-selected='false'] { opacity: 0.7; }
[data-mouse-over-selected='true']  { opacity: 1.0; }
]]>
</style>
<script type="application/ecmascript"><![CDATA[
document.addEventListener('DOMContentLoaded', (event) => {
  highlightEdges();
  highlightAdjacentNodes();
});
]]></script>
</svg>
