<?xml version="1.0" encoding="UTF-8" standalone="no"?>
<!DOCTYPE svg PUBLIC "-//W3C//DTD SVG 1.1//EN"
 "http://www.w3.org/Graphics/SVG/1.1/DTD/svg11.dtd">
<!-- Generated by graphviz version 8.1.0 (20230707.0739)
 -->
<!-- Title: wiNpoS&#45;Shared/HooksMgr.h Pages: 1 -->
<svg width="781pt" height="84pt"
 viewBox="0.00 0.00 781.25 84.00" xmlns="http://www.w3.org/2000/svg" xmlns:xlink="http://www.w3.org/1999/xlink">
<g id="graph0" class="graph" transform="scale(1 1) rotate(0) translate(4 80)">
<title>wiNpoS&#45;Shared/HooksMgr.h</title>
<!-- Node1 -->
<g id="Node000001" class="node">
<title>Node1</title>
<g id="a_Node000001"><a xlink:title=" ">
<polygon fill="#999999" stroke="#666666" points="455.25,-76 317,-76 317,-56 455.25,-56 455.25,-76"/>
<text text-anchor="middle" x="386.12" y="-62.5" font-family="Helvetica,sans-Serif" font-size="10.00">wiNpoS&#45;Shared/HooksMgr.h</text>
</a>
</g>
</g>
<!-- Node2 -->
<g id="Node000002" class="node">
<title>Node2</title>
<g id="a_Node000002"><a xlink:href="wi_npo_s-_app_8cpp.html" target="_top" xlink:title=" ">
<polygon fill="white" stroke="#666666" points="144.25,-20 0,-20 0,0 144.25,0 144.25,-20"/>
<text text-anchor="middle" x="72.12" y="-6.5" font-family="Helvetica,sans-Serif" font-size="10.00">wiNpoS&#45;App/wiNpoS&#45;App.cpp</text>
</a>
</g>
</g>
<!-- Node1&#45;&gt;Node2 -->
<g id="edge1_Node000001_Node000002" class="edge">
<title>Node1&#45;&gt;Node2</title>
<g id="a_edge1_Node000001_Node000002"><a xlink:title=" ">
<path fill="none" stroke="#63b8ff" d="M320.32,-53.68C263.04,-43.83 180.96,-29.72 127.12,-20.46"/>
<polygon fill="#63b8ff" stroke="#63b8ff" points="319.62,-57.29 330.07,-55.53 320.81,-50.39 319.62,-57.29"/>
</a>
</g>
</g>
<!-- Node3 -->
<g id="Node000003" class="node">
<title>Node3</title>
<g id="a_Node000003"><a xlink:href="_hooks_impl_8cpp.html" target="_top" xlink:title=" ">
<polygon fill="white" stroke="#666666" points="304.12,-20 162.12,-20 162.12,0 304.12,0 304.12,-20"/>
<text text-anchor="middle" x="233.12" y="-6.5" font-family="Helvetica,sans-Serif" font-size="10.00">wiNpoS&#45;Hook/HooksImpl.cpp</text>
</a>
</g>
</g>
<!-- Node1&#45;&gt;Node3 -->
<g id="edge2_Node000001_Node000003" class="edge">
<title>Node1&#45;&gt;Node3</title>
<g id="a_edge2_Node000001_Node000003"><a xlink:title=" ">
<path fill="none" stroke="#63b8ff" d="M349.43,-52.05C321.89,-42.33 284.8,-29.24 259.98,-20.48"/>
<polygon fill="#63b8ff" stroke="#63b8ff" points="347.88,-55.57 358.47,-55.59 350.21,-48.97 347.88,-55.57"/>
</a>
</g>
</g>
<!-- Node4 -->
<g id="Node000004" class="node">
<title>Node4</title>
<g id="a_Node000004"><a xlink:href="wi_npo_s-_hook_2dllmain_8cpp.html" target="_top" xlink:title=" ">
<polygon fill="white" stroke="#666666" points="449.62,-20 322.62,-20 322.62,0 449.62,0 449.62,-20"/>
<text text-anchor="middle" x="386.12" y="-6.5" font-family="Helvetica,sans-Serif" font-size="10.00">wiNpoS&#45;Hook/dllmain.cpp</text>
</a>
</g>
</g>
<!-- Node1&#45;&gt;Node4 -->
<g id="edge3_Node000001_Node000004" class="edge">
<title>Node1&#45;&gt;Node4</title>
<g id="a_edge3_Node000001_Node000004"><a xlink:title=" ">
<path fill="none" stroke="#63b8ff" d="M386.12,-44.71C386.12,-36.32 386.12,-27.01 386.12,-20.3"/>
<polygon fill="#63b8ff" stroke="#63b8ff" points="382.63,-44.59 386.12,-54.59 389.63,-44.59 382.63,-44.59"/>
</a>
</g>
</g>
<!-- Node5 -->
<g id="Node000005" class="node">
<title>Node5</title>
<g id="a_Node000005"><a xlink:href="_hooks_mgr_8cpp.html" target="_top" xlink:title=" ">
<polygon fill="white" stroke="#666666" points="616.5,-20 467.75,-20 467.75,0 616.5,0 616.5,-20"/>
<text text-anchor="middle" x="542.12" y="-6.5" font-family="Helvetica,sans-Serif" font-size="10.00">wiNpoS&#45;Shared/HooksMgr.cpp</text>
</a>
</g>
</g>
<!-- Node1&#45;&gt;Node5 -->
<g id="edge4_Node000001_Node000005" class="edge">
<title>Node1&#45;&gt;Node5</title>
<g id="a_edge4_Node000001_Node000005"><a xlink:title=" ">
<path fill="none" stroke="#63b8ff" d="M423.54,-52.05C451.62,-42.33 489.44,-29.24 514.74,-20.48"/>
<polygon fill="#63b8ff" stroke="#63b8ff" points="422.6,-49.02 414.3,-55.59 424.89,-55.63 422.6,-49.02"/>
</a>
</g>
</g>
<!-- Node6 -->
<g id="Node000006" class="node">
<title>Node6</title>
<g id="a_Node000006"><a xlink:href="wi_npo_s-_support_2dllmain_8cpp.html" target="_top" xlink:title=" ">
<polygon fill="white" stroke="#666666" points="773.25,-20 635,-20 635,0 773.25,0 773.25,-20"/>
<text text-anchor="middle" x="704.12" y="-6.5" font-family="Helvetica,sans-Serif" font-size="10.00">wiNpoS&#45;Support/dllmain.cpp</text>
</a>
</g>
</g>
<!-- Node1&#45;&gt;Node6 -->
<g id="edge5_Node000001_Node000006" class="edge">
<title>Node1&#45;&gt;Node6</title>
<g id="a_edge5_Node000001_Node000006"><a xlink:title=" ">
<path fill="none" stroke="#63b8ff" d="M452.41,-53.74C510.44,-43.89 593.79,-29.74 648.43,-20.46"/>
<polygon fill="#63b8ff" stroke="#63b8ff" points="452.15,-50.41 442.88,-55.53 453.33,-57.31 452.15,-50.41"/>
</a>
</g>
</g>
</g>
</svg>
