<?xml version="1.0" encoding="UTF-8" standalone="no"?>
<!DOCTYPE svg PUBLIC "-//W3C//DTD SVG 1.1//EN"
 "http://www.w3.org/Graphics/SVG/1.1/DTD/svg11.dtd">
<!-- Generated by graphviz version 9.0.0 (20230911.1827)
 -->
<!-- Title: wiNpoS&#45;Shared/HooksCfg.cpp Pages: 1 -->
<svg width="1374pt" height="196pt"
 viewBox="0.00 0.00 1373.88 196.00" xmlns="http://www.w3.org/2000/svg" xmlns:xlink="http://www.w3.org/1999/xlink">
<g id="graph0" class="graph" transform="scale(1 1) rotate(0) translate(4 192)">
<title>wiNpoS&#45;Shared/HooksCfg.cpp</title>
<!-- Node1 -->
<g id="Node000001" class="node">
<title>Node1</title>
<g id="a_Node000001"><a xlink:title=" ">
<polygon fill="#999999" stroke="#666666" points="694.75,-188 548.25,-188 548.25,-168 694.75,-168 694.75,-188"/>
<text text-anchor="middle" x="621.5" y="-174.5" font-family="Helvetica,sans-Serif" font-size="10.00">wiNpoS&#45;Shared/HooksCfg.cpp</text>
</a>
</g>
</g>
<!-- Node2 -->
<g id="Node000002" class="node">
<title>Node2</title>
<g id="a_Node000002"><a xlink:title=" ">
<polygon fill="#e0e0e0" stroke="#999999" points="63.5,-132 23.5,-132 23.5,-112 63.5,-112 63.5,-132"/>
<text text-anchor="middle" x="43.5" y="-118.5" font-family="Helvetica,sans-Serif" font-size="10.00">pch.h</text>
</a>
</g>
</g>
<!-- Node1&#45;&gt;Node2 -->
<g id="edge1_Node000001_Node000002" class="edge">
<title>Node1&#45;&gt;Node2</title>
<g id="a_edge1_Node000001_Node000002"><a xlink:title=" ">
<path fill="none" stroke="#63b8ff" d="M547.95,-175.02C442.91,-171.27 244.2,-160.73 77.5,-132 76.67,-131.86 75.82,-131.7 74.97,-131.54"/>
<polygon fill="#63b8ff" stroke="#63b8ff" points="75.87,-128.15 65.34,-129.35 74.32,-134.98 75.87,-128.15"/>
</a>
</g>
</g>
<!-- Node3 -->
<g id="Node000003" class="node">
<title>Node3</title>
<g id="a_Node000003"><a xlink:title=" ">
<polygon fill="#e0e0e0" stroke="#999999" points="43,-20 0,-20 0,0 43,0 43,-20"/>
<text text-anchor="middle" x="21.5" y="-6.5" font-family="Helvetica,sans-Serif" font-size="10.00">format</text>
</a>
</g>
</g>
<!-- Node1&#45;&gt;Node3 -->
<g id="edge2_Node000001_Node000003" class="edge">
<title>Node1&#45;&gt;Node3</title>
<g id="a_edge2_Node000001_Node000003"><a xlink:title=" ">
<path fill="none" stroke="#63b8ff" d="M548.14,-176.24C431.75,-174.01 210.76,-165.38 140.5,-132 92.12,-109.02 52.45,-57.67 33.51,-29.82"/>
<polygon fill="#63b8ff" stroke="#63b8ff" points="36.56,-28.08 28.13,-21.67 30.72,-31.94 36.56,-28.08"/>
</a>
</g>
</g>
<!-- Node4 -->
<g id="Node000004" class="node">
<title>Node4</title>
<g id="a_Node000004"><a xlink:title=" ">
<polygon fill="#e0e0e0" stroke="#999999" points="395.62,-132 353.38,-132 353.38,-112 395.62,-112 395.62,-132"/>
<text text-anchor="middle" x="374.5" y="-118.5" font-family="Helvetica,sans-Serif" font-size="10.00">cstdio</text>
</a>
</g>
</g>
<!-- Node1&#45;&gt;Node4 -->
<g id="edge3_Node000001_Node000004" class="edge">
<title>Node1&#45;&gt;Node4</title>
<g id="a_edge3_Node000001_Node000004"><a xlink:title=" ">
<path fill="none" stroke="#63b8ff" d="M570.62,-167.55C529.18,-159.6 468.93,-147.45 407.25,-132.27"/>
<polygon fill="#63b8ff" stroke="#63b8ff" points="408.14,-128.89 397.59,-129.87 406.45,-135.68 408.14,-128.89"/>
</a>
</g>
</g>
<!-- Node5 -->
<g id="Node000005" class="node">
<title>Node5</title>
<g id="a_Node000005"><a xlink:title=" ">
<polygon fill="#e0e0e0" stroke="#999999" points="487,-132 414,-132 414,-112 487,-112 487,-132"/>
<text text-anchor="middle" x="450.5" y="-118.5" font-family="Helvetica,sans-Serif" font-size="10.00">processenv.h</text>
</a>
</g>
</g>
<!-- Node1&#45;&gt;Node5 -->
<g id="edge4_Node000001_Node000005" class="edge">
<title>Node1&#45;&gt;Node5</title>
<g id="a_edge4_Node000001_Node000005"><a xlink:title=" ">
<path fill="none" stroke="#63b8ff" d="M591.71,-167.59C563.93,-158.82 522.25,-145.66 491.36,-135.9"/>
<polygon fill="#63b8ff" stroke="#63b8ff" points="492.55,-132.61 481.96,-132.94 490.44,-139.28 492.55,-132.61"/>
</a>
</g>
</g>
<!-- Node6 -->
<g id="Node000006" class="node">
<title>Node6</title>
<g id="a_Node000006"><a xlink:title=" ">
<polygon fill="#e0e0e0" stroke="#999999" points="546.25,-132 504.75,-132 504.75,-112 546.25,-112 546.25,-132"/>
<text text-anchor="middle" x="525.5" y="-118.5" font-family="Helvetica,sans-Serif" font-size="10.00">locale</text>
</a>
</g>
</g>
<!-- Node1&#45;&gt;Node6 -->
<g id="edge5_Node000001_Node000006" class="edge">
<title>Node1&#45;&gt;Node6</title>
<g id="a_edge5_Node000001_Node000006"><a xlink:title=" ">
<path fill="none" stroke="#63b8ff" d="M604.78,-167.59C590.28,-159.44 569.03,-147.48 552.18,-138"/>
<polygon fill="#63b8ff" stroke="#63b8ff" points="554.1,-135.07 543.67,-133.22 550.67,-141.17 554.1,-135.07"/>
</a>
</g>
</g>
<!-- Node7 -->
<g id="Node000007" class="node">
<title>Node7</title>
<g id="a_Node000007"><a xlink:title=" ">
<polygon fill="#e0e0e0" stroke="#999999" points="613,-132 564,-132 564,-112 613,-112 613,-132"/>
<text text-anchor="middle" x="588.5" y="-118.5" font-family="Helvetica,sans-Serif" font-size="10.00">codecvt</text>
</a>
</g>
</g>
<!-- Node1&#45;&gt;Node7 -->
<g id="edge6_Node000001_Node000007" class="edge">
<title>Node1&#45;&gt;Node7</title>
<g id="a_edge6_Node000001_Node000007"><a xlink:title=" ">
<path fill="none" stroke="#63b8ff" d="M615.75,-167.59C611.45,-160.55 605.41,-150.67 600.11,-142"/>
<polygon fill="#63b8ff" stroke="#63b8ff" points="603.17,-140.3 594.97,-133.59 597.2,-143.95 603.17,-140.3"/>
</a>
</g>
</g>
<!-- Node8 -->
<g id="Node000008" class="node">
<title>Node8</title>
<g id="a_Node000008"><a xlink:title=" ">
<polygon fill="#e0e0e0" stroke="#999999" points="679.62,-132 631.38,-132 631.38,-112 679.62,-112 679.62,-132"/>
<text text-anchor="middle" x="655.5" y="-118.5" font-family="Helvetica,sans-Serif" font-size="10.00">fstream</text>
</a>
</g>
</g>
<!-- Node1&#45;&gt;Node8 -->
<g id="edge7_Node000001_Node000008" class="edge">
<title>Node1&#45;&gt;Node8</title>
<g id="a_edge7_Node000001_Node000008"><a xlink:title=" ">
<path fill="none" stroke="#63b8ff" d="M627.42,-167.59C631.86,-160.55 638.08,-150.67 643.54,-142"/>
<polygon fill="#63b8ff" stroke="#63b8ff" points="646.47,-143.91 648.84,-133.58 640.55,-140.18 646.47,-143.91"/>
</a>
</g>
</g>
<!-- Node9 -->
<g id="Node000009" class="node">
<title>Node9</title>
<g id="a_Node000009"><a xlink:title=" ">
<polygon fill="#e0e0e0" stroke="#999999" points="753.75,-132 697.25,-132 697.25,-112 753.75,-112 753.75,-132"/>
<text text-anchor="middle" x="725.5" y="-118.5" font-family="Helvetica,sans-Serif" font-size="10.00">shlwapi.h</text>
</a>
</g>
</g>
<!-- Node1&#45;&gt;Node9 -->
<g id="edge8_Node000001_Node000009" class="edge">
<title>Node1&#45;&gt;Node9</title>
<g id="a_edge8_Node000001_Node000009"><a xlink:title=" ">
<path fill="none" stroke="#63b8ff" d="M639.62,-167.59C655.47,-159.36 678.78,-147.26 697.12,-137.74"/>
<polygon fill="#63b8ff" stroke="#63b8ff" points="698.64,-140.89 705.9,-133.18 695.41,-134.68 698.64,-140.89"/>
</a>
</g>
</g>
<!-- Node10 -->
<g id="Node000010" class="node">
<title>Node10</title>
<g id="a_Node000010"><a xlink:title=" ">
<polygon fill="#e0e0e0" stroke="#999999" points="857,-132 772,-132 772,-112 857,-112 857,-132"/>
<text text-anchor="middle" x="814.5" y="-118.5" font-family="Helvetica,sans-Serif" font-size="10.00">filereadstream.h</text>
</a>
</g>
</g>
<!-- Node1&#45;&gt;Node10 -->
<g id="edge9_Node000001_Node000010" class="edge">
<title>Node1&#45;&gt;Node10</title>
<g id="a_edge9_Node000001_Node000010"><a xlink:title=" ">
<path fill="none" stroke="#63b8ff" d="M655.12,-167.59C686.89,-158.71 734.76,-145.31 769.75,-135.52"/>
<polygon fill="#63b8ff" stroke="#63b8ff" points="770.47,-138.95 779.16,-132.89 768.59,-132.21 770.47,-138.95"/>
</a>
</g>
</g>
<!-- Node11 -->
<g id="Node000011" class="node">
<title>Node11</title>
<g id="a_Node000011"><a xlink:title=" ">
<polygon fill="#e0e0e0" stroke="#999999" points="961.75,-132 875.25,-132 875.25,-112 961.75,-112 961.75,-132"/>
<text text-anchor="middle" x="918.5" y="-118.5" font-family="Helvetica,sans-Serif" font-size="10.00">filewritestream.h</text>
</a>
</g>
</g>
<!-- Node1&#45;&gt;Node11 -->
<g id="edge10_Node000001_Node000011" class="edge">
<title>Node1&#45;&gt;Node11</title>
<g id="a_edge10_Node000001_Node000011"><a xlink:title=" ">
<path fill="none" stroke="#63b8ff" d="M673.57,-167.53C727,-157.82 809.77,-142.77 864.05,-132.9"/>
<polygon fill="#63b8ff" stroke="#63b8ff" points="864.48,-136.38 873.69,-131.15 863.23,-129.49 864.48,-136.38"/>
</a>
</g>
</g>
<!-- Node12 -->
<g id="Node000012" class="node">
<title>Node12</title>
<g id="a_Node000012"><a xlink:title=" ">
<polygon fill="#e0e0e0" stroke="#999999" points="1051.62,-132 979.38,-132 979.38,-112 1051.62,-112 1051.62,-132"/>
<text text-anchor="middle" x="1015.5" y="-118.5" font-family="Helvetica,sans-Serif" font-size="10.00">prettywriter.h</text>
</a>
</g>
</g>
<!-- Node1&#45;&gt;Node12 -->
<g id="edge11_Node000001_Node000012" class="edge">
<title>Node1&#45;&gt;Node12</title>
<g id="a_edge11_Node000001_Node000012"><a xlink:title=" ">
<path fill="none" stroke="#63b8ff" d="M695.25,-168.99C763.48,-161.24 867.97,-148.51 967.97,-132.32"/>
<polygon fill="#63b8ff" stroke="#63b8ff" points="968.39,-135.8 977.7,-130.73 967.26,-128.89 968.39,-135.8"/>
</a>
</g>
</g>
<!-- Node13 -->
<g id="Node000013" class="node">
<title>Node13</title>
<g id="a_Node000013"><a xlink:title=" ">
<polygon fill="#e0e0e0" stroke="#999999" points="1137,-132 1070,-132 1070,-112 1137,-112 1137,-132"/>
<text text-anchor="middle" x="1103.5" y="-118.5" font-family="Helvetica,sans-Serif" font-size="10.00">document.h</text>
</a>
</g>
</g>
<!-- Node1&#45;&gt;Node13 -->
<g id="edge12_Node000001_Node000013" class="edge">
<title>Node1&#45;&gt;Node13</title>
<g id="a_edge12_Node000001_Node000013"><a xlink:title=" ">
<path fill="none" stroke="#63b8ff" d="M695.2,-171.8C780.27,-165.28 924.59,-152.58 1058.49,-132.15"/>
<polygon fill="#63b8ff" stroke="#63b8ff" points="1058.92,-135.63 1068.26,-130.64 1057.85,-128.71 1058.92,-135.63"/>
</a>
</g>
</g>
<!-- Node14 -->
<g id="Node000014" class="node">
<title>Node14</title>
<g id="a_Node000014"><a xlink:title=" ">
<polygon fill="#e0e0e0" stroke="#999999" points="1202.25,-132 1154.75,-132 1154.75,-112 1202.25,-112 1202.25,-132"/>
<text text-anchor="middle" x="1178.5" y="-118.5" font-family="Helvetica,sans-Serif" font-size="10.00">writer.h</text>
</a>
</g>
</g>
<!-- Node1&#45;&gt;Node14 -->
<g id="edge13_Node000001_Node000014" class="edge">
<title>Node1&#45;&gt;Node14</title>
<g id="a_edge13_Node000001_Node000014"><a xlink:title=" ">
<path fill="none" stroke="#63b8ff" d="M695.12,-175.06C794.91,-171.47 978.7,-161.43 1143.19,-132.31"/>
<polygon fill="#63b8ff" stroke="#63b8ff" points="1143.79,-135.76 1153.01,-130.54 1142.55,-128.87 1143.79,-135.76"/>
</a>
</g>
</g>
<!-- Node15 -->
<g id="Node000015" class="node">
<title>Node15</title>
<g id="a_Node000015"><a xlink:title=" ">
<polygon fill="#e0e0e0" stroke="#999999" points="1277.12,-132 1219.88,-132 1219.88,-112 1277.12,-112 1277.12,-132"/>
<text text-anchor="middle" x="1248.5" y="-118.5" font-family="Helvetica,sans-Serif" font-size="10.00">shellapi.h</text>
</a>
</g>
</g>
<!-- Node1&#45;&gt;Node15 -->
<g id="edge14_Node000001_Node000015" class="edge">
<title>Node1&#45;&gt;Node15</title>
<g id="a_edge14_Node000001_Node000015"><a xlink:title=" ">
<path fill="none" stroke="#63b8ff" d="M695.07,-175.22C804.96,-171.73 1018.55,-161.66 1208.2,-132.3"/>
<polygon fill="#63b8ff" stroke="#63b8ff" points="1208.68,-135.77 1218.01,-130.76 1207.59,-128.86 1208.68,-135.77"/>
</a>
</g>
</g>
<!-- Node16 -->
<g id="Node000016" class="node">
<title>Node16</title>
<g id="a_Node000016"><a xlink:href="_utils_8h.html" target="_top" xlink:title=" ">
<polygon fill="white" stroke="#666666" points="212.38,-76 168.62,-76 168.62,-56 212.38,-56 212.38,-76"/>
<text text-anchor="middle" x="190.5" y="-62.5" font-family="Helvetica,sans-Serif" font-size="10.00">Utils.h</text>
</a>
</g>
</g>
<!-- Node1&#45;&gt;Node16 -->
<g id="edge15_Node000001_Node000016" class="edge">
<title>Node1&#45;&gt;Node16</title>
<g id="a_edge15_Node000001_Node000016"><a xlink:title=" ">
<path fill="none" stroke="#63b8ff" d="M548.15,-175.34C421.99,-171.71 174.83,-160.95 148.5,-132 134.92,-117.07 151.73,-97.29 167.95,-83.48"/>
<polygon fill="#63b8ff" stroke="#63b8ff" points="169.88,-86.42 175.51,-77.44 165.52,-80.95 169.88,-86.42"/>
</a>
</g>
</g>
<!-- Node23 -->
<g id="Node000023" class="node">
<title>Node23</title>
<g id="a_Node000023"><a xlink:href="_debug_new_8h.html" target="_top" xlink:title=" ">
<polygon fill="white" stroke="#666666" points="1365.88,-132 1295.12,-132 1295.12,-112 1365.88,-112 1365.88,-132"/>
<text text-anchor="middle" x="1330.5" y="-118.5" font-family="Helvetica,sans-Serif" font-size="10.00">DebugNew.h</text>
</a>
</g>
</g>
<!-- Node1&#45;&gt;Node23 -->
<g id="edge23_Node000001_Node000023" class="edge">
<title>Node1&#45;&gt;Node23</title>
<g id="a_edge23_Node000001_Node000023"><a xlink:title=" ">
<path fill="none" stroke="#63b8ff" d="M695.14,-175.24C816.09,-171.65 1064.51,-161.29 1283.94,-132.17"/>
<polygon fill="#63b8ff" stroke="#63b8ff" points="1284.08,-135.68 1293.53,-130.88 1283.15,-128.75 1284.08,-135.68"/>
</a>
</g>
</g>
<!-- Node24 -->
<g id="Node000024" class="node">
<title>Node24</title>
<g id="a_Node000024"><a xlink:href="_hooks_cfg_8h.html" target="_top" xlink:title=" ">
<polygon fill="white" stroke="#666666" points="223.62,-132 157.38,-132 157.38,-112 223.62,-112 223.62,-132"/>
<text text-anchor="middle" x="190.5" y="-118.5" font-family="Helvetica,sans-Serif" font-size="10.00">HooksCfg.h</text>
</a>
</g>
</g>
<!-- Node1&#45;&gt;Node24 -->
<g id="edge24_Node000001_Node000024" class="edge">
<title>Node1&#45;&gt;Node24</title>
<g id="a_edge24_Node000001_Node000024"><a xlink:title=" ">
<path fill="none" stroke="#63b8ff" d="M548.08,-170.62C472.1,-163.55 349.78,-150.82 235,-132.28"/>
<polygon fill="#63b8ff" stroke="#63b8ff" points="235.84,-128.87 225.41,-130.71 234.71,-135.78 235.84,-128.87"/>
</a>
</g>
</g>
<!-- Node26 -->
<g id="Node000026" class="node">
<title>Node26</title>
<g id="a_Node000026"><a xlink:href="_win_pos_wnd_cfg_8h.html" target="_top" xlink:title=" ">
<polygon fill="white" stroke="#666666" points="335.12,-132 241.88,-132 241.88,-112 335.12,-112 335.12,-132"/>
<text text-anchor="middle" x="288.5" y="-118.5" font-family="Helvetica,sans-Serif" font-size="10.00">WinPosWndCfg.h</text>
</a>
</g>
</g>
<!-- Node1&#45;&gt;Node26 -->
<g id="edge28_Node000001_Node000026" class="edge">
<title>Node1&#45;&gt;Node26</title>
<g id="a_edge28_Node000001_Node000026"><a xlink:title=" ">
<path fill="none" stroke="#63b8ff" d="M563.11,-167.53C502.31,-157.67 407.61,-142.31 346.82,-132.46"/>
<polygon fill="#63b8ff" stroke="#63b8ff" points="347.44,-129.01 337.01,-130.87 346.32,-135.92 347.44,-129.01"/>
</a>
</g>
</g>
<!-- Node16&#45;&gt;Node3 -->
<g id="edge18_Node000016_Node000003" class="edge">
<title>Node16&#45;&gt;Node3</title>
<g id="a_edge18_Node000016_Node000003"><a xlink:title=" ">
<path fill="none" stroke="#63b8ff" d="M168.41,-57.94C139.23,-48.62 87.61,-32.13 53.99,-21.38"/>
<polygon fill="#63b8ff" stroke="#63b8ff" points="55.36,-18.15 44.77,-18.44 53.23,-24.81 55.36,-18.15"/>
</a>
</g>
</g>
<!-- Node17 -->
<g id="Node000017" class="node">
<title>Node17</title>
<g id="a_Node000017"><a xlink:title=" ">
<polygon fill="#e0e0e0" stroke="#999999" points="101.5,-20 61.5,-20 61.5,0 101.5,0 101.5,-20"/>
<text text-anchor="middle" x="81.5" y="-6.5" font-family="Helvetica,sans-Serif" font-size="10.00">string</text>
</a>
</g>
</g>
<!-- Node16&#45;&gt;Node17 -->
<g id="edge16_Node000016_Node000017" class="edge">
<title>Node16&#45;&gt;Node17</title>
<g id="a_edge16_Node000016_Node000017"><a xlink:title=" ">
<path fill="none" stroke="#63b8ff" d="M171.51,-55.59C154.74,-47.28 130.01,-35.03 110.71,-25.47"/>
<polygon fill="#63b8ff" stroke="#63b8ff" points="112.51,-22.45 101.99,-21.15 109.4,-28.73 112.51,-22.45"/>
</a>
</g>
</g>
<!-- Node18 -->
<g id="Node000018" class="node">
<title>Node18</title>
<g id="a_Node000018"><a xlink:title=" ">
<polygon fill="#e0e0e0" stroke="#999999" points="451.12,-20 405.88,-20 405.88,0 451.12,0 451.12,-20"/>
<text text-anchor="middle" x="428.5" y="-6.5" font-family="Helvetica,sans-Serif" font-size="10.00">xstring</text>
</a>
</g>
</g>
<!-- Node16&#45;&gt;Node18 -->
<g id="edge17_Node000016_Node000018" class="edge">
<title>Node16&#45;&gt;Node18</title>
<g id="a_edge17_Node000016_Node000018"><a xlink:title=" ">
<path fill="none" stroke="#63b8ff" d="M212.72,-58.09C215.33,-57.35 217.97,-56.64 220.5,-56 294.6,-37.35 317,-38.66 394.67,-20.29"/>
<polygon fill="#63b8ff" stroke="#63b8ff" points="395.1,-23.78 404.01,-18.04 393.47,-16.98 395.1,-23.78"/>
</a>
</g>
</g>
<!-- Node19 -->
<g id="Node000019" class="node">
<title>Node19</title>
<g id="a_Node000019"><a xlink:title=" ">
<polygon fill="#e0e0e0" stroke="#999999" points="183.12,-20 119.88,-20 119.88,0 183.12,0 183.12,-20"/>
<text text-anchor="middle" x="151.5" y="-6.5" font-family="Helvetica,sans-Serif" font-size="10.00">debugapi.h</text>
</a>
</g>
</g>
<!-- Node16&#45;&gt;Node19 -->
<g id="edge19_Node000016_Node000019" class="edge">
<title>Node16&#45;&gt;Node19</title>
<g id="a_edge19_Node000016_Node000019"><a xlink:title=" ">
<path fill="none" stroke="#63b8ff" d="M183.71,-55.59C178.51,-48.39 171.17,-38.23 164.81,-29.43"/>
<polygon fill="#63b8ff" stroke="#63b8ff" points="167.79,-27.58 159.1,-21.53 162.12,-31.68 167.79,-27.58"/>
</a>
</g>
</g>
<!-- Node20 -->
<g id="Node000020" class="node">
<title>Node20</title>
<g id="a_Node000020"><a xlink:title=" ">
<polygon fill="#e0e0e0" stroke="#999999" points="510.25,-20 468.75,-20 468.75,0 510.25,0 510.25,-20"/>
<text text-anchor="middle" x="489.5" y="-6.5" font-family="Helvetica,sans-Serif" font-size="10.00">vector</text>
</a>
</g>
</g>
<!-- Node16&#45;&gt;Node20 -->
<g id="edge20_Node000016_Node000020" class="edge">
<title>Node16&#45;&gt;Node20</title>
<g id="a_edge20_Node000016_Node000020"><a xlink:title=" ">
<path fill="none" stroke="#63b8ff" d="M212.69,-57.96C215.31,-57.24 217.95,-56.57 220.5,-56 322.26,-33.23 353.31,-43.32 457.39,-20.44"/>
<polygon fill="#63b8ff" stroke="#63b8ff" points="457.92,-23.91 466.9,-18.3 456.38,-17.08 457.92,-23.91"/>
</a>
</g>
</g>
<!-- Node21 -->
<g id="Node000021" class="node">
<title>Node21</title>
<g id="a_Node000021"><a xlink:title=" ">
<polygon fill="#e0e0e0" stroke="#999999" points="257.38,-20 201.62,-20 201.62,0 257.38,0 257.38,-20"/>
<text text-anchor="middle" x="229.5" y="-6.5" font-family="Helvetica,sans-Serif" font-size="10.00">algorithm</text>
</a>
</g>
</g>
<!-- Node16&#45;&gt;Node21 -->
<g id="edge21_Node000016_Node000021" class="edge">
<title>Node16&#45;&gt;Node21</title>
<g id="a_edge21_Node000016_Node000021"><a xlink:title=" ">
<path fill="none" stroke="#63b8ff" d="M197.29,-55.59C202.49,-48.39 209.83,-38.23 216.19,-29.43"/>
<polygon fill="#63b8ff" stroke="#63b8ff" points="218.88,-31.68 221.9,-21.53 213.21,-27.58 218.88,-31.68"/>
</a>
</g>
</g>
<!-- Node22 -->
<g id="Node000022" class="node">
<title>Node22</title>
<g id="a_Node000022"><a xlink:title=" ">
<polygon fill="#e0e0e0" stroke="#999999" points="387.88,-20 275.12,-20 275.12,0 387.88,0 387.88,-20"/>
<text text-anchor="middle" x="331.5" y="-6.5" font-family="Helvetica,sans-Serif" font-size="10.00">vcruntime_exception.h</text>
</a>
</g>
</g>
<!-- Node16&#45;&gt;Node22 -->
<g id="edge22_Node000016_Node000022" class="edge">
<title>Node16&#45;&gt;Node22</title>
<g id="a_edge22_Node000016_Node000022"><a xlink:title=" ">
<path fill="none" stroke="#63b8ff" d="M212.84,-56.44C235.26,-47.86 270.14,-34.5 296.28,-24.49"/>
<polygon fill="#63b8ff" stroke="#63b8ff" points="297.39,-27.81 305.48,-20.97 294.89,-21.27 297.39,-27.81"/>
</a>
</g>
</g>
<!-- Node24&#45;&gt;Node16 -->
<g id="edge27_Node000024_Node000016" class="edge">
<title>Node24&#45;&gt;Node16</title>
<g id="a_edge27_Node000024_Node000016"><a xlink:title=" ">
<path fill="none" stroke="#63b8ff" d="M190.5,-111.59C190.5,-105.01 190.5,-95.96 190.5,-87.73"/>
<polygon fill="#63b8ff" stroke="#63b8ff" points="194,-87.81 190.5,-77.81 187,-87.81 194,-87.81"/>
</a>
</g>
</g>
<!-- Node24&#45;&gt;Node17 -->
<g id="edge26_Node000024_Node000017" class="edge">
<title>Node24&#45;&gt;Node17</title>
<g id="a_edge26_Node000024_Node000017"><a xlink:title=" ">
<path fill="none" stroke="#63b8ff" d="M181.21,-111.62C162.95,-93.19 122.14,-52.01 98.78,-28.44"/>
<polygon fill="#63b8ff" stroke="#63b8ff" points="101.36,-26.07 91.84,-21.43 96.39,-31 101.36,-26.07"/>
</a>
</g>
</g>
<!-- Node25 -->
<g id="Node000025" class="node">
<title>Node25</title>
<g id="a_Node000025"><a xlink:title=" ">
<polygon fill="#e0e0e0" stroke="#999999" points="285,-76 230,-76 230,-56 285,-56 285,-76"/>
<text text-anchor="middle" x="257.5" y="-62.5" font-family="Helvetica,sans-Serif" font-size="10.00">wtypes.h</text>
</a>
</g>
</g>
<!-- Node24&#45;&gt;Node25 -->
<g id="edge25_Node000024_Node000025" class="edge">
<title>Node24&#45;&gt;Node25</title>
<g id="a_edge25_Node000024_Node000025"><a xlink:title=" ">
<path fill="none" stroke="#63b8ff" d="M202.17,-111.59C211.78,-103.85 225.63,-92.69 237.07,-83.47"/>
<polygon fill="#63b8ff" stroke="#63b8ff" points="239.2,-86.25 244.78,-77.25 234.8,-80.8 239.2,-86.25"/>
</a>
</g>
</g>
<!-- Node26&#45;&gt;Node16 -->
<g id="edge32_Node000026_Node000016" class="edge">
<title>Node26&#45;&gt;Node16</title>
<g id="a_edge32_Node000026_Node000016"><a xlink:title=" ">
<path fill="none" stroke="#63b8ff" d="M271.43,-111.59C256.62,-103.44 234.93,-91.48 217.73,-82"/>
<polygon fill="#63b8ff" stroke="#63b8ff" points="219.48,-78.97 209.03,-77.21 216.1,-85.1 219.48,-78.97"/>
</a>
</g>
</g>
<!-- Node26&#45;&gt;Node20 -->
<g id="edge31_Node000026_Node000020" class="edge">
<title>Node26&#45;&gt;Node20</title>
<g id="a_edge31_Node000026_Node000020"><a xlink:title=" ">
<path fill="none" stroke="#63b8ff" d="M292.16,-111.95C298.33,-97.83 312.17,-70.67 332.5,-56 377.62,-23.45 401,-35.13 457.37,-20.67"/>
<polygon fill="#63b8ff" stroke="#63b8ff" points="458.13,-24.09 466.84,-18.06 456.27,-17.35 458.13,-24.09"/>
</a>
</g>
</g>
<!-- Node26&#45;&gt;Node25 -->
<g id="edge29_Node000026_Node000025" class="edge">
<title>Node26&#45;&gt;Node25</title>
<g id="a_edge29_Node000026_Node000025"><a xlink:title=" ">
<path fill="none" stroke="#63b8ff" d="M283.1,-111.59C279.06,-104.55 273.38,-94.67 268.41,-86"/>
<polygon fill="#63b8ff" stroke="#63b8ff" points="271.61,-84.54 263.59,-77.61 265.53,-88.03 271.61,-84.54"/>
</a>
</g>
</g>
<!-- Node27 -->
<g id="Node000027" class="node">
<title>Node27</title>
<g id="a_Node000027"><a xlink:title=" ">
<polygon fill="#e0e0e0" stroke="#999999" points="375.88,-76 341.12,-76 341.12,-56 375.88,-56 375.88,-76"/>
<text text-anchor="middle" x="358.5" y="-62.5" font-family="Helvetica,sans-Serif" font-size="10.00">map</text>
</a>
</g>
</g>
<!-- Node26&#45;&gt;Node27 -->
<g id="edge30_Node000026_Node000027" class="edge">
<title>Node26&#45;&gt;Node27</title>
<g id="a_edge30_Node000026_Node000027"><a xlink:title=" ">
<path fill="none" stroke="#63b8ff" d="M300.69,-111.59C310.83,-103.77 325.49,-92.46 337.51,-83.19"/>
<polygon fill="#63b8ff" stroke="#63b8ff" points="339.47,-86.1 345.25,-77.22 335.19,-80.56 339.47,-86.1"/>
</a>
</g>
</g>
</g>
</svg>
