<?xml version="1.0" encoding="UTF-8" standalone="no"?>
<!DOCTYPE svg PUBLIC "-//W3C//DTD SVG 1.1//EN"
 "http://www.w3.org/Graphics/SVG/1.1/DTD/svg11.dtd">
<!-- Generated by graphviz version 9.0.0 (20230911.1827)
 -->
<!-- Title: wiNpoS&#45;Shared/HooksMgr.cpp Pages: 1 -->
<svg width="517pt" height="196pt"
 viewBox="0.00 0.00 517.38 196.00" xmlns="http://www.w3.org/2000/svg" xmlns:xlink="http://www.w3.org/1999/xlink">
<g id="graph0" class="graph" transform="scale(1 1) rotate(0) translate(4 192)">
<title>wiNpoS&#45;Shared/HooksMgr.cpp</title>
<!-- Node1 -->
<g id="Node000001" class="node">
<title>Node1</title>
<g id="a_Node000001"><a xlink:title=" ">
<polygon fill="#999999" stroke="#666666" points="288.38,-188 139.62,-188 139.62,-168 288.38,-168 288.38,-188"/>
<text text-anchor="middle" x="214" y="-174.5" font-family="Helvetica,sans-Serif" font-size="10.00">wiNpoS&#45;Shared/HooksMgr.cpp</text>
</a>
</g>
</g>
<!-- Node2 -->
<g id="Node000002" class="node">
<title>Node2</title>
<g id="a_Node000002"><a xlink:title=" ">
<polygon fill="#e0e0e0" stroke="#999999" points="42,-132 2,-132 2,-112 42,-112 42,-132"/>
<text text-anchor="middle" x="22" y="-118.5" font-family="Helvetica,sans-Serif" font-size="10.00">pch.h</text>
</a>
</g>
</g>
<!-- Node1&#45;&gt;Node2 -->
<g id="edge1_Node000001_Node000002" class="edge">
<title>Node1&#45;&gt;Node2</title>
<g id="a_edge1_Node000001_Node000002"><a xlink:title=" ">
<path fill="none" stroke="#63b8ff" d="M178.61,-167.58C147.8,-159.29 101.66,-146.71 53,-132.52"/>
<polygon fill="#63b8ff" stroke="#63b8ff" points="54.29,-129.25 43.71,-129.8 52.32,-135.97 54.29,-129.25"/>
</a>
</g>
</g>
<!-- Node3 -->
<g id="Node000003" class="node">
<title>Node3</title>
<g id="a_Node000003"><a xlink:href="_debug_new_8h.html" target="_top" xlink:title=" ">
<polygon fill="white" stroke="#666666" points="130.38,-132 59.62,-132 59.62,-112 130.38,-112 130.38,-132"/>
<text text-anchor="middle" x="95" y="-118.5" font-family="Helvetica,sans-Serif" font-size="10.00">DebugNew.h</text>
</a>
</g>
</g>
<!-- Node1&#45;&gt;Node3 -->
<g id="edge2_Node000001_Node000003" class="edge">
<title>Node1&#45;&gt;Node3</title>
<g id="a_edge2_Node000001_Node000003"><a xlink:title=" ">
<path fill="none" stroke="#63b8ff" d="M193.27,-167.59C174.79,-159.21 147.46,-146.8 126.31,-137.21"/>
<polygon fill="#63b8ff" stroke="#63b8ff" points="127.82,-134.05 117.27,-133.1 124.93,-140.42 127.82,-134.05"/>
</a>
</g>
</g>
<!-- Node4 -->
<g id="Node000004" class="node">
<title>Node4</title>
<g id="a_Node000004"><a xlink:href="_hooks_mgr_8h.html" target="_top" xlink:title=" ">
<polygon fill="white" stroke="#666666" points="217.25,-132 148.75,-132 148.75,-112 217.25,-112 217.25,-132"/>
<text text-anchor="middle" x="183" y="-118.5" font-family="Helvetica,sans-Serif" font-size="10.00">HooksMgr.h</text>
</a>
</g>
</g>
<!-- Node1&#45;&gt;Node4 -->
<g id="edge3_Node000001_Node000004" class="edge">
<title>Node1&#45;&gt;Node4</title>
<g id="a_edge3_Node000001_Node000004"><a xlink:title=" ">
<path fill="none" stroke="#63b8ff" d="M208.6,-167.59C204.56,-160.55 198.88,-150.67 193.91,-142"/>
<polygon fill="#63b8ff" stroke="#63b8ff" points="197.11,-140.54 189.09,-133.61 191.03,-144.03 197.11,-140.54"/>
</a>
</g>
</g>
<!-- Node5 -->
<g id="Node000005" class="node">
<title>Node5</title>
<g id="a_Node000005"><a xlink:href="_utils_8h.html" target="_top" xlink:title=" ">
<polygon fill="white" stroke="#666666" points="235.88,-76 192.12,-76 192.12,-56 235.88,-56 235.88,-76"/>
<text text-anchor="middle" x="214" y="-62.5" font-family="Helvetica,sans-Serif" font-size="10.00">Utils.h</text>
</a>
</g>
</g>
<!-- Node1&#45;&gt;Node5 -->
<g id="edge13_Node000001_Node000005" class="edge">
<title>Node1&#45;&gt;Node5</title>
<g id="a_edge13_Node000001_Node000005"><a xlink:title=" ">
<path fill="none" stroke="#63b8ff" d="M217.55,-167.79C221.97,-155.24 228.62,-132.03 226,-112 224.91,-103.69 222.74,-94.73 220.53,-87.01"/>
<polygon fill="#63b8ff" stroke="#63b8ff" points="223.93,-86.14 217.64,-77.61 217.24,-88.2 223.93,-86.14"/>
</a>
</g>
</g>
<!-- Node13 -->
<g id="Node000013" class="node">
<title>Node13</title>
<g id="a_Node000013"><a xlink:title=" ">
<polygon fill="#e0e0e0" stroke="#999999" points="313,-132 273,-132 273,-112 313,-112 313,-132"/>
<text text-anchor="middle" x="293" y="-118.5" font-family="Helvetica,sans-Serif" font-size="10.00">regex</text>
</a>
</g>
</g>
<!-- Node1&#45;&gt;Node13 -->
<g id="edge12_Node000001_Node000013" class="edge">
<title>Node1&#45;&gt;Node13</title>
<g id="a_edge12_Node000001_Node000013"><a xlink:title=" ">
<path fill="none" stroke="#63b8ff" d="M227.76,-167.59C239.36,-159.67 256.2,-148.16 269.86,-138.82"/>
<polygon fill="#63b8ff" stroke="#63b8ff" points="271.6,-141.87 277.88,-133.33 267.65,-136.09 271.6,-141.87"/>
</a>
</g>
</g>
<!-- Node14 -->
<g id="Node000014" class="node">
<title>Node14</title>
<g id="a_Node000014"><a xlink:title=" ">
<polygon fill="#e0e0e0" stroke="#999999" points="389,-132 331,-132 331,-112 389,-112 389,-132"/>
<text text-anchor="middle" x="360" y="-118.5" font-family="Helvetica,sans-Serif" font-size="10.00">Shlwapi.h</text>
</a>
</g>
</g>
<!-- Node1&#45;&gt;Node14 -->
<g id="edge14_Node000001_Node000014" class="edge">
<title>Node1&#45;&gt;Node14</title>
<g id="a_edge14_Node000001_Node000014"><a xlink:title=" ">
<path fill="none" stroke="#63b8ff" d="M239.43,-167.59C262.74,-158.97 297.5,-146.12 323.72,-136.42"/>
<polygon fill="#63b8ff" stroke="#63b8ff" points="324.79,-139.76 332.95,-133 322.36,-133.19 324.79,-139.76"/>
</a>
</g>
</g>
<!-- Node4&#45;&gt;Node5 -->
<g id="edge4_Node000004_Node000005" class="edge">
<title>Node4&#45;&gt;Node5</title>
<g id="a_edge4_Node000004_Node000005"><a xlink:title=" ">
<path fill="none" stroke="#63b8ff" d="M188.4,-111.59C192.44,-104.55 198.12,-94.67 203.09,-86"/>
<polygon fill="#63b8ff" stroke="#63b8ff" points="205.97,-88.03 207.91,-77.61 199.89,-84.54 205.97,-88.03"/>
</a>
</g>
</g>
<!-- Node6 -->
<g id="Node000006" class="node">
<title>Node6</title>
<g id="a_Node000006"><a xlink:title=" ">
<polygon fill="#e0e0e0" stroke="#999999" points="40,-20 0,-20 0,0 40,0 40,-20"/>
<text text-anchor="middle" x="20" y="-6.5" font-family="Helvetica,sans-Serif" font-size="10.00">string</text>
</a>
</g>
</g>
<!-- Node5&#45;&gt;Node6 -->
<g id="edge5_Node000005_Node000006" class="edge">
<title>Node5&#45;&gt;Node6</title>
<g id="a_edge5_Node000005_Node000006"><a xlink:title=" ">
<path fill="none" stroke="#63b8ff" d="M191.78,-59.2C161.95,-51.36 107.06,-36.74 51.08,-20.54"/>
<polygon fill="#63b8ff" stroke="#63b8ff" points="52.29,-17.24 41.71,-17.81 50.33,-23.96 52.29,-17.24"/>
</a>
</g>
</g>
<!-- Node7 -->
<g id="Node000007" class="node">
<title>Node7</title>
<g id="a_Node000007"><a xlink:title=" ">
<polygon fill="#e0e0e0" stroke="#999999" points="103.62,-20 58.38,-20 58.38,0 103.62,0 103.62,-20"/>
<text text-anchor="middle" x="81" y="-6.5" font-family="Helvetica,sans-Serif" font-size="10.00">xstring</text>
</a>
</g>
</g>
<!-- Node5&#45;&gt;Node7 -->
<g id="edge6_Node000005_Node000007" class="edge">
<title>Node5&#45;&gt;Node7</title>
<g id="a_edge6_Node000005_Node000007"><a xlink:title=" ">
<path fill="none" stroke="#63b8ff" d="M191.74,-55.96C170.58,-47.37 138.48,-34.34 114.28,-24.51"/>
<polygon fill="#63b8ff" stroke="#63b8ff" points="115.76,-21.34 105.18,-20.82 113.13,-27.82 115.76,-21.34"/>
</a>
</g>
</g>
<!-- Node8 -->
<g id="Node000008" class="node">
<title>Node8</title>
<g id="a_Node000008"><a xlink:title=" ">
<polygon fill="#e0e0e0" stroke="#999999" points="164.5,-20 121.5,-20 121.5,0 164.5,0 164.5,-20"/>
<text text-anchor="middle" x="143" y="-6.5" font-family="Helvetica,sans-Serif" font-size="10.00">format</text>
</a>
</g>
</g>
<!-- Node5&#45;&gt;Node8 -->
<g id="edge7_Node000005_Node000008" class="edge">
<title>Node5&#45;&gt;Node8</title>
<g id="a_edge7_Node000005_Node000008"><a xlink:title=" ">
<path fill="none" stroke="#63b8ff" d="M201.63,-55.59C191.35,-47.77 176.48,-36.46 164.29,-27.19"/>
<polygon fill="#63b8ff" stroke="#63b8ff" points="166.51,-24.48 156.43,-21.21 162.27,-30.05 166.51,-24.48"/>
</a>
</g>
</g>
<!-- Node9 -->
<g id="Node000009" class="node">
<title>Node9</title>
<g id="a_Node000009"><a xlink:title=" ">
<polygon fill="#e0e0e0" stroke="#999999" points="245.62,-20 182.38,-20 182.38,0 245.62,0 245.62,-20"/>
<text text-anchor="middle" x="214" y="-6.5" font-family="Helvetica,sans-Serif" font-size="10.00">debugapi.h</text>
</a>
</g>
</g>
<!-- Node5&#45;&gt;Node9 -->
<g id="edge8_Node000005_Node000009" class="edge">
<title>Node5&#45;&gt;Node9</title>
<g id="a_edge8_Node000005_Node000009"><a xlink:title=" ">
<path fill="none" stroke="#63b8ff" d="M214,-55.59C214,-49.01 214,-39.96 214,-31.73"/>
<polygon fill="#63b8ff" stroke="#63b8ff" points="217.5,-31.81 214,-21.81 210.5,-31.81 217.5,-31.81"/>
</a>
</g>
</g>
<!-- Node10 -->
<g id="Node000010" class="node">
<title>Node10</title>
<g id="a_Node000010"><a xlink:title=" ">
<polygon fill="#e0e0e0" stroke="#999999" points="304.75,-20 263.25,-20 263.25,0 304.75,0 304.75,-20"/>
<text text-anchor="middle" x="284" y="-6.5" font-family="Helvetica,sans-Serif" font-size="10.00">vector</text>
</a>
</g>
</g>
<!-- Node5&#45;&gt;Node10 -->
<g id="edge9_Node000005_Node000010" class="edge">
<title>Node5&#45;&gt;Node10</title>
<g id="a_edge9_Node000005_Node000010"><a xlink:title=" ">
<path fill="none" stroke="#63b8ff" d="M226.19,-55.59C236.33,-47.77 250.99,-36.46 263.01,-27.19"/>
<polygon fill="#63b8ff" stroke="#63b8ff" points="264.97,-30.1 270.75,-21.22 260.69,-24.56 264.97,-30.1"/>
</a>
</g>
</g>
<!-- Node11 -->
<g id="Node000011" class="node">
<title>Node11</title>
<g id="a_Node000011"><a xlink:title=" ">
<polygon fill="#e0e0e0" stroke="#999999" points="378.88,-20 323.12,-20 323.12,0 378.88,0 378.88,-20"/>
<text text-anchor="middle" x="351" y="-6.5" font-family="Helvetica,sans-Serif" font-size="10.00">algorithm</text>
</a>
</g>
</g>
<!-- Node5&#45;&gt;Node11 -->
<g id="edge10_Node000005_Node000011" class="edge">
<title>Node5&#45;&gt;Node11</title>
<g id="a_edge10_Node000005_Node000011"><a xlink:title=" ">
<path fill="none" stroke="#63b8ff" d="M236.32,-56.2C258.11,-47.61 291.58,-34.42 316.75,-24.5"/>
<polygon fill="#63b8ff" stroke="#63b8ff" points="317.89,-27.81 325.91,-20.89 315.32,-21.3 317.89,-27.81"/>
</a>
</g>
</g>
<!-- Node12 -->
<g id="Node000012" class="node">
<title>Node12</title>
<g id="a_Node000012"><a xlink:title=" ">
<polygon fill="#e0e0e0" stroke="#999999" points="509.38,-20 396.62,-20 396.62,0 509.38,0 509.38,-20"/>
<text text-anchor="middle" x="453" y="-6.5" font-family="Helvetica,sans-Serif" font-size="10.00">vcruntime_exception.h</text>
</a>
</g>
</g>
<!-- Node5&#45;&gt;Node12 -->
<g id="edge11_Node000005_Node000012" class="edge">
<title>Node5&#45;&gt;Node12</title>
<g id="a_edge11_Node000005_Node000012"><a xlink:title=" ">
<path fill="none" stroke="#63b8ff" d="M236.06,-60.02C273.01,-51.67 348.45,-34.62 399.87,-23"/>
<polygon fill="#63b8ff" stroke="#63b8ff" points="400.64,-26.42 409.62,-20.8 399.09,-19.59 400.64,-26.42"/>
</a>
</g>
</g>
</g>
</svg>
