<?xml version="1.0" encoding="UTF-8" standalone="no"?>
<!DOCTYPE svg PUBLIC "-//W3C//DTD SVG 1.1//EN"
 "http://www.w3.org/Graphics/SVG/1.1/DTD/svg11.dtd">
<!-- Generated by graphviz version 8.1.0 (20230707.0739)
 -->
<!-- Title: wiNpoS&#45;Hook/HooksImpl.h Pages: 1 -->
<svg width="636pt" height="252pt"
 viewBox="0.00 0.00 635.88 252.00" xmlns="http://www.w3.org/2000/svg" xmlns:xlink="http://www.w3.org/1999/xlink">
<g id="graph0" class="graph" transform="scale(1 1) rotate(0) translate(4 248)">
<title>wiNpoS&#45;Hook/HooksImpl.h</title>
<!-- Node1 -->
<g id="Node000001" class="node">
<title>Node1</title>
<g id="a_Node000001"><a xlink:title=" ">
<polygon fill="#999999" stroke="#666666" points="204.25,-244 72.75,-244 72.75,-224 204.25,-224 204.25,-244"/>
<text text-anchor="middle" x="138.5" y="-230.5" font-family="Helvetica,sans-Serif" font-size="10.00">wiNpoS&#45;Hook/HooksImpl.h</text>
</a>
</g>
</g>
<!-- Node2 -->
<g id="Node000002" class="node">
<title>Node2</title>
<g id="a_Node000002"><a xlink:href="_win_pos_wnd_8h.html" target="_top" xlink:title=" ">
<polygon fill="white" stroke="#666666" points="178,-188 99,-188 99,-168 178,-168 178,-188"/>
<text text-anchor="middle" x="138.5" y="-174.5" font-family="Helvetica,sans-Serif" font-size="10.00">WinPosWnd.h</text>
</a>
</g>
</g>
<!-- Node1&#45;&gt;Node2 -->
<g id="edge1_Node000001_Node000002" class="edge">
<title>Node1&#45;&gt;Node2</title>
<g id="a_edge1_Node000001_Node000002"><a xlink:title=" ">
<path fill="none" stroke="#63b8ff" d="M138.5,-223.59C138.5,-216.86 138.5,-207.53 138.5,-199.15"/>
<polygon fill="#63b8ff" stroke="#63b8ff" points="142,-199.3 138.5,-189.3 135,-199.3 142,-199.3"/>
</a>
</g>
</g>
<!-- Node3 -->
<g id="Node000003" class="node">
<title>Node3</title>
<g id="a_Node000003"><a xlink:title=" ">
<polygon fill="#e0e0e0" stroke="#999999" points="55,-76 0,-76 0,-56 55,-56 55,-76"/>
<text text-anchor="middle" x="27.5" y="-62.5" font-family="Helvetica,sans-Serif" font-size="10.00">wtypes.h</text>
</a>
</g>
</g>
<!-- Node2&#45;&gt;Node3 -->
<g id="edge2_Node000002_Node000003" class="edge">
<title>Node2&#45;&gt;Node3</title>
<g id="a_edge2_Node000002_Node000003"><a xlink:title=" ">
<path fill="none" stroke="#63b8ff" d="M122.43,-167.52C109.03,-159.16 89.87,-146.14 75.5,-132 61.02,-117.75 47.56,-98.81 38.6,-85.06"/>
<polygon fill="#63b8ff" stroke="#63b8ff" points="41.23,-83.67 32.92,-77.1 35.32,-87.42 41.23,-83.67"/>
</a>
</g>
</g>
<!-- Node4 -->
<g id="Node000004" class="node">
<title>Node4</title>
<g id="a_Node000004"><a xlink:title=" ">
<polygon fill="#e0e0e0" stroke="#999999" points="109.88,-76 75.12,-76 75.12,-56 109.88,-56 109.88,-76"/>
<text text-anchor="middle" x="92.5" y="-62.5" font-family="Helvetica,sans-Serif" font-size="10.00">map</text>
</a>
</g>
</g>
<!-- Node2&#45;&gt;Node4 -->
<g id="edge3_Node000002_Node000004" class="edge">
<title>Node2&#45;&gt;Node4</title>
<g id="a_edge3_Node000002_Node000004"><a xlink:title=" ">
<path fill="none" stroke="#63b8ff" d="M119.35,-167.52C106.32,-159.9 90.1,-147.86 82.5,-132 75.64,-117.68 79.18,-99.74 83.85,-86.33"/>
<polygon fill="#63b8ff" stroke="#63b8ff" points="87.39,-87.91 87.83,-77.32 80.89,-85.32 87.39,-87.91"/>
</a>
</g>
</g>
<!-- Node5 -->
<g id="Node000005" class="node">
<title>Node5</title>
<g id="a_Node000005"><a xlink:title=" ">
<polygon fill="#e0e0e0" stroke="#999999" points="159.25,-20 117.75,-20 117.75,0 159.25,0 159.25,-20"/>
<text text-anchor="middle" x="138.5" y="-6.5" font-family="Helvetica,sans-Serif" font-size="10.00">vector</text>
</a>
</g>
</g>
<!-- Node2&#45;&gt;Node5 -->
<g id="edge4_Node000002_Node000005" class="edge">
<title>Node2&#45;&gt;Node5</title>
<g id="a_edge4_Node000002_Node000005"><a xlink:title=" ">
<path fill="none" stroke="#63b8ff" d="M157.65,-167.52C170.68,-159.9 186.9,-147.86 194.5,-132 198.34,-123.98 196.73,-120.61 194.5,-112 186.34,-80.45 165.97,-48.25 152.18,-28.94"/>
<polygon fill="#63b8ff" stroke="#63b8ff" points="154.59,-27.31 145.84,-21.32 148.95,-31.45 154.59,-27.31"/>
</a>
</g>
</g>
<!-- Node6 -->
<g id="Node000006" class="node">
<title>Node6</title>
<g id="a_Node000006"><a xlink:href="_utils_8h.html" target="_top" xlink:title=" ">
<polygon fill="white" stroke="#666666" points="285.38,-76 241.62,-76 241.62,-56 285.38,-56 285.38,-76"/>
<text text-anchor="middle" x="263.5" y="-62.5" font-family="Helvetica,sans-Serif" font-size="10.00">Utils.h</text>
</a>
</g>
</g>
<!-- Node2&#45;&gt;Node6 -->
<g id="edge5_Node000002_Node000006" class="edge">
<title>Node2&#45;&gt;Node6</title>
<g id="a_edge5_Node000002_Node000006"><a xlink:title=" ">
<path fill="none" stroke="#63b8ff" d="M167.24,-167.54C186.13,-160.18 210.41,-148.45 227.5,-132 240.84,-119.15 250.55,-100.26 256.49,-86.15"/>
<polygon fill="#63b8ff" stroke="#63b8ff" points="260.05,-87.66 260.45,-77.07 253.54,-85.1 260.05,-87.66"/>
</a>
</g>
</g>
<!-- Node13 -->
<g id="Node000013" class="node">
<title>Node13</title>
<g id="a_Node000013"><a xlink:href="_win_pos_wnd_cfg_8h.html" target="_top" xlink:title=" ">
<polygon fill="white" stroke="#666666" points="185.12,-132 91.88,-132 91.88,-112 185.12,-112 185.12,-132"/>
<text text-anchor="middle" x="138.5" y="-118.5" font-family="Helvetica,sans-Serif" font-size="10.00">WinPosWndCfg.h</text>
</a>
</g>
</g>
<!-- Node2&#45;&gt;Node13 -->
<g id="edge13_Node000002_Node000013" class="edge">
<title>Node2&#45;&gt;Node13</title>
<g id="a_edge13_Node000002_Node000013"><a xlink:title=" ">
<path fill="none" stroke="#63b8ff" d="M138.5,-167.59C138.5,-160.86 138.5,-151.53 138.5,-143.15"/>
<polygon fill="#63b8ff" stroke="#63b8ff" points="142,-143.3 138.5,-133.3 135,-143.3 142,-143.3"/>
</a>
</g>
</g>
<!-- Node6&#45;&gt;Node5 -->
<g id="edge10_Node000006_Node000005" class="edge">
<title>Node6&#45;&gt;Node5</title>
<g id="a_edge10_Node000006_Node000005"><a xlink:title=" ">
<path fill="none" stroke="#63b8ff" d="M241.73,-55.59C221.8,-46.99 192.09,-34.15 169.65,-24.46"/>
<polygon fill="#63b8ff" stroke="#63b8ff" points="171.18,-20.87 160.61,-20.12 168.4,-27.3 171.18,-20.87"/>
</a>
</g>
</g>
<!-- Node7 -->
<g id="Node000007" class="node">
<title>Node7</title>
<g id="a_Node000007"><a xlink:title=" ">
<polygon fill="#e0e0e0" stroke="#999999" points="217.5,-20 177.5,-20 177.5,0 217.5,0 217.5,-20"/>
<text text-anchor="middle" x="197.5" y="-6.5" font-family="Helvetica,sans-Serif" font-size="10.00">string</text>
</a>
</g>
</g>
<!-- Node6&#45;&gt;Node7 -->
<g id="edge6_Node000006_Node000007" class="edge">
<title>Node6&#45;&gt;Node7</title>
<g id="a_edge6_Node000006_Node000007"><a xlink:title=" ">
<path fill="none" stroke="#63b8ff" d="M252,-55.59C242.45,-47.77 228.62,-36.46 217.29,-27.19"/>
<polygon fill="#63b8ff" stroke="#63b8ff" points="219.82,-23.92 209.86,-20.3 215.39,-29.34 219.82,-23.92"/>
</a>
</g>
</g>
<!-- Node8 -->
<g id="Node000008" class="node">
<title>Node8</title>
<g id="a_Node000008"><a xlink:title=" ">
<polygon fill="#e0e0e0" stroke="#999999" points="281.12,-20 235.88,-20 235.88,0 281.12,0 281.12,-20"/>
<text text-anchor="middle" x="258.5" y="-6.5" font-family="Helvetica,sans-Serif" font-size="10.00">xstring</text>
</a>
</g>
</g>
<!-- Node6&#45;&gt;Node8 -->
<g id="edge7_Node000006_Node000008" class="edge">
<title>Node6&#45;&gt;Node8</title>
<g id="a_edge7_Node000006_Node000008"><a xlink:title=" ">
<path fill="none" stroke="#63b8ff" d="M262.63,-55.59C262.01,-48.86 261.14,-39.53 260.37,-31.15"/>
<polygon fill="#63b8ff" stroke="#63b8ff" points="263.77,-30.93 259.36,-21.3 256.8,-31.58 263.77,-30.93"/>
</a>
</g>
</g>
<!-- Node9 -->
<g id="Node000009" class="node">
<title>Node9</title>
<g id="a_Node000009"><a xlink:title=" ">
<polygon fill="#e0e0e0" stroke="#999999" points="342,-20 299,-20 299,0 342,0 342,-20"/>
<text text-anchor="middle" x="320.5" y="-6.5" font-family="Helvetica,sans-Serif" font-size="10.00">format</text>
</a>
</g>
</g>
<!-- Node6&#45;&gt;Node9 -->
<g id="edge8_Node000006_Node000009" class="edge">
<title>Node6&#45;&gt;Node9</title>
<g id="a_edge8_Node000006_Node000009"><a xlink:title=" ">
<path fill="none" stroke="#63b8ff" d="M273.43,-55.59C281.52,-47.93 293.15,-36.91 302.82,-27.75"/>
<polygon fill="#63b8ff" stroke="#63b8ff" points="304.83,-30.72 309.69,-21.3 300.02,-25.63 304.83,-30.72"/>
</a>
</g>
</g>
<!-- Node10 -->
<g id="Node000010" class="node">
<title>Node10</title>
<g id="a_Node000010"><a xlink:title=" ">
<polygon fill="#e0e0e0" stroke="#999999" points="423.12,-20 359.88,-20 359.88,0 423.12,0 423.12,-20"/>
<text text-anchor="middle" x="391.5" y="-6.5" font-family="Helvetica,sans-Serif" font-size="10.00">debugapi.h</text>
</a>
</g>
</g>
<!-- Node6&#45;&gt;Node10 -->
<g id="edge9_Node000006_Node000010" class="edge">
<title>Node6&#45;&gt;Node10</title>
<g id="a_edge9_Node000006_Node000010"><a xlink:title=" ">
<path fill="none" stroke="#63b8ff" d="M285.8,-55.59C306.04,-47.05 336.16,-34.35 359.07,-24.68"/>
<polygon fill="#63b8ff" stroke="#63b8ff" points="360.18,-27.59 368.03,-20.48 357.46,-21.14 360.18,-27.59"/>
</a>
</g>
</g>
<!-- Node11 -->
<g id="Node000011" class="node">
<title>Node11</title>
<g id="a_Node000011"><a xlink:title=" ">
<polygon fill="#e0e0e0" stroke="#999999" points="497.38,-20 441.62,-20 441.62,0 497.38,0 497.38,-20"/>
<text text-anchor="middle" x="469.5" y="-6.5" font-family="Helvetica,sans-Serif" font-size="10.00">algorithm</text>
</a>
</g>
</g>
<!-- Node6&#45;&gt;Node11 -->
<g id="edge11_Node000006_Node000011" class="edge">
<title>Node6&#45;&gt;Node11</title>
<g id="a_edge11_Node000006_Node000011"><a xlink:title=" ">
<path fill="none" stroke="#63b8ff" d="M285.55,-59.22C320.21,-50.14 387.9,-32.39 430.8,-21.14"/>
<polygon fill="#63b8ff" stroke="#63b8ff" points="431.62,-24.29 440.4,-18.37 429.84,-17.52 431.62,-24.29"/>
</a>
</g>
</g>
<!-- Node12 -->
<g id="Node000012" class="node">
<title>Node12</title>
<g id="a_Node000012"><a xlink:title=" ">
<polygon fill="#e0e0e0" stroke="#999999" points="627.88,-20 515.12,-20 515.12,0 627.88,0 627.88,-20"/>
<text text-anchor="middle" x="571.5" y="-6.5" font-family="Helvetica,sans-Serif" font-size="10.00">vcruntime_exception.h</text>
</a>
</g>
</g>
<!-- Node6&#45;&gt;Node12 -->
<g id="edge12_Node000006_Node000012" class="edge">
<title>Node6&#45;&gt;Node12</title>
<g id="a_edge12_Node000006_Node000012"><a xlink:title=" ">
<path fill="none" stroke="#63b8ff" d="M285.65,-61.12C331.28,-53.12 437.27,-34.53 506.58,-22.38"/>
<polygon fill="#63b8ff" stroke="#63b8ff" points="507.13,-25.66 516.37,-20.49 505.92,-18.77 507.13,-25.66"/>
</a>
</g>
</g>
<!-- Node13&#45;&gt;Node3 -->
<g id="edge14_Node000013_Node000003" class="edge">
<title>Node13&#45;&gt;Node3</title>
<g id="a_edge14_Node000013_Node000003"><a xlink:title=" ">
<path fill="none" stroke="#63b8ff" d="M119.17,-111.59C101.92,-103.21 76.43,-90.8 56.7,-81.21"/>
<polygon fill="#63b8ff" stroke="#63b8ff" points="58.51,-77.71 47.99,-76.48 55.45,-84 58.51,-77.71"/>
</a>
</g>
</g>
<!-- Node13&#45;&gt;Node4 -->
<g id="edge15_Node000013_Node000004" class="edge">
<title>Node13&#45;&gt;Node4</title>
<g id="a_edge15_Node000013_Node000004"><a xlink:title=" ">
<path fill="none" stroke="#63b8ff" d="M130.49,-111.59C124.16,-104.16 115.14,-93.58 107.48,-84.58"/>
<polygon fill="#63b8ff" stroke="#63b8ff" points="109.57,-82.64 100.42,-77.3 104.24,-87.18 109.57,-82.64"/>
</a>
</g>
</g>
<!-- Node13&#45;&gt;Node5 -->
<g id="edge16_Node000013_Node000005" class="edge">
<title>Node13&#45;&gt;Node5</title>
<g id="a_edge16_Node000013_Node000005"><a xlink:title=" ">
<path fill="none" stroke="#63b8ff" d="M138.5,-111.62C138.5,-93.92 138.5,-55.24 138.5,-31.32"/>
<polygon fill="#63b8ff" stroke="#63b8ff" points="142,-31.35 138.5,-21.35 135,-31.35 142,-31.35"/>
</a>
</g>
</g>
<!-- Node13&#45;&gt;Node6 -->
<g id="edge17_Node000013_Node000006" class="edge">
<title>Node13&#45;&gt;Node6</title>
<g id="a_edge17_Node000013_Node000006"><a xlink:title=" ">
<path fill="none" stroke="#63b8ff" d="M160.27,-111.59C179.96,-103.09 209.19,-90.46 231.53,-80.81"/>
<polygon fill="#63b8ff" stroke="#63b8ff" points="232.76,-83.66 240.56,-76.48 229.99,-77.23 232.76,-83.66"/>
</a>
</g>
</g>
</g>
</svg>
