<?xml version="1.0" encoding="UTF-8" standalone="no"?>
<!DOCTYPE svg PUBLIC "-//W3C//DTD SVG 1.1//EN"
 "http://www.w3.org/Graphics/SVG/1.1/DTD/svg11.dtd">
<!-- Generated by graphviz version 9.0.0 (20230911.1827)
 -->
<!-- Title: wiNpoS&#45;Shared/HooksCfg.h Pages: 1 -->
<svg width="476pt" height="84pt"
 viewBox="0.00 0.00 476.38 84.00" xmlns="http://www.w3.org/2000/svg" xmlns:xlink="http://www.w3.org/1999/xlink">
<g id="graph0" class="graph" transform="scale(1 1) rotate(0) translate(4 80)">
<title>wiNpoS&#45;Shared/HooksCfg.h</title>
<!-- Node1 -->
<g id="Node000001" class="node">
<title>Node1</title>
<g id="a_Node000001"><a xlink:title=" ">
<polygon fill="#999999" stroke="#666666" points="301.12,-76 165.12,-76 165.12,-56 301.12,-56 301.12,-76"/>
<text text-anchor="middle" x="233.12" y="-62.5" font-family="Helvetica,sans-Serif" font-size="10.00">wiNpoS&#45;Shared/HooksCfg.h</text>
</a>
</g>
</g>
<!-- Node2 -->
<g id="Node000002" class="node">
<title>Node2</title>
<g id="a_Node000002"><a xlink:href="wi_npo_s-_app_8cpp.html" target="_top" xlink:title=" ">
<polygon fill="white" stroke="#666666" points="144.25,-20 0,-20 0,0 144.25,0 144.25,-20"/>
<text text-anchor="middle" x="72.12" y="-6.5" font-family="Helvetica,sans-Serif" font-size="10.00">wiNpoS&#45;App/wiNpoS&#45;App.cpp</text>
</a>
</g>
</g>
<!-- Node1&#45;&gt;Node2 -->
<g id="edge1_Node000001_Node000002" class="edge">
<title>Node1&#45;&gt;Node2</title>
<g id="a_edge1_Node000001_Node000002"><a xlink:title=" ">
<path fill="none" stroke="#63b8ff" d="M194.51,-52.05C165.53,-42.33 126.5,-29.24 100.39,-20.48"/>
<polygon fill="#63b8ff" stroke="#63b8ff" points="193.05,-55.25 203.65,-55.11 195.28,-48.61 193.05,-55.25"/>
</a>
</g>
</g>
<!-- Node3 -->
<g id="Node000003" class="node">
<title>Node3</title>
<g id="a_Node000003"><a xlink:href="_hooks_impl_8cpp.html" target="_top" xlink:title=" ">
<polygon fill="white" stroke="#666666" points="304.12,-20 162.12,-20 162.12,0 304.12,0 304.12,-20"/>
<text text-anchor="middle" x="233.12" y="-6.5" font-family="Helvetica,sans-Serif" font-size="10.00">wiNpoS&#45;Hook/HooksImpl.cpp</text>
</a>
</g>
</g>
<!-- Node1&#45;&gt;Node3 -->
<g id="edge2_Node000001_Node000003" class="edge">
<title>Node1&#45;&gt;Node3</title>
<g id="a_edge2_Node000001_Node000003"><a xlink:title=" ">
<path fill="none" stroke="#63b8ff" d="M233.12,-44.13C233.12,-35.9 233.12,-26.85 233.12,-20.3"/>
<polygon fill="#63b8ff" stroke="#63b8ff" points="229.63,-44.08 233.13,-54.08 236.63,-44.08 229.63,-44.08"/>
</a>
</g>
</g>
<!-- Node4 -->
<g id="Node000004" class="node">
<title>Node4</title>
<g id="a_Node000004"><a xlink:href="_hooks_cfg_8cpp.html" target="_top" xlink:title=" ">
<polygon fill="white" stroke="#666666" points="468.38,-20 321.88,-20 321.88,0 468.38,0 468.38,-20"/>
<text text-anchor="middle" x="395.12" y="-6.5" font-family="Helvetica,sans-Serif" font-size="10.00">wiNpoS&#45;Shared/HooksCfg.cpp</text>
</a>
</g>
</g>
<!-- Node1&#45;&gt;Node4 -->
<g id="edge3_Node000001_Node000004" class="edge">
<title>Node1&#45;&gt;Node4</title>
<g id="a_edge3_Node000001_Node000004"><a xlink:title=" ">
<path fill="none" stroke="#63b8ff" d="M271.98,-52.05C301.14,-42.33 340.41,-29.24 366.69,-20.48"/>
<polygon fill="#63b8ff" stroke="#63b8ff" points="271.16,-48.63 262.78,-55.12 273.37,-55.27 271.16,-48.63"/>
</a>
</g>
</g>
</g>
</svg>
