<?xml version="1.0" encoding="UTF-8" standalone="no"?>
<!DOCTYPE svg PUBLIC "-//W3C//DTD SVG 1.1//EN"
 "http://www.w3.org/Graphics/SVG/1.1/DTD/svg11.dtd">
<!-- Generated by graphviz version 8.1.0 (20230707.0739)
 -->
<!-- Title: wiNpoS&#45;Shared/HooksCfg.h Pages: 1 -->
<svg width="545pt" height="140pt"
 viewBox="0.00 0.00 544.88 140.00" xmlns="http://www.w3.org/2000/svg" xmlns:xlink="http://www.w3.org/1999/xlink">
<g id="graph0" class="graph" transform="scale(1 1) rotate(0) translate(4 136)">
<title>wiNpoS&#45;Shared/HooksCfg.h</title>
<!-- Node1 -->
<g id="Node000001" class="node">
<title>Node1</title>
<g id="a_Node000001"><a xlink:title=" ">
<polygon fill="#999999" stroke="#666666" points="151.5,-132 15.5,-132 15.5,-112 151.5,-112 151.5,-132"/>
<text text-anchor="middle" x="83.5" y="-118.5" font-family="Helvetica,sans-Serif" font-size="10.00">wiNpoS&#45;Shared/HooksCfg.h</text>
</a>
</g>
</g>
<!-- Node2 -->
<g id="Node000002" class="node">
<title>Node2</title>
<g id="a_Node000002"><a xlink:title=" ">
<polygon fill="#e0e0e0" stroke="#999999" points="55,-76 0,-76 0,-56 55,-56 55,-76"/>
<text text-anchor="middle" x="27.5" y="-62.5" font-family="Helvetica,sans-Serif" font-size="10.00">wtypes.h</text>
</a>
</g>
</g>
<!-- Node1&#45;&gt;Node2 -->
<g id="edge1_Node000001_Node000002" class="edge">
<title>Node1&#45;&gt;Node2</title>
<g id="a_edge1_Node000001_Node000002"><a xlink:title=" ">
<path fill="none" stroke="#63b8ff" d="M73.75,-111.59C65.8,-103.93 54.37,-92.91 44.87,-83.75"/>
<polygon fill="#63b8ff" stroke="#63b8ff" points="47.77,-81.72 38.14,-77.3 42.91,-86.76 47.77,-81.72"/>
</a>
</g>
</g>
<!-- Node3 -->
<g id="Node000003" class="node">
<title>Node3</title>
<g id="a_Node000003"><a xlink:title=" ">
<polygon fill="#e0e0e0" stroke="#999999" points="67.5,-20 27.5,-20 27.5,0 67.5,0 67.5,-20"/>
<text text-anchor="middle" x="47.5" y="-6.5" font-family="Helvetica,sans-Serif" font-size="10.00">string</text>
</a>
</g>
</g>
<!-- Node1&#45;&gt;Node3 -->
<g id="edge2_Node000001_Node000003" class="edge">
<title>Node1&#45;&gt;Node3</title>
<g id="a_edge2_Node000001_Node000003"><a xlink:title=" ">
<path fill="none" stroke="#63b8ff" d="M80.78,-111.7C77.04,-99.05 70.04,-75.72 63.5,-56 60.7,-47.55 57.43,-38.27 54.58,-30.34"/>
<polygon fill="#63b8ff" stroke="#63b8ff" points="57.63,-29.47 50.93,-21.27 51.05,-31.86 57.63,-29.47"/>
</a>
</g>
</g>
<!-- Node4 -->
<g id="Node000004" class="node">
<title>Node4</title>
<g id="a_Node000004"><a xlink:href="_utils_8h.html" target="_top" xlink:title=" ">
<polygon fill="white" stroke="#666666" points="227.38,-76 183.62,-76 183.62,-56 227.38,-56 227.38,-76"/>
<text text-anchor="middle" x="205.5" y="-62.5" font-family="Helvetica,sans-Serif" font-size="10.00">Utils.h</text>
</a>
</g>
</g>
<!-- Node1&#45;&gt;Node4 -->
<g id="edge3_Node000001_Node000004" class="edge">
<title>Node1&#45;&gt;Node4</title>
<g id="a_edge3_Node000001_Node000004"><a xlink:title=" ">
<path fill="none" stroke="#63b8ff" d="M104.75,-111.59C123.96,-103.09 152.5,-90.46 174.3,-80.81"/>
<polygon fill="#63b8ff" stroke="#63b8ff" points="175.36,-83.73 183.08,-76.48 172.52,-77.33 175.36,-83.73"/>
</a>
</g>
</g>
<!-- Node4&#45;&gt;Node3 -->
<g id="edge4_Node000004_Node000003" class="edge">
<title>Node4&#45;&gt;Node3</title>
<g id="a_edge4_Node000004_Node000003"><a xlink:title=" ">
<path fill="none" stroke="#63b8ff" d="M183.2,-57.38C155.65,-47.96 108.67,-31.91 77.85,-21.37"/>
<polygon fill="#63b8ff" stroke="#63b8ff" points="79.28,-17.82 68.69,-17.9 77.02,-24.45 79.28,-17.82"/>
</a>
</g>
</g>
<!-- Node5 -->
<g id="Node000005" class="node">
<title>Node5</title>
<g id="a_Node000005"><a xlink:title=" ">
<polygon fill="#e0e0e0" stroke="#999999" points="131.12,-20 85.88,-20 85.88,0 131.12,0 131.12,-20"/>
<text text-anchor="middle" x="108.5" y="-6.5" font-family="Helvetica,sans-Serif" font-size="10.00">xstring</text>
</a>
</g>
</g>
<!-- Node4&#45;&gt;Node5 -->
<g id="edge5_Node000004_Node000005" class="edge">
<title>Node4&#45;&gt;Node5</title>
<g id="a_edge5_Node000004_Node000005"><a xlink:title=" ">
<path fill="none" stroke="#63b8ff" d="M188.6,-55.59C173.81,-47.36 152.07,-35.26 134.97,-25.74"/>
<polygon fill="#63b8ff" stroke="#63b8ff" points="136.97,-22.29 126.53,-20.48 133.56,-28.4 136.97,-22.29"/>
</a>
</g>
</g>
<!-- Node6 -->
<g id="Node000006" class="node">
<title>Node6</title>
<g id="a_Node000006"><a xlink:title=" ">
<polygon fill="#e0e0e0" stroke="#999999" points="192,-20 149,-20 149,0 192,0 192,-20"/>
<text text-anchor="middle" x="170.5" y="-6.5" font-family="Helvetica,sans-Serif" font-size="10.00">format</text>
</a>
</g>
</g>
<!-- Node4&#45;&gt;Node6 -->
<g id="edge6_Node000004_Node000006" class="edge">
<title>Node4&#45;&gt;Node6</title>
<g id="a_edge6_Node000004_Node000006"><a xlink:title=" ">
<path fill="none" stroke="#63b8ff" d="M199.4,-55.59C194.74,-48.39 188.15,-38.23 182.45,-29.43"/>
<polygon fill="#63b8ff" stroke="#63b8ff" points="184.9,-27.79 176.53,-21.3 179.03,-31.59 184.9,-27.79"/>
</a>
</g>
</g>
<!-- Node7 -->
<g id="Node000007" class="node">
<title>Node7</title>
<g id="a_Node000007"><a xlink:title=" ">
<polygon fill="#e0e0e0" stroke="#999999" points="273.12,-20 209.88,-20 209.88,0 273.12,0 273.12,-20"/>
<text text-anchor="middle" x="241.5" y="-6.5" font-family="Helvetica,sans-Serif" font-size="10.00">debugapi.h</text>
</a>
</g>
</g>
<!-- Node4&#45;&gt;Node7 -->
<g id="edge7_Node000004_Node000007" class="edge">
<title>Node4&#45;&gt;Node7</title>
<g id="a_edge7_Node000004_Node000007"><a xlink:title=" ">
<path fill="none" stroke="#63b8ff" d="M211.77,-55.59C216.57,-48.39 223.34,-38.23 229.21,-29.43"/>
<polygon fill="#63b8ff" stroke="#63b8ff" points="232.67,-31.56 235.3,-21.3 226.84,-27.68 232.67,-31.56"/>
</a>
</g>
</g>
<!-- Node8 -->
<g id="Node000008" class="node">
<title>Node8</title>
<g id="a_Node000008"><a xlink:title=" ">
<polygon fill="#e0e0e0" stroke="#999999" points="332.25,-20 290.75,-20 290.75,0 332.25,0 332.25,-20"/>
<text text-anchor="middle" x="311.5" y="-6.5" font-family="Helvetica,sans-Serif" font-size="10.00">vector</text>
</a>
</g>
</g>
<!-- Node4&#45;&gt;Node8 -->
<g id="edge8_Node000004_Node000008" class="edge">
<title>Node4&#45;&gt;Node8</title>
<g id="a_edge8_Node000004_Node000008"><a xlink:title=" ">
<path fill="none" stroke="#63b8ff" d="M223.96,-55.59C240.28,-47.28 264.33,-35.03 283.09,-25.47"/>
<polygon fill="#63b8ff" stroke="#63b8ff" points="284.57,-28.14 291.89,-20.48 281.39,-21.9 284.57,-28.14"/>
</a>
</g>
</g>
<!-- Node9 -->
<g id="Node000009" class="node">
<title>Node9</title>
<g id="a_Node000009"><a xlink:title=" ">
<polygon fill="#e0e0e0" stroke="#999999" points="406.38,-20 350.62,-20 350.62,0 406.38,0 406.38,-20"/>
<text text-anchor="middle" x="378.5" y="-6.5" font-family="Helvetica,sans-Serif" font-size="10.00">algorithm</text>
</a>
</g>
</g>
<!-- Node4&#45;&gt;Node9 -->
<g id="edge9_Node000004_Node000009" class="edge">
<title>Node4&#45;&gt;Node9</title>
<g id="a_edge9_Node000004_Node000009"><a xlink:title=" ">
<path fill="none" stroke="#63b8ff" d="M227.76,-58.05C256.13,-49.2 305.61,-33.75 340.12,-22.98"/>
<polygon fill="#63b8ff" stroke="#63b8ff" points="340.8,-26.12 349.3,-19.8 338.72,-19.44 340.8,-26.12"/>
</a>
</g>
</g>
<!-- Node10 -->
<g id="Node000010" class="node">
<title>Node10</title>
<g id="a_Node000010"><a xlink:title=" ">
<polygon fill="#e0e0e0" stroke="#999999" points="536.88,-20 424.12,-20 424.12,0 536.88,0 536.88,-20"/>
<text text-anchor="middle" x="480.5" y="-6.5" font-family="Helvetica,sans-Serif" font-size="10.00">vcruntime_exception.h</text>
</a>
</g>
</g>
<!-- Node4&#45;&gt;Node10 -->
<g id="edge10_Node000004_Node000010" class="edge">
<title>Node4&#45;&gt;Node10</title>
<g id="a_edge10_Node000004_Node000010"><a xlink:title=" ">
<path fill="none" stroke="#63b8ff" d="M227.54,-60.67C269.2,-52.49 360.77,-34.51 421.54,-22.58"/>
<polygon fill="#63b8ff" stroke="#63b8ff" points="422,-25.86 431.14,-20.5 420.65,-18.99 422,-25.86"/>
</a>
</g>
</g>
</g>
</svg>
