<?xml version="1.0" encoding="UTF-8" standalone="no"?>
<!DOCTYPE svg PUBLIC "-//W3C//DTD SVG 1.1//EN"
 "http://www.w3.org/Graphics/SVG/1.1/DTD/svg11.dtd">
<!-- Generated by graphviz version 8.1.0 (20230707.0739)
 -->
<!-- Title: wiNpoS&#45;Shared/HooksCfg.cpp Pages: 1 -->
<!--zoomable 196 -->

<svg id="main" version="1.1" xmlns="http://www.w3.org/2000/svg" xmlns:xlink="http://www.w3.org/1999/xlink" xml:space="preserve" onload="init(evt)">
<style type="text/css"><![CDATA[
.node, .edge {opacity: 0.7;}
.node.selected, .edge.selected {opacity: 1;}
.edge:hover path { stroke: red; }
.edge:hover polygon { stroke: red; fill: red; }
]]></style>

<defs>
  <circle id="rim" cx="0" cy="0" r="7"/>
  <circle id="rim2" cx="0" cy="0" r="3.5"/>
  <g id="zoomPlus">
    <use xlink:href="#rim" fill="#404040"><set attributeName="fill" to="#808080" begin="zoomplus.mouseover" end="zoomplus.mouseout"/></use>
    <path d="M-4,0h8M0,-4v8" fill="none" stroke="white" stroke-width="1.5" pointer-events="none"/>
  </g>
  <g id="zoomMin">
    <use xlink:href="#rim" fill="#404040"><set attributeName="fill" to="#808080" begin="zoomminus.mouseover" end="zoomminus.mouseout"/></use>
    <path d="M-4,0h8" fill="none" stroke="white" stroke-width="1.5" pointer-events="none"/>
  </g>
  <g id="arrowUp" transform="translate(30 24)">
    <use xlink:href="#rim"/>
    <path pointer-events="none" fill="none" stroke="white" stroke-width="1.5" d="M0,-3.0v7 M-2.5,-0.5L0,-3.0L2.5,-0.5"/>
  </g>
  <g id="arrowRight" transform="rotate(90) translate(36 -43)">
    <use xlink:href="#rim"/>
    <path pointer-events="none" fill="none" stroke="white" stroke-width="1.5" d="M0,-3.0v7 M-2.5,-0.5L0,-3.0L2.5,-0.5"/>
  </g>
  <g id="arrowDown" transform="rotate(180) translate(-30 -48)">
    <use xlink:href="#rim"/>
    <path pointer-events="none" fill="none" stroke="white" stroke-width="1.5" d="M0,-3.0v7 M-2.5,-0.5L0,-3.0L2.5,-0.5"/>
  </g>
  <g id="arrowLeft" transform="rotate(270) translate(-36 17)">
    <use xlink:href="#rim"/>
    <path pointer-events="none" fill="none" stroke="white" stroke-width="1.5" d="M0,-3.0v7 M-2.5,-0.5L0,-3.0L2.5,-0.5"/>
  </g>
  <g id="resetDef">
    <use xlink:href="#rim2" fill="#404040"><set attributeName="fill" to="#808080" begin="reset.mouseover" end="reset.mouseout"/></use>
  </g>
</defs>
<script type="application/ecmascript">
var viewWidth = 1374;
var viewHeight = 196;
var sectionId = 'dynsection-0';
</script>
<script type="application/ecmascript" xlink:href="svg.min.js"/>
<svg id="graph" class="graph">
<g id="viewport">
<title>wiNpoS&#45;Shared/HooksCfg.cpp</title>
<!-- Node1 -->
<g id="Node000001" class="node">
<title>Node1</title>
<g id="a_Node000001"><a xlink:title=" ">
<polygon fill="#999999" stroke="#666666" points="694.75,-188 548.25,-188 548.25,-168 694.75,-168 694.75,-188"/>
<text text-anchor="middle" x="621.5" y="-174.5" font-family="Helvetica,sans-Serif" font-size="10.00">wiNpoS&#45;Shared/HooksCfg.cpp</text>
</a>
</g>
</g>
<!-- Node2 -->
<g id="Node000002" class="node">
<title>Node2</title>
<g id="a_Node000002"><a xlink:title=" ">
<polygon fill="#e0e0e0" stroke="#999999" points="63.5,-132 23.5,-132 23.5,-112 63.5,-112 63.5,-132"/>
<text text-anchor="middle" x="43.5" y="-118.5" font-family="Helvetica,sans-Serif" font-size="10.00">pch.h</text>
</a>
</g>
</g>
<!-- Node1&#45;&gt;Node2 -->
<g id="edge1_Node000001_Node000002" class="edge">
<title>Node1&#45;&gt;Node2</title>
<g id="a_edge1_Node000001_Node000002"><a xlink:title=" ">
<path fill="none" stroke="#63b8ff" d="M547.95,-175.02C442.91,-171.27 244.2,-160.73 77.5,-132 76.53,-131.83 75.54,-131.65 74.55,-131.45"/>
<polygon fill="#63b8ff" stroke="#63b8ff" points="75.4,-127.83 64.87,-129.02 73.84,-134.65 75.4,-127.83"/>
</a>
</g>
</g>
<!-- Node3 -->
<g id="Node000003" class="node">
<title>Node3</title>
<g id="a_Node000003"><a xlink:title=" ">
<polygon fill="#e0e0e0" stroke="#999999" points="43,-20 0,-20 0,0 43,0 43,-20"/>
<text text-anchor="middle" x="21.5" y="-6.5" font-family="Helvetica,sans-Serif" font-size="10.00">format</text>
</a>
</g>
</g>
<!-- Node1&#45;&gt;Node3 -->
<g id="edge2_Node000001_Node000003" class="edge">
<title>Node1&#45;&gt;Node3</title>
<g id="a_edge2_Node000001_Node000003"><a xlink:title=" ">
<path fill="none" stroke="#63b8ff" d="M548.14,-176.24C431.75,-174.01 210.76,-165.38 140.5,-132 91.91,-108.92 52.1,-57.21 33.26,-29.45"/>
<polygon fill="#63b8ff" stroke="#63b8ff" points="35.72,-27.83 27.29,-21.41 29.88,-31.68 35.72,-27.83"/>
</a>
</g>
</g>
<!-- Node4 -->
<g id="Node000004" class="node">
<title>Node4</title>
<g id="a_Node000004"><a xlink:title=" ">
<polygon fill="#e0e0e0" stroke="#999999" points="395.62,-132 353.38,-132 353.38,-112 395.62,-112 395.62,-132"/>
<text text-anchor="middle" x="374.5" y="-118.5" font-family="Helvetica,sans-Serif" font-size="10.00">cstdio</text>
</a>
</g>
</g>
<!-- Node1&#45;&gt;Node4 -->
<g id="edge3_Node000001_Node000004" class="edge">
<title>Node1&#45;&gt;Node4</title>
<g id="a_edge3_Node000001_Node000004"><a xlink:title=" ">
<path fill="none" stroke="#63b8ff" d="M570.62,-167.55C529.01,-159.56 468.43,-147.35 406.48,-132.09"/>
<polygon fill="#63b8ff" stroke="#63b8ff" points="407.67,-128.53 397.12,-129.51 405.98,-135.32 407.67,-128.53"/>
</a>
</g>
</g>
<!-- Node5 -->
<g id="Node000005" class="node">
<title>Node5</title>
<g id="a_Node000005"><a xlink:title=" ">
<polygon fill="#e0e0e0" stroke="#999999" points="487,-132 414,-132 414,-112 487,-112 487,-132"/>
<text text-anchor="middle" x="450.5" y="-118.5" font-family="Helvetica,sans-Serif" font-size="10.00">processenv.h</text>
</a>
</g>
</g>
<!-- Node1&#45;&gt;Node5 -->
<g id="edge4_Node000001_Node000005" class="edge">
<title>Node1&#45;&gt;Node5</title>
<g id="a_edge4_Node000001_Node000005"><a xlink:title=" ">
<path fill="none" stroke="#63b8ff" d="M591.71,-167.59C563.81,-158.78 521.88,-145.54 490.96,-135.78"/>
<polygon fill="#63b8ff" stroke="#63b8ff" points="492.11,-132.15 481.52,-132.48 490,-138.83 492.11,-132.15"/>
</a>
</g>
</g>
<!-- Node6 -->
<g id="Node000006" class="node">
<title>Node6</title>
<g id="a_Node000006"><a xlink:title=" ">
<polygon fill="#e0e0e0" stroke="#999999" points="546.25,-132 504.75,-132 504.75,-112 546.25,-112 546.25,-132"/>
<text text-anchor="middle" x="525.5" y="-118.5" font-family="Helvetica,sans-Serif" font-size="10.00">locale</text>
</a>
</g>
</g>
<!-- Node1&#45;&gt;Node6 -->
<g id="edge5_Node000001_Node000006" class="edge">
<title>Node1&#45;&gt;Node6</title>
<g id="a_edge5_Node000001_Node000006"><a xlink:title=" ">
<path fill="none" stroke="#63b8ff" d="M604.78,-167.59C590.14,-159.36 568.62,-147.26 551.7,-137.74"/>
<polygon fill="#63b8ff" stroke="#63b8ff" points="553.78,-134.33 543.35,-132.48 550.35,-140.43 553.78,-134.33"/>
</a>
</g>
</g>
<!-- Node7 -->
<g id="Node000007" class="node">
<title>Node7</title>
<g id="a_Node000007"><a xlink:title=" ">
<polygon fill="#e0e0e0" stroke="#999999" points="613,-132 564,-132 564,-112 613,-112 613,-132"/>
<text text-anchor="middle" x="588.5" y="-118.5" font-family="Helvetica,sans-Serif" font-size="10.00">codecvt</text>
</a>
</g>
</g>
<!-- Node1&#45;&gt;Node7 -->
<g id="edge6_Node000001_Node000007" class="edge">
<title>Node1&#45;&gt;Node7</title>
<g id="a_edge6_Node000001_Node000007"><a xlink:title=" ">
<path fill="none" stroke="#63b8ff" d="M615.75,-167.59C611.35,-160.39 605.14,-150.23 599.76,-141.43"/>
<polygon fill="#63b8ff" stroke="#63b8ff" points="602.38,-140.01 594.18,-133.3 596.41,-143.66 602.38,-140.01"/>
</a>
</g>
</g>
<!-- Node8 -->
<g id="Node000008" class="node">
<title>Node8</title>
<g id="a_Node000008"><a xlink:title=" ">
<polygon fill="#e0e0e0" stroke="#999999" points="679.62,-132 631.38,-132 631.38,-112 679.62,-112 679.62,-132"/>
<text text-anchor="middle" x="655.5" y="-118.5" font-family="Helvetica,sans-Serif" font-size="10.00">fstream</text>
</a>
</g>
</g>
<!-- Node1&#45;&gt;Node8 -->
<g id="edge7_Node000001_Node000008" class="edge">
<title>Node1&#45;&gt;Node8</title>
<g id="a_edge7_Node000001_Node000008"><a xlink:title=" ">
<path fill="none" stroke="#63b8ff" d="M627.42,-167.59C631.96,-160.39 638.35,-150.23 643.9,-141.43"/>
<polygon fill="#63b8ff" stroke="#63b8ff" points="647.28,-143.63 649.65,-133.3 641.36,-139.9 647.28,-143.63"/>
</a>
</g>
</g>
<!-- Node9 -->
<g id="Node000009" class="node">
<title>Node9</title>
<g id="a_Node000009"><a xlink:title=" ">
<polygon fill="#e0e0e0" stroke="#999999" points="753.75,-132 697.25,-132 697.25,-112 753.75,-112 753.75,-132"/>
<text text-anchor="middle" x="725.5" y="-118.5" font-family="Helvetica,sans-Serif" font-size="10.00">shlwapi.h</text>
</a>
</g>
</g>
<!-- Node1&#45;&gt;Node9 -->
<g id="edge8_Node000001_Node000009" class="edge">
<title>Node1&#45;&gt;Node9</title>
<g id="a_edge8_Node000001_Node000009"><a xlink:title=" ">
<path fill="none" stroke="#63b8ff" d="M639.62,-167.59C655.62,-159.28 679.22,-147.03 697.63,-137.47"/>
<polygon fill="#63b8ff" stroke="#63b8ff" points="698.98,-140.19 706.24,-132.48 695.76,-133.98 698.98,-140.19"/>
</a>
</g>
</g>
<!-- Node10 -->
<g id="Node000010" class="node">
<title>Node10</title>
<g id="a_Node000010"><a xlink:title=" ">
<polygon fill="#e0e0e0" stroke="#999999" points="857,-132 772,-132 772,-112 857,-112 857,-132"/>
<text text-anchor="middle" x="814.5" y="-118.5" font-family="Helvetica,sans-Serif" font-size="10.00">filereadstream.h</text>
</a>
</g>
</g>
<!-- Node1&#45;&gt;Node10 -->
<g id="edge9_Node000001_Node000010" class="edge">
<title>Node1&#45;&gt;Node10</title>
<g id="a_edge9_Node000001_Node000010"><a xlink:title=" ">
<path fill="none" stroke="#63b8ff" d="M655.12,-167.59C687.03,-158.67 735.18,-145.19 770.2,-135.39"/>
<polygon fill="#63b8ff" stroke="#63b8ff" points="770.93,-138.54 779.62,-132.48 769.05,-131.8 770.93,-138.54"/>
</a>
</g>
</g>
<!-- Node11 -->
<g id="Node000011" class="node">
<title>Node11</title>
<g id="a_Node000011"><a xlink:title=" ">
<polygon fill="#e0e0e0" stroke="#999999" points="961.75,-132 875.25,-132 875.25,-112 961.75,-112 961.75,-132"/>
<text text-anchor="middle" x="918.5" y="-118.5" font-family="Helvetica,sans-Serif" font-size="10.00">filewritestream.h</text>
</a>
</g>
</g>
<!-- Node1&#45;&gt;Node11 -->
<g id="edge10_Node000001_Node000011" class="edge">
<title>Node1&#45;&gt;Node11</title>
<g id="a_edge10_Node000001_Node000011"><a xlink:title=" ">
<path fill="none" stroke="#63b8ff" d="M673.57,-167.53C727.11,-157.8 810.12,-142.71 864.39,-132.84"/>
<polygon fill="#63b8ff" stroke="#63b8ff" points="864.97,-136.11 874.18,-130.88 863.71,-129.22 864.97,-136.11"/>
</a>
</g>
</g>
<!-- Node12 -->
<g id="Node000012" class="node">
<title>Node12</title>
<g id="a_Node000012"><a xlink:title=" ">
<polygon fill="#e0e0e0" stroke="#999999" points="1051.62,-132 979.38,-132 979.38,-112 1051.62,-112 1051.62,-132"/>
<text text-anchor="middle" x="1015.5" y="-118.5" font-family="Helvetica,sans-Serif" font-size="10.00">prettywriter.h</text>
</a>
</g>
</g>
<!-- Node1&#45;&gt;Node12 -->
<g id="edge11_Node000001_Node000012" class="edge">
<title>Node1&#45;&gt;Node12</title>
<g id="a_edge11_Node000001_Node000012"><a xlink:title=" ">
<path fill="none" stroke="#63b8ff" d="M695.25,-168.99C763.61,-161.22 868.39,-148.46 968.57,-132.22"/>
<polygon fill="#63b8ff" stroke="#63b8ff" points="968.89,-135.55 978.19,-130.49 967.76,-128.65 968.89,-135.55"/>
</a>
</g>
</g>
<!-- Node13 -->
<g id="Node000013" class="node">
<title>Node13</title>
<g id="a_Node000013"><a xlink:title=" ">
<polygon fill="#e0e0e0" stroke="#999999" points="1137,-132 1070,-132 1070,-112 1137,-112 1137,-132"/>
<text text-anchor="middle" x="1103.5" y="-118.5" font-family="Helvetica,sans-Serif" font-size="10.00">document.h</text>
</a>
</g>
</g>
<!-- Node1&#45;&gt;Node13 -->
<g id="edge12_Node000001_Node000013" class="edge">
<title>Node1&#45;&gt;Node13</title>
<g id="a_edge12_Node000001_Node000013"><a xlink:title=" ">
<path fill="none" stroke="#63b8ff" d="M695.2,-171.8C780.36,-165.27 924.88,-152.55 1058.9,-132.09"/>
<polygon fill="#63b8ff" stroke="#63b8ff" points="1059.41,-135.4 1068.76,-130.41 1058.34,-128.48 1059.41,-135.4"/>
</a>
</g>
</g>
<!-- Node14 -->
<g id="Node000014" class="node">
<title>Node14</title>
<g id="a_Node000014"><a xlink:title=" ">
<polygon fill="#e0e0e0" stroke="#999999" points="1202.25,-132 1154.75,-132 1154.75,-112 1202.25,-112 1202.25,-132"/>
<text text-anchor="middle" x="1178.5" y="-118.5" font-family="Helvetica,sans-Serif" font-size="10.00">writer.h</text>
</a>
</g>
</g>
<!-- Node1&#45;&gt;Node14 -->
<g id="edge13_Node000001_Node000014" class="edge">
<title>Node1&#45;&gt;Node14</title>
<g id="a_edge13_Node000001_Node000014"><a xlink:title=" ">
<path fill="none" stroke="#63b8ff" d="M695.12,-175.06C795.01,-171.47 979.07,-161.41 1143.69,-132.22"/>
<polygon fill="#63b8ff" stroke="#63b8ff" points="1144.28,-135.49 1153.5,-130.27 1143.04,-128.6 1144.28,-135.49"/>
</a>
</g>
</g>
<!-- Node15 -->
<g id="Node000015" class="node">
<title>Node15</title>
<g id="a_Node000015"><a xlink:title=" ">
<polygon fill="#e0e0e0" stroke="#999999" points="1277.12,-132 1219.88,-132 1219.88,-112 1277.12,-112 1277.12,-132"/>
<text text-anchor="middle" x="1248.5" y="-118.5" font-family="Helvetica,sans-Serif" font-size="10.00">shellapi.h</text>
</a>
</g>
</g>
<!-- Node1&#45;&gt;Node15 -->
<g id="edge14_Node000001_Node000015" class="edge">
<title>Node1&#45;&gt;Node15</title>
<g id="a_edge14_Node000001_Node000015"><a xlink:title=" ">
<path fill="none" stroke="#63b8ff" d="M695.07,-175.22C805.07,-171.72 1018.97,-161.64 1208.77,-132.21"/>
<polygon fill="#63b8ff" stroke="#63b8ff" points="1209.17,-135.54 1218.51,-130.52 1208.08,-128.62 1209.17,-135.54"/>
</a>
</g>
</g>
<!-- Node16 -->
<g id="Node000016" class="node">
<title>Node16</title>
<g id="a_Node000016"><a xlink:href="_utils_8h.html" target="_top" xlink:title=" ">
<polygon fill="white" stroke="#666666" points="212.38,-76 168.62,-76 168.62,-56 212.38,-56 212.38,-76"/>
<text text-anchor="middle" x="190.5" y="-62.5" font-family="Helvetica,sans-Serif" font-size="10.00">Utils.h</text>
</a>
</g>
</g>
<!-- Node1&#45;&gt;Node16 -->
<g id="edge15_Node000001_Node000016" class="edge">
<title>Node1&#45;&gt;Node16</title>
<g id="a_edge15_Node000001_Node000016"><a xlink:title=" ">
<path fill="none" stroke="#63b8ff" d="M548.15,-175.34C421.99,-171.71 174.83,-160.95 148.5,-132 134.8,-116.93 152.05,-96.92 168.4,-83.1"/>
<polygon fill="#63b8ff" stroke="#63b8ff" points="170.05,-85.46 175.7,-76.5 165.69,-79.98 170.05,-85.46"/>
</a>
</g>
</g>
<!-- Node23 -->
<g id="Node000023" class="node">
<title>Node23</title>
<g id="a_Node000023"><a xlink:href="_debug_new_8h.html" target="_top" xlink:title=" ">
<polygon fill="white" stroke="#666666" points="1365.88,-132 1295.12,-132 1295.12,-112 1365.88,-112 1365.88,-132"/>
<text text-anchor="middle" x="1330.5" y="-118.5" font-family="Helvetica,sans-Serif" font-size="10.00">DebugNew.h</text>
</a>
</g>
</g>
<!-- Node1&#45;&gt;Node23 -->
<g id="edge23_Node000001_Node000023" class="edge">
<title>Node1&#45;&gt;Node23</title>
<g id="a_edge23_Node000001_Node000023"><a xlink:title=" ">
<path fill="none" stroke="#63b8ff" d="M695.14,-175.24C816.15,-171.65 1064.75,-161.28 1284.27,-132.13"/>
<polygon fill="#63b8ff" stroke="#63b8ff" points="1284.58,-135.48 1294.03,-130.68 1283.65,-128.55 1284.58,-135.48"/>
</a>
</g>
</g>
<!-- Node24 -->
<g id="Node000024" class="node">
<title>Node24</title>
<g id="a_Node000024"><a xlink:href="_hooks_cfg_8h.html" target="_top" xlink:title=" ">
<polygon fill="white" stroke="#666666" points="223.62,-132 157.38,-132 157.38,-112 223.62,-112 223.62,-132"/>
<text text-anchor="middle" x="190.5" y="-118.5" font-family="Helvetica,sans-Serif" font-size="10.00">HooksCfg.h</text>
</a>
</g>
</g>
<!-- Node1&#45;&gt;Node24 -->
<g id="edge24_Node000001_Node000024" class="edge">
<title>Node1&#45;&gt;Node24</title>
<g id="a_edge24_Node000001_Node000024"><a xlink:title=" ">
<path fill="none" stroke="#63b8ff" d="M548.08,-170.62C472.02,-163.54 349.54,-150.8 234.65,-132.22"/>
<polygon fill="#63b8ff" stroke="#63b8ff" points="235.35,-128.62 224.92,-130.46 234.22,-135.53 235.35,-128.62"/>
</a>
</g>
</g>
<!-- Node26 -->
<g id="Node000026" class="node">
<title>Node26</title>
<g id="a_Node000026"><a xlink:href="_win_pos_wnd_cfg_8h.html" target="_top" xlink:title=" ">
<polygon fill="white" stroke="#666666" points="335.12,-132 241.88,-132 241.88,-112 335.12,-112 335.12,-132"/>
<text text-anchor="middle" x="288.5" y="-118.5" font-family="Helvetica,sans-Serif" font-size="10.00">WinPosWndCfg.h</text>
</a>
</g>
</g>
<!-- Node1&#45;&gt;Node26 -->
<g id="edge28_Node000001_Node000026" class="edge">
<title>Node1&#45;&gt;Node26</title>
<g id="a_edge28_Node000001_Node000026"><a xlink:title=" ">
<path fill="none" stroke="#63b8ff" d="M563.11,-167.53C502.06,-157.63 406.82,-142.19 346.07,-132.34"/>
<polygon fill="#63b8ff" stroke="#63b8ff" points="346.94,-128.77 336.51,-130.62 345.82,-135.68 346.94,-128.77"/>
</a>
</g>
</g>
<!-- Node16&#45;&gt;Node3 -->
<g id="edge18_Node000016_Node000003" class="edge">
<title>Node16&#45;&gt;Node3</title>
<g id="a_edge18_Node000016_Node000003"><a xlink:title=" ">
<path fill="none" stroke="#63b8ff" d="M168.41,-57.94C139.1,-48.58 87.17,-31.98 53.55,-21.24"/>
<polygon fill="#63b8ff" stroke="#63b8ff" points="54.92,-17.69 44.33,-17.98 52.79,-24.35 54.92,-17.69"/>
</a>
</g>
</g>
<!-- Node17 -->
<g id="Node000017" class="node">
<title>Node17</title>
<g id="a_Node000017"><a xlink:title=" ">
<polygon fill="#e0e0e0" stroke="#999999" points="101.5,-20 61.5,-20 61.5,0 101.5,0 101.5,-20"/>
<text text-anchor="middle" x="81.5" y="-6.5" font-family="Helvetica,sans-Serif" font-size="10.00">string</text>
</a>
</g>
</g>
<!-- Node16&#45;&gt;Node17 -->
<g id="edge16_Node000016_Node000017" class="edge">
<title>Node16&#45;&gt;Node17</title>
<g id="a_edge16_Node000016_Node000017"><a xlink:title=" ">
<path fill="none" stroke="#63b8ff" d="M171.51,-55.59C154.66,-47.24 129.78,-34.92 110.44,-25.34"/>
<polygon fill="#63b8ff" stroke="#63b8ff" points="112.15,-21.78 101.63,-20.48 109.04,-28.05 112.15,-21.78"/>
</a>
</g>
</g>
<!-- Node18 -->
<g id="Node000018" class="node">
<title>Node18</title>
<g id="a_Node000018"><a xlink:title=" ">
<polygon fill="#e0e0e0" stroke="#999999" points="451.12,-20 405.88,-20 405.88,0 451.12,0 451.12,-20"/>
<text text-anchor="middle" x="428.5" y="-6.5" font-family="Helvetica,sans-Serif" font-size="10.00">xstring</text>
</a>
</g>
</g>
<!-- Node16&#45;&gt;Node18 -->
<g id="edge17_Node000016_Node000018" class="edge">
<title>Node16&#45;&gt;Node18</title>
<g id="a_edge17_Node000016_Node000018"><a xlink:title=" ">
<path fill="none" stroke="#63b8ff" d="M212.72,-58.09C215.33,-57.35 217.97,-56.64 220.5,-56 294.75,-37.31 317.09,-38.67 395.15,-20.17"/>
<polygon fill="#63b8ff" stroke="#63b8ff" points="395.58,-23.43 404.48,-17.69 393.94,-16.63 395.58,-23.43"/>
</a>
</g>
</g>
<!-- Node19 -->
<g id="Node000019" class="node">
<title>Node19</title>
<g id="a_Node000019"><a xlink:title=" ">
<polygon fill="#e0e0e0" stroke="#999999" points="183.12,-20 119.88,-20 119.88,0 183.12,0 183.12,-20"/>
<text text-anchor="middle" x="151.5" y="-6.5" font-family="Helvetica,sans-Serif" font-size="10.00">debugapi.h</text>
</a>
</g>
</g>
<!-- Node16&#45;&gt;Node19 -->
<g id="edge19_Node000016_Node000019" class="edge">
<title>Node16&#45;&gt;Node19</title>
<g id="a_edge19_Node000016_Node000019"><a xlink:title=" ">
<path fill="none" stroke="#63b8ff" d="M183.71,-55.59C178.45,-48.32 171.01,-38.02 164.61,-29.15"/>
<polygon fill="#63b8ff" stroke="#63b8ff" points="166.91,-27.36 158.22,-21.3 161.23,-31.45 166.91,-27.36"/>
</a>
</g>
</g>
<!-- Node20 -->
<g id="Node000020" class="node">
<title>Node20</title>
<g id="a_Node000020"><a xlink:title=" ">
<polygon fill="#e0e0e0" stroke="#999999" points="510.25,-20 468.75,-20 468.75,0 510.25,0 510.25,-20"/>
<text text-anchor="middle" x="489.5" y="-6.5" font-family="Helvetica,sans-Serif" font-size="10.00">vector</text>
</a>
</g>
</g>
<!-- Node16&#45;&gt;Node20 -->
<g id="edge20_Node000016_Node000020" class="edge">
<title>Node16&#45;&gt;Node20</title>
<g id="a_edge20_Node000016_Node000020"><a xlink:title=" ">
<path fill="none" stroke="#63b8ff" d="M212.69,-57.96C215.31,-57.24 217.95,-56.57 220.5,-56 322.36,-33.2 353.37,-43.34 457.71,-20.37"/>
<polygon fill="#63b8ff" stroke="#63b8ff" points="458.39,-23.58 467.38,-17.96 456.85,-16.75 458.39,-23.58"/>
</a>
</g>
</g>
<!-- Node21 -->
<g id="Node000021" class="node">
<title>Node21</title>
<g id="a_Node000021"><a xlink:title=" ">
<polygon fill="#e0e0e0" stroke="#999999" points="257.38,-20 201.62,-20 201.62,0 257.38,0 257.38,-20"/>
<text text-anchor="middle" x="229.5" y="-6.5" font-family="Helvetica,sans-Serif" font-size="10.00">algorithm</text>
</a>
</g>
</g>
<!-- Node16&#45;&gt;Node21 -->
<g id="edge21_Node000016_Node000021" class="edge">
<title>Node16&#45;&gt;Node21</title>
<g id="a_edge21_Node000016_Node000021"><a xlink:title=" ">
<path fill="none" stroke="#63b8ff" d="M197.29,-55.59C202.55,-48.32 209.99,-38.02 216.39,-29.15"/>
<polygon fill="#63b8ff" stroke="#63b8ff" points="219.77,-31.45 222.78,-21.3 214.09,-27.36 219.77,-31.45"/>
</a>
</g>
</g>
<!-- Node22 -->
<g id="Node000022" class="node">
<title>Node22</title>
<g id="a_Node000022"><a xlink:title=" ">
<polygon fill="#e0e0e0" stroke="#999999" points="387.88,-20 275.12,-20 275.12,0 387.88,0 387.88,-20"/>
<text text-anchor="middle" x="331.5" y="-6.5" font-family="Helvetica,sans-Serif" font-size="10.00">vcruntime_exception.h</text>
</a>
</g>
</g>
<!-- Node16&#45;&gt;Node22 -->
<g id="edge22_Node000016_Node000022" class="edge">
<title>Node16&#45;&gt;Node22</title>
<g id="a_edge22_Node000016_Node000022"><a xlink:title=" ">
<path fill="none" stroke="#63b8ff" d="M212.84,-56.44C235.36,-47.82 270.45,-34.38 296.63,-24.35"/>
<polygon fill="#63b8ff" stroke="#63b8ff" points="297.81,-27.27 305.89,-20.42 295.3,-20.73 297.81,-27.27"/>
</a>
</g>
</g>
<!-- Node24&#45;&gt;Node16 -->
<g id="edge27_Node000024_Node000016" class="edge">
<title>Node24&#45;&gt;Node16</title>
<g id="a_edge27_Node000024_Node000016"><a xlink:title=" ">
<path fill="none" stroke="#63b8ff" d="M190.5,-111.59C190.5,-104.86 190.5,-95.53 190.5,-87.15"/>
<polygon fill="#63b8ff" stroke="#63b8ff" points="194,-87.3 190.5,-77.3 187,-87.3 194,-87.3"/>
</a>
</g>
</g>
<!-- Node24&#45;&gt;Node17 -->
<g id="edge26_Node000024_Node000017" class="edge">
<title>Node24&#45;&gt;Node17</title>
<g id="a_edge26_Node000024_Node000017"><a xlink:title=" ">
<path fill="none" stroke="#63b8ff" d="M181.21,-111.62C162.87,-93.11 121.78,-51.65 98.47,-28.13"/>
<polygon fill="#63b8ff" stroke="#63b8ff" points="101.29,-25.99 91.77,-21.35 96.32,-30.92 101.29,-25.99"/>
</a>
</g>
</g>
<!-- Node25 -->
<g id="Node000025" class="node">
<title>Node25</title>
<g id="a_Node000025"><a xlink:title=" ">
<polygon fill="#e0e0e0" stroke="#999999" points="285,-76 230,-76 230,-56 285,-56 285,-76"/>
<text text-anchor="middle" x="257.5" y="-62.5" font-family="Helvetica,sans-Serif" font-size="10.00">wtypes.h</text>
</a>
</g>
</g>
<!-- Node24&#45;&gt;Node25 -->
<g id="edge25_Node000024_Node000025" class="edge">
<title>Node24&#45;&gt;Node25</title>
<g id="a_edge25_Node000024_Node000025"><a xlink:title=" ">
<path fill="none" stroke="#63b8ff" d="M202.17,-111.59C211.87,-103.77 225.91,-92.46 237.41,-83.19"/>
<polygon fill="#63b8ff" stroke="#63b8ff" points="239.37,-85.3 244.96,-76.3 234.98,-79.85 239.37,-85.3"/>
</a>
</g>
</g>
<!-- Node26&#45;&gt;Node16 -->
<g id="edge32_Node000026_Node000016" class="edge">
<title>Node26&#45;&gt;Node16</title>
<g id="a_edge32_Node000026_Node000016"><a xlink:title=" ">
<path fill="none" stroke="#63b8ff" d="M271.43,-111.59C256.49,-103.36 234.52,-91.26 217.25,-81.74"/>
<polygon fill="#63b8ff" stroke="#63b8ff" points="219.15,-78.24 208.7,-76.48 215.77,-84.37 219.15,-78.24"/>
</a>
</g>
</g>
<!-- Node26&#45;&gt;Node20 -->
<g id="edge31_Node000026_Node000020" class="edge">
<title>Node26&#45;&gt;Node20</title>
<g id="a_edge31_Node000026_Node000020"><a xlink:title=" ">
<path fill="none" stroke="#63b8ff" d="M292.16,-111.95C298.33,-97.83 312.17,-70.67 332.5,-56 377.71,-23.38 401.1,-35.18 457.73,-20.58"/>
<polygon fill="#63b8ff" stroke="#63b8ff" points="458.6,-23.7 467.3,-17.65 456.73,-16.95 458.6,-23.7"/>
</a>
</g>
</g>
<!-- Node26&#45;&gt;Node25 -->
<g id="edge29_Node000026_Node000025" class="edge">
<title>Node26&#45;&gt;Node25</title>
<g id="a_edge29_Node000026_Node000025"><a xlink:title=" ">
<path fill="none" stroke="#63b8ff" d="M283.1,-111.59C279.01,-104.47 273.26,-94.45 268.24,-85.72"/>
<polygon fill="#63b8ff" stroke="#63b8ff" points="270.85,-84.23 262.84,-77.3 264.78,-87.71 270.85,-84.23"/>
</a>
</g>
</g>
<!-- Node27 -->
<g id="Node000027" class="node">
<title>Node27</title>
<g id="a_Node000027"><a xlink:title=" ">
<polygon fill="#e0e0e0" stroke="#999999" points="375.88,-76 341.12,-76 341.12,-56 375.88,-56 375.88,-76"/>
<text text-anchor="middle" x="358.5" y="-62.5" font-family="Helvetica,sans-Serif" font-size="10.00">map</text>
</a>
</g>
</g>
<!-- Node26&#45;&gt;Node27 -->
<g id="edge30_Node000026_Node000027" class="edge">
<title>Node26&#45;&gt;Node27</title>
<g id="a_edge30_Node000026_Node000027"><a xlink:title=" ">
<path fill="none" stroke="#63b8ff" d="M300.69,-111.59C310.93,-103.7 325.78,-92.24 337.87,-82.92"/>
<polygon fill="#63b8ff" stroke="#63b8ff" points="339.67,-85.18 345.45,-76.3 335.39,-79.64 339.67,-85.18"/>
</a>
</g>
</g>
</g>
</svg>

<g id="navigator" transform="translate(0 0)" fill="#404254">
  <rect fill="#f2f5e9" fill-opacity="0.5" stroke="#606060" stroke-width=".5" x="0" y="0" width="60" height="60"/>
  <use id="zoomplus" xlink:href="#zoomPlus" x="17" y="9" onmousedown="handleZoom(evt,'in')"/>
  <use id="zoomminus" xlink:href="#zoomMin" x="42" y="9" onmousedown="handleZoom(evt,'out')"/>
  <use id="reset" xlink:href="#resetDef" x="30" y="36" onmousedown="handleReset()"/>
   <use id="arrowup" xlink:href="#arrowUp" x="0" y="0" onmousedown="handlePan(0,-1)"/>
  <use id="arrowright" xlink:href="#arrowRight" x="0" y="0" onmousedown="handlePan(1,0)"/>
  <use id="arrowdown" xlink:href="#arrowDown" x="0" y="0" onmousedown="handlePan(0,1)"/>
  <use id="arrowleft" xlink:href="#arrowLeft" x="0" y="0" onmousedown="handlePan(-1,0)"/>
</g>
<svg viewBox="0 0 15 15" width="100%" height="30px" preserveAspectRatio="xMaxYMin meet">
 <g id="arrow_out" transform="scale(0.3 0.3)">
  <a xlink:href="_hooks_cfg_8cpp__incl_org.svg" target="_base">
   <rect id="button" ry="5" rx="5" y="6" x="6" height="38" width="38"
        fill="#f2f5e9" fill-opacity="0.5" stroke="#606060" stroke-width="1.0"/>
   <path id="arrow"
     d="M 11.500037,31.436501 C 11.940474,20.09759 22.043105,11.32322 32.158766,21.979434 L 37.068811,17.246167 C 37.068811,17.246167 37.088388,32 37.088388,32 L 22.160133,31.978069 C 22.160133,31.978069 26.997745,27.140456 26.997745,27.140456 C 18.528582,18.264221 13.291696,25.230495 11.500037,31.436501 z"
     style="fill:#404040;"/>
  </a>
 </g>
</svg>

<style type='text/css'>
<![CDATA[
[data-mouse-over-selected='false'] { opacity: 0.7; }
[data-mouse-over-selected='true']  { opacity: 1.0; }
]]>
</style>
<script type="application/ecmascript"><![CDATA[
document.addEventListener('DOMContentLoaded', (event) => {
  highlightEdges();
  highlightAdjacentNodes();
});
]]></script>
</svg>
