<?xml version="1.0" encoding="UTF-8" standalone="no"?>
<!DOCTYPE svg PUBLIC "-//W3C//DTD SVG 1.1//EN"
 "http://www.w3.org/Graphics/SVG/1.1/DTD/svg11.dtd">
<!-- Generated by graphviz version 9.0.0 (20230911.1827)
 -->
<!-- Title: CallWndProc Pages: 1 -->
<svg width="787pt" height="154pt"
 viewBox="0.00 0.00 787.00 154.00" xmlns="http://www.w3.org/2000/svg" xmlns:xlink="http://www.w3.org/1999/xlink">
<g id="graph0" class="graph" transform="scale(1 1) rotate(0) translate(4 150)">
<title>CallWndProc</title>
<!-- Node1 -->
<g id="Node000001" class="node">
<title>Node1</title>
<g id="a_Node000001"><a xlink:title="the exported hook for the main window procedure">
<polygon fill="#999999" stroke="#666666" points="73,-77 0,-77 0,-57 73,-57 73,-77"/>
<text text-anchor="middle" x="36.5" y="-63.5" font-family="Helvetica,sans-Serif" font-size="10.00">CallWndProc</text>
</a>
</g>
</g>
<!-- Node2 -->
<g id="Node000002" class="node">
<title>Node2</title>
<g id="a_Node000002"><a xlink:href="class_hooks_impl.html#a10c087a169c357990bf12340347e2fc0" target="_top" xlink:title="here we follow the main message loop of the application">
<polygon fill="white" stroke="#666666" points="232.25,-96 109,-96 109,-76 232.25,-76 232.25,-96"/>
<text text-anchor="middle" x="170.62" y="-82.5" font-family="Helvetica,sans-Serif" font-size="10.00">HooksImpl::callWndProc</text>
</a>
</g>
</g>
<!-- Node1&#45;&gt;Node2 -->
<g id="edge1_Node000001_Node000002" class="edge">
<title>Node1&#45;&gt;Node2</title>
<g id="a_edge1_Node000001_Node000002"><a xlink:title=" ">
<path fill="none" stroke="#63b8ff" d="M73.25,-72.14C80.77,-73.22 88.95,-74.4 97.27,-75.59"/>
<polygon fill="#63b8ff" stroke="#63b8ff" points="96.74,-79.06 107.14,-77.01 97.74,-72.13 96.74,-79.06"/>
</a>
</g>
</g>
<!-- Node6 -->
<g id="Node000006" class="node">
<title>Node6</title>
<g id="a_Node000006"><a xlink:href="class_hooks_cfg.html#ab994ae67a05ce4decf5b7af5314eb913" target="_top" xlink:title="check if someone has disabled stored in config">
<polygon fill="white" stroke="#666666" points="225.12,-58 116.12,-58 116.12,-38 225.12,-38 225.12,-58"/>
<text text-anchor="middle" x="170.62" y="-44.5" font-family="Helvetica,sans-Serif" font-size="10.00">HooksCfg::isDisabled</text>
</a>
</g>
</g>
<!-- Node1&#45;&gt;Node6 -->
<g id="edge5_Node000001_Node000006" class="edge">
<title>Node1&#45;&gt;Node6</title>
<g id="a_edge5_Node000001_Node000006"><a xlink:title=" ">
<path fill="none" stroke="#63b8ff" d="M73.25,-61.86C82.95,-60.46 93.77,-58.91 104.54,-57.36"/>
<polygon fill="#63b8ff" stroke="#63b8ff" points="104.82,-60.86 114.22,-55.97 103.82,-53.93 104.82,-60.86"/>
</a>
</g>
</g>
<!-- Node3 -->
<g id="Node000003" class="node">
<title>Node3</title>
<g id="a_Node000003"><a xlink:href="class_hooks_impl.html#a1022c4a7b4012228b83b0b89ee790f89" target="_top" xlink:title="here we react to position changes of the main window">
<polygon fill="white" stroke="#666666" points="436.5,-96 268.25,-96 268.25,-76 436.5,-76 436.5,-96"/>
<text text-anchor="middle" x="352.38" y="-82.5" font-family="Helvetica,sans-Serif" font-size="10.00">HooksImpl::onWindowPosChanged</text>
</a>
</g>
</g>
<!-- Node2&#45;&gt;Node3 -->
<g id="edge2_Node000002_Node000003" class="edge">
<title>Node2&#45;&gt;Node3</title>
<g id="a_edge2_Node000002_Node000003"><a xlink:title=" ">
<path fill="none" stroke="#63b8ff" d="M232.73,-86C240.41,-86 248.4,-86 256.45,-86"/>
<polygon fill="#63b8ff" stroke="#63b8ff" points="256.32,-89.5 266.32,-86 256.32,-82.5 256.32,-89.5"/>
</a>
</g>
</g>
<!-- Node4 -->
<g id="Node000004" class="node">
<title>Node4</title>
<g id="a_Node000004"><a xlink:href="class_hooks_impl.html#a8ef5405a747979c1f5197848e4a8e684" target="_top" xlink:title=" ">
<polygon fill="white" stroke="#666666" points="614.88,-146 484.12,-146 484.12,-114 614.88,-114 614.88,-146"/>
<text text-anchor="start" x="492.12" y="-132.5" font-family="Helvetica,sans-Serif" font-size="10.00">HooksImpl::hasCaptionDbl</text>
<text text-anchor="middle" x="549.5" y="-120.5" font-family="Helvetica,sans-Serif" font-size="10.00">Clicked</text>
</a>
</g>
</g>
<!-- Node3&#45;&gt;Node4 -->
<g id="edge3_Node000003_Node000004" class="edge">
<title>Node3&#45;&gt;Node4</title>
<g id="a_edge3_Node000003_Node000004"><a xlink:title=" ">
<path fill="none" stroke="#63b8ff" d="M399.62,-96.43C421.41,-101.34 447.98,-107.33 472.61,-112.89"/>
<polygon fill="#63b8ff" stroke="#63b8ff" points="471.76,-116.28 482.29,-115.07 473.3,-109.46 471.76,-116.28"/>
</a>
</g>
</g>
<!-- Node5 -->
<g id="Node000005" class="node">
<title>Node5</title>
<g id="a_Node000005"><a xlink:href="class_hooks_impl.html#a7a48621aa5b57024ae963b861fd508cb" target="_top" xlink:title=" ">
<polygon fill="white" stroke="#666666" points="610.75,-96 488.25,-96 488.25,-76 610.75,-76 610.75,-96"/>
<text text-anchor="middle" x="549.5" y="-82.5" font-family="Helvetica,sans-Serif" font-size="10.00">HooksImpl::hasLastRect</text>
</a>
</g>
</g>
<!-- Node3&#45;&gt;Node5 -->
<g id="edge4_Node000003_Node000005" class="edge">
<title>Node3&#45;&gt;Node5</title>
<g id="a_edge4_Node000003_Node000005"><a xlink:title=" ">
<path fill="none" stroke="#63b8ff" d="M436.97,-86C450.18,-86 463.72,-86 476.63,-86"/>
<polygon fill="#63b8ff" stroke="#63b8ff" points="476.26,-89.5 486.26,-86 476.26,-82.5 476.26,-89.5"/>
</a>
</g>
</g>
<!-- Node7 -->
<g id="Node000007" class="node">
<title>Node7</title>
<g id="a_Node000007"><a xlink:href="class_hooks_cfg.html#a9642afc6c6fe88141770403a09cdfc4b" target="_top" xlink:title="read the global config for all apps">
<polygon fill="white" stroke="#666666" points="407.25,-58 297.5,-58 297.5,-38 407.25,-38 407.25,-58"/>
<text text-anchor="middle" x="352.38" y="-44.5" font-family="Helvetica,sans-Serif" font-size="10.00">HooksCfg::readConfig</text>
</a>
</g>
</g>
<!-- Node6&#45;&gt;Node7 -->
<g id="edge6_Node000006_Node000007" class="edge">
<title>Node6&#45;&gt;Node7</title>
<g id="a_edge6_Node000006_Node000007"><a xlink:title=" ">
<path fill="none" stroke="#63b8ff" d="M225.56,-48C244.49,-48 265.97,-48 285.75,-48"/>
<polygon fill="#63b8ff" stroke="#63b8ff" points="285.66,-51.5 295.66,-48 285.66,-44.5 285.66,-51.5"/>
</a>
</g>
</g>
<!-- Node8 -->
<g id="Node000008" class="node">
<title>Node8</title>
<g id="a_Node000008"><a xlink:href="class_hooks_cfg.html#a808e4e4a7bc43b89c87ef172fa8caf6a" target="_top" xlink:title="the path to the global config, for all apps">
<polygon fill="white" stroke="#666666" points="611.88,-58 487.12,-58 487.12,-38 611.88,-38 611.88,-58"/>
<text text-anchor="middle" x="549.5" y="-44.5" font-family="Helvetica,sans-Serif" font-size="10.00">HooksCfg::getConfigPath</text>
</a>
</g>
</g>
<!-- Node7&#45;&gt;Node8 -->
<g id="edge7_Node000007_Node000008" class="edge">
<title>Node7&#45;&gt;Node8</title>
<g id="a_edge7_Node000007_Node000008"><a xlink:title=" ">
<path fill="none" stroke="#63b8ff" d="M407.73,-48C428.76,-48 453.14,-48 475.65,-48"/>
<polygon fill="#63b8ff" stroke="#63b8ff" points="475.36,-51.5 485.36,-48 475.36,-44.5 475.36,-51.5"/>
</a>
</g>
</g>
<!-- Node10 -->
<g id="Node000010" class="node">
<title>Node10</title>
<g id="a_Node000010"><a xlink:href="class_hooks_cfg.html#ab8fd861156e6b389e43bbda021f42c50" target="_top" xlink:title="read a JSON config from given path">
<polygon fill="white" stroke="#666666" points="626.5,-20 472.5,-20 472.5,0 626.5,0 626.5,-20"/>
<text text-anchor="middle" x="549.5" y="-6.5" font-family="Helvetica,sans-Serif" font-size="10.00">HooksCfg::readConfigDocument</text>
</a>
</g>
</g>
<!-- Node7&#45;&gt;Node10 -->
<g id="edge9_Node000007_Node000010" class="edge">
<title>Node7&#45;&gt;Node10</title>
<g id="a_edge9_Node000007_Node000010"><a xlink:title=" ">
<path fill="none" stroke="#63b8ff" d="M407.21,-37.52C430.88,-32.91 458.89,-27.45 483.69,-22.62"/>
<polygon fill="#63b8ff" stroke="#63b8ff" points="484.21,-26.09 493.35,-20.74 482.87,-19.22 484.21,-26.09"/>
</a>
</g>
</g>
<!-- Node9 -->
<g id="Node000009" class="node">
<title>Node9</title>
<g id="a_Node000009"><a xlink:href="class_hooks_cfg.html#a437c5768d5246cf980d1be5ea6f272c6" target="_top" xlink:title="the directory, where store the configs and logs">
<polygon fill="white" stroke="#666666" points="779,-58 662.5,-58 662.5,-38 779,-38 779,-58"/>
<text text-anchor="middle" x="720.75" y="-44.5" font-family="Helvetica,sans-Serif" font-size="10.00">HooksCfg::getConfigDir</text>
</a>
</g>
</g>
<!-- Node8&#45;&gt;Node9 -->
<g id="edge8_Node000008_Node000009" class="edge">
<title>Node8&#45;&gt;Node9</title>
<g id="a_edge8_Node000008_Node000009"><a xlink:title=" ">
<path fill="none" stroke="#63b8ff" d="M612.08,-48C624.73,-48 638.12,-48 651,-48"/>
<polygon fill="#63b8ff" stroke="#63b8ff" points="650.64,-51.5 660.64,-48 650.64,-44.5 650.64,-51.5"/>
</a>
</g>
</g>
</g>
</svg>
