<?xml version="1.0" encoding="UTF-8" standalone="no"?>
<!DOCTYPE svg PUBLIC "-//W3C//DTD SVG 1.1//EN"
 "http://www.w3.org/Graphics/SVG/1.1/DTD/svg11.dtd">
<!-- Generated by graphviz version 9.0.0 (20230911.1827)
 -->
<!-- Title: wiNpoS&#45;Shared/HooksCfg.h Pages: 1 -->
<svg width="545pt" height="140pt"
 viewBox="0.00 0.00 544.88 140.00" xmlns="http://www.w3.org/2000/svg" xmlns:xlink="http://www.w3.org/1999/xlink">
<g id="graph0" class="graph" transform="scale(1 1) rotate(0) translate(4 136)">
<title>wiNpoS&#45;Shared/HooksCfg.h</title>
<!-- Node1 -->
<g id="Node000001" class="node">
<title>Node1</title>
<g id="a_Node000001"><a xlink:title=" ">
<polygon fill="#999999" stroke="#666666" points="151.5,-132 15.5,-132 15.5,-112 151.5,-112 151.5,-132"/>
<text text-anchor="middle" x="83.5" y="-118.5" font-family="Helvetica,sans-Serif" font-size="10.00">wiNpoS&#45;Shared/HooksCfg.h</text>
</a>
</g>
</g>
<!-- Node2 -->
<g id="Node000002" class="node">
<title>Node2</title>
<g id="a_Node000002"><a xlink:title=" ">
<polygon fill="#e0e0e0" stroke="#999999" points="55,-76 0,-76 0,-56 55,-56 55,-76"/>
<text text-anchor="middle" x="27.5" y="-62.5" font-family="Helvetica,sans-Serif" font-size="10.00">wtypes.h</text>
</a>
</g>
</g>
<!-- Node1&#45;&gt;Node2 -->
<g id="edge1_Node000001_Node000002" class="edge">
<title>Node1&#45;&gt;Node2</title>
<g id="a_edge1_Node000001_Node000002"><a xlink:title=" ">
<path fill="none" stroke="#63b8ff" d="M73.75,-111.59C65.88,-104.01 54.6,-93.13 45.15,-84.02"/>
<polygon fill="#63b8ff" stroke="#63b8ff" points="47.86,-81.77 38.23,-77.35 43,-86.81 47.86,-81.77"/>
</a>
</g>
</g>
<!-- Node3 -->
<g id="Node000003" class="node">
<title>Node3</title>
<g id="a_Node000003"><a xlink:title=" ">
<polygon fill="#e0e0e0" stroke="#999999" points="67.5,-20 27.5,-20 27.5,0 67.5,0 67.5,-20"/>
<text text-anchor="middle" x="47.5" y="-6.5" font-family="Helvetica,sans-Serif" font-size="10.00">string</text>
</a>
</g>
</g>
<!-- Node1&#45;&gt;Node3 -->
<g id="edge2_Node000001_Node000003" class="edge">
<title>Node1&#45;&gt;Node3</title>
<g id="a_edge2_Node000001_Node000003"><a xlink:title=" ">
<path fill="none" stroke="#63b8ff" d="M80.78,-111.7C77.04,-99.05 70.04,-75.72 63.5,-56 60.76,-47.74 57.58,-38.69 54.78,-30.89"/>
<polygon fill="#63b8ff" stroke="#63b8ff" points="58.14,-29.9 51.44,-21.69 51.56,-32.28 58.14,-29.9"/>
</a>
</g>
</g>
<!-- Node4 -->
<g id="Node000004" class="node">
<title>Node4</title>
<g id="a_Node000004"><a xlink:href="_utils_8h.html" target="_top" xlink:title=" ">
<polygon fill="white" stroke="#666666" points="227.38,-76 183.62,-76 183.62,-56 227.38,-56 227.38,-76"/>
<text text-anchor="middle" x="205.5" y="-62.5" font-family="Helvetica,sans-Serif" font-size="10.00">Utils.h</text>
</a>
</g>
</g>
<!-- Node1&#45;&gt;Node4 -->
<g id="edge3_Node000001_Node000004" class="edge">
<title>Node1&#45;&gt;Node4</title>
<g id="a_edge3_Node000001_Node000004"><a xlink:title=" ">
<path fill="none" stroke="#63b8ff" d="M104.75,-111.59C123.79,-103.17 151.98,-90.69 173.7,-81.07"/>
<polygon fill="#63b8ff" stroke="#63b8ff" points="174.97,-84.34 182.7,-77.09 172.14,-77.94 174.97,-84.34"/>
</a>
</g>
</g>
<!-- Node4&#45;&gt;Node3 -->
<g id="edge4_Node000004_Node000003" class="edge">
<title>Node4&#45;&gt;Node3</title>
<g id="a_edge4_Node000004_Node000003"><a xlink:title=" ">
<path fill="none" stroke="#63b8ff" d="M183.2,-57.38C155.77,-48 109.08,-32.05 78.26,-21.51"/>
<polygon fill="#63b8ff" stroke="#63b8ff" points="79.71,-18.31 69.12,-18.39 77.45,-24.94 79.71,-18.31"/>
</a>
</g>
</g>
<!-- Node5 -->
<g id="Node000005" class="node">
<title>Node5</title>
<g id="a_Node000005"><a xlink:title=" ">
<polygon fill="#e0e0e0" stroke="#999999" points="131.12,-20 85.88,-20 85.88,0 131.12,0 131.12,-20"/>
<text text-anchor="middle" x="108.5" y="-6.5" font-family="Helvetica,sans-Serif" font-size="10.00">xstring</text>
</a>
</g>
</g>
<!-- Node4&#45;&gt;Node5 -->
<g id="edge5_Node000004_Node000005" class="edge">
<title>Node4&#45;&gt;Node5</title>
<g id="a_edge5_Node000004_Node000005"><a xlink:title=" ">
<path fill="none" stroke="#63b8ff" d="M188.6,-55.59C173.95,-47.44 152.48,-35.48 135.45,-26"/>
<polygon fill="#63b8ff" stroke="#63b8ff" points="137.29,-23.02 126.85,-21.22 133.89,-29.14 137.29,-23.02"/>
</a>
</g>
</g>
<!-- Node6 -->
<g id="Node000006" class="node">
<title>Node6</title>
<g id="a_Node000006"><a xlink:title=" ">
<polygon fill="#e0e0e0" stroke="#999999" points="192,-20 149,-20 149,0 192,0 192,-20"/>
<text text-anchor="middle" x="170.5" y="-6.5" font-family="Helvetica,sans-Serif" font-size="10.00">format</text>
</a>
</g>
</g>
<!-- Node4&#45;&gt;Node6 -->
<g id="edge6_Node000004_Node000006" class="edge">
<title>Node4&#45;&gt;Node6</title>
<g id="a_edge6_Node000004_Node000006"><a xlink:title=" ">
<path fill="none" stroke="#63b8ff" d="M199.4,-55.59C194.79,-48.47 188.29,-38.45 182.63,-29.72"/>
<polygon fill="#63b8ff" stroke="#63b8ff" points="185.73,-28.06 177.35,-21.57 179.85,-31.86 185.73,-28.06"/>
</a>
</g>
</g>
<!-- Node7 -->
<g id="Node000007" class="node">
<title>Node7</title>
<g id="a_Node000007"><a xlink:title=" ">
<polygon fill="#e0e0e0" stroke="#999999" points="273.12,-20 209.88,-20 209.88,0 273.12,0 273.12,-20"/>
<text text-anchor="middle" x="241.5" y="-6.5" font-family="Helvetica,sans-Serif" font-size="10.00">debugapi.h</text>
</a>
</g>
</g>
<!-- Node4&#45;&gt;Node7 -->
<g id="edge7_Node000004_Node000007" class="edge">
<title>Node4&#45;&gt;Node7</title>
<g id="a_edge7_Node000004_Node000007"><a xlink:title=" ">
<path fill="none" stroke="#63b8ff" d="M211.77,-55.59C216.52,-48.47 223.2,-38.45 229.02,-29.72"/>
<polygon fill="#63b8ff" stroke="#63b8ff" points="231.83,-31.82 234.46,-21.56 226,-27.94 231.83,-31.82"/>
</a>
</g>
</g>
<!-- Node8 -->
<g id="Node000008" class="node">
<title>Node8</title>
<g id="a_Node000008"><a xlink:title=" ">
<polygon fill="#e0e0e0" stroke="#999999" points="332.25,-20 290.75,-20 290.75,0 332.25,0 332.25,-20"/>
<text text-anchor="middle" x="311.5" y="-6.5" font-family="Helvetica,sans-Serif" font-size="10.00">vector</text>
</a>
</g>
</g>
<!-- Node4&#45;&gt;Node8 -->
<g id="edge8_Node000004_Node000008" class="edge">
<title>Node4&#45;&gt;Node8</title>
<g id="a_edge8_Node000004_Node000008"><a xlink:title=" ">
<path fill="none" stroke="#63b8ff" d="M223.96,-55.59C240.2,-47.32 264.11,-35.14 282.83,-25.6"/>
<polygon fill="#63b8ff" stroke="#63b8ff" points="284.22,-28.82 291.54,-21.17 281.04,-22.59 284.22,-28.82"/>
</a>
</g>
</g>
<!-- Node9 -->
<g id="Node000009" class="node">
<title>Node9</title>
<g id="a_Node000009"><a xlink:title=" ">
<polygon fill="#e0e0e0" stroke="#999999" points="406.38,-20 350.62,-20 350.62,0 406.38,0 406.38,-20"/>
<text text-anchor="middle" x="378.5" y="-6.5" font-family="Helvetica,sans-Serif" font-size="10.00">algorithm</text>
</a>
</g>
</g>
<!-- Node4&#45;&gt;Node9 -->
<g id="edge9_Node000004_Node000009" class="edge">
<title>Node4&#45;&gt;Node9</title>
<g id="a_edge9_Node000004_Node000009"><a xlink:title=" ">
<path fill="none" stroke="#63b8ff" d="M227.76,-58.05C256.01,-49.23 305.19,-33.88 339.67,-23.12"/>
<polygon fill="#63b8ff" stroke="#63b8ff" points="340.36,-26.57 348.86,-20.25 338.27,-19.89 340.36,-26.57"/>
</a>
</g>
</g>
<!-- Node10 -->
<g id="Node000010" class="node">
<title>Node10</title>
<g id="a_Node000010"><a xlink:title=" ">
<polygon fill="#e0e0e0" stroke="#999999" points="536.88,-20 424.12,-20 424.12,0 536.88,0 536.88,-20"/>
<text text-anchor="middle" x="480.5" y="-6.5" font-family="Helvetica,sans-Serif" font-size="10.00">vcruntime_exception.h</text>
</a>
</g>
</g>
<!-- Node4&#45;&gt;Node10 -->
<g id="edge10_Node000004_Node000010" class="edge">
<title>Node4&#45;&gt;Node10</title>
<g id="a_edge10_Node000004_Node000010"><a xlink:title=" ">
<path fill="none" stroke="#63b8ff" d="M227.54,-60.67C269.11,-52.51 360.39,-34.58 421.16,-22.65"/>
<polygon fill="#63b8ff" stroke="#63b8ff" points="421.51,-26.15 430.65,-20.79 420.17,-19.28 421.51,-26.15"/>
</a>
</g>
</g>
</g>
</svg>
