<?xml version="1.0" encoding="UTF-8" standalone="no"?>
<!DOCTYPE svg PUBLIC "-//W3C//DTD SVG 1.1//EN"
 "http://www.w3.org/Graphics/SVG/1.1/DTD/svg11.dtd">
<!-- Generated by graphviz version 8.1.0 (20230707.0739)
 -->
<!-- Title: wiNpoS&#45;Hook/TaskToolbar.cpp Pages: 1 -->
<!--zoomable 196 -->

<svg id="main" version="1.1" xmlns="http://www.w3.org/2000/svg" xmlns:xlink="http://www.w3.org/1999/xlink" xml:space="preserve" onload="init(evt)">
<style type="text/css"><![CDATA[
.node, .edge {opacity: 0.7;}
.node.selected, .edge.selected {opacity: 1;}
.edge:hover path { stroke: red; }
.edge:hover polygon { stroke: red; fill: red; }
]]></style>

<defs>
  <circle id="rim" cx="0" cy="0" r="7"/>
  <circle id="rim2" cx="0" cy="0" r="3.5"/>
  <g id="zoomPlus">
    <use xlink:href="#rim" fill="#404040"><set attributeName="fill" to="#808080" begin="zoomplus.mouseover" end="zoomplus.mouseout"/></use>
    <path d="M-4,0h8M0,-4v8" fill="none" stroke="white" stroke-width="1.5" pointer-events="none"/>
  </g>
  <g id="zoomMin">
    <use xlink:href="#rim" fill="#404040"><set attributeName="fill" to="#808080" begin="zoomminus.mouseover" end="zoomminus.mouseout"/></use>
    <path d="M-4,0h8" fill="none" stroke="white" stroke-width="1.5" pointer-events="none"/>
  </g>
  <g id="arrowUp" transform="translate(30 24)">
    <use xlink:href="#rim"/>
    <path pointer-events="none" fill="none" stroke="white" stroke-width="1.5" d="M0,-3.0v7 M-2.5,-0.5L0,-3.0L2.5,-0.5"/>
  </g>
  <g id="arrowRight" transform="rotate(90) translate(36 -43)">
    <use xlink:href="#rim"/>
    <path pointer-events="none" fill="none" stroke="white" stroke-width="1.5" d="M0,-3.0v7 M-2.5,-0.5L0,-3.0L2.5,-0.5"/>
  </g>
  <g id="arrowDown" transform="rotate(180) translate(-30 -48)">
    <use xlink:href="#rim"/>
    <path pointer-events="none" fill="none" stroke="white" stroke-width="1.5" d="M0,-3.0v7 M-2.5,-0.5L0,-3.0L2.5,-0.5"/>
  </g>
  <g id="arrowLeft" transform="rotate(270) translate(-36 17)">
    <use xlink:href="#rim"/>
    <path pointer-events="none" fill="none" stroke="white" stroke-width="1.5" d="M0,-3.0v7 M-2.5,-0.5L0,-3.0L2.5,-0.5"/>
  </g>
  <g id="resetDef">
    <use xlink:href="#rim2" fill="#404040"><set attributeName="fill" to="#808080" begin="reset.mouseover" end="reset.mouseout"/></use>
  </g>
</defs>
<script type="application/ecmascript">
var viewWidth = 901;
var viewHeight = 196;
var sectionId = 'dynsection-0';
</script>
<script type="application/ecmascript" xlink:href="svg.min.js"/>
<svg id="graph" class="graph">
<g id="viewport">
<title>wiNpoS&#45;Hook/TaskToolbar.cpp</title>
<!-- Node1 -->
<g id="Node000001" class="node">
<title>Node1</title>
<g id="a_Node000001"><a xlink:title=" ">
<polygon fill="#999999" stroke="#666666" points="405.62,-188 256.88,-188 256.88,-168 405.62,-168 405.62,-188"/>
<text text-anchor="middle" x="331.25" y="-174.5" font-family="Helvetica,sans-Serif" font-size="10.00">wiNpoS&#45;Hook/TaskToolbar.cpp</text>
</a>
</g>
</g>
<!-- Node2 -->
<g id="Node000002" class="node">
<title>Node2</title>
<g id="a_Node000002"><a xlink:href="wi_npo_s-_hook_2pch_8h.html" target="_top" xlink:title=" ">
<polygon fill="white" stroke="#666666" points="54.25,-132 14.25,-132 14.25,-112 54.25,-112 54.25,-132"/>
<text text-anchor="middle" x="34.25" y="-118.5" font-family="Helvetica,sans-Serif" font-size="10.00">pch.h</text>
</a>
</g>
</g>
<!-- Node1&#45;&gt;Node2 -->
<g id="edge1_Node000001_Node000002" class="edge">
<title>Node1&#45;&gt;Node2</title>
<g id="a_edge1_Node000001_Node000002"><a xlink:title=" ">
<path fill="none" stroke="#63b8ff" d="M258.78,-167.53C207.09,-160.15 135.83,-148.73 64.9,-132.13"/>
<polygon fill="#63b8ff" stroke="#63b8ff" points="65.97,-128.55 55.44,-129.64 64.36,-135.36 65.97,-128.55"/>
</a>
</g>
</g>
<!-- Node5 -->
<g id="Node000005" class="node">
<title>Node5</title>
<g id="a_Node000005"><a xlink:href="_debug_new_8h.html" target="_top" xlink:title=" ">
<polygon fill="white" stroke="#666666" points="142.62,-132 71.88,-132 71.88,-112 142.62,-112 142.62,-132"/>
<text text-anchor="middle" x="107.25" y="-118.5" font-family="Helvetica,sans-Serif" font-size="10.00">DebugNew.h</text>
</a>
</g>
</g>
<!-- Node1&#45;&gt;Node5 -->
<g id="edge4_Node000001_Node000005" class="edge">
<title>Node1&#45;&gt;Node5</title>
<g id="a_edge4_Node000001_Node000005"><a xlink:title=" ">
<path fill="none" stroke="#63b8ff" d="M291.98,-167.53C253.28,-158.2 194.16,-143.95 153.28,-134.1"/>
<polygon fill="#63b8ff" stroke="#63b8ff" points="154.32,-130.51 143.78,-131.57 152.68,-137.31 154.32,-130.51"/>
</a>
</g>
</g>
<!-- Node6 -->
<g id="Node000006" class="node">
<title>Node6</title>
<g id="a_Node000006"><a xlink:href="_task_toolbar_8h.html" target="_top" xlink:title=" ">
<polygon fill="white" stroke="#666666" points="237.62,-132 160.88,-132 160.88,-112 237.62,-112 237.62,-132"/>
<text text-anchor="middle" x="199.25" y="-118.5" font-family="Helvetica,sans-Serif" font-size="10.00">TaskToolbar.h</text>
</a>
</g>
</g>
<!-- Node1&#45;&gt;Node6 -->
<g id="edge5_Node000001_Node000006" class="edge">
<title>Node1&#45;&gt;Node6</title>
<g id="a_edge5_Node000001_Node000006"><a xlink:title=" ">
<path fill="none" stroke="#63b8ff" d="M308.26,-167.59C287.28,-159.01 256.04,-146.23 232.37,-136.55"/>
<polygon fill="#63b8ff" stroke="#63b8ff" points="234,-133.03 223.42,-132.48 231.35,-139.51 234,-133.03"/>
</a>
</g>
</g>
<!-- Node7 -->
<g id="Node000007" class="node">
<title>Node7</title>
<g id="a_Node000007"><a xlink:href="wi_npo_s-_hook_2resource_8h.html" target="_top" xlink:title=" ">
<polygon fill="white" stroke="#666666" points="317.12,-132 255.38,-132 255.38,-112 317.12,-112 317.12,-132"/>
<text text-anchor="middle" x="286.25" y="-118.5" font-family="Helvetica,sans-Serif" font-size="10.00">resource.h</text>
</a>
</g>
</g>
<!-- Node1&#45;&gt;Node7 -->
<g id="edge6_Node000001_Node000007" class="edge">
<title>Node1&#45;&gt;Node7</title>
<g id="a_edge6_Node000001_Node000007"><a xlink:title=" ">
<path fill="none" stroke="#63b8ff" d="M323.41,-167.59C317.22,-160.16 308.4,-149.58 300.9,-140.58"/>
<polygon fill="#63b8ff" stroke="#63b8ff" points="303.09,-138.74 294,-133.3 297.71,-143.22 303.09,-138.74"/>
</a>
</g>
</g>
<!-- Node8 -->
<g id="Node000008" class="node">
<title>Node8</title>
<g id="a_Node000008"><a xlink:title=" ">
<polygon fill="#e0e0e0" stroke="#999999" points="416.88,-132 335.62,-132 335.62,-112 416.88,-112 416.88,-132"/>
<text text-anchor="middle" x="376.25" y="-118.5" font-family="Helvetica,sans-Serif" font-size="10.00">shobjidl_core.h</text>
</a>
</g>
</g>
<!-- Node1&#45;&gt;Node8 -->
<g id="edge7_Node000001_Node000008" class="edge">
<title>Node1&#45;&gt;Node8</title>
<g id="a_edge7_Node000001_Node000008"><a xlink:title=" ">
<path fill="none" stroke="#63b8ff" d="M339.09,-167.59C345.28,-160.16 354.1,-149.58 361.6,-140.58"/>
<polygon fill="#63b8ff" stroke="#63b8ff" points="364.79,-143.22 368.5,-133.3 359.41,-138.74 364.79,-143.22"/>
</a>
</g>
</g>
<!-- Node9 -->
<g id="Node000009" class="node">
<title>Node9</title>
<g id="a_Node000009"><a xlink:title=" ">
<polygon fill="#e0e0e0" stroke="#999999" points="488,-132 434.5,-132 434.5,-112 488,-112 488,-132"/>
<text text-anchor="middle" x="461.25" y="-118.5" font-family="Helvetica,sans-Serif" font-size="10.00">strsafe.h</text>
</a>
</g>
</g>
<!-- Node1&#45;&gt;Node9 -->
<g id="edge8_Node000001_Node000009" class="edge">
<title>Node1&#45;&gt;Node9</title>
<g id="a_edge8_Node000001_Node000009"><a xlink:title=" ">
<path fill="none" stroke="#63b8ff" d="M353.89,-167.59C374.46,-159.05 405.04,-146.35 428.31,-136.68"/>
<polygon fill="#63b8ff" stroke="#63b8ff" points="429.54,-139.55 437.43,-132.48 426.85,-133.08 429.54,-139.55"/>
</a>
</g>
</g>
<!-- Node10 -->
<g id="Node000010" class="node">
<title>Node10</title>
<g id="a_Node000010"><a xlink:title=" ">
<polygon fill="#e0e0e0" stroke="#999999" points="556.88,-132 505.62,-132 505.62,-112 556.88,-112 556.88,-132"/>
<text text-anchor="middle" x="531.25" y="-118.5" font-family="Helvetica,sans-Serif" font-size="10.00">assert.h</text>
</a>
</g>
</g>
<!-- Node1&#45;&gt;Node10 -->
<g id="edge9_Node000001_Node000010" class="edge">
<title>Node1&#45;&gt;Node10</title>
<g id="a_edge9_Node000001_Node000010"><a xlink:title=" ">
<path fill="none" stroke="#63b8ff" d="M366.09,-167.59C402.25,-157.83 458.54,-142.63 495.16,-132.74"/>
<polygon fill="#63b8ff" stroke="#63b8ff" points="495.65,-135.97 504.39,-129.98 493.82,-129.21 495.65,-135.97"/>
</a>
</g>
</g>
<!-- Node11 -->
<g id="Node000011" class="node">
<title>Node11</title>
<g id="a_Node000011"><a xlink:href="_utils_8h.html" target="_top" xlink:title=" ">
<polygon fill="white" stroke="#666666" points="619.12,-132 575.38,-132 575.38,-112 619.12,-112 619.12,-132"/>
<text text-anchor="middle" x="597.25" y="-118.5" font-family="Helvetica,sans-Serif" font-size="10.00">Utils.h</text>
</a>
</g>
</g>
<!-- Node1&#45;&gt;Node11 -->
<g id="edge10_Node000001_Node000011" class="edge">
<title>Node1&#45;&gt;Node11</title>
<g id="a_edge10_Node000001_Node000011"><a xlink:title=" ">
<path fill="none" stroke="#63b8ff" d="M388.55,-167.57C433.91,-159.75 499.04,-147.76 564.47,-132.26"/>
<polygon fill="#63b8ff" stroke="#63b8ff" points="565.06,-135.48 573.97,-129.74 563.42,-128.67 565.06,-135.48"/>
</a>
</g>
</g>
<!-- Node3 -->
<g id="Node000003" class="node">
<title>Node3</title>
<g id="a_Node000003"><a xlink:href="wi_npo_s-_hook_2framework_8h.html" target="_top" xlink:title=" ">
<polygon fill="white" stroke="#666666" points="68.5,-76 0,-76 0,-56 68.5,-56 68.5,-76"/>
<text text-anchor="middle" x="34.25" y="-62.5" font-family="Helvetica,sans-Serif" font-size="10.00">framework.h</text>
</a>
</g>
</g>
<!-- Node2&#45;&gt;Node3 -->
<g id="edge2_Node000002_Node000003" class="edge">
<title>Node2&#45;&gt;Node3</title>
<g id="a_edge2_Node000002_Node000003"><a xlink:title=" ">
<path fill="none" stroke="#63b8ff" d="M34.25,-111.59C34.25,-104.86 34.25,-95.53 34.25,-87.15"/>
<polygon fill="#63b8ff" stroke="#63b8ff" points="37.75,-87.3 34.25,-77.3 30.75,-87.3 37.75,-87.3"/>
</a>
</g>
</g>
<!-- Node4 -->
<g id="Node000004" class="node">
<title>Node4</title>
<g id="a_Node000004"><a xlink:title=" ">
<polygon fill="#e0e0e0" stroke="#999999" points="64.75,-20 3.75,-20 3.75,0 64.75,0 64.75,-20"/>
<text text-anchor="middle" x="34.25" y="-6.5" font-family="Helvetica,sans-Serif" font-size="10.00">windows.h</text>
</a>
</g>
</g>
<!-- Node3&#45;&gt;Node4 -->
<g id="edge3_Node000003_Node000004" class="edge">
<title>Node3&#45;&gt;Node4</title>
<g id="a_edge3_Node000003_Node000004"><a xlink:title=" ">
<path fill="none" stroke="#63b8ff" d="M34.25,-55.59C34.25,-48.86 34.25,-39.53 34.25,-31.15"/>
<polygon fill="#63b8ff" stroke="#63b8ff" points="37.75,-31.3 34.25,-21.3 30.75,-31.3 37.75,-31.3"/>
</a>
</g>
</g>
<!-- Node12 -->
<g id="Node000012" class="node">
<title>Node12</title>
<g id="a_Node000012"><a xlink:title=" ">
<polygon fill="#e0e0e0" stroke="#999999" points="423.25,-76 383.25,-76 383.25,-56 423.25,-56 423.25,-76"/>
<text text-anchor="middle" x="403.25" y="-62.5" font-family="Helvetica,sans-Serif" font-size="10.00">string</text>
</a>
</g>
</g>
<!-- Node11&#45;&gt;Node12 -->
<g id="edge11_Node000011_Node000012" class="edge">
<title>Node11&#45;&gt;Node12</title>
<g id="a_edge11_Node000011_Node000012"><a xlink:title=" ">
<path fill="none" stroke="#63b8ff" d="M574.91,-114.46C572,-113.62 569.06,-112.78 566.25,-112 509.99,-96.28 493.23,-93.42 433.83,-76.38"/>
<polygon fill="#63b8ff" stroke="#63b8ff" points="435.08,-72.81 424.5,-73.39 433.14,-79.53 435.08,-72.81"/>
</a>
</g>
</g>
<!-- Node13 -->
<g id="Node000013" class="node">
<title>Node13</title>
<g id="a_Node000013"><a xlink:title=" ">
<polygon fill="#e0e0e0" stroke="#999999" points="486.88,-76 441.62,-76 441.62,-56 486.88,-56 486.88,-76"/>
<text text-anchor="middle" x="464.25" y="-62.5" font-family="Helvetica,sans-Serif" font-size="10.00">xstring</text>
</a>
</g>
</g>
<!-- Node11&#45;&gt;Node13 -->
<g id="edge12_Node000011_Node000013" class="edge">
<title>Node11&#45;&gt;Node13</title>
<g id="a_edge12_Node000011_Node000013"><a xlink:title=" ">
<path fill="none" stroke="#63b8ff" d="M574.99,-111.96C553.73,-103.33 521.44,-90.22 497.2,-80.38"/>
<polygon fill="#63b8ff" stroke="#63b8ff" points="498.61,-76.77 488.03,-76.25 495.98,-83.25 498.61,-76.77"/>
</a>
</g>
</g>
<!-- Node14 -->
<g id="Node000014" class="node">
<title>Node14</title>
<g id="a_Node000014"><a xlink:title=" ">
<polygon fill="#e0e0e0" stroke="#999999" points="547.75,-76 504.75,-76 504.75,-56 547.75,-56 547.75,-76"/>
<text text-anchor="middle" x="526.25" y="-62.5" font-family="Helvetica,sans-Serif" font-size="10.00">format</text>
</a>
</g>
</g>
<!-- Node11&#45;&gt;Node14 -->
<g id="edge13_Node000011_Node000014" class="edge">
<title>Node11&#45;&gt;Node14</title>
<g id="a_edge13_Node000011_Node000014"><a xlink:title=" ">
<path fill="none" stroke="#63b8ff" d="M584.88,-111.59C574.5,-103.7 559.44,-92.24 547.18,-82.92"/>
<polygon fill="#63b8ff" stroke="#63b8ff" points="549.55,-79.57 539.48,-76.3 545.32,-85.14 549.55,-79.57"/>
</a>
</g>
</g>
<!-- Node15 -->
<g id="Node000015" class="node">
<title>Node15</title>
<g id="a_Node000015"><a xlink:title=" ">
<polygon fill="#e0e0e0" stroke="#999999" points="628.88,-76 565.62,-76 565.62,-56 628.88,-56 628.88,-76"/>
<text text-anchor="middle" x="597.25" y="-62.5" font-family="Helvetica,sans-Serif" font-size="10.00">debugapi.h</text>
</a>
</g>
</g>
<!-- Node11&#45;&gt;Node15 -->
<g id="edge14_Node000011_Node000015" class="edge">
<title>Node11&#45;&gt;Node15</title>
<g id="a_edge14_Node000011_Node000015"><a xlink:title=" ">
<path fill="none" stroke="#63b8ff" d="M597.25,-111.59C597.25,-104.86 597.25,-95.53 597.25,-87.15"/>
<polygon fill="#63b8ff" stroke="#63b8ff" points="600.75,-87.3 597.25,-77.3 593.75,-87.3 600.75,-87.3"/>
</a>
</g>
</g>
<!-- Node16 -->
<g id="Node000016" class="node">
<title>Node16</title>
<g id="a_Node000016"><a xlink:title=" ">
<polygon fill="#e0e0e0" stroke="#999999" points="688,-76 646.5,-76 646.5,-56 688,-56 688,-76"/>
<text text-anchor="middle" x="667.25" y="-62.5" font-family="Helvetica,sans-Serif" font-size="10.00">vector</text>
</a>
</g>
</g>
<!-- Node11&#45;&gt;Node16 -->
<g id="edge15_Node000011_Node000016" class="edge">
<title>Node11&#45;&gt;Node16</title>
<g id="a_edge15_Node000011_Node000016"><a xlink:title=" ">
<path fill="none" stroke="#63b8ff" d="M609.44,-111.59C619.68,-103.7 634.53,-92.24 646.62,-82.92"/>
<polygon fill="#63b8ff" stroke="#63b8ff" points="648.42,-85.18 654.2,-76.3 644.14,-79.64 648.42,-85.18"/>
</a>
</g>
</g>
<!-- Node17 -->
<g id="Node000017" class="node">
<title>Node17</title>
<g id="a_Node000017"><a xlink:title=" ">
<polygon fill="#e0e0e0" stroke="#999999" points="762.12,-76 706.38,-76 706.38,-56 762.12,-56 762.12,-76"/>
<text text-anchor="middle" x="734.25" y="-62.5" font-family="Helvetica,sans-Serif" font-size="10.00">algorithm</text>
</a>
</g>
</g>
<!-- Node11&#45;&gt;Node17 -->
<g id="edge16_Node000011_Node000017" class="edge">
<title>Node11&#45;&gt;Node17</title>
<g id="a_edge16_Node000011_Node000017"><a xlink:title=" ">
<path fill="none" stroke="#63b8ff" d="M619.57,-112.2C641.46,-103.57 675.13,-90.3 700.34,-80.37"/>
<polygon fill="#63b8ff" stroke="#63b8ff" points="701.54,-83.26 709.56,-76.34 698.98,-76.75 701.54,-83.26"/>
</a>
</g>
</g>
<!-- Node18 -->
<g id="Node000018" class="node">
<title>Node18</title>
<g id="a_Node000018"><a xlink:title=" ">
<polygon fill="#e0e0e0" stroke="#999999" points="892.62,-76 779.88,-76 779.88,-56 892.62,-56 892.62,-76"/>
<text text-anchor="middle" x="836.25" y="-62.5" font-family="Helvetica,sans-Serif" font-size="10.00">vcruntime_exception.h</text>
</a>
</g>
</g>
<!-- Node11&#45;&gt;Node18 -->
<g id="edge17_Node000011_Node000018" class="edge">
<title>Node11&#45;&gt;Node18</title>
<g id="a_edge17_Node000011_Node000018"><a xlink:title=" ">
<path fill="none" stroke="#63b8ff" d="M619.31,-116.02C656.42,-107.63 732.33,-90.48 783.76,-78.86"/>
<polygon fill="#63b8ff" stroke="#63b8ff" points="784.36,-82.09 793.35,-76.47 782.82,-75.26 784.36,-82.09"/>
</a>
</g>
</g>
</g>
</svg>

<g id="navigator" transform="translate(0 0)" fill="#404254">
  <rect fill="#f2f5e9" fill-opacity="0.5" stroke="#606060" stroke-width=".5" x="0" y="0" width="60" height="60"/>
  <use id="zoomplus" xlink:href="#zoomPlus" x="17" y="9" onmousedown="handleZoom(evt,'in')"/>
  <use id="zoomminus" xlink:href="#zoomMin" x="42" y="9" onmousedown="handleZoom(evt,'out')"/>
  <use id="reset" xlink:href="#resetDef" x="30" y="36" onmousedown="handleReset()"/>
   <use id="arrowup" xlink:href="#arrowUp" x="0" y="0" onmousedown="handlePan(0,-1)"/>
  <use id="arrowright" xlink:href="#arrowRight" x="0" y="0" onmousedown="handlePan(1,0)"/>
  <use id="arrowdown" xlink:href="#arrowDown" x="0" y="0" onmousedown="handlePan(0,1)"/>
  <use id="arrowleft" xlink:href="#arrowLeft" x="0" y="0" onmousedown="handlePan(-1,0)"/>
</g>
<svg viewBox="0 0 15 15" width="100%" height="30px" preserveAspectRatio="xMaxYMin meet">
 <g id="arrow_out" transform="scale(0.3 0.3)">
  <a xlink:href="_task_toolbar_8cpp__incl_org.svg" target="_base">
   <rect id="button" ry="5" rx="5" y="6" x="6" height="38" width="38"
        fill="#f2f5e9" fill-opacity="0.5" stroke="#606060" stroke-width="1.0"/>
   <path id="arrow"
     d="M 11.500037,31.436501 C 11.940474,20.09759 22.043105,11.32322 32.158766,21.979434 L 37.068811,17.246167 C 37.068811,17.246167 37.088388,32 37.088388,32 L 22.160133,31.978069 C 22.160133,31.978069 26.997745,27.140456 26.997745,27.140456 C 18.528582,18.264221 13.291696,25.230495 11.500037,31.436501 z"
     style="fill:#404040;"/>
  </a>
 </g>
</svg>

<style type='text/css'>
<![CDATA[
[data-mouse-over-selected='false'] { opacity: 0.7; }
[data-mouse-over-selected='true']  { opacity: 1.0; }
]]>
</style>
<script type="application/ecmascript"><![CDATA[
document.addEventListener('DOMContentLoaded', (event) => {
  highlightEdges();
  highlightAdjacentNodes();
});
]]></script>
</svg>
