<?xml version="1.0" encoding="UTF-8" standalone="no"?>
<!DOCTYPE svg PUBLIC "-//W3C//DTD SVG 1.1//EN"
 "http://www.w3.org/Graphics/SVG/1.1/DTD/svg11.dtd">
<!-- Generated by graphviz version 9.0.0 (20230911.1827)
 -->
<!-- Title: wiNpoS&#45;Hook/TaskToolbar.cpp Pages: 1 -->
<svg width="901pt" height="196pt"
 viewBox="0.00 0.00 900.62 196.00" xmlns="http://www.w3.org/2000/svg" xmlns:xlink="http://www.w3.org/1999/xlink">
<g id="graph0" class="graph" transform="scale(1 1) rotate(0) translate(4 192)">
<title>wiNpoS&#45;Hook/TaskToolbar.cpp</title>
<!-- Node1 -->
<g id="Node000001" class="node">
<title>Node1</title>
<g id="a_Node000001"><a xlink:title=" ">
<polygon fill="#999999" stroke="#666666" points="405.62,-188 256.88,-188 256.88,-168 405.62,-168 405.62,-188"/>
<text text-anchor="middle" x="331.25" y="-174.5" font-family="Helvetica,sans-Serif" font-size="10.00">wiNpoS&#45;Hook/TaskToolbar.cpp</text>
</a>
</g>
</g>
<!-- Node2 -->
<g id="Node000002" class="node">
<title>Node2</title>
<g id="a_Node000002"><a xlink:href="wi_npo_s-_hook_2pch_8h.html" target="_top" xlink:title=" ">
<polygon fill="white" stroke="#666666" points="54.25,-132 14.25,-132 14.25,-112 54.25,-112 54.25,-132"/>
<text text-anchor="middle" x="34.25" y="-118.5" font-family="Helvetica,sans-Serif" font-size="10.00">pch.h</text>
</a>
</g>
</g>
<!-- Node1&#45;&gt;Node2 -->
<g id="edge1_Node000001_Node000002" class="edge">
<title>Node1&#45;&gt;Node2</title>
<g id="a_edge1_Node000001_Node000002"><a xlink:title=" ">
<path fill="none" stroke="#63b8ff" d="M258.78,-167.53C207.2,-160.17 136.12,-148.77 65.33,-132.23"/>
<polygon fill="#63b8ff" stroke="#63b8ff" points="66.45,-128.9 55.91,-129.99 64.83,-135.71 66.45,-128.9"/>
</a>
</g>
</g>
<!-- Node5 -->
<g id="Node000005" class="node">
<title>Node5</title>
<g id="a_Node000005"><a xlink:href="_debug_new_8h.html" target="_top" xlink:title=" ">
<polygon fill="white" stroke="#666666" points="142.62,-132 71.88,-132 71.88,-112 142.62,-112 142.62,-132"/>
<text text-anchor="middle" x="107.25" y="-118.5" font-family="Helvetica,sans-Serif" font-size="10.00">DebugNew.h</text>
</a>
</g>
</g>
<!-- Node1&#45;&gt;Node5 -->
<g id="edge4_Node000001_Node000005" class="edge">
<title>Node1&#45;&gt;Node5</title>
<g id="a_edge4_Node000001_Node000005"><a xlink:title=" ">
<path fill="none" stroke="#63b8ff" d="M291.98,-167.53C253.44,-158.24 194.67,-144.07 153.8,-134.22"/>
<polygon fill="#63b8ff" stroke="#63b8ff" points="154.8,-130.86 144.25,-131.92 153.15,-137.67 154.8,-130.86"/>
</a>
</g>
</g>
<!-- Node6 -->
<g id="Node000006" class="node">
<title>Node6</title>
<g id="a_Node000006"><a xlink:href="_task_toolbar_8h.html" target="_top" xlink:title=" ">
<polygon fill="white" stroke="#666666" points="237.62,-132 160.88,-132 160.88,-112 237.62,-112 237.62,-132"/>
<text text-anchor="middle" x="199.25" y="-118.5" font-family="Helvetica,sans-Serif" font-size="10.00">TaskToolbar.h</text>
</a>
</g>
</g>
<!-- Node1&#45;&gt;Node6 -->
<g id="edge5_Node000001_Node000006" class="edge">
<title>Node1&#45;&gt;Node6</title>
<g id="a_edge5_Node000001_Node000006"><a xlink:title=" ">
<path fill="none" stroke="#63b8ff" d="M308.26,-167.59C287.47,-159.09 256.6,-146.46 233.01,-136.81"/>
<polygon fill="#63b8ff" stroke="#63b8ff" points="234.4,-133.6 223.82,-133.05 231.75,-140.08 234.4,-133.6"/>
</a>
</g>
</g>
<!-- Node7 -->
<g id="Node000007" class="node">
<title>Node7</title>
<g id="a_Node000007"><a xlink:href="wi_npo_s-_hook_2resource_8h.html" target="_top" xlink:title=" ">
<polygon fill="white" stroke="#666666" points="317.12,-132 255.38,-132 255.38,-112 317.12,-112 317.12,-132"/>
<text text-anchor="middle" x="286.25" y="-118.5" font-family="Helvetica,sans-Serif" font-size="10.00">resource.h</text>
</a>
</g>
</g>
<!-- Node1&#45;&gt;Node7 -->
<g id="edge6_Node000001_Node000007" class="edge">
<title>Node1&#45;&gt;Node7</title>
<g id="a_edge6_Node000001_Node000007"><a xlink:title=" ">
<path fill="none" stroke="#63b8ff" d="M323.41,-167.59C317.28,-160.24 308.58,-149.8 301.14,-140.87"/>
<polygon fill="#63b8ff" stroke="#63b8ff" points="304.06,-138.9 294.97,-133.46 298.68,-143.38 304.06,-138.9"/>
</a>
</g>
</g>
<!-- Node8 -->
<g id="Node000008" class="node">
<title>Node8</title>
<g id="a_Node000008"><a xlink:title=" ">
<polygon fill="#e0e0e0" stroke="#999999" points="416.88,-132 335.62,-132 335.62,-112 416.88,-112 416.88,-132"/>
<text text-anchor="middle" x="376.25" y="-118.5" font-family="Helvetica,sans-Serif" font-size="10.00">shobjidl_core.h</text>
</a>
</g>
</g>
<!-- Node1&#45;&gt;Node8 -->
<g id="edge7_Node000001_Node000008" class="edge">
<title>Node1&#45;&gt;Node8</title>
<g id="a_edge7_Node000001_Node000008"><a xlink:title=" ">
<path fill="none" stroke="#63b8ff" d="M339.09,-167.59C345.22,-160.24 353.92,-149.8 361.36,-140.87"/>
<polygon fill="#63b8ff" stroke="#63b8ff" points="363.82,-143.38 367.53,-133.46 358.44,-138.9 363.82,-143.38"/>
</a>
</g>
</g>
<!-- Node9 -->
<g id="Node000009" class="node">
<title>Node9</title>
<g id="a_Node000009"><a xlink:title=" ">
<polygon fill="#e0e0e0" stroke="#999999" points="488,-132 434.5,-132 434.5,-112 488,-112 488,-132"/>
<text text-anchor="middle" x="461.25" y="-118.5" font-family="Helvetica,sans-Serif" font-size="10.00">strsafe.h</text>
</a>
</g>
</g>
<!-- Node1&#45;&gt;Node9 -->
<g id="edge8_Node000001_Node000009" class="edge">
<title>Node1&#45;&gt;Node9</title>
<g id="a_edge8_Node000001_Node000009"><a xlink:title=" ">
<path fill="none" stroke="#63b8ff" d="M353.89,-167.59C374.37,-159.09 404.77,-146.46 428,-136.81"/>
<polygon fill="#63b8ff" stroke="#63b8ff" points="429.14,-140.13 437.03,-133.06 426.45,-133.66 429.14,-140.13"/>
</a>
</g>
</g>
<!-- Node10 -->
<g id="Node000010" class="node">
<title>Node10</title>
<g id="a_Node000010"><a xlink:title=" ">
<polygon fill="#e0e0e0" stroke="#999999" points="556.88,-132 505.62,-132 505.62,-112 556.88,-112 556.88,-132"/>
<text text-anchor="middle" x="531.25" y="-118.5" font-family="Helvetica,sans-Serif" font-size="10.00">assert.h</text>
</a>
</g>
</g>
<!-- Node1&#45;&gt;Node10 -->
<g id="edge9_Node000001_Node000010" class="edge">
<title>Node1&#45;&gt;Node10</title>
<g id="a_edge9_Node000001_Node000010"><a xlink:title=" ">
<path fill="none" stroke="#63b8ff" d="M366.09,-167.59C402.09,-157.87 458.06,-142.76 494.69,-132.87"/>
<polygon fill="#63b8ff" stroke="#63b8ff" points="495.19,-136.36 503.93,-130.38 493.36,-129.6 495.19,-136.36"/>
</a>
</g>
</g>
<!-- Node11 -->
<g id="Node000011" class="node">
<title>Node11</title>
<g id="a_Node000011"><a xlink:href="_utils_8h.html" target="_top" xlink:title=" ">
<polygon fill="white" stroke="#666666" points="619.12,-132 575.38,-132 575.38,-112 619.12,-112 619.12,-132"/>
<text text-anchor="middle" x="597.25" y="-118.5" font-family="Helvetica,sans-Serif" font-size="10.00">Utils.h</text>
</a>
</g>
</g>
<!-- Node1&#45;&gt;Node11 -->
<g id="edge10_Node000001_Node000011" class="edge">
<title>Node1&#45;&gt;Node11</title>
<g id="a_edge10_Node000001_Node000011"><a xlink:title=" ">
<path fill="none" stroke="#63b8ff" d="M388.55,-167.57C433.81,-159.77 498.78,-147.81 564.06,-132.35"/>
<polygon fill="#63b8ff" stroke="#63b8ff" points="564.58,-135.83 573.49,-130.09 562.95,-129.02 564.58,-135.83"/>
</a>
</g>
</g>
<!-- Node3 -->
<g id="Node000003" class="node">
<title>Node3</title>
<g id="a_Node000003"><a xlink:href="wi_npo_s-_hook_2framework_8h.html" target="_top" xlink:title=" ">
<polygon fill="white" stroke="#666666" points="68.5,-76 0,-76 0,-56 68.5,-56 68.5,-76"/>
<text text-anchor="middle" x="34.25" y="-62.5" font-family="Helvetica,sans-Serif" font-size="10.00">framework.h</text>
</a>
</g>
</g>
<!-- Node2&#45;&gt;Node3 -->
<g id="edge2_Node000002_Node000003" class="edge">
<title>Node2&#45;&gt;Node3</title>
<g id="a_edge2_Node000002_Node000003"><a xlink:title=" ">
<path fill="none" stroke="#63b8ff" d="M34.25,-111.59C34.25,-105.01 34.25,-95.96 34.25,-87.73"/>
<polygon fill="#63b8ff" stroke="#63b8ff" points="37.75,-87.81 34.25,-77.81 30.75,-87.81 37.75,-87.81"/>
</a>
</g>
</g>
<!-- Node4 -->
<g id="Node000004" class="node">
<title>Node4</title>
<g id="a_Node000004"><a xlink:title=" ">
<polygon fill="#e0e0e0" stroke="#999999" points="64.75,-20 3.75,-20 3.75,0 64.75,0 64.75,-20"/>
<text text-anchor="middle" x="34.25" y="-6.5" font-family="Helvetica,sans-Serif" font-size="10.00">windows.h</text>
</a>
</g>
</g>
<!-- Node3&#45;&gt;Node4 -->
<g id="edge3_Node000003_Node000004" class="edge">
<title>Node3&#45;&gt;Node4</title>
<g id="a_edge3_Node000003_Node000004"><a xlink:title=" ">
<path fill="none" stroke="#63b8ff" d="M34.25,-55.59C34.25,-49.01 34.25,-39.96 34.25,-31.73"/>
<polygon fill="#63b8ff" stroke="#63b8ff" points="37.75,-31.81 34.25,-21.81 30.75,-31.81 37.75,-31.81"/>
</a>
</g>
</g>
<!-- Node12 -->
<g id="Node000012" class="node">
<title>Node12</title>
<g id="a_Node000012"><a xlink:title=" ">
<polygon fill="#e0e0e0" stroke="#999999" points="423.25,-76 383.25,-76 383.25,-56 423.25,-56 423.25,-76"/>
<text text-anchor="middle" x="403.25" y="-62.5" font-family="Helvetica,sans-Serif" font-size="10.00">string</text>
</a>
</g>
</g>
<!-- Node11&#45;&gt;Node12 -->
<g id="edge11_Node000011_Node000012" class="edge">
<title>Node11&#45;&gt;Node12</title>
<g id="a_edge11_Node000011_Node000012"><a xlink:title=" ">
<path fill="none" stroke="#63b8ff" d="M574.91,-114.46C572,-113.62 569.06,-112.78 566.25,-112 510.11,-96.31 493.3,-93.43 434.2,-76.48"/>
<polygon fill="#63b8ff" stroke="#63b8ff" points="435.53,-73.22 424.96,-73.81 433.59,-79.95 435.53,-73.22"/>
</a>
</g>
</g>
<!-- Node13 -->
<g id="Node000013" class="node">
<title>Node13</title>
<g id="a_Node000013"><a xlink:title=" ">
<polygon fill="#e0e0e0" stroke="#999999" points="486.88,-76 441.62,-76 441.62,-56 486.88,-56 486.88,-76"/>
<text text-anchor="middle" x="464.25" y="-62.5" font-family="Helvetica,sans-Serif" font-size="10.00">xstring</text>
</a>
</g>
</g>
<!-- Node11&#45;&gt;Node13 -->
<g id="edge12_Node000011_Node000013" class="edge">
<title>Node11&#45;&gt;Node13</title>
<g id="a_edge12_Node000011_Node000013"><a xlink:title=" ">
<path fill="none" stroke="#63b8ff" d="M574.99,-111.96C553.83,-103.37 521.73,-90.34 497.53,-80.51"/>
<polygon fill="#63b8ff" stroke="#63b8ff" points="499.01,-77.34 488.43,-76.82 496.38,-83.82 499.01,-77.34"/>
</a>
</g>
</g>
<!-- Node14 -->
<g id="Node000014" class="node">
<title>Node14</title>
<g id="a_Node000014"><a xlink:title=" ">
<polygon fill="#e0e0e0" stroke="#999999" points="547.75,-76 504.75,-76 504.75,-56 547.75,-56 547.75,-76"/>
<text text-anchor="middle" x="526.25" y="-62.5" font-family="Helvetica,sans-Serif" font-size="10.00">format</text>
</a>
</g>
</g>
<!-- Node11&#45;&gt;Node14 -->
<g id="edge13_Node000011_Node000014" class="edge">
<title>Node11&#45;&gt;Node14</title>
<g id="a_edge13_Node000011_Node000014"><a xlink:title=" ">
<path fill="none" stroke="#63b8ff" d="M584.88,-111.59C574.6,-103.77 559.73,-92.46 547.54,-83.19"/>
<polygon fill="#63b8ff" stroke="#63b8ff" points="549.76,-80.48 539.68,-77.21 545.52,-86.05 549.76,-80.48"/>
</a>
</g>
</g>
<!-- Node15 -->
<g id="Node000015" class="node">
<title>Node15</title>
<g id="a_Node000015"><a xlink:title=" ">
<polygon fill="#e0e0e0" stroke="#999999" points="628.88,-76 565.62,-76 565.62,-56 628.88,-56 628.88,-76"/>
<text text-anchor="middle" x="597.25" y="-62.5" font-family="Helvetica,sans-Serif" font-size="10.00">debugapi.h</text>
</a>
</g>
</g>
<!-- Node11&#45;&gt;Node15 -->
<g id="edge14_Node000011_Node000015" class="edge">
<title>Node11&#45;&gt;Node15</title>
<g id="a_edge14_Node000011_Node000015"><a xlink:title=" ">
<path fill="none" stroke="#63b8ff" d="M597.25,-111.59C597.25,-105.01 597.25,-95.96 597.25,-87.73"/>
<polygon fill="#63b8ff" stroke="#63b8ff" points="600.75,-87.81 597.25,-77.81 593.75,-87.81 600.75,-87.81"/>
</a>
</g>
</g>
<!-- Node16 -->
<g id="Node000016" class="node">
<title>Node16</title>
<g id="a_Node000016"><a xlink:title=" ">
<polygon fill="#e0e0e0" stroke="#999999" points="688,-76 646.5,-76 646.5,-56 688,-56 688,-76"/>
<text text-anchor="middle" x="667.25" y="-62.5" font-family="Helvetica,sans-Serif" font-size="10.00">vector</text>
</a>
</g>
</g>
<!-- Node11&#45;&gt;Node16 -->
<g id="edge15_Node000011_Node000016" class="edge">
<title>Node11&#45;&gt;Node16</title>
<g id="a_edge15_Node000011_Node000016"><a xlink:title=" ">
<path fill="none" stroke="#63b8ff" d="M609.44,-111.59C619.58,-103.77 634.24,-92.46 646.26,-83.19"/>
<polygon fill="#63b8ff" stroke="#63b8ff" points="648.22,-86.1 654,-77.22 643.94,-80.56 648.22,-86.1"/>
</a>
</g>
</g>
<!-- Node17 -->
<g id="Node000017" class="node">
<title>Node17</title>
<g id="a_Node000017"><a xlink:title=" ">
<polygon fill="#e0e0e0" stroke="#999999" points="762.12,-76 706.38,-76 706.38,-56 762.12,-56 762.12,-76"/>
<text text-anchor="middle" x="734.25" y="-62.5" font-family="Helvetica,sans-Serif" font-size="10.00">algorithm</text>
</a>
</g>
</g>
<!-- Node11&#45;&gt;Node17 -->
<g id="edge16_Node000011_Node000017" class="edge">
<title>Node11&#45;&gt;Node17</title>
<g id="a_edge16_Node000011_Node000017"><a xlink:title=" ">
<path fill="none" stroke="#63b8ff" d="M619.57,-112.2C641.36,-103.61 674.83,-90.42 700,-80.5"/>
<polygon fill="#63b8ff" stroke="#63b8ff" points="701.14,-83.81 709.16,-76.89 698.57,-77.3 701.14,-83.81"/>
</a>
</g>
</g>
<!-- Node18 -->
<g id="Node000018" class="node">
<title>Node18</title>
<g id="a_Node000018"><a xlink:title=" ">
<polygon fill="#e0e0e0" stroke="#999999" points="892.62,-76 779.88,-76 779.88,-56 892.62,-56 892.62,-76"/>
<text text-anchor="middle" x="836.25" y="-62.5" font-family="Helvetica,sans-Serif" font-size="10.00">vcruntime_exception.h</text>
</a>
</g>
</g>
<!-- Node11&#45;&gt;Node18 -->
<g id="edge17_Node000011_Node000018" class="edge">
<title>Node11&#45;&gt;Node18</title>
<g id="a_edge17_Node000011_Node000018"><a xlink:title=" ">
<path fill="none" stroke="#63b8ff" d="M619.31,-116.02C656.26,-107.67 731.7,-90.62 783.12,-79"/>
<polygon fill="#63b8ff" stroke="#63b8ff" points="783.89,-82.42 792.87,-76.8 782.34,-75.59 783.89,-82.42"/>
</a>
</g>
</g>
</g>
</svg>
