<?xml version="1.0" encoding="UTF-8" standalone="no"?>
<!DOCTYPE svg PUBLIC "-//W3C//DTD SVG 1.1//EN"
 "http://www.w3.org/Graphics/SVG/1.1/DTD/svg11.dtd">
<!-- Generated by graphviz version 9.0.0 (20230911.1827)
 -->
<!-- Title: wiNpoS&#45;Shared/Utils.h Pages: 1 -->
<svg width="1276pt" height="252pt"
 viewBox="0.00 0.00 1275.58 252.00" xmlns="http://www.w3.org/2000/svg" xmlns:xlink="http://www.w3.org/1999/xlink">
<g id="graph0" class="graph" transform="scale(1 1) rotate(0) translate(4 248)">
<title>wiNpoS&#45;Shared/Utils.h</title>
<!-- Node1 -->
<g id="Node000001" class="node">
<title>Node1</title>
<g id="a_Node000001"><a xlink:title=" ">
<polygon fill="#999999" stroke="#666666" points="648.48,-244 534.98,-244 534.98,-224 648.48,-224 648.48,-244"/>
<text text-anchor="middle" x="591.73" y="-230.5" font-family="Helvetica,sans-Serif" font-size="10.00">wiNpoS&#45;Shared/Utils.h</text>
</a>
</g>
</g>
<!-- Node2 -->
<g id="Node000002" class="node">
<title>Node2</title>
<g id="a_Node000002"><a xlink:href="wi_npo_s-_app_8cpp.html" target="_top" xlink:title=" ">
<polygon fill="white" stroke="#666666" points="663.86,-132 519.61,-132 519.61,-112 663.86,-112 663.86,-132"/>
<text text-anchor="middle" x="591.73" y="-118.5" font-family="Helvetica,sans-Serif" font-size="10.00">wiNpoS&#45;App/wiNpoS&#45;App.cpp</text>
</a>
</g>
</g>
<!-- Node1&#45;&gt;Node2 -->
<g id="edge1_Node000001_Node000002" class="edge">
<title>Node1&#45;&gt;Node2</title>
<g id="a_edge1_Node000001_Node000002"><a xlink:title=" ">
<path fill="none" stroke="#63b8ff" d="M591.73,-212.31C591.73,-188.36 591.73,-149.95 591.73,-132.35"/>
<polygon fill="#63b8ff" stroke="#63b8ff" points="588.23,-212.11 591.73,-222.11 595.23,-212.11 588.23,-212.11"/>
</a>
</g>
</g>
<!-- Node3 -->
<g id="Node000003" class="node">
<title>Node3</title>
<g id="a_Node000003"><a xlink:href="_hooks_impl_8cpp.html" target="_top" xlink:title=" ">
<polygon fill="white" stroke="#666666" points="584.73,-20 442.73,-20 442.73,0 584.73,0 584.73,-20"/>
<text text-anchor="middle" x="513.73" y="-6.5" font-family="Helvetica,sans-Serif" font-size="10.00">wiNpoS&#45;Hook/HooksImpl.cpp</text>
</a>
</g>
</g>
<!-- Node1&#45;&gt;Node3 -->
<g id="edge2_Node000001_Node000003" class="edge">
<title>Node1&#45;&gt;Node3</title>
<g id="a_edge2_Node000001_Node000003"><a xlink:title=" ">
<path fill="none" stroke="#63b8ff" d="M523.33,-233.19C380.38,-231.84 58.71,-218.99 4.73,-132 -42.95,-55.16 291.5,-24.65 442.47,-14.88"/>
<polygon fill="#63b8ff" stroke="#63b8ff" points="523,-236.69 533.03,-233.27 523.06,-229.69 523,-236.69"/>
</a>
</g>
</g>
<!-- Node4 -->
<g id="Node000004" class="node">
<title>Node4</title>
<g id="a_Node000004"><a xlink:href="_task_toolbar_8cpp.html" target="_top" xlink:title=" ">
<polygon fill="white" stroke="#666666" points="308.11,-188 159.36,-188 159.36,-168 308.11,-168 308.11,-188"/>
<text text-anchor="middle" x="233.73" y="-174.5" font-family="Helvetica,sans-Serif" font-size="10.00">wiNpoS&#45;Hook/TaskToolbar.cpp</text>
</a>
</g>
</g>
<!-- Node1&#45;&gt;Node4 -->
<g id="edge3_Node000001_Node000004" class="edge">
<title>Node1&#45;&gt;Node4</title>
<g id="a_edge3_Node000001_Node000004"><a xlink:title=" ">
<path fill="none" stroke="#63b8ff" d="M523.6,-222.72C458.22,-212.86 360.27,-198.09 296.68,-188.49"/>
<polygon fill="#63b8ff" stroke="#63b8ff" points="522.7,-226.13 533.11,-224.16 523.75,-219.21 522.7,-226.13"/>
</a>
</g>
</g>
<!-- Node5 -->
<g id="Node000005" class="node">
<title>Node5</title>
<g id="a_Node000005"><a xlink:href="_win_pos_wnd_8cpp.html" target="_top" xlink:title=" ">
<polygon fill="white" stroke="#666666" points="1128.23,-76 977.23,-76 977.23,-56 1128.23,-56 1128.23,-76"/>
<text text-anchor="middle" x="1052.73" y="-62.5" font-family="Helvetica,sans-Serif" font-size="10.00">wiNpoS&#45;Hook/WinPosWnd.cpp</text>
</a>
</g>
</g>
<!-- Node1&#45;&gt;Node5 -->
<g id="edge4_Node000001_Node000005" class="edge">
<title>Node1&#45;&gt;Node5</title>
<g id="a_edge4_Node000001_Node000005"><a xlink:title=" ">
<path fill="none" stroke="#63b8ff" d="M660.27,-232.09C794.13,-229.61 1085.45,-220.52 1179.73,-188 1222.15,-173.37 1242.56,-171.56 1263.73,-132 1267.93,-124.16 1269.32,-118.91 1263.73,-112 1246.74,-91 1181.9,-79.38 1128.54,-73.23"/>
<polygon fill="#63b8ff" stroke="#63b8ff" points="660.43,-228.59 650.49,-232.26 660.55,-235.59 660.43,-228.59"/>
</a>
</g>
</g>
<!-- Node6 -->
<g id="Node000006" class="node">
<title>Node6</title>
<g id="a_Node000006"><a xlink:href="_win_pos_wnd_8h.html" target="_top" xlink:title=" ">
<polygon fill="white" stroke="#666666" points="1024.98,-132 884.48,-132 884.48,-112 1024.98,-112 1024.98,-132"/>
<text text-anchor="middle" x="954.73" y="-118.5" font-family="Helvetica,sans-Serif" font-size="10.00">wiNpoS&#45;Hook/WinPosWnd.h</text>
</a>
</g>
</g>
<!-- Node1&#45;&gt;Node6 -->
<g id="edge5_Node000001_Node000006" class="edge">
<title>Node1&#45;&gt;Node6</title>
<g id="a_edge5_Node000001_Node000006"><a xlink:title=" ">
<path fill="none" stroke="#63b8ff" d="M653.36,-221.25C692.27,-213.24 743.39,-201.64 787.73,-188 841.26,-171.53 902.08,-146.09 933.47,-132.43"/>
<polygon fill="#63b8ff" stroke="#63b8ff" points="652.8,-217.79 643.69,-223.21 654.19,-224.65 652.8,-217.79"/>
</a>
</g>
</g>
<!-- Node8 -->
<g id="Node000008" class="node">
<title>Node8</title>
<g id="a_Node000008"><a xlink:href="wi_npo_s-_hook_2dllmain_8cpp.html" target="_top" xlink:title=" ">
<polygon fill="white" stroke="#666666" points="141.23,-132 14.23,-132 14.23,-112 141.23,-112 141.23,-132"/>
<text text-anchor="middle" x="77.73" y="-118.5" font-family="Helvetica,sans-Serif" font-size="10.00">wiNpoS&#45;Hook/dllmain.cpp</text>
</a>
</g>
</g>
<!-- Node1&#45;&gt;Node8 -->
<g id="edge9_Node000001_Node000008" class="edge">
<title>Node1&#45;&gt;Node8</title>
<g id="a_edge9_Node000001_Node000008"><a xlink:title=" ">
<path fill="none" stroke="#63b8ff" d="M523.42,-231.14C416.67,-227.38 215.81,-216.64 150.73,-188 121.84,-175.29 96.4,-146.73 84.64,-132.07"/>
<polygon fill="#63b8ff" stroke="#63b8ff" points="523.07,-234.63 533.19,-231.47 523.31,-227.63 523.07,-234.63"/>
</a>
</g>
</g>
<!-- Node9 -->
<g id="Node000009" class="node">
<title>Node9</title>
<g id="a_Node000009"><a xlink:href="_hooks_cfg_8cpp.html" target="_top" xlink:title=" ">
<polygon fill="white" stroke="#666666" points="865.98,-132 719.48,-132 719.48,-112 865.98,-112 865.98,-132"/>
<text text-anchor="middle" x="792.73" y="-118.5" font-family="Helvetica,sans-Serif" font-size="10.00">wiNpoS&#45;Shared/HooksCfg.cpp</text>
</a>
</g>
</g>
<!-- Node1&#45;&gt;Node9 -->
<g id="edge10_Node000001_Node000009" class="edge">
<title>Node1&#45;&gt;Node9</title>
<g id="a_edge10_Node000001_Node000009"><a xlink:title=" ">
<path fill="none" stroke="#63b8ff" d="M659.97,-229.94C695.49,-225.05 737.5,-213.69 766.73,-188 783.35,-173.4 789.48,-146.7 791.64,-132.49"/>
<polygon fill="#63b8ff" stroke="#63b8ff" points="659.69,-226.44 650.18,-231.12 660.53,-233.39 659.69,-226.44"/>
</a>
</g>
</g>
<!-- Node10 -->
<g id="Node000010" class="node">
<title>Node10</title>
<g id="a_Node000010"><a xlink:href="_hooks_cfg_8h.html" target="_top" xlink:title=" ">
<polygon fill="white" stroke="#666666" points="757.73,-188 621.73,-188 621.73,-168 757.73,-168 757.73,-188"/>
<text text-anchor="middle" x="689.73" y="-174.5" font-family="Helvetica,sans-Serif" font-size="10.00">wiNpoS&#45;Shared/HooksCfg.h</text>
</a>
</g>
</g>
<!-- Node1&#45;&gt;Node10 -->
<g id="edge11_Node000001_Node000010" class="edge">
<title>Node1&#45;&gt;Node10</title>
<g id="a_edge11_Node000001_Node000010"><a xlink:title=" ">
<path fill="none" stroke="#63b8ff" d="M618.81,-218.08C635.98,-208.62 657.68,-196.66 672.53,-188.48"/>
<polygon fill="#63b8ff" stroke="#63b8ff" points="617.2,-214.97 610.13,-222.86 620.58,-221.1 617.2,-214.97"/>
</a>
</g>
</g>
<!-- Node11 -->
<g id="Node000011" class="node">
<title>Node11</title>
<g id="a_Node000011"><a xlink:href="_hooks_mgr_8cpp.html" target="_top" xlink:title=" ">
<polygon fill="white" stroke="#666666" points="308.11,-132 159.36,-132 159.36,-112 308.11,-112 308.11,-132"/>
<text text-anchor="middle" x="233.73" y="-118.5" font-family="Helvetica,sans-Serif" font-size="10.00">wiNpoS&#45;Shared/HooksMgr.cpp</text>
</a>
</g>
</g>
<!-- Node1&#45;&gt;Node11 -->
<g id="edge15_Node000001_Node000011" class="edge">
<title>Node1&#45;&gt;Node11</title>
<g id="a_edge15_Node000001_Node000011"><a xlink:title=" ">
<path fill="none" stroke="#63b8ff" d="M523.68,-225.68C475.51,-219.16 409.92,-207.54 354.73,-188 352.01,-187.03 283.92,-150.2 251.11,-132.42"/>
<polygon fill="#63b8ff" stroke="#63b8ff" points="523.04,-229.13 533.41,-226.96 523.95,-222.19 523.04,-229.13"/>
</a>
</g>
</g>
<!-- Node12 -->
<g id="Node000012" class="node">
<title>Node12</title>
<g id="a_Node000012"><a xlink:href="_hooks_mgr_8h.html" target="_top" xlink:title=" ">
<polygon fill="white" stroke="#666666" points="501.86,-188 363.61,-188 363.61,-168 501.86,-168 501.86,-188"/>
<text text-anchor="middle" x="432.73" y="-174.5" font-family="Helvetica,sans-Serif" font-size="10.00">wiNpoS&#45;Shared/HooksMgr.h</text>
</a>
</g>
</g>
<!-- Node1&#45;&gt;Node12 -->
<g id="edge16_Node000001_Node000012" class="edge">
<title>Node1&#45;&gt;Node12</title>
<g id="a_edge16_Node000001_Node000012"><a xlink:title=" ">
<path fill="none" stroke="#63b8ff" d="M553.22,-219.92C524.64,-210.21 486.32,-197.2 460.64,-188.48"/>
<polygon fill="#63b8ff" stroke="#63b8ff" points="552.01,-223.21 562.6,-223.11 554.26,-216.58 552.01,-223.21"/>
</a>
</g>
</g>
<!-- Node13 -->
<g id="Node000013" class="node">
<title>Node13</title>
<g id="a_Node000013"><a xlink:href="wi_npo_s-_support_2dllmain_8cpp.html" target="_top" xlink:title=" ">
<polygon fill="white" stroke="#666666" points="501.86,-132 363.61,-132 363.61,-112 501.86,-112 501.86,-132"/>
<text text-anchor="middle" x="432.73" y="-118.5" font-family="Helvetica,sans-Serif" font-size="10.00">wiNpoS&#45;Support/dllmain.cpp</text>
</a>
</g>
</g>
<!-- Node1&#45;&gt;Node13 -->
<g id="edge28_Node000001_Node000013" class="edge">
<title>Node1&#45;&gt;Node13</title>
<g id="a_edge28_Node000001_Node000013"><a xlink:title=" ">
<path fill="none" stroke="#63b8ff" d="M572.67,-216.32C556.65,-202.64 532.88,-183.14 510.73,-168 490.99,-154.5 466.98,-141.06 450.86,-132.44"/>
<polygon fill="#63b8ff" stroke="#63b8ff" points="570.13,-218.75 579.99,-222.63 574.7,-213.45 570.13,-218.75"/>
</a>
</g>
</g>
<!-- Node14 -->
<g id="Node000014" class="node">
<title>Node14</title>
<g id="a_Node000014"><a xlink:href="_utils_8cpp.html" target="_top" xlink:title=" ">
<polygon fill="white" stroke="#666666" points="1170.73,-188 1046.73,-188 1046.73,-168 1170.73,-168 1170.73,-188"/>
<text text-anchor="middle" x="1108.73" y="-174.5" font-family="Helvetica,sans-Serif" font-size="10.00">wiNpoS&#45;Shared/Utils.cpp</text>
</a>
</g>
</g>
<!-- Node1&#45;&gt;Node14 -->
<g id="edge22_Node000001_Node000014" class="edge">
<title>Node1&#45;&gt;Node14</title>
<g id="a_edge22_Node000001_Node000014"><a xlink:title=" ">
<path fill="none" stroke="#63b8ff" d="M660.18,-226.64C747.77,-218.38 904.16,-203.2 1037.73,-188 1040.57,-187.68 1043.47,-187.34 1046.41,-186.99"/>
<polygon fill="#63b8ff" stroke="#63b8ff" points="659.94,-223.15 650.32,-227.57 660.6,-230.12 659.94,-223.15"/>
</a>
</g>
</g>
<!-- Node15 -->
<g id="Node000015" class="node">
<title>Node15</title>
<g id="a_Node000015"><a xlink:href="_win_pos_wnd_cfg_8h.html" target="_top" xlink:title=" ">
<polygon fill="white" stroke="#666666" points="1028.23,-188 865.23,-188 865.23,-168 1028.23,-168 1028.23,-188"/>
<text text-anchor="middle" x="946.73" y="-174.5" font-family="Helvetica,sans-Serif" font-size="10.00">wiNpoS&#45;Shared/WinPosWndCfg.h</text>
</a>
</g>
</g>
<!-- Node1&#45;&gt;Node15 -->
<g id="edge23_Node000001_Node000015" class="edge">
<title>Node1&#45;&gt;Node15</title>
<g id="a_edge23_Node000001_Node000015"><a xlink:title=" ">
<path fill="none" stroke="#63b8ff" d="M660.1,-222.6C724.98,-212.73 821.67,-198.02 884.46,-188.47"/>
<polygon fill="#63b8ff" stroke="#63b8ff" points="659.63,-219.13 650.27,-224.1 660.68,-226.05 659.63,-219.13"/>
</a>
</g>
</g>
<!-- Node6&#45;&gt;Node5 -->
<g id="edge8_Node000006_Node000005" class="edge">
<title>Node6&#45;&gt;Node5</title>
<g id="a_edge8_Node000006_Node000005"><a xlink:title=" ">
<path fill="none" stroke="#63b8ff" d="M981.81,-106.08C998.98,-96.62 1020.68,-84.66 1035.53,-76.48"/>
<polygon fill="#63b8ff" stroke="#63b8ff" points="980.2,-102.97 973.13,-110.86 983.58,-109.1 980.2,-102.97"/>
</a>
</g>
</g>
<!-- Node7 -->
<g id="Node000007" class="node">
<title>Node7</title>
<g id="a_Node000007"><a xlink:href="_hooks_impl_8h.html" target="_top" xlink:title=" ">
<polygon fill="white" stroke="#666666" points="905.48,-76 773.98,-76 773.98,-56 905.48,-56 905.48,-76"/>
<text text-anchor="middle" x="839.73" y="-62.5" font-family="Helvetica,sans-Serif" font-size="10.00">wiNpoS&#45;Hook/HooksImpl.h</text>
</a>
</g>
</g>
<!-- Node6&#45;&gt;Node7 -->
<g id="edge6_Node000006_Node000007" class="edge">
<title>Node6&#45;&gt;Node7</title>
<g id="a_edge6_Node000006_Node000007"><a xlink:title=" ">
<path fill="none" stroke="#63b8ff" d="M924.38,-106.75C904.01,-97.18 877.75,-84.85 859.92,-76.48"/>
<polygon fill="#63b8ff" stroke="#63b8ff" points="922.79,-109.87 933.33,-110.95 925.77,-103.53 922.79,-109.87"/>
</a>
</g>
</g>
<!-- Node7&#45;&gt;Node3 -->
<g id="edge7_Node000007_Node000003" class="edge">
<title>Node7&#45;&gt;Node3</title>
<g id="a_edge7_Node000007_Node000003"><a xlink:title=" ">
<path fill="none" stroke="#63b8ff" d="M771.41,-53.68C711.94,-43.83 626.73,-29.72 570.82,-20.46"/>
<polygon fill="#63b8ff" stroke="#63b8ff" points="770.64,-57.1 781.08,-55.28 771.79,-50.2 770.64,-57.1"/>
</a>
</g>
</g>
<!-- Node10&#45;&gt;Node2 -->
<g id="edge12_Node000010_Node000002" class="edge">
<title>Node10&#45;&gt;Node2</title>
<g id="a_edge12_Node000010_Node000002"><a xlink:title=" ">
<path fill="none" stroke="#63b8ff" d="M662.66,-162.08C645.48,-152.62 623.78,-140.66 608.94,-132.48"/>
<polygon fill="#63b8ff" stroke="#63b8ff" points="660.89,-165.1 671.34,-166.86 664.27,-158.97 660.89,-165.1"/>
</a>
</g>
</g>
<!-- Node10&#45;&gt;Node3 -->
<g id="edge13_Node000010_Node000003" class="edge">
<title>Node10&#45;&gt;Node3</title>
<g id="a_edge13_Node000010_Node000003"><a xlink:title=" ">
<path fill="none" stroke="#63b8ff" d="M688.27,-156.53C686.41,-142.83 682.21,-124.99 672.73,-112 638.52,-65.11 575.31,-34.69 539.76,-20.44"/>
<polygon fill="#63b8ff" stroke="#63b8ff" points="684.76,-156.6 689.25,-166.19 691.72,-155.89 684.76,-156.6"/>
</a>
</g>
</g>
<!-- Node10&#45;&gt;Node9 -->
<g id="edge14_Node000010_Node000009" class="edge">
<title>Node10&#45;&gt;Node9</title>
<g id="a_edge14_Node000010_Node000009"><a xlink:title=" ">
<path fill="none" stroke="#63b8ff" d="M717.68,-162.35C735.81,-152.84 758.9,-140.74 774.65,-132.48"/>
<polygon fill="#63b8ff" stroke="#63b8ff" points="716.25,-159.15 709.01,-166.89 719.5,-165.35 716.25,-159.15"/>
</a>
</g>
</g>
<!-- Node12&#45;&gt;Node2 -->
<g id="edge17_Node000012_Node000002" class="edge">
<title>Node12&#45;&gt;Node2</title>
<g id="a_edge17_Node000012_Node000002"><a xlink:title=" ">
<path fill="none" stroke="#63b8ff" d="M471.24,-163.92C499.83,-154.21 538.14,-141.2 563.82,-132.48"/>
<polygon fill="#63b8ff" stroke="#63b8ff" points="470.2,-160.58 461.86,-167.11 472.46,-167.21 470.2,-160.58"/>
</a>
</g>
</g>
<!-- Node12&#45;&gt;Node3 -->
<g id="edge18_Node000012_Node000003" class="edge">
<title>Node12&#45;&gt;Node3</title>
<g id="a_edge18_Node000012_Node000003"><a xlink:title=" ">
<path fill="none" stroke="#63b8ff" d="M393.49,-163.11C368.38,-151.8 342.59,-134.1 354.73,-112 381.9,-62.56 444.65,-33.89 482.69,-20.45"/>
<polygon fill="#63b8ff" stroke="#63b8ff" points="392.13,-166.34 402.71,-166.98 394.84,-159.88 392.13,-166.34"/>
</a>
</g>
</g>
<!-- Node12&#45;&gt;Node8 -->
<g id="edge19_Node000012_Node000008" class="edge">
<title>Node12&#45;&gt;Node8</title>
<g id="a_edge19_Node000012_Node000008"><a xlink:title=" ">
<path fill="none" stroke="#63b8ff" d="M359.14,-165.81C294.34,-155.95 201.03,-141.76 139.9,-132.46"/>
<polygon fill="#63b8ff" stroke="#63b8ff" points="358.58,-169.26 368.99,-167.3 359.63,-162.34 358.58,-169.26"/>
</a>
</g>
</g>
<!-- Node12&#45;&gt;Node11 -->
<g id="edge20_Node000012_Node000011" class="edge">
<title>Node12&#45;&gt;Node11</title>
<g id="a_edge20_Node000012_Node000011"><a xlink:title=" ">
<path fill="none" stroke="#63b8ff" d="M387.36,-164.69C351.31,-154.91 301.66,-141.43 268.67,-132.48"/>
<polygon fill="#63b8ff" stroke="#63b8ff" points="386.04,-167.96 396.61,-167.2 387.87,-161.2 386.04,-167.96"/>
</a>
</g>
</g>
<!-- Node12&#45;&gt;Node13 -->
<g id="edge21_Node000012_Node000013" class="edge">
<title>Node12&#45;&gt;Node13</title>
<g id="a_edge21_Node000012_Node000013"><a xlink:title=" ">
<path fill="none" stroke="#63b8ff" d="M432.73,-156.13C432.73,-147.9 432.73,-138.85 432.73,-132.3"/>
<polygon fill="#63b8ff" stroke="#63b8ff" points="429.23,-156.08 432.73,-166.08 436.23,-156.08 429.23,-156.08"/>
</a>
</g>
</g>
<!-- Node15&#45;&gt;Node5 -->
<g id="edge24_Node000015_Node000005" class="edge">
<title>Node15&#45;&gt;Node5</title>
<g id="a_edge24_Node000015_Node000005"><a xlink:title=" ">
<path fill="none" stroke="#63b8ff" d="M988.88,-163.38C1004.92,-156.3 1022.12,-146.11 1033.73,-132 1047.19,-115.66 1051.11,-90.17 1052.26,-76.47"/>
<polygon fill="#63b8ff" stroke="#63b8ff" points="987.91,-159.99 979.98,-167.02 990.56,-166.47 987.91,-159.99"/>
</a>
</g>
</g>
<!-- Node15&#45;&gt;Node6 -->
<g id="edge25_Node000015_Node000006" class="edge">
<title>Node15&#45;&gt;Node6</title>
<g id="a_edge25_Node000015_Node000006"><a xlink:title=" ">
<path fill="none" stroke="#63b8ff" d="M949.78,-156.43C951.01,-148.11 952.37,-138.93 953.36,-132.3"/>
<polygon fill="#63b8ff" stroke="#63b8ff" points="946.35,-155.69 948.35,-166.1 953.28,-156.72 946.35,-155.69"/>
</a>
</g>
</g>
<!-- Node15&#45;&gt;Node9 -->
<g id="edge26_Node000015_Node000009" class="edge">
<title>Node15&#45;&gt;Node9</title>
<g id="a_edge26_Node000015_Node000009"><a xlink:title=" ">
<path fill="none" stroke="#63b8ff" d="M909.06,-163.79C881.42,-154.1 844.53,-141.16 819.77,-132.48"/>
<polygon fill="#63b8ff" stroke="#63b8ff" points="907.88,-167.09 918.48,-167.09 910.2,-160.48 907.88,-167.09"/>
</a>
</g>
</g>
<!-- Node16 -->
<g id="Node000016" class="node">
<title>Node16</title>
<g id="a_Node000016"><a xlink:href="_win_pos_wnd_cfg_8cpp.html" target="_top" xlink:title=" ">
<polygon fill="white" stroke="#666666" points="1254.48,-132 1080.98,-132 1080.98,-112 1254.48,-112 1254.48,-132"/>
<text text-anchor="middle" x="1167.73" y="-118.5" font-family="Helvetica,sans-Serif" font-size="10.00">wiNpoS&#45;Shared/WinPosWndCfg.cpp</text>
</a>
</g>
</g>
<!-- Node15&#45;&gt;Node16 -->
<g id="edge27_Node000015_Node000016" class="edge">
<title>Node15&#45;&gt;Node16</title>
<g id="a_edge27_Node000015_Node000016"><a xlink:title=" ">
<path fill="none" stroke="#63b8ff" d="M996.61,-164.81C1036.71,-155.01 1092.23,-141.45 1129.03,-132.46"/>
<polygon fill="#63b8ff" stroke="#63b8ff" points="995.83,-161.4 986.95,-167.17 997.5,-168.2 995.83,-161.4"/>
</a>
</g>
</g>
</g>
</svg>
