<?xml version="1.0" encoding="UTF-8" standalone="no"?>
<!DOCTYPE svg PUBLIC "-//W3C//DTD SVG 1.1//EN"
 "http://www.w3.org/Graphics/SVG/1.1/DTD/svg11.dtd">
<!-- Generated by graphviz version 8.1.0 (20230707.0739)
 -->
<!-- Title: wiNpoS&#45;Shared/Utils.h Pages: 1 -->
<svg width="517pt" height="84pt"
 viewBox="0.00 0.00 517.38 84.00" xmlns="http://www.w3.org/2000/svg" xmlns:xlink="http://www.w3.org/1999/xlink">
<g id="graph0" class="graph" transform="scale(1 1) rotate(0) translate(4 80)">
<title>wiNpoS&#45;Shared/Utils.h</title>
<!-- Node1 -->
<g id="Node000001" class="node">
<title>Node1</title>
<g id="a_Node000001"><a xlink:title=" ">
<polygon fill="#999999" stroke="#666666" points="270.75,-76 157.25,-76 157.25,-56 270.75,-56 270.75,-76"/>
<text text-anchor="middle" x="214" y="-62.5" font-family="Helvetica,sans-Serif" font-size="10.00">wiNpoS&#45;Shared/Utils.h</text>
</a>
</g>
</g>
<!-- Node2 -->
<g id="Node000002" class="node">
<title>Node2</title>
<g id="a_Node000002"><a xlink:title=" ">
<polygon fill="#e0e0e0" stroke="#999999" points="40,-20 0,-20 0,0 40,0 40,-20"/>
<text text-anchor="middle" x="20" y="-6.5" font-family="Helvetica,sans-Serif" font-size="10.00">string</text>
</a>
</g>
</g>
<!-- Node1&#45;&gt;Node2 -->
<g id="edge1_Node000001_Node000002" class="edge">
<title>Node1&#45;&gt;Node2</title>
<g id="a_edge1_Node000001_Node000002"><a xlink:title=" ">
<path fill="none" stroke="#63b8ff" d="M177.85,-55.53C146.58,-47.25 99.9,-34.69 50.77,-20.45"/>
<polygon fill="#63b8ff" stroke="#63b8ff" points="51.83,-16.82 41.25,-17.38 49.88,-23.54 51.83,-16.82"/>
</a>
</g>
</g>
<!-- Node3 -->
<g id="Node000003" class="node">
<title>Node3</title>
<g id="a_Node000003"><a xlink:title=" ">
<polygon fill="#e0e0e0" stroke="#999999" points="103.62,-20 58.38,-20 58.38,0 103.62,0 103.62,-20"/>
<text text-anchor="middle" x="81" y="-6.5" font-family="Helvetica,sans-Serif" font-size="10.00">xstring</text>
</a>
</g>
</g>
<!-- Node1&#45;&gt;Node3 -->
<g id="edge2_Node000001_Node000003" class="edge">
<title>Node1&#45;&gt;Node3</title>
<g id="a_edge2_Node000001_Node000003"><a xlink:title=" ">
<path fill="none" stroke="#63b8ff" d="M190.83,-55.59C169.57,-46.96 137.83,-34.08 113.94,-24.37"/>
<polygon fill="#63b8ff" stroke="#63b8ff" points="115.48,-20.82 104.9,-20.3 112.85,-27.3 115.48,-20.82"/>
</a>
</g>
</g>
<!-- Node4 -->
<g id="Node000004" class="node">
<title>Node4</title>
<g id="a_Node000004"><a xlink:title=" ">
<polygon fill="#e0e0e0" stroke="#999999" points="164.5,-20 121.5,-20 121.5,0 164.5,0 164.5,-20"/>
<text text-anchor="middle" x="143" y="-6.5" font-family="Helvetica,sans-Serif" font-size="10.00">format</text>
</a>
</g>
</g>
<!-- Node1&#45;&gt;Node4 -->
<g id="edge3_Node000001_Node000004" class="edge">
<title>Node1&#45;&gt;Node4</title>
<g id="a_edge3_Node000001_Node000004"><a xlink:title=" ">
<path fill="none" stroke="#63b8ff" d="M201.63,-55.59C191.25,-47.7 176.19,-36.24 163.93,-26.92"/>
<polygon fill="#63b8ff" stroke="#63b8ff" points="166.3,-23.57 156.23,-20.3 162.07,-29.14 166.3,-23.57"/>
</a>
</g>
</g>
<!-- Node5 -->
<g id="Node000005" class="node">
<title>Node5</title>
<g id="a_Node000005"><a xlink:title=" ">
<polygon fill="#e0e0e0" stroke="#999999" points="245.62,-20 182.38,-20 182.38,0 245.62,0 245.62,-20"/>
<text text-anchor="middle" x="214" y="-6.5" font-family="Helvetica,sans-Serif" font-size="10.00">debugapi.h</text>
</a>
</g>
</g>
<!-- Node1&#45;&gt;Node5 -->
<g id="edge4_Node000001_Node000005" class="edge">
<title>Node1&#45;&gt;Node5</title>
<g id="a_edge4_Node000001_Node000005"><a xlink:title=" ">
<path fill="none" stroke="#63b8ff" d="M214,-55.59C214,-48.86 214,-39.53 214,-31.15"/>
<polygon fill="#63b8ff" stroke="#63b8ff" points="217.5,-31.3 214,-21.3 210.5,-31.3 217.5,-31.3"/>
</a>
</g>
</g>
<!-- Node6 -->
<g id="Node000006" class="node">
<title>Node6</title>
<g id="a_Node000006"><a xlink:title=" ">
<polygon fill="#e0e0e0" stroke="#999999" points="304.75,-20 263.25,-20 263.25,0 304.75,0 304.75,-20"/>
<text text-anchor="middle" x="284" y="-6.5" font-family="Helvetica,sans-Serif" font-size="10.00">vector</text>
</a>
</g>
</g>
<!-- Node1&#45;&gt;Node6 -->
<g id="edge5_Node000001_Node000006" class="edge">
<title>Node1&#45;&gt;Node6</title>
<g id="a_edge5_Node000001_Node000006"><a xlink:title=" ">
<path fill="none" stroke="#63b8ff" d="M226.19,-55.59C236.43,-47.7 251.28,-36.24 263.37,-26.92"/>
<polygon fill="#63b8ff" stroke="#63b8ff" points="265.17,-29.18 270.95,-20.3 260.89,-23.64 265.17,-29.18"/>
</a>
</g>
</g>
<!-- Node7 -->
<g id="Node000007" class="node">
<title>Node7</title>
<g id="a_Node000007"><a xlink:title=" ">
<polygon fill="#e0e0e0" stroke="#999999" points="378.88,-20 323.12,-20 323.12,0 378.88,0 378.88,-20"/>
<text text-anchor="middle" x="351" y="-6.5" font-family="Helvetica,sans-Serif" font-size="10.00">algorithm</text>
</a>
</g>
</g>
<!-- Node1&#45;&gt;Node7 -->
<g id="edge6_Node000001_Node000007" class="edge">
<title>Node1&#45;&gt;Node7</title>
<g id="a_edge6_Node000001_Node000007"><a xlink:title=" ">
<path fill="none" stroke="#63b8ff" d="M237.86,-55.59C259.73,-46.97 292.35,-34.12 316.95,-24.42"/>
<polygon fill="#63b8ff" stroke="#63b8ff" points="317.93,-27.4 325.95,-20.48 315.36,-20.89 317.93,-27.4"/>
</a>
</g>
</g>
<!-- Node8 -->
<g id="Node000008" class="node">
<title>Node8</title>
<g id="a_Node000008"><a xlink:title=" ">
<polygon fill="#e0e0e0" stroke="#999999" points="509.38,-20 396.62,-20 396.62,0 509.38,0 509.38,-20"/>
<text text-anchor="middle" x="453" y="-6.5" font-family="Helvetica,sans-Serif" font-size="10.00">vcruntime_exception.h</text>
</a>
</g>
</g>
<!-- Node1&#45;&gt;Node8 -->
<g id="edge7_Node000001_Node000008" class="edge">
<title>Node1&#45;&gt;Node8</title>
<g id="a_edge7_Node000001_Node000008"><a xlink:title=" ">
<path fill="none" stroke="#63b8ff" d="M255.9,-55.53C296.14,-46.44 357.05,-32.68 400.5,-22.86"/>
<polygon fill="#63b8ff" stroke="#63b8ff" points="401.16,-26.07 410.14,-20.46 399.62,-19.25 401.16,-26.07"/>
</a>
</g>
</g>
</g>
</svg>
