<?xml version="1.0" encoding="UTF-8" standalone="no"?>
<!DOCTYPE svg PUBLIC "-//W3C//DTD SVG 1.1//EN"
 "http://www.w3.org/Graphics/SVG/1.1/DTD/svg11.dtd">
<!-- Generated by graphviz version 8.1.0 (20230707.0739)
 -->
<!-- Title: wiNpoS&#45;Shared/Utils.h Pages: 1 -->
<svg width="1276pt" height="252pt"
 viewBox="0.00 0.00 1275.58 252.00" xmlns="http://www.w3.org/2000/svg" xmlns:xlink="http://www.w3.org/1999/xlink">
<g id="graph0" class="graph" transform="scale(1 1) rotate(0) translate(4 248)">
<title>wiNpoS&#45;Shared/Utils.h</title>
<!-- Node1 -->
<g id="Node000001" class="node">
<title>Node1</title>
<g id="a_Node000001"><a xlink:title=" ">
<polygon fill="#999999" stroke="#666666" points="648.48,-244 534.98,-244 534.98,-224 648.48,-224 648.48,-244"/>
<text text-anchor="middle" x="591.73" y="-230.5" font-family="Helvetica,sans-Serif" font-size="10.00">wiNpoS&#45;Shared/Utils.h</text>
</a>
</g>
</g>
<!-- Node2 -->
<g id="Node000002" class="node">
<title>Node2</title>
<g id="a_Node000002"><a xlink:href="wi_npo_s-_app_8cpp.html" target="_top" xlink:title=" ">
<polygon fill="white" stroke="#666666" points="663.86,-132 519.61,-132 519.61,-112 663.86,-112 663.86,-132"/>
<text text-anchor="middle" x="591.73" y="-118.5" font-family="Helvetica,sans-Serif" font-size="10.00">wiNpoS&#45;App/wiNpoS&#45;App.cpp</text>
</a>
</g>
</g>
<!-- Node1&#45;&gt;Node2 -->
<g id="edge1_Node000001_Node000002" class="edge">
<title>Node1&#45;&gt;Node2</title>
<g id="a_edge1_Node000001_Node000002"><a xlink:title=" ">
<path fill="none" stroke="#63b8ff" d="M591.73,-212.64C591.73,-188.72 591.73,-150.03 591.73,-132.35"/>
<polygon fill="#63b8ff" stroke="#63b8ff" points="588.23,-212.62 591.73,-222.62 595.23,-212.62 588.23,-212.62"/>
</a>
</g>
</g>
<!-- Node3 -->
<g id="Node000003" class="node">
<title>Node3</title>
<g id="a_Node000003"><a xlink:href="_hooks_impl_8cpp.html" target="_top" xlink:title=" ">
<polygon fill="white" stroke="#666666" points="584.73,-20 442.73,-20 442.73,0 584.73,0 584.73,-20"/>
<text text-anchor="middle" x="513.73" y="-6.5" font-family="Helvetica,sans-Serif" font-size="10.00">wiNpoS&#45;Hook/HooksImpl.cpp</text>
</a>
</g>
</g>
<!-- Node1&#45;&gt;Node3 -->
<g id="edge2_Node000001_Node000003" class="edge">
<title>Node1&#45;&gt;Node3</title>
<g id="a_edge2_Node000001_Node000003"><a xlink:title=" ">
<path fill="none" stroke="#63b8ff" d="M523.76,-233.2C381.02,-231.86 58.77,-219.08 4.73,-132 -42.95,-55.16 291.5,-24.65 442.47,-14.88"/>
<polygon fill="#63b8ff" stroke="#63b8ff" points="523.52,-236.7 533.54,-233.28 523.57,-229.7 523.52,-236.7"/>
</a>
</g>
</g>
<!-- Node4 -->
<g id="Node000004" class="node">
<title>Node4</title>
<g id="a_Node000004"><a xlink:href="_task_toolbar_8cpp.html" target="_top" xlink:title=" ">
<polygon fill="white" stroke="#666666" points="308.11,-188 159.36,-188 159.36,-168 308.11,-168 308.11,-188"/>
<text text-anchor="middle" x="233.73" y="-174.5" font-family="Helvetica,sans-Serif" font-size="10.00">wiNpoS&#45;Hook/TaskToolbar.cpp</text>
</a>
</g>
</g>
<!-- Node1&#45;&gt;Node4 -->
<g id="edge3_Node000001_Node000004" class="edge">
<title>Node1&#45;&gt;Node4</title>
<g id="a_edge3_Node000001_Node000004"><a xlink:title=" ">
<path fill="none" stroke="#63b8ff" d="M524.01,-222.78C458.62,-212.92 360.4,-198.11 296.68,-188.49"/>
<polygon fill="#63b8ff" stroke="#63b8ff" points="523.2,-226.35 533.61,-224.38 524.24,-219.43 523.2,-226.35"/>
</a>
</g>
</g>
<!-- Node5 -->
<g id="Node000005" class="node">
<title>Node5</title>
<g id="a_Node000005"><a xlink:href="_win_pos_wnd_8cpp.html" target="_top" xlink:title=" ">
<polygon fill="white" stroke="#666666" points="1128.23,-76 977.23,-76 977.23,-56 1128.23,-56 1128.23,-76"/>
<text text-anchor="middle" x="1052.73" y="-62.5" font-family="Helvetica,sans-Serif" font-size="10.00">wiNpoS&#45;Hook/WinPosWnd.cpp</text>
</a>
</g>
</g>
<!-- Node1&#45;&gt;Node5 -->
<g id="edge4_Node000001_Node000005" class="edge">
<title>Node1&#45;&gt;Node5</title>
<g id="a_edge4_Node000001_Node000005"><a xlink:title=" ">
<path fill="none" stroke="#63b8ff" d="M659.87,-232.1C793.54,-229.63 1085.36,-220.56 1179.73,-188 1222.15,-173.37 1242.56,-171.56 1263.73,-132 1267.93,-124.16 1269.32,-118.91 1263.73,-112 1246.74,-91 1181.9,-79.38 1128.54,-73.23"/>
<polygon fill="#63b8ff" stroke="#63b8ff" points="659.91,-228.61 649.98,-232.29 660.04,-235.61 659.91,-228.61"/>
</a>
</g>
</g>
<!-- Node6 -->
<g id="Node000006" class="node">
<title>Node6</title>
<g id="a_Node000006"><a xlink:href="_win_pos_wnd_8h.html" target="_top" xlink:title=" ">
<polygon fill="white" stroke="#666666" points="1024.98,-132 884.48,-132 884.48,-112 1024.98,-112 1024.98,-132"/>
<text text-anchor="middle" x="954.73" y="-118.5" font-family="Helvetica,sans-Serif" font-size="10.00">wiNpoS&#45;Hook/WinPosWnd.h</text>
</a>
</g>
</g>
<!-- Node1&#45;&gt;Node6 -->
<g id="edge5_Node000001_Node000006" class="edge">
<title>Node1&#45;&gt;Node6</title>
<g id="a_edge5_Node000001_Node000006"><a xlink:title=" ">
<path fill="none" stroke="#63b8ff" d="M652.86,-221.35C691.83,-213.34 743.2,-201.7 787.73,-188 841.26,-171.53 902.08,-146.09 933.47,-132.43"/>
<polygon fill="#63b8ff" stroke="#63b8ff" points="652.32,-218.1 643.21,-223.52 653.71,-224.96 652.32,-218.1"/>
</a>
</g>
</g>
<!-- Node8 -->
<g id="Node000008" class="node">
<title>Node8</title>
<g id="a_Node000008"><a xlink:href="wi_npo_s-_hook_2dllmain_8cpp.html" target="_top" xlink:title=" ">
<polygon fill="white" stroke="#666666" points="141.23,-132 14.23,-132 14.23,-112 141.23,-112 141.23,-132"/>
<text text-anchor="middle" x="77.73" y="-118.5" font-family="Helvetica,sans-Serif" font-size="10.00">wiNpoS&#45;Hook/dllmain.cpp</text>
</a>
</g>
</g>
<!-- Node1&#45;&gt;Node8 -->
<g id="edge9_Node000001_Node000008" class="edge">
<title>Node1&#45;&gt;Node8</title>
<g id="a_edge9_Node000001_Node000008"><a xlink:title=" ">
<path fill="none" stroke="#63b8ff" d="M523.74,-231.15C417.08,-227.4 215.87,-216.67 150.73,-188 121.84,-175.29 96.4,-146.73 84.64,-132.07"/>
<polygon fill="#63b8ff" stroke="#63b8ff" points="523.59,-234.68 533.7,-231.52 523.82,-227.68 523.59,-234.68"/>
</a>
</g>
</g>
<!-- Node9 -->
<g id="Node000009" class="node">
<title>Node9</title>
<g id="a_Node000009"><a xlink:href="_hooks_cfg_8cpp.html" target="_top" xlink:title=" ">
<polygon fill="white" stroke="#666666" points="865.98,-132 719.48,-132 719.48,-112 865.98,-112 865.98,-132"/>
<text text-anchor="middle" x="792.73" y="-118.5" font-family="Helvetica,sans-Serif" font-size="10.00">wiNpoS&#45;Shared/HooksCfg.cpp</text>
</a>
</g>
</g>
<!-- Node1&#45;&gt;Node9 -->
<g id="edge10_Node000001_Node000009" class="edge">
<title>Node1&#45;&gt;Node9</title>
<g id="a_edge10_Node000001_Node000009"><a xlink:title=" ">
<path fill="none" stroke="#63b8ff" d="M659.5,-230C695.13,-225.15 737.37,-213.8 766.73,-188 783.35,-173.4 789.48,-146.7 791.64,-132.49"/>
<polygon fill="#63b8ff" stroke="#63b8ff" points="659.19,-226.63 649.68,-231.3 660.03,-233.58 659.19,-226.63"/>
</a>
</g>
</g>
<!-- Node10 -->
<g id="Node000010" class="node">
<title>Node10</title>
<g id="a_Node000010"><a xlink:href="_hooks_cfg_8h.html" target="_top" xlink:title=" ">
<polygon fill="white" stroke="#666666" points="757.73,-188 621.73,-188 621.73,-168 757.73,-168 757.73,-188"/>
<text text-anchor="middle" x="689.73" y="-174.5" font-family="Helvetica,sans-Serif" font-size="10.00">wiNpoS&#45;Shared/HooksCfg.h</text>
</a>
</g>
</g>
<!-- Node1&#45;&gt;Node10 -->
<g id="edge11_Node000001_Node000010" class="edge">
<title>Node1&#45;&gt;Node10</title>
<g id="a_edge11_Node000001_Node000010"><a xlink:title=" ">
<path fill="none" stroke="#63b8ff" d="M618.32,-218.35C635.57,-208.84 657.54,-196.74 672.53,-188.48"/>
<polygon fill="#63b8ff" stroke="#63b8ff" points="616.87,-215.7 609.8,-223.59 620.25,-221.83 616.87,-215.7"/>
</a>
</g>
</g>
<!-- Node11 -->
<g id="Node000011" class="node">
<title>Node11</title>
<g id="a_Node000011"><a xlink:href="_hooks_mgr_8cpp.html" target="_top" xlink:title=" ">
<polygon fill="white" stroke="#666666" points="308.11,-132 159.36,-132 159.36,-112 308.11,-112 308.11,-132"/>
<text text-anchor="middle" x="233.73" y="-118.5" font-family="Helvetica,sans-Serif" font-size="10.00">wiNpoS&#45;Shared/HooksMgr.cpp</text>
</a>
</g>
</g>
<!-- Node1&#45;&gt;Node11 -->
<g id="edge15_Node000001_Node000011" class="edge">
<title>Node1&#45;&gt;Node11</title>
<g id="a_edge15_Node000001_Node000011"><a xlink:title=" ">
<path fill="none" stroke="#63b8ff" d="M524.29,-225.76C476.06,-219.26 410.15,-207.62 354.73,-188 352.01,-187.03 283.92,-150.2 251.11,-132.42"/>
<polygon fill="#63b8ff" stroke="#63b8ff" points="523.55,-229.33 533.91,-227.15 524.45,-222.38 523.55,-229.33"/>
</a>
</g>
</g>
<!-- Node12 -->
<g id="Node000012" class="node">
<title>Node12</title>
<g id="a_Node000012"><a xlink:href="_hooks_mgr_8h.html" target="_top" xlink:title=" ">
<polygon fill="white" stroke="#666666" points="501.86,-188 363.61,-188 363.61,-168 501.86,-168 501.86,-188"/>
<text text-anchor="middle" x="432.73" y="-174.5" font-family="Helvetica,sans-Serif" font-size="10.00">wiNpoS&#45;Shared/HooksMgr.h</text>
</a>
</g>
</g>
<!-- Node1&#45;&gt;Node12 -->
<g id="edge16_Node000001_Node000012" class="edge">
<title>Node1&#45;&gt;Node12</title>
<g id="a_edge16_Node000001_Node000012"><a xlink:title=" ">
<path fill="none" stroke="#63b8ff" d="M553.98,-220.18C525.32,-210.44 486.55,-197.28 460.64,-188.48"/>
<polygon fill="#63b8ff" stroke="#63b8ff" points="552.44,-223.69 563.04,-223.59 554.69,-217.06 552.44,-223.69"/>
</a>
</g>
</g>
<!-- Node13 -->
<g id="Node000013" class="node">
<title>Node13</title>
<g id="a_Node000013"><a xlink:href="wi_npo_s-_support_2dllmain_8cpp.html" target="_top" xlink:title=" ">
<polygon fill="white" stroke="#666666" points="501.86,-132 363.61,-132 363.61,-112 501.86,-112 501.86,-132"/>
<text text-anchor="middle" x="432.73" y="-118.5" font-family="Helvetica,sans-Serif" font-size="10.00">wiNpoS&#45;Support/dllmain.cpp</text>
</a>
</g>
</g>
<!-- Node1&#45;&gt;Node13 -->
<g id="edge28_Node000001_Node000013" class="edge">
<title>Node1&#45;&gt;Node13</title>
<g id="a_edge28_Node000001_Node000013"><a xlink:title=" ">
<path fill="none" stroke="#63b8ff" d="M573.11,-216.7C557.09,-203.01 533.09,-183.28 510.73,-168 490.99,-154.5 466.98,-141.06 450.86,-132.44"/>
<polygon fill="#63b8ff" stroke="#63b8ff" points="570.28,-219.74 580.13,-223.62 574.85,-214.44 570.28,-219.74"/>
</a>
</g>
</g>
<!-- Node14 -->
<g id="Node000014" class="node">
<title>Node14</title>
<g id="a_Node000014"><a xlink:href="_utils_8cpp.html" target="_top" xlink:title=" ">
<polygon fill="white" stroke="#666666" points="1170.73,-188 1046.73,-188 1046.73,-168 1170.73,-168 1170.73,-188"/>
<text text-anchor="middle" x="1108.73" y="-174.5" font-family="Helvetica,sans-Serif" font-size="10.00">wiNpoS&#45;Shared/Utils.cpp</text>
</a>
</g>
</g>
<!-- Node1&#45;&gt;Node14 -->
<g id="edge22_Node000001_Node000014" class="edge">
<title>Node1&#45;&gt;Node14</title>
<g id="a_edge22_Node000001_Node000014"><a xlink:title=" ">
<path fill="none" stroke="#63b8ff" d="M659.65,-226.69C747.14,-218.44 903.89,-203.23 1037.73,-188 1040.57,-187.68 1043.47,-187.34 1046.41,-186.99"/>
<polygon fill="#63b8ff" stroke="#63b8ff" points="659.44,-223.29 649.81,-227.71 660.09,-230.26 659.44,-223.29"/>
</a>
</g>
</g>
<!-- Node15 -->
<g id="Node000015" class="node">
<title>Node15</title>
<g id="a_Node000015"><a xlink:href="_win_pos_wnd_cfg_8h.html" target="_top" xlink:title=" ">
<polygon fill="white" stroke="#666666" points="1028.23,-188 865.23,-188 865.23,-168 1028.23,-168 1028.23,-188"/>
<text text-anchor="middle" x="946.73" y="-174.5" font-family="Helvetica,sans-Serif" font-size="10.00">wiNpoS&#45;Shared/WinPosWndCfg.h</text>
</a>
</g>
</g>
<!-- Node1&#45;&gt;Node15 -->
<g id="edge23_Node000001_Node000015" class="edge">
<title>Node1&#45;&gt;Node15</title>
<g id="a_edge23_Node000001_Node000015"><a xlink:title=" ">
<path fill="none" stroke="#63b8ff" d="M659.29,-222.72C724.18,-212.85 821.41,-198.06 884.46,-188.47"/>
<polygon fill="#63b8ff" stroke="#63b8ff" points="659.13,-219.36 649.77,-224.32 660.18,-226.28 659.13,-219.36"/>
</a>
</g>
</g>
<!-- Node6&#45;&gt;Node5 -->
<g id="edge8_Node000006_Node000005" class="edge">
<title>Node6&#45;&gt;Node5</title>
<g id="a_edge8_Node000006_Node000005"><a xlink:title=" ">
<path fill="none" stroke="#63b8ff" d="M981.32,-106.35C998.57,-96.84 1020.54,-84.74 1035.53,-76.48"/>
<polygon fill="#63b8ff" stroke="#63b8ff" points="979.87,-103.7 972.8,-111.59 983.25,-109.83 979.87,-103.7"/>
</a>
</g>
</g>
<!-- Node7 -->
<g id="Node000007" class="node">
<title>Node7</title>
<g id="a_Node000007"><a xlink:href="_hooks_impl_8h.html" target="_top" xlink:title=" ">
<polygon fill="white" stroke="#666666" points="905.48,-76 773.98,-76 773.98,-56 905.48,-56 905.48,-76"/>
<text text-anchor="middle" x="839.73" y="-62.5" font-family="Helvetica,sans-Serif" font-size="10.00">wiNpoS&#45;Hook/HooksImpl.h</text>
</a>
</g>
</g>
<!-- Node6&#45;&gt;Node7 -->
<g id="edge6_Node000006_Node000007" class="edge">
<title>Node6&#45;&gt;Node7</title>
<g id="a_edge6_Node000006_Node000007"><a xlink:title=" ">
<path fill="none" stroke="#63b8ff" d="M924.94,-107.01C904.5,-97.41 877.92,-84.93 859.92,-76.48"/>
<polygon fill="#63b8ff" stroke="#63b8ff" points="923.16,-110.51 933.7,-111.59 926.14,-104.18 923.16,-110.51"/>
</a>
</g>
</g>
<!-- Node7&#45;&gt;Node3 -->
<g id="edge7_Node000007_Node000003" class="edge">
<title>Node7&#45;&gt;Node3</title>
<g id="a_edge7_Node000007_Node000003"><a xlink:title=" ">
<path fill="none" stroke="#63b8ff" d="M771.78,-53.74C712.29,-43.89 626.84,-29.74 570.82,-20.46"/>
<polygon fill="#63b8ff" stroke="#63b8ff" points="771.14,-57.35 781.57,-55.53 772.28,-50.44 771.14,-57.35"/>
</a>
</g>
</g>
<!-- Node10&#45;&gt;Node2 -->
<g id="edge12_Node000010_Node000002" class="edge">
<title>Node10&#45;&gt;Node2</title>
<g id="a_edge12_Node000010_Node000002"><a xlink:title=" ">
<path fill="none" stroke="#63b8ff" d="M663.14,-162.35C645.89,-152.84 623.92,-140.74 608.94,-132.48"/>
<polygon fill="#63b8ff" stroke="#63b8ff" points="661.21,-165.83 671.66,-167.59 664.59,-159.7 661.21,-165.83"/>
</a>
</g>
</g>
<!-- Node10&#45;&gt;Node3 -->
<g id="edge13_Node000010_Node000003" class="edge">
<title>Node10&#45;&gt;Node3</title>
<g id="a_edge13_Node000010_Node000003"><a xlink:title=" ">
<path fill="none" stroke="#63b8ff" d="M688.32,-156.95C686.49,-143.19 682.3,-125.12 672.73,-112 638.52,-65.11 575.31,-34.69 539.76,-20.44"/>
<polygon fill="#63b8ff" stroke="#63b8ff" points="684.92,-157.1 689.4,-166.7 691.89,-156.4 684.92,-157.1"/>
</a>
</g>
</g>
<!-- Node10&#45;&gt;Node9 -->
<g id="edge14_Node000010_Node000009" class="edge">
<title>Node10&#45;&gt;Node9</title>
<g id="a_edge14_Node000010_Node000009"><a xlink:title=" ">
<path fill="none" stroke="#63b8ff" d="M717.17,-162.61C735.38,-153.07 758.75,-140.81 774.65,-132.48"/>
<polygon fill="#63b8ff" stroke="#63b8ff" points="715.91,-159.85 708.67,-167.59 719.16,-166.05 715.91,-159.85"/>
</a>
</g>
</g>
<!-- Node12&#45;&gt;Node2 -->
<g id="edge17_Node000012_Node000002" class="edge">
<title>Node12&#45;&gt;Node2</title>
<g id="a_edge17_Node000012_Node000002"><a xlink:title=" ">
<path fill="none" stroke="#63b8ff" d="M470.49,-164.18C499.15,-154.44 537.92,-141.28 563.82,-132.48"/>
<polygon fill="#63b8ff" stroke="#63b8ff" points="469.77,-161.06 461.43,-167.59 472.02,-167.69 469.77,-161.06"/>
</a>
</g>
</g>
<!-- Node12&#45;&gt;Node3 -->
<g id="edge18_Node000012_Node000003" class="edge">
<title>Node12&#45;&gt;Node3</title>
<g id="a_edge18_Node000012_Node000003"><a xlink:title=" ">
<path fill="none" stroke="#63b8ff" d="M394.17,-163.42C368.84,-152.12 342.48,-134.3 354.73,-112 381.9,-62.56 444.65,-33.89 482.69,-20.45"/>
<polygon fill="#63b8ff" stroke="#63b8ff" points="392.53,-166.94 403.11,-167.57 395.23,-160.48 392.53,-166.94"/>
</a>
</g>
</g>
<!-- Node12&#45;&gt;Node8 -->
<g id="edge19_Node000012_Node000008" class="edge">
<title>Node12&#45;&gt;Node8</title>
<g id="a_edge19_Node000012_Node000008"><a xlink:title=" ">
<path fill="none" stroke="#63b8ff" d="M359.94,-165.93C295.12,-156.07 201.29,-141.79 139.9,-132.46"/>
<polygon fill="#63b8ff" stroke="#63b8ff" points="359.08,-169.49 369.49,-167.53 360.13,-162.57 359.08,-169.49"/>
</a>
</g>
</g>
<!-- Node12&#45;&gt;Node11 -->
<g id="edge20_Node000012_Node000011" class="edge">
<title>Node12&#45;&gt;Node11</title>
<g id="a_edge20_Node000012_Node000011"><a xlink:title=" ">
<path fill="none" stroke="#63b8ff" d="M387.82,-164.81C351.74,-155.02 301.8,-141.47 268.67,-132.48"/>
<polygon fill="#63b8ff" stroke="#63b8ff" points="386.5,-168.35 397.07,-167.59 388.34,-161.6 386.5,-168.35"/>
</a>
</g>
</g>
<!-- Node12&#45;&gt;Node13 -->
<g id="edge21_Node000012_Node000013" class="edge">
<title>Node12&#45;&gt;Node13</title>
<g id="a_edge21_Node000012_Node000013"><a xlink:title=" ">
<path fill="none" stroke="#63b8ff" d="M432.73,-156.71C432.73,-148.32 432.73,-139.01 432.73,-132.3"/>
<polygon fill="#63b8ff" stroke="#63b8ff" points="429.23,-156.59 432.73,-166.59 436.23,-156.59 429.23,-156.59"/>
</a>
</g>
</g>
<!-- Node15&#45;&gt;Node5 -->
<g id="edge24_Node000015_Node000005" class="edge">
<title>Node15&#45;&gt;Node5</title>
<g id="a_edge24_Node000015_Node000005"><a xlink:title=" ">
<path fill="none" stroke="#63b8ff" d="M988.42,-163.58C1004.59,-156.49 1022.01,-146.24 1033.73,-132 1047.19,-115.66 1051.11,-90.17 1052.26,-76.47"/>
<polygon fill="#63b8ff" stroke="#63b8ff" points="987.52,-160.58 979.57,-167.59 990.16,-167.06 987.52,-160.58"/>
</a>
</g>
</g>
<!-- Node15&#45;&gt;Node6 -->
<g id="edge25_Node000015_Node000006" class="edge">
<title>Node15&#45;&gt;Node6</title>
<g id="a_edge25_Node000015_Node000006"><a xlink:title=" ">
<path fill="none" stroke="#63b8ff" d="M949.74,-156.71C950.98,-148.32 952.36,-139.01 953.36,-132.3"/>
<polygon fill="#63b8ff" stroke="#63b8ff" points="946.13,-156.19 948.13,-166.59 953.05,-157.21 946.13,-156.19"/>
</a>
</g>
</g>
<!-- Node15&#45;&gt;Node9 -->
<g id="edge26_Node000015_Node000009" class="edge">
<title>Node15&#45;&gt;Node9</title>
<g id="a_edge26_Node000015_Node000009"><a xlink:title=" ">
<path fill="none" stroke="#63b8ff" d="M909.8,-164.05C882.08,-154.33 844.75,-141.24 819.77,-132.48"/>
<polygon fill="#63b8ff" stroke="#63b8ff" points="908.31,-167.59 918.91,-167.59 910.63,-160.98 908.31,-167.59"/>
</a>
</g>
</g>
<!-- Node16 -->
<g id="Node000016" class="node">
<title>Node16</title>
<g id="a_Node000016"><a xlink:href="_win_pos_wnd_cfg_8cpp.html" target="_top" xlink:title=" ">
<polygon fill="white" stroke="#666666" points="1254.48,-132 1080.98,-132 1080.98,-112 1254.48,-112 1254.48,-132"/>
<text text-anchor="middle" x="1167.73" y="-118.5" font-family="Helvetica,sans-Serif" font-size="10.00">wiNpoS&#45;Shared/WinPosWndCfg.cpp</text>
</a>
</g>
</g>
<!-- Node15&#45;&gt;Node16 -->
<g id="edge27_Node000015_Node000016" class="edge">
<title>Node15&#45;&gt;Node16</title>
<g id="a_edge27_Node000015_Node000016"><a xlink:title=" ">
<path fill="none" stroke="#63b8ff" d="M996.1,-164.94C1036.24,-155.13 1092.08,-141.49 1129.03,-132.46"/>
<polygon fill="#63b8ff" stroke="#63b8ff" points="995.36,-161.76 986.48,-167.53 997.03,-168.56 995.36,-161.76"/>
</a>
</g>
</g>
</g>
</svg>
