<?xml version="1.0" encoding="UTF-8" standalone="no"?>
<!DOCTYPE svg PUBLIC "-//W3C//DTD SVG 1.1//EN"
 "http://www.w3.org/Graphics/SVG/1.1/DTD/svg11.dtd">
<!-- Generated by graphviz version 9.0.0 (20230911.1827)
 -->
<!-- Title: wiNpoS&#45;Hook/WinPosWnd.h Pages: 1 -->
<svg width="636pt" height="196pt"
 viewBox="0.00 0.00 635.88 196.00" xmlns="http://www.w3.org/2000/svg" xmlns:xlink="http://www.w3.org/1999/xlink">
<g id="graph0" class="graph" transform="scale(1 1) rotate(0) translate(4 192)">
<title>wiNpoS&#45;Hook/WinPosWnd.h</title>
<!-- Node1 -->
<g id="Node000001" class="node">
<title>Node1</title>
<g id="a_Node000001"><a xlink:title=" ">
<polygon fill="#999999" stroke="#666666" points="208.75,-188 68.25,-188 68.25,-168 208.75,-168 208.75,-188"/>
<text text-anchor="middle" x="138.5" y="-174.5" font-family="Helvetica,sans-Serif" font-size="10.00">wiNpoS&#45;Hook/WinPosWnd.h</text>
</a>
</g>
</g>
<!-- Node2 -->
<g id="Node000002" class="node">
<title>Node2</title>
<g id="a_Node000002"><a xlink:title=" ">
<polygon fill="#e0e0e0" stroke="#999999" points="55,-76 0,-76 0,-56 55,-56 55,-76"/>
<text text-anchor="middle" x="27.5" y="-62.5" font-family="Helvetica,sans-Serif" font-size="10.00">wtypes.h</text>
</a>
</g>
</g>
<!-- Node1&#45;&gt;Node2 -->
<g id="edge1_Node000001_Node000002" class="edge">
<title>Node1&#45;&gt;Node2</title>
<g id="a_edge1_Node000001_Node000002"><a xlink:title=" ">
<path fill="none" stroke="#63b8ff" d="M122.43,-167.52C109.03,-159.16 89.87,-146.14 75.5,-132 61.16,-117.88 47.82,-99.18 38.86,-85.46"/>
<polygon fill="#63b8ff" stroke="#63b8ff" points="42.05,-83.95 33.73,-77.38 36.14,-87.7 42.05,-83.95"/>
</a>
</g>
</g>
<!-- Node3 -->
<g id="Node000003" class="node">
<title>Node3</title>
<g id="a_Node000003"><a xlink:title=" ">
<polygon fill="#e0e0e0" stroke="#999999" points="109.88,-76 75.12,-76 75.12,-56 109.88,-56 109.88,-76"/>
<text text-anchor="middle" x="92.5" y="-62.5" font-family="Helvetica,sans-Serif" font-size="10.00">map</text>
</a>
</g>
</g>
<!-- Node1&#45;&gt;Node3 -->
<g id="edge2_Node000001_Node000003" class="edge">
<title>Node1&#45;&gt;Node3</title>
<g id="a_edge2_Node000001_Node000003"><a xlink:title=" ">
<path fill="none" stroke="#63b8ff" d="M119.35,-167.52C106.32,-159.9 90.1,-147.86 82.5,-132 75.71,-117.83 79.11,-100.1 83.71,-86.74"/>
<polygon fill="#63b8ff" stroke="#63b8ff" points="86.85,-88.32 87.28,-77.73 80.34,-85.74 86.85,-88.32"/>
</a>
</g>
</g>
<!-- Node4 -->
<g id="Node000004" class="node">
<title>Node4</title>
<g id="a_Node000004"><a xlink:title=" ">
<polygon fill="#e0e0e0" stroke="#999999" points="159.25,-20 117.75,-20 117.75,0 159.25,0 159.25,-20"/>
<text text-anchor="middle" x="138.5" y="-6.5" font-family="Helvetica,sans-Serif" font-size="10.00">vector</text>
</a>
</g>
</g>
<!-- Node1&#45;&gt;Node4 -->
<g id="edge3_Node000001_Node000004" class="edge">
<title>Node1&#45;&gt;Node4</title>
<g id="a_edge3_Node000001_Node000004"><a xlink:title=" ">
<path fill="none" stroke="#63b8ff" d="M157.65,-167.52C170.68,-159.9 186.9,-147.86 194.5,-132 198.34,-123.98 196.73,-120.61 194.5,-112 186.41,-80.74 166.34,-48.84 152.56,-29.47"/>
<polygon fill="#63b8ff" stroke="#63b8ff" points="155.48,-27.54 146.74,-21.54 149.83,-31.68 155.48,-27.54"/>
</a>
</g>
</g>
<!-- Node5 -->
<g id="Node000005" class="node">
<title>Node5</title>
<g id="a_Node000005"><a xlink:href="_utils_8h.html" target="_top" xlink:title=" ">
<polygon fill="white" stroke="#666666" points="285.38,-76 241.62,-76 241.62,-56 285.38,-56 285.38,-76"/>
<text text-anchor="middle" x="263.5" y="-62.5" font-family="Helvetica,sans-Serif" font-size="10.00">Utils.h</text>
</a>
</g>
</g>
<!-- Node1&#45;&gt;Node5 -->
<g id="edge4_Node000001_Node000005" class="edge">
<title>Node1&#45;&gt;Node5</title>
<g id="a_edge4_Node000001_Node000005"><a xlink:title=" ">
<path fill="none" stroke="#63b8ff" d="M167.24,-167.54C186.13,-160.18 210.41,-148.45 227.5,-132 240.71,-119.28 250.35,-100.64 256.31,-86.57"/>
<polygon fill="#63b8ff" stroke="#63b8ff" points="259.49,-88.07 259.9,-77.48 252.98,-85.5 259.49,-88.07"/>
</a>
</g>
</g>
<!-- Node12 -->
<g id="Node000012" class="node">
<title>Node12</title>
<g id="a_Node000012"><a xlink:href="_win_pos_wnd_cfg_8h.html" target="_top" xlink:title=" ">
<polygon fill="white" stroke="#666666" points="185.12,-132 91.88,-132 91.88,-112 185.12,-112 185.12,-132"/>
<text text-anchor="middle" x="138.5" y="-118.5" font-family="Helvetica,sans-Serif" font-size="10.00">WinPosWndCfg.h</text>
</a>
</g>
</g>
<!-- Node1&#45;&gt;Node12 -->
<g id="edge12_Node000001_Node000012" class="edge">
<title>Node1&#45;&gt;Node12</title>
<g id="a_edge12_Node000001_Node000012"><a xlink:title=" ">
<path fill="none" stroke="#63b8ff" d="M138.5,-167.59C138.5,-161.01 138.5,-151.96 138.5,-143.73"/>
<polygon fill="#63b8ff" stroke="#63b8ff" points="142,-143.81 138.5,-133.81 135,-143.81 142,-143.81"/>
</a>
</g>
</g>
<!-- Node5&#45;&gt;Node4 -->
<g id="edge9_Node000005_Node000004" class="edge">
<title>Node5&#45;&gt;Node4</title>
<g id="a_edge9_Node000005_Node000004"><a xlink:title=" ">
<path fill="none" stroke="#63b8ff" d="M241.73,-55.59C221.89,-47.02 192.36,-34.27 169.96,-24.59"/>
<polygon fill="#63b8ff" stroke="#63b8ff" points="171.56,-21.47 161,-20.72 168.79,-27.9 171.56,-21.47"/>
</a>
</g>
</g>
<!-- Node6 -->
<g id="Node000006" class="node">
<title>Node6</title>
<g id="a_Node000006"><a xlink:title=" ">
<polygon fill="#e0e0e0" stroke="#999999" points="217.5,-20 177.5,-20 177.5,0 217.5,0 217.5,-20"/>
<text text-anchor="middle" x="197.5" y="-6.5" font-family="Helvetica,sans-Serif" font-size="10.00">string</text>
</a>
</g>
</g>
<!-- Node5&#45;&gt;Node6 -->
<g id="edge5_Node000005_Node000006" class="edge">
<title>Node5&#45;&gt;Node6</title>
<g id="a_edge5_Node000005_Node000006"><a xlink:title=" ">
<path fill="none" stroke="#63b8ff" d="M252,-55.59C242.54,-47.85 228.9,-36.69 217.63,-27.47"/>
<polygon fill="#63b8ff" stroke="#63b8ff" points="219.99,-24.88 210.04,-21.26 215.56,-30.3 219.99,-24.88"/>
</a>
</g>
</g>
<!-- Node7 -->
<g id="Node000007" class="node">
<title>Node7</title>
<g id="a_Node000007"><a xlink:title=" ">
<polygon fill="#e0e0e0" stroke="#999999" points="281.12,-20 235.88,-20 235.88,0 281.12,0 281.12,-20"/>
<text text-anchor="middle" x="258.5" y="-6.5" font-family="Helvetica,sans-Serif" font-size="10.00">xstring</text>
</a>
</g>
</g>
<!-- Node5&#45;&gt;Node7 -->
<g id="edge6_Node000005_Node000007" class="edge">
<title>Node5&#45;&gt;Node7</title>
<g id="a_edge6_Node000005_Node000007"><a xlink:title=" ">
<path fill="none" stroke="#63b8ff" d="M262.63,-55.59C262.02,-49.01 261.18,-39.96 260.42,-31.73"/>
<polygon fill="#63b8ff" stroke="#63b8ff" points="263.91,-31.44 259.5,-21.81 256.94,-32.09 263.91,-31.44"/>
</a>
</g>
</g>
<!-- Node8 -->
<g id="Node000008" class="node">
<title>Node8</title>
<g id="a_Node000008"><a xlink:title=" ">
<polygon fill="#e0e0e0" stroke="#999999" points="342,-20 299,-20 299,0 342,0 342,-20"/>
<text text-anchor="middle" x="320.5" y="-6.5" font-family="Helvetica,sans-Serif" font-size="10.00">format</text>
</a>
</g>
</g>
<!-- Node5&#45;&gt;Node8 -->
<g id="edge7_Node000005_Node000008" class="edge">
<title>Node5&#45;&gt;Node8</title>
<g id="a_edge7_Node000005_Node000008"><a xlink:title=" ">
<path fill="none" stroke="#63b8ff" d="M273.43,-55.59C281.44,-48.01 292.92,-37.13 302.53,-28.02"/>
<polygon fill="#63b8ff" stroke="#63b8ff" points="304.73,-30.76 309.59,-21.34 299.92,-25.68 304.73,-30.76"/>
</a>
</g>
</g>
<!-- Node9 -->
<g id="Node000009" class="node">
<title>Node9</title>
<g id="a_Node000009"><a xlink:title=" ">
<polygon fill="#e0e0e0" stroke="#999999" points="423.12,-20 359.88,-20 359.88,0 423.12,0 423.12,-20"/>
<text text-anchor="middle" x="391.5" y="-6.5" font-family="Helvetica,sans-Serif" font-size="10.00">debugapi.h</text>
</a>
</g>
</g>
<!-- Node5&#45;&gt;Node9 -->
<g id="edge8_Node000005_Node000009" class="edge">
<title>Node5&#45;&gt;Node9</title>
<g id="a_edge8_Node000005_Node000009"><a xlink:title=" ">
<path fill="none" stroke="#63b8ff" d="M285.8,-55.59C305.86,-47.13 335.62,-34.58 358.45,-24.94"/>
<polygon fill="#63b8ff" stroke="#63b8ff" points="359.78,-28.18 367.64,-21.07 357.06,-21.73 359.78,-28.18"/>
</a>
</g>
</g>
<!-- Node10 -->
<g id="Node000010" class="node">
<title>Node10</title>
<g id="a_Node000010"><a xlink:title=" ">
<polygon fill="#e0e0e0" stroke="#999999" points="497.38,-20 441.62,-20 441.62,0 497.38,0 497.38,-20"/>
<text text-anchor="middle" x="469.5" y="-6.5" font-family="Helvetica,sans-Serif" font-size="10.00">algorithm</text>
</a>
</g>
</g>
<!-- Node5&#45;&gt;Node10 -->
<g id="edge10_Node000005_Node000010" class="edge">
<title>Node5&#45;&gt;Node10</title>
<g id="a_edge10_Node000005_Node000010"><a xlink:title=" ">
<path fill="none" stroke="#63b8ff" d="M285.55,-59.22C320.13,-50.15 387.62,-32.46 430.53,-21.22"/>
<polygon fill="#63b8ff" stroke="#63b8ff" points="431.15,-24.67 439.94,-18.75 429.38,-17.9 431.15,-24.67"/>
</a>
</g>
</g>
<!-- Node11 -->
<g id="Node000011" class="node">
<title>Node11</title>
<g id="a_Node000011"><a xlink:title=" ">
<polygon fill="#e0e0e0" stroke="#999999" points="627.88,-20 515.12,-20 515.12,0 627.88,0 627.88,-20"/>
<text text-anchor="middle" x="571.5" y="-6.5" font-family="Helvetica,sans-Serif" font-size="10.00">vcruntime_exception.h</text>
</a>
</g>
</g>
<!-- Node5&#45;&gt;Node11 -->
<g id="edge11_Node000005_Node000011" class="edge">
<title>Node5&#45;&gt;Node11</title>
<g id="a_edge11_Node000005_Node000011"><a xlink:title=" ">
<path fill="none" stroke="#63b8ff" d="M285.65,-61.12C331.19,-53.13 436.84,-34.61 506.15,-22.46"/>
<polygon fill="#63b8ff" stroke="#63b8ff" points="506.64,-25.93 515.88,-20.75 505.43,-19.03 506.64,-25.93"/>
</a>
</g>
</g>
<!-- Node12&#45;&gt;Node2 -->
<g id="edge13_Node000012_Node000002" class="edge">
<title>Node12&#45;&gt;Node2</title>
<g id="a_edge13_Node000012_Node000002"><a xlink:title=" ">
<path fill="none" stroke="#63b8ff" d="M119.17,-111.59C102.08,-103.28 76.9,-91.03 57.25,-81.47"/>
<polygon fill="#63b8ff" stroke="#63b8ff" points="58.87,-78.37 48.35,-77.14 55.81,-84.66 58.87,-78.37"/>
</a>
</g>
</g>
<!-- Node12&#45;&gt;Node3 -->
<g id="edge14_Node000012_Node000003" class="edge">
<title>Node12&#45;&gt;Node3</title>
<g id="a_edge14_Node000012_Node000003"><a xlink:title=" ">
<path fill="none" stroke="#63b8ff" d="M130.49,-111.59C124.22,-104.24 115.33,-93.8 107.72,-84.87"/>
<polygon fill="#63b8ff" stroke="#63b8ff" points="110.55,-82.79 101.4,-77.45 105.22,-87.33 110.55,-82.79"/>
</a>
</g>
</g>
<!-- Node12&#45;&gt;Node4 -->
<g id="edge15_Node000012_Node000004" class="edge">
<title>Node12&#45;&gt;Node4</title>
<g id="a_edge15_Node000012_Node000004"><a xlink:title=" ">
<path fill="none" stroke="#63b8ff" d="M138.5,-111.62C138.5,-94.01 138.5,-55.59 138.5,-31.65"/>
<polygon fill="#63b8ff" stroke="#63b8ff" points="142,-31.87 138.5,-21.87 135,-31.87 142,-31.87"/>
</a>
</g>
</g>
<!-- Node12&#45;&gt;Node5 -->
<g id="edge16_Node000012_Node000005" class="edge">
<title>Node12&#45;&gt;Node5</title>
<g id="a_edge16_Node000012_Node000005"><a xlink:title=" ">
<path fill="none" stroke="#63b8ff" d="M160.27,-111.59C179.87,-103.13 208.93,-90.58 231.22,-80.94"/>
<polygon fill="#63b8ff" stroke="#63b8ff" points="232.38,-84.26 240.17,-77.08 229.6,-77.83 232.38,-84.26"/>
</a>
</g>
</g>
</g>
</svg>
