<?xml version="1.0" encoding="UTF-8" standalone="no"?>
<!DOCTYPE svg PUBLIC "-//W3C//DTD SVG 1.1//EN"
 "http://www.w3.org/Graphics/SVG/1.1/DTD/svg11.dtd">
<!-- Generated by graphviz version 9.0.0 (20230911.1827)
 -->
<!-- Title: wiNpoS&#45;Shared/WinPosWndCfg.cpp Pages: 1 -->
<svg width="1134pt" height="196pt"
 viewBox="0.00 0.00 1133.88 196.00" xmlns="http://www.w3.org/2000/svg" xmlns:xlink="http://www.w3.org/1999/xlink">
<g id="graph0" class="graph" transform="scale(1 1) rotate(0) translate(4 192)">
<title>wiNpoS&#45;Shared/WinPosWndCfg.cpp</title>
<!-- Node1 -->
<g id="Node000001" class="node">
<title>Node1</title>
<g id="a_Node000001"><a xlink:title=" ">
<polygon fill="#999999" stroke="#666666" points="762.25,-188 588.75,-188 588.75,-168 762.25,-168 762.25,-188"/>
<text text-anchor="middle" x="675.5" y="-174.5" font-family="Helvetica,sans-Serif" font-size="10.00">wiNpoS&#45;Shared/WinPosWndCfg.cpp</text>
</a>
</g>
</g>
<!-- Node2 -->
<g id="Node000002" class="node">
<title>Node2</title>
<g id="a_Node000002"><a xlink:title=" ">
<polygon fill="#e0e0e0" stroke="#999999" points="155.5,-132 115.5,-132 115.5,-112 155.5,-112 155.5,-132"/>
<text text-anchor="middle" x="135.5" y="-118.5" font-family="Helvetica,sans-Serif" font-size="10.00">pch.h</text>
</a>
</g>
</g>
<!-- Node1&#45;&gt;Node2 -->
<g id="edge1_Node000001_Node000002" class="edge">
<title>Node1&#45;&gt;Node2</title>
<g id="a_edge1_Node000001_Node000002"><a xlink:title=" ">
<path fill="none" stroke="#63b8ff" d="M588.51,-173.76C487.23,-168.95 315.22,-157.57 169.5,-132 168.67,-131.85 167.82,-131.7 166.97,-131.53"/>
<polygon fill="#63b8ff" stroke="#63b8ff" points="167.88,-128.15 157.35,-129.33 166.32,-134.97 167.88,-128.15"/>
</a>
</g>
</g>
<!-- Node3 -->
<g id="Node000003" class="node">
<title>Node3</title>
<g id="a_Node000003"><a xlink:title=" ">
<polygon fill="#e0e0e0" stroke="#999999" points="43,-20 0,-20 0,0 43,0 43,-20"/>
<text text-anchor="middle" x="21.5" y="-6.5" font-family="Helvetica,sans-Serif" font-size="10.00">format</text>
</a>
</g>
</g>
<!-- Node1&#45;&gt;Node3 -->
<g id="edge2_Node000001_Node000003" class="edge">
<title>Node1&#45;&gt;Node3</title>
<g id="a_edge2_Node000001_Node000003"><a xlink:title=" ">
<path fill="none" stroke="#63b8ff" d="M588.54,-172.87C476.71,-166.78 289.11,-153.7 223.5,-132 150.77,-107.94 76.29,-54.28 41.58,-27.23"/>
<polygon fill="#63b8ff" stroke="#63b8ff" points="44.09,-24.75 34.07,-21.3 39.75,-30.24 44.09,-24.75"/>
</a>
</g>
</g>
<!-- Node4 -->
<g id="Node000004" class="node">
<title>Node4</title>
<g id="a_Node000004"><a xlink:title=" ">
<polygon fill="#e0e0e0" stroke="#999999" points="429,-132 344,-132 344,-112 429,-112 429,-132"/>
<text text-anchor="middle" x="386.5" y="-118.5" font-family="Helvetica,sans-Serif" font-size="10.00">filereadstream.h</text>
</a>
</g>
</g>
<!-- Node1&#45;&gt;Node4 -->
<g id="edge3_Node000001_Node000004" class="edge">
<title>Node1&#45;&gt;Node4</title>
<g id="a_edge3_Node000001_Node000004"><a xlink:title=" ">
<path fill="none" stroke="#63b8ff" d="M624.83,-167.53C573.1,-157.87 493.1,-142.92 440.28,-133.05"/>
<polygon fill="#63b8ff" stroke="#63b8ff" points="441.07,-129.64 430.6,-131.24 439.78,-136.52 441.07,-129.64"/>
</a>
</g>
</g>
<!-- Node5 -->
<g id="Node000005" class="node">
<title>Node5</title>
<g id="a_Node000005"><a xlink:title=" ">
<polygon fill="#e0e0e0" stroke="#999999" points="533.75,-132 447.25,-132 447.25,-112 533.75,-112 533.75,-132"/>
<text text-anchor="middle" x="490.5" y="-118.5" font-family="Helvetica,sans-Serif" font-size="10.00">filewritestream.h</text>
</a>
</g>
</g>
<!-- Node1&#45;&gt;Node5 -->
<g id="edge4_Node000001_Node000005" class="edge">
<title>Node1&#45;&gt;Node5</title>
<g id="a_edge4_Node000001_Node000005"><a xlink:title=" ">
<path fill="none" stroke="#63b8ff" d="M643.28,-167.59C612.95,-158.74 567.33,-145.43 533.83,-135.65"/>
<polygon fill="#63b8ff" stroke="#63b8ff" points="535.01,-132.35 524.43,-132.9 533.05,-139.07 535.01,-132.35"/>
</a>
</g>
</g>
<!-- Node6 -->
<g id="Node000006" class="node">
<title>Node6</title>
<g id="a_Node000006"><a xlink:title=" ">
<polygon fill="#e0e0e0" stroke="#999999" points="623.62,-132 551.38,-132 551.38,-112 623.62,-112 623.62,-132"/>
<text text-anchor="middle" x="587.5" y="-118.5" font-family="Helvetica,sans-Serif" font-size="10.00">prettywriter.h</text>
</a>
</g>
</g>
<!-- Node1&#45;&gt;Node6 -->
<g id="edge5_Node000001_Node000006" class="edge">
<title>Node1&#45;&gt;Node6</title>
<g id="a_edge5_Node000001_Node000006"><a xlink:title=" ">
<path fill="none" stroke="#63b8ff" d="M660.17,-167.59C647,-159.51 627.77,-147.71 612.39,-138.27"/>
<polygon fill="#63b8ff" stroke="#63b8ff" points="614.59,-135.52 604.24,-133.27 610.93,-141.48 614.59,-135.52"/>
</a>
</g>
</g>
<!-- Node7 -->
<g id="Node000007" class="node">
<title>Node7</title>
<g id="a_Node000007"><a xlink:title=" ">
<polygon fill="#e0e0e0" stroke="#999999" points="709,-132 642,-132 642,-112 709,-112 709,-132"/>
<text text-anchor="middle" x="675.5" y="-118.5" font-family="Helvetica,sans-Serif" font-size="10.00">document.h</text>
</a>
</g>
</g>
<!-- Node1&#45;&gt;Node7 -->
<g id="edge6_Node000001_Node000007" class="edge">
<title>Node1&#45;&gt;Node7</title>
<g id="a_edge6_Node000001_Node000007"><a xlink:title=" ">
<path fill="none" stroke="#63b8ff" d="M675.5,-167.59C675.5,-161.01 675.5,-151.96 675.5,-143.73"/>
<polygon fill="#63b8ff" stroke="#63b8ff" points="679,-143.81 675.5,-133.81 672,-143.81 679,-143.81"/>
</a>
</g>
</g>
<!-- Node8 -->
<g id="Node000008" class="node">
<title>Node8</title>
<g id="a_Node000008"><a xlink:title=" ">
<polygon fill="#e0e0e0" stroke="#999999" points="774.25,-132 726.75,-132 726.75,-112 774.25,-112 774.25,-132"/>
<text text-anchor="middle" x="750.5" y="-118.5" font-family="Helvetica,sans-Serif" font-size="10.00">writer.h</text>
</a>
</g>
</g>
<!-- Node1&#45;&gt;Node8 -->
<g id="edge7_Node000001_Node000008" class="edge">
<title>Node1&#45;&gt;Node8</title>
<g id="a_edge7_Node000001_Node000008"><a xlink:title=" ">
<path fill="none" stroke="#63b8ff" d="M688.56,-167.59C699.47,-159.74 715.25,-148.38 728.16,-139.09"/>
<polygon fill="#63b8ff" stroke="#63b8ff" points="730.04,-142.05 736.11,-133.36 725.95,-136.37 730.04,-142.05"/>
</a>
</g>
</g>
<!-- Node9 -->
<g id="Node000009" class="node">
<title>Node9</title>
<g id="a_Node000009"><a xlink:title=" ">
<polygon fill="#e0e0e0" stroke="#999999" points="838.88,-132 792.12,-132 792.12,-112 838.88,-112 838.88,-132"/>
<text text-anchor="middle" x="815.5" y="-118.5" font-family="Helvetica,sans-Serif" font-size="10.00">xlocbuf</text>
</a>
</g>
</g>
<!-- Node1&#45;&gt;Node9 -->
<g id="edge8_Node000001_Node000009" class="edge">
<title>Node1&#45;&gt;Node9</title>
<g id="a_edge8_Node000001_Node000009"><a xlink:title=" ">
<path fill="none" stroke="#63b8ff" d="M699.89,-167.59C722.41,-158.91 756.08,-145.92 781.29,-136.2"/>
<polygon fill="#63b8ff" stroke="#63b8ff" points="782.38,-139.53 790.45,-132.66 779.86,-133 782.38,-139.53"/>
</a>
</g>
</g>
<!-- Node10 -->
<g id="Node000010" class="node">
<title>Node10</title>
<g id="a_Node000010"><a xlink:title=" ">
<polygon fill="#e0e0e0" stroke="#999999" points="906,-132 857,-132 857,-112 906,-112 906,-132"/>
<text text-anchor="middle" x="881.5" y="-118.5" font-family="Helvetica,sans-Serif" font-size="10.00">codecvt</text>
</a>
</g>
</g>
<!-- Node1&#45;&gt;Node10 -->
<g id="edge9_Node000001_Node000010" class="edge">
<title>Node1&#45;&gt;Node10</title>
<g id="a_edge9_Node000001_Node000010"><a xlink:title=" ">
<path fill="none" stroke="#63b8ff" d="M711.75,-167.55C744.25,-159.07 793.54,-146.19 845.5,-132.52"/>
<polygon fill="#63b8ff" stroke="#63b8ff" points="846.38,-135.91 855.16,-129.98 844.59,-129.14 846.38,-135.91"/>
</a>
</g>
</g>
<!-- Node11 -->
<g id="Node000011" class="node">
<title>Node11</title>
<g id="a_Node000011"><a xlink:title=" ">
<polygon fill="#e0e0e0" stroke="#999999" points="961,-132 924,-132 924,-112 961,-112 961,-132"/>
<text text-anchor="middle" x="942.5" y="-118.5" font-family="Helvetica,sans-Serif" font-size="10.00">tuple</text>
</a>
</g>
</g>
<!-- Node1&#45;&gt;Node11 -->
<g id="edge10_Node000001_Node000011" class="edge">
<title>Node1&#45;&gt;Node11</title>
<g id="a_edge10_Node000001_Node000011"><a xlink:title=" ">
<path fill="none" stroke="#63b8ff" d="M738.93,-167.53C784.95,-160.11 848.85,-148.68 912.65,-132.48"/>
<polygon fill="#63b8ff" stroke="#63b8ff" points="913.44,-135.89 922.25,-130 911.69,-129.12 913.44,-135.89"/>
</a>
</g>
</g>
<!-- Node12 -->
<g id="Node000012" class="node">
<title>Node12</title>
<g id="a_Node000012"><a xlink:title=" ">
<polygon fill="#e0e0e0" stroke="#999999" points="1037.5,-132 979.5,-132 979.5,-112 1037.5,-112 1037.5,-132"/>
<text text-anchor="middle" x="1008.5" y="-118.5" font-family="Helvetica,sans-Serif" font-size="10.00">Shlwapi.h</text>
</a>
</g>
</g>
<!-- Node1&#45;&gt;Node12 -->
<g id="edge11_Node000001_Node000012" class="edge">
<title>Node1&#45;&gt;Node12</title>
<g id="a_edge11_Node000001_Node000012"><a xlink:title=" ">
<path fill="none" stroke="#63b8ff" d="M748.83,-167.5C806,-159.71 887.63,-147.74 967.79,-132.4"/>
<polygon fill="#63b8ff" stroke="#63b8ff" points="968.45,-135.84 977.61,-130.5 967.12,-128.97 968.45,-135.84"/>
</a>
</g>
</g>
<!-- Node13 -->
<g id="Node000013" class="node">
<title>Node13</title>
<g id="a_Node000013"><a xlink:href="_debug_new_8h.html" target="_top" xlink:title=" ">
<polygon fill="white" stroke="#666666" points="1125.88,-132 1055.12,-132 1055.12,-112 1125.88,-112 1125.88,-132"/>
<text text-anchor="middle" x="1090.5" y="-118.5" font-family="Helvetica,sans-Serif" font-size="10.00">DebugNew.h</text>
</a>
</g>
</g>
<!-- Node1&#45;&gt;Node13 -->
<g id="edge12_Node000001_Node000013" class="edge">
<title>Node1&#45;&gt;Node13</title>
<g id="a_edge12_Node000001_Node000013"><a xlink:title=" ">
<path fill="none" stroke="#63b8ff" d="M762.74,-168.44C835.45,-160.83 941.99,-148.62 1043.89,-132.32"/>
<polygon fill="#63b8ff" stroke="#63b8ff" points="1044.2,-135.81 1053.51,-130.76 1043.08,-128.9 1044.2,-135.81"/>
</a>
</g>
</g>
<!-- Node14 -->
<g id="Node000014" class="node">
<title>Node14</title>
<g id="a_Node000014"><a xlink:href="_win_pos_wnd_cfg_8h.html" target="_top" xlink:title=" ">
<polygon fill="white" stroke="#666666" points="326.12,-132 232.88,-132 232.88,-112 326.12,-112 326.12,-132"/>
<text text-anchor="middle" x="279.5" y="-118.5" font-family="Helvetica,sans-Serif" font-size="10.00">WinPosWndCfg.h</text>
</a>
</g>
</g>
<!-- Node1&#45;&gt;Node14 -->
<g id="edge13_Node000001_Node000014" class="edge">
<title>Node1&#45;&gt;Node14</title>
<g id="a_edge13_Node000001_Node000014"><a xlink:title=" ">
<path fill="none" stroke="#63b8ff" d="M599.12,-167.51C532.78,-159.12 433.82,-146.27 337.91,-132.32"/>
<polygon fill="#63b8ff" stroke="#63b8ff" points="338.44,-128.86 328.04,-130.88 337.43,-135.79 338.44,-128.86"/>
</a>
</g>
</g>
<!-- Node15 -->
<g id="Node000015" class="node">
<title>Node15</title>
<g id="a_Node000015"><a xlink:title=" ">
<polygon fill="#e0e0e0" stroke="#999999" points="328,-76 273,-76 273,-56 328,-56 328,-76"/>
<text text-anchor="middle" x="300.5" y="-62.5" font-family="Helvetica,sans-Serif" font-size="10.00">wtypes.h</text>
</a>
</g>
</g>
<!-- Node14&#45;&gt;Node15 -->
<g id="edge14_Node000014_Node000015" class="edge">
<title>Node14&#45;&gt;Node15</title>
<g id="a_edge14_Node000014_Node000015"><a xlink:title=" ">
<path fill="none" stroke="#63b8ff" d="M283.16,-111.59C285.81,-104.78 289.49,-95.32 292.78,-86.86"/>
<polygon fill="#63b8ff" stroke="#63b8ff" points="295.97,-88.3 296.34,-77.71 289.45,-85.76 295.97,-88.3"/>
</a>
</g>
</g>
<!-- Node16 -->
<g id="Node000016" class="node">
<title>Node16</title>
<g id="a_Node000016"><a xlink:title=" ">
<polygon fill="#e0e0e0" stroke="#999999" points="380.88,-76 346.12,-76 346.12,-56 380.88,-56 380.88,-76"/>
<text text-anchor="middle" x="363.5" y="-62.5" font-family="Helvetica,sans-Serif" font-size="10.00">map</text>
</a>
</g>
</g>
<!-- Node14&#45;&gt;Node16 -->
<g id="edge15_Node000014_Node000016" class="edge">
<title>Node14&#45;&gt;Node16</title>
<g id="a_edge15_Node000014_Node000016"><a xlink:title=" ">
<path fill="none" stroke="#63b8ff" d="M294.13,-111.59C306.58,-103.59 324.72,-91.93 339.32,-82.54"/>
<polygon fill="#63b8ff" stroke="#63b8ff" points="340.96,-85.65 347.48,-77.3 337.18,-79.76 340.96,-85.65"/>
</a>
</g>
</g>
<!-- Node17 -->
<g id="Node000017" class="node">
<title>Node17</title>
<g id="a_Node000017"><a xlink:title=" ">
<polygon fill="#e0e0e0" stroke="#999999" points="509.25,-20 467.75,-20 467.75,0 509.25,0 509.25,-20"/>
<text text-anchor="middle" x="488.5" y="-6.5" font-family="Helvetica,sans-Serif" font-size="10.00">vector</text>
</a>
</g>
</g>
<!-- Node14&#45;&gt;Node17 -->
<g id="edge16_Node000014_Node000017" class="edge">
<title>Node14&#45;&gt;Node17</title>
<g id="a_edge16_Node000014_Node000017"><a xlink:title=" ">
<path fill="none" stroke="#63b8ff" d="M306.37,-111.66C329.06,-103.39 362.11,-90.42 389.5,-76 417.23,-61.4 447.04,-41.14 466.62,-27.14"/>
<polygon fill="#63b8ff" stroke="#63b8ff" points="468.58,-30.04 474.63,-21.34 464.48,-24.37 468.58,-30.04"/>
</a>
</g>
</g>
<!-- Node18 -->
<g id="Node000018" class="node">
<title>Node18</title>
<g id="a_Node000018"><a xlink:href="_utils_8h.html" target="_top" xlink:title=" ">
<polygon fill="white" stroke="#666666" points="255.38,-76 211.62,-76 211.62,-56 255.38,-56 255.38,-76"/>
<text text-anchor="middle" x="233.5" y="-62.5" font-family="Helvetica,sans-Serif" font-size="10.00">Utils.h</text>
</a>
</g>
</g>
<!-- Node14&#45;&gt;Node18 -->
<g id="edge17_Node000014_Node000018" class="edge">
<title>Node14&#45;&gt;Node18</title>
<g id="a_edge17_Node000014_Node000018"><a xlink:title=" ">
<path fill="none" stroke="#63b8ff" d="M271.49,-111.59C265.22,-104.24 256.33,-93.8 248.72,-84.87"/>
<polygon fill="#63b8ff" stroke="#63b8ff" points="251.55,-82.79 242.4,-77.45 246.22,-87.33 251.55,-82.79"/>
</a>
</g>
</g>
<!-- Node18&#45;&gt;Node3 -->
<g id="edge20_Node000018_Node000003" class="edge">
<title>Node18&#45;&gt;Node3</title>
<g id="a_edge20_Node000018_Node000003"><a xlink:title=" ">
<path fill="none" stroke="#63b8ff" d="M211.42,-59.47C206.82,-58.32 202,-57.12 197.5,-56 136.06,-40.74 117.86,-37.89 54.45,-20.72"/>
<polygon fill="#63b8ff" stroke="#63b8ff" points="55.45,-17.36 44.88,-18.11 53.61,-24.12 55.45,-17.36"/>
</a>
</g>
</g>
<!-- Node18&#45;&gt;Node17 -->
<g id="edge22_Node000018_Node000017" class="edge">
<title>Node18&#45;&gt;Node17</title>
<g id="a_edge22_Node000018_Node000017"><a xlink:title=" ">
<path fill="none" stroke="#63b8ff" d="M255.78,-58.25C258.7,-57.44 261.66,-56.67 264.5,-56 346.41,-36.56 371.29,-40.28 456.31,-20.3"/>
<polygon fill="#63b8ff" stroke="#63b8ff" points="456.89,-23.76 465.8,-18.03 455.26,-16.96 456.89,-23.76"/>
</a>
</g>
</g>
<!-- Node19 -->
<g id="Node000019" class="node">
<title>Node19</title>
<g id="a_Node000019"><a xlink:title=" ">
<polygon fill="#e0e0e0" stroke="#999999" points="449.5,-20 409.5,-20 409.5,0 449.5,0 449.5,-20"/>
<text text-anchor="middle" x="429.5" y="-6.5" font-family="Helvetica,sans-Serif" font-size="10.00">string</text>
</a>
</g>
</g>
<!-- Node18&#45;&gt;Node19 -->
<g id="edge18_Node000018_Node000019" class="edge">
<title>Node18&#45;&gt;Node19</title>
<g id="a_edge18_Node000018_Node000019"><a xlink:title=" ">
<path fill="none" stroke="#63b8ff" d="M255.83,-58.45C258.75,-57.61 261.69,-56.78 264.5,-56 321.45,-40.2 338.56,-37.53 398.42,-20.51"/>
<polygon fill="#63b8ff" stroke="#63b8ff" points="399.15,-23.94 407.8,-17.82 397.22,-17.21 399.15,-23.94"/>
</a>
</g>
</g>
<!-- Node20 -->
<g id="Node000020" class="node">
<title>Node20</title>
<g id="a_Node000020"><a xlink:title=" ">
<polygon fill="#e0e0e0" stroke="#999999" points="106.12,-20 60.88,-20 60.88,0 106.12,0 106.12,-20"/>
<text text-anchor="middle" x="83.5" y="-6.5" font-family="Helvetica,sans-Serif" font-size="10.00">xstring</text>
</a>
</g>
</g>
<!-- Node18&#45;&gt;Node20 -->
<g id="edge19_Node000018_Node000020" class="edge">
<title>Node18&#45;&gt;Node20</title>
<g id="a_edge19_Node000018_Node000020"><a xlink:title=" ">
<path fill="none" stroke="#63b8ff" d="M211.37,-57.03C186.47,-48.07 145.77,-33.42 116.99,-23.05"/>
<polygon fill="#63b8ff" stroke="#63b8ff" points="118.23,-19.78 107.64,-19.69 115.86,-26.37 118.23,-19.78"/>
</a>
</g>
</g>
<!-- Node21 -->
<g id="Node000021" class="node">
<title>Node21</title>
<g id="a_Node000021"><a xlink:title=" ">
<polygon fill="#e0e0e0" stroke="#999999" points="187.12,-20 123.88,-20 123.88,0 187.12,0 187.12,-20"/>
<text text-anchor="middle" x="155.5" y="-6.5" font-family="Helvetica,sans-Serif" font-size="10.00">debugapi.h</text>
</a>
</g>
</g>
<!-- Node18&#45;&gt;Node21 -->
<g id="edge21_Node000018_Node000021" class="edge">
<title>Node18&#45;&gt;Node21</title>
<g id="a_edge21_Node000018_Node000021"><a xlink:title=" ">
<path fill="none" stroke="#63b8ff" d="M219.91,-55.59C208.46,-47.67 191.84,-36.16 178.34,-26.82"/>
<polygon fill="#63b8ff" stroke="#63b8ff" points="180.65,-24.16 170.44,-21.34 176.67,-29.91 180.65,-24.16"/>
</a>
</g>
</g>
<!-- Node22 -->
<g id="Node000022" class="node">
<title>Node22</title>
<g id="a_Node000022"><a xlink:title=" ">
<polygon fill="#e0e0e0" stroke="#999999" points="261.38,-20 205.62,-20 205.62,0 261.38,0 261.38,-20"/>
<text text-anchor="middle" x="233.5" y="-6.5" font-family="Helvetica,sans-Serif" font-size="10.00">algorithm</text>
</a>
</g>
</g>
<!-- Node18&#45;&gt;Node22 -->
<g id="edge23_Node000018_Node000022" class="edge">
<title>Node18&#45;&gt;Node22</title>
<g id="a_edge23_Node000018_Node000022"><a xlink:title=" ">
<path fill="none" stroke="#63b8ff" d="M233.5,-55.59C233.5,-49.01 233.5,-39.96 233.5,-31.73"/>
<polygon fill="#63b8ff" stroke="#63b8ff" points="237,-31.81 233.5,-21.81 230,-31.81 237,-31.81"/>
</a>
</g>
</g>
<!-- Node23 -->
<g id="Node000023" class="node">
<title>Node23</title>
<g id="a_Node000023"><a xlink:title=" ">
<polygon fill="#e0e0e0" stroke="#999999" points="391.88,-20 279.12,-20 279.12,0 391.88,0 391.88,-20"/>
<text text-anchor="middle" x="335.5" y="-6.5" font-family="Helvetica,sans-Serif" font-size="10.00">vcruntime_exception.h</text>
</a>
</g>
</g>
<!-- Node18&#45;&gt;Node23 -->
<g id="edge24_Node000018_Node000023" class="edge">
<title>Node18&#45;&gt;Node23</title>
<g id="a_edge24_Node000018_Node000023"><a xlink:title=" ">
<path fill="none" stroke="#63b8ff" d="M251.27,-55.59C266.82,-47.36 289.68,-35.26 307.66,-25.74"/>
<polygon fill="#63b8ff" stroke="#63b8ff" points="309.06,-28.96 316.26,-21.19 305.78,-22.77 309.06,-28.96"/>
</a>
</g>
</g>
</g>
</svg>
