<?xml version="1.0" encoding="UTF-8" standalone="no"?>
<!DOCTYPE svg PUBLIC "-//W3C//DTD SVG 1.1//EN"
 "http://www.w3.org/Graphics/SVG/1.1/DTD/svg11.dtd">
<!-- Generated by graphviz version 8.1.0 (20230707.0739)
 -->
<!-- Title: wiNpoS&#45;Shared/WinPosWndCfg.cpp Pages: 1 -->
<svg width="1134pt" height="196pt"
 viewBox="0.00 0.00 1133.88 196.00" xmlns="http://www.w3.org/2000/svg" xmlns:xlink="http://www.w3.org/1999/xlink">
<g id="graph0" class="graph" transform="scale(1 1) rotate(0) translate(4 192)">
<title>wiNpoS&#45;Shared/WinPosWndCfg.cpp</title>
<!-- Node1 -->
<g id="Node000001" class="node">
<title>Node1</title>
<g id="a_Node000001"><a xlink:title=" ">
<polygon fill="#999999" stroke="#666666" points="762.25,-188 588.75,-188 588.75,-168 762.25,-168 762.25,-188"/>
<text text-anchor="middle" x="675.5" y="-174.5" font-family="Helvetica,sans-Serif" font-size="10.00">wiNpoS&#45;Shared/WinPosWndCfg.cpp</text>
</a>
</g>
</g>
<!-- Node2 -->
<g id="Node000002" class="node">
<title>Node2</title>
<g id="a_Node000002"><a xlink:title=" ">
<polygon fill="#e0e0e0" stroke="#999999" points="155.5,-132 115.5,-132 115.5,-112 155.5,-112 155.5,-132"/>
<text text-anchor="middle" x="135.5" y="-118.5" font-family="Helvetica,sans-Serif" font-size="10.00">pch.h</text>
</a>
</g>
</g>
<!-- Node1&#45;&gt;Node2 -->
<g id="edge1_Node000001_Node000002" class="edge">
<title>Node1&#45;&gt;Node2</title>
<g id="a_edge1_Node000001_Node000002"><a xlink:title=" ">
<path fill="none" stroke="#63b8ff" d="M588.51,-173.76C487.23,-168.95 315.22,-157.57 169.5,-132 168.53,-131.83 167.54,-131.64 166.55,-131.45"/>
<polygon fill="#63b8ff" stroke="#63b8ff" points="167.4,-127.82 156.87,-128.99 165.83,-134.64 167.4,-127.82"/>
</a>
</g>
</g>
<!-- Node3 -->
<g id="Node000003" class="node">
<title>Node3</title>
<g id="a_Node000003"><a xlink:title=" ">
<polygon fill="#e0e0e0" stroke="#999999" points="43,-20 0,-20 0,0 43,0 43,-20"/>
<text text-anchor="middle" x="21.5" y="-6.5" font-family="Helvetica,sans-Serif" font-size="10.00">format</text>
</a>
</g>
</g>
<!-- Node1&#45;&gt;Node3 -->
<g id="edge2_Node000001_Node000003" class="edge">
<title>Node1&#45;&gt;Node3</title>
<g id="a_edge2_Node000001_Node000003"><a xlink:title=" ">
<path fill="none" stroke="#63b8ff" d="M588.54,-172.87C476.71,-166.78 289.11,-153.7 223.5,-132 150.46,-107.84 75.65,-53.82 41.14,-26.89"/>
<polygon fill="#63b8ff" stroke="#63b8ff" points="43.9,-23.82 33.88,-20.36 39.56,-29.31 43.9,-23.82"/>
</a>
</g>
</g>
<!-- Node4 -->
<g id="Node000004" class="node">
<title>Node4</title>
<g id="a_Node000004"><a xlink:title=" ">
<polygon fill="#e0e0e0" stroke="#999999" points="429,-132 344,-132 344,-112 429,-112 429,-132"/>
<text text-anchor="middle" x="386.5" y="-118.5" font-family="Helvetica,sans-Serif" font-size="10.00">filereadstream.h</text>
</a>
</g>
</g>
<!-- Node1&#45;&gt;Node4 -->
<g id="edge3_Node000001_Node000004" class="edge">
<title>Node1&#45;&gt;Node4</title>
<g id="a_edge3_Node000001_Node000004"><a xlink:title=" ">
<path fill="none" stroke="#63b8ff" d="M624.83,-167.53C572.88,-157.83 492.43,-142.79 439.61,-132.92"/>
<polygon fill="#63b8ff" stroke="#63b8ff" points="440.58,-129.36 430.11,-130.96 439.3,-136.24 440.58,-129.36"/>
</a>
</g>
</g>
<!-- Node5 -->
<g id="Node000005" class="node">
<title>Node5</title>
<g id="a_Node000005"><a xlink:title=" ">
<polygon fill="#e0e0e0" stroke="#999999" points="533.75,-132 447.25,-132 447.25,-112 533.75,-112 533.75,-132"/>
<text text-anchor="middle" x="490.5" y="-118.5" font-family="Helvetica,sans-Serif" font-size="10.00">filewritestream.h</text>
</a>
</g>
</g>
<!-- Node1&#45;&gt;Node5 -->
<g id="edge4_Node000001_Node000005" class="edge">
<title>Node1&#45;&gt;Node5</title>
<g id="a_edge4_Node000001_Node000005"><a xlink:title=" ">
<path fill="none" stroke="#63b8ff" d="M643.28,-167.59C612.82,-158.71 566.93,-145.31 533.4,-135.52"/>
<polygon fill="#63b8ff" stroke="#63b8ff" points="534.56,-131.92 523.98,-132.48 532.59,-138.64 534.56,-131.92"/>
</a>
</g>
</g>
<!-- Node6 -->
<g id="Node000006" class="node">
<title>Node6</title>
<g id="a_Node000006"><a xlink:title=" ">
<polygon fill="#e0e0e0" stroke="#999999" points="623.62,-132 551.38,-132 551.38,-112 623.62,-112 623.62,-132"/>
<text text-anchor="middle" x="587.5" y="-118.5" font-family="Helvetica,sans-Serif" font-size="10.00">prettywriter.h</text>
</a>
</g>
</g>
<!-- Node1&#45;&gt;Node6 -->
<g id="edge5_Node000001_Node000006" class="edge">
<title>Node1&#45;&gt;Node6</title>
<g id="a_edge5_Node000001_Node000006"><a xlink:title=" ">
<path fill="none" stroke="#63b8ff" d="M660.17,-167.59C646.88,-159.44 627.4,-147.48 611.95,-138"/>
<polygon fill="#63b8ff" stroke="#63b8ff" points="614.3,-134.73 603.95,-132.48 610.64,-140.69 614.3,-134.73"/>
</a>
</g>
</g>
<!-- Node7 -->
<g id="Node000007" class="node">
<title>Node7</title>
<g id="a_Node000007"><a xlink:title=" ">
<polygon fill="#e0e0e0" stroke="#999999" points="709,-132 642,-132 642,-112 709,-112 709,-132"/>
<text text-anchor="middle" x="675.5" y="-118.5" font-family="Helvetica,sans-Serif" font-size="10.00">document.h</text>
</a>
</g>
</g>
<!-- Node1&#45;&gt;Node7 -->
<g id="edge6_Node000001_Node000007" class="edge">
<title>Node1&#45;&gt;Node7</title>
<g id="a_edge6_Node000001_Node000007"><a xlink:title=" ">
<path fill="none" stroke="#63b8ff" d="M675.5,-167.59C675.5,-160.86 675.5,-151.53 675.5,-143.15"/>
<polygon fill="#63b8ff" stroke="#63b8ff" points="679,-143.3 675.5,-133.3 672,-143.3 679,-143.3"/>
</a>
</g>
</g>
<!-- Node8 -->
<g id="Node000008" class="node">
<title>Node8</title>
<g id="a_Node000008"><a xlink:title=" ">
<polygon fill="#e0e0e0" stroke="#999999" points="774.25,-132 726.75,-132 726.75,-112 774.25,-112 774.25,-132"/>
<text text-anchor="middle" x="750.5" y="-118.5" font-family="Helvetica,sans-Serif" font-size="10.00">writer.h</text>
</a>
</g>
</g>
<!-- Node1&#45;&gt;Node8 -->
<g id="edge7_Node000001_Node000008" class="edge">
<title>Node1&#45;&gt;Node8</title>
<g id="a_edge7_Node000001_Node000008"><a xlink:title=" ">
<path fill="none" stroke="#63b8ff" d="M688.56,-167.59C699.57,-159.67 715.56,-148.16 728.53,-138.82"/>
<polygon fill="#63b8ff" stroke="#63b8ff" points="730.26,-141.16 736.33,-132.48 726.17,-135.48 730.26,-141.16"/>
</a>
</g>
</g>
<!-- Node9 -->
<g id="Node000009" class="node">
<title>Node9</title>
<g id="a_Node000009"><a xlink:title=" ">
<polygon fill="#e0e0e0" stroke="#999999" points="838.88,-132 792.12,-132 792.12,-112 838.88,-112 838.88,-132"/>
<text text-anchor="middle" x="815.5" y="-118.5" font-family="Helvetica,sans-Serif" font-size="10.00">xlocbuf</text>
</a>
</g>
</g>
<!-- Node1&#45;&gt;Node9 -->
<g id="edge8_Node000001_Node000009" class="edge">
<title>Node1&#45;&gt;Node9</title>
<g id="a_edge8_Node000001_Node000009"><a xlink:title=" ">
<path fill="none" stroke="#63b8ff" d="M699.89,-167.59C722.51,-158.87 756.39,-145.8 781.63,-136.06"/>
<polygon fill="#63b8ff" stroke="#63b8ff" points="782.79,-138.98 790.86,-132.12 780.27,-132.45 782.79,-138.98"/>
</a>
</g>
</g>
<!-- Node10 -->
<g id="Node000010" class="node">
<title>Node10</title>
<g id="a_Node000010"><a xlink:title=" ">
<polygon fill="#e0e0e0" stroke="#999999" points="906,-132 857,-132 857,-112 906,-112 906,-132"/>
<text text-anchor="middle" x="881.5" y="-118.5" font-family="Helvetica,sans-Serif" font-size="10.00">codecvt</text>
</a>
</g>
</g>
<!-- Node1&#45;&gt;Node10 -->
<g id="edge9_Node000001_Node000010" class="edge">
<title>Node1&#45;&gt;Node10</title>
<g id="a_edge9_Node000001_Node000010"><a xlink:title=" ">
<path fill="none" stroke="#63b8ff" d="M711.75,-167.55C744.39,-159.03 793.95,-146.08 846.15,-132.35"/>
<polygon fill="#63b8ff" stroke="#63b8ff" points="846.84,-135.52 855.62,-129.59 845.06,-128.75 846.84,-135.52"/>
</a>
</g>
</g>
<!-- Node11 -->
<g id="Node000011" class="node">
<title>Node11</title>
<g id="a_Node000011"><a xlink:title=" ">
<polygon fill="#e0e0e0" stroke="#999999" points="961,-132 924,-132 924,-112 961,-112 961,-132"/>
<text text-anchor="middle" x="942.5" y="-118.5" font-family="Helvetica,sans-Serif" font-size="10.00">tuple</text>
</a>
</g>
</g>
<!-- Node1&#45;&gt;Node11 -->
<g id="edge10_Node000001_Node000011" class="edge">
<title>Node1&#45;&gt;Node11</title>
<g id="a_edge10_Node000001_Node000011"><a xlink:title=" ">
<path fill="none" stroke="#63b8ff" d="M738.93,-167.53C785.14,-160.08 849.38,-148.58 913.44,-132.28"/>
<polygon fill="#63b8ff" stroke="#63b8ff" points="913.91,-135.52 922.72,-129.63 912.16,-128.74 913.91,-135.52"/>
</a>
</g>
</g>
<!-- Node12 -->
<g id="Node000012" class="node">
<title>Node12</title>
<g id="a_Node000012"><a xlink:title=" ">
<polygon fill="#e0e0e0" stroke="#999999" points="1037.5,-132 979.5,-132 979.5,-112 1037.5,-112 1037.5,-132"/>
<text text-anchor="middle" x="1008.5" y="-118.5" font-family="Helvetica,sans-Serif" font-size="10.00">Shlwapi.h</text>
</a>
</g>
</g>
<!-- Node1&#45;&gt;Node12 -->
<g id="edge11_Node000001_Node000012" class="edge">
<title>Node1&#45;&gt;Node12</title>
<g id="a_edge11_Node000001_Node000012"><a xlink:title=" ">
<path fill="none" stroke="#63b8ff" d="M748.83,-167.5C806.23,-159.67 888.3,-147.64 968.78,-132.21"/>
<polygon fill="#63b8ff" stroke="#63b8ff" points="968.94,-135.55 978.09,-130.21 967.61,-128.68 968.94,-135.55"/>
</a>
</g>
</g>
<!-- Node13 -->
<g id="Node000013" class="node">
<title>Node13</title>
<g id="a_Node000013"><a xlink:href="_debug_new_8h.html" target="_top" xlink:title=" ">
<polygon fill="white" stroke="#666666" points="1125.88,-132 1055.12,-132 1055.12,-112 1125.88,-112 1125.88,-132"/>
<text text-anchor="middle" x="1090.5" y="-118.5" font-family="Helvetica,sans-Serif" font-size="10.00">DebugNew.h</text>
</a>
</g>
</g>
<!-- Node1&#45;&gt;Node13 -->
<g id="edge12_Node000001_Node000013" class="edge">
<title>Node1&#45;&gt;Node13</title>
<g id="a_edge12_Node000001_Node000013"><a xlink:title=" ">
<path fill="none" stroke="#63b8ff" d="M762.74,-168.44C835.52,-160.83 942.21,-148.6 1044.2,-132.27"/>
<polygon fill="#63b8ff" stroke="#63b8ff" points="1044.69,-135.57 1054,-130.52 1043.57,-128.66 1044.69,-135.57"/>
</a>
</g>
</g>
<!-- Node14 -->
<g id="Node000014" class="node">
<title>Node14</title>
<g id="a_Node000014"><a xlink:href="_win_pos_wnd_cfg_8h.html" target="_top" xlink:title=" ">
<polygon fill="white" stroke="#666666" points="326.12,-132 232.88,-132 232.88,-112 326.12,-112 326.12,-132"/>
<text text-anchor="middle" x="279.5" y="-118.5" font-family="Helvetica,sans-Serif" font-size="10.00">WinPosWndCfg.h</text>
</a>
</g>
</g>
<!-- Node1&#45;&gt;Node14 -->
<g id="edge13_Node000001_Node000014" class="edge">
<title>Node1&#45;&gt;Node14</title>
<g id="a_edge13_Node000001_Node000014"><a xlink:title=" ">
<path fill="none" stroke="#63b8ff" d="M599.12,-167.51C532.65,-159.1 433.42,-146.22 337.33,-132.23"/>
<polygon fill="#63b8ff" stroke="#63b8ff" points="337.94,-128.64 327.54,-130.66 336.93,-135.57 337.94,-128.64"/>
</a>
</g>
</g>
<!-- Node15 -->
<g id="Node000015" class="node">
<title>Node15</title>
<g id="a_Node000015"><a xlink:title=" ">
<polygon fill="#e0e0e0" stroke="#999999" points="328,-76 273,-76 273,-56 328,-56 328,-76"/>
<text text-anchor="middle" x="300.5" y="-62.5" font-family="Helvetica,sans-Serif" font-size="10.00">wtypes.h</text>
</a>
</g>
</g>
<!-- Node14&#45;&gt;Node15 -->
<g id="edge14_Node000014_Node000015" class="edge">
<title>Node14&#45;&gt;Node15</title>
<g id="a_edge14_Node000014_Node000015"><a xlink:title=" ">
<path fill="none" stroke="#63b8ff" d="M283.16,-111.59C285.87,-104.63 289.66,-94.89 293,-86.29"/>
<polygon fill="#63b8ff" stroke="#63b8ff" points="296.52,-87.89 296.88,-77.3 290,-85.35 296.52,-87.89"/>
</a>
</g>
</g>
<!-- Node16 -->
<g id="Node000016" class="node">
<title>Node16</title>
<g id="a_Node000016"><a xlink:title=" ">
<polygon fill="#e0e0e0" stroke="#999999" points="380.88,-76 346.12,-76 346.12,-56 380.88,-56 380.88,-76"/>
<text text-anchor="middle" x="363.5" y="-62.5" font-family="Helvetica,sans-Serif" font-size="10.00">map</text>
</a>
</g>
</g>
<!-- Node14&#45;&gt;Node16 -->
<g id="edge15_Node000014_Node000016" class="edge">
<title>Node14&#45;&gt;Node16</title>
<g id="a_edge15_Node000014_Node000016"><a xlink:title=" ">
<path fill="none" stroke="#63b8ff" d="M294.13,-111.59C306.7,-103.51 325.07,-91.71 339.74,-82.27"/>
<polygon fill="#63b8ff" stroke="#63b8ff" points="341.24,-84.83 347.75,-76.48 337.45,-78.94 341.24,-84.83"/>
</a>
</g>
</g>
<!-- Node17 -->
<g id="Node000017" class="node">
<title>Node17</title>
<g id="a_Node000017"><a xlink:title=" ">
<polygon fill="#e0e0e0" stroke="#999999" points="509.25,-20 467.75,-20 467.75,0 509.25,0 509.25,-20"/>
<text text-anchor="middle" x="488.5" y="-6.5" font-family="Helvetica,sans-Serif" font-size="10.00">vector</text>
</a>
</g>
</g>
<!-- Node14&#45;&gt;Node17 -->
<g id="edge16_Node000014_Node000017" class="edge">
<title>Node14&#45;&gt;Node17</title>
<g id="a_edge16_Node000014_Node000017"><a xlink:title=" ">
<path fill="none" stroke="#63b8ff" d="M306.37,-111.66C329.06,-103.39 362.11,-90.42 389.5,-76 417.49,-61.26 447.59,-40.77 467.15,-26.75"/>
<polygon fill="#63b8ff" stroke="#63b8ff" points="468.81,-29.15 474.86,-20.45 464.71,-23.48 468.81,-29.15"/>
</a>
</g>
</g>
<!-- Node18 -->
<g id="Node000018" class="node">
<title>Node18</title>
<g id="a_Node000018"><a xlink:href="_utils_8h.html" target="_top" xlink:title=" ">
<polygon fill="white" stroke="#666666" points="255.38,-76 211.62,-76 211.62,-56 255.38,-56 255.38,-76"/>
<text text-anchor="middle" x="233.5" y="-62.5" font-family="Helvetica,sans-Serif" font-size="10.00">Utils.h</text>
</a>
</g>
</g>
<!-- Node14&#45;&gt;Node18 -->
<g id="edge17_Node000014_Node000018" class="edge">
<title>Node14&#45;&gt;Node18</title>
<g id="a_edge17_Node000014_Node000018"><a xlink:title=" ">
<path fill="none" stroke="#63b8ff" d="M271.49,-111.59C265.16,-104.16 256.14,-93.58 248.48,-84.58"/>
<polygon fill="#63b8ff" stroke="#63b8ff" points="250.57,-82.64 241.42,-77.3 245.24,-87.18 250.57,-82.64"/>
</a>
</g>
</g>
<!-- Node18&#45;&gt;Node3 -->
<g id="edge20_Node000018_Node000003" class="edge">
<title>Node18&#45;&gt;Node3</title>
<g id="a_edge20_Node000018_Node000003"><a xlink:title=" ">
<path fill="none" stroke="#63b8ff" d="M211.42,-59.47C206.82,-58.32 202,-57.12 197.5,-56 135.8,-40.68 117.71,-37.86 53.66,-20.5"/>
<polygon fill="#63b8ff" stroke="#63b8ff" points="54.99,-16.97 44.42,-17.71 53.15,-23.72 54.99,-16.97"/>
</a>
</g>
</g>
<!-- Node18&#45;&gt;Node17 -->
<g id="edge22_Node000018_Node000017" class="edge">
<title>Node18&#45;&gt;Node17</title>
<g id="a_edge22_Node000018_Node000017"><a xlink:title=" ">
<path fill="none" stroke="#63b8ff" d="M255.78,-58.25C258.7,-57.44 261.66,-56.67 264.5,-56 346.57,-36.52 371.39,-40.29 456.83,-20.18"/>
<polygon fill="#63b8ff" stroke="#63b8ff" points="457.36,-23.41 466.27,-17.68 455.73,-16.61 457.36,-23.41"/>
</a>
</g>
</g>
<!-- Node19 -->
<g id="Node000019" class="node">
<title>Node19</title>
<g id="a_Node000019"><a xlink:title=" ">
<polygon fill="#e0e0e0" stroke="#999999" points="449.5,-20 409.5,-20 409.5,0 449.5,0 449.5,-20"/>
<text text-anchor="middle" x="429.5" y="-6.5" font-family="Helvetica,sans-Serif" font-size="10.00">string</text>
</a>
</g>
</g>
<!-- Node18&#45;&gt;Node19 -->
<g id="edge18_Node000018_Node000019" class="edge">
<title>Node18&#45;&gt;Node19</title>
<g id="a_edge18_Node000018_Node000019"><a xlink:title=" ">
<path fill="none" stroke="#63b8ff" d="M255.83,-58.45C258.75,-57.61 261.69,-56.78 264.5,-56 321.57,-40.16 338.63,-37.52 398.79,-20.4"/>
<polygon fill="#63b8ff" stroke="#63b8ff" points="399.6,-23.52 408.25,-17.4 397.67,-16.79 399.6,-23.52"/>
</a>
</g>
</g>
<!-- Node20 -->
<g id="Node000020" class="node">
<title>Node20</title>
<g id="a_Node000020"><a xlink:title=" ">
<polygon fill="#e0e0e0" stroke="#999999" points="106.12,-20 60.88,-20 60.88,0 106.12,0 106.12,-20"/>
<text text-anchor="middle" x="83.5" y="-6.5" font-family="Helvetica,sans-Serif" font-size="10.00">xstring</text>
</a>
</g>
</g>
<!-- Node18&#45;&gt;Node20 -->
<g id="edge19_Node000018_Node000020" class="edge">
<title>Node18&#45;&gt;Node20</title>
<g id="a_edge19_Node000018_Node000020"><a xlink:title=" ">
<path fill="none" stroke="#63b8ff" d="M211.37,-57.03C186.25,-47.99 145.05,-33.16 116.22,-22.78"/>
<polygon fill="#63b8ff" stroke="#63b8ff" points="117.81,-19.27 107.22,-19.18 115.44,-25.86 117.81,-19.27"/>
</a>
</g>
</g>
<!-- Node21 -->
<g id="Node000021" class="node">
<title>Node21</title>
<g id="a_Node000021"><a xlink:title=" ">
<polygon fill="#e0e0e0" stroke="#999999" points="187.12,-20 123.88,-20 123.88,0 187.12,0 187.12,-20"/>
<text text-anchor="middle" x="155.5" y="-6.5" font-family="Helvetica,sans-Serif" font-size="10.00">debugapi.h</text>
</a>
</g>
</g>
<!-- Node18&#45;&gt;Node21 -->
<g id="edge21_Node000018_Node000021" class="edge">
<title>Node18&#45;&gt;Node21</title>
<g id="a_edge21_Node000018_Node000021"><a xlink:title=" ">
<path fill="none" stroke="#63b8ff" d="M219.91,-55.59C208.35,-47.59 191.51,-35.93 177.95,-26.54"/>
<polygon fill="#63b8ff" stroke="#63b8ff" points="180.41,-23.29 170.19,-20.48 176.42,-29.05 180.41,-23.29"/>
</a>
</g>
</g>
<!-- Node22 -->
<g id="Node000022" class="node">
<title>Node22</title>
<g id="a_Node000022"><a xlink:title=" ">
<polygon fill="#e0e0e0" stroke="#999999" points="261.38,-20 205.62,-20 205.62,0 261.38,0 261.38,-20"/>
<text text-anchor="middle" x="233.5" y="-6.5" font-family="Helvetica,sans-Serif" font-size="10.00">algorithm</text>
</a>
</g>
</g>
<!-- Node18&#45;&gt;Node22 -->
<g id="edge23_Node000018_Node000022" class="edge">
<title>Node18&#45;&gt;Node22</title>
<g id="a_edge23_Node000018_Node000022"><a xlink:title=" ">
<path fill="none" stroke="#63b8ff" d="M233.5,-55.59C233.5,-48.86 233.5,-39.53 233.5,-31.15"/>
<polygon fill="#63b8ff" stroke="#63b8ff" points="237,-31.3 233.5,-21.3 230,-31.3 237,-31.3"/>
</a>
</g>
</g>
<!-- Node23 -->
<g id="Node000023" class="node">
<title>Node23</title>
<g id="a_Node000023"><a xlink:title=" ">
<polygon fill="#e0e0e0" stroke="#999999" points="391.88,-20 279.12,-20 279.12,0 391.88,0 391.88,-20"/>
<text text-anchor="middle" x="335.5" y="-6.5" font-family="Helvetica,sans-Serif" font-size="10.00">vcruntime_exception.h</text>
</a>
</g>
</g>
<!-- Node18&#45;&gt;Node23 -->
<g id="edge24_Node000018_Node000023" class="edge">
<title>Node18&#45;&gt;Node23</title>
<g id="a_edge24_Node000018_Node000023"><a xlink:title=" ">
<path fill="none" stroke="#63b8ff" d="M251.27,-55.59C266.89,-47.32 289.89,-35.14 307.91,-25.6"/>
<polygon fill="#63b8ff" stroke="#63b8ff" points="309.39,-28.25 316.59,-20.48 306.12,-22.07 309.39,-28.25"/>
</a>
</g>
</g>
</g>
</svg>
