<?xml version="1.0" encoding="UTF-8" standalone="no"?>
<!DOCTYPE svg PUBLIC "-//W3C//DTD SVG 1.1//EN"
 "http://www.w3.org/Graphics/SVG/1.1/DTD/svg11.dtd">
<!-- Generated by graphviz version 8.1.0 (20230707.0739)
 -->
<!-- Title: wiNpoS&#45;Hook/WinPosWnd.cpp Pages: 1 -->
<!--zoomable 252 -->

<svg id="main" version="1.1" xmlns="http://www.w3.org/2000/svg" xmlns:xlink="http://www.w3.org/1999/xlink" xml:space="preserve" onload="init(evt)">
<style type="text/css"><![CDATA[
.node, .edge {opacity: 0.7;}
.node.selected, .edge.selected {opacity: 1;}
.edge:hover path { stroke: red; }
.edge:hover polygon { stroke: red; fill: red; }
]]></style>

<defs>
  <circle id="rim" cx="0" cy="0" r="7"/>
  <circle id="rim2" cx="0" cy="0" r="3.5"/>
  <g id="zoomPlus">
    <use xlink:href="#rim" fill="#404040"><set attributeName="fill" to="#808080" begin="zoomplus.mouseover" end="zoomplus.mouseout"/></use>
    <path d="M-4,0h8M0,-4v8" fill="none" stroke="white" stroke-width="1.5" pointer-events="none"/>
  </g>
  <g id="zoomMin">
    <use xlink:href="#rim" fill="#404040"><set attributeName="fill" to="#808080" begin="zoomminus.mouseover" end="zoomminus.mouseout"/></use>
    <path d="M-4,0h8" fill="none" stroke="white" stroke-width="1.5" pointer-events="none"/>
  </g>
  <g id="arrowUp" transform="translate(30 24)">
    <use xlink:href="#rim"/>
    <path pointer-events="none" fill="none" stroke="white" stroke-width="1.5" d="M0,-3.0v7 M-2.5,-0.5L0,-3.0L2.5,-0.5"/>
  </g>
  <g id="arrowRight" transform="rotate(90) translate(36 -43)">
    <use xlink:href="#rim"/>
    <path pointer-events="none" fill="none" stroke="white" stroke-width="1.5" d="M0,-3.0v7 M-2.5,-0.5L0,-3.0L2.5,-0.5"/>
  </g>
  <g id="arrowDown" transform="rotate(180) translate(-30 -48)">
    <use xlink:href="#rim"/>
    <path pointer-events="none" fill="none" stroke="white" stroke-width="1.5" d="M0,-3.0v7 M-2.5,-0.5L0,-3.0L2.5,-0.5"/>
  </g>
  <g id="arrowLeft" transform="rotate(270) translate(-36 17)">
    <use xlink:href="#rim"/>
    <path pointer-events="none" fill="none" stroke="white" stroke-width="1.5" d="M0,-3.0v7 M-2.5,-0.5L0,-3.0L2.5,-0.5"/>
  </g>
  <g id="resetDef">
    <use xlink:href="#rim2" fill="#404040"><set attributeName="fill" to="#808080" begin="reset.mouseover" end="reset.mouseout"/></use>
  </g>
</defs>
<script type="application/ecmascript">
var viewWidth = 771;
var viewHeight = 252;
var sectionId = 'dynsection-0';
</script>
<script type="application/ecmascript" xlink:href="svg.min.js"/>
<svg id="graph" class="graph">
<g id="viewport">
<title>wiNpoS&#45;Hook/WinPosWnd.cpp</title>
<!-- Node1 -->
<g id="Node000001" class="node">
<title>Node1</title>
<g id="a_Node000001"><a xlink:title=" ">
<polygon fill="#999999" stroke="#666666" points="473.75,-244 322.75,-244 322.75,-224 473.75,-224 473.75,-244"/>
<text text-anchor="middle" x="398.25" y="-230.5" font-family="Helvetica,sans-Serif" font-size="10.00">wiNpoS&#45;Hook/WinPosWnd.cpp</text>
</a>
</g>
</g>
<!-- Node2 -->
<g id="Node000002" class="node">
<title>Node2</title>
<g id="a_Node000002"><a xlink:href="wi_npo_s-_hook_2pch_8h.html" target="_top" xlink:title=" ">
<polygon fill="white" stroke="#666666" points="77.25,-188 37.25,-188 37.25,-168 77.25,-168 77.25,-188"/>
<text text-anchor="middle" x="57.25" y="-174.5" font-family="Helvetica,sans-Serif" font-size="10.00">pch.h</text>
</a>
</g>
</g>
<!-- Node1&#45;&gt;Node2 -->
<g id="edge1_Node000001_Node000002" class="edge">
<title>Node1&#45;&gt;Node2</title>
<g id="a_edge1_Node000001_Node000002"><a xlink:title=" ">
<path fill="none" stroke="#63b8ff" d="M335.34,-223.52C276.77,-214.61 187.04,-200.79 109.25,-188 102.37,-186.87 94.98,-185.61 88,-184.41"/>
<polygon fill="#63b8ff" stroke="#63b8ff" points="88.94,-180.85 78.49,-182.58 87.74,-187.74 88.94,-180.85"/>
</a>
</g>
</g>
<!-- Node5 -->
<g id="Node000005" class="node">
<title>Node5</title>
<g id="a_Node000005"><a xlink:href="_debug_new_8h.html" target="_top" xlink:title=" ">
<polygon fill="white" stroke="#666666" points="188.62,-188 117.88,-188 117.88,-168 188.62,-168 188.62,-188"/>
<text text-anchor="middle" x="153.25" y="-174.5" font-family="Helvetica,sans-Serif" font-size="10.00">DebugNew.h</text>
</a>
</g>
</g>
<!-- Node1&#45;&gt;Node5 -->
<g id="edge4_Node000001_Node000005" class="edge">
<title>Node1&#45;&gt;Node5</title>
<g id="a_edge4_Node000001_Node000005"><a xlink:title=" ">
<path fill="none" stroke="#63b8ff" d="M355.29,-223.53C311.68,-213.92 244.37,-199.08 199.58,-189.21"/>
<polygon fill="#63b8ff" stroke="#63b8ff" points="200.5,-185.61 189.99,-186.88 199,-192.45 200.5,-185.61"/>
</a>
</g>
</g>
<!-- Node6 -->
<g id="Node000006" class="node">
<title>Node6</title>
<g id="a_Node000006"><a xlink:href="_win_pos_wnd_8h.html" target="_top" xlink:title=" ">
<polygon fill="white" stroke="#666666" points="323.75,-188 244.75,-188 244.75,-168 323.75,-168 323.75,-188"/>
<text text-anchor="middle" x="284.25" y="-174.5" font-family="Helvetica,sans-Serif" font-size="10.00">WinPosWnd.h</text>
</a>
</g>
</g>
<!-- Node1&#45;&gt;Node6 -->
<g id="edge5_Node000001_Node000006" class="edge">
<title>Node1&#45;&gt;Node6</title>
<g id="a_edge5_Node000001_Node000006"><a xlink:title=" ">
<path fill="none" stroke="#63b8ff" d="M378.39,-223.59C360.6,-215.17 334.26,-202.69 313.96,-193.07"/>
<polygon fill="#63b8ff" stroke="#63b8ff" points="315.8,-189.6 305.26,-188.48 312.8,-195.92 315.8,-189.6"/>
</a>
</g>
</g>
<!-- Node10 -->
<g id="Node000010" class="node">
<title>Node10</title>
<g id="a_Node000010"><a xlink:href="_utils_8h.html" target="_top" xlink:title=" ">
<polygon fill="white" stroke="#666666" points="356.12,-76 312.38,-76 312.38,-56 356.12,-56 356.12,-76"/>
<text text-anchor="middle" x="334.25" y="-62.5" font-family="Helvetica,sans-Serif" font-size="10.00">Utils.h</text>
</a>
</g>
</g>
<!-- Node1&#45;&gt;Node10 -->
<g id="edge24_Node000001_Node000010" class="edge">
<title>Node1&#45;&gt;Node10</title>
<g id="a_edge24_Node000001_Node000010"><a xlink:title=" ">
<path fill="none" stroke="#63b8ff" d="M394.63,-223.6C384.46,-197.23 355.53,-122.19 341.74,-86.42"/>
<polygon fill="#63b8ff" stroke="#63b8ff" points="344.7,-85.37 337.83,-77.3 338.17,-87.89 344.7,-85.37"/>
</a>
</g>
</g>
<!-- Node11 -->
<g id="Node000011" class="node">
<title>Node11</title>
<g id="a_Node000011"><a xlink:title=" ">
<polygon fill="#e0e0e0" stroke="#999999" points="554.25,-20 514.25,-20 514.25,0 554.25,0 554.25,-20"/>
<text text-anchor="middle" x="534.25" y="-6.5" font-family="Helvetica,sans-Serif" font-size="10.00">string</text>
</a>
</g>
</g>
<!-- Node1&#45;&gt;Node11 -->
<g id="edge22_Node000001_Node000011" class="edge">
<title>Node1&#45;&gt;Node11</title>
<g id="a_edge22_Node000001_Node000011"><a xlink:title=" ">
<path fill="none" stroke="#63b8ff" d="M396.55,-223.71C391.9,-195.21 381.85,-107.86 422.25,-56 427.56,-49.19 472.48,-32.49 503.79,-21.46"/>
<polygon fill="#63b8ff" stroke="#63b8ff" points="504.52,-24.56 512.81,-17.96 502.22,-17.95 504.52,-24.56"/>
</a>
</g>
</g>
<!-- Node15 -->
<g id="Node000015" class="node">
<title>Node15</title>
<g id="a_Node000015"><a xlink:title=" ">
<polygon fill="#e0e0e0" stroke="#999999" points="628.12,-20 572.38,-20 572.38,0 628.12,0 628.12,-20"/>
<text text-anchor="middle" x="600.25" y="-6.5" font-family="Helvetica,sans-Serif" font-size="10.00">algorithm</text>
</a>
</g>
</g>
<!-- Node1&#45;&gt;Node15 -->
<g id="edge25_Node000001_Node000015" class="edge">
<title>Node1&#45;&gt;Node15</title>
<g id="a_edge25_Node000001_Node000015"><a xlink:title=" ">
<path fill="none" stroke="#63b8ff" d="M406.29,-223.68C417.26,-210.99 437.58,-187.64 455.25,-168 501.36,-116.76 556.91,-57.21 583.91,-28.39"/>
<polygon fill="#63b8ff" stroke="#63b8ff" points="586.05,-31.17 590.34,-21.48 580.94,-26.38 586.05,-31.17"/>
</a>
</g>
</g>
<!-- Node17 -->
<g id="Node000017" class="node">
<title>Node17</title>
<g id="a_Node000017"><a xlink:href="_win_pos_wnd_cfg_8h.html" target="_top" xlink:title=" ">
<polygon fill="white" stroke="#666666" points="217.88,-132 124.62,-132 124.62,-112 217.88,-112 217.88,-132"/>
<text text-anchor="middle" x="171.25" y="-118.5" font-family="Helvetica,sans-Serif" font-size="10.00">WinPosWndCfg.h</text>
</a>
</g>
</g>
<!-- Node1&#45;&gt;Node17 -->
<g id="edge26_Node000001_Node000017" class="edge">
<title>Node1&#45;&gt;Node17</title>
<g id="a_edge26_Node000001_Node000017"><a xlink:title=" ">
<path fill="none" stroke="#63b8ff" d="M334.84,-223.5C303.34,-216.85 265.62,-205.85 235.25,-188 214.67,-175.91 196.14,-155.52 184.38,-140.8"/>
<polygon fill="#63b8ff" stroke="#63b8ff" points="186.85,-139.28 177.97,-133.49 181.31,-143.55 186.85,-139.28"/>
</a>
</g>
</g>
<!-- Node18 -->
<g id="Node000018" class="node">
<title>Node18</title>
<g id="a_Node000018"><a xlink:title=" ">
<polygon fill="#e0e0e0" stroke="#999999" points="509.88,-188 464.62,-188 464.62,-168 509.88,-168 509.88,-188"/>
<text text-anchor="middle" x="487.25" y="-174.5" font-family="Helvetica,sans-Serif" font-size="10.00">ranges</text>
</a>
</g>
</g>
<!-- Node1&#45;&gt;Node18 -->
<g id="edge23_Node000001_Node000018" class="edge">
<title>Node1&#45;&gt;Node18</title>
<g id="a_edge23_Node000001_Node000018"><a xlink:title=" ">
<path fill="none" stroke="#63b8ff" d="M413.75,-223.59C427.2,-215.44 446.9,-203.48 462.52,-194"/>
<polygon fill="#63b8ff" stroke="#63b8ff" points="463.89,-196.66 470.63,-188.48 460.26,-190.67 463.89,-196.66"/>
</a>
</g>
</g>
<!-- Node19 -->
<g id="Node000019" class="node">
<title>Node19</title>
<g id="a_Node000019"><a xlink:title=" ">
<polygon fill="#e0e0e0" stroke="#999999" points="608.88,-188 527.62,-188 527.62,-168 608.88,-168 608.88,-188"/>
<text text-anchor="middle" x="568.25" y="-174.5" font-family="Helvetica,sans-Serif" font-size="10.00">corecrt_math.h</text>
</a>
</g>
</g>
<!-- Node1&#45;&gt;Node19 -->
<g id="edge27_Node000001_Node000019" class="edge">
<title>Node1&#45;&gt;Node19</title>
<g id="a_edge27_Node000001_Node000019"><a xlink:title=" ">
<path fill="none" stroke="#63b8ff" d="M427.86,-223.59C455.6,-214.78 497.29,-201.54 528.03,-191.78"/>
<polygon fill="#63b8ff" stroke="#63b8ff" points="528.94,-194.84 537.41,-188.48 526.82,-188.17 528.94,-194.84"/>
</a>
</g>
</g>
<!-- Node20 -->
<g id="Node000020" class="node">
<title>Node20</title>
<g id="a_Node000020"><a xlink:title=" ">
<polygon fill="#e0e0e0" stroke="#999999" points="693.38,-188 627.12,-188 627.12,-168 693.38,-168 693.38,-188"/>
<text text-anchor="middle" x="660.25" y="-174.5" font-family="Helvetica,sans-Serif" font-size="10.00">windowsx.h</text>
</a>
</g>
</g>
<!-- Node1&#45;&gt;Node20 -->
<g id="edge28_Node000001_Node000020" class="edge">
<title>Node1&#45;&gt;Node20</title>
<g id="a_edge28_Node000001_Node000020"><a xlink:title=" ">
<path fill="none" stroke="#63b8ff" d="M445.06,-223.56C487.35,-215 551.6,-201.92 616.39,-188.38"/>
<polygon fill="#63b8ff" stroke="#63b8ff" points="616.71,-191.67 625.79,-186.2 615.28,-184.82 616.71,-191.67"/>
</a>
</g>
</g>
<!-- Node21 -->
<g id="Node000021" class="node">
<title>Node21</title>
<g id="a_Node000021"><a xlink:title=" ">
<polygon fill="#e0e0e0" stroke="#999999" points="762.88,-188 711.62,-188 711.62,-168 762.88,-168 762.88,-188"/>
<text text-anchor="middle" x="737.25" y="-174.5" font-family="Helvetica,sans-Serif" font-size="10.00">assert.h</text>
</a>
</g>
</g>
<!-- Node1&#45;&gt;Node21 -->
<g id="edge29_Node000001_Node000021" class="edge">
<title>Node1&#45;&gt;Node21</title>
<g id="a_edge29_Node000001_Node000021"><a xlink:title=" ">
<path fill="none" stroke="#63b8ff" d="M474.22,-224C533.41,-216.47 617.84,-204.61 700.71,-188.13"/>
<polygon fill="#63b8ff" stroke="#63b8ff" points="701.21,-191.39 710.33,-185.99 699.83,-184.53 701.21,-191.39"/>
</a>
</g>
</g>
<!-- Node3 -->
<g id="Node000003" class="node">
<title>Node3</title>
<g id="a_Node000003"><a xlink:href="wi_npo_s-_hook_2framework_8h.html" target="_top" xlink:title=" ">
<polygon fill="white" stroke="#666666" points="68.5,-132 0,-132 0,-112 68.5,-112 68.5,-132"/>
<text text-anchor="middle" x="34.25" y="-118.5" font-family="Helvetica,sans-Serif" font-size="10.00">framework.h</text>
</a>
</g>
</g>
<!-- Node2&#45;&gt;Node3 -->
<g id="edge2_Node000002_Node000003" class="edge">
<title>Node2&#45;&gt;Node3</title>
<g id="a_edge2_Node000002_Node000003"><a xlink:title=" ">
<path fill="none" stroke="#63b8ff" d="M53.24,-167.59C50.28,-160.63 46.13,-150.89 42.46,-142.29"/>
<polygon fill="#63b8ff" stroke="#63b8ff" points="45.35,-141.13 38.21,-133.3 38.91,-143.87 45.35,-141.13"/>
</a>
</g>
</g>
<!-- Node4 -->
<g id="Node000004" class="node">
<title>Node4</title>
<g id="a_Node000004"><a xlink:title=" ">
<polygon fill="#e0e0e0" stroke="#999999" points="64.75,-76 3.75,-76 3.75,-56 64.75,-56 64.75,-76"/>
<text text-anchor="middle" x="34.25" y="-62.5" font-family="Helvetica,sans-Serif" font-size="10.00">windows.h</text>
</a>
</g>
</g>
<!-- Node3&#45;&gt;Node4 -->
<g id="edge3_Node000003_Node000004" class="edge">
<title>Node3&#45;&gt;Node4</title>
<g id="a_edge3_Node000003_Node000004"><a xlink:title=" ">
<path fill="none" stroke="#63b8ff" d="M34.25,-111.59C34.25,-104.86 34.25,-95.53 34.25,-87.15"/>
<polygon fill="#63b8ff" stroke="#63b8ff" points="37.75,-87.3 34.25,-77.3 30.75,-87.3 37.75,-87.3"/>
</a>
</g>
</g>
<!-- Node7 -->
<g id="Node000007" class="node">
<title>Node7</title>
<g id="a_Node000007"><a xlink:title=" ">
<polygon fill="#e0e0e0" stroke="#999999" points="251.75,-76 196.75,-76 196.75,-56 251.75,-56 251.75,-76"/>
<text text-anchor="middle" x="224.25" y="-62.5" font-family="Helvetica,sans-Serif" font-size="10.00">wtypes.h</text>
</a>
</g>
</g>
<!-- Node6&#45;&gt;Node7 -->
<g id="edge6_Node000006_Node000007" class="edge">
<title>Node6&#45;&gt;Node7</title>
<g id="a_edge6_Node000006_Node000007"><a xlink:title=" ">
<path fill="none" stroke="#63b8ff" d="M279.13,-167.62C269.26,-149.52 247.41,-109.45 234.45,-85.7"/>
<polygon fill="#63b8ff" stroke="#63b8ff" points="237.21,-84.46 229.35,-77.35 231.07,-87.81 237.21,-84.46"/>
</a>
</g>
</g>
<!-- Node8 -->
<g id="Node000008" class="node">
<title>Node8</title>
<g id="a_Node000008"><a xlink:title=" ">
<polygon fill="#e0e0e0" stroke="#999999" points="130.62,-76 95.88,-76 95.88,-56 130.62,-56 130.62,-76"/>
<text text-anchor="middle" x="113.25" y="-62.5" font-family="Helvetica,sans-Serif" font-size="10.00">map</text>
</a>
</g>
</g>
<!-- Node6&#45;&gt;Node8 -->
<g id="edge7_Node000006_Node000008" class="edge">
<title>Node6&#45;&gt;Node8</title>
<g id="a_edge7_Node000006_Node000008"><a xlink:title=" ">
<path fill="none" stroke="#63b8ff" d="M244.49,-171.9C199.74,-165.27 131.2,-152.1 115.25,-132 105.27,-119.42 105.76,-100.77 108.17,-86.66"/>
<polygon fill="#63b8ff" stroke="#63b8ff" points="111.76,-87.63 110.45,-77.12 104.91,-86.15 111.76,-87.63"/>
</a>
</g>
</g>
<!-- Node9 -->
<g id="Node000009" class="node">
<title>Node9</title>
<g id="a_Node000009"><a xlink:title=" ">
<polygon fill="#e0e0e0" stroke="#999999" points="161,-20 119.5,-20 119.5,0 161,0 161,-20"/>
<text text-anchor="middle" x="140.25" y="-6.5" font-family="Helvetica,sans-Serif" font-size="10.00">vector</text>
</a>
</g>
</g>
<!-- Node6&#45;&gt;Node9 -->
<g id="edge8_Node000006_Node000009" class="edge">
<title>Node6&#45;&gt;Node9</title>
<g id="a_edge8_Node000006_Node000009"><a xlink:title=" ">
<path fill="none" stroke="#63b8ff" d="M285.23,-167.52C287,-145.25 288.25,-88.98 260.25,-56 254.24,-48.92 205.04,-31.94 171.54,-20.98"/>
<polygon fill="#63b8ff" stroke="#63b8ff" points="172.88,-17.41 162.28,-17.65 170.72,-24.07 172.88,-17.41"/>
</a>
</g>
</g>
<!-- Node6&#45;&gt;Node10 -->
<g id="edge9_Node000006_Node000010" class="edge">
<title>Node6&#45;&gt;Node10</title>
<g id="a_edge9_Node000006_Node000010"><a xlink:title=" ">
<path fill="none" stroke="#63b8ff" d="M288.51,-167.62C296.67,-149.68 314.63,-110.17 325.46,-86.35"/>
<polygon fill="#63b8ff" stroke="#63b8ff" points="329.05,-87.91 330,-77.35 322.67,-85.01 329.05,-87.91"/>
</a>
</g>
</g>
<!-- Node6&#45;&gt;Node17 -->
<g id="edge17_Node000006_Node000017" class="edge">
<title>Node6&#45;&gt;Node17</title>
<g id="a_edge17_Node000006_Node000017"><a xlink:title=" ">
<path fill="none" stroke="#63b8ff" d="M264.57,-167.59C247.01,-159.21 221.06,-146.8 200.98,-137.21"/>
<polygon fill="#63b8ff" stroke="#63b8ff" points="202.62,-133.63 192.09,-132.48 199.6,-139.95 202.62,-133.63"/>
</a>
</g>
</g>
<!-- Node10&#45;&gt;Node9 -->
<g id="edge14_Node000010_Node000009" class="edge">
<title>Node10&#45;&gt;Node9</title>
<g id="a_edge14_Node000010_Node000009"><a xlink:title=" ">
<path fill="none" stroke="#63b8ff" d="M312.03,-59.2C282.14,-51.35 227.08,-36.68 171.77,-20.67"/>
<polygon fill="#63b8ff" stroke="#63b8ff" points="173.03,-17.1 162.45,-17.67 171.07,-23.83 173.03,-17.1"/>
</a>
</g>
</g>
<!-- Node10&#45;&gt;Node11 -->
<g id="edge10_Node000010_Node000011" class="edge">
<title>Node10&#45;&gt;Node11</title>
<g id="a_edge10_Node000010_Node000011"><a xlink:title=" ">
<path fill="none" stroke="#63b8ff" d="M356.47,-59.48C387.32,-51.75 445.1,-37.02 503.48,-20.42"/>
<polygon fill="#63b8ff" stroke="#63b8ff" points="504.35,-23.52 513,-17.41 502.43,-16.79 504.35,-23.52"/>
</a>
</g>
</g>
<!-- Node12 -->
<g id="Node000012" class="node">
<title>Node12</title>
<g id="a_Node000012"><a xlink:title=" ">
<polygon fill="#e0e0e0" stroke="#999999" points="223.88,-20 178.62,-20 178.62,0 223.88,0 223.88,-20"/>
<text text-anchor="middle" x="201.25" y="-6.5" font-family="Helvetica,sans-Serif" font-size="10.00">xstring</text>
</a>
</g>
</g>
<!-- Node10&#45;&gt;Node12 -->
<g id="edge11_Node000010_Node000012" class="edge">
<title>Node10&#45;&gt;Node12</title>
<g id="a_edge11_Node000010_Node000012"><a xlink:title=" ">
<path fill="none" stroke="#63b8ff" d="M311.99,-55.96C290.73,-47.33 258.44,-34.22 234.2,-24.38"/>
<polygon fill="#63b8ff" stroke="#63b8ff" points="235.61,-20.77 225.03,-20.25 232.98,-27.25 235.61,-20.77"/>
</a>
</g>
</g>
<!-- Node13 -->
<g id="Node000013" class="node">
<title>Node13</title>
<g id="a_Node000013"><a xlink:title=" ">
<polygon fill="#e0e0e0" stroke="#999999" points="284.75,-20 241.75,-20 241.75,0 284.75,0 284.75,-20"/>
<text text-anchor="middle" x="263.25" y="-6.5" font-family="Helvetica,sans-Serif" font-size="10.00">format</text>
</a>
</g>
</g>
<!-- Node10&#45;&gt;Node13 -->
<g id="edge12_Node000010_Node000013" class="edge">
<title>Node10&#45;&gt;Node13</title>
<g id="a_edge12_Node000010_Node000013"><a xlink:title=" ">
<path fill="none" stroke="#63b8ff" d="M321.88,-55.59C311.5,-47.7 296.44,-36.24 284.18,-26.92"/>
<polygon fill="#63b8ff" stroke="#63b8ff" points="286.55,-23.57 276.48,-20.3 282.32,-29.14 286.55,-23.57"/>
</a>
</g>
</g>
<!-- Node14 -->
<g id="Node000014" class="node">
<title>Node14</title>
<g id="a_Node000014"><a xlink:title=" ">
<polygon fill="#e0e0e0" stroke="#999999" points="365.88,-20 302.62,-20 302.62,0 365.88,0 365.88,-20"/>
<text text-anchor="middle" x="334.25" y="-6.5" font-family="Helvetica,sans-Serif" font-size="10.00">debugapi.h</text>
</a>
</g>
</g>
<!-- Node10&#45;&gt;Node14 -->
<g id="edge13_Node000010_Node000014" class="edge">
<title>Node10&#45;&gt;Node14</title>
<g id="a_edge13_Node000010_Node000014"><a xlink:title=" ">
<path fill="none" stroke="#63b8ff" d="M334.25,-55.59C334.25,-48.86 334.25,-39.53 334.25,-31.15"/>
<polygon fill="#63b8ff" stroke="#63b8ff" points="337.75,-31.3 334.25,-21.3 330.75,-31.3 337.75,-31.3"/>
</a>
</g>
</g>
<!-- Node10&#45;&gt;Node15 -->
<g id="edge15_Node000010_Node000015" class="edge">
<title>Node10&#45;&gt;Node15</title>
<g id="a_edge15_Node000010_Node000015"><a xlink:title=" ">
<path fill="none" stroke="#63b8ff" d="M356.42,-60.98C395.71,-53.79 480.34,-37.98 561.6,-20.29"/>
<polygon fill="#63b8ff" stroke="#63b8ff" points="561.98,-23.57 571,-18.01 560.48,-16.73 561.98,-23.57"/>
</a>
</g>
</g>
<!-- Node16 -->
<g id="Node000016" class="node">
<title>Node16</title>
<g id="a_Node000016"><a xlink:title=" ">
<polygon fill="#e0e0e0" stroke="#999999" points="496.62,-20 383.88,-20 383.88,0 496.62,0 496.62,-20"/>
<text text-anchor="middle" x="440.25" y="-6.5" font-family="Helvetica,sans-Serif" font-size="10.00">vcruntime_exception.h</text>
</a>
</g>
</g>
<!-- Node10&#45;&gt;Node16 -->
<g id="edge16_Node000010_Node000016" class="edge">
<title>Node10&#45;&gt;Node16</title>
<g id="a_edge16_Node000010_Node000016"><a xlink:title=" ">
<path fill="none" stroke="#63b8ff" d="M352.71,-55.59C369.03,-47.28 393.08,-35.03 411.84,-25.47"/>
<polygon fill="#63b8ff" stroke="#63b8ff" points="413.32,-28.14 420.64,-20.48 410.14,-21.9 413.32,-28.14"/>
</a>
</g>
</g>
<!-- Node17&#45;&gt;Node7 -->
<g id="edge18_Node000017_Node000007" class="edge">
<title>Node17&#45;&gt;Node7</title>
<g id="a_edge18_Node000017_Node000007"><a xlink:title=" ">
<path fill="none" stroke="#63b8ff" d="M180.48,-111.59C187.93,-104.01 198.6,-93.13 207.54,-84.02"/>
<polygon fill="#63b8ff" stroke="#63b8ff" points="209.62,-86.89 214.12,-77.3 204.62,-81.98 209.62,-86.89"/>
</a>
</g>
</g>
<!-- Node17&#45;&gt;Node8 -->
<g id="edge19_Node000017_Node000008" class="edge">
<title>Node17&#45;&gt;Node8</title>
<g id="a_edge19_Node000017_Node000008"><a xlink:title=" ">
<path fill="none" stroke="#63b8ff" d="M161.15,-111.59C152.91,-103.93 141.08,-92.91 131.24,-83.75"/>
<polygon fill="#63b8ff" stroke="#63b8ff" points="133.94,-81.55 124.24,-77.3 129.17,-86.67 133.94,-81.55"/>
</a>
</g>
</g>
<!-- Node17&#45;&gt;Node9 -->
<g id="edge20_Node000017_Node000009" class="edge">
<title>Node17&#45;&gt;Node9</title>
<g id="a_edge20_Node000017_Node000009"><a xlink:title=" ">
<path fill="none" stroke="#63b8ff" d="M168.61,-111.62C163.57,-93.76 152.52,-54.53 145.79,-30.67"/>
<polygon fill="#63b8ff" stroke="#63b8ff" points="148.97,-30.03 142.89,-21.35 142.23,-31.93 148.97,-30.03"/>
</a>
</g>
</g>
<!-- Node17&#45;&gt;Node10 -->
<g id="edge21_Node000017_Node000010" class="edge">
<title>Node17&#45;&gt;Node10</title>
<g id="a_edge21_Node000017_Node000010"><a xlink:title=" ">
<path fill="none" stroke="#63b8ff" d="M199.64,-111.59C228.07,-102.17 271.78,-87.7 301.62,-77.81"/>
<polygon fill="#63b8ff" stroke="#63b8ff" points="302.55,-80.86 310.94,-74.39 300.34,-74.21 302.55,-80.86"/>
</a>
</g>
</g>
</g>
</svg>

<g id="navigator" transform="translate(0 0)" fill="#404254">
  <rect fill="#f2f5e9" fill-opacity="0.5" stroke="#606060" stroke-width=".5" x="0" y="0" width="60" height="60"/>
  <use id="zoomplus" xlink:href="#zoomPlus" x="17" y="9" onmousedown="handleZoom(evt,'in')"/>
  <use id="zoomminus" xlink:href="#zoomMin" x="42" y="9" onmousedown="handleZoom(evt,'out')"/>
  <use id="reset" xlink:href="#resetDef" x="30" y="36" onmousedown="handleReset()"/>
   <use id="arrowup" xlink:href="#arrowUp" x="0" y="0" onmousedown="handlePan(0,-1)"/>
  <use id="arrowright" xlink:href="#arrowRight" x="0" y="0" onmousedown="handlePan(1,0)"/>
  <use id="arrowdown" xlink:href="#arrowDown" x="0" y="0" onmousedown="handlePan(0,1)"/>
  <use id="arrowleft" xlink:href="#arrowLeft" x="0" y="0" onmousedown="handlePan(-1,0)"/>
</g>
<svg viewBox="0 0 15 15" width="100%" height="30px" preserveAspectRatio="xMaxYMin meet">
 <g id="arrow_out" transform="scale(0.3 0.3)">
  <a xlink:href="_win_pos_wnd_8cpp__incl_org.svg" target="_base">
   <rect id="button" ry="5" rx="5" y="6" x="6" height="38" width="38"
        fill="#f2f5e9" fill-opacity="0.5" stroke="#606060" stroke-width="1.0"/>
   <path id="arrow"
     d="M 11.500037,31.436501 C 11.940474,20.09759 22.043105,11.32322 32.158766,21.979434 L 37.068811,17.246167 C 37.068811,17.246167 37.088388,32 37.088388,32 L 22.160133,31.978069 C 22.160133,31.978069 26.997745,27.140456 26.997745,27.140456 C 18.528582,18.264221 13.291696,25.230495 11.500037,31.436501 z"
     style="fill:#404040;"/>
  </a>
 </g>
</svg>

<style type='text/css'>
<![CDATA[
[data-mouse-over-selected='false'] { opacity: 0.7; }
[data-mouse-over-selected='true']  { opacity: 1.0; }
]]>
</style>
<script type="application/ecmascript"><![CDATA[
document.addEventListener('DOMContentLoaded', (event) => {
  highlightEdges();
  highlightAdjacentNodes();
});
]]></script>
</svg>
