<?xml version="1.0" encoding="UTF-8" standalone="no"?>
<!DOCTYPE svg PUBLIC "-//W3C//DTD SVG 1.1//EN"
 "http://www.w3.org/Graphics/SVG/1.1/DTD/svg11.dtd">
<!-- Generated by graphviz version 9.0.0 (20230911.1827)
 -->
<!-- Title: wiNpoS&#45;Hook/WinPosWnd.cpp Pages: 1 -->
<!--zoomable 252 -->

<svg id="main" version="1.1" xmlns="http://www.w3.org/2000/svg" xmlns:xlink="http://www.w3.org/1999/xlink" xml:space="preserve" onload="init(evt)">
<style type="text/css"><![CDATA[
.node, .edge {opacity: 0.7;}
.node.selected, .edge.selected {opacity: 1;}
.edge:hover path { stroke: red; }
.edge:hover polygon { stroke: red; fill: red; }
]]></style>

<defs>
  <circle id="rim" cx="0" cy="0" r="7"/>
  <circle id="rim2" cx="0" cy="0" r="3.5"/>
  <g id="zoomPlus">
    <use xlink:href="#rim" fill="#404040"><set attributeName="fill" to="#808080" begin="zoomplus.mouseover" end="zoomplus.mouseout"/></use>
    <path d="M-4,0h8M0,-4v8" fill="none" stroke="white" stroke-width="1.5" pointer-events="none"/>
  </g>
  <g id="zoomMin">
    <use xlink:href="#rim" fill="#404040"><set attributeName="fill" to="#808080" begin="zoomminus.mouseover" end="zoomminus.mouseout"/></use>
    <path d="M-4,0h8" fill="none" stroke="white" stroke-width="1.5" pointer-events="none"/>
  </g>
  <g id="arrowUp" transform="translate(30 24)">
    <use xlink:href="#rim"/>
    <path pointer-events="none" fill="none" stroke="white" stroke-width="1.5" d="M0,-3.0v7 M-2.5,-0.5L0,-3.0L2.5,-0.5"/>
  </g>
  <g id="arrowRight" transform="rotate(90) translate(36 -43)">
    <use xlink:href="#rim"/>
    <path pointer-events="none" fill="none" stroke="white" stroke-width="1.5" d="M0,-3.0v7 M-2.5,-0.5L0,-3.0L2.5,-0.5"/>
  </g>
  <g id="arrowDown" transform="rotate(180) translate(-30 -48)">
    <use xlink:href="#rim"/>
    <path pointer-events="none" fill="none" stroke="white" stroke-width="1.5" d="M0,-3.0v7 M-2.5,-0.5L0,-3.0L2.5,-0.5"/>
  </g>
  <g id="arrowLeft" transform="rotate(270) translate(-36 17)">
    <use xlink:href="#rim"/>
    <path pointer-events="none" fill="none" stroke="white" stroke-width="1.5" d="M0,-3.0v7 M-2.5,-0.5L0,-3.0L2.5,-0.5"/>
  </g>
  <g id="resetDef">
    <use xlink:href="#rim2" fill="#404040"><set attributeName="fill" to="#808080" begin="reset.mouseover" end="reset.mouseout"/></use>
  </g>
</defs>
<script type="application/ecmascript">
var viewWidth = 771;
var viewHeight = 252;
var sectionId = 'dynsection-0';
</script>
<script type="application/ecmascript" xlink:href="svg.min.js"/>
<svg id="graph" class="graph">
<g id="viewport">
<title>wiNpoS&#45;Hook/WinPosWnd.cpp</title>
<!-- Node1 -->
<g id="Node000001" class="node">
<title>Node1</title>
<g id="a_Node000001"><a xlink:title=" ">
<polygon fill="#999999" stroke="#666666" points="473.75,-244 322.75,-244 322.75,-224 473.75,-224 473.75,-244"/>
<text text-anchor="middle" x="398.25" y="-230.5" font-family="Helvetica,sans-Serif" font-size="10.00">wiNpoS&#45;Hook/WinPosWnd.cpp</text>
</a>
</g>
</g>
<!-- Node2 -->
<g id="Node000002" class="node">
<title>Node2</title>
<g id="a_Node000002"><a xlink:href="wi_npo_s-_hook_2pch_8h.html" target="_top" xlink:title=" ">
<polygon fill="white" stroke="#666666" points="77.25,-188 37.25,-188 37.25,-168 77.25,-168 77.25,-188"/>
<text text-anchor="middle" x="57.25" y="-174.5" font-family="Helvetica,sans-Serif" font-size="10.00">pch.h</text>
</a>
</g>
</g>
<!-- Node1&#45;&gt;Node2 -->
<g id="edge1_Node000001_Node000002" class="edge">
<title>Node1&#45;&gt;Node2</title>
<g id="a_edge1_Node000001_Node000002"><a xlink:title=" ">
<path fill="none" stroke="#63b8ff" d="M335.34,-223.52C276.77,-214.61 187.04,-200.79 109.25,-188 102.53,-186.9 95.33,-185.67 88.5,-184.5"/>
<polygon fill="#63b8ff" stroke="#63b8ff" points="89.43,-181.11 78.98,-182.84 88.23,-188 89.43,-181.11"/>
</a>
</g>
</g>
<!-- Node5 -->
<g id="Node000005" class="node">
<title>Node5</title>
<g id="a_Node000005"><a xlink:href="_debug_new_8h.html" target="_top" xlink:title=" ">
<polygon fill="white" stroke="#666666" points="188.62,-188 117.88,-188 117.88,-168 188.62,-168 188.62,-188"/>
<text text-anchor="middle" x="153.25" y="-174.5" font-family="Helvetica,sans-Serif" font-size="10.00">DebugNew.h</text>
</a>
</g>
</g>
<!-- Node1&#45;&gt;Node5 -->
<g id="edge4_Node000001_Node000005" class="edge">
<title>Node1&#45;&gt;Node5</title>
<g id="a_edge4_Node000001_Node000005"><a xlink:title=" ">
<path fill="none" stroke="#63b8ff" d="M355.29,-223.53C311.87,-213.96 244.94,-199.21 200.15,-189.34"/>
<polygon fill="#63b8ff" stroke="#63b8ff" points="200.98,-185.94 190.46,-187.2 199.48,-192.77 200.98,-185.94"/>
</a>
</g>
</g>
<!-- Node6 -->
<g id="Node000006" class="node">
<title>Node6</title>
<g id="a_Node000006"><a xlink:href="_win_pos_wnd_8h.html" target="_top" xlink:title=" ">
<polygon fill="white" stroke="#666666" points="323.75,-188 244.75,-188 244.75,-168 323.75,-168 323.75,-188"/>
<text text-anchor="middle" x="284.25" y="-174.5" font-family="Helvetica,sans-Serif" font-size="10.00">WinPosWnd.h</text>
</a>
</g>
</g>
<!-- Node1&#45;&gt;Node6 -->
<g id="edge5_Node000001_Node000006" class="edge">
<title>Node1&#45;&gt;Node6</title>
<g id="a_edge5_Node000001_Node000006"><a xlink:title=" ">
<path fill="none" stroke="#63b8ff" d="M378.39,-223.59C360.76,-215.24 334.74,-202.92 314.52,-193.34"/>
<polygon fill="#63b8ff" stroke="#63b8ff" points="316.17,-190.25 305.63,-189.13 313.17,-196.57 316.17,-190.25"/>
</a>
</g>
</g>
<!-- Node10 -->
<g id="Node000010" class="node">
<title>Node10</title>
<g id="a_Node000010"><a xlink:href="_utils_8h.html" target="_top" xlink:title=" ">
<polygon fill="white" stroke="#666666" points="356.12,-76 312.38,-76 312.38,-56 356.12,-56 356.12,-76"/>
<text text-anchor="middle" x="334.25" y="-62.5" font-family="Helvetica,sans-Serif" font-size="10.00">Utils.h</text>
</a>
</g>
</g>
<!-- Node1&#45;&gt;Node10 -->
<g id="edge24_Node000001_Node000010" class="edge">
<title>Node1&#45;&gt;Node10</title>
<g id="a_edge24_Node000001_Node000010"><a xlink:title=" ">
<path fill="none" stroke="#63b8ff" d="M394.63,-223.6C384.51,-197.35 355.78,-122.84 341.92,-86.89"/>
<polygon fill="#63b8ff" stroke="#63b8ff" points="345.24,-85.78 338.38,-77.71 338.71,-88.3 345.24,-85.78"/>
</a>
</g>
</g>
<!-- Node11 -->
<g id="Node000011" class="node">
<title>Node11</title>
<g id="a_Node000011"><a xlink:title=" ">
<polygon fill="#e0e0e0" stroke="#999999" points="554.25,-20 514.25,-20 514.25,0 554.25,0 554.25,-20"/>
<text text-anchor="middle" x="534.25" y="-6.5" font-family="Helvetica,sans-Serif" font-size="10.00">string</text>
</a>
</g>
</g>
<!-- Node1&#45;&gt;Node11 -->
<g id="edge22_Node000001_Node000011" class="edge">
<title>Node1&#45;&gt;Node11</title>
<g id="a_edge22_Node000001_Node000011"><a xlink:title=" ">
<path fill="none" stroke="#63b8ff" d="M396.55,-223.71C391.9,-195.21 381.85,-107.86 422.25,-56 427.51,-49.25 471.7,-32.78 502.97,-21.75"/>
<polygon fill="#63b8ff" stroke="#63b8ff" points="504.1,-25.06 512.38,-18.46 501.79,-18.45 504.1,-25.06"/>
</a>
</g>
</g>
<!-- Node15 -->
<g id="Node000015" class="node">
<title>Node15</title>
<g id="a_Node000015"><a xlink:title=" ">
<polygon fill="#e0e0e0" stroke="#999999" points="628.12,-20 572.38,-20 572.38,0 628.12,0 628.12,-20"/>
<text text-anchor="middle" x="600.25" y="-6.5" font-family="Helvetica,sans-Serif" font-size="10.00">algorithm</text>
</a>
</g>
</g>
<!-- Node1&#45;&gt;Node15 -->
<g id="edge25_Node000001_Node000015" class="edge">
<title>Node1&#45;&gt;Node15</title>
<g id="a_edge25_Node000001_Node000015"><a xlink:title=" ">
<path fill="none" stroke="#63b8ff" d="M406.29,-223.68C417.26,-210.99 437.58,-187.64 455.25,-168 501.16,-116.98 556.43,-57.72 583.56,-28.77"/>
<polygon fill="#63b8ff" stroke="#63b8ff" points="586.01,-31.27 590.3,-21.58 580.91,-26.48 586.01,-31.27"/>
</a>
</g>
</g>
<!-- Node17 -->
<g id="Node000017" class="node">
<title>Node17</title>
<g id="a_Node000017"><a xlink:href="_win_pos_wnd_cfg_8h.html" target="_top" xlink:title=" ">
<polygon fill="white" stroke="#666666" points="217.88,-132 124.62,-132 124.62,-112 217.88,-112 217.88,-132"/>
<text text-anchor="middle" x="171.25" y="-118.5" font-family="Helvetica,sans-Serif" font-size="10.00">WinPosWndCfg.h</text>
</a>
</g>
</g>
<!-- Node1&#45;&gt;Node17 -->
<g id="edge26_Node000001_Node000017" class="edge">
<title>Node1&#45;&gt;Node17</title>
<g id="a_edge26_Node000001_Node000017"><a xlink:title=" ">
<path fill="none" stroke="#63b8ff" d="M334.84,-223.5C303.34,-216.85 265.62,-205.85 235.25,-188 214.87,-176.02 196.49,-155.91 184.71,-141.22"/>
<polygon fill="#63b8ff" stroke="#63b8ff" points="187.78,-139.47 178.9,-133.69 182.24,-143.74 187.78,-139.47"/>
</a>
</g>
</g>
<!-- Node18 -->
<g id="Node000018" class="node">
<title>Node18</title>
<g id="a_Node000018"><a xlink:title=" ">
<polygon fill="#e0e0e0" stroke="#999999" points="509.88,-188 464.62,-188 464.62,-168 509.88,-168 509.88,-188"/>
<text text-anchor="middle" x="487.25" y="-174.5" font-family="Helvetica,sans-Serif" font-size="10.00">ranges</text>
</a>
</g>
</g>
<!-- Node1&#45;&gt;Node18 -->
<g id="edge23_Node000001_Node000018" class="edge">
<title>Node1&#45;&gt;Node18</title>
<g id="a_edge23_Node000001_Node000018"><a xlink:title=" ">
<path fill="none" stroke="#63b8ff" d="M413.75,-223.59C427.07,-215.51 446.53,-203.71 462.08,-194.27"/>
<polygon fill="#63b8ff" stroke="#63b8ff" points="463.6,-197.44 470.33,-189.26 459.97,-191.46 463.6,-197.44"/>
</a>
</g>
</g>
<!-- Node19 -->
<g id="Node000019" class="node">
<title>Node19</title>
<g id="a_Node000019"><a xlink:title=" ">
<polygon fill="#e0e0e0" stroke="#999999" points="608.88,-188 527.62,-188 527.62,-168 608.88,-168 608.88,-188"/>
<text text-anchor="middle" x="568.25" y="-174.5" font-family="Helvetica,sans-Serif" font-size="10.00">corecrt_math.h</text>
</a>
</g>
</g>
<!-- Node1&#45;&gt;Node19 -->
<g id="edge27_Node000001_Node000019" class="edge">
<title>Node1&#45;&gt;Node19</title>
<g id="a_edge27_Node000001_Node000019"><a xlink:title=" ">
<path fill="none" stroke="#63b8ff" d="M427.86,-223.59C455.48,-214.82 496.92,-201.66 527.63,-191.9"/>
<polygon fill="#63b8ff" stroke="#63b8ff" points="528.49,-195.3 536.96,-188.94 526.37,-188.63 528.49,-195.3"/>
</a>
</g>
</g>
<!-- Node20 -->
<g id="Node000020" class="node">
<title>Node20</title>
<g id="a_Node000020"><a xlink:title=" ">
<polygon fill="#e0e0e0" stroke="#999999" points="693.38,-188 627.12,-188 627.12,-168 693.38,-168 693.38,-188"/>
<text text-anchor="middle" x="660.25" y="-174.5" font-family="Helvetica,sans-Serif" font-size="10.00">windowsx.h</text>
</a>
</g>
</g>
<!-- Node1&#45;&gt;Node20 -->
<g id="edge28_Node000001_Node000020" class="edge">
<title>Node1&#45;&gt;Node20</title>
<g id="a_edge28_Node000001_Node000020"><a xlink:title=" ">
<path fill="none" stroke="#63b8ff" d="M445.06,-223.56C487.17,-215.03 551.07,-202.03 615.59,-188.54"/>
<polygon fill="#63b8ff" stroke="#63b8ff" points="616.23,-191.98 625.3,-186.51 614.8,-185.13 616.23,-191.98"/>
</a>
</g>
</g>
<!-- Node21 -->
<g id="Node000021" class="node">
<title>Node21</title>
<g id="a_Node000021"><a xlink:title=" ">
<polygon fill="#e0e0e0" stroke="#999999" points="762.88,-188 711.62,-188 711.62,-168 762.88,-168 762.88,-188"/>
<text text-anchor="middle" x="737.25" y="-174.5" font-family="Helvetica,sans-Serif" font-size="10.00">assert.h</text>
</a>
</g>
</g>
<!-- Node1&#45;&gt;Node21 -->
<g id="edge29_Node000001_Node000021" class="edge">
<title>Node1&#45;&gt;Node21</title>
<g id="a_edge29_Node000001_Node000021"><a xlink:title=" ">
<path fill="none" stroke="#63b8ff" d="M474.22,-224C533.29,-216.48 617.5,-204.65 700.2,-188.23"/>
<polygon fill="#63b8ff" stroke="#63b8ff" points="700.73,-191.69 709.84,-186.29 699.35,-184.83 700.73,-191.69"/>
</a>
</g>
</g>
<!-- Node3 -->
<g id="Node000003" class="node">
<title>Node3</title>
<g id="a_Node000003"><a xlink:href="wi_npo_s-_hook_2framework_8h.html" target="_top" xlink:title=" ">
<polygon fill="white" stroke="#666666" points="68.5,-132 0,-132 0,-112 68.5,-112 68.5,-132"/>
<text text-anchor="middle" x="34.25" y="-118.5" font-family="Helvetica,sans-Serif" font-size="10.00">framework.h</text>
</a>
</g>
</g>
<!-- Node2&#45;&gt;Node3 -->
<g id="edge2_Node000002_Node000003" class="edge">
<title>Node2&#45;&gt;Node3</title>
<g id="a_edge2_Node000002_Node000003"><a xlink:title=" ">
<path fill="none" stroke="#63b8ff" d="M53.24,-167.59C50.34,-160.78 46.31,-151.32 42.71,-142.86"/>
<polygon fill="#63b8ff" stroke="#63b8ff" points="45.94,-141.52 38.8,-133.69 39.5,-144.26 45.94,-141.52"/>
</a>
</g>
</g>
<!-- Node4 -->
<g id="Node000004" class="node">
<title>Node4</title>
<g id="a_Node000004"><a xlink:title=" ">
<polygon fill="#e0e0e0" stroke="#999999" points="64.75,-76 3.75,-76 3.75,-56 64.75,-56 64.75,-76"/>
<text text-anchor="middle" x="34.25" y="-62.5" font-family="Helvetica,sans-Serif" font-size="10.00">windows.h</text>
</a>
</g>
</g>
<!-- Node3&#45;&gt;Node4 -->
<g id="edge3_Node000003_Node000004" class="edge">
<title>Node3&#45;&gt;Node4</title>
<g id="a_edge3_Node000003_Node000004"><a xlink:title=" ">
<path fill="none" stroke="#63b8ff" d="M34.25,-111.59C34.25,-105.01 34.25,-95.96 34.25,-87.73"/>
<polygon fill="#63b8ff" stroke="#63b8ff" points="37.75,-87.81 34.25,-77.81 30.75,-87.81 37.75,-87.81"/>
</a>
</g>
</g>
<!-- Node7 -->
<g id="Node000007" class="node">
<title>Node7</title>
<g id="a_Node000007"><a xlink:title=" ">
<polygon fill="#e0e0e0" stroke="#999999" points="251.75,-76 196.75,-76 196.75,-56 251.75,-56 251.75,-76"/>
<text text-anchor="middle" x="224.25" y="-62.5" font-family="Helvetica,sans-Serif" font-size="10.00">wtypes.h</text>
</a>
</g>
</g>
<!-- Node6&#45;&gt;Node7 -->
<g id="edge6_Node000006_Node000007" class="edge">
<title>Node6&#45;&gt;Node7</title>
<g id="a_edge6_Node000006_Node000007"><a xlink:title=" ">
<path fill="none" stroke="#63b8ff" d="M279.13,-167.62C269.35,-149.68 247.8,-110.17 234.8,-86.35"/>
<polygon fill="#63b8ff" stroke="#63b8ff" points="237.94,-84.79 230.08,-77.68 231.79,-88.14 237.94,-84.79"/>
</a>
</g>
</g>
<!-- Node8 -->
<g id="Node000008" class="node">
<title>Node8</title>
<g id="a_Node000008"><a xlink:title=" ">
<polygon fill="#e0e0e0" stroke="#999999" points="130.62,-76 95.88,-76 95.88,-56 130.62,-56 130.62,-76"/>
<text text-anchor="middle" x="113.25" y="-62.5" font-family="Helvetica,sans-Serif" font-size="10.00">map</text>
</a>
</g>
</g>
<!-- Node6&#45;&gt;Node8 -->
<g id="edge7_Node000006_Node000008" class="edge">
<title>Node6&#45;&gt;Node8</title>
<g id="a_edge7_Node000006_Node000008"><a xlink:title=" ">
<path fill="none" stroke="#63b8ff" d="M244.49,-171.9C199.74,-165.27 131.2,-152.1 115.25,-132 105.37,-119.55 105.75,-101.14 108.1,-87.09"/>
<polygon fill="#63b8ff" stroke="#63b8ff" points="111.46,-88.11 110.14,-77.6 104.61,-86.64 111.46,-88.11"/>
</a>
</g>
</g>
<!-- Node9 -->
<g id="Node000009" class="node">
<title>Node9</title>
<g id="a_Node000009"><a xlink:title=" ">
<polygon fill="#e0e0e0" stroke="#999999" points="161,-20 119.5,-20 119.5,0 161,0 161,-20"/>
<text text-anchor="middle" x="140.25" y="-6.5" font-family="Helvetica,sans-Serif" font-size="10.00">vector</text>
</a>
</g>
</g>
<!-- Node6&#45;&gt;Node9 -->
<g id="edge8_Node000006_Node000009" class="edge">
<title>Node6&#45;&gt;Node9</title>
<g id="a_edge8_Node000006_Node000009"><a xlink:title=" ">
<path fill="none" stroke="#63b8ff" d="M285.23,-167.52C287,-145.25 288.25,-88.98 260.25,-56 254.27,-48.95 205.47,-32.09 171.97,-21.12"/>
<polygon fill="#63b8ff" stroke="#63b8ff" points="173.32,-17.88 162.72,-18.12 171.15,-24.54 173.32,-17.88"/>
</a>
</g>
</g>
<!-- Node6&#45;&gt;Node10 -->
<g id="edge9_Node000006_Node000010" class="edge">
<title>Node6&#45;&gt;Node10</title>
<g id="a_edge9_Node000006_Node000010"><a xlink:title=" ">
<path fill="none" stroke="#63b8ff" d="M288.51,-167.62C296.63,-149.76 314.46,-110.53 325.31,-86.67"/>
<polygon fill="#63b8ff" stroke="#63b8ff" points="328.42,-88.28 329.37,-77.73 322.05,-85.39 328.42,-88.28"/>
</a>
</g>
</g>
<!-- Node6&#45;&gt;Node17 -->
<g id="edge17_Node000006_Node000017" class="edge">
<title>Node6&#45;&gt;Node17</title>
<g id="a_edge17_Node000006_Node000017"><a xlink:title=" ">
<path fill="none" stroke="#63b8ff" d="M264.57,-167.59C247.09,-159.24 221.3,-146.92 201.25,-137.34"/>
<polygon fill="#63b8ff" stroke="#63b8ff" points="202.98,-134.29 192.45,-133.13 199.97,-140.6 202.98,-134.29"/>
</a>
</g>
</g>
<!-- Node10&#45;&gt;Node9 -->
<g id="edge14_Node000010_Node000009" class="edge">
<title>Node10&#45;&gt;Node9</title>
<g id="a_edge14_Node000010_Node000009"><a xlink:title=" ">
<path fill="none" stroke="#63b8ff" d="M312.03,-59.2C282.26,-51.38 227.54,-36.8 172.46,-20.87"/>
<polygon fill="#63b8ff" stroke="#63b8ff" points="173.48,-17.53 162.9,-18.09 171.53,-24.25 173.48,-17.53"/>
</a>
</g>
</g>
<!-- Node10&#45;&gt;Node11 -->
<g id="edge10_Node000010_Node000011" class="edge">
<title>Node10&#45;&gt;Node11</title>
<g id="a_edge10_Node000010_Node000011"><a xlink:title=" ">
<path fill="none" stroke="#63b8ff" d="M356.47,-59.48C387.26,-51.77 444.86,-37.08 503.12,-20.52"/>
<polygon fill="#63b8ff" stroke="#63b8ff" points="503.9,-23.94 512.55,-17.82 501.97,-17.21 503.9,-23.94"/>
</a>
</g>
</g>
<!-- Node12 -->
<g id="Node000012" class="node">
<title>Node12</title>
<g id="a_Node000012"><a xlink:title=" ">
<polygon fill="#e0e0e0" stroke="#999999" points="223.88,-20 178.62,-20 178.62,0 223.88,0 223.88,-20"/>
<text text-anchor="middle" x="201.25" y="-6.5" font-family="Helvetica,sans-Serif" font-size="10.00">xstring</text>
</a>
</g>
</g>
<!-- Node10&#45;&gt;Node12 -->
<g id="edge11_Node000010_Node000012" class="edge">
<title>Node10&#45;&gt;Node12</title>
<g id="a_edge11_Node000010_Node000012"><a xlink:title=" ">
<path fill="none" stroke="#63b8ff" d="M311.99,-55.96C290.83,-47.37 258.73,-34.34 234.53,-24.51"/>
<polygon fill="#63b8ff" stroke="#63b8ff" points="236.01,-21.34 225.43,-20.82 233.38,-27.82 236.01,-21.34"/>
</a>
</g>
</g>
<!-- Node13 -->
<g id="Node000013" class="node">
<title>Node13</title>
<g id="a_Node000013"><a xlink:title=" ">
<polygon fill="#e0e0e0" stroke="#999999" points="284.75,-20 241.75,-20 241.75,0 284.75,0 284.75,-20"/>
<text text-anchor="middle" x="263.25" y="-6.5" font-family="Helvetica,sans-Serif" font-size="10.00">format</text>
</a>
</g>
</g>
<!-- Node10&#45;&gt;Node13 -->
<g id="edge12_Node000010_Node000013" class="edge">
<title>Node10&#45;&gt;Node13</title>
<g id="a_edge12_Node000010_Node000013"><a xlink:title=" ">
<path fill="none" stroke="#63b8ff" d="M321.88,-55.59C311.6,-47.77 296.73,-36.46 284.54,-27.19"/>
<polygon fill="#63b8ff" stroke="#63b8ff" points="286.76,-24.48 276.68,-21.21 282.52,-30.05 286.76,-24.48"/>
</a>
</g>
</g>
<!-- Node14 -->
<g id="Node000014" class="node">
<title>Node14</title>
<g id="a_Node000014"><a xlink:title=" ">
<polygon fill="#e0e0e0" stroke="#999999" points="365.88,-20 302.62,-20 302.62,0 365.88,0 365.88,-20"/>
<text text-anchor="middle" x="334.25" y="-6.5" font-family="Helvetica,sans-Serif" font-size="10.00">debugapi.h</text>
</a>
</g>
</g>
<!-- Node10&#45;&gt;Node14 -->
<g id="edge13_Node000010_Node000014" class="edge">
<title>Node10&#45;&gt;Node14</title>
<g id="a_edge13_Node000010_Node000014"><a xlink:title=" ">
<path fill="none" stroke="#63b8ff" d="M334.25,-55.59C334.25,-49.01 334.25,-39.96 334.25,-31.73"/>
<polygon fill="#63b8ff" stroke="#63b8ff" points="337.75,-31.81 334.25,-21.81 330.75,-31.81 337.75,-31.81"/>
</a>
</g>
</g>
<!-- Node10&#45;&gt;Node15 -->
<g id="edge15_Node000010_Node000015" class="edge">
<title>Node10&#45;&gt;Node15</title>
<g id="a_edge15_Node000010_Node000015"><a xlink:title=" ">
<path fill="none" stroke="#63b8ff" d="M356.42,-60.98C395.63,-53.81 480,-38.04 561.1,-20.4"/>
<polygon fill="#63b8ff" stroke="#63b8ff" points="561.5,-23.89 570.52,-18.33 560,-17.05 561.5,-23.89"/>
</a>
</g>
</g>
<!-- Node16 -->
<g id="Node000016" class="node">
<title>Node16</title>
<g id="a_Node000016"><a xlink:title=" ">
<polygon fill="#e0e0e0" stroke="#999999" points="496.62,-20 383.88,-20 383.88,0 496.62,0 496.62,-20"/>
<text text-anchor="middle" x="440.25" y="-6.5" font-family="Helvetica,sans-Serif" font-size="10.00">vcruntime_exception.h</text>
</a>
</g>
</g>
<!-- Node10&#45;&gt;Node16 -->
<g id="edge16_Node000010_Node000016" class="edge">
<title>Node10&#45;&gt;Node16</title>
<g id="a_edge16_Node000010_Node000016"><a xlink:title=" ">
<path fill="none" stroke="#63b8ff" d="M352.71,-55.59C368.95,-47.32 392.86,-35.14 411.58,-25.6"/>
<polygon fill="#63b8ff" stroke="#63b8ff" points="412.97,-28.82 420.29,-21.17 409.79,-22.59 412.97,-28.82"/>
</a>
</g>
</g>
<!-- Node17&#45;&gt;Node7 -->
<g id="edge18_Node000017_Node000007" class="edge">
<title>Node17&#45;&gt;Node7</title>
<g id="a_edge18_Node000017_Node000007"><a xlink:title=" ">
<path fill="none" stroke="#63b8ff" d="M180.48,-111.59C187.85,-104.08 198.38,-93.35 207.27,-84.3"/>
<polygon fill="#63b8ff" stroke="#63b8ff" points="209.56,-86.97 214.06,-77.38 204.56,-82.06 209.56,-86.97"/>
</a>
</g>
</g>
<!-- Node17&#45;&gt;Node8 -->
<g id="edge19_Node000017_Node000008" class="edge">
<title>Node17&#45;&gt;Node8</title>
<g id="a_edge19_Node000017_Node000008"><a xlink:title=" ">
<path fill="none" stroke="#63b8ff" d="M161.15,-111.59C153,-104.01 141.32,-93.13 131.53,-84.02"/>
<polygon fill="#63b8ff" stroke="#63b8ff" points="134.05,-81.58 124.34,-77.33 129.28,-86.71 134.05,-81.58"/>
</a>
</g>
</g>
<!-- Node17&#45;&gt;Node9 -->
<g id="edge20_Node000017_Node000009" class="edge">
<title>Node17&#45;&gt;Node9</title>
<g id="a_edge20_Node000017_Node000009"><a xlink:title=" ">
<path fill="none" stroke="#63b8ff" d="M168.61,-111.62C163.62,-93.92 152.72,-55.24 145.98,-31.32"/>
<polygon fill="#63b8ff" stroke="#63b8ff" points="149.38,-30.49 143.3,-21.81 142.64,-32.39 149.38,-30.49"/>
</a>
</g>
</g>
<!-- Node17&#45;&gt;Node10 -->
<g id="edge21_Node000017_Node000010" class="edge">
<title>Node17&#45;&gt;Node10</title>
<g id="a_edge21_Node000017_Node000010"><a xlink:title=" ">
<path fill="none" stroke="#63b8ff" d="M199.64,-111.59C227.95,-102.22 271.4,-87.82 301.23,-77.94"/>
<polygon fill="#63b8ff" stroke="#63b8ff" points="302.11,-81.33 310.5,-74.87 299.91,-74.69 302.11,-81.33"/>
</a>
</g>
</g>
</g>
</svg>

<g id="navigator" transform="translate(0 0)" fill="#404254">
  <rect fill="#f2f5e9" fill-opacity="0.5" stroke="#606060" stroke-width=".5" x="0" y="0" width="60" height="60"/>
  <use id="zoomplus" xlink:href="#zoomPlus" x="17" y="9" onmousedown="handleZoom(evt,'in')"/>
  <use id="zoomminus" xlink:href="#zoomMin" x="42" y="9" onmousedown="handleZoom(evt,'out')"/>
  <use id="reset" xlink:href="#resetDef" x="30" y="36" onmousedown="handleReset()"/>
   <use id="arrowup" xlink:href="#arrowUp" x="0" y="0" onmousedown="handlePan(0,-1)"/>
  <use id="arrowright" xlink:href="#arrowRight" x="0" y="0" onmousedown="handlePan(1,0)"/>
  <use id="arrowdown" xlink:href="#arrowDown" x="0" y="0" onmousedown="handlePan(0,1)"/>
  <use id="arrowleft" xlink:href="#arrowLeft" x="0" y="0" onmousedown="handlePan(-1,0)"/>
</g>
<svg viewBox="0 0 15 15" width="100%" height="30px" preserveAspectRatio="xMaxYMin meet">
 <g id="arrow_out" transform="scale(0.3 0.3)">
  <a xlink:href="_win_pos_wnd_8cpp__incl_org.svg" target="_base">
   <rect id="button" ry="5" rx="5" y="6" x="6" height="38" width="38"
        fill="#f2f5e9" fill-opacity="0.5" stroke="#606060" stroke-width="1.0"/>
   <path id="arrow"
     d="M 11.500037,31.436501 C 11.940474,20.09759 22.043105,11.32322 32.158766,21.979434 L 37.068811,17.246167 C 37.068811,17.246167 37.088388,32 37.088388,32 L 22.160133,31.978069 C 22.160133,31.978069 26.997745,27.140456 26.997745,27.140456 C 18.528582,18.264221 13.291696,25.230495 11.500037,31.436501 z"
     style="fill:#404040;"/>
  </a>
 </g>
</svg>

<style type='text/css'>
<![CDATA[
[data-mouse-over-selected='false'] { opacity: 0.7; }
[data-mouse-over-selected='true']  { opacity: 1.0; }
]]>
</style>
<script type="application/ecmascript"><![CDATA[
document.addEventListener('DOMContentLoaded', (event) => {
  highlightEdges();
  highlightAdjacentNodes();
});
]]></script>
</svg>
