<?xml version="1.0" encoding="UTF-8" standalone="no"?>
<!DOCTYPE svg PUBLIC "-//W3C//DTD SVG 1.1//EN"
 "http://www.w3.org/Graphics/SVG/1.1/DTD/svg11.dtd">
<!-- Generated by graphviz version 8.1.0 (20230707.0739)
 -->
<!-- Title: wiNpoS&#45;Shared/WinPosWndCfg.h Pages: 1 -->
<svg width="598pt" height="140pt"
 viewBox="0.00 0.00 597.88 140.00" xmlns="http://www.w3.org/2000/svg" xmlns:xlink="http://www.w3.org/1999/xlink">
<g id="graph0" class="graph" transform="scale(1 1) rotate(0) translate(4 136)">
<title>wiNpoS&#45;Shared/WinPosWndCfg.h</title>
<!-- Node1 -->
<g id="Node000001" class="node">
<title>Node1</title>
<g id="a_Node000001"><a xlink:title=" ">
<polygon fill="#999999" stroke="#666666" points="194,-132 31,-132 31,-112 194,-112 194,-132"/>
<text text-anchor="middle" x="112.5" y="-118.5" font-family="Helvetica,sans-Serif" font-size="10.00">wiNpoS&#45;Shared/WinPosWndCfg.h</text>
</a>
</g>
</g>
<!-- Node2 -->
<g id="Node000002" class="node">
<title>Node2</title>
<g id="a_Node000002"><a xlink:title=" ">
<polygon fill="#e0e0e0" stroke="#999999" points="55,-76 0,-76 0,-56 55,-56 55,-76"/>
<text text-anchor="middle" x="27.5" y="-62.5" font-family="Helvetica,sans-Serif" font-size="10.00">wtypes.h</text>
</a>
</g>
</g>
<!-- Node1&#45;&gt;Node2 -->
<g id="edge1_Node000001_Node000002" class="edge">
<title>Node1&#45;&gt;Node2</title>
<g id="a_edge1_Node000001_Node000002"><a xlink:title=" ">
<path fill="none" stroke="#63b8ff" d="M97.69,-111.59C84.97,-103.51 66.39,-91.71 51.54,-82.27"/>
<polygon fill="#63b8ff" stroke="#63b8ff" points="53.74,-78.89 43.42,-76.48 49.99,-84.8 53.74,-78.89"/>
</a>
</g>
</g>
<!-- Node3 -->
<g id="Node000003" class="node">
<title>Node3</title>
<g id="a_Node000003"><a xlink:title=" ">
<polygon fill="#e0e0e0" stroke="#999999" points="107.88,-76 73.12,-76 73.12,-56 107.88,-56 107.88,-76"/>
<text text-anchor="middle" x="90.5" y="-62.5" font-family="Helvetica,sans-Serif" font-size="10.00">map</text>
</a>
</g>
</g>
<!-- Node1&#45;&gt;Node3 -->
<g id="edge2_Node000001_Node000003" class="edge">
<title>Node1&#45;&gt;Node3</title>
<g id="a_edge2_Node000001_Node000003"><a xlink:title=" ">
<path fill="none" stroke="#63b8ff" d="M108.67,-111.59C105.83,-104.63 101.86,-94.89 98.36,-86.29"/>
<polygon fill="#63b8ff" stroke="#63b8ff" points="101.3,-85.24 94.29,-77.3 94.82,-87.88 101.3,-85.24"/>
</a>
</g>
</g>
<!-- Node4 -->
<g id="Node000004" class="node">
<title>Node4</title>
<g id="a_Node000004"><a xlink:title=" ">
<polygon fill="#e0e0e0" stroke="#999999" points="121.25,-20 79.75,-20 79.75,0 121.25,0 121.25,-20"/>
<text text-anchor="middle" x="100.5" y="-6.5" font-family="Helvetica,sans-Serif" font-size="10.00">vector</text>
</a>
</g>
</g>
<!-- Node1&#45;&gt;Node4 -->
<g id="edge3_Node000001_Node000004" class="edge">
<title>Node1&#45;&gt;Node4</title>
<g id="a_edge3_Node000001_Node000004"><a xlink:title=" ">
<path fill="none" stroke="#63b8ff" d="M114.42,-111.67C116.72,-98.98 119.88,-75.61 116.5,-56 115.01,-47.34 112,-38.13 109,-30.32"/>
<polygon fill="#63b8ff" stroke="#63b8ff" points="111.96,-29.31 104.91,-21.4 105.49,-31.98 111.96,-29.31"/>
</a>
</g>
</g>
<!-- Node5 -->
<g id="Node000005" class="node">
<title>Node5</title>
<g id="a_Node000005"><a xlink:href="_utils_8h.html" target="_top" xlink:title=" ">
<polygon fill="white" stroke="#666666" points="273.38,-76 229.62,-76 229.62,-56 273.38,-56 273.38,-76"/>
<text text-anchor="middle" x="251.5" y="-62.5" font-family="Helvetica,sans-Serif" font-size="10.00">Utils.h</text>
</a>
</g>
</g>
<!-- Node1&#45;&gt;Node5 -->
<g id="edge4_Node000001_Node000005" class="edge">
<title>Node1&#45;&gt;Node5</title>
<g id="a_edge4_Node000001_Node000005"><a xlink:title=" ">
<path fill="none" stroke="#63b8ff" d="M136.71,-111.59C159.58,-102.71 194.03,-89.32 219.23,-79.54"/>
<polygon fill="#63b8ff" stroke="#63b8ff" points="220.34,-82.47 228.4,-75.59 217.81,-75.95 220.34,-82.47"/>
</a>
</g>
</g>
<!-- Node5&#45;&gt;Node4 -->
<g id="edge9_Node000005_Node000004" class="edge">
<title>Node5&#45;&gt;Node4</title>
<g id="a_edge9_Node000005_Node000004"><a xlink:title=" ">
<path fill="none" stroke="#63b8ff" d="M229.22,-57.03C203.35,-47.78 160.53,-32.47 131.45,-22.07"/>
<polygon fill="#63b8ff" stroke="#63b8ff" points="133.01,-18.55 122.41,-18.48 130.65,-25.14 133.01,-18.55"/>
</a>
</g>
</g>
<!-- Node6 -->
<g id="Node000006" class="node">
<title>Node6</title>
<g id="a_Node000006"><a xlink:title=" ">
<polygon fill="#e0e0e0" stroke="#999999" points="179.5,-20 139.5,-20 139.5,0 179.5,0 179.5,-20"/>
<text text-anchor="middle" x="159.5" y="-6.5" font-family="Helvetica,sans-Serif" font-size="10.00">string</text>
</a>
</g>
</g>
<!-- Node5&#45;&gt;Node6 -->
<g id="edge5_Node000005_Node000006" class="edge">
<title>Node5&#45;&gt;Node6</title>
<g id="a_edge5_Node000005_Node000006"><a xlink:title=" ">
<path fill="none" stroke="#63b8ff" d="M235.47,-55.59C221.58,-47.44 201.21,-35.48 185.06,-26"/>
<polygon fill="#63b8ff" stroke="#63b8ff" points="187.05,-22.52 176.65,-20.48 183.5,-28.56 187.05,-22.52"/>
</a>
</g>
</g>
<!-- Node7 -->
<g id="Node000007" class="node">
<title>Node7</title>
<g id="a_Node000007"><a xlink:title=" ">
<polygon fill="#e0e0e0" stroke="#999999" points="243.12,-20 197.88,-20 197.88,0 243.12,0 243.12,-20"/>
<text text-anchor="middle" x="220.5" y="-6.5" font-family="Helvetica,sans-Serif" font-size="10.00">xstring</text>
</a>
</g>
</g>
<!-- Node5&#45;&gt;Node7 -->
<g id="edge6_Node000005_Node000007" class="edge">
<title>Node5&#45;&gt;Node7</title>
<g id="a_edge6_Node000005_Node000007"><a xlink:title=" ">
<path fill="none" stroke="#63b8ff" d="M246.1,-55.59C242.01,-48.47 236.26,-38.45 231.24,-29.72"/>
<polygon fill="#63b8ff" stroke="#63b8ff" points="233.85,-28.23 225.84,-21.3 227.78,-31.71 233.85,-28.23"/>
</a>
</g>
</g>
<!-- Node8 -->
<g id="Node000008" class="node">
<title>Node8</title>
<g id="a_Node000008"><a xlink:title=" ">
<polygon fill="#e0e0e0" stroke="#999999" points="304,-20 261,-20 261,0 304,0 304,-20"/>
<text text-anchor="middle" x="282.5" y="-6.5" font-family="Helvetica,sans-Serif" font-size="10.00">format</text>
</a>
</g>
</g>
<!-- Node5&#45;&gt;Node8 -->
<g id="edge7_Node000005_Node000008" class="edge">
<title>Node5&#45;&gt;Node8</title>
<g id="a_edge7_Node000005_Node000008"><a xlink:title=" ">
<path fill="none" stroke="#63b8ff" d="M256.9,-55.59C260.99,-48.47 266.74,-38.45 271.76,-29.72"/>
<polygon fill="#63b8ff" stroke="#63b8ff" points="275.22,-31.71 277.16,-21.3 269.15,-28.23 275.22,-31.71"/>
</a>
</g>
</g>
<!-- Node9 -->
<g id="Node000009" class="node">
<title>Node9</title>
<g id="a_Node000009"><a xlink:title=" ">
<polygon fill="#e0e0e0" stroke="#999999" points="385.12,-20 321.88,-20 321.88,0 385.12,0 385.12,-20"/>
<text text-anchor="middle" x="353.5" y="-6.5" font-family="Helvetica,sans-Serif" font-size="10.00">debugapi.h</text>
</a>
</g>
</g>
<!-- Node5&#45;&gt;Node9 -->
<g id="edge8_Node000005_Node000009" class="edge">
<title>Node5&#45;&gt;Node9</title>
<g id="a_edge8_Node000005_Node000009"><a xlink:title=" ">
<path fill="none" stroke="#63b8ff" d="M269.27,-55.59C284.89,-47.32 307.89,-35.14 325.91,-25.6"/>
<polygon fill="#63b8ff" stroke="#63b8ff" points="327.39,-28.25 334.59,-20.48 324.12,-22.07 327.39,-28.25"/>
</a>
</g>
</g>
<!-- Node10 -->
<g id="Node000010" class="node">
<title>Node10</title>
<g id="a_Node000010"><a xlink:title=" ">
<polygon fill="#e0e0e0" stroke="#999999" points="459.38,-20 403.62,-20 403.62,0 459.38,0 459.38,-20"/>
<text text-anchor="middle" x="431.5" y="-6.5" font-family="Helvetica,sans-Serif" font-size="10.00">algorithm</text>
</a>
</g>
</g>
<!-- Node5&#45;&gt;Node10 -->
<g id="edge10_Node000005_Node000010" class="edge">
<title>Node5&#45;&gt;Node10</title>
<g id="a_edge10_Node000005_Node000010"><a xlink:title=" ">
<path fill="none" stroke="#63b8ff" d="M273.57,-58.38C303.31,-49.46 356.69,-33.44 393.08,-22.52"/>
<polygon fill="#63b8ff" stroke="#63b8ff" points="393.75,-25.68 402.33,-19.45 391.74,-18.97 393.75,-25.68"/>
</a>
</g>
</g>
<!-- Node11 -->
<g id="Node000011" class="node">
<title>Node11</title>
<g id="a_Node000011"><a xlink:title=" ">
<polygon fill="#e0e0e0" stroke="#999999" points="589.88,-20 477.12,-20 477.12,0 589.88,0 589.88,-20"/>
<text text-anchor="middle" x="533.5" y="-6.5" font-family="Helvetica,sans-Serif" font-size="10.00">vcruntime_exception.h</text>
</a>
</g>
</g>
<!-- Node5&#45;&gt;Node11 -->
<g id="edge11_Node000005_Node000011" class="edge">
<title>Node5&#45;&gt;Node11</title>
<g id="a_edge11_Node000005_Node000011"><a xlink:title=" ">
<path fill="none" stroke="#63b8ff" d="M273.63,-60.76C316.22,-52.61 410.9,-34.48 473.45,-22.5"/>
<polygon fill="#63b8ff" stroke="#63b8ff" points="473.8,-25.8 482.97,-20.49 472.49,-18.93 473.8,-25.8"/>
</a>
</g>
</g>
</g>
</svg>
