<?xml version="1.0" encoding="UTF-8" standalone="no"?>
<!DOCTYPE svg PUBLIC "-//W3C//DTD SVG 1.1//EN"
 "http://www.w3.org/Graphics/SVG/1.1/DTD/svg11.dtd">
<!-- Generated by graphviz version 8.1.0 (20230707.0739)
 -->
<!-- Title: HooksCfg::writeAppConfig Pages: 1 -->
<svg width="481pt" height="104pt"
 viewBox="0.00 0.00 480.50 104.00" xmlns="http://www.w3.org/2000/svg" xmlns:xlink="http://www.w3.org/1999/xlink">

<svg id="main" version="1.1" xmlns="http://www.w3.org/2000/svg" xmlns:xlink="http://www.w3.org/1999/xlink" xml:space="preserve" onload="init(evt)">
<style type="text/css"><![CDATA[
.node, .edge {opacity: 0.7;}
.node.selected, .edge.selected {opacity: 1;}
.edge:hover path { stroke: red; }
.edge:hover polygon { stroke: red; fill: red; }
]]></style>
<script type="application/ecmascript" xlink:href="svg.min.js"/>
<svg id="graph" class="graph">
<g id="graph0" class="graph" transform="scale(1 1) rotate(0) translate(4 100)">
<title>HooksCfg::writeAppConfig</title>
<!-- Node1 -->
<g id="Node000001" class="node">
<title>Node1</title>
<g id="a_Node000001"><a xlink:title="save the config for this app">
<polygon fill="#999999" stroke="#666666" points="128.5,-58 0,-58 0,-38 128.5,-38 128.5,-58"/>
<text text-anchor="middle" x="64.25" y="-44.5" font-family="Helvetica,sans-Serif" font-size="10.00">HooksCfg::writeAppConfig</text>
</a>
</g>
</g>
<!-- Node2 -->
<g id="Node000002" class="node">
<title>Node2</title>
<g id="a_Node000002"><a xlink:href="class_hooks_cfg.html#aeb2825839d92ca34c260d5505b706a55" target="_top" xlink:title="the path to the config file for this app">
<polygon fill="white" stroke="#666666" points="313.25,-96 171.25,-96 171.25,-76 313.25,-76 313.25,-96"/>
<text text-anchor="middle" x="242.25" y="-82.5" font-family="Helvetica,sans-Serif" font-size="10.00">HooksCfg::getAppConfigPath</text>
</a>
</g>
</g>
<!-- Node1&#45;&gt;Node2 -->
<g id="edge1_Node000001_Node000002" class="edge">
<title>Node1&#45;&gt;Node2</title>
<g id="a_edge1_Node000001_Node000002"><a xlink:title=" ">
<path fill="none" stroke="#63b8ff" d="M113.81,-58.48C134.97,-63.05 159.97,-68.45 182.19,-73.25"/>
<polygon fill="#63b8ff" stroke="#63b8ff" points="181.34,-76.86 191.85,-75.55 182.81,-70.02 181.34,-76.86"/>
</a>
</g>
</g>
<!-- Node3 -->
<g id="Node000003" class="node">
<title>Node3</title>
<g id="a_Node000003"><a xlink:href="class_hooks_cfg.html#a437c5768d5246cf980d1be5ea6f272c6" target="_top" xlink:title="the directory, where store the configs and logs">
<polygon fill="white" stroke="#666666" points="472.5,-77 356,-77 356,-57 472.5,-57 472.5,-77"/>
<text text-anchor="middle" x="414.25" y="-63.5" font-family="Helvetica,sans-Serif" font-size="10.00">HooksCfg::getConfigDir</text>
</a>
</g>
</g>
<!-- Node1&#45;&gt;Node3 -->
<g id="edge3_Node000001_Node000003" class="edge">
<title>Node1&#45;&gt;Node3</title>
<g id="a_edge3_Node000001_Node000003"><a xlink:title=" ">
<path fill="none" stroke="#63b8ff" d="M128.67,-51.46C189.8,-54.8 282,-59.83 344.77,-63.26"/>
<polygon fill="#63b8ff" stroke="#63b8ff" points="344.57,-66.81 354.75,-63.86 344.95,-59.82 344.57,-66.81"/>
</a>
</g>
</g>
<!-- Node4 -->
<g id="Node000004" class="node">
<title>Node4</title>
<g id="a_Node000004"><a xlink:href="class_hooks_cfg.html#a1f2bef2687260c67b923e4838a0cdb1e" target="_top" xlink:title="save the JSON document to the given path">
<polygon fill="white" stroke="#666666" points="320,-20 164.5,-20 164.5,0 320,0 320,-20"/>
<text text-anchor="middle" x="242.25" y="-6.5" font-family="Helvetica,sans-Serif" font-size="10.00">HooksCfg::writeConfigDocument</text>
</a>
</g>
</g>
<!-- Node1&#45;&gt;Node4 -->
<g id="edge4_Node000001_Node000004" class="edge">
<title>Node1&#45;&gt;Node4</title>
<g id="a_edge4_Node000001_Node000004"><a xlink:title=" ">
<path fill="none" stroke="#63b8ff" d="M113.81,-37.52C134.97,-32.95 159.97,-27.55 182.19,-22.75"/>
<polygon fill="#63b8ff" stroke="#63b8ff" points="182.81,-25.98 191.85,-20.45 181.34,-19.14 182.81,-25.98"/>
</a>
</g>
</g>
<!-- Node2&#45;&gt;Node3 -->
<g id="edge2_Node000002_Node000003" class="edge">
<title>Node2&#45;&gt;Node3</title>
<g id="a_edge2_Node000002_Node000003"><a xlink:title=" ">
<path fill="none" stroke="#63b8ff" d="M313.38,-78.16C323.83,-76.99 334.59,-75.79 345.01,-74.63"/>
<polygon fill="#63b8ff" stroke="#63b8ff" points="345.16,-78.02 354.71,-73.43 344.38,-71.06 345.16,-78.02"/>
</a>
</g>
</g>
</g>
</svg>
</svg>

<style type='text/css'>
<![CDATA[
[data-mouse-over-selected='false'] { opacity: 0.7; }
[data-mouse-over-selected='true']  { opacity: 1.0; }
]]>
</style>
<script type="application/ecmascript"><![CDATA[
document.addEventListener('DOMContentLoaded', (event) => {
  highlightEdges();
  highlightAdjacentNodes();
});
]]></script>
</svg>
