<?xml version="1.0" encoding="UTF-8" standalone="no"?>
<!DOCTYPE svg PUBLIC "-//W3C//DTD SVG 1.1//EN"
 "http://www.w3.org/Graphics/SVG/1.1/DTD/svg11.dtd">
<!-- Generated by graphviz version 9.0.0 (20230911.1827)
 -->
<!-- Title: WinPosWndCfg::readConfig Pages: 1 -->
<svg width="519pt" height="104pt"
 viewBox="0.00 0.00 518.75 104.00" xmlns="http://www.w3.org/2000/svg" xmlns:xlink="http://www.w3.org/1999/xlink">
<g id="graph0" class="graph" transform="scale(1 1) rotate(0) translate(4 100)">
<title>WinPosWndCfg::readConfig</title>
<!-- Node1 -->
<g id="Node000001" class="node">
<title>Node1</title>
<g id="a_Node000001"><a xlink:title=" ">
<polygon fill="#999999" stroke="#666666" points="136.75,-58 0,-58 0,-38 136.75,-38 136.75,-58"/>
<text text-anchor="middle" x="68.38" y="-44.5" font-family="Helvetica,sans-Serif" font-size="10.00">WinPosWndCfg::readConfig</text>
</a>
</g>
</g>
<!-- Node1&#45;&gt;Node1 -->
<g id="edge3_Node000001_Node000001" class="edge">
<title>Node1&#45;&gt;Node1</title>
<g id="a_edge3_Node000001_Node000001"><a xlink:title=" ">
<path fill="none" stroke="#63b8ff" d="M40.81,-58.34C29.03,-66.98 38.22,-76 68.38,-76 85.34,-76 95.67,-73.14 99.36,-69.11"/>
<polygon fill="#63b8ff" stroke="#63b8ff" points="102.76,-68.25 96.4,-59.78 96.09,-70.37 102.76,-68.25"/>
</a>
</g>
</g>
<!-- Node2 -->
<g id="Node000002" class="node">
<title>Node2</title>
<g id="a_Node000002"><a xlink:href="class_win_pos_wnd_cfg.html#a93944e9bbc627a502d59f845b3b1e827" target="_top" xlink:title=" ">
<polygon fill="white" stroke="#666666" points="504.75,-96 353,-96 353,-76 504.75,-76 504.75,-96"/>
<text text-anchor="middle" x="428.88" y="-82.5" font-family="Helvetica,sans-Serif" font-size="10.00">WinPosWndCfg::getConfigPath</text>
</a>
</g>
</g>
<!-- Node1&#45;&gt;Node2 -->
<g id="edge1_Node000001_Node000002" class="edge">
<title>Node1&#45;&gt;Node2</title>
<g id="a_edge1_Node000001_Node000002"><a xlink:title=" ">
<path fill="none" stroke="#63b8ff" d="M120.21,-58.47C136.89,-61.6 155.56,-64.79 172.75,-67 228.64,-74.2 291.79,-78.93 341.28,-81.87"/>
<polygon fill="#63b8ff" stroke="#63b8ff" points="340.89,-85.35 351.08,-82.43 341.29,-78.36 340.89,-85.35"/>
</a>
</g>
</g>
<!-- Node3 -->
<g id="Node000003" class="node">
<title>Node3</title>
<g id="a_Node000003"><a xlink:href="class_win_pos_wnd_cfg.html#a1fd1c1c55716a4697a044ae0671cf2aa" target="_top" xlink:title=" ">
<polygon fill="white" stroke="#666666" points="493.5,-20 364.25,-20 364.25,0 493.5,0 493.5,-20"/>
<text text-anchor="middle" x="428.88" y="-6.5" font-family="Helvetica,sans-Serif" font-size="10.00">WinPosWndCfg::getScale</text>
</a>
</g>
</g>
<!-- Node1&#45;&gt;Node3 -->
<g id="edge2_Node000001_Node000003" class="edge">
<title>Node1&#45;&gt;Node3</title>
<g id="a_edge2_Node000001_Node000003"><a xlink:title=" ">
<path fill="none" stroke="#63b8ff" d="M120.21,-37.53C136.89,-34.4 155.56,-31.21 172.75,-29 233.06,-21.24 301.82,-16.34 352.75,-13.47"/>
<polygon fill="#63b8ff" stroke="#63b8ff" points="352.68,-16.98 362.48,-12.93 352.3,-9.99 352.68,-16.98"/>
</a>
</g>
</g>
<!-- Node4 -->
<g id="Node000004" class="node">
<title>Node4</title>
<g id="a_Node000004"><a xlink:href="class_win_pos_wnd_cfg.html#a2e024dd316be8cf377996f7be3017acd" target="_top" xlink:title=" ">
<polygon fill="white" stroke="#666666" points="311,-58 172.75,-58 172.75,-38 311,-38 311,-58"/>
<text text-anchor="middle" x="241.88" y="-44.5" font-family="Helvetica,sans-Serif" font-size="10.00">WinPosWndCfg::writeConfig</text>
</a>
</g>
</g>
<!-- Node1&#45;&gt;Node4 -->
<g id="edge4_Node000001_Node000004" class="edge">
<title>Node1&#45;&gt;Node4</title>
<g id="a_edge4_Node000001_Node000004"><a xlink:title=" ">
<path fill="none" stroke="#63b8ff" d="M137.16,-48C145.05,-48 153.15,-48 161.18,-48"/>
<polygon fill="#63b8ff" stroke="#63b8ff" points="160.95,-51.5 170.95,-48 160.95,-44.5 160.95,-51.5"/>
</a>
</g>
</g>
<!-- Node4&#45;&gt;Node2 -->
<g id="edge6_Node000004_Node000002" class="edge">
<title>Node4&#45;&gt;Node2</title>
<g id="a_edge6_Node000004_Node000002"><a xlink:title=" ">
<path fill="none" stroke="#63b8ff" d="M293.92,-58.48C316.16,-63.05 342.43,-68.45 365.8,-73.25"/>
<polygon fill="#63b8ff" stroke="#63b8ff" points="365.02,-76.66 375.52,-75.25 366.43,-69.8 365.02,-76.66"/>
</a>
</g>
</g>
<!-- Node4&#45;&gt;Node3 -->
<g id="edge7_Node000004_Node000003" class="edge">
<title>Node4&#45;&gt;Node3</title>
<g id="a_edge7_Node000004_Node000003"><a xlink:title=" ">
<path fill="none" stroke="#63b8ff" d="M293.92,-37.52C316.16,-32.95 342.43,-27.55 365.8,-22.75"/>
<polygon fill="#63b8ff" stroke="#63b8ff" points="366.43,-26.2 375.52,-20.75 365.02,-19.34 366.43,-26.2"/>
</a>
</g>
</g>
<!-- Node5 -->
<g id="Node000005" class="node">
<title>Node5</title>
<g id="a_Node000005"><a xlink:href="class_win_pos_wnd_cfg.html#afe04626c840dd23b6b063f58bcb06dce" target="_top" xlink:title=" ">
<polygon fill="white" stroke="#666666" points="510.75,-58 347,-58 347,-38 510.75,-38 510.75,-58"/>
<text text-anchor="middle" x="428.88" y="-44.5" font-family="Helvetica,sans-Serif" font-size="10.00">WinPosWndCfg::getCloseTimeout</text>
</a>
</g>
</g>
<!-- Node4&#45;&gt;Node5 -->
<g id="edge5_Node000004_Node000005" class="edge">
<title>Node4&#45;&gt;Node5</title>
<g id="a_edge5_Node000004_Node000005"><a xlink:title=" ">
<path fill="none" stroke="#63b8ff" d="M311.5,-48C319.26,-48 327.26,-48 335.26,-48"/>
<polygon fill="#63b8ff" stroke="#63b8ff" points="335.03,-51.5 345.03,-48 335.03,-44.5 335.03,-51.5"/>
</a>
</g>
</g>
</g>
</svg>
