<?xml version="1.0" encoding="UTF-8" standalone="no"?>
<!DOCTYPE svg PUBLIC "-//W3C//DTD SVG 1.1//EN"
 "http://www.w3.org/Graphics/SVG/1.1/DTD/svg11.dtd">
<!-- Generated by graphviz version 9.0.0 (20230911.1827)
 -->
<!-- Title: WinPosWnd Pages: 1 -->
<svg width="1848pt" height="589pt"
 viewBox="0.00 0.00 1847.55 589.00" xmlns="http://www.w3.org/2000/svg" xmlns:xlink="http://www.w3.org/1999/xlink">
<g id="graph0" class="graph" transform="scale(1 1) rotate(0) translate(4 585)">
<title>WinPosWnd</title>
<!-- Node1 -->
<g id="Node000001" class="node">
<title>Node1</title>
<g id="a_Node000001"><a xlink:title=" ">
<polygon fill="#999999" stroke="#666666" points="727.18,-196 656.43,-196 656.43,-176 727.18,-176 727.18,-196"/>
<text text-anchor="middle" x="691.8" y="-182.5" font-family="Helvetica,sans-Serif" font-size="10.00">WinPosWnd</text>
</a>
</g>
</g>
<!-- Node3 -->
<g id="Node000003" class="node">
<title>Node3</title>
<g id="a_Node000003"><a xlink:title=" ">
<polygon fill="white" stroke="#666666" points="1063.3,-116 893.55,-116 893.55,-96 1063.3,-96 1063.3,-116"/>
<text text-anchor="middle" x="978.43" y="-102.5" font-family="Helvetica,sans-Serif" font-size="10.00">std::map&lt; HWND, WinPosWnd * &gt;</text>
</a>
</g>
</g>
<!-- Node1&#45;&gt;Node3 -->
<g id="edge4_Node000003_Node000001" class="edge">
<title>Node1&#45;&gt;Node3</title>
<g id="a_edge4_Node000003_Node000001"><a xlink:title=" ">
<path fill="none" stroke="#9a32cd" stroke-dasharray="5,2" d="M738.54,-181.42C776,-176.86 830.05,-168.42 875.55,-154 906.12,-144.32 939.33,-127.34 959.25,-116.39"/>
<polygon fill="#9a32cd" stroke="#9a32cd" points="738.5,-177.9 728.98,-182.54 739.31,-184.86 738.5,-177.9"/>
</a>
</g>
<text text-anchor="middle" x="829.43" y="-176.5" font-family="Helvetica,sans-Serif" font-size="10.00" fill="grey"> elements</text>
</g>
<!-- Node12 -->
<g id="Node000012" class="node">
<title>Node12</title>
<g id="a_Node000012"><a xlink:href="struct_win_pos_wnd_1_1_monitor_preview.html" target="_top" xlink:title=" ">
<polygon fill="white" stroke="#666666" points="1049.43,-355 907.43,-355 907.43,-335 1049.43,-335 1049.43,-355"/>
<text text-anchor="middle" x="978.43" y="-341.5" font-family="Helvetica,sans-Serif" font-size="10.00">WinPosWnd::MonitorPreview</text>
</a>
</g>
</g>
<!-- Node1&#45;&gt;Node12 -->
<g id="edge15_Node000012_Node000001" class="edge">
<title>Node1&#45;&gt;Node12</title>
<g id="a_edge15_Node000012_Node000001"><a xlink:title=" ">
<path fill="none" stroke="#9a32cd" stroke-dasharray="5,2" d="M721.46,-202.01C779.6,-234.49 910.05,-307.36 958.68,-334.53"/>
<polygon fill="#9a32cd" stroke="#9a32cd" points="723.23,-198.99 712.8,-197.17 719.82,-205.1 723.23,-198.99"/>
</a>
</g>
<text text-anchor="middle" x="829.43" y="-286.5" font-family="Helvetica,sans-Serif" font-size="10.00" fill="grey"> winPosWnd</text>
</g>
<!-- Node2 -->
<g id="Node000002" class="node">
<title>Node2</title>
<g id="a_Node000002"><a xlink:title=" ">
<polygon fill="white" stroke="#666666" points="463.8,-204 331.55,-204 331.55,-184 463.8,-184 463.8,-204"/>
<text text-anchor="middle" x="397.68" y="-190.5" font-family="Helvetica,sans-Serif" font-size="10.00">static const WNDCLASS *</text>
</a>
</g>
</g>
<!-- Node2&#45;&gt;Node1 -->
<g id="edge1_Node000001_Node000002" class="edge">
<title>Node2&#45;&gt;Node1</title>
<g id="a_edge1_Node000001_Node000002"><a xlink:title=" ">
<path fill="none" stroke="#9a32cd" stroke-dasharray="5,2" d="M475.21,-187.33C477.43,-187.21 479.63,-187.1 481.8,-187 543.06,-184.28 614.52,-184.71 656.02,-185.32"/>
<polygon fill="#9a32cd" stroke="#9a32cd" points="475.27,-183.82 465.5,-187.92 475.69,-190.8 475.27,-183.82"/>
</a>
</g>
<text text-anchor="middle" x="541.05" y="-189.5" font-family="Helvetica,sans-Serif" font-size="10.00" fill="grey"> wndClass</text>
</g>
<!-- Node3&#45;&gt;Node1 -->
<g id="edge2_Node000001_Node000003" class="edge">
<title>Node3&#45;&gt;Node1</title>
<g id="a_edge2_Node000001_Node000003"><a xlink:title=" ">
<path fill="none" stroke="#9a32cd" stroke-dasharray="5,2" d="M882.84,-118.3C850.77,-123.84 815.05,-131.55 783.3,-142 756.91,-150.68 728.39,-165.55 710.57,-175.58"/>
<polygon fill="#9a32cd" stroke="#9a32cd" points="883.24,-121.78 892.52,-116.67 882.08,-114.87 883.24,-121.78"/>
</a>
</g>
<text text-anchor="middle" x="829.43" y="-144.5" font-family="Helvetica,sans-Serif" font-size="10.00" fill="grey"> hWndToWinPosMap</text>
</g>
<!-- Node4 -->
<g id="Node000004" class="node">
<title>Node4</title>
<g id="a_Node000004"><a xlink:title=" ">
<polygon fill="white" stroke="#666666" points="175.68,-128 129.68,-128 129.68,-108 175.68,-108 175.68,-128"/>
<text text-anchor="middle" x="152.68" y="-114.5" font-family="Helvetica,sans-Serif" font-size="10.00">HWND</text>
</a>
</g>
</g>
<!-- Node4&#45;&gt;Node3 -->
<g id="edge3_Node000003_Node000004" class="edge">
<title>Node4&#45;&gt;Node3</title>
<g id="a_edge3_Node000003_Node000004"><a xlink:title=" ">
<path fill="none" stroke="#9a32cd" stroke-dasharray="5,2" d="M187.28,-113.33C222.98,-108.63 281.12,-101.69 331.55,-99 532.83,-88.28 769.88,-96.07 893.23,-101.65"/>
<polygon fill="#9a32cd" stroke="#9a32cd" points="187.02,-109.84 177.58,-114.63 187.95,-116.77 187.02,-109.84"/>
</a>
</g>
<text text-anchor="middle" x="541.05" y="-96.5" font-family="Helvetica,sans-Serif" font-size="10.00" fill="grey"> keys</text>
</g>
<!-- Node8 -->
<g id="Node000008" class="node">
<title>Node8</title>
<g id="a_Node000008"><a xlink:title=" ">
<polygon fill="white" stroke="#666666" points="452.18,-128 343.18,-128 343.18,-108 452.18,-108 452.18,-128"/>
<text text-anchor="middle" x="397.68" y="-114.5" font-family="Helvetica,sans-Serif" font-size="10.00">std::vector&lt; HWND &gt;</text>
</a>
</g>
</g>
<!-- Node4&#45;&gt;Node8 -->
<g id="edge9_Node000008_Node000004" class="edge">
<title>Node4&#45;&gt;Node8</title>
<g id="a_edge9_Node000008_Node000004"><a xlink:title=" ">
<path fill="none" stroke="#9a32cd" stroke-dasharray="5,2" d="M187.4,-118C227.59,-118 295.26,-118 342.75,-118"/>
<polygon fill="#9a32cd" stroke="#9a32cd" points="187.61,-114.5 177.61,-118 187.61,-121.5 187.61,-114.5"/>
</a>
</g>
<text text-anchor="middle" x="264.68" y="-120.5" font-family="Helvetica,sans-Serif" font-size="10.00" fill="grey"> elements</text>
</g>
<!-- Node4&#45;&gt;Node12 -->
<g id="edge16_Node000012_Node000004" class="edge">
<title>Node4&#45;&gt;Node12</title>
<g id="a_edge16_Node000012_Node000004"><a xlink:title=" ">
<path fill="none" stroke="#9a32cd" stroke-dasharray="5,2" d="M159.82,-138.89C168.53,-165.46 186.72,-211.41 215.8,-241 256.56,-282.47 276.33,-283.78 331.55,-302 532.19,-368.19 786.46,-360.35 907.39,-351.52"/>
<polygon fill="#9a32cd" stroke="#9a32cd" points="163.25,-138.13 156.93,-129.63 156.56,-140.22 163.25,-138.13"/>
</a>
</g>
<text text-anchor="middle" x="541.05" y="-353.5" font-family="Helvetica,sans-Serif" font-size="10.00" fill="grey"> hWnd</text>
</g>
<!-- Node5 -->
<g id="Node000005" class="node">
<title>Node5</title>
<g id="a_Node000005"><a xlink:title=" ">
<polygon fill="white" stroke="#666666" points="197.8,-84 107.55,-84 107.55,-64 197.8,-64 197.8,-84"/>
<text text-anchor="middle" x="152.68" y="-70.5" font-family="Helvetica,sans-Serif" font-size="10.00">std::map&lt; K, T &gt;</text>
</a>
</g>
</g>
<!-- Node5&#45;&gt;Node3 -->
<g id="edge5_Node000003_Node000005" class="edge">
<title>Node5&#45;&gt;Node3</title>
<g id="a_edge5_Node000003_Node000005"><a xlink:title=" ">
<path fill="none" stroke="orange" stroke-dasharray="5,2" d="M209.34,-72.96C330.67,-71.25 627.94,-70.03 875.55,-93 883.36,-93.72 891.5,-94.58 899.62,-95.51"/>
<polygon fill="orange" stroke="orange" points="209.61,-69.46 199.67,-73.11 209.72,-76.46 209.61,-69.46"/>
</a>
</g>
<text text-anchor="middle" x="541.05" y="-78.5" font-family="Helvetica,sans-Serif" font-size="10.00" fill="grey"> &lt; HWND, WinPosWnd * &gt;</text>
</g>
<!-- Node6 -->
<g id="Node000006" class="node">
<title>Node6</title>
<g id="a_Node000006"><a xlink:title=" ">
<polygon fill="white" stroke="#666666" points="28.8,-84 0,-84 0,-64 28.8,-64 28.8,-84"/>
<text text-anchor="middle" x="14.4" y="-70.5" font-family="Helvetica,sans-Serif" font-size="10.00">K</text>
</a>
</g>
</g>
<!-- Node6&#45;&gt;Node5 -->
<g id="edge6_Node000005_Node000006" class="edge">
<title>Node6&#45;&gt;Node5</title>
<g id="a_edge6_Node000005_Node000006"><a xlink:title=" ">
<path fill="none" stroke="#9a32cd" stroke-dasharray="5,2" d="M40.55,-74C59.17,-74 85.02,-74 107.1,-74"/>
<polygon fill="#9a32cd" stroke="#9a32cd" points="40.73,-70.5 30.73,-74 40.73,-77.5 40.73,-70.5"/>
</a>
</g>
<text text-anchor="middle" x="68.18" y="-76.5" font-family="Helvetica,sans-Serif" font-size="10.00" fill="grey"> keys</text>
</g>
<!-- Node7 -->
<g id="Node000007" class="node">
<title>Node7</title>
<g id="a_Node000007"><a xlink:title=" ">
<polygon fill="white" stroke="#666666" points="28.8,-161 0,-161 0,-141 28.8,-141 28.8,-161"/>
<text text-anchor="middle" x="14.4" y="-147.5" font-family="Helvetica,sans-Serif" font-size="10.00">T</text>
</a>
</g>
</g>
<!-- Node7&#45;&gt;Node5 -->
<g id="edge7_Node000005_Node000007" class="edge">
<title>Node7&#45;&gt;Node5</title>
<g id="a_edge7_Node000005_Node000007"><a xlink:title=" ">
<path fill="none" stroke="#9a32cd" stroke-dasharray="5,2" d="M38.96,-137.69C65.82,-122.51 109.15,-98.03 133.52,-84.26"/>
<polygon fill="#9a32cd" stroke="#9a32cd" points="37.52,-134.48 30.53,-142.45 40.96,-140.58 37.52,-134.48"/>
</a>
</g>
<text text-anchor="middle" x="68.18" y="-134.5" font-family="Helvetica,sans-Serif" font-size="10.00" fill="grey"> elements</text>
</g>
<!-- Node9 -->
<g id="Node000009" class="node">
<title>Node9</title>
<g id="a_Node000009"><a xlink:title=" ">
<polygon fill="white" stroke="#666666" points="194.8,-310 110.55,-310 110.55,-290 194.8,-290 194.8,-310"/>
<text text-anchor="middle" x="152.68" y="-296.5" font-family="Helvetica,sans-Serif" font-size="10.00">std::vector&lt; T &gt;</text>
</a>
</g>
</g>
<!-- Node7&#45;&gt;Node9 -->
<g id="edge11_Node000009_Node000007" class="edge">
<title>Node7&#45;&gt;Node9</title>
<g id="a_edge11_Node000009_Node000007"><a xlink:title=" ">
<path fill="none" stroke="#9a32cd" stroke-dasharray="5,2" d="M32.45,-169.64C61.47,-201.37 119.52,-264.84 142.24,-289.69"/>
<polygon fill="#9a32cd" stroke="#9a32cd" points="35.12,-167.38 25.79,-162.36 29.95,-172.1 35.12,-167.38"/>
</a>
</g>
<text text-anchor="middle" x="68.18" y="-231.5" font-family="Helvetica,sans-Serif" font-size="10.00" fill="grey"> elements</text>
</g>
<!-- Node17 -->
<g id="Node000017" class="node">
<title>Node17</title>
<g id="a_Node000017"><a xlink:title=" ">
<polygon fill="white" stroke="#666666" points="449.93,-541 345.43,-541 345.43,-521 449.93,-521 449.93,-541"/>
<text text-anchor="middle" x="397.68" y="-527.5" font-family="Helvetica,sans-Serif" font-size="10.00">std::shared_ptr&lt; T &gt;</text>
</a>
</g>
</g>
<!-- Node7&#45;&gt;Node17 -->
<g id="edge22_Node000017_Node000007" class="edge">
<title>Node7&#45;&gt;Node17</title>
<g id="a_edge22_Node000017_Node000007"><a xlink:title=" ">
<path fill="none" stroke="#9a32cd" stroke-dasharray="5,2" d="M20,-172.34C35.01,-236.26 89.16,-426.73 215.8,-507 254.33,-531.42 306.74,-535.96 345.23,-535.26"/>
<polygon fill="#9a32cd" stroke="#9a32cd" points="23.46,-171.77 17.84,-162.79 16.63,-173.31 23.46,-171.77"/>
</a>
</g>
<text text-anchor="middle" x="152.68" y="-507.5" font-family="Helvetica,sans-Serif" font-size="10.00" fill="grey"> dummy</text>
<text text-anchor="middle" x="152.68" y="-495.5" font-family="Helvetica,sans-Serif" font-size="10.00" fill="grey">ptr</text>
</g>
<!-- Node21 -->
<g id="Node000021" class="node">
<title>Node21</title>
<g id="a_Node000021"><a xlink:title=" ">
<polygon fill="white" stroke="#666666" points="313.55,-20 215.8,-20 215.8,0 313.55,0 313.55,-20"/>
<text text-anchor="middle" x="264.68" y="-6.5" font-family="Helvetica,sans-Serif" font-size="10.00">std::weak_ptr&lt; T &gt;</text>
</a>
</g>
</g>
<!-- Node7&#45;&gt;Node21 -->
<g id="edge31_Node000021_Node000007" class="edge">
<title>Node7&#45;&gt;Node21</title>
<g id="a_edge31_Node000021_Node000007"><a xlink:title=" ">
<path fill="none" stroke="#9a32cd" stroke-dasharray="5,2" d="M20.06,-129.58C25.79,-105.24 36.06,-67.64 46.8,-58 93,-16.53 166.87,-8.23 215.33,-7.79"/>
<polygon fill="#9a32cd" stroke="#9a32cd" points="16.7,-128.58 17.91,-139.1 23.53,-130.12 16.7,-128.58"/>
</a>
</g>
<text text-anchor="middle" x="68.18" y="-60.5" font-family="Helvetica,sans-Serif" font-size="10.00" fill="grey"> ptr</text>
</g>
<!-- Node8&#45;&gt;Node1 -->
<g id="edge8_Node000001_Node000008" class="edge">
<title>Node8&#45;&gt;Node1</title>
<g id="a_edge8_Node000001_Node000008"><a xlink:title=" ">
<path fill="none" stroke="#9a32cd" stroke-dasharray="5,2" d="M463.78,-120.24C503.82,-122.97 555.81,-128.94 600.3,-142 627.29,-149.92 656.13,-165.28 673.81,-175.59"/>
<polygon fill="#9a32cd" stroke="#9a32cd" points="464,-116.75 453.8,-119.62 463.56,-123.74 464,-116.75"/>
</a>
</g>
<text text-anchor="middle" x="541.05" y="-144.5" font-family="Helvetica,sans-Serif" font-size="10.00" fill="grey"> _hWnds</text>
</g>
<!-- Node9&#45;&gt;Node8 -->
<g id="edge10_Node000008_Node000009" class="edge">
<title>Node9&#45;&gt;Node8</title>
<g id="a_edge10_Node000008_Node000009"><a xlink:title=" ">
<path fill="none" stroke="orange" stroke-dasharray="5,2" d="M168.75,-281.42C197.11,-247.7 261.82,-176.26 331.55,-137 337.6,-133.59 344.33,-130.74 351.09,-128.38"/>
<polygon fill="orange" stroke="orange" points="166.4,-278.78 162.71,-288.71 171.79,-283.25 166.4,-278.78"/>
</a>
</g>
<text text-anchor="middle" x="264.68" y="-227.5" font-family="Helvetica,sans-Serif" font-size="10.00" fill="grey"> &lt; HWND &gt;</text>
</g>
<!-- Node10 -->
<g id="Node000010" class="node">
<title>Node10</title>
<g id="a_Node000010"><a xlink:title=" ">
<polygon fill="white" stroke="#666666" points="1591.8,-479 1467.05,-479 1467.05,-447 1591.8,-447 1591.8,-479"/>
<text text-anchor="start" x="1475.05" y="-465.5" font-family="Helvetica,sans-Serif" font-size="10.00">std::vector&lt; std::shared</text>
<text text-anchor="middle" x="1529.43" y="-453.5" font-family="Helvetica,sans-Serif" font-size="10.00">_ptr&lt; MonitorPreview &gt; &gt;</text>
</a>
</g>
</g>
<!-- Node9&#45;&gt;Node10 -->
<g id="edge34_Node000010_Node000009" class="edge">
<title>Node9&#45;&gt;Node10</title>
<g id="a_edge34_Node000010_Node000009"><a xlink:title=" ">
<path fill="none" stroke="orange" stroke-dasharray="5,2" d="M163.94,-320.34C174.67,-339.98 193.11,-369.52 215.8,-389 310.49,-470.3 358.27,-461.23 481.8,-479 853.22,-532.43 951.33,-507.87 1326.05,-488 1376.47,-485.33 1389.22,-485.47 1439.3,-479 1448.19,-477.85 1457.53,-476.42 1466.7,-474.89"/>
<polygon fill="orange" stroke="orange" points="167.13,-318.88 159.37,-311.67 160.93,-322.15 167.13,-318.88"/>
</a>
</g>
<text text-anchor="start" x="786.3" y="-525.5" font-family="Helvetica,sans-Serif" font-size="10.00" fill="grey"> &lt; std::shared_ptr&lt;</text>
<text text-anchor="middle" x="829.43" y="-513.5" font-family="Helvetica,sans-Serif" font-size="10.00" fill="grey"> MonitorPreview &gt; &gt;</text>
</g>
<!-- Node16 -->
<g id="Node000016" class="node">
<title>Node16</title>
<g id="a_Node000016"><a xlink:title=" ">
<polygon fill="white" stroke="#666666" points="760.55,-458 623.05,-458 623.05,-426 760.55,-426 760.55,-458"/>
<text text-anchor="start" x="631.05" y="-444.5" font-family="Helvetica,sans-Serif" font-size="10.00">std::vector&lt; WinPosPreview</text>
<text text-anchor="middle" x="691.8" y="-432.5" font-family="Helvetica,sans-Serif" font-size="10.00">Ptr &gt;</text>
</a>
</g>
</g>
<!-- Node9&#45;&gt;Node16 -->
<g id="edge23_Node000016_Node000009" class="edge">
<title>Node9&#45;&gt;Node16</title>
<g id="a_edge23_Node000016_Node000009"><a xlink:title=" ">
<path fill="none" stroke="orange" stroke-dasharray="5,2" d="M173.04,-317.98C184.85,-328.4 200.55,-341.32 215.8,-351 263.89,-381.52 276.68,-390.71 331.55,-406 430.28,-433.51 549.43,-440.56 622.65,-442.07"/>
<polygon fill="orange" stroke="orange" points="175.39,-315.38 165.62,-311.29 170.7,-320.58 175.39,-315.38"/>
</a>
</g>
<text text-anchor="middle" x="397.68" y="-432.5" font-family="Helvetica,sans-Serif" font-size="10.00" fill="grey"> &lt; WinPosPreviewPtr &gt;</text>
</g>
<!-- Node10&#45;&gt;Node1 -->
<g id="edge12_Node000001_Node000010" class="edge">
<title>Node10&#45;&gt;Node1</title>
<g id="a_edge12_Node000001_Node000010"><a xlink:title=" ">
<path fill="none" stroke="#9a32cd" stroke-dasharray="5,2" d="M1455.97,-447.66C1343.13,-422.38 1132.97,-369.22 1081.3,-314 1059.65,-290.86 1086.77,-266.29 1063.3,-245 1038.52,-222.52 814.78,-198.11 727.47,-189.36"/>
<polygon fill="#9a32cd" stroke="#9a32cd" points="1454.91,-451.01 1465.43,-449.77 1456.43,-444.18 1454.91,-451.01"/>
</a>
</g>
<text text-anchor="middle" x="1125.55" y="-365.5" font-family="Helvetica,sans-Serif" font-size="10.00" fill="grey"> _previews</text>
</g>
<!-- Node11 -->
<g id="Node000011" class="node">
<title>Node11</title>
<g id="a_Node000011"><a xlink:title=" ">
<polygon fill="white" stroke="#666666" points="1318.18,-479 1195.68,-479 1195.68,-447 1318.18,-447 1318.18,-479"/>
<text text-anchor="start" x="1203.68" y="-465.5" font-family="Helvetica,sans-Serif" font-size="10.00">std::shared_ptr&lt; Monitor</text>
<text text-anchor="middle" x="1256.93" y="-453.5" font-family="Helvetica,sans-Serif" font-size="10.00">Preview &gt;</text>
</a>
</g>
</g>
<!-- Node11&#45;&gt;Node10 -->
<g id="edge13_Node000010_Node000011" class="edge">
<title>Node11&#45;&gt;Node10</title>
<g id="a_edge13_Node000010_Node000011"><a xlink:title=" ">
<path fill="none" stroke="#9a32cd" stroke-dasharray="5,2" d="M1330.09,-463C1372.79,-463 1426.31,-463 1466.99,-463"/>
<polygon fill="#9a32cd" stroke="#9a32cd" points="1330.14,-459.5 1320.14,-463 1330.14,-466.5 1330.14,-459.5"/>
</a>
</g>
<text text-anchor="middle" x="1391.68" y="-465.5" font-family="Helvetica,sans-Serif" font-size="10.00" fill="grey"> elements</text>
</g>
<!-- Node12&#45;&gt;Node11 -->
<g id="edge14_Node000011_Node000012" class="edge">
<title>Node12&#45;&gt;Node11</title>
<g id="a_edge14_Node000011_Node000012"><a xlink:title=" ">
<path fill="none" stroke="#9a32cd" stroke-dasharray="5,2" d="M997.47,-363.08C1016.63,-381.22 1048.61,-408.62 1081.3,-424 1091.77,-428.93 1149.21,-441.33 1195.39,-450.84"/>
<polygon fill="#9a32cd" stroke="#9a32cd" points="1000.09,-360.74 990.47,-356.29 995.22,-365.77 1000.09,-360.74"/>
</a>
</g>
<text text-anchor="middle" x="1125.55" y="-458.5" font-family="Helvetica,sans-Serif" font-size="10.00" fill="grey"> dummy</text>
<text text-anchor="middle" x="1125.55" y="-446.5" font-family="Helvetica,sans-Serif" font-size="10.00" fill="grey">ptr</text>
</g>
<!-- Node20 -->
<g id="Node000020" class="node">
<title>Node20</title>
<g id="a_Node000020"><a xlink:title=" ">
<polygon fill="white" stroke="#666666" points="1326.05,-239 1187.8,-239 1187.8,-207 1326.05,-207 1326.05,-239"/>
<text text-anchor="start" x="1195.8" y="-225.5" font-family="Helvetica,sans-Serif" font-size="10.00">std::weak_ptr&lt; WinPosWnd</text>
<text text-anchor="middle" x="1256.93" y="-213.5" font-family="Helvetica,sans-Serif" font-size="10.00">::MonitorPreview &gt;</text>
</a>
</g>
</g>
<!-- Node12&#45;&gt;Node20 -->
<g id="edge29_Node000020_Node000012" class="edge">
<title>Node12&#45;&gt;Node20</title>
<g id="a_edge29_Node000020_Node000012"><a xlink:title=" ">
<path fill="none" stroke="#9a32cd" stroke-dasharray="5,2" d="M1013.36,-330.03C1065.39,-307.07 1164.54,-263.32 1218.56,-239.49"/>
<polygon fill="#9a32cd" stroke="#9a32cd" points="1012.12,-326.75 1004.38,-333.99 1014.95,-333.15 1012.12,-326.75"/>
</a>
</g>
<text text-anchor="middle" x="1125.55" y="-300.5" font-family="Helvetica,sans-Serif" font-size="10.00" fill="grey"> ptr</text>
</g>
<!-- Node13 -->
<g id="Node000013" class="node">
<title>Node13</title>
<g id="a_Node000013"><a xlink:title=" ">
<polygon fill="white" stroke="#666666" points="418.43,-293 376.93,-293 376.93,-273 418.43,-273 418.43,-293"/>
<text text-anchor="middle" x="397.68" y="-279.5" font-family="Helvetica,sans-Serif" font-size="10.00">RECT</text>
</a>
</g>
</g>
<!-- Node13&#45;&gt;Node1 -->
<g id="edge35_Node000001_Node000013" class="edge">
<title>Node13&#45;&gt;Node1</title>
<g id="a_edge35_Node000001_Node000013"><a xlink:title=" ">
<path fill="none" stroke="#9a32cd" stroke-dasharray="5,2" d="M429.27,-272.53C444.88,-267.42 464.22,-261.44 481.8,-257 533.82,-243.86 549.72,-251.88 600.3,-234 627.8,-224.28 657.21,-207.32 674.79,-196.38"/>
<polygon fill="#9a32cd" stroke="#9a32cd" points="428.47,-269.11 420.09,-275.58 430.68,-275.75 428.47,-269.11"/>
</a>
</g>
<text text-anchor="middle" x="541.05" y="-259.5" font-family="Helvetica,sans-Serif" font-size="10.00" fill="grey"> _totalRect</text>
</g>
<!-- Node13&#45;&gt;Node12 -->
<g id="edge17_Node000012_Node000013" class="edge">
<title>Node13&#45;&gt;Node12</title>
<g id="a_edge17_Node000012_Node000013"><a xlink:title=" ">
<path fill="none" stroke="#9a32cd" stroke-dasharray="5,2" d="M429.93,-287.39C445.51,-289.51 464.63,-292.02 481.8,-294 607.58,-308.53 639.36,-308.95 765.3,-322 812.65,-326.9 865.91,-332.68 907.22,-337.22"/>
<polygon fill="#9a32cd" stroke="#9a32cd" points="430.69,-283.96 420.31,-286.06 429.74,-290.89 430.69,-283.96"/>
</a>
</g>
<text text-anchor="middle" x="691.8" y="-336.5" font-family="Helvetica,sans-Serif" font-size="10.00" fill="grey"> monitorRect</text>
<text text-anchor="middle" x="691.8" y="-324.5" font-family="Helvetica,sans-Serif" font-size="10.00" fill="grey">prvRect</text>
</g>
<!-- Node19 -->
<g id="Node000019" class="node">
<title>Node19</title>
<g id="a_Node000019"><a xlink:href="struct_win_pos_wnd_1_1_win_pos_preview.html" target="_top" xlink:title=" ">
<polygon fill="white" stroke="#666666" points="1601.55,-286 1457.3,-286 1457.3,-266 1601.55,-266 1601.55,-286"/>
<text text-anchor="middle" x="1529.43" y="-272.5" font-family="Helvetica,sans-Serif" font-size="10.00">WinPosWnd::WinPosPreview</text>
</a>
</g>
</g>
<!-- Node13&#45;&gt;Node19 -->
<g id="edge26_Node000019_Node000013" class="edge">
<title>Node13&#45;&gt;Node19</title>
<g id="a_edge26_Node000019_Node000013"><a xlink:title=" ">
<path fill="none" stroke="#9a32cd" stroke-dasharray="5,2" d="M429.83,-282.24C495.28,-280.69 651.9,-277.2 783.3,-276 1030.69,-273.75 1324.31,-274.86 1457.01,-275.57"/>
<polygon fill="#9a32cd" stroke="#9a32cd" points="430.12,-278.73 420.21,-282.47 430.29,-285.73 430.12,-278.73"/>
</a>
</g>
<text text-anchor="middle" x="978.43" y="-289.5" font-family="Helvetica,sans-Serif" font-size="10.00" fill="grey"> prvRect</text>
<text text-anchor="middle" x="978.43" y="-277.5" font-family="Helvetica,sans-Serif" font-size="10.00" fill="grey">wndRect</text>
</g>
<!-- Node14 -->
<g id="Node000014" class="node">
<title>Node14</title>
<g id="a_Node000014"><a xlink:title=" ">
<polygon fill="white" stroke="#666666" points="721.55,-408 662.05,-408 662.05,-388 721.55,-388 721.55,-408"/>
<text text-anchor="middle" x="691.8" y="-394.5" font-family="Helvetica,sans-Serif" font-size="10.00">std::string</text>
</a>
</g>
</g>
<!-- Node14&#45;&gt;Node12 -->
<g id="edge18_Node000012_Node000014" class="edge">
<title>Node14&#45;&gt;Node12</title>
<g id="a_edge18_Node000012_Node000014"><a xlink:title=" ">
<path fill="none" stroke="#9a32cd" stroke-dasharray="5,2" d="M732.71,-390.48C748.47,-387.52 766.73,-384.09 783.3,-381 829.63,-372.35 882.19,-362.61 920.93,-355.44"/>
<polygon fill="#9a32cd" stroke="#9a32cd" points="732.4,-386.98 723.22,-392.27 733.7,-393.86 732.4,-386.98"/>
</a>
</g>
<text text-anchor="middle" x="829.43" y="-395.5" font-family="Helvetica,sans-Serif" font-size="10.00" fill="grey"> device</text>
<text text-anchor="middle" x="829.43" y="-383.5" font-family="Helvetica,sans-Serif" font-size="10.00" fill="grey">name</text>
</g>
<!-- Node14&#45;&gt;Node19 -->
<g id="edge27_Node000019_Node000014" class="edge">
<title>Node14&#45;&gt;Node19</title>
<g id="a_edge27_Node000019_Node000014"><a xlink:title=" ">
<path fill="none" stroke="#9a32cd" stroke-dasharray="5,2" d="M732.66,-403.56C743.85,-406.38 755.6,-410.62 765.3,-417 776.15,-424.13 771.63,-434.31 783.3,-440 820.16,-457.96 834.7,-443.51 875.55,-440 941.67,-434.31 1105.31,-404.67 1169.8,-389 1234.26,-373.33 1422.42,-311.31 1497.23,-286.42"/>
<polygon fill="#9a32cd" stroke="#9a32cd" points="733.74,-400.22 723.23,-401.51 732.26,-407.06 733.74,-400.22"/>
</a>
</g>
<text text-anchor="middle" x="1125.55" y="-409.5" font-family="Helvetica,sans-Serif" font-size="10.00" fill="grey"> name</text>
</g>
<!-- Node15 -->
<g id="Node000015" class="node">
<title>Node15</title>
<g id="a_Node000015"><a xlink:title=" ">
<polygon fill="white" stroke="#666666" points="444.68,-397 350.68,-397 350.68,-365 444.68,-365 444.68,-397"/>
<text text-anchor="start" x="358.68" y="-383.5" font-family="Helvetica,sans-Serif" font-size="10.00">std::basic_string&lt;</text>
<text text-anchor="middle" x="397.68" y="-371.5" font-family="Helvetica,sans-Serif" font-size="10.00"> Char &gt;</text>
</a>
</g>
</g>
<!-- Node15&#45;&gt;Node14 -->
<g id="edge19_Node000014_Node000015" class="edge">
<title>Node15&#45;&gt;Node14</title>
<g id="a_edge19_Node000014_Node000015"><a xlink:title=" ">
<path fill="none" stroke="#63b8ff" d="M456.09,-384.34C517.9,-387.94 613.77,-393.52 661.59,-396.3"/>
<polygon fill="#63b8ff" stroke="#63b8ff" points="456.66,-380.87 446.47,-383.78 456.25,-387.86 456.66,-380.87"/>
</a>
</g>
</g>
<!-- Node16&#45;&gt;Node12 -->
<g id="edge20_Node000012_Node000016" class="edge">
<title>Node16&#45;&gt;Node12</title>
<g id="a_edge20_Node000012_Node000016"><a xlink:title=" ">
<path fill="none" stroke="#9a32cd" stroke-dasharray="5,2" d="M772.06,-431.85C804.8,-426.16 842.7,-417.59 875.55,-405 909.09,-392.14 944.38,-368.83 963.36,-355.36"/>
<polygon fill="#9a32cd" stroke="#9a32cd" points="771.5,-428.4 762.21,-433.5 772.65,-435.3 771.5,-428.4"/>
</a>
</g>
<text text-anchor="middle" x="829.43" y="-431.5" font-family="Helvetica,sans-Serif" font-size="10.00" fill="grey"> previews</text>
</g>
<!-- Node17&#45;&gt;Node11 -->
<g id="edge33_Node000011_Node000017" class="edge">
<title>Node17&#45;&gt;Node11</title>
<g id="a_edge33_Node000011_Node000017"><a xlink:title=" ">
<path fill="none" stroke="orange" stroke-dasharray="5,2" d="M461.58,-528.06C501.41,-525.84 553.97,-522.27 600.3,-517 682.12,-507.69 701.37,-496.27 783.3,-488 954.38,-470.74 998.26,-482.73 1169.8,-471 1178.04,-470.44 1186.71,-469.75 1195.26,-469.01"/>
<polygon fill="orange" stroke="orange" points="461.48,-524.56 451.68,-528.59 461.85,-531.55 461.48,-524.56"/>
</a>
</g>
<text text-anchor="middle" x="829.43" y="-490.5" font-family="Helvetica,sans-Serif" font-size="10.00" fill="grey"> &lt; MonitorPreview &gt;</text>
</g>
<!-- Node17&#45;&gt;Node16 -->
<g id="edge21_Node000016_Node000017" class="edge">
<title>Node17&#45;&gt;Node16</title>
<g id="a_edge21_Node000016_Node000017"><a xlink:title=" ">
<path fill="none" stroke="#9a32cd" stroke-dasharray="5,2" d="M442.58,-517.17C455.23,-513.22 469.06,-508.91 481.8,-505 533.97,-488.98 593.58,-471.05 635.75,-458.43"/>
<polygon fill="#9a32cd" stroke="#9a32cd" points="441.76,-513.76 433.26,-520.09 443.85,-520.44 441.76,-513.76"/>
</a>
</g>
<text text-anchor="middle" x="541.05" y="-507.5" font-family="Helvetica,sans-Serif" font-size="10.00" fill="grey"> elements</text>
</g>
<!-- Node18 -->
<g id="Node000018" class="node">
<title>Node18</title>
<g id="a_Node000018"><a xlink:title=" ">
<polygon fill="white" stroke="#666666" points="1839.55,-353 1672.8,-353 1672.8,-333 1839.55,-333 1839.55,-353"/>
<text text-anchor="middle" x="1756.18" y="-339.5" font-family="Helvetica,sans-Serif" font-size="10.00">std::shared_ptr&lt; WinPosPreview &gt;</text>
</a>
</g>
</g>
<!-- Node17&#45;&gt;Node18 -->
<g id="edge32_Node000018_Node000017" class="edge">
<title>Node17&#45;&gt;Node18</title>
<g id="a_edge32_Node000018_Node000017"><a xlink:title=" ">
<path fill="none" stroke="orange" stroke-dasharray="5,2" d="M459.52,-543.58C518.41,-554.64 610.32,-569 690.8,-569 690.8,-569 690.8,-569 1530.43,-569 1653.82,-569 1732.78,-397.51 1751.09,-353.3"/>
<polygon fill="orange" stroke="orange" points="460.52,-540.21 450.05,-541.77 459.21,-547.08 460.52,-540.21"/>
</a>
</g>
<text text-anchor="middle" x="1125.55" y="-571.5" font-family="Helvetica,sans-Serif" font-size="10.00" fill="grey"> &lt; WinPosPreview &gt;</text>
</g>
<!-- Node18&#45;&gt;Node12 -->
<g id="edge24_Node000012_Node000018" class="edge">
<title>Node18&#45;&gt;Node12</title>
<g id="a_edge24_Node000012_Node000018"><a xlink:title=" ">
<path fill="none" stroke="#9a32cd" stroke-dasharray="5,2" d="M1661.32,-343.24C1503.78,-343.65 1189.68,-344.46 1049.64,-344.82"/>
<polygon fill="#9a32cd" stroke="#9a32cd" points="1660.88,-346.74 1670.87,-343.22 1660.86,-339.74 1660.88,-346.74"/>
</a>
</g>
<text text-anchor="middle" x="1391.68" y="-346.5" font-family="Helvetica,sans-Serif" font-size="10.00" fill="grey"> activeWinPosPreview</text>
</g>
<!-- Node19&#45;&gt;Node18 -->
<g id="edge25_Node000018_Node000019" class="edge">
<title>Node19&#45;&gt;Node18</title>
<g id="a_edge25_Node000018_Node000019"><a xlink:title=" ">
<path fill="none" stroke="#9a32cd" stroke-dasharray="5,2" d="M1593.35,-288.96C1613.16,-293.5 1635.03,-298.98 1654.8,-305 1681,-312.98 1710.21,-324.32 1730.33,-332.54"/>
<polygon fill="#9a32cd" stroke="#9a32cd" points="1594.27,-285.58 1583.75,-286.81 1592.73,-292.41 1594.27,-285.58"/>
</a>
</g>
<text text-anchor="middle" x="1637.18" y="-319.5" font-family="Helvetica,sans-Serif" font-size="10.00" fill="grey"> dummy</text>
<text text-anchor="middle" x="1637.18" y="-307.5" font-family="Helvetica,sans-Serif" font-size="10.00" fill="grey">ptr</text>
</g>
<!-- Node20&#45;&gt;Node19 -->
<g id="edge28_Node000019_Node000020" class="edge">
<title>Node20&#45;&gt;Node19</title>
<g id="a_edge28_Node000019_Node000020"><a xlink:title=" ">
<path fill="none" stroke="#9a32cd" stroke-dasharray="5,2" d="M1337.37,-226.14C1369.37,-228.63 1406.42,-233.07 1439.3,-241 1463.22,-246.77 1489.27,-257.56 1506.99,-265.65"/>
<polygon fill="#9a32cd" stroke="#9a32cd" points="1338.01,-222.68 1327.79,-225.45 1337.51,-229.66 1338.01,-222.68"/>
</a>
</g>
<text text-anchor="middle" x="1391.68" y="-243.5" font-family="Helvetica,sans-Serif" font-size="10.00" fill="grey"> monitorPreview</text>
</g>
<!-- Node21&#45;&gt;Node20 -->
<g id="edge30_Node000020_Node000021" class="edge">
<title>Node21&#45;&gt;Node20</title>
<g id="a_edge30_Node000020_Node000021"><a xlink:title=" ">
<path fill="none" stroke="orange" stroke-dasharray="5,2" d="M325.13,-7.27C380.7,-4.95 465.97,-2 540.05,-2 540.05,-2 540.05,-2 979.43,-2 1110.63,-2 1215.3,-155.71 1246.44,-206.75"/>
<polygon fill="orange" stroke="orange" points="325.09,-3.76 315.25,-7.69 325.39,-10.76 325.09,-3.76"/>
</a>
</g>
<text text-anchor="middle" x="691.8" y="-4.5" font-family="Helvetica,sans-Serif" font-size="10.00" fill="grey"> &lt; WinPosWnd::MonitorPreview &gt;</text>
</g>
<!-- Node22 -->
<g id="Node000022" class="node">
<title>Node22</title>
<g id="a_Node000022"><a xlink:title=" ">
<polygon fill="white" stroke="#666666" points="416.18,-166 379.18,-166 379.18,-146 416.18,-146 416.18,-166"/>
<text text-anchor="middle" x="397.68" y="-152.5" font-family="Helvetica,sans-Serif" font-size="10.00">UINT</text>
</a>
</g>
</g>
<!-- Node22&#45;&gt;Node1 -->
<g id="edge36_Node000001_Node000022" class="edge">
<title>Node22&#45;&gt;Node1</title>
<g id="a_edge36_Node000001_Node000022"><a xlink:title=" ">
<path fill="none" stroke="#9a32cd" stroke-dasharray="5,2" d="M427.89,-156.49C467.21,-157.43 539.28,-160.15 600.3,-168 618.89,-170.39 639.39,-174.36 656.17,-177.96"/>
<polygon fill="#9a32cd" stroke="#9a32cd" points="428.14,-152.99 418.07,-156.28 427.99,-159.99 428.14,-152.99"/>
</a>
</g>
<text text-anchor="middle" x="541.05" y="-170.5" font-family="Helvetica,sans-Serif" font-size="10.00" fill="grey"> _closeTimeout</text>
</g>
<!-- Node23 -->
<g id="Node000023" class="node">
<title>Node23</title>
<g id="a_Node000023"><a xlink:title=" ">
<polygon fill="white" stroke="#666666" points="421.05,-242 374.3,-242 374.3,-222 421.05,-222 421.05,-242"/>
<text text-anchor="middle" x="397.68" y="-228.5" font-family="Helvetica,sans-Serif" font-size="10.00">FLOAT</text>
</a>
</g>
</g>
<!-- Node23&#45;&gt;Node1 -->
<g id="edge37_Node000001_Node000023" class="edge">
<title>Node23&#45;&gt;Node1</title>
<g id="a_edge37_Node000001_Node000023"><a xlink:title=" ">
<path fill="none" stroke="#9a32cd" stroke-dasharray="5,2" d="M432.15,-226.73C488.07,-217.92 599.87,-200.32 656.39,-191.42"/>
<polygon fill="#9a32cd" stroke="#9a32cd" points="431.94,-223.22 422.61,-228.23 433.03,-230.13 431.94,-223.22"/>
</a>
</g>
<text text-anchor="middle" x="541.05" y="-220.5" font-family="Helvetica,sans-Serif" font-size="10.00" fill="grey"> _scale</text>
</g>
</g>
</svg>
