<?xml version="1.0" encoding="UTF-8" standalone="no"?>
<!DOCTYPE svg PUBLIC "-//W3C//DTD SVG 1.1//EN"
 "http://www.w3.org/Graphics/SVG/1.1/DTD/svg11.dtd">
<!-- Generated by graphviz version 9.0.0 (20230911.1827)
 -->
<!-- Title: WinPosWndCfg::getCloseTimeout Pages: 1 -->
<svg width="1762pt" height="75pt"
 viewBox="0.00 0.00 1762.25 75.00" xmlns="http://www.w3.org/2000/svg" xmlns:xlink="http://www.w3.org/1999/xlink">
<g id="graph0" class="graph" transform="scale(1 1) rotate(0) translate(4 71)">
<title>WinPosWndCfg::getCloseTimeout</title>
<!-- Node1 -->
<g id="Node000001" class="node">
<title>Node1</title>
<g id="a_Node000001"><a xlink:title=" ">
<polygon fill="#999999" stroke="#666666" points="1754.25,-48 1590.5,-48 1590.5,-28 1754.25,-28 1754.25,-48"/>
<text text-anchor="middle" x="1672.38" y="-34.5" font-family="Helvetica,sans-Serif" font-size="10.00">WinPosWndCfg::getCloseTimeout</text>
</a>
</g>
</g>
<!-- Node2 -->
<g id="Node000002" class="node">
<title>Node2</title>
<g id="a_Node000002"><a xlink:href="class_win_pos_wnd.html#abec2e67db5543a717d59b02ab8dbb930" target="_top" xlink:title="create the required windows for monitor preview and all configured positions">
<polygon fill="white" stroke="#666666" points="1207.5,-48 1103.75,-48 1103.75,-28 1207.5,-28 1207.5,-48"/>
<text text-anchor="middle" x="1155.62" y="-34.5" font-family="Helvetica,sans-Serif" font-size="10.00">WinPosWnd::create</text>
</a>
</g>
</g>
<!-- Node1&#45;&gt;Node2 -->
<g id="edge1_Node000001_Node000002" class="edge">
<title>Node1&#45;&gt;Node2</title>
<g id="a_edge1_Node000001_Node000002"><a xlink:title=" ">
<path fill="none" stroke="#63b8ff" d="M1578.7,-43.83C1491.99,-48.36 1358.9,-52.96 1243.5,-47 1231.84,-46.4 1219.33,-45.34 1207.55,-44.16"/>
<polygon fill="#63b8ff" stroke="#63b8ff" points="1578.78,-47.33 1588.58,-43.3 1578.41,-40.34 1578.78,-47.33"/>
</a>
</g>
</g>
<!-- Node13 -->
<g id="Node000013" class="node">
<title>Node13</title>
<g id="a_Node000013"><a xlink:href="class_win_pos_wnd_cfg.html#a2e024dd316be8cf377996f7be3017acd" target="_top" xlink:title=" ">
<polygon fill="white" stroke="#666666" points="1554.5,-29 1416.25,-29 1416.25,-9 1554.5,-9 1554.5,-29"/>
<text text-anchor="middle" x="1485.38" y="-15.5" font-family="Helvetica,sans-Serif" font-size="10.00">WinPosWndCfg::writeConfig</text>
</a>
</g>
</g>
<!-- Node1&#45;&gt;Node13 -->
<g id="edge13_Node000001_Node000013" class="edge">
<title>Node1&#45;&gt;Node13</title>
<g id="a_edge13_Node000001_Node000013"><a xlink:title=" ">
<path fill="none" stroke="#63b8ff" d="M1578.8,-28.49C1570.69,-27.66 1562.59,-26.83 1554.73,-26.02"/>
<polygon fill="#63b8ff" stroke="#63b8ff" points="1578.42,-31.97 1588.73,-29.51 1579.14,-25.01 1578.42,-31.97"/>
</a>
</g>
</g>
<!-- Node3 -->
<g id="Node000003" class="node">
<title>Node3</title>
<g id="a_Node000003"><a xlink:href="class_hooks_impl.html#ab6696c1ccc12ebdd892883485456ed3c" target="_top" xlink:title=" ">
<polygon fill="white" stroke="#666666" points="1067.75,-48 928,-48 928,-28 1067.75,-28 1067.75,-48"/>
<text text-anchor="middle" x="997.88" y="-34.5" font-family="Helvetica,sans-Serif" font-size="10.00">HooksImpl::onShowPosWnd</text>
</a>
</g>
</g>
<!-- Node2&#45;&gt;Node3 -->
<g id="edge2_Node000002_Node000003" class="edge">
<title>Node2&#45;&gt;Node3</title>
<g id="a_edge2_Node000002_Node000003"><a xlink:title=" ">
<path fill="none" stroke="#63b8ff" d="M1092.21,-38C1084.28,-38 1076.12,-38 1068.1,-38"/>
<polygon fill="#63b8ff" stroke="#63b8ff" points="1092.11,-41.5 1102.11,-38 1092.11,-34.5 1092.11,-41.5"/>
</a>
</g>
</g>
<!-- Node4 -->
<g id="Node000004" class="node">
<title>Node4</title>
<g id="a_Node000004"><a xlink:href="class_hooks_impl.html#a07053e18c49265e300fe89b2a5bc28de" target="_top" xlink:title="here the Windows messages are picked up, which do not appear in the main message loop">
<polygon fill="white" stroke="#666666" points="723,-48 602.75,-48 602.75,-28 723,-28 723,-48"/>
<text text-anchor="middle" x="662.88" y="-34.5" font-family="Helvetica,sans-Serif" font-size="10.00">HooksImpl::getMsgProc</text>
</a>
</g>
</g>
<!-- Node3&#45;&gt;Node4 -->
<g id="edge3_Node000003_Node000004" class="edge">
<title>Node3&#45;&gt;Node4</title>
<g id="a_edge3_Node000003_Node000004"><a xlink:title=" ">
<path fill="none" stroke="#63b8ff" d="M916.63,-38C857.08,-38 777.2,-38 723.31,-38"/>
<polygon fill="#63b8ff" stroke="#63b8ff" points="916.36,-41.5 926.36,-38 916.36,-34.5 916.36,-41.5"/>
</a>
</g>
</g>
<!-- Node12 -->
<g id="Node000012" class="node">
<title>Node12</title>
<g id="a_Node000012"><a xlink:href="class_hooks_impl.html#ae0d26e76e300b5392e64fb070aafe8d5" target="_top" xlink:title="do the work, if necessary">
<polygon fill="white" stroke="#666666" points="892,-29 759,-29 759,-9 892,-9 892,-29"/>
<text text-anchor="middle" x="825.5" y="-15.5" font-family="Helvetica,sans-Serif" font-size="10.00">HooksImpl::onCaptionClick</text>
</a>
</g>
</g>
<!-- Node3&#45;&gt;Node12 -->
<g id="edge11_Node000003_Node000012" class="edge">
<title>Node3&#45;&gt;Node12</title>
<g id="a_edge11_Node000003_Node000012"><a xlink:title=" ">
<path fill="none" stroke="#63b8ff" d="M916.33,-29.02C908.32,-28.12 900.26,-27.23 892.43,-26.35"/>
<polygon fill="#63b8ff" stroke="#63b8ff" points="915.75,-32.47 926.07,-30.1 916.52,-25.52 915.75,-32.47"/>
</a>
</g>
</g>
<!-- Node5 -->
<g id="Node000005" class="node">
<title>Node5</title>
<g id="a_Node000005"><a xlink:href="_hooks_impl_8cpp.html#ab9f4b48939788d5aa0f404323b16a957" target="_top" xlink:title="the exported hook for the windows&#45;message procedure">
<polygon fill="white" stroke="#666666" points="566.75,-48 496,-48 496,-28 566.75,-28 566.75,-48"/>
<text text-anchor="middle" x="531.38" y="-34.5" font-family="Helvetica,sans-Serif" font-size="10.00">GetMsgProc</text>
</a>
</g>
</g>
<!-- Node4&#45;&gt;Node5 -->
<g id="edge4_Node000004_Node000005" class="edge">
<title>Node4&#45;&gt;Node5</title>
<g id="a_edge4_Node000004_Node000005"><a xlink:title=" ">
<path fill="none" stroke="#63b8ff" d="M591.07,-38C582.75,-38 574.58,-38 567.09,-38"/>
<polygon fill="#63b8ff" stroke="#63b8ff" points="590.92,-41.5 600.92,-38 590.92,-34.5 590.92,-41.5"/>
</a>
</g>
</g>
<!-- Node6 -->
<g id="Node000006" class="node">
<title>Node6</title>
<g id="a_Node000006"><a xlink:href="class_hooks_mgr.html#a7cfb009127366d7236f5c05c2e4f9ab3" target="_top" xlink:title=" ">
<polygon fill="white" stroke="#666666" points="452.12,-67 360.38,-67 360.38,-47 452.12,-47 452.12,-67"/>
<text text-anchor="middle" x="406.25" y="-53.5" font-family="Helvetica,sans-Serif" font-size="10.00">HooksMgr::install</text>
</a>
</g>
</g>
<!-- Node5&#45;&gt;Node6 -->
<g id="edge5_Node000005_Node000006" class="edge">
<title>Node5&#45;&gt;Node6</title>
<g id="a_edge5_Node000005_Node000006"><a xlink:title=" ">
<path fill="none" stroke="#63b8ff" d="M484.59,-45.07C474,-46.7 462.75,-48.44 452.2,-50.06"/>
<polygon fill="#63b8ff" stroke="#63b8ff" points="484.91,-48.56 494.25,-43.57 483.84,-41.64 484.91,-48.56"/>
</a>
</g>
</g>
<!-- Node10 -->
<g id="Node000010" class="node">
<title>Node10</title>
<g id="a_Node000010"><a xlink:href="class_hooks_mgr.html#a25aacc981b80470642a51175ee56ba01" target="_top" xlink:title=" ">
<polygon fill="white" stroke="#666666" points="460,-29 352.5,-29 352.5,-9 460,-9 460,-29"/>
<text text-anchor="middle" x="406.25" y="-15.5" font-family="Helvetica,sans-Serif" font-size="10.00">HooksMgr::setHooks</text>
</a>
</g>
</g>
<!-- Node5&#45;&gt;Node10 -->
<g id="edge9_Node000005_Node000010" class="edge">
<title>Node5&#45;&gt;Node10</title>
<g id="a_edge9_Node000005_Node000010"><a xlink:title=" ">
<path fill="none" stroke="#63b8ff" d="M484.58,-30.93C476.72,-29.72 468.51,-28.45 460.48,-27.21"/>
<polygon fill="#63b8ff" stroke="#63b8ff" points="483.84,-34.36 494.25,-32.43 484.91,-27.44 483.84,-34.36"/>
</a>
</g>
</g>
<!-- Node7 -->
<g id="Node000007" class="node">
<title>Node7</title>
<g id="a_Node000007"><a xlink:href="wi_npo_s-_app_8cpp.html#a30a1e3b0304f1b083637664cbda94e72" target="_top" xlink:title="the main window procedure of this app">
<polygon fill="white" stroke="#666666" points="298.12,-67 241.62,-67 241.62,-47 298.12,-47 298.12,-67"/>
<text text-anchor="middle" x="269.88" y="-53.5" font-family="Helvetica,sans-Serif" font-size="10.00">WndProc</text>
</a>
</g>
</g>
<!-- Node6&#45;&gt;Node7 -->
<g id="edge6_Node000006_Node000007" class="edge">
<title>Node6&#45;&gt;Node7</title>
<g id="a_edge6_Node000006_Node000007"><a xlink:title=" ">
<path fill="none" stroke="#63b8ff" d="M348.87,-57C331.44,-57 313.01,-57 298.45,-57"/>
<polygon fill="#63b8ff" stroke="#63b8ff" points="348.62,-60.5 358.62,-57 348.62,-53.5 348.62,-60.5"/>
</a>
</g>
</g>
<!-- Node8 -->
<g id="Node000008" class="node">
<title>Node8</title>
<g id="a_Node000008"><a xlink:href="wi_npo_s-_app_8cpp.html#aa0d0c9beb94350f8eac8fc4026a65375" target="_top" xlink:title=" ">
<polygon fill="white" stroke="#666666" points="187.25,-67 97,-67 97,-47 187.25,-47 187.25,-67"/>
<text text-anchor="middle" x="142.12" y="-53.5" font-family="Helvetica,sans-Serif" font-size="10.00">MyRegisterClass</text>
</a>
</g>
</g>
<!-- Node7&#45;&gt;Node8 -->
<g id="edge7_Node000007_Node000008" class="edge">
<title>Node7&#45;&gt;Node8</title>
<g id="a_edge7_Node000007_Node000008"><a xlink:title=" ">
<path fill="none" stroke="#63b8ff" d="M229.97,-57C216.51,-57 201.32,-57 187.46,-57"/>
<polygon fill="#63b8ff" stroke="#63b8ff" points="229.77,-60.5 239.77,-57 229.77,-53.5 229.77,-60.5"/>
</a>
</g>
</g>
<!-- Node9 -->
<g id="Node000009" class="node">
<title>Node9</title>
<g id="a_Node000009"><a xlink:href="wi_npo_s-_app_8cpp.html#a8c6630df6bab43efe8254a603885b62e" target="_top" xlink:title=" ">
<polygon fill="white" stroke="#666666" points="61,-67 0,-67 0,-47 61,-47 61,-67"/>
<text text-anchor="middle" x="30.5" y="-53.5" font-family="Helvetica,sans-Serif" font-size="10.00">wWinMain</text>
</a>
</g>
</g>
<!-- Node8&#45;&gt;Node9 -->
<g id="edge8_Node000008_Node000009" class="edge">
<title>Node8&#45;&gt;Node9</title>
<g id="a_edge8_Node000008_Node000009"><a xlink:title=" ">
<path fill="none" stroke="#63b8ff" d="M85.3,-57C77.02,-57 68.77,-57 61.31,-57"/>
<polygon fill="#63b8ff" stroke="#63b8ff" points="85.02,-60.5 95.02,-57 85.02,-53.5 85.02,-60.5"/>
</a>
</g>
</g>
<!-- Node11 -->
<g id="Node000011" class="node">
<title>Node11</title>
<g id="a_Node000011"><a xlink:href="class_hooks_mgr.html#a5f8aa4cd119cb5d489b0a6f1a2971a79" target="_top" xlink:title=" ">
<polygon fill="white" stroke="#666666" points="316.5,-29 223.25,-29 223.25,-9 316.5,-9 316.5,-29"/>
<text text-anchor="middle" x="269.88" y="-15.5" font-family="Helvetica,sans-Serif" font-size="10.00">HooksMgr::attach</text>
</a>
</g>
</g>
<!-- Node10&#45;&gt;Node11 -->
<g id="edge10_Node000010_Node000011" class="edge">
<title>Node10&#45;&gt;Node11</title>
<g id="a_edge10_Node000010_Node000011"><a xlink:title=" ">
<path fill="none" stroke="#63b8ff" d="M340.73,-19C332.59,-19 324.41,-19 316.65,-19"/>
<polygon fill="#63b8ff" stroke="#63b8ff" points="340.63,-22.5 350.63,-19 340.63,-15.5 340.63,-22.5"/>
</a>
</g>
</g>
<!-- Node12&#45;&gt;Node4 -->
<g id="edge12_Node000012_Node000004" class="edge">
<title>Node12&#45;&gt;Node4</title>
<g id="a_edge12_Node000012_Node000004"><a xlink:title=" ">
<path fill="none" stroke="#63b8ff" d="M747.37,-28.12C739.31,-29.08 731.2,-30.04 723.38,-30.96"/>
<polygon fill="#63b8ff" stroke="#63b8ff" points="747.68,-31.61 757.2,-26.96 746.86,-24.66 747.68,-31.61"/>
</a>
</g>
</g>
<!-- Node14 -->
<g id="Node000014" class="node">
<title>Node14</title>
<g id="a_Node000014"><a xlink:href="class_win_pos_wnd_cfg.html#a038475d40481960d701d09f6e39467c8" target="_top" xlink:title=" ">
<polygon fill="white" stroke="#666666" points="1380.25,-20 1243.5,-20 1243.5,0 1380.25,0 1380.25,-20"/>
<text text-anchor="middle" x="1311.88" y="-6.5" font-family="Helvetica,sans-Serif" font-size="10.00">WinPosWndCfg::readConfig</text>
</a>
</g>
</g>
<!-- Node13&#45;&gt;Node14 -->
<g id="edge14_Node000013_Node000014" class="edge">
<title>Node13&#45;&gt;Node14</title>
<g id="a_edge14_Node000013_Node000014"><a xlink:title=" ">
<path fill="none" stroke="#63b8ff" d="M1404.77,-14.82C1396.7,-14.4 1388.56,-13.97 1380.63,-13.56"/>
<polygon fill="#63b8ff" stroke="#63b8ff" points="1404.42,-18.31 1414.59,-15.34 1404.79,-11.32 1404.42,-18.31"/>
</a>
</g>
</g>
<!-- Node14&#45;&gt;Node2 -->
<g id="edge15_Node000014_Node000002" class="edge">
<title>Node14&#45;&gt;Node2</title>
<g id="a_edge15_Node000014_Node000002"><a xlink:title=" ">
<path fill="none" stroke="#63b8ff" d="M1242.4,-22.43C1230.76,-24.54 1218.85,-26.7 1207.76,-28.72"/>
<polygon fill="#63b8ff" stroke="#63b8ff" points="1242.73,-25.93 1251.95,-20.7 1241.48,-19.04 1242.73,-25.93"/>
</a>
</g>
</g>
<!-- Node14&#45;&gt;Node14 -->
<g id="edge16_Node000014_Node000014" class="edge">
<title>Node14&#45;&gt;Node14</title>
<g id="a_edge16_Node000014_Node000014"><a xlink:title=" ">
<path fill="none" stroke="#63b8ff" d="M1339.49,-31.44C1335.93,-35.3 1326.73,-38 1311.88,-38 1284.71,-38 1276.44,-28.98 1287.05,-20.34"/>
<polygon fill="#63b8ff" stroke="#63b8ff" points="1342.9,-30.65 1337.07,-21.81 1336.11,-32.36 1342.9,-30.65"/>
</a>
</g>
</g>
</g>
</svg>
