<?xml version="1.0" encoding="UTF-8" standalone="no"?>
<!DOCTYPE svg PUBLIC "-//W3C//DTD SVG 1.1//EN"
 "http://www.w3.org/Graphics/SVG/1.1/DTD/svg11.dtd">
<!-- Generated by graphviz version 9.0.0 (20230911.1827)
 -->
<!-- Title: HooksCfg::isDisabled Pages: 1 -->
<svg width="730pt" height="125pt"
 viewBox="0.00 0.00 729.50 125.31" xmlns="http://www.w3.org/2000/svg" xmlns:xlink="http://www.w3.org/1999/xlink">
<g id="graph0" class="graph" transform="scale(1 1) rotate(0) translate(4 121.31)">
<title>HooksCfg::isDisabled</title>
<!-- Node1 -->
<g id="Node000001" class="node">
<title>Node1</title>
<g id="a_Node000001"><a xlink:title="check if someone has disabled stored in config">
<polygon fill="#999999" stroke="#666666" points="721.5,-77 612.5,-77 612.5,-57 721.5,-57 721.5,-77"/>
<text text-anchor="middle" x="667" y="-63.5" font-family="Helvetica,sans-Serif" font-size="10.00">HooksCfg::isDisabled</text>
</a>
</g>
</g>
<!-- Node2 -->
<g id="Node000002" class="node">
<title>Node2</title>
<g id="a_Node000002"><a xlink:href="_hooks_impl_8cpp.html#adae4ff67fba416ac992fe973d90abc58" target="_top" xlink:title="the exported hook for the main window procedure">
<polygon fill="white" stroke="#666666" points="572.75,-96 499.75,-96 499.75,-76 572.75,-76 572.75,-96"/>
<text text-anchor="middle" x="536.25" y="-82.5" font-family="Helvetica,sans-Serif" font-size="10.00">CallWndProc</text>
</a>
</g>
</g>
<!-- Node1&#45;&gt;Node2 -->
<g id="edge1_Node000001_Node000002" class="edge">
<title>Node1&#45;&gt;Node2</title>
<g id="a_edge1_Node000001_Node000002"><a xlink:title=" ">
<path fill="none" stroke="#63b8ff" d="M600.89,-76.61C591.26,-78.03 581.66,-79.45 572.94,-80.73"/>
<polygon fill="#63b8ff" stroke="#63b8ff" points="601.27,-80.09 610.65,-75.17 600.24,-73.17 601.27,-80.09"/>
</a>
</g>
</g>
<!-- Node4 -->
<g id="Node000004" class="node">
<title>Node4</title>
<g id="a_Node000004"><a xlink:href="wi_npo_s-_app_8cpp.html#a30a1e3b0304f1b083637664cbda94e72" target="_top" xlink:title="the main window procedure of this app">
<polygon fill="white" stroke="#666666" points="298.12,-115 241.62,-115 241.62,-95 298.12,-95 298.12,-115"/>
<text text-anchor="middle" x="269.88" y="-101.5" font-family="Helvetica,sans-Serif" font-size="10.00">WndProc</text>
</a>
</g>
</g>
<!-- Node1&#45;&gt;Node4 -->
<g id="edge13_Node000001_Node000004" class="edge">
<title>Node1&#45;&gt;Node4</title>
<g id="a_edge13_Node000001_Node000004"><a xlink:title=" ">
<path fill="none" stroke="#63b8ff" d="M637.6,-82.53C620.46,-91.01 597.87,-100.65 576.5,-105 475.63,-125.53 352.13,-114.94 298.22,-108.61"/>
<polygon fill="#63b8ff" stroke="#63b8ff" points="638.86,-85.82 646.16,-78.15 635.67,-79.59 638.86,-85.82"/>
</a>
</g>
</g>
<!-- Node9 -->
<g id="Node000009" class="node">
<title>Node9</title>
<g id="a_Node000009"><a xlink:href="_hooks_impl_8cpp.html#ab9f4b48939788d5aa0f404323b16a957" target="_top" xlink:title="the exported hook for the windows&#45;message procedure">
<polygon fill="white" stroke="#666666" points="571.62,-58 500.88,-58 500.88,-38 571.62,-38 571.62,-58"/>
<text text-anchor="middle" x="536.25" y="-44.5" font-family="Helvetica,sans-Serif" font-size="10.00">GetMsgProc</text>
</a>
</g>
</g>
<!-- Node1&#45;&gt;Node9 -->
<g id="edge8_Node000001_Node000009" class="edge">
<title>Node1&#45;&gt;Node9</title>
<g id="a_edge8_Node000001_Node000009"><a xlink:title=" ">
<path fill="none" stroke="#63b8ff" d="M600.86,-57.39C590.83,-55.91 580.82,-54.43 571.81,-53.1"/>
<polygon fill="#63b8ff" stroke="#63b8ff" points="600.24,-60.83 610.65,-58.83 601.27,-53.91 600.24,-60.83"/>
</a>
</g>
</g>
<!-- Node10 -->
<g id="Node000010" class="node">
<title>Node10</title>
<g id="a_Node000010"><a xlink:href="_hooks_impl_8cpp.html#a2d95eeaf5ead86287ab88b2065c28d1a" target="_top" xlink:title="the exported hook for the shell procedure">
<polygon fill="white" stroke="#666666" points="576.5,-20 496,-20 496,0 576.5,0 576.5,-20"/>
<text text-anchor="middle" x="536.25" y="-6.5" font-family="Helvetica,sans-Serif" font-size="10.00">ShellHookProc</text>
</a>
</g>
</g>
<!-- Node1&#45;&gt;Node10 -->
<g id="edge11_Node000001_Node000010" class="edge">
<title>Node1&#45;&gt;Node10</title>
<g id="a_edge11_Node000001_Node000010"><a xlink:title=" ">
<path fill="none" stroke="#63b8ff" d="M631.94,-51.92C609.48,-41.98 580.63,-29.21 560.72,-20.39"/>
<polygon fill="#63b8ff" stroke="#63b8ff" points="630.44,-55.08 641,-55.93 633.27,-48.68 630.44,-55.08"/>
</a>
</g>
</g>
<!-- Node3 -->
<g id="Node000003" class="node">
<title>Node3</title>
<g id="a_Node000003"><a xlink:href="class_hooks_mgr.html#a7cfb009127366d7236f5c05c2e4f9ab3" target="_top" xlink:title=" ">
<polygon fill="white" stroke="#666666" points="452.12,-96 360.38,-96 360.38,-76 452.12,-76 452.12,-96"/>
<text text-anchor="middle" x="406.25" y="-82.5" font-family="Helvetica,sans-Serif" font-size="10.00">HooksMgr::install</text>
</a>
</g>
</g>
<!-- Node2&#45;&gt;Node3 -->
<g id="edge2_Node000002_Node000003" class="edge">
<title>Node2&#45;&gt;Node3</title>
<g id="a_edge2_Node000002_Node000003"><a xlink:title=" ">
<path fill="none" stroke="#63b8ff" d="M488,-86C476.42,-86 464.05,-86 452.57,-86"/>
<polygon fill="#63b8ff" stroke="#63b8ff" points="487.74,-89.5 497.74,-86 487.74,-82.5 487.74,-89.5"/>
</a>
</g>
</g>
<!-- Node7 -->
<g id="Node000007" class="node">
<title>Node7</title>
<g id="a_Node000007"><a xlink:href="class_hooks_mgr.html#a25aacc981b80470642a51175ee56ba01" target="_top" xlink:title=" ">
<polygon fill="white" stroke="#666666" points="460,-58 352.5,-58 352.5,-38 460,-38 460,-58"/>
<text text-anchor="middle" x="406.25" y="-44.5" font-family="Helvetica,sans-Serif" font-size="10.00">HooksMgr::setHooks</text>
</a>
</g>
</g>
<!-- Node2&#45;&gt;Node7 -->
<g id="edge6_Node000002_Node000007" class="edge">
<title>Node2&#45;&gt;Node7</title>
<g id="a_edge6_Node000002_Node000007"><a xlink:title=" ">
<path fill="none" stroke="#63b8ff" d="M489.07,-72.29C473.7,-67.73 456.85,-62.72 442.45,-58.45"/>
<polygon fill="#63b8ff" stroke="#63b8ff" points="487.9,-75.59 498.48,-75.08 489.89,-68.88 487.9,-75.59"/>
</a>
</g>
</g>
<!-- Node3&#45;&gt;Node4 -->
<g id="edge3_Node000003_Node000004" class="edge">
<title>Node3&#45;&gt;Node4</title>
<g id="a_edge3_Node000003_Node000004"><a xlink:title=" ">
<path fill="none" stroke="#63b8ff" d="M348.87,-93.97C331.44,-96.44 313.01,-99.04 298.45,-101.1"/>
<polygon fill="#63b8ff" stroke="#63b8ff" points="349.22,-97.46 358.63,-92.59 348.24,-90.53 349.22,-97.46"/>
</a>
</g>
</g>
<!-- Node5 -->
<g id="Node000005" class="node">
<title>Node5</title>
<g id="a_Node000005"><a xlink:href="wi_npo_s-_app_8cpp.html#aa0d0c9beb94350f8eac8fc4026a65375" target="_top" xlink:title=" ">
<polygon fill="white" stroke="#666666" points="187.25,-115 97,-115 97,-95 187.25,-95 187.25,-115"/>
<text text-anchor="middle" x="142.12" y="-101.5" font-family="Helvetica,sans-Serif" font-size="10.00">MyRegisterClass</text>
</a>
</g>
</g>
<!-- Node4&#45;&gt;Node5 -->
<g id="edge4_Node000004_Node000005" class="edge">
<title>Node4&#45;&gt;Node5</title>
<g id="a_edge4_Node000004_Node000005"><a xlink:title=" ">
<path fill="none" stroke="#63b8ff" d="M229.97,-105C216.51,-105 201.32,-105 187.46,-105"/>
<polygon fill="#63b8ff" stroke="#63b8ff" points="229.77,-108.5 239.77,-105 229.77,-101.5 229.77,-108.5"/>
</a>
</g>
</g>
<!-- Node6 -->
<g id="Node000006" class="node">
<title>Node6</title>
<g id="a_Node000006"><a xlink:href="wi_npo_s-_app_8cpp.html#a8c6630df6bab43efe8254a603885b62e" target="_top" xlink:title=" ">
<polygon fill="white" stroke="#666666" points="61,-115 0,-115 0,-95 61,-95 61,-115"/>
<text text-anchor="middle" x="30.5" y="-101.5" font-family="Helvetica,sans-Serif" font-size="10.00">wWinMain</text>
</a>
</g>
</g>
<!-- Node5&#45;&gt;Node6 -->
<g id="edge5_Node000005_Node000006" class="edge">
<title>Node5&#45;&gt;Node6</title>
<g id="a_edge5_Node000005_Node000006"><a xlink:title=" ">
<path fill="none" stroke="#63b8ff" d="M85.3,-105C77.02,-105 68.77,-105 61.31,-105"/>
<polygon fill="#63b8ff" stroke="#63b8ff" points="85.02,-108.5 95.02,-105 85.02,-101.5 85.02,-108.5"/>
</a>
</g>
</g>
<!-- Node8 -->
<g id="Node000008" class="node">
<title>Node8</title>
<g id="a_Node000008"><a xlink:href="class_hooks_mgr.html#a5f8aa4cd119cb5d489b0a6f1a2971a79" target="_top" xlink:title=" ">
<polygon fill="white" stroke="#666666" points="316.5,-58 223.25,-58 223.25,-38 316.5,-38 316.5,-58"/>
<text text-anchor="middle" x="269.88" y="-44.5" font-family="Helvetica,sans-Serif" font-size="10.00">HooksMgr::attach</text>
</a>
</g>
</g>
<!-- Node7&#45;&gt;Node8 -->
<g id="edge7_Node000007_Node000008" class="edge">
<title>Node7&#45;&gt;Node8</title>
<g id="a_edge7_Node000007_Node000008"><a xlink:title=" ">
<path fill="none" stroke="#63b8ff" d="M340.73,-48C332.59,-48 324.41,-48 316.65,-48"/>
<polygon fill="#63b8ff" stroke="#63b8ff" points="340.63,-51.5 350.63,-48 340.63,-44.5 340.63,-51.5"/>
</a>
</g>
</g>
<!-- Node9&#45;&gt;Node3 -->
<g id="edge9_Node000009_Node000003" class="edge">
<title>Node9&#45;&gt;Node3</title>
<g id="a_edge9_Node000009_Node000003"><a xlink:title=" ">
<path fill="none" stroke="#63b8ff" d="M489.63,-61.54C474.08,-66.16 456.95,-71.24 442.36,-75.58"/>
<polygon fill="#63b8ff" stroke="#63b8ff" points="490.57,-64.92 499.16,-58.71 488.58,-58.2 490.57,-64.92"/>
</a>
</g>
</g>
<!-- Node9&#45;&gt;Node7 -->
<g id="edge10_Node000009_Node000007" class="edge">
<title>Node9&#45;&gt;Node7</title>
<g id="a_edge10_Node000009_Node000007"><a xlink:title=" ">
<path fill="none" stroke="#63b8ff" d="M489.1,-48C479.73,-48 469.8,-48 460.21,-48"/>
<polygon fill="#63b8ff" stroke="#63b8ff" points="489.1,-51.5 499.1,-48 489.1,-44.5 489.1,-51.5"/>
</a>
</g>
</g>
<!-- Node11 -->
<g id="Node000011" class="node">
<title>Node11</title>
<g id="a_Node000011"><a xlink:href="wi_npo_s-_hook_2dllmain_8cpp.html#a26e64fb39b69bcd9d1274d279f1561b9" target="_top" xlink:title=" ">
<polygon fill="white" stroke="#666666" points="430.38,-20 382.12,-20 382.12,0 430.38,0 430.38,-20"/>
<text text-anchor="middle" x="406.25" y="-6.5" font-family="Helvetica,sans-Serif" font-size="10.00">DllMain</text>
</a>
</g>
</g>
<!-- Node10&#45;&gt;Node11 -->
<g id="edge12_Node000010_Node000011" class="edge">
<title>Node10&#45;&gt;Node11</title>
<g id="a_edge12_Node000010_Node000011"><a xlink:title=" ">
<path fill="none" stroke="#63b8ff" d="M484.5,-10C465.92,-10 445.8,-10 430.74,-10"/>
<polygon fill="#63b8ff" stroke="#63b8ff" points="484.29,-13.5 494.29,-10 484.29,-6.5 484.29,-13.5"/>
</a>
</g>
</g>
</g>
</svg>
