<?xml version="1.0" encoding="UTF-8" standalone="no"?>
<!DOCTYPE svg PUBLIC "-//W3C//DTD SVG 1.1//EN"
 "http://www.w3.org/Graphics/SVG/1.1/DTD/svg11.dtd">
<!-- Generated by graphviz version 9.0.0 (20230911.1827)
 -->
<!-- Title: HooksMgr::attach Pages: 1 -->
<!--zoomable 553 -->

<svg id="main" version="1.1" xmlns="http://www.w3.org/2000/svg" xmlns:xlink="http://www.w3.org/1999/xlink" xml:space="preserve" onload="init(evt)">
<style type="text/css"><![CDATA[
.node, .edge {opacity: 0.7;}
.node.selected, .edge.selected {opacity: 1;}
.edge:hover path { stroke: red; }
.edge:hover polygon { stroke: red; fill: red; }
]]></style>

<defs>
  <circle id="rim" cx="0" cy="0" r="7"/>
  <circle id="rim2" cx="0" cy="0" r="3.5"/>
  <g id="zoomPlus">
    <use xlink:href="#rim" fill="#404040"><set attributeName="fill" to="#808080" begin="zoomplus.mouseover" end="zoomplus.mouseout"/></use>
    <path d="M-4,0h8M0,-4v8" fill="none" stroke="white" stroke-width="1.5" pointer-events="none"/>
  </g>
  <g id="zoomMin">
    <use xlink:href="#rim" fill="#404040"><set attributeName="fill" to="#808080" begin="zoomminus.mouseover" end="zoomminus.mouseout"/></use>
    <path d="M-4,0h8" fill="none" stroke="white" stroke-width="1.5" pointer-events="none"/>
  </g>
  <g id="arrowUp" transform="translate(30 24)">
    <use xlink:href="#rim"/>
    <path pointer-events="none" fill="none" stroke="white" stroke-width="1.5" d="M0,-3.0v7 M-2.5,-0.5L0,-3.0L2.5,-0.5"/>
  </g>
  <g id="arrowRight" transform="rotate(90) translate(36 -43)">
    <use xlink:href="#rim"/>
    <path pointer-events="none" fill="none" stroke="white" stroke-width="1.5" d="M0,-3.0v7 M-2.5,-0.5L0,-3.0L2.5,-0.5"/>
  </g>
  <g id="arrowDown" transform="rotate(180) translate(-30 -48)">
    <use xlink:href="#rim"/>
    <path pointer-events="none" fill="none" stroke="white" stroke-width="1.5" d="M0,-3.0v7 M-2.5,-0.5L0,-3.0L2.5,-0.5"/>
  </g>
  <g id="arrowLeft" transform="rotate(270) translate(-36 17)">
    <use xlink:href="#rim"/>
    <path pointer-events="none" fill="none" stroke="white" stroke-width="1.5" d="M0,-3.0v7 M-2.5,-0.5L0,-3.0L2.5,-0.5"/>
  </g>
  <g id="resetDef">
    <use xlink:href="#rim2" fill="#404040"><set attributeName="fill" to="#808080" begin="reset.mouseover" end="reset.mouseout"/></use>
  </g>
</defs>
<script type="application/ecmascript">
var viewWidth = 1664;
var viewHeight = 553;
var sectionId = 'dynsection-1';
</script>
<script type="application/ecmascript" xlink:href="svg.min.js"/>
<svg id="graph" class="graph">
<g id="viewport">
<title>HooksMgr::attach</title>
<!-- Node1 -->
<g id="Node000001" class="node">
<title>Node1</title>
<g id="a_Node000001"><a xlink:title=" ">
<polygon fill="#999999" stroke="#666666" points="93.25,-469 0,-469 0,-449 93.25,-449 93.25,-469"/>
<text text-anchor="middle" x="46.62" y="-455.5" font-family="Helvetica,sans-Serif" font-size="10.00">HooksMgr::attach</text>
</a>
</g>
</g>
<!-- Node2 -->
<g id="Node000002" class="node">
<title>Node2</title>
<g id="a_Node000002"><a xlink:href="class_hooks_mgr.html#ae14d3d66665b288a8a22f6beea14774f" target="_top" xlink:title=" ">
<polygon fill="white" stroke="#666666" points="225.12,-488 140.88,-488 140.88,-468 225.12,-468 225.12,-488"/>
<text text-anchor="middle" x="183" y="-474.5" font-family="Helvetica,sans-Serif" font-size="10.00">HooksMgr::load</text>
</a>
</g>
</g>
<!-- Node1&#45;&gt;Node2 -->
<g id="edge1_Node000001_Node000002" class="edge">
<title>Node1&#45;&gt;Node2</title>
<g id="a_edge1_Node000001_Node000002"><a xlink:title=" ">
<path fill="none" stroke="#63b8ff" d="M93.49,-465.49C105.02,-467.11 117.47,-468.88 129.3,-470.55"/>
<polygon fill="#63b8ff" stroke="#63b8ff" points="128.51,-473.97 138.9,-471.91 129.49,-467.04 128.51,-473.97"/>
</a>
</g>
</g>
<!-- Node3 -->
<g id="Node000003" class="node">
<title>Node3</title>
<g id="a_Node000003"><a xlink:href="class_hooks_mgr.html#a25aacc981b80470642a51175ee56ba01" target="_top" xlink:title=" ">
<polygon fill="white" stroke="#666666" points="236.75,-450 129.25,-450 129.25,-430 236.75,-430 236.75,-450"/>
<text text-anchor="middle" x="183" y="-436.5" font-family="Helvetica,sans-Serif" font-size="10.00">HooksMgr::setHooks</text>
</a>
</g>
</g>
<!-- Node1&#45;&gt;Node3 -->
<g id="edge2_Node000001_Node000003" class="edge">
<title>Node1&#45;&gt;Node3</title>
<g id="a_edge2_Node000001_Node000003"><a xlink:title=" ">
<path fill="none" stroke="#63b8ff" d="M93.49,-452.51C101.24,-451.42 109.42,-450.26 117.54,-449.11"/>
<polygon fill="#63b8ff" stroke="#63b8ff" points="118.03,-452.58 127.44,-447.72 117.04,-445.65 118.03,-452.58"/>
</a>
</g>
</g>
<!-- Node4 -->
<g id="Node000004" class="node">
<title>Node4</title>
<g id="a_Node000004"><a xlink:href="_hooks_impl_8cpp.html#adae4ff67fba416ac992fe973d90abc58" target="_top" xlink:title="the exported hook for the main window procedure">
<polygon fill="white" stroke="#666666" points="345.75,-469 272.75,-469 272.75,-449 345.75,-449 345.75,-469"/>
<text text-anchor="middle" x="309.25" y="-455.5" font-family="Helvetica,sans-Serif" font-size="10.00">CallWndProc</text>
</a>
</g>
</g>
<!-- Node3&#45;&gt;Node4 -->
<g id="edge3_Node000003_Node000004" class="edge">
<title>Node3&#45;&gt;Node4</title>
<g id="a_edge3_Node000003_Node000004"><a xlink:title=" ">
<path fill="none" stroke="#63b8ff" d="M237.05,-448.11C245.12,-449.35 253.39,-450.61 261.32,-451.82"/>
<polygon fill="#63b8ff" stroke="#63b8ff" points="260.7,-455.27 271.11,-453.32 261.76,-448.35 260.7,-455.27"/>
</a>
</g>
</g>
<!-- Node14 -->
<g id="Node000014" class="node">
<title>Node14</title>
<g id="a_Node000014"><a xlink:href="_hooks_impl_8cpp.html#ab9f4b48939788d5aa0f404323b16a957" target="_top" xlink:title="the exported hook for the windows&#45;message procedure">
<polygon fill="white" stroke="#666666" points="344.62,-431 273.88,-431 273.88,-411 344.62,-411 344.62,-431"/>
<text text-anchor="middle" x="309.25" y="-417.5" font-family="Helvetica,sans-Serif" font-size="10.00">GetMsgProc</text>
</a>
</g>
</g>
<!-- Node3&#45;&gt;Node14 -->
<g id="edge13_Node000003_Node000014" class="edge">
<title>Node3&#45;&gt;Node14</title>
<g id="a_edge13_Node000003_Node000014"><a xlink:title=" ">
<path fill="none" stroke="#63b8ff" d="M237.05,-431.89C245.48,-430.6 254.14,-429.27 262.38,-428.01"/>
<polygon fill="#63b8ff" stroke="#63b8ff" points="262.85,-431.48 272.2,-426.51 261.79,-424.56 262.85,-431.48"/>
</a>
</g>
</g>
<!-- Node5 -->
<g id="Node000005" class="node">
<title>Node5</title>
<g id="a_Node000005"><a xlink:href="class_hooks_impl.html#a10c087a169c357990bf12340347e2fc0" target="_top" xlink:title="here we follow the main message loop of the application">
<polygon fill="white" stroke="#666666" points="505,-488 381.75,-488 381.75,-468 505,-468 505,-488"/>
<text text-anchor="middle" x="443.38" y="-474.5" font-family="Helvetica,sans-Serif" font-size="10.00">HooksImpl::callWndProc</text>
</a>
</g>
</g>
<!-- Node4&#45;&gt;Node5 -->
<g id="edge4_Node000004_Node000005" class="edge">
<title>Node4&#45;&gt;Node5</title>
<g id="a_edge4_Node000004_Node000005"><a xlink:title=" ">
<path fill="none" stroke="#63b8ff" d="M346,-464.14C353.52,-465.22 361.7,-466.4 370.02,-467.59"/>
<polygon fill="#63b8ff" stroke="#63b8ff" points="369.49,-471.06 379.89,-469.01 370.49,-464.13 369.49,-471.06"/>
</a>
</g>
</g>
<!-- Node9 -->
<g id="Node000009" class="node">
<title>Node9</title>
<g id="a_Node000009"><a xlink:href="class_hooks_cfg.html#ab994ae67a05ce4decf5b7af5314eb913" target="_top" xlink:title="check if someone has disabled stored in config">
<polygon fill="white" stroke="#666666" points="497.88,-450 388.88,-450 388.88,-430 497.88,-430 497.88,-450"/>
<text text-anchor="middle" x="443.38" y="-436.5" font-family="Helvetica,sans-Serif" font-size="10.00">HooksCfg::isDisabled</text>
</a>
</g>
</g>
<!-- Node4&#45;&gt;Node9 -->
<g id="edge8_Node000004_Node000009" class="edge">
<title>Node4&#45;&gt;Node9</title>
<g id="a_edge8_Node000004_Node000009"><a xlink:title=" ">
<path fill="none" stroke="#63b8ff" d="M346,-453.86C355.7,-452.46 366.52,-450.91 377.29,-449.36"/>
<polygon fill="#63b8ff" stroke="#63b8ff" points="377.57,-452.86 386.97,-447.97 376.57,-445.93 377.57,-452.86"/>
</a>
</g>
</g>
<!-- Node6 -->
<g id="Node000006" class="node">
<title>Node6</title>
<g id="a_Node000006"><a xlink:href="class_hooks_impl.html#a1022c4a7b4012228b83b0b89ee790f89" target="_top" xlink:title="here we react to position changes of the main window">
<polygon fill="white" stroke="#666666" points="709.25,-488 541,-488 541,-468 709.25,-468 709.25,-488"/>
<text text-anchor="middle" x="625.12" y="-474.5" font-family="Helvetica,sans-Serif" font-size="10.00">HooksImpl::onWindowPosChanged</text>
</a>
</g>
</g>
<!-- Node5&#45;&gt;Node6 -->
<g id="edge5_Node000005_Node000006" class="edge">
<title>Node5&#45;&gt;Node6</title>
<g id="a_edge5_Node000005_Node000006"><a xlink:title=" ">
<path fill="none" stroke="#63b8ff" d="M505.48,-478C513.16,-478 521.15,-478 529.2,-478"/>
<polygon fill="#63b8ff" stroke="#63b8ff" points="529.07,-481.5 539.07,-478 529.07,-474.5 529.07,-481.5"/>
</a>
</g>
</g>
<!-- Node7 -->
<g id="Node000007" class="node">
<title>Node7</title>
<g id="a_Node000007"><a xlink:href="class_hooks_impl.html#a8ef5405a747979c1f5197848e4a8e684" target="_top" xlink:title=" ">
<polygon fill="white" stroke="#666666" points="888.38,-221 757.62,-221 757.62,-189 888.38,-189 888.38,-221"/>
<text text-anchor="start" x="765.62" y="-207.5" font-family="Helvetica,sans-Serif" font-size="10.00">HooksImpl::hasCaptionDbl</text>
<text text-anchor="middle" x="823" y="-195.5" font-family="Helvetica,sans-Serif" font-size="10.00">Clicked</text>
</a>
</g>
</g>
<!-- Node6&#45;&gt;Node7 -->
<g id="edge6_Node000006_Node000007" class="edge">
<title>Node6&#45;&gt;Node7</title>
<g id="a_edge6_Node000006_Node000007"><a xlink:title=" ">
<path fill="none" stroke="#63b8ff" d="M695.67,-467.53C700.54,-465.2 705.14,-462.39 709.25,-459 781.29,-399.68 808.84,-284.99 818,-232.47"/>
<polygon fill="#63b8ff" stroke="#63b8ff" points="821.41,-233.31 819.57,-222.88 814.5,-232.18 821.41,-233.31"/>
</a>
</g>
</g>
<!-- Node8 -->
<g id="Node000008" class="node">
<title>Node8</title>
<g id="a_Node000008"><a xlink:href="class_hooks_impl.html#a7a48621aa5b57024ae963b861fd508cb" target="_top" xlink:title=" ">
<polygon fill="white" stroke="#666666" points="884.25,-466 761.75,-466 761.75,-446 884.25,-446 884.25,-466"/>
<text text-anchor="middle" x="823" y="-452.5" font-family="Helvetica,sans-Serif" font-size="10.00">HooksImpl::hasLastRect</text>
</a>
</g>
</g>
<!-- Node6&#45;&gt;Node8 -->
<g id="edge7_Node000006_Node000008" class="edge">
<title>Node6&#45;&gt;Node8</title>
<g id="a_edge7_Node000006_Node000008"><a xlink:title=" ">
<path fill="none" stroke="#63b8ff" d="M709.48,-468.64C722.93,-467.13 736.75,-465.57 749.91,-464.1"/>
<polygon fill="#63b8ff" stroke="#63b8ff" points="750.22,-467.58 759.76,-462.99 749.44,-460.63 750.22,-467.58"/>
</a>
</g>
</g>
<!-- Node10 -->
<g id="Node000010" class="node">
<title>Node10</title>
<g id="a_Node000010"><a xlink:href="class_hooks_cfg.html#a9642afc6c6fe88141770403a09cdfc4b" target="_top" xlink:title="read the global config for all apps">
<polygon fill="white" stroke="#666666" points="680,-526 570.25,-526 570.25,-506 680,-506 680,-526"/>
<text text-anchor="middle" x="625.12" y="-512.5" font-family="Helvetica,sans-Serif" font-size="10.00">HooksCfg::readConfig</text>
</a>
</g>
</g>
<!-- Node9&#45;&gt;Node10 -->
<g id="edge9_Node000009_Node000010" class="edge">
<title>Node9&#45;&gt;Node10</title>
<g id="a_edge9_Node000009_Node000010"><a xlink:title=" ">
<path fill="none" stroke="#63b8ff" d="M487.34,-450.44C493.49,-452.78 499.57,-455.61 505,-459 524.73,-471.32 520.79,-485.47 541,-497 546.68,-500.24 552.88,-502.93 559.25,-505.16"/>
<polygon fill="#63b8ff" stroke="#63b8ff" points="558.03,-508.45 568.62,-508.05 560.09,-501.76 558.03,-508.45"/>
</a>
</g>
</g>
<!-- Node11 -->
<g id="Node000011" class="node">
<title>Node11</title>
<g id="a_Node000011"><a xlink:href="class_hooks_cfg.html#a808e4e4a7bc43b89c87ef172fa8caf6a" target="_top" xlink:title="the path to the global config, for all apps">
<polygon fill="white" stroke="#666666" points="885.38,-507 760.62,-507 760.62,-487 885.38,-487 885.38,-507"/>
<text text-anchor="middle" x="823" y="-493.5" font-family="Helvetica,sans-Serif" font-size="10.00">HooksCfg::getConfigPath</text>
</a>
</g>
</g>
<!-- Node10&#45;&gt;Node11 -->
<g id="edge10_Node000010_Node000011" class="edge">
<title>Node10&#45;&gt;Node11</title>
<g id="a_edge10_Node000010_Node000011"><a xlink:title=" ">
<path fill="none" stroke="#63b8ff" d="M680.43,-510.73C701.64,-508.68 726.28,-506.28 749.01,-504.08"/>
<polygon fill="#63b8ff" stroke="#63b8ff" points="749.21,-507.58 758.83,-503.13 748.54,-500.61 749.21,-507.58"/>
</a>
</g>
</g>
<!-- Node13 -->
<g id="Node000013" class="node">
<title>Node13</title>
<g id="a_Node000013"><a xlink:href="class_hooks_cfg.html#ab8fd861156e6b389e43bbda021f42c50" target="_top" xlink:title="read a JSON config from given path">
<polygon fill="white" stroke="#666666" points="900,-545 746,-545 746,-525 900,-525 900,-545"/>
<text text-anchor="middle" x="823" y="-531.5" font-family="Helvetica,sans-Serif" font-size="10.00">HooksCfg::readConfigDocument</text>
</a>
</g>
</g>
<!-- Node10&#45;&gt;Node13 -->
<g id="edge12_Node000010_Node000013" class="edge">
<title>Node10&#45;&gt;Node13</title>
<g id="a_edge12_Node000010_Node000013"><a xlink:title=" ">
<path fill="none" stroke="#63b8ff" d="M680.43,-521.27C697.12,-522.89 715.93,-524.71 734.26,-526.49"/>
<polygon fill="#63b8ff" stroke="#63b8ff" points="733.79,-529.96 744.08,-527.44 734.47,-522.99 733.79,-529.96"/>
</a>
</g>
</g>
<!-- Node12 -->
<g id="Node000012" class="node">
<title>Node12</title>
<g id="a_Node000012"><a xlink:href="class_hooks_cfg.html#a437c5768d5246cf980d1be5ea6f272c6" target="_top" xlink:title="the directory, where store the configs and logs">
<polygon fill="white" stroke="#666666" points="1065.25,-507 948.75,-507 948.75,-487 1065.25,-487 1065.25,-507"/>
<text text-anchor="middle" x="1007" y="-493.5" font-family="Helvetica,sans-Serif" font-size="10.00">HooksCfg::getConfigDir</text>
</a>
</g>
</g>
<!-- Node11&#45;&gt;Node12 -->
<g id="edge11_Node000011_Node000012" class="edge">
<title>Node11&#45;&gt;Node12</title>
<g id="a_edge11_Node000011_Node000012"><a xlink:title=" ">
<path fill="none" stroke="#63b8ff" d="M885.87,-497C902.28,-497 920.11,-497 936.88,-497"/>
<polygon fill="#63b8ff" stroke="#63b8ff" points="936.77,-500.5 946.77,-497 936.77,-493.5 936.77,-500.5"/>
</a>
</g>
</g>
<!-- Node14&#45;&gt;Node9 -->
<g id="edge56_Node000014_Node000009" class="edge">
<title>Node14&#45;&gt;Node9</title>
<g id="a_edge56_Node000014_Node000009"><a xlink:title=" ">
<path fill="none" stroke="#63b8ff" d="M344.96,-425.99C354.94,-427.43 366.16,-429.04 377.34,-430.65"/>
<polygon fill="#63b8ff" stroke="#63b8ff" points="376.57,-434.07 386.96,-432.03 377.56,-427.14 376.57,-434.07"/>
</a>
</g>
</g>
<!-- Node15 -->
<g id="Node000015" class="node">
<title>Node15</title>
<g id="a_Node000015"><a xlink:href="class_hooks_impl.html#a07053e18c49265e300fe89b2a5bc28de" target="_top" xlink:title="here the Windows messages are picked up, which do not appear in the main message loop">
<polygon fill="white" stroke="#666666" points="503.5,-248 383.25,-248 383.25,-228 503.5,-228 503.5,-248"/>
<text text-anchor="middle" x="443.38" y="-234.5" font-family="Helvetica,sans-Serif" font-size="10.00">HooksImpl::getMsgProc</text>
</a>
</g>
</g>
<!-- Node14&#45;&gt;Node15 -->
<g id="edge14_Node000014_Node000015" class="edge">
<title>Node14&#45;&gt;Node15</title>
<g id="a_edge14_Node000014_Node000015"><a xlink:title=" ">
<path fill="none" stroke="#63b8ff" d="M317.73,-410.64C339.08,-381.07 400.53,-295.96 428.37,-257.4"/>
<polygon fill="#63b8ff" stroke="#63b8ff" points="431.07,-259.63 434.09,-249.48 425.4,-255.54 431.07,-259.63"/>
</a>
</g>
</g>
<!-- Node16 -->
<g id="Node000016" class="node">
<title>Node16</title>
<g id="a_Node000016"><a xlink:href="class_hooks_impl.html#a30acc60a07305d2df36a7798cb73aaa1" target="_top" xlink:title=" ">
<polygon fill="white" stroke="#666666" points="698,-324 552.25,-324 552.25,-304 698,-304 698,-324"/>
<text text-anchor="middle" x="625.12" y="-310.5" font-family="Helvetica,sans-Serif" font-size="10.00">HooksImpl::getLButtonUpMsg</text>
</a>
</g>
</g>
<!-- Node15&#45;&gt;Node16 -->
<g id="edge15_Node000015_Node000016" class="edge">
<title>Node15&#45;&gt;Node16</title>
<g id="a_edge15_Node000015_Node000016"><a xlink:title=" ">
<path fill="none" stroke="#63b8ff" d="M458.7,-248.38C476.96,-261.14 509.88,-282.61 541,-295 545.98,-296.98 551.22,-298.79 556.54,-300.42"/>
<polygon fill="#63b8ff" stroke="#63b8ff" points="555.48,-303.76 566.06,-303.12 557.39,-297.02 555.48,-303.76"/>
</a>
</g>
</g>
<!-- Node17 -->
<g id="Node000017" class="node">
<title>Node17</title>
<g id="a_Node000017"><a xlink:href="class_hooks_impl.html#a1f4bd7b8436918fc1cd5cea1c3a15bc9" target="_top" xlink:title=" ">
<polygon fill="white" stroke="#666666" points="704,-286 546.25,-286 546.25,-266 704,-266 704,-286"/>
<text text-anchor="middle" x="625.12" y="-272.5" font-family="Helvetica,sans-Serif" font-size="10.00">HooksImpl::getNcLButtonUpMsg</text>
</a>
</g>
</g>
<!-- Node15&#45;&gt;Node17 -->
<g id="edge16_Node000015_Node000017" class="edge">
<title>Node15&#45;&gt;Node17</title>
<g id="a_edge16_Node000015_Node000017"><a xlink:title=" ">
<path fill="none" stroke="#63b8ff" d="M493.97,-248.48C515.48,-253.03 540.88,-258.4 563.5,-263.18"/>
<polygon fill="#63b8ff" stroke="#63b8ff" points="562.71,-266.59 573.21,-265.24 564.15,-259.74 562.71,-266.59"/>
</a>
</g>
</g>
<!-- Node18 -->
<g id="Node000018" class="node">
<title>Node18</title>
<g id="a_Node000018"><a xlink:href="class_task_toolbar.html#a3159b1e31199ee3691bf2bcf5ec21100" target="_top" xlink:title=" ">
<polygon fill="white" stroke="#666666" points="680,-248 570.25,-248 570.25,-228 680,-228 680,-248"/>
<text text-anchor="middle" x="625.12" y="-234.5" font-family="Helvetica,sans-Serif" font-size="10.00">TaskToolbar::initialize</text>
</a>
</g>
</g>
<!-- Node15&#45;&gt;Node18 -->
<g id="edge17_Node000015_Node000018" class="edge">
<title>Node15&#45;&gt;Node18</title>
<g id="a_edge17_Node000015_Node000018"><a xlink:title=" ">
<path fill="none" stroke="#63b8ff" d="M503.73,-238C521.35,-238 540.74,-238 558.71,-238"/>
<polygon fill="#63b8ff" stroke="#63b8ff" points="558.48,-241.5 568.48,-238 558.48,-234.5 558.48,-241.5"/>
</a>
</g>
</g>
<!-- Node19 -->
<g id="Node000019" class="node">
<title>Node19</title>
<g id="a_Node000019"><a xlink:href="class_hooks_impl.html#ae0d26e76e300b5392e64fb070aafe8d5" target="_top" xlink:title="do the work, if necessary">
<polygon fill="white" stroke="#666666" points="691.62,-134 558.62,-134 558.62,-114 691.62,-114 691.62,-134"/>
<text text-anchor="middle" x="625.12" y="-120.5" font-family="Helvetica,sans-Serif" font-size="10.00">HooksImpl::onCaptionClick</text>
</a>
</g>
</g>
<!-- Node15&#45;&gt;Node19 -->
<g id="edge18_Node000015_Node000019" class="edge">
<title>Node15&#45;&gt;Node19</title>
<g id="a_edge18_Node000015_Node000019"><a xlink:title=" ">
<path fill="none" stroke="#63b8ff" d="M452.53,-227.71C467.87,-209.06 502.9,-169.59 541,-148 547.84,-144.12 555.36,-140.83 562.99,-138.04"/>
<polygon fill="#63b8ff" stroke="#63b8ff" points="563.99,-141.4 572.36,-134.91 561.77,-134.76 563.99,-141.4"/>
</a>
</g>
</g>
<!-- Node20 -->
<g id="Node000020" class="node">
<title>Node20</title>
<g id="a_Node000020"><a xlink:href="class_hooks_impl.html#a84c9a5c6b0754e092de2ee6a8b8bba1e" target="_top" xlink:title="method to change the size of a window in steps">
<polygon fill="white" stroke="#666666" points="900.75,-171 745.25,-171 745.25,-151 900.75,-151 900.75,-171"/>
<text text-anchor="middle" x="823" y="-157.5" font-family="Helvetica,sans-Serif" font-size="10.00">HooksImpl::onIncrementWindow</text>
</a>
</g>
</g>
<!-- Node15&#45;&gt;Node20 -->
<g id="edge46_Node000015_Node000020" class="edge">
<title>Node15&#45;&gt;Node20</title>
<g id="a_edge46_Node000015_Node000020"><a xlink:title=" ">
<path fill="none" stroke="#63b8ff" d="M457.5,-227.54C475.25,-214.05 508.46,-191.14 541,-181 603.36,-161.57 677.13,-156.97 733.43,-157.02"/>
<polygon fill="#63b8ff" stroke="#63b8ff" points="733.28,-160.51 743.3,-157.08 733.32,-153.51 733.28,-160.51"/>
</a>
</g>
</g>
<!-- Node21 -->
<g id="Node000021" class="node">
<title>Node21</title>
<g id="a_Node000021"><a xlink:href="class_hooks_impl.html#ab6696c1ccc12ebdd892883485456ed3c" target="_top" xlink:title=" ">
<polygon fill="white" stroke="#666666" points="892.88,-132 753.12,-132 753.12,-112 892.88,-112 892.88,-132"/>
<text text-anchor="middle" x="823" y="-118.5" font-family="Helvetica,sans-Serif" font-size="10.00">HooksImpl::onShowPosWnd</text>
</a>
</g>
</g>
<!-- Node15&#45;&gt;Node21 -->
<g id="edge54_Node000015_Node000021" class="edge">
<title>Node15&#45;&gt;Node21</title>
<g id="a_edge54_Node000015_Node000021"><a xlink:title=" ">
<path fill="none" stroke="#63b8ff" d="M448,-227.82C457.97,-201.55 488.61,-131.69 541,-105 619.79,-64.85 727.58,-89.95 784.01,-108.12"/>
<polygon fill="#63b8ff" stroke="#63b8ff" points="782.56,-111.32 793.16,-111.16 784.77,-104.68 782.56,-111.32"/>
</a>
</g>
</g>
<!-- Node37 -->
<g id="Node000037" class="node">
<title>Node37</title>
<g id="a_Node000037"><a xlink:href="class_hooks_impl.html#a924c5db32f07636c8acbc9421c216112" target="_top" xlink:title=" ">
<polygon fill="white" stroke="#666666" points="893.25,-58 752.75,-58 752.75,-38 893.25,-38 893.25,-58"/>
<text text-anchor="middle" x="823" y="-44.5" font-family="Helvetica,sans-Serif" font-size="10.00">HooksImpl::onClosePosWnd</text>
</a>
</g>
</g>
<!-- Node15&#45;&gt;Node37 -->
<g id="edge42_Node000015_Node000037" class="edge">
<title>Node15&#45;&gt;Node37</title>
<g id="a_edge42_Node000015_Node000037"><a xlink:title=" ">
<path fill="none" stroke="#63b8ff" d="M447.22,-227.63C455.79,-198.58 484.34,-116.13 541,-80 600.31,-42.18 681.24,-36.67 741.02,-39.15"/>
<polygon fill="#63b8ff" stroke="#63b8ff" points="740.63,-42.63 750.79,-39.64 740.98,-35.64 740.63,-42.63"/>
</a>
</g>
</g>
<!-- Node38 -->
<g id="Node000038" class="node">
<title>Node38</title>
<g id="a_Node000038"><a xlink:href="class_hooks_impl.html#a7628ad89b3625fcd9e8538d94d7b2cde" target="_top" xlink:title="processes the WM_LBUTTONUP event">
<polygon fill="white" stroke="#666666" points="687.12,-210 563.12,-210 563.12,-190 687.12,-190 687.12,-210"/>
<text text-anchor="middle" x="625.12" y="-196.5" font-family="Helvetica,sans-Serif" font-size="10.00">HooksImpl::onLButtonUp</text>
</a>
</g>
</g>
<!-- Node15&#45;&gt;Node38 -->
<g id="edge47_Node000015_Node000038" class="edge">
<title>Node15&#45;&gt;Node38</title>
<g id="a_edge47_Node000015_Node000038"><a xlink:title=" ">
<path fill="none" stroke="#63b8ff" d="M493.97,-227.52C515.48,-222.97 540.88,-217.6 563.5,-212.82"/>
<polygon fill="#63b8ff" stroke="#63b8ff" points="564.15,-216.26 573.21,-210.76 562.71,-209.41 564.15,-216.26"/>
</a>
</g>
</g>
<!-- Node39 -->
<g id="Node000039" class="node">
<title>Node39</title>
<g id="a_Node000039"><a xlink:href="class_hooks_impl.html#afe7a8e2c13ab2abe83b4f3d0c462e761" target="_top" xlink:title="this procedure handles the double click in non&#45;client area">
<polygon fill="white" stroke="#666666" points="694.25,-450 556,-450 556,-418 694.25,-418 694.25,-450"/>
<text text-anchor="start" x="564" y="-436.5" font-family="Helvetica,sans-Serif" font-size="10.00">HooksImpl::onNcLButtonDbl</text>
<text text-anchor="middle" x="625.12" y="-424.5" font-family="Helvetica,sans-Serif" font-size="10.00">Click</text>
</a>
</g>
</g>
<!-- Node15&#45;&gt;Node39 -->
<g id="edge50_Node000015_Node000039" class="edge">
<title>Node15&#45;&gt;Node39</title>
<g id="a_edge50_Node000015_Node000039"><a xlink:title=" ">
<path fill="none" stroke="#63b8ff" d="M447.2,-248.25C455.88,-277.86 485.06,-364.29 541,-409 542.54,-410.23 544.13,-411.4 545.78,-412.51"/>
<polygon fill="#63b8ff" stroke="#63b8ff" points="543.97,-415.5 554.37,-417.51 547.49,-409.45 543.97,-415.5"/>
</a>
</g>
</g>
<!-- Node40 -->
<g id="Node000040" class="node">
<title>Node40</title>
<g id="a_Node000040"><a xlink:href="class_hooks_impl.html#a9adf50040968aa66908f643ad1edda53" target="_top" xlink:title="processes the WM_NCLBUTTONDOWN event">
<polygon fill="white" stroke="#666666" points="699.12,-20 551.12,-20 551.12,0 699.12,0 699.12,-20"/>
<text text-anchor="middle" x="625.12" y="-6.5" font-family="Helvetica,sans-Serif" font-size="10.00">HooksImpl::onNcLButtonDown</text>
</a>
</g>
</g>
<!-- Node15&#45;&gt;Node40 -->
<g id="edge52_Node000015_Node000040" class="edge">
<title>Node15&#45;&gt;Node40</title>
<g id="a_edge52_Node000015_Node000040"><a xlink:title=" ">
<path fill="none" stroke="#63b8ff" d="M446.17,-227.72C452.52,-194.38 477.12,-88.33 541,-34 545.08,-30.53 549.63,-27.57 554.44,-25.03"/>
<polygon fill="#63b8ff" stroke="#63b8ff" points="555.6,-28.35 563.25,-21.02 552.7,-21.98 555.6,-28.35"/>
</a>
</g>
</g>
<!-- Node41 -->
<g id="Node000041" class="node">
<title>Node41</title>
<g id="a_Node000041"><a xlink:href="class_hooks_impl.html#a88ea927a4d021535e4a5768ef60a50d7" target="_top" xlink:title="processes the WM_NCLBUTTONUP event">
<polygon fill="white" stroke="#666666" points="693.88,-400 556.38,-400 556.38,-380 693.88,-380 693.88,-400"/>
<text text-anchor="middle" x="625.12" y="-386.5" font-family="Helvetica,sans-Serif" font-size="10.00">HooksImpl::onNCLButtonUp</text>
</a>
</g>
</g>
<!-- Node15&#45;&gt;Node41 -->
<g id="edge53_Node000015_Node000041" class="edge">
<title>Node15&#45;&gt;Node41</title>
<g id="a_edge53_Node000015_Node000041"><a xlink:title=" ">
<path fill="none" stroke="#63b8ff" d="M448.7,-248.26C459.9,-273.51 492.41,-338.92 541,-371 543.11,-372.39 545.3,-373.68 547.57,-374.88"/>
<polygon fill="#63b8ff" stroke="#63b8ff" points="545.92,-377.98 556.48,-378.92 548.82,-371.6 545.92,-377.98"/>
</a>
</g>
</g>
<!-- Node42 -->
<g id="Node000042" class="node">
<title>Node42</title>
<g id="a_Node000042"><a xlink:href="class_task_toolbar.html#a2304586dd147f754c7040f781eda1270" target="_top" xlink:title=" ">
<polygon fill="white" stroke="#666666" points="685.25,-362 565,-362 565,-342 685.25,-342 685.25,-362"/>
<text text-anchor="middle" x="625.12" y="-348.5" font-family="Helvetica,sans-Serif" font-size="10.00">TaskToolbar::uninitialize</text>
</a>
</g>
</g>
<!-- Node15&#45;&gt;Node42 -->
<g id="edge55_Node000015_Node000042" class="edge">
<title>Node15&#45;&gt;Node42</title>
<g id="a_edge55_Node000015_Node000042"><a xlink:title=" ">
<path fill="none" stroke="#63b8ff" d="M451.81,-248.47C466.48,-268.27 501.17,-311.2 541,-333 545.09,-335.24 549.43,-337.21 553.9,-338.96"/>
<polygon fill="#63b8ff" stroke="#63b8ff" points="552.48,-342.17 563.08,-342.12 554.77,-335.55 552.48,-342.17"/>
</a>
</g>
</g>
<!-- Node19&#45;&gt;Node7 -->
<g id="edge19_Node000019_Node000007" class="edge">
<title>Node19&#45;&gt;Node7</title>
<g id="a_edge19_Node000019_Node000007"><a xlink:title=" ">
<path fill="none" stroke="#63b8ff" d="M646.02,-134.29C669.41,-146.16 709.56,-165.86 745.25,-180 749.38,-181.64 753.67,-183.25 758.01,-184.83"/>
<polygon fill="#63b8ff" stroke="#63b8ff" points="756.82,-188.12 767.42,-188.14 759.15,-181.52 756.82,-188.12"/>
</a>
</g>
</g>
<!-- Node19&#45;&gt;Node20 -->
<g id="edge20_Node000019_Node000020" class="edge">
<title>Node19&#45;&gt;Node20</title>
<g id="a_edge20_Node000019_Node000020"><a xlink:title=" ">
<path fill="none" stroke="#63b8ff" d="M681.47,-134.45C704.42,-138.79 731.25,-143.86 755.27,-148.4"/>
<polygon fill="#63b8ff" stroke="#63b8ff" points="754.49,-151.81 764.97,-150.23 755.79,-144.93 754.49,-151.81"/>
</a>
</g>
</g>
<!-- Node19&#45;&gt;Node21 -->
<g id="edge21_Node000019_Node000021" class="edge">
<title>Node19&#45;&gt;Node21</title>
<g id="a_edge21_Node000019_Node000021"><a xlink:title=" ">
<path fill="none" stroke="#63b8ff" d="M691.89,-123.33C707.79,-123.17 724.95,-122.99 741.44,-122.82"/>
<polygon fill="#63b8ff" stroke="#63b8ff" points="741.24,-126.32 751.2,-122.72 741.17,-119.33 741.24,-126.32"/>
</a>
</g>
</g>
<!-- Node22 -->
<g id="Node000022" class="node">
<title>Node22</title>
<g id="a_Node000022"><a xlink:href="class_win_pos_wnd.html#abec2e67db5543a717d59b02ab8dbb930" target="_top" xlink:title="create the required windows for monitor preview and all configured positions">
<polygon fill="white" stroke="#666666" points="1058.88,-172 955.12,-172 955.12,-152 1058.88,-152 1058.88,-172"/>
<text text-anchor="middle" x="1007" y="-158.5" font-family="Helvetica,sans-Serif" font-size="10.00">WinPosWnd::create</text>
</a>
</g>
</g>
<!-- Node21&#45;&gt;Node22 -->
<g id="edge22_Node000021_Node000022" class="edge">
<title>Node21&#45;&gt;Node22</title>
<g id="a_edge22_Node000021_Node000022"><a xlink:title=" ">
<path fill="none" stroke="#63b8ff" d="M871.34,-132.41C894.54,-137.5 922.7,-143.69 947.26,-149.09"/>
<polygon fill="#63b8ff" stroke="#63b8ff" points="946.27,-152.45 956.78,-151.18 947.77,-145.62 946.27,-152.45"/>
</a>
</g>
</g>
<!-- Node36 -->
<g id="Node000036" class="node">
<title>Node36</title>
<g id="a_Node000036"><a xlink:href="class_win_pos_wnd.html#acb456c59641ec336d5c7646764fe7e6a" target="_top" xlink:title=" ">
<polygon fill="white" stroke="#666666" points="1077.25,-131 936.75,-131 936.75,-111 1077.25,-111 1077.25,-131"/>
<text text-anchor="middle" x="1007" y="-117.5" font-family="Helvetica,sans-Serif" font-size="10.00">WinPosWnd::getWndHandle</text>
</a>
</g>
</g>
<!-- Node21&#45;&gt;Node36 -->
<g id="edge41_Node000021_Node000036" class="edge">
<title>Node21&#45;&gt;Node36</title>
<g id="a_edge41_Node000021_Node000036"><a xlink:title=" ">
<path fill="none" stroke="#63b8ff" d="M893.33,-121.62C903.65,-121.56 914.38,-121.5 924.92,-121.45"/>
<polygon fill="#63b8ff" stroke="#63b8ff" points="924.77,-124.95 934.75,-121.39 924.73,-117.95 924.77,-124.95"/>
</a>
</g>
</g>
<!-- Node23 -->
<g id="Node000023" class="node">
<title>Node23</title>
<g id="a_Node000023"><a xlink:href="class_win_pos_wnd.html#a4b607f031e5058874a31918e4cc1ba79" target="_top" xlink:title="if the window looks beyond the edge of the monitor, it is moved so that it is displayed as a whole on...">
<polygon fill="white" stroke="#666666" points="1273.25,-304 1117.75,-304 1117.75,-284 1273.25,-284 1273.25,-304"/>
<text text-anchor="middle" x="1195.5" y="-290.5" font-family="Helvetica,sans-Serif" font-size="10.00">WinPosWnd::correctEdgecases</text>
</a>
</g>
</g>
<!-- Node22&#45;&gt;Node23 -->
<g id="edge23_Node000022_Node000023" class="edge">
<title>Node22&#45;&gt;Node23</title>
<g id="a_edge23_Node000022_Node000023"><a xlink:title=" ">
<path fill="none" stroke="#63b8ff" d="M1014.47,-172.33C1029.1,-194.8 1067.09,-248.25 1113.25,-275 1115.92,-276.55 1118.71,-277.97 1121.57,-279.27"/>
<polygon fill="#63b8ff" stroke="#63b8ff" points="1120.25,-282.51 1130.83,-282.95 1122.83,-276.01 1120.25,-282.51"/>
</a>
</g>
</g>
<!-- Node24 -->
<g id="Node000024" class="node">
<title>Node24</title>
<g id="a_Node000024"><a xlink:href="class_win_pos_wnd.html#a8abc6edd027488d4f7242b9f12693af8" target="_top" xlink:title="destroys every windows">
<polygon fill="white" stroke="#666666" points="1250,-58 1141,-58 1141,-38 1250,-38 1250,-58"/>
<text text-anchor="middle" x="1195.5" y="-44.5" font-family="Helvetica,sans-Serif" font-size="10.00">WinPosWnd::destroy</text>
</a>
</g>
</g>
<!-- Node22&#45;&gt;Node24 -->
<g id="edge24_Node000022_Node000024" class="edge">
<title>Node22&#45;&gt;Node24</title>
<g id="a_edge24_Node000022_Node000024"><a xlink:title=" ">
<path fill="none" stroke="#63b8ff" d="M1057.88,-151.59C1064.89,-148.64 1071.61,-144.85 1077.25,-140 1104.68,-116.42 1084.92,-89.5 1113.25,-67 1118.34,-62.96 1124.14,-59.75 1130.24,-57.21"/>
<polygon fill="#63b8ff" stroke="#63b8ff" points="1131.02,-60.64 1139.3,-54.03 1128.71,-54.04 1131.02,-60.64"/>
</a>
</g>
</g>
<!-- Node25 -->
<g id="Node000025" class="node">
<title>Node25</title>
<g id="a_Node000025"><a xlink:href="class_win_pos_wnd_cfg.html#afe04626c840dd23b6b063f58bcb06dce" target="_top" xlink:title=" ">
<polygon fill="white" stroke="#666666" points="1656.25,-182 1492.5,-182 1492.5,-162 1656.25,-162 1656.25,-182"/>
<text text-anchor="middle" x="1574.38" y="-168.5" font-family="Helvetica,sans-Serif" font-size="10.00">WinPosWndCfg::getCloseTimeout</text>
</a>
</g>
</g>
<!-- Node22&#45;&gt;Node25 -->
<g id="edge25_Node000022_Node000025" class="edge">
<title>Node22&#45;&gt;Node25</title>
<g id="a_edge25_Node000022_Node000025"><a xlink:title=" ">
<path fill="none" stroke="#63b8ff" d="M1059.17,-162.91C1154.49,-164.59 1360.47,-168.23 1480.8,-170.36"/>
<polygon fill="#63b8ff" stroke="#63b8ff" points="1480.59,-173.86 1490.66,-170.54 1480.72,-166.86 1480.59,-173.86"/>
</a>
</g>
</g>
<!-- Node26 -->
<g id="Node000026" class="node">
<title>Node26</title>
<g id="a_Node000026"><a xlink:href="class_win_pos_wnd_cfg.html#a10a73295ae59c85d651ad0088b235125" target="_top" xlink:title=" ">
<polygon fill="white" stroke="#666666" points="1266.5,-210 1124.5,-210 1124.5,-190 1266.5,-190 1266.5,-210"/>
<text text-anchor="middle" x="1195.5" y="-196.5" font-family="Helvetica,sans-Serif" font-size="10.00">WinPosWndCfg::getMonitors</text>
</a>
</g>
</g>
<!-- Node22&#45;&gt;Node26 -->
<g id="edge26_Node000022_Node000026" class="edge">
<title>Node22&#45;&gt;Node26</title>
<g id="a_edge26_Node000022_Node000026"><a xlink:title=" ">
<path fill="none" stroke="#63b8ff" d="M1058.96,-172.38C1081.59,-176.99 1108.42,-182.46 1132.23,-187.31"/>
<polygon fill="#63b8ff" stroke="#63b8ff" points="1131.3,-190.69 1141.79,-189.26 1132.69,-183.83 1131.3,-190.69"/>
</a>
</g>
</g>
<!-- Node27 -->
<g id="Node000027" class="node">
<title>Node27</title>
<g id="a_Node000027"><a xlink:href="class_win_pos_wnd_cfg.html#a1fd1c1c55716a4697a044ae0671cf2aa" target="_top" xlink:title=" ">
<polygon fill="white" stroke="#666666" points="1639,-286 1509.75,-286 1509.75,-266 1639,-266 1639,-286"/>
<text text-anchor="middle" x="1574.38" y="-272.5" font-family="Helvetica,sans-Serif" font-size="10.00">WinPosWndCfg::getScale</text>
</a>
</g>
</g>
<!-- Node22&#45;&gt;Node27 -->
<g id="edge27_Node000022_Node000027" class="edge">
<title>Node22&#45;&gt;Node27</title>
<g id="a_edge27_Node000022_Node000027"><a xlink:title=" ">
<path fill="none" stroke="#63b8ff" d="M1011.35,-172.28C1021.36,-201.01 1054.04,-282.1 1113.25,-313 1256.08,-387.55 1458.35,-322.19 1538.61,-290.69"/>
<polygon fill="#63b8ff" stroke="#63b8ff" points="1539.72,-294.02 1547.7,-287.05 1537.12,-287.52 1539.72,-294.02"/>
</a>
</g>
</g>
<!-- Node28 -->
<g id="Node000028" class="node">
<title>Node28</title>
<g id="a_Node000028"><a xlink:href="class_win_pos_wnd.html#a159d04333920b8b0ab3b8ecc6f6607dd" target="_top" xlink:title=" ">
<polygon fill="white" stroke="#666666" points="1277.75,-134 1113.25,-134 1113.25,-114 1277.75,-114 1277.75,-134"/>
<text text-anchor="middle" x="1195.5" y="-120.5" font-family="Helvetica,sans-Serif" font-size="10.00">WinPosWnd::getTotalPreviewRect</text>
</a>
</g>
</g>
<!-- Node22&#45;&gt;Node28 -->
<g id="edge28_Node000022_Node000028" class="edge">
<title>Node22&#45;&gt;Node28</title>
<g id="a_edge28_Node000022_Node000028"><a xlink:title=" ">
<path fill="none" stroke="#63b8ff" d="M1058.96,-151.62C1081.59,-147.01 1108.42,-141.54 1132.23,-136.69"/>
<polygon fill="#63b8ff" stroke="#63b8ff" points="1132.69,-140.17 1141.79,-134.74 1131.3,-133.31 1132.69,-140.17"/>
</a>
</g>
</g>
<!-- Node29 -->
<g id="Node000029" class="node">
<title>Node29</title>
<g id="a_Node000029"><a xlink:href="class_win_pos_wnd.html#a86ca33ea895961e25e6c1601e420f40e" target="_top" xlink:title="initialize the WNDCLASS structure">
<polygon fill="white" stroke="#666666" points="1262.75,-96 1128.25,-96 1128.25,-76 1262.75,-76 1262.75,-96"/>
<text text-anchor="middle" x="1195.5" y="-82.5" font-family="Helvetica,sans-Serif" font-size="10.00">WinPosWnd::initWndClass</text>
</a>
</g>
</g>
<!-- Node22&#45;&gt;Node29 -->
<g id="edge29_Node000022_Node000029" class="edge">
<title>Node22&#45;&gt;Node29</title>
<g id="a_edge29_Node000022_Node000029"><a xlink:title=" ">
<path fill="none" stroke="#63b8ff" d="M1051.46,-151.6C1060.32,-148.55 1069.35,-144.73 1077.25,-140 1096.4,-128.54 1093.67,-115.71 1113.25,-105 1116.27,-103.35 1119.42,-101.84 1122.66,-100.47"/>
<polygon fill="#63b8ff" stroke="#63b8ff" points="1123.7,-103.81 1131.84,-97.03 1121.25,-97.26 1123.7,-103.81"/>
</a>
</g>
</g>
<!-- Node32 -->
<g id="Node000032" class="node">
<title>Node32</title>
<g id="a_Node000032"><a xlink:href="struct_win_pos_wnd_1_1_monitor_preview.html#a01fe1b4351422928e43305d1758ae6fb" target="_top" xlink:title="move the rectangle to the cursor position">
<polygon fill="white" stroke="#666666" points="1266.5,-392 1124.5,-392 1124.5,-360 1266.5,-360 1266.5,-392"/>
<text text-anchor="start" x="1132.5" y="-378.5" font-family="Helvetica,sans-Serif" font-size="10.00">WinPosWnd::MonitorPreview</text>
<text text-anchor="middle" x="1195.5" y="-366.5" font-family="Helvetica,sans-Serif" font-size="10.00">::offsetToPt</text>
</a>
</g>
</g>
<!-- Node22&#45;&gt;Node32 -->
<g id="edge32_Node000022_Node000032" class="edge">
<title>Node22&#45;&gt;Node32</title>
<g id="a_edge32_Node000022_Node000032"><a xlink:title=" ">
<path fill="none" stroke="#63b8ff" d="M1011.12,-172.41C1020.91,-203.36 1053.98,-295.83 1113.25,-346 1116.87,-349.06 1120.82,-351.82 1124.98,-354.31"/>
<polygon fill="#63b8ff" stroke="#63b8ff" points="1123.17,-357.32 1133.65,-358.93 1126.47,-351.14 1123.17,-357.32"/>
</a>
</g>
</g>
<!-- Node33 -->
<g id="Node000033" class="node">
<title>Node33</title>
<g id="a_Node000033"><a xlink:href="class_win_pos_wnd_cfg.html#a038475d40481960d701d09f6e39467c8" target="_top" xlink:title=" ">
<polygon fill="white" stroke="#666666" points="1263.88,-248 1127.12,-248 1127.12,-228 1263.88,-228 1263.88,-248"/>
<text text-anchor="middle" x="1195.5" y="-234.5" font-family="Helvetica,sans-Serif" font-size="10.00">WinPosWndCfg::readConfig</text>
</a>
</g>
</g>
<!-- Node22&#45;&gt;Node33 -->
<g id="edge33_Node000022_Node000033" class="edge">
<title>Node22&#45;&gt;Node33</title>
<g id="a_edge33_Node000022_Node000033"><a xlink:title=" ">
<path fill="none" stroke="#63b8ff" d="M1023.77,-172.28C1043.81,-184.94 1079.84,-206.31 1113.25,-219 1118.53,-221.01 1124.09,-222.84 1129.72,-224.51"/>
<polygon fill="#63b8ff" stroke="#63b8ff" points="1128.54,-227.82 1139.11,-227.12 1130.41,-221.07 1128.54,-227.82"/>
</a>
</g>
</g>
<!-- Node30 -->
<g id="Node000030" class="node">
<title>Node30</title>
<g id="a_Node000030"><a xlink:href="class_win_pos_wnd.html#a104a18975fac2ac85a75eabda629ddb2" target="_top" xlink:title="static WNDPROC. Forwards to the WinPosWnd instances.">
<polygon fill="white" stroke="#666666" points="1456.5,-77 1313.75,-77 1313.75,-57 1456.5,-57 1456.5,-77"/>
<text text-anchor="middle" x="1385.12" y="-63.5" font-family="Helvetica,sans-Serif" font-size="10.00">WinPosWnd::WndProcStatic</text>
</a>
</g>
</g>
<!-- Node29&#45;&gt;Node30 -->
<g id="edge30_Node000029_Node000030" class="edge">
<title>Node29&#45;&gt;Node30</title>
<g id="a_edge30_Node000029_Node000030"><a xlink:title=" ">
<path fill="none" stroke="#63b8ff" d="M1263.18,-79.25C1275.81,-77.97 1289.15,-76.62 1302.18,-75.3"/>
<polygon fill="#63b8ff" stroke="#63b8ff" points="1302.43,-78.79 1312.03,-74.3 1301.72,-71.83 1302.43,-78.79"/>
</a>
</g>
</g>
<!-- Node31 -->
<g id="Node000031" class="node">
<title>Node31</title>
<g id="a_Node000031"><a xlink:href="class_win_pos_wnd.html#a5ad8686caf3b8310fff6d4bec255f898" target="_top" xlink:title="get the instance of WinPosWnd to a window handle">
<polygon fill="white" stroke="#666666" points="1646.88,-39 1501.88,-39 1501.88,-19 1646.88,-19 1646.88,-39"/>
<text text-anchor="middle" x="1574.38" y="-25.5" font-family="Helvetica,sans-Serif" font-size="10.00">WinPosWnd::getWinPosWnd</text>
</a>
</g>
</g>
<!-- Node30&#45;&gt;Node31 -->
<g id="edge31_Node000030_Node000031" class="edge">
<title>Node30&#45;&gt;Node31</title>
<g id="a_edge31_Node000030_Node000031"><a xlink:title=" ">
<path fill="none" stroke="#63b8ff" d="M1437.79,-56.52C1460.4,-51.93 1487.14,-46.5 1510.86,-41.69"/>
<polygon fill="#63b8ff" stroke="#63b8ff" points="1511.29,-45.17 1520.4,-39.75 1509.9,-38.31 1511.29,-45.17"/>
</a>
</g>
</g>
<!-- Node33&#45;&gt;Node27 -->
<g id="edge35_Node000033_Node000027" class="edge">
<title>Node33&#45;&gt;Node27</title>
<g id="a_edge35_Node000033_Node000027"><a xlink:title=" ">
<path fill="none" stroke="#63b8ff" d="M1264.31,-244.84C1330.26,-251.49 1430.21,-261.56 1498.47,-268.45"/>
<polygon fill="#63b8ff" stroke="#63b8ff" points="1497.75,-271.89 1508.06,-269.41 1498.46,-264.93 1497.75,-271.89"/>
</a>
</g>
</g>
<!-- Node33&#45;&gt;Node33 -->
<g id="edge36_Node000033_Node000033" class="edge">
<title>Node33&#45;&gt;Node33</title>
<g id="a_edge36_Node000033_Node000033"><a xlink:title=" ">
<path fill="none" stroke="#63b8ff" d="M1165.55,-248.34C1152.75,-256.98 1162.73,-266 1195.5,-266 1213.93,-266 1225.15,-263.14 1229.17,-259.11"/>
<polygon fill="#63b8ff" stroke="#63b8ff" points="1232.52,-258.08 1225.94,-249.77 1225.9,-260.36 1232.52,-258.08"/>
</a>
</g>
</g>
<!-- Node34 -->
<g id="Node000034" class="node">
<title>Node34</title>
<g id="a_Node000034"><a xlink:href="class_win_pos_wnd_cfg.html#a93944e9bbc627a502d59f845b3b1e827" target="_top" xlink:title=" ">
<polygon fill="white" stroke="#666666" points="1650.25,-239 1498.5,-239 1498.5,-219 1650.25,-219 1650.25,-239"/>
<text text-anchor="middle" x="1574.38" y="-225.5" font-family="Helvetica,sans-Serif" font-size="10.00">WinPosWndCfg::getConfigPath</text>
</a>
</g>
</g>
<!-- Node33&#45;&gt;Node34 -->
<g id="edge34_Node000033_Node000034" class="edge">
<title>Node33&#45;&gt;Node34</title>
<g id="a_edge34_Node000033_Node000034"><a xlink:title=" ">
<path fill="none" stroke="#63b8ff" d="M1264.31,-236.38C1326.52,-234.9 1418.97,-232.69 1486.55,-231.07"/>
<polygon fill="#63b8ff" stroke="#63b8ff" points="1486.59,-234.57 1496.51,-230.84 1486.43,-227.58 1486.59,-234.57"/>
</a>
</g>
</g>
<!-- Node35 -->
<g id="Node000035" class="node">
<title>Node35</title>
<g id="a_Node000035"><a xlink:href="class_win_pos_wnd_cfg.html#a2e024dd316be8cf377996f7be3017acd" target="_top" xlink:title=" ">
<polygon fill="white" stroke="#666666" points="1454.25,-210 1316,-210 1316,-190 1454.25,-190 1454.25,-210"/>
<text text-anchor="middle" x="1385.12" y="-196.5" font-family="Helvetica,sans-Serif" font-size="10.00">WinPosWndCfg::writeConfig</text>
</a>
</g>
</g>
<!-- Node33&#45;&gt;Node35 -->
<g id="edge37_Node000033_Node000035" class="edge">
<title>Node33&#45;&gt;Node35</title>
<g id="a_edge37_Node000033_Node000035"><a xlink:title=" ">
<path fill="none" stroke="#63b8ff" d="M1248.27,-227.52C1270.93,-222.93 1297.71,-217.5 1321.49,-212.69"/>
<polygon fill="#63b8ff" stroke="#63b8ff" points="1321.94,-216.17 1331.04,-210.75 1320.55,-209.31 1321.94,-216.17"/>
</a>
</g>
</g>
<!-- Node35&#45;&gt;Node25 -->
<g id="edge38_Node000035_Node000025" class="edge">
<title>Node35&#45;&gt;Node25</title>
<g id="a_edge38_Node000035_Node000025"><a xlink:title=" ">
<path fill="none" stroke="#63b8ff" d="M1454.52,-189.77C1466.68,-187.95 1479.45,-186.04 1491.93,-184.18"/>
<polygon fill="#63b8ff" stroke="#63b8ff" points="1492.41,-187.65 1501.78,-182.71 1491.38,-180.72 1492.41,-187.65"/>
</a>
</g>
</g>
<!-- Node35&#45;&gt;Node27 -->
<g id="edge40_Node000035_Node000027" class="edge">
<title>Node35&#45;&gt;Node27</title>
<g id="a_edge40_Node000035_Node000027"><a xlink:title=" ">
<path fill="none" stroke="#63b8ff" d="M1407.48,-210.32C1428.78,-220.46 1462.57,-236.09 1492.5,-248 1504.78,-252.88 1518.29,-257.76 1530.69,-262.03"/>
<polygon fill="#63b8ff" stroke="#63b8ff" points="1529.22,-265.23 1539.81,-265.13 1531.47,-258.6 1529.22,-265.23"/>
</a>
</g>
</g>
<!-- Node35&#45;&gt;Node34 -->
<g id="edge39_Node000035_Node000034" class="edge">
<title>Node35&#45;&gt;Node34</title>
<g id="a_edge39_Node000035_Node000034"><a xlink:title=" ">
<path fill="none" stroke="#63b8ff" d="M1453.73,-210.47C1466.98,-212.52 1481,-214.69 1494.59,-216.8"/>
<polygon fill="#63b8ff" stroke="#63b8ff" points="1493.96,-220.24 1504.38,-218.31 1495.03,-213.32 1493.96,-220.24"/>
</a>
</g>
</g>
<!-- Node37&#45;&gt;Node24 -->
<g id="edge43_Node000037_Node000024" class="edge">
<title>Node37&#45;&gt;Node24</title>
<g id="a_edge43_Node000037_Node000024"><a xlink:title=" ">
<path fill="none" stroke="#63b8ff" d="M893.69,-48C961.32,-48 1063.16,-48 1129.24,-48"/>
<polygon fill="#63b8ff" stroke="#63b8ff" points="1129.23,-51.5 1139.23,-48 1129.23,-44.5 1129.23,-51.5"/>
</a>
</g>
</g>
<!-- Node37&#45;&gt;Node31 -->
<g id="edge44_Node000037_Node000031" class="edge">
<title>Node37&#45;&gt;Node31</title>
<g id="a_edge44_Node000037_Node000031"><a xlink:title=" ">
<path fill="none" stroke="#63b8ff" d="M893.49,-42.15C952.04,-37.53 1038.05,-31.47 1113.25,-29 1244.94,-24.68 1397.95,-25.93 1490.13,-27.36"/>
<polygon fill="#63b8ff" stroke="#63b8ff" points="1490.05,-30.86 1500.11,-27.52 1490.17,-23.86 1490.05,-30.86"/>
</a>
</g>
</g>
<!-- Node37&#45;&gt;Node36 -->
<g id="edge45_Node000037_Node000036" class="edge">
<title>Node37&#45;&gt;Node36</title>
<g id="a_edge45_Node000037_Node000036"><a xlink:title=" ">
<path fill="none" stroke="#63b8ff" d="M850.08,-58.46C881.43,-71.04 934.24,-92.22 969.6,-106.4"/>
<polygon fill="#63b8ff" stroke="#63b8ff" points="967.98,-109.52 978.57,-110 970.59,-103.03 967.98,-109.52"/>
</a>
</g>
</g>
<!-- Node38&#45;&gt;Node7 -->
<g id="edge48_Node000038_Node000007" class="edge">
<title>Node38&#45;&gt;Node7</title>
<g id="a_edge48_Node000038_Node000007"><a xlink:title=" ">
<path fill="none" stroke="#63b8ff" d="M687.56,-201.57C706.13,-202.04 726.75,-202.57 746.14,-203.06"/>
<polygon fill="#63b8ff" stroke="#63b8ff" points="745.8,-206.56 755.88,-203.31 745.97,-199.56 745.8,-206.56"/>
</a>
</g>
</g>
<!-- Node38&#45;&gt;Node20 -->
<g id="edge49_Node000038_Node000020" class="edge">
<title>Node38&#45;&gt;Node20</title>
<g id="a_edge49_Node000038_Node000020"><a xlink:title=" ">
<path fill="none" stroke="#63b8ff" d="M678.62,-189.55C703.1,-184.67 732.45,-178.83 758.2,-173.7"/>
<polygon fill="#63b8ff" stroke="#63b8ff" points="758.76,-177.16 767.88,-171.78 757.39,-170.3 758.76,-177.16"/>
</a>
</g>
</g>
<!-- Node39&#45;&gt;Node8 -->
<g id="edge51_Node000039_Node000008" class="edge">
<title>Node39&#45;&gt;Node8</title>
<g id="a_edge51_Node000039_Node000008"><a xlink:title=" ">
<path fill="none" stroke="#63b8ff" d="M694.63,-441.69C712.55,-443.71 731.91,-445.88 750,-447.91"/>
<polygon fill="#63b8ff" stroke="#63b8ff" points="749.54,-451.38 759.87,-449.02 750.32,-444.43 749.54,-451.38"/>
</a>
</g>
</g>
</g>
</svg>

<g id="navigator" transform="translate(0 0)" fill="#404254">
  <rect fill="#f2f5e9" fill-opacity="0.5" stroke="#606060" stroke-width=".5" x="0" y="0" width="60" height="60"/>
  <use id="zoomplus" xlink:href="#zoomPlus" x="17" y="9" onmousedown="handleZoom(evt,'in')"/>
  <use id="zoomminus" xlink:href="#zoomMin" x="42" y="9" onmousedown="handleZoom(evt,'out')"/>
  <use id="reset" xlink:href="#resetDef" x="30" y="36" onmousedown="handleReset()"/>
   <use id="arrowup" xlink:href="#arrowUp" x="0" y="0" onmousedown="handlePan(0,-1)"/>
  <use id="arrowright" xlink:href="#arrowRight" x="0" y="0" onmousedown="handlePan(1,0)"/>
  <use id="arrowdown" xlink:href="#arrowDown" x="0" y="0" onmousedown="handlePan(0,1)"/>
  <use id="arrowleft" xlink:href="#arrowLeft" x="0" y="0" onmousedown="handlePan(-1,0)"/>
</g>
<svg viewBox="0 0 15 15" width="100%" height="30px" preserveAspectRatio="xMaxYMin meet">
 <g id="arrow_out" transform="scale(0.3 0.3)">
  <a xlink:href="class_hooks_mgr_a5f8aa4cd119cb5d489b0a6f1a2971a79_cgraph_org.svg" target="_base">
   <rect id="button" ry="5" rx="5" y="6" x="6" height="38" width="38"
        fill="#f2f5e9" fill-opacity="0.5" stroke="#606060" stroke-width="1.0"/>
   <path id="arrow"
     d="M 11.500037,31.436501 C 11.940474,20.09759 22.043105,11.32322 32.158766,21.979434 L 37.068811,17.246167 C 37.068811,17.246167 37.088388,32 37.088388,32 L 22.160133,31.978069 C 22.160133,31.978069 26.997745,27.140456 26.997745,27.140456 C 18.528582,18.264221 13.291696,25.230495 11.500037,31.436501 z"
     style="fill:#404040;"/>
  </a>
 </g>
</svg>

<style type='text/css'>
<![CDATA[
[data-mouse-over-selected='false'] { opacity: 0.7; }
[data-mouse-over-selected='true']  { opacity: 1.0; }
]]>
</style>
<script type="application/ecmascript"><![CDATA[
document.addEventListener('DOMContentLoaded', (event) => {
  highlightEdges();
  highlightAdjacentNodes();
});
]]></script>
</svg>
