<?xml version="1.0" encoding="UTF-8" standalone="no"?>
<!DOCTYPE svg PUBLIC "-//W3C//DTD SVG 1.1//EN"
 "http://www.w3.org/Graphics/SVG/1.1/DTD/svg11.dtd">
<!-- Generated by graphviz version 8.1.0 (20230707.0739)
 -->
<!-- Title: WinPosWnd::create Pages: 1 -->
<!--zoomable 373 -->

<svg id="main" version="1.1" xmlns="http://www.w3.org/2000/svg" xmlns:xlink="http://www.w3.org/1999/xlink" xml:space="preserve" onload="init(evt)">
<style type="text/css"><![CDATA[
.node, .edge {opacity: 0.7;}
.node.selected, .edge.selected {opacity: 1;}
.edge:hover path { stroke: red; }
.edge:hover polygon { stroke: red; fill: red; }
]]></style>

<defs>
  <circle id="rim" cx="0" cy="0" r="7"/>
  <circle id="rim2" cx="0" cy="0" r="3.5"/>
  <g id="zoomPlus">
    <use xlink:href="#rim" fill="#404040"><set attributeName="fill" to="#808080" begin="zoomplus.mouseover" end="zoomplus.mouseout"/></use>
    <path d="M-4,0h8M0,-4v8" fill="none" stroke="white" stroke-width="1.5" pointer-events="none"/>
  </g>
  <g id="zoomMin">
    <use xlink:href="#rim" fill="#404040"><set attributeName="fill" to="#808080" begin="zoomminus.mouseover" end="zoomminus.mouseout"/></use>
    <path d="M-4,0h8" fill="none" stroke="white" stroke-width="1.5" pointer-events="none"/>
  </g>
  <g id="arrowUp" transform="translate(30 24)">
    <use xlink:href="#rim"/>
    <path pointer-events="none" fill="none" stroke="white" stroke-width="1.5" d="M0,-3.0v7 M-2.5,-0.5L0,-3.0L2.5,-0.5"/>
  </g>
  <g id="arrowRight" transform="rotate(90) translate(36 -43)">
    <use xlink:href="#rim"/>
    <path pointer-events="none" fill="none" stroke="white" stroke-width="1.5" d="M0,-3.0v7 M-2.5,-0.5L0,-3.0L2.5,-0.5"/>
  </g>
  <g id="arrowDown" transform="rotate(180) translate(-30 -48)">
    <use xlink:href="#rim"/>
    <path pointer-events="none" fill="none" stroke="white" stroke-width="1.5" d="M0,-3.0v7 M-2.5,-0.5L0,-3.0L2.5,-0.5"/>
  </g>
  <g id="arrowLeft" transform="rotate(270) translate(-36 17)">
    <use xlink:href="#rim"/>
    <path pointer-events="none" fill="none" stroke="white" stroke-width="1.5" d="M0,-3.0v7 M-2.5,-0.5L0,-3.0L2.5,-0.5"/>
  </g>
  <g id="resetDef">
    <use xlink:href="#rim2" fill="#404040"><set attributeName="fill" to="#808080" begin="reset.mouseover" end="reset.mouseout"/></use>
  </g>
</defs>
<script type="application/ecmascript">
var viewWidth = 691;
var viewHeight = 373;
var sectionId = 'dynsection-2';
</script>
<script type="application/ecmascript" xlink:href="svg.min.js"/>
<svg id="graph" class="graph">
<g id="viewport">
<title>WinPosWnd::create</title>
<!-- Node1 -->
<g id="Node000001" class="node">
<title>Node1</title>
<g id="a_Node000001"><a xlink:title="create the required windows for monitor preview and all configured positions">
<polygon fill="#999999" stroke="#666666" points="103.75,-213.34 0,-213.34 0,-193.34 103.75,-193.34 103.75,-213.34"/>
<text text-anchor="middle" x="51.88" y="-199.84" font-family="Helvetica,sans-Serif" font-size="10.00">WinPosWnd::create</text>
</a>
</g>
</g>
<!-- Node2 -->
<g id="Node000002" class="node">
<title>Node2</title>
<g id="a_Node000002"><a xlink:href="class_win_pos_wnd.html#a4b607f031e5058874a31918e4cc1ba79" target="_top" xlink:title="if the window looks beyond the edge of the monitor, it is moved so that it is displayed as a whole on...">
<polygon fill="white" stroke="#666666" points="299.75,-365.34 144.25,-365.34 144.25,-345.34 299.75,-345.34 299.75,-365.34"/>
<text text-anchor="middle" x="222" y="-351.84" font-family="Helvetica,sans-Serif" font-size="10.00">WinPosWnd::correctEdgecases</text>
</a>
</g>
</g>
<!-- Node1&#45;&gt;Node2 -->
<g id="edge1_Node000001_Node000002" class="edge">
<title>Node1&#45;&gt;Node2</title>
<g id="a_edge1_Node000001_Node000002"><a xlink:title=" ">
<path fill="none" stroke="#63b8ff" d="M56.47,-213.58C65.86,-238.77 93.67,-304.06 139.75,-336.34 141.73,-337.72 143.79,-339.01 145.92,-340.2"/>
<polygon fill="#63b8ff" stroke="#63b8ff" points="144.1,-343.69 154.63,-344.85 147.13,-337.37 144.1,-343.69"/>
</a>
</g>
</g>
<!-- Node3 -->
<g id="Node000003" class="node">
<title>Node3</title>
<g id="a_Node000003"><a xlink:href="class_win_pos_wnd.html#a8abc6edd027488d4f7242b9f12693af8" target="_top" xlink:title="destroys every windows">
<polygon fill="white" stroke="#666666" points="276.5,-327.34 167.5,-327.34 167.5,-307.34 276.5,-307.34 276.5,-327.34"/>
<text text-anchor="middle" x="222" y="-313.84" font-family="Helvetica,sans-Serif" font-size="10.00">WinPosWnd::destroy</text>
</a>
</g>
</g>
<!-- Node1&#45;&gt;Node3 -->
<g id="edge2_Node000001_Node000003" class="edge">
<title>Node1&#45;&gt;Node3</title>
<g id="a_edge2_Node000001_Node000003"><a xlink:title=" ">
<path fill="none" stroke="#63b8ff" d="M59.31,-213.8C72.05,-233.61 102.53,-276.54 139.75,-298.34 145.12,-301.48 150.97,-304.1 156.99,-306.29"/>
<polygon fill="#63b8ff" stroke="#63b8ff" points="155.64,-309.86 166.23,-309.58 157.78,-303.19 155.64,-309.86"/>
</a>
</g>
</g>
<!-- Node4 -->
<g id="Node000004" class="node">
<title>Node4</title>
<g id="a_Node000004"><a xlink:href="class_win_pos_wnd_cfg.html#afe04626c840dd23b6b063f58bcb06dce" target="_top" xlink:title=" ">
<polygon fill="white" stroke="#666666" points="682.75,-185.34 519,-185.34 519,-165.34 682.75,-165.34 682.75,-185.34"/>
<text text-anchor="middle" x="600.88" y="-171.84" font-family="Helvetica,sans-Serif" font-size="10.00">WinPosWndCfg::getCloseTimeout</text>
</a>
</g>
</g>
<!-- Node1&#45;&gt;Node4 -->
<g id="edge3_Node000001_Node000004" class="edge">
<title>Node1&#45;&gt;Node4</title>
<g id="a_edge3_Node000001_Node000004"><a xlink:title=" ">
<path fill="none" stroke="#63b8ff" d="M103.84,-200.73C196.08,-196.01 391.88,-185.98 507.99,-180.04"/>
<polygon fill="#63b8ff" stroke="#63b8ff" points="508.16,-183.49 517.97,-179.48 507.81,-176.49 508.16,-183.49"/>
</a>
</g>
</g>
<!-- Node5 -->
<g id="Node000005" class="node">
<title>Node5</title>
<g id="a_Node000005"><a xlink:href="class_win_pos_wnd_cfg.html#a10a73295ae59c85d651ad0088b235125" target="_top" xlink:title=" ">
<polygon fill="white" stroke="#666666" points="293,-251.34 151,-251.34 151,-231.34 293,-231.34 293,-251.34"/>
<text text-anchor="middle" x="222" y="-237.84" font-family="Helvetica,sans-Serif" font-size="10.00">WinPosWndCfg::getMonitors</text>
</a>
</g>
</g>
<!-- Node1&#45;&gt;Node5 -->
<g id="edge4_Node000001_Node000005" class="edge">
<title>Node1&#45;&gt;Node5</title>
<g id="a_edge4_Node000001_Node000005"><a xlink:title=" ">
<path fill="none" stroke="#63b8ff" d="M99.26,-213.82C119.38,-218.37 143.14,-223.74 164.29,-228.52"/>
<polygon fill="#63b8ff" stroke="#63b8ff" points="163.24,-232.1 173.77,-230.89 164.78,-225.27 163.24,-232.1"/>
</a>
</g>
</g>
<!-- Node6 -->
<g id="Node000006" class="node">
<title>Node6</title>
<g id="a_Node000006"><a xlink:href="class_win_pos_wnd_cfg.html#a1fd1c1c55716a4697a044ae0671cf2aa" target="_top" xlink:title=" ">
<polygon fill="white" stroke="#666666" points="665.5,-81.34 536.25,-81.34 536.25,-61.34 665.5,-61.34 665.5,-81.34"/>
<text text-anchor="middle" x="600.88" y="-67.84" font-family="Helvetica,sans-Serif" font-size="10.00">WinPosWndCfg::getScale</text>
</a>
</g>
</g>
<!-- Node1&#45;&gt;Node6 -->
<g id="edge5_Node000001_Node000006" class="edge">
<title>Node1&#45;&gt;Node6</title>
<g id="a_edge5_Node000001_Node000006"><a xlink:title=" ">
<path fill="none" stroke="#63b8ff" d="M54.61,-193.23C60.34,-163.31 81.74,-75.16 139.75,-40.34 278.54,42.96 485.09,-24.64 565.81,-56.75"/>
<polygon fill="#63b8ff" stroke="#63b8ff" points="564.32,-60.33 574.9,-60.85 566.95,-53.85 564.32,-60.33"/>
</a>
</g>
</g>
<!-- Node7 -->
<g id="Node000007" class="node">
<title>Node7</title>
<g id="a_Node000007"><a xlink:href="class_win_pos_wnd.html#a159d04333920b8b0ab3b8ecc6f6607dd" target="_top" xlink:title=" ">
<polygon fill="white" stroke="#666666" points="304.25,-175.34 139.75,-175.34 139.75,-155.34 304.25,-155.34 304.25,-175.34"/>
<text text-anchor="middle" x="222" y="-161.84" font-family="Helvetica,sans-Serif" font-size="10.00">WinPosWnd::getTotalPreviewRect</text>
</a>
</g>
</g>
<!-- Node1&#45;&gt;Node7 -->
<g id="edge6_Node000001_Node000007" class="edge">
<title>Node1&#45;&gt;Node7</title>
<g id="a_edge6_Node000001_Node000007"><a xlink:title=" ">
<path fill="none" stroke="#63b8ff" d="M99.26,-192.85C119.38,-188.3 143.14,-182.94 164.29,-178.15"/>
<polygon fill="#63b8ff" stroke="#63b8ff" points="164.78,-181.41 173.77,-175.79 163.24,-174.58 164.78,-181.41"/>
</a>
</g>
</g>
<!-- Node8 -->
<g id="Node000008" class="node">
<title>Node8</title>
<g id="a_Node000008"><a xlink:href="class_win_pos_wnd.html#a86ca33ea895961e25e6c1601e420f40e" target="_top" xlink:title="initialize the WNDCLASS structure">
<polygon fill="white" stroke="#666666" points="289.25,-289.34 154.75,-289.34 154.75,-269.34 289.25,-269.34 289.25,-289.34"/>
<text text-anchor="middle" x="222" y="-275.84" font-family="Helvetica,sans-Serif" font-size="10.00">WinPosWnd::initWndClass</text>
</a>
</g>
</g>
<!-- Node1&#45;&gt;Node8 -->
<g id="edge7_Node000001_Node000008" class="edge">
<title>Node1&#45;&gt;Node8</title>
<g id="a_edge7_Node000001_Node000008"><a xlink:title=" ">
<path fill="none" stroke="#63b8ff" d="M65.59,-213.77C81.82,-226.58 111.24,-248.11 139.75,-260.34 144.41,-262.34 149.32,-264.15 154.32,-265.78"/>
<polygon fill="#63b8ff" stroke="#63b8ff" points="153.08,-269.36 163.66,-268.89 155.09,-262.66 153.08,-269.36"/>
</a>
</g>
</g>
<!-- Node11 -->
<g id="Node000011" class="node">
<title>Node11</title>
<g id="a_Node000011"><a xlink:href="struct_win_pos_wnd_1_1_monitor_preview.html#a01fe1b4351422928e43305d1758ae6fb" target="_top" xlink:title="move the rectangle to the cursor position">
<polygon fill="white" stroke="#666666" points="293,-81.34 151,-81.34 151,-49.34 293,-49.34 293,-81.34"/>
<text text-anchor="start" x="159" y="-67.84" font-family="Helvetica,sans-Serif" font-size="10.00">WinPosWnd::MonitorPreview</text>
<text text-anchor="middle" x="222" y="-55.84" font-family="Helvetica,sans-Serif" font-size="10.00">::offsetToPt</text>
</a>
</g>
</g>
<!-- Node1&#45;&gt;Node11 -->
<g id="edge10_Node000001_Node000011" class="edge">
<title>Node1&#45;&gt;Node11</title>
<g id="a_edge10_Node000001_Node000011"><a xlink:title=" ">
<path fill="none" stroke="#63b8ff" d="M58.03,-192.87C69.54,-170.6 99.5,-118.28 139.75,-90.34 141.67,-89 143.66,-87.74 145.72,-86.54"/>
<polygon fill="#63b8ff" stroke="#63b8ff" points="146.77,-89.42 154.02,-81.7 143.54,-83.21 146.77,-89.42"/>
</a>
</g>
</g>
<!-- Node12 -->
<g id="Node000012" class="node">
<title>Node12</title>
<g id="a_Node000012"><a xlink:href="class_win_pos_wnd_cfg.html#a038475d40481960d701d09f6e39467c8" target="_top" xlink:title=" ">
<polygon fill="white" stroke="#666666" points="290.38,-119.34 153.62,-119.34 153.62,-99.34 290.38,-99.34 290.38,-119.34"/>
<text text-anchor="middle" x="222" y="-105.84" font-family="Helvetica,sans-Serif" font-size="10.00">WinPosWndCfg::readConfig</text>
</a>
</g>
</g>
<!-- Node1&#45;&gt;Node12 -->
<g id="edge11_Node000001_Node000012" class="edge">
<title>Node1&#45;&gt;Node12</title>
<g id="a_edge11_Node000001_Node000012"><a xlink:title=" ">
<path fill="none" stroke="#63b8ff" d="M67.21,-192.95C84.09,-180.95 113.21,-160.97 139.75,-146.34 154.38,-138.27 171.11,-130.43 185.56,-124.06"/>
<polygon fill="#63b8ff" stroke="#63b8ff" points="186.84,-126.89 194.62,-119.7 184.05,-120.47 186.84,-126.89"/>
</a>
</g>
</g>
<!-- Node9 -->
<g id="Node000009" class="node">
<title>Node9</title>
<g id="a_Node000009"><a xlink:href="class_win_pos_wnd.html#a104a18975fac2ac85a75eabda629ddb2" target="_top" xlink:title="static WNDPROC. Forwards to the WinPosWnd instances.">
<polygon fill="white" stroke="#666666" points="483,-289.34 340.25,-289.34 340.25,-269.34 483,-269.34 483,-289.34"/>
<text text-anchor="middle" x="411.62" y="-275.84" font-family="Helvetica,sans-Serif" font-size="10.00">WinPosWnd::WndProcStatic</text>
</a>
</g>
</g>
<!-- Node8&#45;&gt;Node9 -->
<g id="edge8_Node000008_Node000009" class="edge">
<title>Node8&#45;&gt;Node9</title>
<g id="a_edge8_Node000008_Node000009"><a xlink:title=" ">
<path fill="none" stroke="#63b8ff" d="M289.68,-279.34C302.43,-279.34 315.92,-279.34 329.08,-279.34"/>
<polygon fill="#63b8ff" stroke="#63b8ff" points="329.03,-282.84 339.03,-279.34 329.03,-275.84 329.03,-282.84"/>
</a>
</g>
</g>
<!-- Node10 -->
<g id="Node000010" class="node">
<title>Node10</title>
<g id="a_Node000010"><a xlink:href="class_win_pos_wnd.html#a5ad8686caf3b8310fff6d4bec255f898" target="_top" xlink:title="get the instance of WinPosWnd to a window handle">
<polygon fill="white" stroke="#666666" points="673.38,-289.34 528.38,-289.34 528.38,-269.34 673.38,-269.34 673.38,-289.34"/>
<text text-anchor="middle" x="600.88" y="-275.84" font-family="Helvetica,sans-Serif" font-size="10.00">WinPosWnd::getWinPosWnd</text>
</a>
</g>
</g>
<!-- Node9&#45;&gt;Node10 -->
<g id="edge9_Node000009_Node000010" class="edge">
<title>Node9&#45;&gt;Node10</title>
<g id="a_edge9_Node000009_Node000010"><a xlink:title=" ">
<path fill="none" stroke="#63b8ff" d="M483.42,-279.34C494.48,-279.34 506,-279.34 517.3,-279.34"/>
<polygon fill="#63b8ff" stroke="#63b8ff" points="517.05,-282.84 527.05,-279.34 517.05,-275.84 517.05,-282.84"/>
</a>
</g>
</g>
<!-- Node12&#45;&gt;Node6 -->
<g id="edge13_Node000012_Node000006" class="edge">
<title>Node12&#45;&gt;Node6</title>
<g id="a_edge13_Node000012_Node000006"><a xlink:title=" ">
<path fill="none" stroke="#63b8ff" d="M290.81,-102.5C356.89,-95.84 457.12,-85.73 525.39,-78.85"/>
<polygon fill="#63b8ff" stroke="#63b8ff" points="525.46,-82.26 535.06,-77.77 524.76,-75.29 525.46,-82.26"/>
</a>
</g>
</g>
<!-- Node12&#45;&gt;Node12 -->
<g id="edge14_Node000012_Node000012" class="edge">
<title>Node12&#45;&gt;Node12</title>
<g id="a_edge14_Node000012_Node000012"><a xlink:title=" ">
<path fill="none" stroke="#63b8ff" d="M194.97,-119.68C183.42,-128.31 192.43,-137.34 222,-137.34 239.56,-137.34 249.87,-134.16 252.93,-129.76"/>
<polygon fill="#63b8ff" stroke="#63b8ff" points="255.9,-128.74 249.03,-120.68 249.37,-131.27 255.9,-128.74"/>
</a>
</g>
</g>
<!-- Node13 -->
<g id="Node000013" class="node">
<title>Node13</title>
<g id="a_Node000013"><a xlink:href="class_win_pos_wnd_cfg.html#a93944e9bbc627a502d59f845b3b1e827" target="_top" xlink:title=" ">
<polygon fill="white" stroke="#666666" points="676.75,-119.34 525,-119.34 525,-99.34 676.75,-99.34 676.75,-119.34"/>
<text text-anchor="middle" x="600.88" y="-105.84" font-family="Helvetica,sans-Serif" font-size="10.00">WinPosWndCfg::getConfigPath</text>
</a>
</g>
</g>
<!-- Node12&#45;&gt;Node13 -->
<g id="edge12_Node000012_Node000013" class="edge">
<title>Node12&#45;&gt;Node13</title>
<g id="a_edge12_Node000012_Node000013"><a xlink:title=" ">
<path fill="none" stroke="#63b8ff" d="M290.81,-109.34C353.27,-109.34 446.24,-109.34 513.89,-109.34"/>
<polygon fill="#63b8ff" stroke="#63b8ff" points="513.52,-112.84 523.52,-109.34 513.52,-105.84 513.52,-112.84"/>
</a>
</g>
</g>
<!-- Node14 -->
<g id="Node000014" class="node">
<title>Node14</title>
<g id="a_Node000014"><a xlink:href="class_win_pos_wnd_cfg.html#a2e024dd316be8cf377996f7be3017acd" target="_top" xlink:title=" ">
<polygon fill="white" stroke="#666666" points="480.75,-157.34 342.5,-157.34 342.5,-137.34 480.75,-137.34 480.75,-157.34"/>
<text text-anchor="middle" x="411.62" y="-143.84" font-family="Helvetica,sans-Serif" font-size="10.00">WinPosWndCfg::writeConfig</text>
</a>
</g>
</g>
<!-- Node12&#45;&gt;Node14 -->
<g id="edge15_Node000012_Node000014" class="edge">
<title>Node12&#45;&gt;Node14</title>
<g id="a_edge15_Node000012_Node000014"><a xlink:title=" ">
<path fill="none" stroke="#63b8ff" d="M274.77,-119.82C297.53,-124.43 324.46,-129.89 348.31,-134.72"/>
<polygon fill="#63b8ff" stroke="#63b8ff" points="347.53,-138.33 358.03,-136.89 348.92,-131.47 347.53,-138.33"/>
</a>
</g>
</g>
<!-- Node14&#45;&gt;Node4 -->
<g id="edge16_Node000014_Node000004" class="edge">
<title>Node14&#45;&gt;Node4</title>
<g id="a_edge16_Node000014_Node000004"><a xlink:title=" ">
<path fill="none" stroke="#63b8ff" d="M481.02,-157.56C493.43,-159.42 506.47,-161.37 519.19,-163.27"/>
<polygon fill="#63b8ff" stroke="#63b8ff" points="518.37,-166.84 528.78,-164.86 519.41,-159.92 518.37,-166.84"/>
</a>
</g>
</g>
<!-- Node14&#45;&gt;Node6 -->
<g id="edge18_Node000014_Node000006" class="edge">
<title>Node14&#45;&gt;Node6</title>
<g id="a_edge18_Node000014_Node000006"><a xlink:title=" ">
<path fill="none" stroke="#63b8ff" d="M428.93,-136.85C449.28,-124.18 485.49,-103 519,-90.34 524.48,-88.27 530.26,-86.37 536.1,-84.66"/>
<polygon fill="#63b8ff" stroke="#63b8ff" points="536.93,-87.78 545.64,-81.75 535.07,-81.03 536.93,-87.78"/>
</a>
</g>
</g>
<!-- Node14&#45;&gt;Node13 -->
<g id="edge17_Node000014_Node000013" class="edge">
<title>Node14&#45;&gt;Node13</title>
<g id="a_edge17_Node000014_Node000013"><a xlink:title=" ">
<path fill="none" stroke="#63b8ff" d="M464.29,-136.85C487.01,-132.24 513.88,-126.79 537.68,-121.96"/>
<polygon fill="#63b8ff" stroke="#63b8ff" points="538.28,-125.21 547.38,-119.79 536.88,-118.35 538.28,-125.21"/>
</a>
</g>
</g>
</g>
</svg>

<g id="navigator" transform="translate(0 0)" fill="#404254">
  <rect fill="#f2f5e9" fill-opacity="0.5" stroke="#606060" stroke-width=".5" x="0" y="0" width="60" height="60"/>
  <use id="zoomplus" xlink:href="#zoomPlus" x="17" y="9" onmousedown="handleZoom(evt,'in')"/>
  <use id="zoomminus" xlink:href="#zoomMin" x="42" y="9" onmousedown="handleZoom(evt,'out')"/>
  <use id="reset" xlink:href="#resetDef" x="30" y="36" onmousedown="handleReset()"/>
   <use id="arrowup" xlink:href="#arrowUp" x="0" y="0" onmousedown="handlePan(0,-1)"/>
  <use id="arrowright" xlink:href="#arrowRight" x="0" y="0" onmousedown="handlePan(1,0)"/>
  <use id="arrowdown" xlink:href="#arrowDown" x="0" y="0" onmousedown="handlePan(0,1)"/>
  <use id="arrowleft" xlink:href="#arrowLeft" x="0" y="0" onmousedown="handlePan(-1,0)"/>
</g>
<svg viewBox="0 0 15 15" width="100%" height="30px" preserveAspectRatio="xMaxYMin meet">
 <g id="arrow_out" transform="scale(0.3 0.3)">
  <a xlink:href="class_win_pos_wnd_abec2e67db5543a717d59b02ab8dbb930_cgraph_org.svg" target="_base">
   <rect id="button" ry="5" rx="5" y="6" x="6" height="38" width="38"
        fill="#f2f5e9" fill-opacity="0.5" stroke="#606060" stroke-width="1.0"/>
   <path id="arrow"
     d="M 11.500037,31.436501 C 11.940474,20.09759 22.043105,11.32322 32.158766,21.979434 L 37.068811,17.246167 C 37.068811,17.246167 37.088388,32 37.088388,32 L 22.160133,31.978069 C 22.160133,31.978069 26.997745,27.140456 26.997745,27.140456 C 18.528582,18.264221 13.291696,25.230495 11.500037,31.436501 z"
     style="fill:#404040;"/>
  </a>
 </g>
</svg>

<style type='text/css'>
<![CDATA[
[data-mouse-over-selected='false'] { opacity: 0.7; }
[data-mouse-over-selected='true']  { opacity: 1.0; }
]]>
</style>
<script type="application/ecmascript"><![CDATA[
document.addEventListener('DOMContentLoaded', (event) => {
  highlightEdges();
  highlightAdjacentNodes();
});
]]></script>
</svg>
