<?xml version="1.0" encoding="UTF-8" standalone="no"?>
<!DOCTYPE svg PUBLIC "-//W3C//DTD SVG 1.1//EN"
 "http://www.w3.org/Graphics/SVG/1.1/DTD/svg11.dtd">
<!-- Generated by graphviz version 9.0.0 (20230911.1827)
 -->
<!-- Title: HooksMgr::detach Pages: 1 -->
<svg width="265pt" height="84pt"
 viewBox="0.00 0.00 265.00 84.00" xmlns="http://www.w3.org/2000/svg" xmlns:xlink="http://www.w3.org/1999/xlink">
<g id="graph0" class="graph" transform="scale(1 1) rotate(0) translate(4 80)">
<title>HooksMgr::detach</title>
<!-- Node1 -->
<g id="Node000001" class="node">
<title>Node1</title>
<g id="a_Node000001"><a xlink:title=" ">
<polygon fill="#999999" stroke="#666666" points="95.5,-48 0,-48 0,-28 95.5,-28 95.5,-48"/>
<text text-anchor="middle" x="47.75" y="-34.5" font-family="Helvetica,sans-Serif" font-size="10.00">HooksMgr::detach</text>
</a>
</g>
</g>
<!-- Node2 -->
<g id="Node000002" class="node">
<title>Node2</title>
<g id="a_Node000002"><a xlink:href="class_hooks_mgr.html#ab884ce8d56cb57743ababa462daad473" target="_top" xlink:title=" ">
<polygon fill="white" stroke="#666666" points="257,-76 131.5,-76 131.5,-56 257,-56 257,-76"/>
<text text-anchor="middle" x="194.25" y="-62.5" font-family="Helvetica,sans-Serif" font-size="10.00">HooksMgr::unhookHooks</text>
</a>
</g>
</g>
<!-- Node1&#45;&gt;Node2 -->
<g id="edge1_Node000001_Node000002" class="edge">
<title>Node1&#45;&gt;Node2</title>
<g id="a_edge1_Node000001_Node000002"><a xlink:title=" ">
<path fill="none" stroke="#63b8ff" d="M95.67,-47.09C106,-49.09 117.13,-51.25 128.04,-53.36"/>
<polygon fill="#63b8ff" stroke="#63b8ff" points="127.32,-56.79 137.81,-55.26 128.66,-49.92 127.32,-56.79"/>
</a>
</g>
</g>
<!-- Node3 -->
<g id="Node000003" class="node">
<title>Node3</title>
<g id="a_Node000003"><a xlink:href="class_hooks_mgr.html#a736b8f72f63d9e27ef9dc5131f082d2f" target="_top" xlink:title=" ">
<polygon fill="white" stroke="#666666" points="252.88,-20 135.62,-20 135.62,0 252.88,0 252.88,-20"/>
<text text-anchor="middle" x="194.25" y="-6.5" font-family="Helvetica,sans-Serif" font-size="10.00">HooksMgr::unloadHook</text>
</a>
</g>
</g>
<!-- Node1&#45;&gt;Node3 -->
<g id="edge2_Node000001_Node000003" class="edge">
<title>Node1&#45;&gt;Node3</title>
<g id="a_edge2_Node000001_Node000003"><a xlink:title=" ">
<path fill="none" stroke="#63b8ff" d="M95.67,-28.91C106,-26.91 117.13,-24.75 128.04,-22.64"/>
<polygon fill="#63b8ff" stroke="#63b8ff" points="128.66,-26.08 137.81,-20.74 127.32,-19.21 128.66,-26.08"/>
</a>
</g>
</g>
<!-- Node3&#45;&gt;Node3 -->
<g id="edge3_Node000003_Node000003" class="edge">
<title>Node3&#45;&gt;Node3</title>
<g id="a_edge3_Node000003_Node000003"><a xlink:title=" ">
<path fill="none" stroke="#63b8ff" d="M170.97,-20.34C161.03,-28.98 168.78,-38 194.25,-38 208.18,-38 216.81,-35.3 220.14,-31.44"/>
<polygon fill="#63b8ff" stroke="#63b8ff" points="223.57,-30.74 217.87,-21.81 216.76,-32.35 223.57,-30.74"/>
</a>
</g>
</g>
</g>
</svg>
