<?xml version="1.0" encoding="UTF-8" standalone="no"?>
<!DOCTYPE svg PUBLIC "-//W3C//DTD SVG 1.1//EN"
 "http://www.w3.org/Graphics/SVG/1.1/DTD/svg11.dtd">
<!-- Generated by graphviz version 8.1.0 (20230707.0739)
 -->
<!-- Title: HooksMgr::unhookHooks Pages: 1 -->
<svg width="588pt" height="66pt"
 viewBox="0.00 0.00 587.50 66.00" xmlns="http://www.w3.org/2000/svg" xmlns:xlink="http://www.w3.org/1999/xlink">
<g id="graph0" class="graph" transform="scale(1 1) rotate(0) translate(4 62)">
<title>HooksMgr::unhookHooks</title>
<!-- Node1 -->
<g id="Node000001" class="node">
<title>Node1</title>
<g id="a_Node000001"><a xlink:title=" ">
<polygon fill="#999999" stroke="#666666" points="579.5,-39 454,-39 454,-19 579.5,-19 579.5,-39"/>
<text text-anchor="middle" x="516.75" y="-25.5" font-family="Helvetica,sans-Serif" font-size="10.00">HooksMgr::unhookHooks</text>
</a>
</g>
</g>
<!-- Node2 -->
<g id="Node000002" class="node">
<title>Node2</title>
<g id="a_Node000002"><a xlink:href="class_hooks_mgr.html#ae9a9a4faaa208c86a71cc564ea70840d" target="_top" xlink:title=" ">
<polygon fill="white" stroke="#666666" points="414.62,-58 319.12,-58 319.12,-38 414.62,-38 414.62,-58"/>
<text text-anchor="middle" x="366.88" y="-44.5" font-family="Helvetica,sans-Serif" font-size="10.00">HooksMgr::detach</text>
</a>
</g>
</g>
<!-- Node1&#45;&gt;Node2 -->
<g id="edge1_Node000001_Node000002" class="edge">
<title>Node1&#45;&gt;Node2</title>
<g id="a_edge1_Node000001_Node000002"><a xlink:title=" ">
<path fill="none" stroke="#63b8ff" d="M443.17,-38.33C433.62,-39.55 424.05,-40.78 415.08,-41.93"/>
<polygon fill="#63b8ff" stroke="#63b8ff" points="443.42,-41.69 452.89,-36.95 442.53,-34.75 443.42,-41.69"/>
</a>
</g>
</g>
<!-- Node3 -->
<g id="Node000003" class="node">
<title>Node3</title>
<g id="a_Node000003"><a xlink:href="class_hooks_mgr.html#a8d8a1f3354a8073433cb5365c6c8bcf5" target="_top" xlink:title=" ">
<polygon fill="white" stroke="#666666" points="418,-20 315.75,-20 315.75,0 418,0 418,-20"/>
<text text-anchor="middle" x="366.88" y="-6.5" font-family="Helvetica,sans-Serif" font-size="10.00">HooksMgr::uninstall</text>
</a>
</g>
</g>
<!-- Node1&#45;&gt;Node3 -->
<g id="edge2_Node000001_Node000003" class="edge">
<title>Node1&#45;&gt;Node3</title>
<g id="a_edge2_Node000001_Node000003"><a xlink:title=" ">
<path fill="none" stroke="#63b8ff" d="M443.24,-19.68C434.79,-18.6 426.32,-17.51 418.27,-16.47"/>
<polygon fill="#63b8ff" stroke="#63b8ff" points="442.53,-23.25 452.89,-21.05 443.42,-16.31 442.53,-23.25"/>
</a>
</g>
</g>
<!-- Node4 -->
<g id="Node000004" class="node">
<title>Node4</title>
<g id="a_Node000004"><a xlink:href="wi_npo_s-_app_8cpp.html#a30a1e3b0304f1b083637664cbda94e72" target="_top" xlink:title="the main window procedure of this app">
<polygon fill="white" stroke="#666666" points="279.75,-20 223.25,-20 223.25,0 279.75,0 279.75,-20"/>
<text text-anchor="middle" x="251.5" y="-6.5" font-family="Helvetica,sans-Serif" font-size="10.00">WndProc</text>
</a>
</g>
</g>
<!-- Node3&#45;&gt;Node4 -->
<g id="edge3_Node000003_Node000004" class="edge">
<title>Node3&#45;&gt;Node4</title>
<g id="a_edge3_Node000003_Node000004"><a xlink:title=" ">
<path fill="none" stroke="#63b8ff" d="M304.59,-10C296,-10 287.56,-10 280.05,-10"/>
<polygon fill="#63b8ff" stroke="#63b8ff" points="304.49,-13.5 314.49,-10 304.49,-6.5 304.49,-13.5"/>
</a>
</g>
</g>
<!-- Node5 -->
<g id="Node000005" class="node">
<title>Node5</title>
<g id="a_Node000005"><a xlink:href="wi_npo_s-_app_8cpp.html#aa0d0c9beb94350f8eac8fc4026a65375" target="_top" xlink:title=" ">
<polygon fill="white" stroke="#666666" points="187.25,-20 97,-20 97,0 187.25,0 187.25,-20"/>
<text text-anchor="middle" x="142.12" y="-6.5" font-family="Helvetica,sans-Serif" font-size="10.00">MyRegisterClass</text>
</a>
</g>
</g>
<!-- Node4&#45;&gt;Node5 -->
<g id="edge4_Node000004_Node000005" class="edge">
<title>Node4&#45;&gt;Node5</title>
<g id="a_edge4_Node000004_Node000005"><a xlink:title=" ">
<path fill="none" stroke="#63b8ff" d="M211.97,-10C203.99,-10 195.52,-10 187.35,-10"/>
<polygon fill="#63b8ff" stroke="#63b8ff" points="211.85,-13.5 221.85,-10 211.85,-6.5 211.85,-13.5"/>
</a>
</g>
</g>
<!-- Node6 -->
<g id="Node000006" class="node">
<title>Node6</title>
<g id="a_Node000006"><a xlink:href="wi_npo_s-_app_8cpp.html#a8c6630df6bab43efe8254a603885b62e" target="_top" xlink:title=" ">
<polygon fill="white" stroke="#666666" points="61,-20 0,-20 0,0 61,0 61,-20"/>
<text text-anchor="middle" x="30.5" y="-6.5" font-family="Helvetica,sans-Serif" font-size="10.00">wWinMain</text>
</a>
</g>
</g>
<!-- Node5&#45;&gt;Node6 -->
<g id="edge5_Node000005_Node000006" class="edge">
<title>Node5&#45;&gt;Node6</title>
<g id="a_edge5_Node000005_Node000006"><a xlink:title=" ">
<path fill="none" stroke="#63b8ff" d="M85.58,-10C77.21,-10 68.86,-10 61.31,-10"/>
<polygon fill="#63b8ff" stroke="#63b8ff" points="85.54,-13.5 95.54,-10 85.54,-6.5 85.54,-13.5"/>
</a>
</g>
</g>
</g>
</svg>
