<?xml version="1.0" encoding="UTF-8" standalone="no"?>
<!DOCTYPE svg PUBLIC "-//W3C//DTD SVG 1.1//EN"
 "http://www.w3.org/Graphics/SVG/1.1/DTD/svg11.dtd">
<!-- Generated by graphviz version 8.1.0 (20230707.0739)
 -->
<!-- Title: WinPosWnd Pages: 1 -->
<svg width="1848pt" height="589pt"
 viewBox="0.00 0.00 1847.55 589.00" xmlns="http://www.w3.org/2000/svg" xmlns:xlink="http://www.w3.org/1999/xlink">
<g id="graph0" class="graph" transform="scale(1 1) rotate(0) translate(4 585)">
<title>WinPosWnd</title>
<!-- Node1 -->
<g id="Node000001" class="node">
<title>Node1</title>
<g id="a_Node000001"><a xlink:title=" ">
<polygon fill="#999999" stroke="#666666" points="727.18,-196 656.43,-196 656.43,-176 727.18,-176 727.18,-196"/>
<text text-anchor="middle" x="691.8" y="-182.5" font-family="Helvetica,sans-Serif" font-size="10.00">WinPosWnd</text>
</a>
</g>
</g>
<!-- Node3 -->
<g id="Node000003" class="node">
<title>Node3</title>
<g id="a_Node000003"><a xlink:title=" ">
<polygon fill="white" stroke="#666666" points="1063.3,-116 893.55,-116 893.55,-96 1063.3,-96 1063.3,-116"/>
<text text-anchor="middle" x="978.43" y="-102.5" font-family="Helvetica,sans-Serif" font-size="10.00">std::map&lt; HWND, WinPosWnd * &gt;</text>
</a>
</g>
</g>
<!-- Node1&#45;&gt;Node3 -->
<g id="edge4_Node000003_Node000001" class="edge">
<title>Node1&#45;&gt;Node3</title>
<g id="a_edge4_Node000003_Node000001"><a xlink:title=" ">
<path fill="none" stroke="#9a32cd" stroke-dasharray="5,2" d="M738.05,-181.48C775.53,-176.94 829.86,-168.48 875.55,-154 906.12,-144.32 939.33,-127.34 959.25,-116.39"/>
<polygon fill="#9a32cd" stroke="#9a32cd" points="738,-178.08 728.47,-182.72 738.81,-185.03 738,-178.08"/>
</a>
</g>
<text text-anchor="middle" x="829.43" y="-176.5" font-family="Helvetica,sans-Serif" font-size="10.00" fill="grey"> elements</text>
</g>
<!-- Node12 -->
<g id="Node000012" class="node">
<title>Node12</title>
<g id="a_Node000012"><a xlink:href="struct_win_pos_wnd_1_1_monitor_preview.html" target="_top" xlink:title=" ">
<polygon fill="white" stroke="#666666" points="1049.43,-355 907.43,-355 907.43,-335 1049.43,-335 1049.43,-355"/>
<text text-anchor="middle" x="978.43" y="-341.5" font-family="Helvetica,sans-Serif" font-size="10.00">WinPosWnd::MonitorPreview</text>
</a>
</g>
</g>
<!-- Node1&#45;&gt;Node12 -->
<g id="edge15_Node000012_Node000001" class="edge">
<title>Node1&#45;&gt;Node12</title>
<g id="a_edge15_Node000012_Node000001"><a xlink:title=" ">
<path fill="none" stroke="#9a32cd" stroke-dasharray="5,2" d="M720.74,-201.61C778.52,-233.89 909.85,-307.25 958.68,-334.53"/>
<polygon fill="#9a32cd" stroke="#9a32cd" points="722.91,-198.25 712.48,-196.43 719.5,-204.36 722.91,-198.25"/>
</a>
</g>
<text text-anchor="middle" x="829.43" y="-286.5" font-family="Helvetica,sans-Serif" font-size="10.00" fill="grey"> winPosWnd</text>
</g>
<!-- Node2 -->
<g id="Node000002" class="node">
<title>Node2</title>
<g id="a_Node000002"><a xlink:title=" ">
<polygon fill="white" stroke="#666666" points="463.8,-204 331.55,-204 331.55,-184 463.8,-184 463.8,-204"/>
<text text-anchor="middle" x="397.68" y="-190.5" font-family="Helvetica,sans-Serif" font-size="10.00">static const WNDCLASS *</text>
</a>
</g>
</g>
<!-- Node2&#45;&gt;Node1 -->
<g id="edge1_Node000001_Node000002" class="edge">
<title>Node2&#45;&gt;Node1</title>
<g id="a_edge1_Node000001_Node000002"><a xlink:title=" ">
<path fill="none" stroke="#9a32cd" stroke-dasharray="5,2" d="M474.93,-187.34C477.24,-187.21 479.54,-187.1 481.8,-187 543.06,-184.28 614.52,-184.71 656.02,-185.32"/>
<polygon fill="#9a32cd" stroke="#9a32cd" points="474.75,-183.91 464.99,-188.01 475.18,-190.89 474.75,-183.91"/>
</a>
</g>
<text text-anchor="middle" x="541.05" y="-189.5" font-family="Helvetica,sans-Serif" font-size="10.00" fill="grey"> wndClass</text>
</g>
<!-- Node3&#45;&gt;Node1 -->
<g id="edge2_Node000001_Node000003" class="edge">
<title>Node3&#45;&gt;Node1</title>
<g id="a_edge2_Node000001_Node000003"><a xlink:title=" ">
<path fill="none" stroke="#9a32cd" stroke-dasharray="5,2" d="M883.26,-118.22C851.08,-123.77 815.18,-131.51 783.3,-142 756.91,-150.68 728.39,-165.55 710.57,-175.58"/>
<polygon fill="#9a32cd" stroke="#9a32cd" points="883.73,-121.53 893.01,-116.42 882.57,-114.62 883.73,-121.53"/>
</a>
</g>
<text text-anchor="middle" x="829.43" y="-144.5" font-family="Helvetica,sans-Serif" font-size="10.00" fill="grey"> hWndToWinPosMap</text>
</g>
<!-- Node4 -->
<g id="Node000004" class="node">
<title>Node4</title>
<g id="a_Node000004"><a xlink:title=" ">
<polygon fill="white" stroke="#666666" points="175.68,-128 129.68,-128 129.68,-108 175.68,-108 175.68,-128"/>
<text text-anchor="middle" x="152.68" y="-114.5" font-family="Helvetica,sans-Serif" font-size="10.00">HWND</text>
</a>
</g>
</g>
<!-- Node4&#45;&gt;Node3 -->
<g id="edge3_Node000003_Node000004" class="edge">
<title>Node4&#45;&gt;Node3</title>
<g id="a_edge3_Node000003_Node000004"><a xlink:title=" ">
<path fill="none" stroke="#9a32cd" stroke-dasharray="5,2" d="M186.82,-113.39C222.48,-108.69 280.9,-101.7 331.55,-99 532.83,-88.28 769.88,-96.07 893.23,-101.65"/>
<polygon fill="#9a32cd" stroke="#9a32cd" points="186.52,-110.04 177.08,-114.83 187.45,-116.97 186.52,-110.04"/>
</a>
</g>
<text text-anchor="middle" x="541.05" y="-96.5" font-family="Helvetica,sans-Serif" font-size="10.00" fill="grey"> keys</text>
</g>
<!-- Node8 -->
<g id="Node000008" class="node">
<title>Node8</title>
<g id="a_Node000008"><a xlink:title=" ">
<polygon fill="white" stroke="#666666" points="452.18,-128 343.18,-128 343.18,-108 452.18,-108 452.18,-128"/>
<text text-anchor="middle" x="397.68" y="-114.5" font-family="Helvetica,sans-Serif" font-size="10.00">std::vector&lt; HWND &gt;</text>
</a>
</g>
</g>
<!-- Node4&#45;&gt;Node8 -->
<g id="edge9_Node000008_Node000004" class="edge">
<title>Node4&#45;&gt;Node8</title>
<g id="a_edge9_Node000008_Node000004"><a xlink:title=" ">
<path fill="none" stroke="#9a32cd" stroke-dasharray="5,2" d="M186.88,-118C227,-118 295.06,-118 342.75,-118"/>
<polygon fill="#9a32cd" stroke="#9a32cd" points="187.1,-114.5 177.1,-118 187.1,-121.5 187.1,-114.5"/>
</a>
</g>
<text text-anchor="middle" x="264.68" y="-120.5" font-family="Helvetica,sans-Serif" font-size="10.00" fill="grey"> elements</text>
</g>
<!-- Node4&#45;&gt;Node12 -->
<g id="edge16_Node000012_Node000004" class="edge">
<title>Node4&#45;&gt;Node12</title>
<g id="a_edge16_Node000012_Node000004"><a xlink:title=" ">
<path fill="none" stroke="#9a32cd" stroke-dasharray="5,2" d="M159.7,-138.54C168.36,-165.04 186.58,-211.27 215.8,-241 256.56,-282.47 276.33,-283.78 331.55,-302 532.19,-368.19 786.46,-360.35 907.39,-351.52"/>
<polygon fill="#9a32cd" stroke="#9a32cd" points="162.79,-137.69 156.48,-129.18 156.11,-139.77 162.79,-137.69"/>
</a>
</g>
<text text-anchor="middle" x="541.05" y="-353.5" font-family="Helvetica,sans-Serif" font-size="10.00" fill="grey"> hWnd</text>
</g>
<!-- Node5 -->
<g id="Node000005" class="node">
<title>Node5</title>
<g id="a_Node000005"><a xlink:title=" ">
<polygon fill="white" stroke="#666666" points="197.8,-84 107.55,-84 107.55,-64 197.8,-64 197.8,-84"/>
<text text-anchor="middle" x="152.68" y="-70.5" font-family="Helvetica,sans-Serif" font-size="10.00">std::map&lt; K, T &gt;</text>
</a>
</g>
</g>
<!-- Node5&#45;&gt;Node3 -->
<g id="edge5_Node000003_Node000005" class="edge">
<title>Node5&#45;&gt;Node3</title>
<g id="a_edge5_Node000003_Node000005"><a xlink:title=" ">
<path fill="none" stroke="orange" stroke-dasharray="5,2" d="M208.97,-72.97C330.07,-71.25 627.69,-70.01 875.55,-93 883.36,-93.72 891.5,-94.58 899.62,-95.51"/>
<polygon fill="orange" stroke="orange" points="209.1,-69.48 199.15,-73.13 209.21,-76.48 209.1,-69.48"/>
</a>
</g>
<text text-anchor="middle" x="541.05" y="-78.5" font-family="Helvetica,sans-Serif" font-size="10.00" fill="grey"> &lt; HWND, WinPosWnd * &gt;</text>
</g>
<!-- Node6 -->
<g id="Node000006" class="node">
<title>Node6</title>
<g id="a_Node000006"><a xlink:title=" ">
<polygon fill="white" stroke="#666666" points="28.8,-84 0,-84 0,-64 28.8,-64 28.8,-84"/>
<text text-anchor="middle" x="14.4" y="-70.5" font-family="Helvetica,sans-Serif" font-size="10.00">K</text>
</a>
</g>
</g>
<!-- Node6&#45;&gt;Node5 -->
<g id="edge6_Node000005_Node000006" class="edge">
<title>Node6&#45;&gt;Node5</title>
<g id="a_edge6_Node000005_Node000006"><a xlink:title=" ">
<path fill="none" stroke="#9a32cd" stroke-dasharray="5,2" d="M40.02,-74C58.67,-74 84.81,-74 107.1,-74"/>
<polygon fill="#9a32cd" stroke="#9a32cd" points="40.22,-70.5 30.22,-74 40.22,-77.5 40.22,-70.5"/>
</a>
</g>
<text text-anchor="middle" x="68.18" y="-76.5" font-family="Helvetica,sans-Serif" font-size="10.00" fill="grey"> keys</text>
</g>
<!-- Node7 -->
<g id="Node000007" class="node">
<title>Node7</title>
<g id="a_Node000007"><a xlink:title=" ">
<polygon fill="white" stroke="#666666" points="28.8,-161 0,-161 0,-141 28.8,-141 28.8,-161"/>
<text text-anchor="middle" x="14.4" y="-147.5" font-family="Helvetica,sans-Serif" font-size="10.00">T</text>
</a>
</g>
</g>
<!-- Node7&#45;&gt;Node5 -->
<g id="edge7_Node000005_Node000007" class="edge">
<title>Node7&#45;&gt;Node5</title>
<g id="a_edge7_Node000005_Node000007"><a xlink:title=" ">
<path fill="none" stroke="#9a32cd" stroke-dasharray="5,2" d="M38.6,-137.89C65.44,-122.73 109.04,-98.09 133.52,-84.26"/>
<polygon fill="#9a32cd" stroke="#9a32cd" points="37.2,-135.23 30.22,-143.19 40.64,-141.32 37.2,-135.23"/>
</a>
</g>
<text text-anchor="middle" x="68.18" y="-134.5" font-family="Helvetica,sans-Serif" font-size="10.00" fill="grey"> elements</text>
</g>
<!-- Node9 -->
<g id="Node000009" class="node">
<title>Node9</title>
<g id="a_Node000009"><a xlink:title=" ">
<polygon fill="white" stroke="#666666" points="194.8,-310 110.55,-310 110.55,-290 194.8,-290 194.8,-310"/>
<text text-anchor="middle" x="152.68" y="-296.5" font-family="Helvetica,sans-Serif" font-size="10.00">std::vector&lt; T &gt;</text>
</a>
</g>
</g>
<!-- Node7&#45;&gt;Node9 -->
<g id="edge11_Node000009_Node000007" class="edge">
<title>Node7&#45;&gt;Node9</title>
<g id="a_edge11_Node000009_Node000007"><a xlink:title=" ">
<path fill="none" stroke="#9a32cd" stroke-dasharray="5,2" d="M32.08,-169.23C60.97,-200.82 119.42,-264.73 142.24,-289.69"/>
<polygon fill="#9a32cd" stroke="#9a32cd" points="35.1,-167.26 25.77,-162.24 29.93,-171.98 35.1,-167.26"/>
</a>
</g>
<text text-anchor="middle" x="68.18" y="-231.5" font-family="Helvetica,sans-Serif" font-size="10.00" fill="grey"> elements</text>
</g>
<!-- Node17 -->
<g id="Node000017" class="node">
<title>Node17</title>
<g id="a_Node000017"><a xlink:title=" ">
<polygon fill="white" stroke="#666666" points="449.93,-541 345.43,-541 345.43,-521 449.93,-521 449.93,-541"/>
<text text-anchor="middle" x="397.68" y="-527.5" font-family="Helvetica,sans-Serif" font-size="10.00">std::shared_ptr&lt; T &gt;</text>
</a>
</g>
</g>
<!-- Node7&#45;&gt;Node17 -->
<g id="edge22_Node000017_Node000007" class="edge">
<title>Node7&#45;&gt;Node17</title>
<g id="a_edge22_Node000017_Node000007"><a xlink:title=" ">
<path fill="none" stroke="#9a32cd" stroke-dasharray="5,2" d="M19.9,-171.94C34.79,-235.46 88.89,-426.56 215.8,-507 254.33,-531.42 306.74,-535.96 345.23,-535.26"/>
<polygon fill="#9a32cd" stroke="#9a32cd" points="23.12,-171.29 17.5,-162.31 16.29,-172.83 23.12,-171.29"/>
</a>
</g>
<text text-anchor="middle" x="152.68" y="-507.5" font-family="Helvetica,sans-Serif" font-size="10.00" fill="grey"> dummy</text>
<text text-anchor="middle" x="152.68" y="-495.5" font-family="Helvetica,sans-Serif" font-size="10.00" fill="grey">ptr</text>
</g>
<!-- Node21 -->
<g id="Node000021" class="node">
<title>Node21</title>
<g id="a_Node000021"><a xlink:title=" ">
<polygon fill="white" stroke="#666666" points="313.55,-20 215.8,-20 215.8,0 313.55,0 313.55,-20"/>
<text text-anchor="middle" x="264.68" y="-6.5" font-family="Helvetica,sans-Serif" font-size="10.00">std::weak_ptr&lt; T &gt;</text>
</a>
</g>
</g>
<!-- Node7&#45;&gt;Node21 -->
<g id="edge31_Node000021_Node000007" class="edge">
<title>Node7&#45;&gt;Node21</title>
<g id="a_edge31_Node000021_Node000007"><a xlink:title=" ">
<path fill="none" stroke="#9a32cd" stroke-dasharray="5,2" d="M19.98,-129.91C25.69,-105.58 36.01,-67.68 46.8,-58 93,-16.53 166.87,-8.23 215.33,-7.79"/>
<polygon fill="#9a32cd" stroke="#9a32cd" points="16.36,-129.05 17.57,-139.58 23.19,-130.6 16.36,-129.05"/>
</a>
</g>
<text text-anchor="middle" x="68.18" y="-60.5" font-family="Helvetica,sans-Serif" font-size="10.00" fill="grey"> ptr</text>
</g>
<!-- Node8&#45;&gt;Node1 -->
<g id="edge8_Node000001_Node000008" class="edge">
<title>Node8&#45;&gt;Node1</title>
<g id="a_edge8_Node000001_Node000008"><a xlink:title=" ">
<path fill="none" stroke="#9a32cd" stroke-dasharray="5,2" d="M463.26,-120.21C503.38,-122.92 555.62,-128.89 600.3,-142 627.29,-149.92 656.13,-165.28 673.81,-175.59"/>
<polygon fill="#9a32cd" stroke="#9a32cd" points="463.48,-116.65 453.29,-119.53 463.05,-123.64 463.48,-116.65"/>
</a>
</g>
<text text-anchor="middle" x="541.05" y="-144.5" font-family="Helvetica,sans-Serif" font-size="10.00" fill="grey"> _hWnds</text>
</g>
<!-- Node9&#45;&gt;Node8 -->
<g id="edge10_Node000008_Node000009" class="edge">
<title>Node9&#45;&gt;Node8</title>
<g id="a_edge10_Node000008_Node000009"><a xlink:title=" ">
<path fill="none" stroke="orange" stroke-dasharray="5,2" d="M168.75,-281.42C197.11,-247.7 261.82,-176.26 331.55,-137 337.6,-133.59 344.33,-130.74 351.09,-128.38"/>
<polygon fill="orange" stroke="orange" points="165.43,-278.95 161.75,-288.88 170.82,-283.41 165.43,-278.95"/>
</a>
</g>
<text text-anchor="middle" x="264.68" y="-227.5" font-family="Helvetica,sans-Serif" font-size="10.00" fill="grey"> &lt; HWND &gt;</text>
</g>
<!-- Node10 -->
<g id="Node000010" class="node">
<title>Node10</title>
<g id="a_Node000010"><a xlink:title=" ">
<polygon fill="white" stroke="#666666" points="1591.8,-479 1467.05,-479 1467.05,-447 1591.8,-447 1591.8,-479"/>
<text text-anchor="start" x="1475.05" y="-465.5" font-family="Helvetica,sans-Serif" font-size="10.00">std::vector&lt; std::shared</text>
<text text-anchor="middle" x="1529.43" y="-453.5" font-family="Helvetica,sans-Serif" font-size="10.00">_ptr&lt; MonitorPreview &gt; &gt;</text>
</a>
</g>
</g>
<!-- Node9&#45;&gt;Node10 -->
<g id="edge34_Node000010_Node000009" class="edge">
<title>Node9&#45;&gt;Node10</title>
<g id="a_edge34_Node000010_Node000009"><a xlink:title=" ">
<path fill="none" stroke="orange" stroke-dasharray="5,2" d="M163.64,-319.8C174.33,-339.43 192.9,-369.33 215.8,-389 310.49,-470.3 358.27,-461.23 481.8,-479 853.22,-532.43 951.33,-507.87 1326.05,-488 1376.47,-485.33 1389.22,-485.47 1439.3,-479 1448.19,-477.85 1457.53,-476.42 1466.7,-474.89"/>
<polygon fill="orange" stroke="orange" points="166.41,-318.55 158.66,-311.33 160.22,-321.81 166.41,-318.55"/>
</a>
</g>
<text text-anchor="start" x="786.3" y="-525.5" font-family="Helvetica,sans-Serif" font-size="10.00" fill="grey"> &lt; std::shared_ptr&lt;</text>
<text text-anchor="middle" x="829.43" y="-513.5" font-family="Helvetica,sans-Serif" font-size="10.00" fill="grey"> MonitorPreview &gt; &gt;</text>
</g>
<!-- Node16 -->
<g id="Node000016" class="node">
<title>Node16</title>
<g id="a_Node000016"><a xlink:title=" ">
<polygon fill="white" stroke="#666666" points="760.55,-458 623.05,-458 623.05,-426 760.55,-426 760.55,-458"/>
<text text-anchor="start" x="631.05" y="-444.5" font-family="Helvetica,sans-Serif" font-size="10.00">std::vector&lt; WinPosPreview</text>
<text text-anchor="middle" x="691.8" y="-432.5" font-family="Helvetica,sans-Serif" font-size="10.00">Ptr &gt;</text>
</a>
</g>
</g>
<!-- Node9&#45;&gt;Node16 -->
<g id="edge23_Node000016_Node000009" class="edge">
<title>Node9&#45;&gt;Node16</title>
<g id="a_edge23_Node000016_Node000009"><a xlink:title=" ">
<path fill="none" stroke="orange" stroke-dasharray="5,2" d="M172.34,-317.37C184.22,-327.89 200.25,-341.13 215.8,-351 263.89,-381.52 276.68,-390.71 331.55,-406 430.28,-433.51 549.43,-440.56 622.65,-442.07"/>
<polygon fill="orange" stroke="orange" points="175.26,-315.38 165.49,-311.27 170.57,-320.57 175.26,-315.38"/>
</a>
</g>
<text text-anchor="middle" x="397.68" y="-432.5" font-family="Helvetica,sans-Serif" font-size="10.00" fill="grey"> &lt; WinPosPreviewPtr &gt;</text>
</g>
<!-- Node10&#45;&gt;Node1 -->
<g id="edge12_Node000001_Node000010" class="edge">
<title>Node10&#45;&gt;Node1</title>
<g id="a_edge12_Node000001_Node000010"><a xlink:title=" ">
<path fill="none" stroke="#9a32cd" stroke-dasharray="5,2" d="M1456.31,-447.74C1343.56,-422.49 1133.02,-369.28 1081.3,-314 1059.65,-290.86 1086.77,-266.29 1063.3,-245 1038.52,-222.52 814.78,-198.11 727.47,-189.36"/>
<polygon fill="#9a32cd" stroke="#9a32cd" points="1455.39,-451.34 1465.91,-450.1 1456.91,-444.51 1455.39,-451.34"/>
</a>
</g>
<text text-anchor="middle" x="1125.55" y="-365.5" font-family="Helvetica,sans-Serif" font-size="10.00" fill="grey"> _previews</text>
</g>
<!-- Node11 -->
<g id="Node000011" class="node">
<title>Node11</title>
<g id="a_Node000011"><a xlink:title=" ">
<polygon fill="white" stroke="#666666" points="1318.18,-479 1195.68,-479 1195.68,-447 1318.18,-447 1318.18,-479"/>
<text text-anchor="start" x="1203.68" y="-465.5" font-family="Helvetica,sans-Serif" font-size="10.00">std::shared_ptr&lt; Monitor</text>
<text text-anchor="middle" x="1256.93" y="-453.5" font-family="Helvetica,sans-Serif" font-size="10.00">Preview &gt;</text>
</a>
</g>
</g>
<!-- Node11&#45;&gt;Node10 -->
<g id="edge13_Node000010_Node000011" class="edge">
<title>Node11&#45;&gt;Node10</title>
<g id="a_edge13_Node000010_Node000011"><a xlink:title=" ">
<path fill="none" stroke="#9a32cd" stroke-dasharray="5,2" d="M1329.54,-463C1372.33,-463 1426.13,-463 1466.99,-463"/>
<polygon fill="#9a32cd" stroke="#9a32cd" points="1329.63,-459.5 1319.63,-463 1329.63,-466.5 1329.63,-459.5"/>
</a>
</g>
<text text-anchor="middle" x="1391.68" y="-465.5" font-family="Helvetica,sans-Serif" font-size="10.00" fill="grey"> elements</text>
</g>
<!-- Node12&#45;&gt;Node11 -->
<g id="edge14_Node000011_Node000012" class="edge">
<title>Node12&#45;&gt;Node11</title>
<g id="a_edge14_Node000011_Node000012"><a xlink:title=" ">
<path fill="none" stroke="#9a32cd" stroke-dasharray="5,2" d="M997.22,-362.83C1016.34,-380.98 1048.46,-408.55 1081.3,-424 1091.77,-428.93 1149.21,-441.33 1195.39,-450.84"/>
<polygon fill="#9a32cd" stroke="#9a32cd" points="1000,-360.69 990.38,-356.24 995.13,-365.72 1000,-360.69"/>
</a>
</g>
<text text-anchor="middle" x="1125.55" y="-458.5" font-family="Helvetica,sans-Serif" font-size="10.00" fill="grey"> dummy</text>
<text text-anchor="middle" x="1125.55" y="-446.5" font-family="Helvetica,sans-Serif" font-size="10.00" fill="grey">ptr</text>
</g>
<!-- Node20 -->
<g id="Node000020" class="node">
<title>Node20</title>
<g id="a_Node000020"><a xlink:title=" ">
<polygon fill="white" stroke="#666666" points="1326.05,-239 1187.8,-239 1187.8,-207 1326.05,-207 1326.05,-239"/>
<text text-anchor="start" x="1195.8" y="-225.5" font-family="Helvetica,sans-Serif" font-size="10.00">std::weak_ptr&lt; WinPosWnd</text>
<text text-anchor="middle" x="1256.93" y="-213.5" font-family="Helvetica,sans-Serif" font-size="10.00">::MonitorPreview &gt;</text>
</a>
</g>
</g>
<!-- Node12&#45;&gt;Node20 -->
<g id="edge29_Node000020_Node000012" class="edge">
<title>Node12&#45;&gt;Node20</title>
<g id="a_edge29_Node000020_Node000012"><a xlink:title=" ">
<path fill="none" stroke="#9a32cd" stroke-dasharray="5,2" d="M1013.03,-330.17C1064.98,-307.25 1164.42,-263.37 1218.56,-239.49"/>
<polygon fill="#9a32cd" stroke="#9a32cd" points="1011.74,-327.36 1004,-334.6 1014.56,-333.76 1011.74,-327.36"/>
</a>
</g>
<text text-anchor="middle" x="1125.55" y="-300.5" font-family="Helvetica,sans-Serif" font-size="10.00" fill="grey"> ptr</text>
</g>
<!-- Node13 -->
<g id="Node000013" class="node">
<title>Node13</title>
<g id="a_Node000013"><a xlink:title=" ">
<polygon fill="white" stroke="#666666" points="418.43,-293 376.93,-293 376.93,-273 418.43,-273 418.43,-293"/>
<text text-anchor="middle" x="397.68" y="-279.5" font-family="Helvetica,sans-Serif" font-size="10.00">RECT</text>
</a>
</g>
</g>
<!-- Node13&#45;&gt;Node1 -->
<g id="edge35_Node000001_Node000013" class="edge">
<title>Node13&#45;&gt;Node1</title>
<g id="a_edge35_Node000001_Node000013"><a xlink:title=" ">
<path fill="none" stroke="#9a32cd" stroke-dasharray="5,2" d="M428.82,-272.68C444.5,-267.54 464.05,-261.48 481.8,-257 533.82,-243.86 549.72,-251.88 600.3,-234 627.8,-224.28 657.21,-207.32 674.79,-196.38"/>
<polygon fill="#9a32cd" stroke="#9a32cd" points="428.04,-269.59 419.65,-276.06 430.25,-276.23 428.04,-269.59"/>
</a>
</g>
<text text-anchor="middle" x="541.05" y="-259.5" font-family="Helvetica,sans-Serif" font-size="10.00" fill="grey"> _totalRect</text>
</g>
<!-- Node13&#45;&gt;Node12 -->
<g id="edge17_Node000012_Node000013" class="edge">
<title>Node13&#45;&gt;Node12</title>
<g id="a_edge17_Node000012_Node000013"><a xlink:title=" ">
<path fill="none" stroke="#9a32cd" stroke-dasharray="5,2" d="M429.48,-287.32C445.13,-289.46 464.46,-292 481.8,-294 607.58,-308.53 639.36,-308.95 765.3,-322 812.65,-326.9 865.91,-332.68 907.22,-337.22"/>
<polygon fill="#9a32cd" stroke="#9a32cd" points="430.19,-283.75 419.81,-285.85 429.24,-290.69 430.19,-283.75"/>
</a>
</g>
<text text-anchor="middle" x="691.8" y="-336.5" font-family="Helvetica,sans-Serif" font-size="10.00" fill="grey"> monitorRect</text>
<text text-anchor="middle" x="691.8" y="-324.5" font-family="Helvetica,sans-Serif" font-size="10.00" fill="grey">prvRect</text>
</g>
<!-- Node19 -->
<g id="Node000019" class="node">
<title>Node19</title>
<g id="a_Node000019"><a xlink:href="struct_win_pos_wnd_1_1_win_pos_preview.html" target="_top" xlink:title=" ">
<polygon fill="white" stroke="#666666" points="1601.55,-286 1457.3,-286 1457.3,-266 1601.55,-266 1601.55,-286"/>
<text text-anchor="middle" x="1529.43" y="-272.5" font-family="Helvetica,sans-Serif" font-size="10.00">WinPosWnd::WinPosPreview</text>
</a>
</g>
</g>
<!-- Node13&#45;&gt;Node19 -->
<g id="edge26_Node000019_Node000013" class="edge">
<title>Node13&#45;&gt;Node19</title>
<g id="a_edge26_Node000019_Node000013"><a xlink:title=" ">
<path fill="none" stroke="#9a32cd" stroke-dasharray="5,2" d="M429.42,-282.25C494.63,-280.7 651.63,-277.2 783.3,-276 1030.69,-273.75 1324.31,-274.86 1457.01,-275.57"/>
<polygon fill="#9a32cd" stroke="#9a32cd" points="429.61,-278.77 419.69,-282.51 429.77,-285.77 429.61,-278.77"/>
</a>
</g>
<text text-anchor="middle" x="978.43" y="-289.5" font-family="Helvetica,sans-Serif" font-size="10.00" fill="grey"> prvRect</text>
<text text-anchor="middle" x="978.43" y="-277.5" font-family="Helvetica,sans-Serif" font-size="10.00" fill="grey">wndRect</text>
</g>
<!-- Node14 -->
<g id="Node000014" class="node">
<title>Node14</title>
<g id="a_Node000014"><a xlink:title=" ">
<polygon fill="white" stroke="#666666" points="721.55,-408 662.05,-408 662.05,-388 721.55,-388 721.55,-408"/>
<text text-anchor="middle" x="691.8" y="-394.5" font-family="Helvetica,sans-Serif" font-size="10.00">std::string</text>
</a>
</g>
</g>
<!-- Node14&#45;&gt;Node12 -->
<g id="edge18_Node000012_Node000014" class="edge">
<title>Node14&#45;&gt;Node12</title>
<g id="a_edge18_Node000012_Node000014"><a xlink:title=" ">
<path fill="none" stroke="#9a32cd" stroke-dasharray="5,2" d="M732.25,-390.57C748.11,-387.59 766.57,-384.12 783.3,-381 829.63,-372.35 882.19,-362.61 920.93,-355.44"/>
<polygon fill="#9a32cd" stroke="#9a32cd" points="731.92,-387.26 722.73,-392.55 733.21,-394.14 731.92,-387.26"/>
</a>
</g>
<text text-anchor="middle" x="829.43" y="-395.5" font-family="Helvetica,sans-Serif" font-size="10.00" fill="grey"> device</text>
<text text-anchor="middle" x="829.43" y="-383.5" font-family="Helvetica,sans-Serif" font-size="10.00" fill="grey">name</text>
</g>
<!-- Node14&#45;&gt;Node19 -->
<g id="edge27_Node000019_Node000014" class="edge">
<title>Node14&#45;&gt;Node19</title>
<g id="a_edge27_Node000019_Node000014"><a xlink:title=" ">
<path fill="none" stroke="#9a32cd" stroke-dasharray="5,2" d="M732.31,-403.48C743.6,-406.29 755.49,-410.55 765.3,-417 776.15,-424.13 771.63,-434.31 783.3,-440 820.16,-457.96 834.7,-443.51 875.55,-440 941.67,-434.31 1105.31,-404.67 1169.8,-389 1234.26,-373.33 1422.42,-311.31 1497.23,-286.42"/>
<polygon fill="#9a32cd" stroke="#9a32cd" points="733.26,-399.88 722.75,-401.19 731.78,-406.73 733.26,-399.88"/>
</a>
</g>
<text text-anchor="middle" x="1125.55" y="-409.5" font-family="Helvetica,sans-Serif" font-size="10.00" fill="grey"> name</text>
</g>
<!-- Node15 -->
<g id="Node000015" class="node">
<title>Node15</title>
<g id="a_Node000015"><a xlink:title=" ">
<polygon fill="white" stroke="#666666" points="444.68,-397 350.68,-397 350.68,-365 444.68,-365 444.68,-397"/>
<text text-anchor="start" x="358.68" y="-383.5" font-family="Helvetica,sans-Serif" font-size="10.00">std::basic_string&lt;</text>
<text text-anchor="middle" x="397.68" y="-371.5" font-family="Helvetica,sans-Serif" font-size="10.00"> Char &gt;</text>
</a>
</g>
</g>
<!-- Node15&#45;&gt;Node14 -->
<g id="edge19_Node000014_Node000015" class="edge">
<title>Node15&#45;&gt;Node14</title>
<g id="a_edge19_Node000014_Node000015"><a xlink:title=" ">
<path fill="none" stroke="#63b8ff" d="M455.7,-384.32C517.5,-387.91 613.67,-393.51 661.59,-396.3"/>
<polygon fill="#63b8ff" stroke="#63b8ff" points="456.15,-380.78 445.96,-383.69 455.74,-387.77 456.15,-380.78"/>
</a>
</g>
</g>
<!-- Node16&#45;&gt;Node12 -->
<g id="edge20_Node000012_Node000016" class="edge">
<title>Node16&#45;&gt;Node12</title>
<g id="a_edge20_Node000012_Node000016"><a xlink:title=" ">
<path fill="none" stroke="#9a32cd" stroke-dasharray="5,2" d="M771.21,-432C804.14,-426.31 842.41,-417.7 875.55,-405 909.09,-392.14 944.38,-368.83 963.36,-355.36"/>
<polygon fill="#9a32cd" stroke="#9a32cd" points="771.01,-428.65 761.72,-433.75 772.16,-435.56 771.01,-428.65"/>
</a>
</g>
<text text-anchor="middle" x="829.43" y="-431.5" font-family="Helvetica,sans-Serif" font-size="10.00" fill="grey"> previews</text>
</g>
<!-- Node17&#45;&gt;Node11 -->
<g id="edge33_Node000011_Node000017" class="edge">
<title>Node17&#45;&gt;Node11</title>
<g id="a_edge33_Node000011_Node000017"><a xlink:title=" ">
<path fill="none" stroke="orange" stroke-dasharray="5,2" d="M461.06,-528.08C500.96,-525.87 553.77,-522.29 600.3,-517 682.12,-507.69 701.37,-496.27 783.3,-488 954.38,-470.74 998.26,-482.73 1169.8,-471 1178.04,-470.44 1186.71,-469.75 1195.26,-469.01"/>
<polygon fill="orange" stroke="orange" points="460.97,-524.64 451.17,-528.67 461.34,-531.63 460.97,-524.64"/>
</a>
</g>
<text text-anchor="middle" x="829.43" y="-490.5" font-family="Helvetica,sans-Serif" font-size="10.00" fill="grey"> &lt; MonitorPreview &gt;</text>
</g>
<!-- Node17&#45;&gt;Node16 -->
<g id="edge21_Node000016_Node000017" class="edge">
<title>Node17&#45;&gt;Node16</title>
<g id="a_edge21_Node000016_Node000017"><a xlink:title=" ">
<path fill="none" stroke="#9a32cd" stroke-dasharray="5,2" d="M442.19,-517.29C454.95,-513.3 468.93,-508.95 481.8,-505 533.97,-488.98 593.58,-471.05 635.75,-458.43"/>
<polygon fill="#9a32cd" stroke="#9a32cd" points="441.31,-514.22 432.82,-520.55 443.41,-520.9 441.31,-514.22"/>
</a>
</g>
<text text-anchor="middle" x="541.05" y="-507.5" font-family="Helvetica,sans-Serif" font-size="10.00" fill="grey"> elements</text>
</g>
<!-- Node18 -->
<g id="Node000018" class="node">
<title>Node18</title>
<g id="a_Node000018"><a xlink:title=" ">
<polygon fill="white" stroke="#666666" points="1839.55,-353 1672.8,-353 1672.8,-333 1839.55,-333 1839.55,-353"/>
<text text-anchor="middle" x="1756.18" y="-339.5" font-family="Helvetica,sans-Serif" font-size="10.00">std::shared_ptr&lt; WinPosPreview &gt;</text>
</a>
</g>
</g>
<!-- Node17&#45;&gt;Node18 -->
<g id="edge32_Node000018_Node000017" class="edge">
<title>Node17&#45;&gt;Node18</title>
<g id="a_edge32_Node000018_Node000017"><a xlink:title=" ">
<path fill="none" stroke="orange" stroke-dasharray="5,2" d="M459.15,-543.51C518.02,-554.58 610.15,-569 690.8,-569 690.8,-569 690.8,-569 1530.43,-569 1653.82,-569 1732.78,-397.51 1751.09,-353.3"/>
<polygon fill="orange" stroke="orange" points="460.04,-539.92 449.56,-541.48 458.72,-546.8 460.04,-539.92"/>
</a>
</g>
<text text-anchor="middle" x="1125.55" y="-571.5" font-family="Helvetica,sans-Serif" font-size="10.00" fill="grey"> &lt; WinPosPreview &gt;</text>
</g>
<!-- Node18&#45;&gt;Node12 -->
<g id="edge24_Node000012_Node000018" class="edge">
<title>Node18&#45;&gt;Node12</title>
<g id="a_edge24_Node000012_Node000018"><a xlink:title=" ">
<path fill="none" stroke="#9a32cd" stroke-dasharray="5,2" d="M1661.79,-343.24C1504.41,-343.65 1189.82,-344.46 1049.64,-344.82"/>
<polygon fill="#9a32cd" stroke="#9a32cd" points="1661.4,-346.74 1671.39,-343.21 1661.38,-339.74 1661.4,-346.74"/>
</a>
</g>
<text text-anchor="middle" x="1391.68" y="-346.5" font-family="Helvetica,sans-Serif" font-size="10.00" fill="grey"> activeWinPosPreview</text>
</g>
<!-- Node19&#45;&gt;Node18 -->
<g id="edge25_Node000018_Node000019" class="edge">
<title>Node19&#45;&gt;Node18</title>
<g id="a_edge25_Node000018_Node000019"><a xlink:title=" ">
<path fill="none" stroke="#9a32cd" stroke-dasharray="5,2" d="M1592.8,-288.84C1612.75,-293.4 1634.84,-298.92 1654.8,-305 1681,-312.98 1710.21,-324.32 1730.33,-332.54"/>
<polygon fill="#9a32cd" stroke="#9a32cd" points="1593.79,-285.25 1583.27,-286.47 1592.26,-292.08 1593.79,-285.25"/>
</a>
</g>
<text text-anchor="middle" x="1637.18" y="-319.5" font-family="Helvetica,sans-Serif" font-size="10.00" fill="grey"> dummy</text>
<text text-anchor="middle" x="1637.18" y="-307.5" font-family="Helvetica,sans-Serif" font-size="10.00" fill="grey">ptr</text>
</g>
<!-- Node20&#45;&gt;Node19 -->
<g id="edge28_Node000019_Node000020" class="edge">
<title>Node20&#45;&gt;Node19</title>
<g id="a_edge28_Node000019_Node000020"><a xlink:title=" ">
<path fill="none" stroke="#9a32cd" stroke-dasharray="5,2" d="M1336.95,-226.11C1369.05,-228.59 1406.27,-233.04 1439.3,-241 1463.22,-246.77 1489.27,-257.56 1506.99,-265.65"/>
<polygon fill="#9a32cd" stroke="#9a32cd" points="1337.5,-222.56 1327.28,-225.34 1337,-229.55 1337.5,-222.56"/>
</a>
</g>
<text text-anchor="middle" x="1391.68" y="-243.5" font-family="Helvetica,sans-Serif" font-size="10.00" fill="grey"> monitorPreview</text>
</g>
<!-- Node21&#45;&gt;Node20 -->
<g id="edge30_Node000020_Node000021" class="edge">
<title>Node21&#45;&gt;Node20</title>
<g id="a_edge30_Node000020_Node000021"><a xlink:title=" ">
<path fill="none" stroke="orange" stroke-dasharray="5,2" d="M324.43,-7.3C379.98,-4.97 465.66,-2 540.05,-2 540.05,-2 540.05,-2 979.43,-2 1110.63,-2 1215.3,-155.71 1246.44,-206.75"/>
<polygon fill="orange" stroke="orange" points="324.58,-3.83 314.74,-7.75 324.88,-10.82 324.58,-3.83"/>
</a>
</g>
<text text-anchor="middle" x="691.8" y="-4.5" font-family="Helvetica,sans-Serif" font-size="10.00" fill="grey"> &lt; WinPosWnd::MonitorPreview &gt;</text>
</g>
<!-- Node22 -->
<g id="Node000022" class="node">
<title>Node22</title>
<g id="a_Node000022"><a xlink:title=" ">
<polygon fill="white" stroke="#666666" points="416.18,-166 379.18,-166 379.18,-146 416.18,-146 416.18,-166"/>
<text text-anchor="middle" x="397.68" y="-152.5" font-family="Helvetica,sans-Serif" font-size="10.00">UINT</text>
</a>
</g>
</g>
<!-- Node22&#45;&gt;Node1 -->
<g id="edge36_Node000001_Node000022" class="edge">
<title>Node22&#45;&gt;Node1</title>
<g id="a_edge36_Node000001_Node000022"><a xlink:title=" ">
<path fill="none" stroke="#9a32cd" stroke-dasharray="5,2" d="M427.38,-156.47C466.59,-157.4 539.02,-160.12 600.3,-168 618.89,-170.39 639.39,-174.36 656.17,-177.96"/>
<polygon fill="#9a32cd" stroke="#9a32cd" points="427.62,-152.96 417.55,-156.24 427.48,-159.96 427.62,-152.96"/>
</a>
</g>
<text text-anchor="middle" x="541.05" y="-170.5" font-family="Helvetica,sans-Serif" font-size="10.00" fill="grey"> _closeTimeout</text>
</g>
<!-- Node23 -->
<g id="Node000023" class="node">
<title>Node23</title>
<g id="a_Node000023"><a xlink:title=" ">
<polygon fill="white" stroke="#666666" points="421.05,-242 374.3,-242 374.3,-222 421.05,-222 421.05,-242"/>
<text text-anchor="middle" x="397.68" y="-228.5" font-family="Helvetica,sans-Serif" font-size="10.00">FLOAT</text>
</a>
</g>
</g>
<!-- Node23&#45;&gt;Node1 -->
<g id="edge37_Node000001_Node000023" class="edge">
<title>Node23&#45;&gt;Node1</title>
<g id="a_edge37_Node000001_Node000023"><a xlink:title=" ">
<path fill="none" stroke="#9a32cd" stroke-dasharray="5,2" d="M431.8,-226.78C487.6,-218 599.75,-200.34 656.39,-191.42"/>
<polygon fill="#9a32cd" stroke="#9a32cd" points="431.45,-223.45 422.11,-228.47 432.54,-230.37 431.45,-223.45"/>
</a>
</g>
<text text-anchor="middle" x="541.05" y="-220.5" font-family="Helvetica,sans-Serif" font-size="10.00" fill="grey"> _scale</text>
</g>
</g>
</svg>
