<?xml version="1.0" encoding="UTF-8" standalone="no"?>
<!DOCTYPE svg PUBLIC "-//W3C//DTD SVG 1.1//EN"
 "http://www.w3.org/Graphics/SVG/1.1/DTD/svg11.dtd">
<!-- Generated by graphviz version 9.0.0 (20230911.1827)
 -->
<!-- Title: HooksImpl::hasLastRect Pages: 1 -->
<svg width="1099pt" height="78pt"
 viewBox="0.00 0.00 1099.00 78.00" xmlns="http://www.w3.org/2000/svg" xmlns:xlink="http://www.w3.org/1999/xlink">
<g id="graph0" class="graph" transform="scale(1 1) rotate(0) translate(4 74)">
<title>HooksImpl::hasLastRect</title>
<!-- Node1 -->
<g id="Node000001" class="node">
<title>Node1</title>
<g id="a_Node000001"><a xlink:title=" ">
<polygon fill="#999999" stroke="#666666" points="1091,-42 968.5,-42 968.5,-22 1091,-22 1091,-42"/>
<text text-anchor="middle" x="1029.75" y="-28.5" font-family="Helvetica,sans-Serif" font-size="10.00">HooksImpl::hasLastRect</text>
</a>
</g>
</g>
<!-- Node2 -->
<g id="Node000002" class="node">
<title>Node2</title>
<g id="a_Node000002"><a xlink:href="class_hooks_impl.html#afe7a8e2c13ab2abe83b4f3d0c462e761" target="_top" xlink:title="this procedure handles the double click in non&#45;client area">
<polygon fill="white" stroke="#666666" points="917.5,-70 779.25,-70 779.25,-38 917.5,-38 917.5,-70"/>
<text text-anchor="start" x="787.25" y="-56.5" font-family="Helvetica,sans-Serif" font-size="10.00">HooksImpl::onNcLButtonDbl</text>
<text text-anchor="middle" x="848.38" y="-44.5" font-family="Helvetica,sans-Serif" font-size="10.00">Click</text>
</a>
</g>
</g>
<!-- Node1&#45;&gt;Node2 -->
<g id="edge1_Node000001_Node000002" class="edge">
<title>Node1&#45;&gt;Node2</title>
<g id="a_edge1_Node000001_Node000002"><a xlink:title=" ">
<path fill="none" stroke="#63b8ff" d="M956.85,-40.82C943.95,-42.4 930.55,-44.04 917.76,-45.61"/>
<polygon fill="#63b8ff" stroke="#63b8ff" points="957.02,-44.32 966.52,-39.63 956.17,-37.38 957.02,-44.32"/>
</a>
</g>
</g>
<!-- Node11 -->
<g id="Node000011" class="node">
<title>Node11</title>
<g id="a_Node000011"><a xlink:href="class_hooks_impl.html#a1022c4a7b4012228b83b0b89ee790f89" target="_top" xlink:title="here we react to position changes of the main window">
<polygon fill="white" stroke="#666666" points="932.5,-20 764.25,-20 764.25,0 932.5,0 932.5,-20"/>
<text text-anchor="middle" x="848.38" y="-6.5" font-family="Helvetica,sans-Serif" font-size="10.00">HooksImpl::onWindowPosChanged</text>
</a>
</g>
</g>
<!-- Node1&#45;&gt;Node11 -->
<g id="edge10_Node000001_Node000011" class="edge">
<title>Node1&#45;&gt;Node11</title>
<g id="a_edge10_Node000001_Node000011"><a xlink:title=" ">
<path fill="none" stroke="#63b8ff" d="M956.72,-23.17C948.9,-22.21 940.89,-21.22 932.95,-20.25"/>
<polygon fill="#63b8ff" stroke="#63b8ff" points="956.17,-26.62 966.52,-24.37 957.02,-19.68 956.17,-26.62"/>
</a>
</g>
</g>
<!-- Node3 -->
<g id="Node000003" class="node">
<title>Node3</title>
<g id="a_Node000003"><a xlink:href="class_hooks_impl.html#a07053e18c49265e300fe89b2a5bc28de" target="_top" xlink:title="here the Windows messages are picked up, which do not appear in the main message loop">
<polygon fill="white" stroke="#666666" points="726.75,-63 606.5,-63 606.5,-43 726.75,-43 726.75,-63"/>
<text text-anchor="middle" x="666.62" y="-49.5" font-family="Helvetica,sans-Serif" font-size="10.00">HooksImpl::getMsgProc</text>
</a>
</g>
</g>
<!-- Node2&#45;&gt;Node3 -->
<g id="edge2_Node000002_Node000003" class="edge">
<title>Node2&#45;&gt;Node3</title>
<g id="a_edge2_Node000002_Node000003"><a xlink:title=" ">
<path fill="none" stroke="#63b8ff" d="M767.58,-53.56C753.97,-53.48 740.05,-53.4 727.09,-53.33"/>
<polygon fill="#63b8ff" stroke="#63b8ff" points="767.37,-57.05 777.39,-53.61 767.41,-50.05 767.37,-57.05"/>
</a>
</g>
</g>
<!-- Node4 -->
<g id="Node000004" class="node">
<title>Node4</title>
<g id="a_Node000004"><a xlink:href="_hooks_impl_8cpp.html#ab9f4b48939788d5aa0f404323b16a957" target="_top" xlink:title="the exported hook for the windows&#45;message procedure">
<polygon fill="white" stroke="#666666" points="567.88,-62 497.12,-62 497.12,-42 567.88,-42 567.88,-62"/>
<text text-anchor="middle" x="532.5" y="-48.5" font-family="Helvetica,sans-Serif" font-size="10.00">GetMsgProc</text>
</a>
</g>
</g>
<!-- Node3&#45;&gt;Node4 -->
<g id="edge3_Node000003_Node000004" class="edge">
<title>Node3&#45;&gt;Node4</title>
<g id="a_edge3_Node000003_Node000004"><a xlink:title=" ">
<path fill="none" stroke="#63b8ff" d="M594.81,-52.46C585.54,-52.39 576.39,-52.32 568.11,-52.26"/>
<polygon fill="#63b8ff" stroke="#63b8ff" points="594.59,-55.96 604.62,-52.54 594.65,-48.96 594.59,-55.96"/>
</a>
</g>
</g>
<!-- Node5 -->
<g id="Node000005" class="node">
<title>Node5</title>
<g id="a_Node000005"><a xlink:href="class_hooks_mgr.html#a7cfb009127366d7236f5c05c2e4f9ab3" target="_top" xlink:title=" ">
<polygon fill="white" stroke="#666666" points="452.12,-62 360.38,-62 360.38,-42 452.12,-42 452.12,-62"/>
<text text-anchor="middle" x="406.25" y="-48.5" font-family="Helvetica,sans-Serif" font-size="10.00">HooksMgr::install</text>
</a>
</g>
</g>
<!-- Node4&#45;&gt;Node5 -->
<g id="edge4_Node000004_Node000005" class="edge">
<title>Node4&#45;&gt;Node5</title>
<g id="a_edge4_Node000004_Node000005"><a xlink:title=" ">
<path fill="none" stroke="#63b8ff" d="M485.49,-52C474.67,-52 463.15,-52 452.37,-52"/>
<polygon fill="#63b8ff" stroke="#63b8ff" points="485.38,-55.5 495.38,-52 485.38,-48.5 485.38,-55.5"/>
</a>
</g>
</g>
<!-- Node9 -->
<g id="Node000009" class="node">
<title>Node9</title>
<g id="a_Node000009"><a xlink:href="class_hooks_mgr.html#a25aacc981b80470642a51175ee56ba01" target="_top" xlink:title=" ">
<polygon fill="white" stroke="#666666" points="460,-24 352.5,-24 352.5,-4 460,-4 460,-24"/>
<text text-anchor="middle" x="406.25" y="-10.5" font-family="Helvetica,sans-Serif" font-size="10.00">HooksMgr::setHooks</text>
</a>
</g>
</g>
<!-- Node4&#45;&gt;Node9 -->
<g id="edge8_Node000004_Node000009" class="edge">
<title>Node4&#45;&gt;Node9</title>
<g id="a_edge8_Node000004_Node000009"><a xlink:title=" ">
<path fill="none" stroke="#63b8ff" d="M486.23,-38.16C471.44,-33.63 455.26,-28.68 441.42,-24.45"/>
<polygon fill="#63b8ff" stroke="#63b8ff" points="485.19,-41.5 495.77,-41.07 487.23,-34.8 485.19,-41.5"/>
</a>
</g>
</g>
<!-- Node6 -->
<g id="Node000006" class="node">
<title>Node6</title>
<g id="a_Node000006"><a xlink:href="wi_npo_s-_app_8cpp.html#a30a1e3b0304f1b083637664cbda94e72" target="_top" xlink:title="the main window procedure of this app">
<polygon fill="white" stroke="#666666" points="298.12,-62 241.62,-62 241.62,-42 298.12,-42 298.12,-62"/>
<text text-anchor="middle" x="269.88" y="-48.5" font-family="Helvetica,sans-Serif" font-size="10.00">WndProc</text>
</a>
</g>
</g>
<!-- Node5&#45;&gt;Node6 -->
<g id="edge5_Node000005_Node000006" class="edge">
<title>Node5&#45;&gt;Node6</title>
<g id="a_edge5_Node000005_Node000006"><a xlink:title=" ">
<path fill="none" stroke="#63b8ff" d="M348.87,-52C331.44,-52 313.01,-52 298.45,-52"/>
<polygon fill="#63b8ff" stroke="#63b8ff" points="348.62,-55.5 358.62,-52 348.62,-48.5 348.62,-55.5"/>
</a>
</g>
</g>
<!-- Node7 -->
<g id="Node000007" class="node">
<title>Node7</title>
<g id="a_Node000007"><a xlink:href="wi_npo_s-_app_8cpp.html#aa0d0c9beb94350f8eac8fc4026a65375" target="_top" xlink:title=" ">
<polygon fill="white" stroke="#666666" points="187.25,-62 97,-62 97,-42 187.25,-42 187.25,-62"/>
<text text-anchor="middle" x="142.12" y="-48.5" font-family="Helvetica,sans-Serif" font-size="10.00">MyRegisterClass</text>
</a>
</g>
</g>
<!-- Node6&#45;&gt;Node7 -->
<g id="edge6_Node000006_Node000007" class="edge">
<title>Node6&#45;&gt;Node7</title>
<g id="a_edge6_Node000006_Node000007"><a xlink:title=" ">
<path fill="none" stroke="#63b8ff" d="M229.97,-52C216.51,-52 201.32,-52 187.46,-52"/>
<polygon fill="#63b8ff" stroke="#63b8ff" points="229.77,-55.5 239.77,-52 229.77,-48.5 229.77,-55.5"/>
</a>
</g>
</g>
<!-- Node8 -->
<g id="Node000008" class="node">
<title>Node8</title>
<g id="a_Node000008"><a xlink:href="wi_npo_s-_app_8cpp.html#a8c6630df6bab43efe8254a603885b62e" target="_top" xlink:title=" ">
<polygon fill="white" stroke="#666666" points="61,-62 0,-62 0,-42 61,-42 61,-62"/>
<text text-anchor="middle" x="30.5" y="-48.5" font-family="Helvetica,sans-Serif" font-size="10.00">wWinMain</text>
</a>
</g>
</g>
<!-- Node7&#45;&gt;Node8 -->
<g id="edge7_Node000007_Node000008" class="edge">
<title>Node7&#45;&gt;Node8</title>
<g id="a_edge7_Node000007_Node000008"><a xlink:title=" ">
<path fill="none" stroke="#63b8ff" d="M85.3,-52C77.02,-52 68.77,-52 61.31,-52"/>
<polygon fill="#63b8ff" stroke="#63b8ff" points="85.02,-55.5 95.02,-52 85.02,-48.5 85.02,-55.5"/>
</a>
</g>
</g>
<!-- Node10 -->
<g id="Node000010" class="node">
<title>Node10</title>
<g id="a_Node000010"><a xlink:href="class_hooks_mgr.html#a5f8aa4cd119cb5d489b0a6f1a2971a79" target="_top" xlink:title=" ">
<polygon fill="white" stroke="#666666" points="316.5,-24 223.25,-24 223.25,-4 316.5,-4 316.5,-24"/>
<text text-anchor="middle" x="269.88" y="-10.5" font-family="Helvetica,sans-Serif" font-size="10.00">HooksMgr::attach</text>
</a>
</g>
</g>
<!-- Node9&#45;&gt;Node10 -->
<g id="edge9_Node000009_Node000010" class="edge">
<title>Node9&#45;&gt;Node10</title>
<g id="a_edge9_Node000009_Node000010"><a xlink:title=" ">
<path fill="none" stroke="#63b8ff" d="M340.73,-14C332.59,-14 324.41,-14 316.65,-14"/>
<polygon fill="#63b8ff" stroke="#63b8ff" points="340.63,-17.5 350.63,-14 340.63,-10.5 340.63,-17.5"/>
</a>
</g>
</g>
<!-- Node12 -->
<g id="Node000012" class="node">
<title>Node12</title>
<g id="a_Node000012"><a xlink:href="class_hooks_impl.html#a10c087a169c357990bf12340347e2fc0" target="_top" xlink:title="here we follow the main message loop of the application">
<polygon fill="white" stroke="#666666" points="728.25,-23 605,-23 605,-3 728.25,-3 728.25,-23"/>
<text text-anchor="middle" x="666.62" y="-9.5" font-family="Helvetica,sans-Serif" font-size="10.00">HooksImpl::callWndProc</text>
</a>
</g>
</g>
<!-- Node11&#45;&gt;Node12 -->
<g id="edge11_Node000011_Node000012" class="edge">
<title>Node11&#45;&gt;Node12</title>
<g id="a_edge11_Node000011_Node000012"><a xlink:title=" ">
<path fill="none" stroke="#63b8ff" d="M752.43,-11.58C744.39,-11.72 736.4,-11.85 728.72,-11.98"/>
<polygon fill="#63b8ff" stroke="#63b8ff" points="752.36,-15.09 762.3,-11.42 752.24,-8.09 752.36,-15.09"/>
</a>
</g>
</g>
<!-- Node13 -->
<g id="Node000013" class="node">
<title>Node13</title>
<g id="a_Node000013"><a xlink:href="_hooks_impl_8cpp.html#adae4ff67fba416ac992fe973d90abc58" target="_top" xlink:title="the exported hook for the main window procedure">
<polygon fill="white" stroke="#666666" points="569,-24 496,-24 496,-4 569,-4 569,-24"/>
<text text-anchor="middle" x="532.5" y="-10.5" font-family="Helvetica,sans-Serif" font-size="10.00">CallWndProc</text>
</a>
</g>
</g>
<!-- Node12&#45;&gt;Node13 -->
<g id="edge12_Node000012_Node000013" class="edge">
<title>Node12&#45;&gt;Node13</title>
<g id="a_edge12_Node000012_Node000013"><a xlink:title=" ">
<path fill="none" stroke="#63b8ff" d="M593.29,-13.55C585.03,-13.61 576.9,-13.67 569.42,-13.73"/>
<polygon fill="#63b8ff" stroke="#63b8ff" points="593.1,-17.05 603.08,-13.47 593.05,-10.05 593.1,-17.05"/>
</a>
</g>
</g>
<!-- Node13&#45;&gt;Node5 -->
<g id="edge13_Node000013_Node000005" class="edge">
<title>Node13&#45;&gt;Node5</title>
<g id="a_edge13_Node000013_Node000005"><a xlink:title=" ">
<path fill="none" stroke="#63b8ff" d="M486.23,-27.84C471.44,-32.37 455.26,-37.32 441.42,-41.55"/>
<polygon fill="#63b8ff" stroke="#63b8ff" points="487.23,-31.2 495.77,-24.93 485.19,-24.5 487.23,-31.2"/>
</a>
</g>
</g>
<!-- Node13&#45;&gt;Node9 -->
<g id="edge14_Node000013_Node000009" class="edge">
<title>Node13&#45;&gt;Node9</title>
<g id="a_edge14_Node000013_Node000009"><a xlink:title=" ">
<path fill="none" stroke="#63b8ff" d="M484.05,-14C476.25,-14 468.13,-14 460.21,-14"/>
<polygon fill="#63b8ff" stroke="#63b8ff" points="484.05,-17.5 494.05,-14 484.05,-10.5 484.05,-17.5"/>
</a>
</g>
</g>
</g>
</svg>
