<?xml version="1.0" encoding="UTF-8" standalone="no"?>
<!DOCTYPE svg PUBLIC "-//W3C//DTD SVG 1.1//EN"
 "http://www.w3.org/Graphics/SVG/1.1/DTD/svg11.dtd">
<!-- Generated by graphviz version 8.1.0 (20230707.0739)
 -->
<!-- Title: HooksMgr::setHooks Pages: 1 -->
<svg width="1535pt" height="553pt"
 viewBox="0.00 0.00 1535.00 553.00" xmlns="http://www.w3.org/2000/svg" xmlns:xlink="http://www.w3.org/1999/xlink">
<g id="graph0" class="graph" transform="scale(1 1) rotate(0) translate(4 549)">
<title>HooksMgr::setHooks</title>
<!-- Node1 -->
<g id="Node000001" class="node">
<title>Node1</title>
<g id="a_Node000001"><a xlink:title=" ">
<polygon fill="#999999" stroke="#666666" points="107.5,-450 0,-450 0,-430 107.5,-430 107.5,-450"/>
<text text-anchor="middle" x="53.75" y="-436.5" font-family="Helvetica,sans-Serif" font-size="10.00">HooksMgr::setHooks</text>
</a>
</g>
</g>
<!-- Node2 -->
<g id="Node000002" class="node">
<title>Node2</title>
<g id="a_Node000002"><a xlink:href="_hooks_impl_8cpp.html#adae4ff67fba416ac992fe973d90abc58" target="_top" xlink:title="the exported hook for the main window procedure">
<polygon fill="white" stroke="#666666" points="216.5,-469 143.5,-469 143.5,-449 216.5,-449 216.5,-469"/>
<text text-anchor="middle" x="180" y="-455.5" font-family="Helvetica,sans-Serif" font-size="10.00">CallWndProc</text>
</a>
</g>
</g>
<!-- Node1&#45;&gt;Node2 -->
<g id="edge1_Node000001_Node000002" class="edge">
<title>Node1&#45;&gt;Node2</title>
<g id="a_edge1_Node000001_Node000002"><a xlink:title=" ">
<path fill="none" stroke="#63b8ff" d="M107.8,-448.11C116.06,-449.37 124.53,-450.67 132.62,-451.91"/>
<polygon fill="#63b8ff" stroke="#63b8ff" points="131.94,-455.5 142.36,-453.55 133,-448.58 131.94,-455.5"/>
</a>
</g>
</g>
<!-- Node12 -->
<g id="Node000012" class="node">
<title>Node12</title>
<g id="a_Node000012"><a xlink:href="_hooks_impl_8cpp.html#ab9f4b48939788d5aa0f404323b16a957" target="_top" xlink:title="the exported hook for the windows&#45;message procedure">
<polygon fill="white" stroke="#666666" points="215.38,-431 144.62,-431 144.62,-411 215.38,-411 215.38,-431"/>
<text text-anchor="middle" x="180" y="-417.5" font-family="Helvetica,sans-Serif" font-size="10.00">GetMsgProc</text>
</a>
</g>
</g>
<!-- Node1&#45;&gt;Node12 -->
<g id="edge11_Node000001_Node000012" class="edge">
<title>Node1&#45;&gt;Node12</title>
<g id="a_edge11_Node000001_Node000012"><a xlink:title=" ">
<path fill="none" stroke="#63b8ff" d="M107.8,-431.89C116.43,-430.57 125.29,-429.21 133.7,-427.93"/>
<polygon fill="#63b8ff" stroke="#63b8ff" points="134.09,-431.25 143.45,-426.28 133.03,-424.34 134.09,-431.25"/>
</a>
</g>
</g>
<!-- Node3 -->
<g id="Node000003" class="node">
<title>Node3</title>
<g id="a_Node000003"><a xlink:href="class_hooks_impl.html#a10c087a169c357990bf12340347e2fc0" target="_top" xlink:title="here we follow the main message loop of the application">
<polygon fill="white" stroke="#666666" points="375.75,-488 252.5,-488 252.5,-468 375.75,-468 375.75,-488"/>
<text text-anchor="middle" x="314.12" y="-474.5" font-family="Helvetica,sans-Serif" font-size="10.00">HooksImpl::callWndProc</text>
</a>
</g>
</g>
<!-- Node2&#45;&gt;Node3 -->
<g id="edge2_Node000002_Node000003" class="edge">
<title>Node2&#45;&gt;Node3</title>
<g id="a_edge2_Node000002_Node000003"><a xlink:title=" ">
<path fill="none" stroke="#63b8ff" d="M216.75,-464.14C224.44,-465.25 232.82,-466.45 241.33,-467.68"/>
<polygon fill="#63b8ff" stroke="#63b8ff" points="240.74,-471.27 251.14,-469.23 241.74,-464.34 240.74,-471.27"/>
</a>
</g>
</g>
<!-- Node7 -->
<g id="Node000007" class="node">
<title>Node7</title>
<g id="a_Node000007"><a xlink:href="class_hooks_cfg.html#ab994ae67a05ce4decf5b7af5314eb913" target="_top" xlink:title="check if someone has disabled stored in config">
<polygon fill="white" stroke="#666666" points="368.62,-450 259.62,-450 259.62,-430 368.62,-430 368.62,-450"/>
<text text-anchor="middle" x="314.12" y="-436.5" font-family="Helvetica,sans-Serif" font-size="10.00">HooksCfg::isDisabled</text>
</a>
</g>
</g>
<!-- Node2&#45;&gt;Node7 -->
<g id="edge6_Node000002_Node000007" class="edge">
<title>Node2&#45;&gt;Node7</title>
<g id="a_edge6_Node000002_Node000007"><a xlink:title=" ">
<path fill="none" stroke="#63b8ff" d="M216.75,-453.86C226.56,-452.45 237.49,-450.88 248.38,-449.31"/>
<polygon fill="#63b8ff" stroke="#63b8ff" points="248.81,-452.64 258.21,-447.75 247.82,-445.71 248.81,-452.64"/>
</a>
</g>
</g>
<!-- Node4 -->
<g id="Node000004" class="node">
<title>Node4</title>
<g id="a_Node000004"><a xlink:href="class_hooks_impl.html#a1022c4a7b4012228b83b0b89ee790f89" target="_top" xlink:title="here we react to position changes of the main window">
<polygon fill="white" stroke="#666666" points="580,-488 411.75,-488 411.75,-468 580,-468 580,-488"/>
<text text-anchor="middle" x="495.88" y="-474.5" font-family="Helvetica,sans-Serif" font-size="10.00">HooksImpl::onWindowPosChanged</text>
</a>
</g>
</g>
<!-- Node3&#45;&gt;Node4 -->
<g id="edge3_Node000003_Node000004" class="edge">
<title>Node3&#45;&gt;Node4</title>
<g id="a_edge3_Node000003_Node000004"><a xlink:title=" ">
<path fill="none" stroke="#63b8ff" d="M376.23,-478C384.09,-478 392.27,-478 400.5,-478"/>
<polygon fill="#63b8ff" stroke="#63b8ff" points="400.33,-481.5 410.33,-478 400.33,-474.5 400.33,-481.5"/>
</a>
</g>
</g>
<!-- Node5 -->
<g id="Node000005" class="node">
<title>Node5</title>
<g id="a_Node000005"><a xlink:href="class_hooks_impl.html#a8ef5405a747979c1f5197848e4a8e684" target="_top" xlink:title=" ">
<polygon fill="white" stroke="#666666" points="759.12,-221 628.38,-221 628.38,-189 759.12,-189 759.12,-221"/>
<text text-anchor="start" x="636.38" y="-207.5" font-family="Helvetica,sans-Serif" font-size="10.00">HooksImpl::hasCaptionDbl</text>
<text text-anchor="middle" x="693.75" y="-195.5" font-family="Helvetica,sans-Serif" font-size="10.00">Clicked</text>
</a>
</g>
</g>
<!-- Node4&#45;&gt;Node5 -->
<g id="edge4_Node000004_Node000005" class="edge">
<title>Node4&#45;&gt;Node5</title>
<g id="a_edge4_Node000004_Node000005"><a xlink:title=" ">
<path fill="none" stroke="#63b8ff" d="M566.42,-467.53C571.29,-465.2 575.89,-462.39 580,-459 652.19,-399.55 679.7,-284.5 688.81,-232.14"/>
<polygon fill="#63b8ff" stroke="#63b8ff" points="692.4,-232.82 690.57,-222.38 685.5,-231.69 692.4,-232.82"/>
</a>
</g>
</g>
<!-- Node6 -->
<g id="Node000006" class="node">
<title>Node6</title>
<g id="a_Node000006"><a xlink:href="class_hooks_impl.html#a7a48621aa5b57024ae963b861fd508cb" target="_top" xlink:title=" ">
<polygon fill="white" stroke="#666666" points="755,-466 632.5,-466 632.5,-446 755,-446 755,-466"/>
<text text-anchor="middle" x="693.75" y="-452.5" font-family="Helvetica,sans-Serif" font-size="10.00">HooksImpl::hasLastRect</text>
</a>
</g>
</g>
<!-- Node4&#45;&gt;Node6 -->
<g id="edge5_Node000004_Node000006" class="edge">
<title>Node4&#45;&gt;Node6</title>
<g id="a_edge5_Node000004_Node000006"><a xlink:title=" ">
<path fill="none" stroke="#63b8ff" d="M580.23,-468.64C593.95,-467.1 608.06,-465.51 621.45,-464.01"/>
<polygon fill="#63b8ff" stroke="#63b8ff" points="621.47,-467.42 631.02,-462.82 620.69,-460.46 621.47,-467.42"/>
</a>
</g>
</g>
<!-- Node8 -->
<g id="Node000008" class="node">
<title>Node8</title>
<g id="a_Node000008"><a xlink:href="class_hooks_cfg.html#a9642afc6c6fe88141770403a09cdfc4b" target="_top" xlink:title="read the global config for all apps">
<polygon fill="white" stroke="#666666" points="550.75,-526 441,-526 441,-506 550.75,-506 550.75,-526"/>
<text text-anchor="middle" x="495.88" y="-512.5" font-family="Helvetica,sans-Serif" font-size="10.00">HooksCfg::readConfig</text>
</a>
</g>
</g>
<!-- Node7&#45;&gt;Node8 -->
<g id="edge7_Node000007_Node000008" class="edge">
<title>Node7&#45;&gt;Node8</title>
<g id="a_edge7_Node000007_Node000008"><a xlink:title=" ">
<path fill="none" stroke="#63b8ff" d="M358.09,-450.44C364.24,-452.78 370.32,-455.61 375.75,-459 395.48,-471.32 391.54,-485.47 411.75,-497 417.57,-500.32 423.94,-503.06 430.47,-505.33"/>
<polygon fill="#63b8ff" stroke="#63b8ff" points="429.23,-508.91 439.81,-508.5 431.28,-502.22 429.23,-508.91"/>
</a>
</g>
</g>
<!-- Node9 -->
<g id="Node000009" class="node">
<title>Node9</title>
<g id="a_Node000009"><a xlink:href="class_hooks_cfg.html#a808e4e4a7bc43b89c87ef172fa8caf6a" target="_top" xlink:title="the path to the global config, for all apps">
<polygon fill="white" stroke="#666666" points="756.12,-507 631.38,-507 631.38,-487 756.12,-487 756.12,-507"/>
<text text-anchor="middle" x="693.75" y="-493.5" font-family="Helvetica,sans-Serif" font-size="10.00">HooksCfg::getConfigPath</text>
</a>
</g>
</g>
<!-- Node8&#45;&gt;Node9 -->
<g id="edge8_Node000008_Node000009" class="edge">
<title>Node8&#45;&gt;Node9</title>
<g id="a_edge8_Node000008_Node000009"><a xlink:title=" ">
<path fill="none" stroke="#63b8ff" d="M551.18,-510.73C572.58,-508.66 597.48,-506.24 620.38,-504.02"/>
<polygon fill="#63b8ff" stroke="#63b8ff" points="620.47,-507.43 630.08,-502.98 619.79,-500.46 620.47,-507.43"/>
</a>
</g>
</g>
<!-- Node11 -->
<g id="Node000011" class="node">
<title>Node11</title>
<g id="a_Node000011"><a xlink:href="class_hooks_cfg.html#ab8fd861156e6b389e43bbda021f42c50" target="_top" xlink:title="read a JSON config from given path">
<polygon fill="white" stroke="#666666" points="770.75,-545 616.75,-545 616.75,-525 770.75,-525 770.75,-545"/>
<text text-anchor="middle" x="693.75" y="-531.5" font-family="Helvetica,sans-Serif" font-size="10.00">HooksCfg::readConfigDocument</text>
</a>
</g>
</g>
<!-- Node8&#45;&gt;Node11 -->
<g id="edge10_Node000008_Node000011" class="edge">
<title>Node8&#45;&gt;Node11</title>
<g id="a_edge10_Node000008_Node000011"><a xlink:title=" ">
<path fill="none" stroke="#63b8ff" d="M551.18,-521.27C568.02,-522.9 587.04,-524.75 605.53,-526.54"/>
<polygon fill="#63b8ff" stroke="#63b8ff" points="605.05,-530.11 615.34,-527.59 605.73,-523.14 605.05,-530.11"/>
</a>
</g>
</g>
<!-- Node10 -->
<g id="Node000010" class="node">
<title>Node10</title>
<g id="a_Node000010"><a xlink:href="class_hooks_cfg.html#a437c5768d5246cf980d1be5ea6f272c6" target="_top" xlink:title="the directory, where store the configs and logs">
<polygon fill="white" stroke="#666666" points="936,-507 819.5,-507 819.5,-487 936,-487 936,-507"/>
<text text-anchor="middle" x="877.75" y="-493.5" font-family="Helvetica,sans-Serif" font-size="10.00">HooksCfg::getConfigDir</text>
</a>
</g>
</g>
<!-- Node9&#45;&gt;Node10 -->
<g id="edge9_Node000009_Node000010" class="edge">
<title>Node9&#45;&gt;Node10</title>
<g id="a_edge9_Node000009_Node000010"><a xlink:title=" ">
<path fill="none" stroke="#63b8ff" d="M756.62,-497C773.19,-497 791.2,-497 808.11,-497"/>
<polygon fill="#63b8ff" stroke="#63b8ff" points="808.04,-500.5 818.04,-497 808.04,-493.5 808.04,-500.5"/>
</a>
</g>
</g>
<!-- Node12&#45;&gt;Node7 -->
<g id="edge54_Node000012_Node000007" class="edge">
<title>Node12&#45;&gt;Node7</title>
<g id="a_edge54_Node000012_Node000007"><a xlink:title=" ">
<path fill="none" stroke="#63b8ff" d="M215.71,-425.99C225.8,-427.44 237.15,-429.07 248.44,-430.7"/>
<polygon fill="#63b8ff" stroke="#63b8ff" points="247.82,-434.29 258.21,-432.25 248.81,-427.36 247.82,-434.29"/>
</a>
</g>
</g>
<!-- Node13 -->
<g id="Node000013" class="node">
<title>Node13</title>
<g id="a_Node000013"><a xlink:href="class_hooks_impl.html#a07053e18c49265e300fe89b2a5bc28de" target="_top" xlink:title="here the Windows messages are picked up, which do not appear in the main message loop">
<polygon fill="white" stroke="#666666" points="374.25,-248 254,-248 254,-228 374.25,-228 374.25,-248"/>
<text text-anchor="middle" x="314.12" y="-234.5" font-family="Helvetica,sans-Serif" font-size="10.00">HooksImpl::getMsgProc</text>
</a>
</g>
</g>
<!-- Node12&#45;&gt;Node13 -->
<g id="edge12_Node000012_Node000013" class="edge">
<title>Node12&#45;&gt;Node13</title>
<g id="a_edge12_Node000012_Node000013"><a xlink:title=" ">
<path fill="none" stroke="#63b8ff" d="M188.48,-410.64C209.92,-380.94 271.8,-295.23 299.47,-256.91"/>
<polygon fill="#63b8ff" stroke="#63b8ff" points="302.71,-259.41 305.72,-249.25 297.03,-255.31 302.71,-259.41"/>
</a>
</g>
</g>
<!-- Node14 -->
<g id="Node000014" class="node">
<title>Node14</title>
<g id="a_Node000014"><a xlink:href="class_hooks_impl.html#a30acc60a07305d2df36a7798cb73aaa1" target="_top" xlink:title=" ">
<polygon fill="white" stroke="#666666" points="568.75,-324 423,-324 423,-304 568.75,-304 568.75,-324"/>
<text text-anchor="middle" x="495.88" y="-310.5" font-family="Helvetica,sans-Serif" font-size="10.00">HooksImpl::getLButtonUpMsg</text>
</a>
</g>
</g>
<!-- Node13&#45;&gt;Node14 -->
<g id="edge13_Node000013_Node000014" class="edge">
<title>Node13&#45;&gt;Node14</title>
<g id="a_edge13_Node000013_Node000014"><a xlink:title=" ">
<path fill="none" stroke="#63b8ff" d="M329.45,-248.38C347.71,-261.14 380.63,-282.61 411.75,-295 416.86,-297.04 422.24,-298.88 427.71,-300.55"/>
<polygon fill="#63b8ff" stroke="#63b8ff" points="426.69,-304.18 437.26,-303.54 428.6,-297.44 426.69,-304.18"/>
</a>
</g>
</g>
<!-- Node15 -->
<g id="Node000015" class="node">
<title>Node15</title>
<g id="a_Node000015"><a xlink:href="class_hooks_impl.html#a1f4bd7b8436918fc1cd5cea1c3a15bc9" target="_top" xlink:title=" ">
<polygon fill="white" stroke="#666666" points="574.75,-286 417,-286 417,-266 574.75,-266 574.75,-286"/>
<text text-anchor="middle" x="495.88" y="-272.5" font-family="Helvetica,sans-Serif" font-size="10.00">HooksImpl::getNcLButtonUpMsg</text>
</a>
</g>
</g>
<!-- Node13&#45;&gt;Node15 -->
<g id="edge14_Node000013_Node000015" class="edge">
<title>Node13&#45;&gt;Node15</title>
<g id="a_edge14_Node000013_Node000015"><a xlink:title=" ">
<path fill="none" stroke="#63b8ff" d="M364.72,-248.48C386.43,-253.07 412.09,-258.5 434.87,-263.31"/>
<polygon fill="#63b8ff" stroke="#63b8ff" points="433.94,-266.91 444.44,-265.55 435.38,-260.06 433.94,-266.91"/>
</a>
</g>
</g>
<!-- Node16 -->
<g id="Node000016" class="node">
<title>Node16</title>
<g id="a_Node000016"><a xlink:href="class_task_toolbar.html#a3159b1e31199ee3691bf2bcf5ec21100" target="_top" xlink:title=" ">
<polygon fill="white" stroke="#666666" points="550.75,-248 441,-248 441,-228 550.75,-228 550.75,-248"/>
<text text-anchor="middle" x="495.88" y="-234.5" font-family="Helvetica,sans-Serif" font-size="10.00">TaskToolbar::initialize</text>
</a>
</g>
</g>
<!-- Node13&#45;&gt;Node16 -->
<g id="edge15_Node000013_Node000016" class="edge">
<title>Node13&#45;&gt;Node16</title>
<g id="a_edge15_Node000013_Node000016"><a xlink:title=" ">
<path fill="none" stroke="#63b8ff" d="M374.48,-238C392.26,-238 411.85,-238 429.97,-238"/>
<polygon fill="#63b8ff" stroke="#63b8ff" points="429.74,-241.5 439.74,-238 429.74,-234.5 429.74,-241.5"/>
</a>
</g>
</g>
<!-- Node17 -->
<g id="Node000017" class="node">
<title>Node17</title>
<g id="a_Node000017"><a xlink:href="class_hooks_impl.html#ae0d26e76e300b5392e64fb070aafe8d5" target="_top" xlink:title="do the work, if necessary">
<polygon fill="white" stroke="#666666" points="562.38,-134 429.38,-134 429.38,-114 562.38,-114 562.38,-134"/>
<text text-anchor="middle" x="495.88" y="-120.5" font-family="Helvetica,sans-Serif" font-size="10.00">HooksImpl::onCaptionClick</text>
</a>
</g>
</g>
<!-- Node13&#45;&gt;Node17 -->
<g id="edge16_Node000013_Node000017" class="edge">
<title>Node13&#45;&gt;Node17</title>
<g id="a_edge16_Node000013_Node000017"><a xlink:title=" ">
<path fill="none" stroke="#63b8ff" d="M323.28,-227.71C338.62,-209.06 373.65,-169.59 411.75,-148 418.75,-144.04 426.45,-140.68 434.27,-137.85"/>
<polygon fill="#63b8ff" stroke="#63b8ff" points="435.16,-140.91 443.55,-134.43 432.95,-134.27 435.16,-140.91"/>
</a>
</g>
</g>
<!-- Node18 -->
<g id="Node000018" class="node">
<title>Node18</title>
<g id="a_Node000018"><a xlink:href="class_hooks_impl.html#a84c9a5c6b0754e092de2ee6a8b8bba1e" target="_top" xlink:title="method to change the size of a window in steps">
<polygon fill="white" stroke="#666666" points="771.5,-171 616,-171 616,-151 771.5,-151 771.5,-171"/>
<text text-anchor="middle" x="693.75" y="-157.5" font-family="Helvetica,sans-Serif" font-size="10.00">HooksImpl::onIncrementWindow</text>
</a>
</g>
</g>
<!-- Node13&#45;&gt;Node18 -->
<g id="edge44_Node000013_Node000018" class="edge">
<title>Node13&#45;&gt;Node18</title>
<g id="a_edge44_Node000013_Node000018"><a xlink:title=" ">
<path fill="none" stroke="#63b8ff" d="M328.25,-227.54C346,-214.05 379.21,-191.14 411.75,-181 474.37,-161.49 548.5,-156.93 604.89,-157.02"/>
<polygon fill="#63b8ff" stroke="#63b8ff" points="604.54,-160.52 614.56,-157.09 604.59,-153.52 604.54,-160.52"/>
</a>
</g>
</g>
<!-- Node19 -->
<g id="Node000019" class="node">
<title>Node19</title>
<g id="a_Node000019"><a xlink:href="class_hooks_impl.html#ab6696c1ccc12ebdd892883485456ed3c" target="_top" xlink:title=" ">
<polygon fill="white" stroke="#666666" points="763.62,-132 623.88,-132 623.88,-112 763.62,-112 763.62,-132"/>
<text text-anchor="middle" x="693.75" y="-118.5" font-family="Helvetica,sans-Serif" font-size="10.00">HooksImpl::onShowPosWnd</text>
</a>
</g>
</g>
<!-- Node13&#45;&gt;Node19 -->
<g id="edge52_Node000013_Node000019" class="edge">
<title>Node13&#45;&gt;Node19</title>
<g id="a_edge52_Node000013_Node000019"><a xlink:title=" ">
<path fill="none" stroke="#63b8ff" d="M318.75,-227.82C328.72,-201.55 359.36,-131.69 411.75,-105 490.71,-64.77 598.78,-90.05 655.12,-108.23"/>
<polygon fill="#63b8ff" stroke="#63b8ff" points="653.75,-111.8 664.34,-111.64 655.96,-105.16 653.75,-111.8"/>
</a>
</g>
</g>
<!-- Node35 -->
<g id="Node000035" class="node">
<title>Node35</title>
<g id="a_Node000035"><a xlink:href="class_hooks_impl.html#a924c5db32f07636c8acbc9421c216112" target="_top" xlink:title=" ">
<polygon fill="white" stroke="#666666" points="764,-58 623.5,-58 623.5,-38 764,-38 764,-58"/>
<text text-anchor="middle" x="693.75" y="-44.5" font-family="Helvetica,sans-Serif" font-size="10.00">HooksImpl::onClosePosWnd</text>
</a>
</g>
</g>
<!-- Node13&#45;&gt;Node35 -->
<g id="edge40_Node000013_Node000035" class="edge">
<title>Node13&#45;&gt;Node35</title>
<g id="a_edge40_Node000013_Node000035"><a xlink:title=" ">
<path fill="none" stroke="#63b8ff" d="M317.97,-227.63C326.54,-198.58 355.09,-116.13 411.75,-80 471.18,-42.1 552.33,-36.64 612.14,-39.16"/>
<polygon fill="#63b8ff" stroke="#63b8ff" points="611.89,-42.71 622.06,-39.72 612.25,-35.72 611.89,-42.71"/>
</a>
</g>
</g>
<!-- Node36 -->
<g id="Node000036" class="node">
<title>Node36</title>
<g id="a_Node000036"><a xlink:href="class_hooks_impl.html#a7628ad89b3625fcd9e8538d94d7b2cde" target="_top" xlink:title="processes the WM_LBUTTONUP event">
<polygon fill="white" stroke="#666666" points="557.88,-210 433.88,-210 433.88,-190 557.88,-190 557.88,-210"/>
<text text-anchor="middle" x="495.88" y="-196.5" font-family="Helvetica,sans-Serif" font-size="10.00">HooksImpl::onLButtonUp</text>
</a>
</g>
</g>
<!-- Node13&#45;&gt;Node36 -->
<g id="edge45_Node000013_Node000036" class="edge">
<title>Node13&#45;&gt;Node36</title>
<g id="a_edge45_Node000013_Node000036"><a xlink:title=" ">
<path fill="none" stroke="#63b8ff" d="M364.72,-227.52C386.43,-222.93 412.09,-217.5 434.87,-212.69"/>
<polygon fill="#63b8ff" stroke="#63b8ff" points="435.38,-215.94 444.44,-210.45 433.94,-209.09 435.38,-215.94"/>
</a>
</g>
</g>
<!-- Node37 -->
<g id="Node000037" class="node">
<title>Node37</title>
<g id="a_Node000037"><a xlink:href="class_hooks_impl.html#afe7a8e2c13ab2abe83b4f3d0c462e761" target="_top" xlink:title="this procedure handles the double click in non&#45;client area">
<polygon fill="white" stroke="#666666" points="565,-450 426.75,-450 426.75,-418 565,-418 565,-450"/>
<text text-anchor="start" x="434.75" y="-436.5" font-family="Helvetica,sans-Serif" font-size="10.00">HooksImpl::onNcLButtonDbl</text>
<text text-anchor="middle" x="495.88" y="-424.5" font-family="Helvetica,sans-Serif" font-size="10.00">Click</text>
</a>
</g>
</g>
<!-- Node13&#45;&gt;Node37 -->
<g id="edge48_Node000013_Node000037" class="edge">
<title>Node13&#45;&gt;Node37</title>
<g id="a_edge48_Node000013_Node000037"><a xlink:title=" ">
<path fill="none" stroke="#63b8ff" d="M317.95,-248.25C326.63,-277.86 355.81,-364.29 411.75,-409 413.43,-410.34 415.18,-411.61 416.98,-412.81"/>
<polygon fill="#63b8ff" stroke="#63b8ff" points="415.02,-416.3 425.43,-418.27 418.52,-410.24 415.02,-416.3"/>
</a>
</g>
</g>
<!-- Node38 -->
<g id="Node000038" class="node">
<title>Node38</title>
<g id="a_Node000038"><a xlink:href="class_hooks_impl.html#a9adf50040968aa66908f643ad1edda53" target="_top" xlink:title="processes the WM_NCLBUTTONDOWN event">
<polygon fill="white" stroke="#666666" points="569.88,-20 421.88,-20 421.88,0 569.88,0 569.88,-20"/>
<text text-anchor="middle" x="495.88" y="-6.5" font-family="Helvetica,sans-Serif" font-size="10.00">HooksImpl::onNcLButtonDown</text>
</a>
</g>
</g>
<!-- Node13&#45;&gt;Node38 -->
<g id="edge50_Node000013_Node000038" class="edge">
<title>Node13&#45;&gt;Node38</title>
<g id="a_edge50_Node000013_Node000038"><a xlink:title=" ">
<path fill="none" stroke="#63b8ff" d="M316.92,-227.72C323.27,-194.38 347.87,-88.33 411.75,-34 415.93,-30.44 420.62,-27.41 425.57,-24.83"/>
<polygon fill="#63b8ff" stroke="#63b8ff" points="426.71,-27.7 434.38,-20.4 423.83,-21.33 426.71,-27.7"/>
</a>
</g>
</g>
<!-- Node39 -->
<g id="Node000039" class="node">
<title>Node39</title>
<g id="a_Node000039"><a xlink:href="class_hooks_impl.html#a88ea927a4d021535e4a5768ef60a50d7" target="_top" xlink:title="processes the WM_NCLBUTTONUP event">
<polygon fill="white" stroke="#666666" points="564.62,-400 427.12,-400 427.12,-380 564.62,-380 564.62,-400"/>
<text text-anchor="middle" x="495.88" y="-386.5" font-family="Helvetica,sans-Serif" font-size="10.00">HooksImpl::onNCLButtonUp</text>
</a>
</g>
</g>
<!-- Node13&#45;&gt;Node39 -->
<g id="edge51_Node000013_Node000039" class="edge">
<title>Node13&#45;&gt;Node39</title>
<g id="a_edge51_Node000013_Node000039"><a xlink:title=" ">
<path fill="none" stroke="#63b8ff" d="M319.45,-248.26C330.65,-273.51 363.16,-338.92 411.75,-371 414.02,-372.5 416.39,-373.88 418.84,-375.15"/>
<polygon fill="#63b8ff" stroke="#63b8ff" points="417.05,-378.64 427.6,-379.55 419.92,-372.25 417.05,-378.64"/>
</a>
</g>
</g>
<!-- Node40 -->
<g id="Node000040" class="node">
<title>Node40</title>
<g id="a_Node000040"><a xlink:href="class_task_toolbar.html#a2304586dd147f754c7040f781eda1270" target="_top" xlink:title=" ">
<polygon fill="white" stroke="#666666" points="556,-362 435.75,-362 435.75,-342 556,-342 556,-362"/>
<text text-anchor="middle" x="495.88" y="-348.5" font-family="Helvetica,sans-Serif" font-size="10.00">TaskToolbar::uninitialize</text>
</a>
</g>
</g>
<!-- Node13&#45;&gt;Node40 -->
<g id="edge53_Node000013_Node000040" class="edge">
<title>Node13&#45;&gt;Node40</title>
<g id="a_edge53_Node000013_Node000040"><a xlink:title=" ">
<path fill="none" stroke="#63b8ff" d="M322.56,-248.47C337.23,-268.27 371.92,-311.2 411.75,-333 415.95,-335.3 420.42,-337.32 425.03,-339.1"/>
<polygon fill="#63b8ff" stroke="#63b8ff" points="423.66,-342.68 434.26,-342.62 425.94,-336.06 423.66,-342.68"/>
</a>
</g>
</g>
<!-- Node17&#45;&gt;Node5 -->
<g id="edge17_Node000017_Node000005" class="edge">
<title>Node17&#45;&gt;Node5</title>
<g id="a_edge17_Node000017_Node000005"><a xlink:title=" ">
<path fill="none" stroke="#63b8ff" d="M516.77,-134.29C540.16,-146.16 580.31,-165.86 616,-180 620.37,-181.73 624.91,-183.44 629.5,-185.1"/>
<polygon fill="#63b8ff" stroke="#63b8ff" points="628,-188.63 638.6,-188.64 630.32,-182.02 628,-188.63"/>
</a>
</g>
</g>
<!-- Node17&#45;&gt;Node18 -->
<g id="edge18_Node000017_Node000018" class="edge">
<title>Node17&#45;&gt;Node18</title>
<g id="a_edge18_Node000017_Node000018"><a xlink:title=" ">
<path fill="none" stroke="#63b8ff" d="M552.22,-134.45C575.38,-138.83 602.48,-143.95 626.68,-148.52"/>
<polygon fill="#63b8ff" stroke="#63b8ff" points="625.73,-152.09 636.2,-150.51 627.03,-145.21 625.73,-152.09"/>
</a>
</g>
</g>
<!-- Node17&#45;&gt;Node19 -->
<g id="edge19_Node000017_Node000019" class="edge">
<title>Node17&#45;&gt;Node19</title>
<g id="a_edge19_Node000017_Node000019"><a xlink:title=" ">
<path fill="none" stroke="#63b8ff" d="M562.64,-123.33C578.69,-123.16 596.03,-122.99 612.66,-122.82"/>
<polygon fill="#63b8ff" stroke="#63b8ff" points="612.5,-126.31 622.47,-122.71 612.43,-119.31 612.5,-126.31"/>
</a>
</g>
</g>
<!-- Node20 -->
<g id="Node000020" class="node">
<title>Node20</title>
<g id="a_Node000020"><a xlink:href="class_win_pos_wnd.html#abec2e67db5543a717d59b02ab8dbb930" target="_top" xlink:title="create the required windows for monitor preview and all configured positions">
<polygon fill="white" stroke="#666666" points="929.62,-172 825.88,-172 825.88,-152 929.62,-152 929.62,-172"/>
<text text-anchor="middle" x="877.75" y="-158.5" font-family="Helvetica,sans-Serif" font-size="10.00">WinPosWnd::create</text>
</a>
</g>
</g>
<!-- Node19&#45;&gt;Node20 -->
<g id="edge20_Node000019_Node000020" class="edge">
<title>Node19&#45;&gt;Node20</title>
<g id="a_edge20_Node000019_Node000020"><a xlink:title=" ">
<path fill="none" stroke="#63b8ff" d="M742.09,-132.41C765.4,-137.53 793.71,-143.75 818.34,-149.16"/>
<polygon fill="#63b8ff" stroke="#63b8ff" points="817.49,-152.78 828.01,-151.51 819,-145.94 817.49,-152.78"/>
</a>
</g>
</g>
<!-- Node34 -->
<g id="Node000034" class="node">
<title>Node34</title>
<g id="a_Node000034"><a xlink:href="class_win_pos_wnd.html#acb456c59641ec336d5c7646764fe7e6a" target="_top" xlink:title=" ">
<polygon fill="white" stroke="#666666" points="948,-131 807.5,-131 807.5,-111 948,-111 948,-131"/>
<text text-anchor="middle" x="877.75" y="-117.5" font-family="Helvetica,sans-Serif" font-size="10.00">WinPosWnd::getWndHandle</text>
</a>
</g>
</g>
<!-- Node19&#45;&gt;Node34 -->
<g id="edge39_Node000019_Node000034" class="edge">
<title>Node19&#45;&gt;Node34</title>
<g id="a_edge39_Node000019_Node000034"><a xlink:title=" ">
<path fill="none" stroke="#63b8ff" d="M764.08,-121.62C774.62,-121.56 785.58,-121.5 796.34,-121.44"/>
<polygon fill="#63b8ff" stroke="#63b8ff" points="796.03,-124.94 806.01,-121.38 796,-117.94 796.03,-124.94"/>
</a>
</g>
</g>
<!-- Node21 -->
<g id="Node000021" class="node">
<title>Node21</title>
<g id="a_Node000021"><a xlink:href="class_win_pos_wnd.html#a4b607f031e5058874a31918e4cc1ba79" target="_top" xlink:title="if the window looks beyond the edge of the monitor, it is moved so that it is displayed as a whole on...">
<polygon fill="white" stroke="#666666" points="1144,-304 988.5,-304 988.5,-284 1144,-284 1144,-304"/>
<text text-anchor="middle" x="1066.25" y="-290.5" font-family="Helvetica,sans-Serif" font-size="10.00">WinPosWnd::correctEdgecases</text>
</a>
</g>
</g>
<!-- Node20&#45;&gt;Node21 -->
<g id="edge21_Node000020_Node000021" class="edge">
<title>Node20&#45;&gt;Node21</title>
<g id="a_edge21_Node000020_Node000021"><a xlink:title=" ">
<path fill="none" stroke="#63b8ff" d="M885.22,-172.33C899.85,-194.8 937.84,-248.25 984,-275 986.85,-276.65 989.84,-278.16 992.92,-279.54"/>
<polygon fill="#63b8ff" stroke="#63b8ff" points="991.4,-283.1 1001.99,-283.51 993.97,-276.59 991.4,-283.1"/>
</a>
</g>
</g>
<!-- Node22 -->
<g id="Node000022" class="node">
<title>Node22</title>
<g id="a_Node000022"><a xlink:href="class_win_pos_wnd.html#a8abc6edd027488d4f7242b9f12693af8" target="_top" xlink:title="destroys every windows">
<polygon fill="white" stroke="#666666" points="1120.75,-58 1011.75,-58 1011.75,-38 1120.75,-38 1120.75,-58"/>
<text text-anchor="middle" x="1066.25" y="-44.5" font-family="Helvetica,sans-Serif" font-size="10.00">WinPosWnd::destroy</text>
</a>
</g>
</g>
<!-- Node20&#45;&gt;Node22 -->
<g id="edge22_Node000020_Node000022" class="edge">
<title>Node20&#45;&gt;Node22</title>
<g id="a_edge22_Node000020_Node000022"><a xlink:title=" ">
<path fill="none" stroke="#63b8ff" d="M928.63,-151.59C935.64,-148.64 942.36,-144.85 948,-140 975.43,-116.42 955.67,-89.5 984,-67 989.21,-62.86 995.17,-59.6 1001.44,-57.02"/>
<polygon fill="#63b8ff" stroke="#63b8ff" points="1002.19,-60.12 1010.48,-53.53 999.88,-53.51 1002.19,-60.12"/>
</a>
</g>
</g>
<!-- Node23 -->
<g id="Node000023" class="node">
<title>Node23</title>
<g id="a_Node000023"><a xlink:href="class_win_pos_wnd_cfg.html#afe04626c840dd23b6b063f58bcb06dce" target="_top" xlink:title=" ">
<polygon fill="white" stroke="#666666" points="1527,-182 1363.25,-182 1363.25,-162 1527,-162 1527,-182"/>
<text text-anchor="middle" x="1445.12" y="-168.5" font-family="Helvetica,sans-Serif" font-size="10.00">WinPosWndCfg::getCloseTimeout</text>
</a>
</g>
</g>
<!-- Node20&#45;&gt;Node23 -->
<g id="edge23_Node000020_Node000023" class="edge">
<title>Node20&#45;&gt;Node23</title>
<g id="a_edge23_Node000020_Node000023"><a xlink:title=" ">
<path fill="none" stroke="#63b8ff" d="M929.92,-162.91C1025.44,-164.59 1232.05,-168.25 1352.27,-170.38"/>
<polygon fill="#63b8ff" stroke="#63b8ff" points="1351.86,-173.89 1361.92,-170.56 1351.98,-166.89 1351.86,-173.89"/>
</a>
</g>
</g>
<!-- Node24 -->
<g id="Node000024" class="node">
<title>Node24</title>
<g id="a_Node000024"><a xlink:href="class_win_pos_wnd_cfg.html#a10a73295ae59c85d651ad0088b235125" target="_top" xlink:title=" ">
<polygon fill="white" stroke="#666666" points="1137.25,-210 995.25,-210 995.25,-190 1137.25,-190 1137.25,-210"/>
<text text-anchor="middle" x="1066.25" y="-196.5" font-family="Helvetica,sans-Serif" font-size="10.00">WinPosWndCfg::getMonitors</text>
</a>
</g>
</g>
<!-- Node20&#45;&gt;Node24 -->
<g id="edge24_Node000020_Node000024" class="edge">
<title>Node20&#45;&gt;Node24</title>
<g id="a_edge24_Node000020_Node000024"><a xlink:title=" ">
<path fill="none" stroke="#63b8ff" d="M929.71,-172.38C952.44,-177.01 979.42,-182.51 1003.3,-187.38"/>
<polygon fill="#63b8ff" stroke="#63b8ff" points="1002.53,-191 1013.03,-189.56 1003.93,-184.14 1002.53,-191"/>
</a>
</g>
</g>
<!-- Node25 -->
<g id="Node000025" class="node">
<title>Node25</title>
<g id="a_Node000025"><a xlink:href="class_win_pos_wnd_cfg.html#a1fd1c1c55716a4697a044ae0671cf2aa" target="_top" xlink:title=" ">
<polygon fill="white" stroke="#666666" points="1509.75,-286 1380.5,-286 1380.5,-266 1509.75,-266 1509.75,-286"/>
<text text-anchor="middle" x="1445.12" y="-272.5" font-family="Helvetica,sans-Serif" font-size="10.00">WinPosWndCfg::getScale</text>
</a>
</g>
</g>
<!-- Node20&#45;&gt;Node25 -->
<g id="edge25_Node000020_Node000025" class="edge">
<title>Node20&#45;&gt;Node25</title>
<g id="a_edge25_Node000020_Node000025"><a xlink:title=" ">
<path fill="none" stroke="#63b8ff" d="M882.1,-172.28C892.11,-201.01 924.79,-282.1 984,-313 1127.13,-387.7 1329.93,-321.92 1409.85,-290.5"/>
<polygon fill="#63b8ff" stroke="#63b8ff" points="1410.88,-293.46 1418.86,-286.49 1408.27,-286.96 1410.88,-293.46"/>
</a>
</g>
</g>
<!-- Node26 -->
<g id="Node000026" class="node">
<title>Node26</title>
<g id="a_Node000026"><a xlink:href="class_win_pos_wnd.html#a159d04333920b8b0ab3b8ecc6f6607dd" target="_top" xlink:title=" ">
<polygon fill="white" stroke="#666666" points="1148.5,-134 984,-134 984,-114 1148.5,-114 1148.5,-134"/>
<text text-anchor="middle" x="1066.25" y="-120.5" font-family="Helvetica,sans-Serif" font-size="10.00">WinPosWnd::getTotalPreviewRect</text>
</a>
</g>
</g>
<!-- Node20&#45;&gt;Node26 -->
<g id="edge26_Node000020_Node000026" class="edge">
<title>Node20&#45;&gt;Node26</title>
<g id="a_edge26_Node000020_Node000026"><a xlink:title=" ">
<path fill="none" stroke="#63b8ff" d="M929.71,-151.62C952.44,-146.99 979.42,-141.49 1003.3,-136.62"/>
<polygon fill="#63b8ff" stroke="#63b8ff" points="1003.93,-139.86 1013.03,-134.44 1002.53,-133 1003.93,-139.86"/>
</a>
</g>
</g>
<!-- Node27 -->
<g id="Node000027" class="node">
<title>Node27</title>
<g id="a_Node000027"><a xlink:href="class_win_pos_wnd.html#a86ca33ea895961e25e6c1601e420f40e" target="_top" xlink:title="initialize the WNDCLASS structure">
<polygon fill="white" stroke="#666666" points="1133.5,-96 999,-96 999,-76 1133.5,-76 1133.5,-96"/>
<text text-anchor="middle" x="1066.25" y="-82.5" font-family="Helvetica,sans-Serif" font-size="10.00">WinPosWnd::initWndClass</text>
</a>
</g>
</g>
<!-- Node20&#45;&gt;Node27 -->
<g id="edge27_Node000020_Node000027" class="edge">
<title>Node20&#45;&gt;Node27</title>
<g id="a_edge27_Node000020_Node000027"><a xlink:title=" ">
<path fill="none" stroke="#63b8ff" d="M922.21,-151.6C931.07,-148.55 940.1,-144.73 948,-140 967.15,-128.54 964.42,-115.71 984,-105 987.11,-103.3 990.38,-101.75 993.73,-100.33"/>
<polygon fill="#63b8ff" stroke="#63b8ff" points="994.86,-103.27 1003.01,-96.5 992.41,-96.71 994.86,-103.27"/>
</a>
</g>
</g>
<!-- Node30 -->
<g id="Node000030" class="node">
<title>Node30</title>
<g id="a_Node000030"><a xlink:href="struct_win_pos_wnd_1_1_monitor_preview.html#a01fe1b4351422928e43305d1758ae6fb" target="_top" xlink:title="move the rectangle to the cursor position">
<polygon fill="white" stroke="#666666" points="1137.25,-392 995.25,-392 995.25,-360 1137.25,-360 1137.25,-392"/>
<text text-anchor="start" x="1003.25" y="-378.5" font-family="Helvetica,sans-Serif" font-size="10.00">WinPosWnd::MonitorPreview</text>
<text text-anchor="middle" x="1066.25" y="-366.5" font-family="Helvetica,sans-Serif" font-size="10.00">::offsetToPt</text>
</a>
</g>
</g>
<!-- Node20&#45;&gt;Node30 -->
<g id="edge30_Node000020_Node000030" class="edge">
<title>Node20&#45;&gt;Node30</title>
<g id="a_edge30_Node000020_Node000030"><a xlink:title=" ">
<path fill="none" stroke="#63b8ff" d="M881.87,-172.41C891.66,-203.36 924.73,-295.83 984,-346 987.72,-349.15 991.79,-351.97 996.08,-354.52"/>
<polygon fill="#63b8ff" stroke="#63b8ff" points="994.26,-358.05 1004.73,-359.64 997.54,-351.86 994.26,-358.05"/>
</a>
</g>
</g>
<!-- Node31 -->
<g id="Node000031" class="node">
<title>Node31</title>
<g id="a_Node000031"><a xlink:href="class_win_pos_wnd_cfg.html#a038475d40481960d701d09f6e39467c8" target="_top" xlink:title=" ">
<polygon fill="white" stroke="#666666" points="1134.62,-248 997.88,-248 997.88,-228 1134.62,-228 1134.62,-248"/>
<text text-anchor="middle" x="1066.25" y="-234.5" font-family="Helvetica,sans-Serif" font-size="10.00">WinPosWndCfg::readConfig</text>
</a>
</g>
</g>
<!-- Node20&#45;&gt;Node31 -->
<g id="edge31_Node000020_Node000031" class="edge">
<title>Node20&#45;&gt;Node31</title>
<g id="a_edge31_Node000020_Node000031"><a xlink:title=" ">
<path fill="none" stroke="#63b8ff" d="M894.52,-172.28C914.56,-184.94 950.59,-206.31 984,-219 989.42,-221.06 995.12,-222.94 1000.9,-224.64"/>
<polygon fill="#63b8ff" stroke="#63b8ff" points="999.75,-228.23 1010.32,-227.52 1001.62,-221.48 999.75,-228.23"/>
</a>
</g>
</g>
<!-- Node28 -->
<g id="Node000028" class="node">
<title>Node28</title>
<g id="a_Node000028"><a xlink:href="class_win_pos_wnd.html#a104a18975fac2ac85a75eabda629ddb2" target="_top" xlink:title="static WNDPROC. Forwards to the WinPosWnd instances.">
<polygon fill="white" stroke="#666666" points="1327.25,-77 1184.5,-77 1184.5,-57 1327.25,-57 1327.25,-77"/>
<text text-anchor="middle" x="1255.88" y="-63.5" font-family="Helvetica,sans-Serif" font-size="10.00">WinPosWnd::WndProcStatic</text>
</a>
</g>
</g>
<!-- Node27&#45;&gt;Node28 -->
<g id="edge28_Node000027_Node000028" class="edge">
<title>Node27&#45;&gt;Node28</title>
<g id="a_edge28_Node000027_Node000028"><a xlink:title=" ">
<path fill="none" stroke="#63b8ff" d="M1133.93,-79.25C1146.81,-77.94 1160.44,-76.56 1173.72,-75.22"/>
<polygon fill="#63b8ff" stroke="#63b8ff" points="1173.69,-78.64 1183.28,-74.15 1172.98,-71.67 1173.69,-78.64"/>
</a>
</g>
</g>
<!-- Node29 -->
<g id="Node000029" class="node">
<title>Node29</title>
<g id="a_Node000029"><a xlink:href="class_win_pos_wnd.html#a5ad8686caf3b8310fff6d4bec255f898" target="_top" xlink:title="get the instance of WinPosWnd to a window handle">
<polygon fill="white" stroke="#666666" points="1517.62,-39 1372.62,-39 1372.62,-19 1517.62,-19 1517.62,-39"/>
<text text-anchor="middle" x="1445.12" y="-25.5" font-family="Helvetica,sans-Serif" font-size="10.00">WinPosWnd::getWinPosWnd</text>
</a>
</g>
</g>
<!-- Node28&#45;&gt;Node29 -->
<g id="edge29_Node000028_Node000029" class="edge">
<title>Node28&#45;&gt;Node29</title>
<g id="a_edge29_Node000028_Node000029"><a xlink:title=" ">
<path fill="none" stroke="#63b8ff" d="M1308.54,-56.52C1331.26,-51.91 1358.13,-46.45 1381.93,-41.62"/>
<polygon fill="#63b8ff" stroke="#63b8ff" points="1382.53,-44.87 1391.63,-39.45 1381.13,-38.01 1382.53,-44.87"/>
</a>
</g>
</g>
<!-- Node31&#45;&gt;Node25 -->
<g id="edge33_Node000031_Node000025" class="edge">
<title>Node31&#45;&gt;Node25</title>
<g id="a_edge33_Node000031_Node000025"><a xlink:title=" ">
<path fill="none" stroke="#63b8ff" d="M1135.06,-244.84C1201.14,-251.5 1301.37,-261.61 1369.64,-268.49"/>
<polygon fill="#63b8ff" stroke="#63b8ff" points="1369.01,-272.04 1379.31,-269.57 1369.71,-265.08 1369.01,-272.04"/>
</a>
</g>
</g>
<!-- Node31&#45;&gt;Node31 -->
<g id="edge34_Node000031_Node000031" class="edge">
<title>Node31&#45;&gt;Node31</title>
<g id="a_edge34_Node000031_Node000031"><a xlink:title=" ">
<path fill="none" stroke="#63b8ff" d="M1036.3,-248.34C1023.5,-256.98 1033.48,-266 1066.25,-266 1085.71,-266 1097.13,-262.82 1100.52,-258.43"/>
<polygon fill="#63b8ff" stroke="#63b8ff" points="1103.35,-257.15 1096.2,-249.34 1096.92,-259.91 1103.35,-257.15"/>
</a>
</g>
</g>
<!-- Node32 -->
<g id="Node000032" class="node">
<title>Node32</title>
<g id="a_Node000032"><a xlink:href="class_win_pos_wnd_cfg.html#a93944e9bbc627a502d59f845b3b1e827" target="_top" xlink:title=" ">
<polygon fill="white" stroke="#666666" points="1521,-239 1369.25,-239 1369.25,-219 1521,-219 1521,-239"/>
<text text-anchor="middle" x="1445.12" y="-225.5" font-family="Helvetica,sans-Serif" font-size="10.00">WinPosWndCfg::getConfigPath</text>
</a>
</g>
</g>
<!-- Node31&#45;&gt;Node32 -->
<g id="edge32_Node000031_Node000032" class="edge">
<title>Node31&#45;&gt;Node32</title>
<g id="a_edge32_Node000031_Node000032"><a xlink:title=" ">
<path fill="none" stroke="#63b8ff" d="M1135.06,-236.38C1197.52,-234.89 1290.49,-232.67 1358.14,-231.05"/>
<polygon fill="#63b8ff" stroke="#63b8ff" points="1357.86,-234.54 1367.77,-230.8 1357.69,-227.54 1357.86,-234.54"/>
</a>
</g>
</g>
<!-- Node33 -->
<g id="Node000033" class="node">
<title>Node33</title>
<g id="a_Node000033"><a xlink:href="class_win_pos_wnd_cfg.html#a2e024dd316be8cf377996f7be3017acd" target="_top" xlink:title=" ">
<polygon fill="white" stroke="#666666" points="1325,-210 1186.75,-210 1186.75,-190 1325,-190 1325,-210"/>
<text text-anchor="middle" x="1255.88" y="-196.5" font-family="Helvetica,sans-Serif" font-size="10.00">WinPosWndCfg::writeConfig</text>
</a>
</g>
</g>
<!-- Node31&#45;&gt;Node33 -->
<g id="edge35_Node000031_Node000033" class="edge">
<title>Node31&#45;&gt;Node33</title>
<g id="a_edge35_Node000031_Node000033"><a xlink:title=" ">
<path fill="none" stroke="#63b8ff" d="M1119.02,-227.52C1141.78,-222.91 1168.71,-217.45 1192.56,-212.62"/>
<polygon fill="#63b8ff" stroke="#63b8ff" points="1193.17,-215.87 1202.28,-210.45 1191.78,-209 1193.17,-215.87"/>
</a>
</g>
</g>
<!-- Node33&#45;&gt;Node23 -->
<g id="edge36_Node000033_Node000023" class="edge">
<title>Node33&#45;&gt;Node23</title>
<g id="a_edge36_Node000033_Node000023"><a xlink:title=" ">
<path fill="none" stroke="#63b8ff" d="M1325.27,-189.77C1337.68,-187.92 1350.72,-185.97 1363.44,-184.06"/>
<polygon fill="#63b8ff" stroke="#63b8ff" points="1363.66,-187.42 1373.03,-182.48 1362.62,-180.5 1363.66,-187.42"/>
</a>
</g>
</g>
<!-- Node33&#45;&gt;Node25 -->
<g id="edge38_Node000033_Node000025" class="edge">
<title>Node33&#45;&gt;Node25</title>
<g id="a_edge38_Node000033_Node000025"><a xlink:title=" ">
<path fill="none" stroke="#63b8ff" d="M1278.23,-210.32C1299.53,-220.46 1333.32,-236.09 1363.25,-248 1375.65,-252.93 1389.31,-257.85 1401.82,-262.16"/>
<polygon fill="#63b8ff" stroke="#63b8ff" points="1400.4,-265.72 1411,-265.62 1402.66,-259.09 1400.4,-265.72"/>
</a>
</g>
</g>
<!-- Node33&#45;&gt;Node32 -->
<g id="edge37_Node000033_Node000032" class="edge">
<title>Node33&#45;&gt;Node32</title>
<g id="a_edge37_Node000033_Node000032"><a xlink:title=" ">
<path fill="none" stroke="#63b8ff" d="M1324.48,-210.47C1338,-212.56 1352.31,-214.78 1366.15,-216.92"/>
<polygon fill="#63b8ff" stroke="#63b8ff" points="1365.2,-220.47 1375.62,-218.55 1366.28,-213.56 1365.2,-220.47"/>
</a>
</g>
</g>
<!-- Node35&#45;&gt;Node22 -->
<g id="edge41_Node000035_Node000022" class="edge">
<title>Node35&#45;&gt;Node22</title>
<g id="a_edge41_Node000035_Node000022"><a xlink:title=" ">
<path fill="none" stroke="#63b8ff" d="M764.44,-48C832.35,-48 934.75,-48 1000.81,-48"/>
<polygon fill="#63b8ff" stroke="#63b8ff" points="1000.49,-51.5 1010.49,-48 1000.49,-44.5 1000.49,-51.5"/>
</a>
</g>
</g>
<!-- Node35&#45;&gt;Node29 -->
<g id="edge42_Node000035_Node000029" class="edge">
<title>Node35&#45;&gt;Node29</title>
<g id="a_edge42_Node000035_Node000029"><a xlink:title=" ">
<path fill="none" stroke="#63b8ff" d="M764.24,-42.15C822.79,-37.53 908.8,-31.47 984,-29 1115.96,-24.67 1269.32,-25.93 1361.45,-27.37"/>
<polygon fill="#63b8ff" stroke="#63b8ff" points="1361.32,-30.88 1371.37,-27.54 1361.43,-23.88 1361.32,-30.88"/>
</a>
</g>
</g>
<!-- Node35&#45;&gt;Node34 -->
<g id="edge43_Node000035_Node000034" class="edge">
<title>Node35&#45;&gt;Node34</title>
<g id="a_edge43_Node000035_Node000034"><a xlink:title=" ">
<path fill="none" stroke="#63b8ff" d="M720.83,-58.46C752.32,-71.09 805.45,-92.4 840.81,-106.58"/>
<polygon fill="#63b8ff" stroke="#63b8ff" points="839.14,-110.09 849.72,-110.56 841.74,-103.59 839.14,-110.09"/>
</a>
</g>
</g>
<!-- Node36&#45;&gt;Node5 -->
<g id="edge46_Node000036_Node000005" class="edge">
<title>Node36&#45;&gt;Node5</title>
<g id="a_edge46_Node000036_Node000005"><a xlink:title=" ">
<path fill="none" stroke="#63b8ff" d="M558.31,-201.57C576.97,-202.04 597.69,-202.57 617.16,-203.07"/>
<polygon fill="#63b8ff" stroke="#63b8ff" points="617.06,-206.59 627.14,-203.35 617.24,-199.6 617.06,-206.59"/>
</a>
</g>
</g>
<!-- Node36&#45;&gt;Node18 -->
<g id="edge47_Node000036_Node000018" class="edge">
<title>Node36&#45;&gt;Node18</title>
<g id="a_edge47_Node000036_Node000018"><a xlink:title=" ">
<path fill="none" stroke="#63b8ff" d="M549.37,-189.55C574.07,-184.63 603.72,-178.73 629.64,-173.57"/>
<polygon fill="#63b8ff" stroke="#63b8ff" points="629.99,-176.87 639.11,-171.48 628.62,-170 629.99,-176.87"/>
</a>
</g>
</g>
<!-- Node37&#45;&gt;Node6 -->
<g id="edge49_Node000037_Node000006" class="edge">
<title>Node37&#45;&gt;Node6</title>
<g id="a_edge49_Node000037_Node000006"><a xlink:title=" ">
<path fill="none" stroke="#63b8ff" d="M565.38,-441.69C583.47,-443.73 603.02,-445.92 621.26,-447.97"/>
<polygon fill="#63b8ff" stroke="#63b8ff" points="620.79,-451.55 631.12,-449.19 621.57,-444.6 620.79,-451.55"/>
</a>
</g>
</g>
</g>
</svg>
