<?xml version="1.0" encoding="UTF-8" standalone="no"?>
<!DOCTYPE svg PUBLIC "-//W3C//DTD SVG 1.1//EN"
 "http://www.w3.org/Graphics/SVG/1.1/DTD/svg11.dtd">
<!-- Generated by graphviz version 8.1.0 (20230707.0739)
 -->
<!-- Title: HooksMgr::stopOtherBitInstance Pages: 1 -->
<svg width="676pt" height="47pt"
 viewBox="0.00 0.00 676.00 47.00" xmlns="http://www.w3.org/2000/svg" xmlns:xlink="http://www.w3.org/1999/xlink">
<g id="graph0" class="graph" transform="scale(1 1) rotate(0) translate(4 43)">
<title>HooksMgr::stopOtherBitInstance</title>
<!-- Node1 -->
<g id="Node000001" class="node">
<title>Node1</title>
<g id="a_Node000001"><a xlink:title=" ">
<polygon fill="#999999" stroke="#666666" points="668,-20 510.25,-20 510.25,0 668,0 668,-20"/>
<text text-anchor="middle" x="589.12" y="-6.5" font-family="Helvetica,sans-Serif" font-size="10.00">HooksMgr::stopOtherBitInstance</text>
</a>
</g>
</g>
<!-- Node2 -->
<g id="Node000002" class="node">
<title>Node2</title>
<g id="a_Node000002"><a xlink:href="class_hooks_mgr.html#aa4f7bf5ffda4fef6c667c3656913cc5b" target="_top" xlink:title=" ">
<polygon fill="white" stroke="#666666" points="474.25,-39 315.75,-39 315.75,-19 474.25,-19 474.25,-39"/>
<text text-anchor="middle" x="395" y="-25.5" font-family="Helvetica,sans-Serif" font-size="10.00">HooksMgr::startOtherBitInstance</text>
</a>
</g>
</g>
<!-- Node1&#45;&gt;Node2 -->
<g id="edge1_Node000001_Node000002" class="edge">
<title>Node1&#45;&gt;Node2</title>
<g id="a_edge1_Node000001_Node000002"><a xlink:title=" ">
<path fill="none" stroke="#63b8ff" d="M499.26,-18.79C491.07,-19.6 482.8,-20.42 474.7,-21.22"/>
<polygon fill="#63b8ff" stroke="#63b8ff" points="499.37,-22.2 508.98,-17.73 498.68,-15.23 499.37,-22.2"/>
</a>
</g>
</g>
<!-- Node3 -->
<g id="Node000003" class="node">
<title>Node3</title>
<g id="a_Node000003"><a xlink:href="wi_npo_s-_app_8cpp.html#a30a1e3b0304f1b083637664cbda94e72" target="_top" xlink:title="the main window procedure of this app">
<polygon fill="white" stroke="#666666" points="279.75,-20 223.25,-20 223.25,0 279.75,0 279.75,-20"/>
<text text-anchor="middle" x="251.5" y="-6.5" font-family="Helvetica,sans-Serif" font-size="10.00">WndProc</text>
</a>
</g>
</g>
<!-- Node1&#45;&gt;Node3 -->
<g id="edge5_Node000001_Node000003" class="edge">
<title>Node1&#45;&gt;Node3</title>
<g id="a_edge5_Node000001_Node000003"><a xlink:title=" ">
<path fill="none" stroke="#63b8ff" d="M499.28,-10C426.2,-10 327.26,-10 279.93,-10"/>
<polygon fill="#63b8ff" stroke="#63b8ff" points="498.86,-13.5 508.86,-10 498.86,-6.5 498.86,-13.5"/>
</a>
</g>
</g>
<!-- Node2&#45;&gt;Node3 -->
<g id="edge2_Node000002_Node000003" class="edge">
<title>Node2&#45;&gt;Node3</title>
<g id="a_edge2_Node000002_Node000003"><a xlink:title=" ">
<path fill="none" stroke="#63b8ff" d="M305.38,-17.1C296.29,-15.88 287.62,-14.72 280.02,-13.7"/>
<polygon fill="#63b8ff" stroke="#63b8ff" points="304.84,-20.69 315.21,-18.56 305.77,-13.76 304.84,-20.69"/>
</a>
</g>
</g>
<!-- Node4 -->
<g id="Node000004" class="node">
<title>Node4</title>
<g id="a_Node000004"><a xlink:href="wi_npo_s-_app_8cpp.html#aa0d0c9beb94350f8eac8fc4026a65375" target="_top" xlink:title=" ">
<polygon fill="white" stroke="#666666" points="187.25,-20 97,-20 97,0 187.25,0 187.25,-20"/>
<text text-anchor="middle" x="142.12" y="-6.5" font-family="Helvetica,sans-Serif" font-size="10.00">MyRegisterClass</text>
</a>
</g>
</g>
<!-- Node3&#45;&gt;Node4 -->
<g id="edge3_Node000003_Node000004" class="edge">
<title>Node3&#45;&gt;Node4</title>
<g id="a_edge3_Node000003_Node000004"><a xlink:title=" ">
<path fill="none" stroke="#63b8ff" d="M211.97,-10C203.99,-10 195.52,-10 187.35,-10"/>
<polygon fill="#63b8ff" stroke="#63b8ff" points="211.85,-13.5 221.85,-10 211.85,-6.5 211.85,-13.5"/>
</a>
</g>
</g>
<!-- Node5 -->
<g id="Node000005" class="node">
<title>Node5</title>
<g id="a_Node000005"><a xlink:href="wi_npo_s-_app_8cpp.html#a8c6630df6bab43efe8254a603885b62e" target="_top" xlink:title=" ">
<polygon fill="white" stroke="#666666" points="61,-20 0,-20 0,0 61,0 61,-20"/>
<text text-anchor="middle" x="30.5" y="-6.5" font-family="Helvetica,sans-Serif" font-size="10.00">wWinMain</text>
</a>
</g>
</g>
<!-- Node4&#45;&gt;Node5 -->
<g id="edge4_Node000004_Node000005" class="edge">
<title>Node4&#45;&gt;Node5</title>
<g id="a_edge4_Node000004_Node000005"><a xlink:title=" ">
<path fill="none" stroke="#63b8ff" d="M85.58,-10C77.21,-10 68.86,-10 61.31,-10"/>
<polygon fill="#63b8ff" stroke="#63b8ff" points="85.54,-13.5 95.54,-10 85.54,-6.5 85.54,-13.5"/>
</a>
</g>
</g>
</g>
</svg>
