<?xml version="1.0" encoding="UTF-8" standalone="no"?>
<!DOCTYPE svg PUBLIC "-//W3C//DTD SVG 1.1//EN"
 "http://www.w3.org/Graphics/SVG/1.1/DTD/svg11.dtd">
<!-- Generated by graphviz version 9.0.0 (20230911.1827)
 -->
<!-- Title: HooksImpl::onShowPosWnd Pages: 1 -->
<svg width="903pt" height="382pt"
 viewBox="0.00 0.00 903.25 382.38" xmlns="http://www.w3.org/2000/svg" xmlns:xlink="http://www.w3.org/1999/xlink">
<g id="graph0" class="graph" transform="scale(1 1) rotate(0) translate(4 378.38)">
<title>HooksImpl::onShowPosWnd</title>
<!-- Node1 -->
<g id="Node000001" class="node">
<title>Node1</title>
<g id="a_Node000001"><a xlink:title=" ">
<polygon fill="#999999" stroke="#666666" points="139.75,-203.38 0,-203.38 0,-183.38 139.75,-183.38 139.75,-203.38"/>
<text text-anchor="middle" x="69.88" y="-189.88" font-family="Helvetica,sans-Serif" font-size="10.00">HooksImpl::onShowPosWnd</text>
</a>
</g>
</g>
<!-- Node2 -->
<g id="Node000002" class="node">
<title>Node2</title>
<g id="a_Node000002"><a xlink:href="class_win_pos_wnd.html#abec2e67db5543a717d59b02ab8dbb930" target="_top" xlink:title="create the required windows for monitor preview and all configured positions">
<polygon fill="white" stroke="#666666" points="297.88,-222.38 194.12,-222.38 194.12,-202.38 297.88,-202.38 297.88,-222.38"/>
<text text-anchor="middle" x="246" y="-208.88" font-family="Helvetica,sans-Serif" font-size="10.00">WinPosWnd::create</text>
</a>
</g>
</g>
<!-- Node1&#45;&gt;Node2 -->
<g id="edge1_Node000001_Node000002" class="edge">
<title>Node1&#45;&gt;Node2</title>
<g id="a_edge1_Node000001_Node000002"><a xlink:title=" ">
<path fill="none" stroke="#63b8ff" d="M140.19,-200.94C154.12,-202.46 168.69,-204.05 182.37,-205.54"/>
<polygon fill="#63b8ff" stroke="#63b8ff" points="181.8,-209 192.12,-206.61 182.56,-202.04 181.8,-209"/>
</a>
</g>
</g>
<!-- Node16 -->
<g id="Node000016" class="node">
<title>Node16</title>
<g id="a_Node000016"><a xlink:href="class_win_pos_wnd.html#acb456c59641ec336d5c7646764fe7e6a" target="_top" xlink:title=" ">
<polygon fill="white" stroke="#666666" points="316.25,-184.38 175.75,-184.38 175.75,-164.38 316.25,-164.38 316.25,-184.38"/>
<text text-anchor="middle" x="246" y="-170.88" font-family="Helvetica,sans-Serif" font-size="10.00">WinPosWnd::getWndHandle</text>
</a>
</g>
</g>
<!-- Node1&#45;&gt;Node16 -->
<g id="edge20_Node000001_Node000016" class="edge">
<title>Node1&#45;&gt;Node16</title>
<g id="a_edge20_Node000001_Node000016"><a xlink:title=" ">
<path fill="none" stroke="#63b8ff" d="M140.19,-185.81C148.06,-184.95 156.12,-184.07 164.12,-183.2"/>
<polygon fill="#63b8ff" stroke="#63b8ff" points="164.28,-186.7 173.85,-182.14 163.52,-179.75 164.28,-186.7"/>
</a>
</g>
</g>
<!-- Node3 -->
<g id="Node000003" class="node">
<title>Node3</title>
<g id="a_Node000003"><a xlink:href="class_win_pos_wnd.html#a4b607f031e5058874a31918e4cc1ba79" target="_top" xlink:title="if the window looks beyond the edge of the monitor, it is moved so that it is displayed as a whole on...">
<polygon fill="white" stroke="#666666" points="512.25,-374.38 356.75,-374.38 356.75,-354.38 512.25,-354.38 512.25,-374.38"/>
<text text-anchor="middle" x="434.5" y="-360.88" font-family="Helvetica,sans-Serif" font-size="10.00">WinPosWnd::correctEdgecases</text>
</a>
</g>
</g>
<!-- Node2&#45;&gt;Node3 -->
<g id="edge2_Node000002_Node000003" class="edge">
<title>Node2&#45;&gt;Node3</title>
<g id="a_edge2_Node000002_Node000003"><a xlink:title=" ">
<path fill="none" stroke="#63b8ff" d="M251.99,-222.62C264.81,-247.84 301.53,-313.19 352.25,-345.38 354.52,-346.82 356.89,-348.15 359.33,-349.38"/>
<polygon fill="#63b8ff" stroke="#63b8ff" points="357.74,-352.51 368.31,-353.29 360.54,-346.09 357.74,-352.51"/>
</a>
</g>
</g>
<!-- Node4 -->
<g id="Node000004" class="node">
<title>Node4</title>
<g id="a_Node000004"><a xlink:href="class_win_pos_wnd.html#a8abc6edd027488d4f7242b9f12693af8" target="_top" xlink:title="destroys every windows">
<polygon fill="white" stroke="#666666" points="489,-336.38 380,-336.38 380,-316.38 489,-316.38 489,-336.38"/>
<text text-anchor="middle" x="434.5" y="-322.88" font-family="Helvetica,sans-Serif" font-size="10.00">WinPosWnd::destroy</text>
</a>
</g>
</g>
<!-- Node2&#45;&gt;Node4 -->
<g id="edge3_Node000002_Node000004" class="edge">
<title>Node2&#45;&gt;Node4</title>
<g id="a_edge3_Node000002_Node000004"><a xlink:title=" ">
<path fill="none" stroke="#63b8ff" d="M255.34,-222.8C271.71,-242.54 310.15,-285.35 352.25,-307.38 357.54,-310.15 363.24,-312.52 369.08,-314.54"/>
<polygon fill="#63b8ff" stroke="#63b8ff" points="367.63,-317.76 378.22,-317.39 369.71,-311.08 367.63,-317.76"/>
</a>
</g>
</g>
<!-- Node5 -->
<g id="Node000005" class="node">
<title>Node5</title>
<g id="a_Node000005"><a xlink:href="class_win_pos_wnd_cfg.html#afe04626c840dd23b6b063f58bcb06dce" target="_top" xlink:title=" ">
<polygon fill="white" stroke="#666666" points="895.25,-194.38 731.5,-194.38 731.5,-174.38 895.25,-174.38 895.25,-194.38"/>
<text text-anchor="middle" x="813.38" y="-180.88" font-family="Helvetica,sans-Serif" font-size="10.00">WinPosWndCfg::getCloseTimeout</text>
</a>
</g>
</g>
<!-- Node2&#45;&gt;Node5 -->
<g id="edge4_Node000002_Node000005" class="edge">
<title>Node2&#45;&gt;Node5</title>
<g id="a_edge4_Node000002_Node000005"><a xlink:title=" ">
<path fill="none" stroke="#63b8ff" d="M298.17,-209.84C393.49,-205.12 599.47,-194.92 719.8,-188.96"/>
<polygon fill="#63b8ff" stroke="#63b8ff" points="719.84,-192.46 729.66,-188.47 719.5,-185.47 719.84,-192.46"/>
</a>
</g>
</g>
<!-- Node6 -->
<g id="Node000006" class="node">
<title>Node6</title>
<g id="a_Node000006"><a xlink:href="class_win_pos_wnd_cfg.html#a10a73295ae59c85d651ad0088b235125" target="_top" xlink:title=" ">
<polygon fill="white" stroke="#666666" points="505.5,-260.38 363.5,-260.38 363.5,-240.38 505.5,-240.38 505.5,-260.38"/>
<text text-anchor="middle" x="434.5" y="-246.88" font-family="Helvetica,sans-Serif" font-size="10.00">WinPosWndCfg::getMonitors</text>
</a>
</g>
</g>
<!-- Node2&#45;&gt;Node6 -->
<g id="edge5_Node000002_Node000006" class="edge">
<title>Node2&#45;&gt;Node6</title>
<g id="a_edge5_Node000002_Node000006"><a xlink:title=" ">
<path fill="none" stroke="#63b8ff" d="M297.96,-222.76C320.59,-227.37 347.42,-232.84 371.23,-237.69"/>
<polygon fill="#63b8ff" stroke="#63b8ff" points="370.3,-241.07 380.79,-239.64 371.69,-234.21 370.3,-241.07"/>
</a>
</g>
</g>
<!-- Node7 -->
<g id="Node000007" class="node">
<title>Node7</title>
<g id="a_Node000007"><a xlink:href="class_win_pos_wnd_cfg.html#a1fd1c1c55716a4697a044ae0671cf2aa" target="_top" xlink:title=" ">
<polygon fill="white" stroke="#666666" points="878,-90.38 748.75,-90.38 748.75,-70.38 878,-70.38 878,-90.38"/>
<text text-anchor="middle" x="813.38" y="-76.88" font-family="Helvetica,sans-Serif" font-size="10.00">WinPosWndCfg::getScale</text>
</a>
</g>
</g>
<!-- Node2&#45;&gt;Node7 -->
<g id="edge6_Node000002_Node000007" class="edge">
<title>Node2&#45;&gt;Node7</title>
<g id="a_edge6_Node000002_Node000007"><a xlink:title=" ">
<path fill="none" stroke="#63b8ff" d="M298.13,-205.14C304.88,-202.35 311.2,-198.55 316.25,-193.38 362.36,-146.2 300.25,-89.97 352.25,-49.38 482.1,52.01 700.47,-29.61 781.17,-65.55"/>
<polygon fill="#63b8ff" stroke="#63b8ff" points="779.26,-68.52 789.81,-69.47 782.15,-62.15 779.26,-68.52"/>
</a>
</g>
</g>
<!-- Node8 -->
<g id="Node000008" class="node">
<title>Node8</title>
<g id="a_Node000008"><a xlink:href="class_win_pos_wnd.html#a159d04333920b8b0ab3b8ecc6f6607dd" target="_top" xlink:title=" ">
<polygon fill="white" stroke="#666666" points="516.75,-184.38 352.25,-184.38 352.25,-164.38 516.75,-164.38 516.75,-184.38"/>
<text text-anchor="middle" x="434.5" y="-170.88" font-family="Helvetica,sans-Serif" font-size="10.00">WinPosWnd::getTotalPreviewRect</text>
</a>
</g>
</g>
<!-- Node2&#45;&gt;Node8 -->
<g id="edge7_Node000002_Node000008" class="edge">
<title>Node2&#45;&gt;Node8</title>
<g id="a_edge7_Node000002_Node000008"><a xlink:title=" ">
<path fill="none" stroke="#63b8ff" d="M297.96,-201.99C320.59,-197.38 347.42,-191.91 371.23,-187.06"/>
<polygon fill="#63b8ff" stroke="#63b8ff" points="371.69,-190.54 380.79,-185.11 370.3,-183.68 371.69,-190.54"/>
</a>
</g>
</g>
<!-- Node9 -->
<g id="Node000009" class="node">
<title>Node9</title>
<g id="a_Node000009"><a xlink:href="class_win_pos_wnd.html#a86ca33ea895961e25e6c1601e420f40e" target="_top" xlink:title="initialize the WNDCLASS structure">
<polygon fill="white" stroke="#666666" points="501.75,-298.38 367.25,-298.38 367.25,-278.38 501.75,-278.38 501.75,-298.38"/>
<text text-anchor="middle" x="434.5" y="-284.88" font-family="Helvetica,sans-Serif" font-size="10.00">WinPosWnd::initWndClass</text>
</a>
</g>
</g>
<!-- Node2&#45;&gt;Node9 -->
<g id="edge8_Node000002_Node000009" class="edge">
<title>Node2&#45;&gt;Node9</title>
<g id="a_edge8_Node000002_Node000009"><a xlink:title=" ">
<path fill="none" stroke="#63b8ff" d="M262.77,-222.66C282.81,-235.32 318.84,-256.68 352.25,-269.38 357.53,-271.38 363.09,-273.22 368.72,-274.89"/>
<polygon fill="#63b8ff" stroke="#63b8ff" points="367.54,-278.19 378.11,-277.5 369.41,-271.45 367.54,-278.19"/>
</a>
</g>
</g>
<!-- Node12 -->
<g id="Node000012" class="node">
<title>Node12</title>
<g id="a_Node000012"><a xlink:href="struct_win_pos_wnd_1_1_monitor_preview.html#a01fe1b4351422928e43305d1758ae6fb" target="_top" xlink:title="move the rectangle to the cursor position">
<polygon fill="white" stroke="#666666" points="505.5,-90.38 363.5,-90.38 363.5,-58.38 505.5,-58.38 505.5,-90.38"/>
<text text-anchor="start" x="371.5" y="-76.88" font-family="Helvetica,sans-Serif" font-size="10.00">WinPosWnd::MonitorPreview</text>
<text text-anchor="middle" x="434.5" y="-64.88" font-family="Helvetica,sans-Serif" font-size="10.00">::offsetToPt</text>
</a>
</g>
</g>
<!-- Node2&#45;&gt;Node12 -->
<g id="edge11_Node000002_Node000012" class="edge">
<title>Node2&#45;&gt;Node12</title>
<g id="a_edge11_Node000002_Node000012"><a xlink:title=" ">
<path fill="none" stroke="#63b8ff" d="M298.29,-204.29C304.85,-201.61 311.08,-198.06 316.25,-193.38 349.39,-163.33 319.57,-129.93 352.25,-99.38 353.03,-98.65 353.83,-97.94 354.65,-97.26"/>
<polygon fill="#63b8ff" stroke="#63b8ff" points="356.63,-100.14 362.81,-91.53 352.61,-94.41 356.63,-100.14"/>
</a>
</g>
</g>
<!-- Node13 -->
<g id="Node000013" class="node">
<title>Node13</title>
<g id="a_Node000013"><a xlink:href="class_win_pos_wnd_cfg.html#a038475d40481960d701d09f6e39467c8" target="_top" xlink:title=" ">
<polygon fill="white" stroke="#666666" points="502.88,-128.38 366.12,-128.38 366.12,-108.38 502.88,-108.38 502.88,-128.38"/>
<text text-anchor="middle" x="434.5" y="-114.88" font-family="Helvetica,sans-Serif" font-size="10.00">WinPosWndCfg::readConfig</text>
</a>
</g>
</g>
<!-- Node2&#45;&gt;Node13 -->
<g id="edge12_Node000002_Node000013" class="edge">
<title>Node2&#45;&gt;Node13</title>
<g id="a_edge12_Node000002_Node000013"><a xlink:title=" ">
<path fill="none" stroke="#63b8ff" d="M297.88,-201.89C304.29,-199.58 310.58,-196.77 316.25,-193.38 336.2,-181.41 333.31,-168.89 352.25,-155.38 364.59,-146.57 379.37,-139.08 392.92,-133.2"/>
<polygon fill="#63b8ff" stroke="#63b8ff" points="394.15,-136.48 402.05,-129.42 391.47,-130.02 394.15,-136.48"/>
</a>
</g>
</g>
<!-- Node10 -->
<g id="Node000010" class="node">
<title>Node10</title>
<g id="a_Node000010"><a xlink:href="class_win_pos_wnd.html#a104a18975fac2ac85a75eabda629ddb2" target="_top" xlink:title="static WNDPROC. Forwards to the WinPosWnd instances.">
<polygon fill="white" stroke="#666666" points="695.5,-298.38 552.75,-298.38 552.75,-278.38 695.5,-278.38 695.5,-298.38"/>
<text text-anchor="middle" x="624.12" y="-284.88" font-family="Helvetica,sans-Serif" font-size="10.00">WinPosWnd::WndProcStatic</text>
</a>
</g>
</g>
<!-- Node9&#45;&gt;Node10 -->
<g id="edge9_Node000009_Node000010" class="edge">
<title>Node9&#45;&gt;Node10</title>
<g id="a_edge9_Node000009_Node000010"><a xlink:title=" ">
<path fill="none" stroke="#63b8ff" d="M502.18,-288.38C514.81,-288.38 528.15,-288.38 541.18,-288.38"/>
<polygon fill="#63b8ff" stroke="#63b8ff" points="541.02,-291.88 551.02,-288.38 541.02,-284.88 541.02,-291.88"/>
</a>
</g>
</g>
<!-- Node11 -->
<g id="Node000011" class="node">
<title>Node11</title>
<g id="a_Node000011"><a xlink:href="class_win_pos_wnd.html#a5ad8686caf3b8310fff6d4bec255f898" target="_top" xlink:title="get the instance of WinPosWnd to a window handle">
<polygon fill="white" stroke="#666666" points="885.88,-298.38 740.88,-298.38 740.88,-278.38 885.88,-278.38 885.88,-298.38"/>
<text text-anchor="middle" x="813.38" y="-284.88" font-family="Helvetica,sans-Serif" font-size="10.00">WinPosWnd::getWinPosWnd</text>
</a>
</g>
</g>
<!-- Node10&#45;&gt;Node11 -->
<g id="edge10_Node000010_Node000011" class="edge">
<title>Node10&#45;&gt;Node11</title>
<g id="a_edge10_Node000010_Node000011"><a xlink:title=" ">
<path fill="none" stroke="#63b8ff" d="M695.92,-288.38C706.75,-288.38 718.03,-288.38 729.1,-288.38"/>
<polygon fill="#63b8ff" stroke="#63b8ff" points="729.04,-291.88 739.04,-288.38 729.04,-284.88 729.04,-291.88"/>
</a>
</g>
</g>
<!-- Node13&#45;&gt;Node7 -->
<g id="edge14_Node000013_Node000007" class="edge">
<title>Node13&#45;&gt;Node7</title>
<g id="a_edge14_Node000013_Node000007"><a xlink:title=" ">
<path fill="none" stroke="#63b8ff" d="M503.31,-111.54C569.26,-104.89 669.21,-94.81 737.47,-87.93"/>
<polygon fill="#63b8ff" stroke="#63b8ff" points="737.46,-91.45 747.06,-86.96 736.75,-84.48 737.46,-91.45"/>
</a>
</g>
</g>
<!-- Node13&#45;&gt;Node13 -->
<g id="edge15_Node000013_Node000013" class="edge">
<title>Node13&#45;&gt;Node13</title>
<g id="a_edge15_Node000013_Node000013"><a xlink:title=" ">
<path fill="none" stroke="#63b8ff" d="M404.55,-128.71C391.75,-137.35 401.73,-146.38 434.5,-146.38 452.93,-146.38 464.15,-143.52 468.17,-139.48"/>
<polygon fill="#63b8ff" stroke="#63b8ff" points="471.52,-138.46 464.94,-130.14 464.9,-140.74 471.52,-138.46"/>
</a>
</g>
</g>
<!-- Node14 -->
<g id="Node000014" class="node">
<title>Node14</title>
<g id="a_Node000014"><a xlink:href="class_win_pos_wnd_cfg.html#a93944e9bbc627a502d59f845b3b1e827" target="_top" xlink:title=" ">
<polygon fill="white" stroke="#666666" points="889.25,-128.38 737.5,-128.38 737.5,-108.38 889.25,-108.38 889.25,-128.38"/>
<text text-anchor="middle" x="813.38" y="-114.88" font-family="Helvetica,sans-Serif" font-size="10.00">WinPosWndCfg::getConfigPath</text>
</a>
</g>
</g>
<!-- Node13&#45;&gt;Node14 -->
<g id="edge13_Node000013_Node000014" class="edge">
<title>Node13&#45;&gt;Node14</title>
<g id="a_edge13_Node000013_Node000014"><a xlink:title=" ">
<path fill="none" stroke="#63b8ff" d="M503.31,-118.38C565.52,-118.38 657.97,-118.38 725.55,-118.38"/>
<polygon fill="#63b8ff" stroke="#63b8ff" points="725.51,-121.88 735.51,-118.38 725.51,-114.88 725.51,-121.88"/>
</a>
</g>
</g>
<!-- Node15 -->
<g id="Node000015" class="node">
<title>Node15</title>
<g id="a_Node000015"><a xlink:href="class_win_pos_wnd_cfg.html#a2e024dd316be8cf377996f7be3017acd" target="_top" xlink:title=" ">
<polygon fill="white" stroke="#666666" points="693.25,-166.38 555,-166.38 555,-146.38 693.25,-146.38 693.25,-166.38"/>
<text text-anchor="middle" x="624.12" y="-152.88" font-family="Helvetica,sans-Serif" font-size="10.00">WinPosWndCfg::writeConfig</text>
</a>
</g>
</g>
<!-- Node13&#45;&gt;Node15 -->
<g id="edge16_Node000013_Node000015" class="edge">
<title>Node13&#45;&gt;Node15</title>
<g id="a_edge16_Node000013_Node000015"><a xlink:title=" ">
<path fill="none" stroke="#63b8ff" d="M487.27,-128.86C509.93,-133.45 536.71,-138.87 560.49,-143.69"/>
<polygon fill="#63b8ff" stroke="#63b8ff" points="559.55,-147.07 570.04,-145.63 560.94,-140.21 559.55,-147.07"/>
</a>
</g>
</g>
<!-- Node15&#45;&gt;Node5 -->
<g id="edge17_Node000015_Node000005" class="edge">
<title>Node15&#45;&gt;Node5</title>
<g id="a_edge17_Node000015_Node000005"><a xlink:title=" ">
<path fill="none" stroke="#63b8ff" d="M693.52,-166.6C705.68,-168.42 718.45,-170.33 730.93,-172.2"/>
<polygon fill="#63b8ff" stroke="#63b8ff" points="730.38,-175.65 740.78,-173.67 731.41,-168.73 730.38,-175.65"/>
</a>
</g>
</g>
<!-- Node15&#45;&gt;Node7 -->
<g id="edge19_Node000015_Node000007" class="edge">
<title>Node15&#45;&gt;Node7</title>
<g id="a_edge19_Node000015_Node000007"><a xlink:title=" ">
<path fill="none" stroke="#63b8ff" d="M641.43,-145.89C661.78,-133.22 697.99,-112.04 731.5,-99.38 736.84,-97.36 742.47,-95.51 748.16,-93.82"/>
<polygon fill="#63b8ff" stroke="#63b8ff" points="748.97,-97.23 757.68,-91.19 747.11,-90.48 748.97,-97.23"/>
</a>
</g>
</g>
<!-- Node15&#45;&gt;Node14 -->
<g id="edge18_Node000015_Node000014" class="edge">
<title>Node15&#45;&gt;Node14</title>
<g id="a_edge18_Node000015_Node000014"><a xlink:title=" ">
<path fill="none" stroke="#63b8ff" d="M676.79,-145.89C699.4,-141.3 726.14,-135.88 749.86,-131.06"/>
<polygon fill="#63b8ff" stroke="#63b8ff" points="750.29,-134.55 759.4,-129.13 748.9,-127.69 750.29,-134.55"/>
</a>
</g>
</g>
</g>
</svg>
