<?xml version="1.0" encoding="UTF-8" standalone="no"?>
<!DOCTYPE svg PUBLIC "-//W3C//DTD SVG 1.1//EN"
 "http://www.w3.org/Graphics/SVG/1.1/DTD/svg11.dtd">
<!-- Generated by graphviz version 8.1.0 (20230707.0739)
 -->
<!-- Title: HooksCfg Pages: 1 -->
<svg width="117pt" height="96pt"
 viewBox="0.00 0.00 117.00 96.00" xmlns="http://www.w3.org/2000/svg" xmlns:xlink="http://www.w3.org/1999/xlink">

<svg id="main" version="1.1" xmlns="http://www.w3.org/2000/svg" xmlns:xlink="http://www.w3.org/1999/xlink" xml:space="preserve" onload="init(evt)">
<style type="text/css"><![CDATA[
.node, .edge {opacity: 0.7;}
.node.selected, .edge.selected {opacity: 1;}
.edge:hover path { stroke: red; }
.edge:hover polygon { stroke: red; fill: red; }
]]></style>
<script type="application/ecmascript" xlink:href="svg.min.js"/>
<svg id="graph" class="graph">
<g id="graph0" class="graph" transform="scale(1 1) rotate(0) translate(4 92)">
<title>HooksCfg</title>
<!-- Node1 -->
<g id="Node000001" class="node">
<title>Node1</title>
<g id="a_Node000001"><a xlink:title=" ">
<polygon fill="#999999" stroke="#666666" points="77.75,-20 19.75,-20 19.75,0 77.75,0 77.75,-20"/>
<text text-anchor="middle" x="48.75" y="-6.5" font-family="Helvetica,sans-Serif" font-size="10.00">HooksCfg</text>
</a>
</g>
</g>
<!-- Node2 -->
<g id="Node000002" class="node">
<title>Node2</title>
<g id="a_Node000002"><a xlink:title=" ">
<polygon fill="white" stroke="#666666" points="41.5,-88 0,-88 0,-68 41.5,-68 41.5,-88"/>
<text text-anchor="middle" x="20.75" y="-74.5" font-family="Helvetica,sans-Serif" font-size="10.00">RECT</text>
</a>
</g>
</g>
<!-- Node2&#45;&gt;Node1 -->
<g id="edge1_Node000001_Node000002" class="edge">
<title>Node2&#45;&gt;Node1</title>
<g id="a_edge1_Node000001_Node000002"><a xlink:title=" ">
<path fill="none" stroke="#9a32cd" stroke-dasharray="5,2" d="M24.94,-57.36C26.61,-51.04 28.79,-44.1 31.5,-38 34.3,-31.7 38.44,-25.17 41.96,-20.11"/>
<polygon fill="#9a32cd" stroke="#9a32cd" points="21.38,-56.21 22.48,-66.75 28.19,-57.82 21.38,-56.21"/>
</a>
</g>
<text text-anchor="middle" x="42.38" y="-40.5" font-family="Helvetica,sans-Serif" font-size="10.00" fill="grey"> Rect</text>
</g>
<!-- Node3 -->
<g id="Node000003" class="node">
<title>Node3</title>
<g id="a_Node000003"><a xlink:title=" ">
<polygon fill="white" stroke="#666666" points="93.75,-88 59.75,-88 59.75,-68 93.75,-68 93.75,-88"/>
<text text-anchor="middle" x="76.75" y="-74.5" font-family="Helvetica,sans-Serif" font-size="10.00">bool</text>
</a>
</g>
</g>
<!-- Node3&#45;&gt;Node1 -->
<g id="edge2_Node000001_Node000003" class="edge">
<title>Node3&#45;&gt;Node1</title>
<g id="a_edge2_Node000001_Node000003"><a xlink:title=" ">
<path fill="none" stroke="#9a32cd" stroke-dasharray="5,2" d="M68.6,-57.78C63.39,-45.51 56.87,-30.14 52.75,-20.44"/>
<polygon fill="#9a32cd" stroke="#9a32cd" points="65.61,-58.7 72.74,-66.54 72.05,-55.97 65.61,-58.7"/>
</a>
</g>
<text text-anchor="middle" x="86.88" y="-40.5" font-family="Helvetica,sans-Serif" font-size="10.00" fill="grey"> _disabled</text>
</g>
</g>
</svg>
</svg>

<style type='text/css'>
<![CDATA[
[data-mouse-over-selected='false'] { opacity: 0.7; }
[data-mouse-over-selected='true']  { opacity: 1.0; }
]]>
</style>
<script type="application/ecmascript"><![CDATA[
document.addEventListener('DOMContentLoaded', (event) => {
  highlightEdges();
  highlightAdjacentNodes();
});
]]></script>
</svg>
