<?xml version="1.0" encoding="UTF-8" standalone="no"?>
<!DOCTYPE svg PUBLIC "-//W3C//DTD SVG 1.1//EN"
 "http://www.w3.org/Graphics/SVG/1.1/DTD/svg11.dtd">
<!-- Generated by graphviz version 9.0.0 (20230911.1827)
 -->
<!-- Title: HooksMgr Pages: 1 -->
<svg width="303pt" height="120pt"
 viewBox="0.00 0.00 302.50 120.00" xmlns="http://www.w3.org/2000/svg" xmlns:xlink="http://www.w3.org/1999/xlink">
<g id="graph0" class="graph" transform="scale(1 1) rotate(0) translate(4 116)">
<title>HooksMgr</title>
<!-- Node1 -->
<g id="Node000001" class="node">
<title>Node1</title>
<g id="a_Node000001"><a xlink:title="Manage the Hooks install / uninstall.">
<polygon fill="#999999" stroke="#666666" points="138.12,-20 77.88,-20 77.88,0 138.12,0 138.12,-20"/>
<text text-anchor="middle" x="108" y="-6.5" font-family="Helvetica,sans-Serif" font-size="10.00">HooksMgr</text>
</a>
</g>
</g>
<!-- Node2 -->
<g id="Node000002" class="node">
<title>Node2</title>
<g id="a_Node000002"><a xlink:title=" ">
<polygon fill="white" stroke="#666666" points="64,-112 0,-112 0,-92 64,-92 64,-112"/>
<text text-anchor="middle" x="32" y="-98.5" font-family="Helvetica,sans-Serif" font-size="10.00">HMODULE</text>
</a>
</g>
</g>
<!-- Node2&#45;&gt;Node1 -->
<g id="edge1_Node000001_Node000002" class="edge">
<title>Node2&#45;&gt;Node1</title>
<g id="a_edge1_Node000001_Node000002"><a xlink:title=" ">
<path fill="none" stroke="#9a32cd" stroke-dasharray="5,2" d="M36.91,-80.89C41.01,-67.48 47.99,-50.15 59,-38 65.72,-30.59 74.96,-24.77 83.61,-20.46"/>
<polygon fill="#9a32cd" stroke="#9a32cd" points="33.58,-79.81 34.32,-90.38 40.33,-81.65 33.58,-79.81"/>
</a>
</g>
<text text-anchor="middle" x="81.5" y="-52.5" font-family="Helvetica,sans-Serif" font-size="10.00" fill="grey"> _hModule</text>
</g>
<!-- Node3 -->
<g id="Node000003" class="node">
<title>Node3</title>
<g id="a_Node000003"><a xlink:title=" ">
<polygon fill="white" stroke="#666666" points="133.62,-112 82.38,-112 82.38,-92 133.62,-92 133.62,-112"/>
<text text-anchor="middle" x="108" y="-98.5" font-family="Helvetica,sans-Serif" font-size="10.00">HHOOK</text>
</a>
</g>
</g>
<!-- Node3&#45;&gt;Node1 -->
<g id="edge2_Node000001_Node000003" class="edge">
<title>Node3&#45;&gt;Node1</title>
<g id="a_edge2_Node000001_Node000003"><a xlink:title=" ">
<path fill="none" stroke="#9a32cd" stroke-dasharray="5,2" d="M108,-80.2C108,-61.36 108,-34.44 108,-20.38"/>
<polygon fill="#9a32cd" stroke="#9a32cd" points="104.5,-80.19 108,-90.19 111.5,-80.19 104.5,-80.19"/>
</a>
</g>
<text text-anchor="middle" x="150.75" y="-64.5" font-family="Helvetica,sans-Serif" font-size="10.00" fill="grey"> _hhkCallWndProc</text>
<text text-anchor="middle" x="150.75" y="-52.5" font-family="Helvetica,sans-Serif" font-size="10.00" fill="grey">_hhkGetMessage</text>
<text text-anchor="middle" x="150.75" y="-40.5" font-family="Helvetica,sans-Serif" font-size="10.00" fill="grey">_hhkShellHookProc</text>
</g>
<!-- Node4 -->
<g id="Node000004" class="node">
<title>Node4</title>
<g id="a_Node000004"><a xlink:title=" ">
<polygon fill="white" stroke="#666666" points="286.62,-112 151.38,-112 151.38,-92 286.62,-92 286.62,-112"/>
<text text-anchor="middle" x="219" y="-98.5" font-family="Helvetica,sans-Serif" font-size="10.00">PROCESS_INFORMATION</text>
</a>
</g>
</g>
<!-- Node4&#45;&gt;Node1 -->
<g id="edge3_Node000001_Node000004" class="edge">
<title>Node4&#45;&gt;Node1</title>
<g id="a_edge3_Node000001_Node000004"><a xlink:title=" ">
<path fill="none" stroke="#9a32cd" stroke-dasharray="5,2" d="M216.72,-80.64C214.13,-66.85 208.65,-49.18 197,-38 181.27,-22.91 157.38,-16.23 138.31,-13.28"/>
<polygon fill="#9a32cd" stroke="#9a32cd" points="213.23,-81.02 218.14,-90.41 220.16,-80.01 213.23,-81.02"/>
</a>
</g>
<text text-anchor="middle" x="254.75" y="-52.5" font-family="Helvetica,sans-Serif" font-size="10.00" fill="grey"> _childProcessInfo</text>
</g>
</g>
</svg>
