<?xml version="1.0" encoding="UTF-8" standalone="no"?>
<!DOCTYPE svg PUBLIC "-//W3C//DTD SVG 1.1//EN"
 "http://www.w3.org/Graphics/SVG/1.1/DTD/svg11.dtd">
<!-- Generated by graphviz version 9.0.0 (20230911.1827)
 -->
<!-- Title: HooksCfg::getConfigDir Pages: 1 -->
<svg width="1273pt" height="294pt"
 viewBox="0.00 0.00 1273.25 294.00" xmlns="http://www.w3.org/2000/svg" xmlns:xlink="http://www.w3.org/1999/xlink">
<g id="graph0" class="graph" transform="scale(1 1) rotate(0) translate(4 290)">
<title>HooksCfg::getConfigDir</title>
<!-- Node1 -->
<g id="Node000001" class="node">
<title>Node1</title>
<g id="a_Node000001"><a xlink:title="the directory, where store the configs and logs">
<polygon fill="#999999" stroke="#666666" points="1265.25,-229 1148.75,-229 1148.75,-209 1265.25,-209 1265.25,-229"/>
<text text-anchor="middle" x="1207" y="-215.5" font-family="Helvetica,sans-Serif" font-size="10.00">HooksCfg::getConfigDir</text>
</a>
</g>
</g>
<!-- Node2 -->
<g id="Node000002" class="node">
<title>Node2</title>
<g id="a_Node000002"><a xlink:href="class_hooks_cfg.html#aeb2825839d92ca34c260d5505b706a55" target="_top" xlink:title="the path to the config file for this app">
<polygon fill="white" stroke="#666666" points="1112.75,-267 970.75,-267 970.75,-247 1112.75,-247 1112.75,-267"/>
<text text-anchor="middle" x="1041.75" y="-253.5" font-family="Helvetica,sans-Serif" font-size="10.00">HooksCfg::getAppConfigPath</text>
</a>
</g>
</g>
<!-- Node1&#45;&gt;Node2 -->
<g id="edge1_Node000001_Node000002" class="edge">
<title>Node1&#45;&gt;Node2</title>
<g id="a_edge1_Node000001_Node000002"><a xlink:title=" ">
<path fill="none" stroke="#63b8ff" d="M1149.94,-232.05C1129.6,-236.78 1106.9,-242.07 1087.64,-246.55"/>
<polygon fill="#63b8ff" stroke="#63b8ff" points="1150.54,-235.5 1159.48,-229.83 1148.95,-228.69 1150.54,-235.5"/>
</a>
</g>
</g>
<!-- Node5 -->
<g id="Node000005" class="node">
<title>Node5</title>
<g id="a_Node000005"><a xlink:href="class_hooks_cfg.html#a985dd80af3b2ced9ffb520fb7e79a122" target="_top" xlink:title="save the config for this app">
<polygon fill="white" stroke="#666666" points="934.75,-248 806.25,-248 806.25,-228 934.75,-228 934.75,-248"/>
<text text-anchor="middle" x="870.5" y="-234.5" font-family="Helvetica,sans-Serif" font-size="10.00">HooksCfg::writeAppConfig</text>
</a>
</g>
</g>
<!-- Node1&#45;&gt;Node5 -->
<g id="edge27_Node000001_Node000005" class="edge">
<title>Node1&#45;&gt;Node5</title>
<g id="a_edge27_Node000001_Node000005"><a xlink:title=" ">
<path fill="none" stroke="#63b8ff" d="M1137.36,-222.9C1078.01,-226.27 992.9,-231.1 935.08,-234.39"/>
<polygon fill="#63b8ff" stroke="#63b8ff" points="1137.2,-226.41 1146.99,-222.35 1136.8,-219.42 1137.2,-226.41"/>
</a>
</g>
</g>
<!-- Node6 -->
<g id="Node000006" class="node">
<title>Node6</title>
<g id="a_Node000006"><a xlink:href="class_hooks_cfg.html#a808e4e4a7bc43b89c87ef172fa8caf6a" target="_top" xlink:title="the path to the global config, for all apps">
<polygon fill="white" stroke="#666666" points="1104.12,-153 979.38,-153 979.38,-133 1104.12,-133 1104.12,-153"/>
<text text-anchor="middle" x="1041.75" y="-139.5" font-family="Helvetica,sans-Serif" font-size="10.00">HooksCfg::getConfigPath</text>
</a>
</g>
</g>
<!-- Node1&#45;&gt;Node6 -->
<g id="edge6_Node000001_Node000006" class="edge">
<title>Node1&#45;&gt;Node6</title>
<g id="a_edge6_Node000001_Node000006"><a xlink:title=" ">
<path fill="none" stroke="#63b8ff" d="M1173.42,-203.83C1141.31,-188.88 1093.1,-166.44 1065.1,-153.4"/>
<polygon fill="#63b8ff" stroke="#63b8ff" points="1171.73,-206.91 1182.27,-207.95 1174.68,-200.56 1171.73,-206.91"/>
</a>
</g>
</g>
<!-- Node3 -->
<g id="Node000003" class="node">
<title>Node3</title>
<g id="a_Node000003"><a xlink:href="class_hooks_cfg.html#afcb787461ef5ba011f6307c321223af6" target="_top" xlink:title="read the config for this app">
<polygon fill="white" stroke="#666666" points="770.25,-286 643.25,-286 643.25,-266 770.25,-266 770.25,-286"/>
<text text-anchor="middle" x="706.75" y="-272.5" font-family="Helvetica,sans-Serif" font-size="10.00">HooksCfg::readAppConfig</text>
</a>
</g>
</g>
<!-- Node2&#45;&gt;Node3 -->
<g id="edge2_Node000002_Node000003" class="edge">
<title>Node2&#45;&gt;Node3</title>
<g id="a_edge2_Node000002_Node000003"><a xlink:title=" ">
<path fill="none" stroke="#63b8ff" d="M959.17,-261.65C901.01,-264.97 823.96,-269.37 770.56,-272.42"/>
<polygon fill="#63b8ff" stroke="#63b8ff" points="959.24,-265.16 969.03,-261.09 958.84,-258.17 959.24,-265.16"/>
</a>
</g>
</g>
<!-- Node2&#45;&gt;Node5 -->
<g id="edge4_Node000002_Node000005" class="edge">
<title>Node2&#45;&gt;Node5</title>
<g id="a_edge4_Node000002_Node000005"><a xlink:title=" ">
<path fill="none" stroke="#63b8ff" d="M959.1,-247.83C951.04,-246.93 942.94,-246.02 935.1,-245.14"/>
<polygon fill="#63b8ff" stroke="#63b8ff" points="958.61,-251.3 968.94,-248.94 959.39,-244.34 958.61,-251.3"/>
</a>
</g>
</g>
<!-- Node4 -->
<g id="Node000004" class="node">
<title>Node4</title>
<g id="a_Node000004"><a xlink:href="wi_npo_s-_app_8cpp.html#a8c6630df6bab43efe8254a603885b62e" target="_top" xlink:title=" ">
<polygon fill="white" stroke="#666666" points="61,-248 0,-248 0,-228 61,-228 61,-248"/>
<text text-anchor="middle" x="30.5" y="-234.5" font-family="Helvetica,sans-Serif" font-size="10.00">wWinMain</text>
</a>
</g>
</g>
<!-- Node3&#45;&gt;Node4 -->
<g id="edge3_Node000003_Node000004" class="edge">
<title>Node3&#45;&gt;Node4</title>
<g id="a_edge3_Node000003_Node000004"><a xlink:title=" ">
<path fill="none" stroke="#63b8ff" d="M631.53,-276C571.13,-276 483.69,-276 407.25,-276 407.25,-276 407.25,-276 268.88,-276 193.33,-276 105.95,-257 61.23,-245.87"/>
<polygon fill="#63b8ff" stroke="#63b8ff" points="631.34,-279.5 641.34,-276 631.34,-272.5 631.34,-279.5"/>
</a>
</g>
</g>
<!-- Node5&#45;&gt;Node4 -->
<g id="edge5_Node000005_Node000004" class="edge">
<title>Node5&#45;&gt;Node4</title>
<g id="a_edge5_Node000005_Node000004"><a xlink:title=" ">
<path fill="none" stroke="#63b8ff" d="M794.55,-238C730.34,-238 635.4,-238 552.62,-238 552.62,-238 552.62,-238 268.88,-238 194.28,-238 106.51,-238 61.48,-238"/>
<polygon fill="#63b8ff" stroke="#63b8ff" points="794.26,-241.5 804.26,-238 794.26,-234.5 794.26,-241.5"/>
</a>
</g>
</g>
<!-- Node7 -->
<g id="Node000007" class="node">
<title>Node7</title>
<g id="a_Node000007"><a xlink:href="class_hooks_cfg.html#a9642afc6c6fe88141770403a09cdfc4b" target="_top" xlink:title="read the global config for all apps">
<polygon fill="white" stroke="#666666" points="925.38,-153 815.62,-153 815.62,-133 925.38,-133 925.38,-153"/>
<text text-anchor="middle" x="870.5" y="-139.5" font-family="Helvetica,sans-Serif" font-size="10.00">HooksCfg::readConfig</text>
</a>
</g>
</g>
<!-- Node6&#45;&gt;Node7 -->
<g id="edge7_Node000006_Node000007" class="edge">
<title>Node6&#45;&gt;Node7</title>
<g id="a_edge7_Node000006_Node000007"><a xlink:title=" ">
<path fill="none" stroke="#63b8ff" d="M967.94,-143C953.79,-143 939.19,-143 925.76,-143"/>
<polygon fill="#63b8ff" stroke="#63b8ff" points="967.65,-146.5 977.65,-143 967.65,-139.5 967.65,-146.5"/>
</a>
</g>
</g>
<!-- Node18 -->
<g id="Node000018" class="node">
<title>Node18</title>
<g id="a_Node000018"><a xlink:href="class_hooks_cfg.html#ac448d3ff024be030d38bafcb0e841a60" target="_top" xlink:title="save global config for all apps">
<polygon fill="white" stroke="#666666" points="607.25,-58 496,-58 496,-38 607.25,-38 607.25,-58"/>
<text text-anchor="middle" x="551.62" y="-44.5" font-family="Helvetica,sans-Serif" font-size="10.00">HooksCfg::writeConfig</text>
</a>
</g>
</g>
<!-- Node6&#45;&gt;Node18 -->
<g id="edge22_Node000006_Node000018" class="edge">
<title>Node6&#45;&gt;Node18</title>
<g id="a_edge22_Node000006_Node000018"><a xlink:title=" ">
<path fill="none" stroke="#63b8ff" d="M975.97,-130.39C878.7,-111.46 696.7,-76.04 606.35,-58.46"/>
<polygon fill="#63b8ff" stroke="#63b8ff" points="975.15,-133.8 985.63,-132.27 976.48,-126.93 975.15,-133.8"/>
</a>
</g>
</g>
<!-- Node8 -->
<g id="Node000008" class="node">
<title>Node8</title>
<g id="a_Node000008"><a xlink:href="class_hooks_cfg.html#ab994ae67a05ce4decf5b7af5314eb913" target="_top" xlink:title="check if someone has disabled stored in config">
<polygon fill="white" stroke="#666666" points="761.25,-153 652.25,-153 652.25,-133 761.25,-133 761.25,-153"/>
<text text-anchor="middle" x="706.75" y="-139.5" font-family="Helvetica,sans-Serif" font-size="10.00">HooksCfg::isDisabled</text>
</a>
</g>
</g>
<!-- Node7&#45;&gt;Node8 -->
<g id="edge8_Node000007_Node000008" class="edge">
<title>Node7&#45;&gt;Node8</title>
<g id="a_edge8_Node000007_Node000008"><a xlink:title=" ">
<path fill="none" stroke="#63b8ff" d="M804.06,-143C789.97,-143 775.23,-143 761.64,-143"/>
<polygon fill="#63b8ff" stroke="#63b8ff" points="803.68,-146.5 813.68,-143 803.68,-139.5 803.68,-146.5"/>
</a>
</g>
</g>
<!-- Node9 -->
<g id="Node000009" class="node">
<title>Node9</title>
<g id="a_Node000009"><a xlink:href="_hooks_impl_8cpp.html#adae4ff67fba416ac992fe973d90abc58" target="_top" xlink:title="the exported hook for the main window procedure">
<polygon fill="white" stroke="#666666" points="588.12,-210 515.12,-210 515.12,-190 588.12,-190 588.12,-210"/>
<text text-anchor="middle" x="551.62" y="-196.5" font-family="Helvetica,sans-Serif" font-size="10.00">CallWndProc</text>
</a>
</g>
</g>
<!-- Node8&#45;&gt;Node9 -->
<g id="edge9_Node000008_Node000009" class="edge">
<title>Node8&#45;&gt;Node9</title>
<g id="a_edge9_Node000008_Node000009"><a xlink:title=" ">
<path fill="none" stroke="#63b8ff" d="M668.9,-157.55C650.44,-164.75 627.72,-173.49 607.25,-181 599.52,-183.83 591.14,-186.8 583.31,-189.53"/>
<polygon fill="#63b8ff" stroke="#63b8ff" points="670.06,-160.86 678.09,-153.95 667.5,-154.34 670.06,-160.86"/>
</a>
</g>
</g>
<!-- Node11 -->
<g id="Node000011" class="node">
<title>Node11</title>
<g id="a_Node000011"><a xlink:href="wi_npo_s-_app_8cpp.html#a30a1e3b0304f1b083637664cbda94e72" target="_top" xlink:title="the main window procedure of this app">
<polygon fill="white" stroke="#666666" points="298.12,-134 241.62,-134 241.62,-114 298.12,-114 298.12,-134"/>
<text text-anchor="middle" x="269.88" y="-120.5" font-family="Helvetica,sans-Serif" font-size="10.00">WndProc</text>
</a>
</g>
</g>
<!-- Node8&#45;&gt;Node11 -->
<g id="edge21_Node000008_Node000011" class="edge">
<title>Node8&#45;&gt;Node11</title>
<g id="a_edge21_Node000008_Node000011"><a xlink:title=" ">
<path fill="none" stroke="#63b8ff" d="M640.62,-140.15C544,-135.93 366.79,-128.19 298.61,-125.21"/>
<polygon fill="#63b8ff" stroke="#63b8ff" points="640.33,-143.65 650.48,-140.59 640.64,-136.65 640.33,-143.65"/>
</a>
</g>
</g>
<!-- Node15 -->
<g id="Node000015" class="node">
<title>Node15</title>
<g id="a_Node000015"><a xlink:href="_hooks_impl_8cpp.html#ab9f4b48939788d5aa0f404323b16a957" target="_top" xlink:title="the exported hook for the windows&#45;message procedure">
<polygon fill="white" stroke="#666666" points="587,-172 516.25,-172 516.25,-152 587,-152 587,-172"/>
<text text-anchor="middle" x="551.62" y="-158.5" font-family="Helvetica,sans-Serif" font-size="10.00">GetMsgProc</text>
</a>
</g>
</g>
<!-- Node8&#45;&gt;Node15 -->
<g id="edge16_Node000008_Node000015" class="edge">
<title>Node8&#45;&gt;Node15</title>
<g id="a_edge16_Node000008_Node000015"><a xlink:title=" ">
<path fill="none" stroke="#63b8ff" d="M640.56,-151.09C622.33,-153.35 603.22,-155.72 587.49,-157.67"/>
<polygon fill="#63b8ff" stroke="#63b8ff" points="640.77,-154.59 650.26,-149.89 639.91,-147.64 640.77,-154.59"/>
</a>
</g>
</g>
<!-- Node16 -->
<g id="Node000016" class="node">
<title>Node16</title>
<g id="a_Node000016"><a xlink:href="_hooks_impl_8cpp.html#a2d95eeaf5ead86287ab88b2065c28d1a" target="_top" xlink:title="the exported hook for the shell procedure">
<polygon fill="white" stroke="#666666" points="591.88,-96 511.38,-96 511.38,-76 591.88,-76 591.88,-96"/>
<text text-anchor="middle" x="551.62" y="-82.5" font-family="Helvetica,sans-Serif" font-size="10.00">ShellHookProc</text>
</a>
</g>
</g>
<!-- Node8&#45;&gt;Node16 -->
<g id="edge19_Node000008_Node000016" class="edge">
<title>Node8&#45;&gt;Node16</title>
<g id="a_edge19_Node000008_Node000016"><a xlink:title=" ">
<path fill="none" stroke="#63b8ff" d="M667.08,-128.61C640.22,-118.61 605.02,-105.5 580.79,-96.48"/>
<polygon fill="#63b8ff" stroke="#63b8ff" points="665.65,-131.81 676.25,-132.02 668.1,-125.25 665.65,-131.81"/>
</a>
</g>
</g>
<!-- Node10 -->
<g id="Node000010" class="node">
<title>Node10</title>
<g id="a_Node000010"><a xlink:href="class_hooks_mgr.html#a7cfb009127366d7236f5c05c2e4f9ab3" target="_top" xlink:title=" ">
<polygon fill="white" stroke="#666666" points="452.12,-172 360.38,-172 360.38,-152 452.12,-152 452.12,-172"/>
<text text-anchor="middle" x="406.25" y="-158.5" font-family="Helvetica,sans-Serif" font-size="10.00">HooksMgr::install</text>
</a>
</g>
</g>
<!-- Node9&#45;&gt;Node10 -->
<g id="edge10_Node000009_Node000010" class="edge">
<title>Node9&#45;&gt;Node10</title>
<g id="a_edge10_Node000009_Node000010"><a xlink:title=" ">
<path fill="none" stroke="#63b8ff" d="M503.7,-187.56C485.24,-182.67 464.28,-177.12 446.63,-172.44"/>
<polygon fill="#63b8ff" stroke="#63b8ff" points="502.79,-190.94 513.35,-190.12 504.58,-184.18 502.79,-190.94"/>
</a>
</g>
</g>
<!-- Node13 -->
<g id="Node000013" class="node">
<title>Node13</title>
<g id="a_Node000013"><a xlink:href="class_hooks_mgr.html#a25aacc981b80470642a51175ee56ba01" target="_top" xlink:title=" ">
<polygon fill="white" stroke="#666666" points="460,-210 352.5,-210 352.5,-190 460,-190 460,-210"/>
<text text-anchor="middle" x="406.25" y="-196.5" font-family="Helvetica,sans-Serif" font-size="10.00">HooksMgr::setHooks</text>
</a>
</g>
</g>
<!-- Node9&#45;&gt;Node13 -->
<g id="edge14_Node000009_Node000013" class="edge">
<title>Node9&#45;&gt;Node13</title>
<g id="a_edge14_Node000009_Node000013"><a xlink:title=" ">
<path fill="none" stroke="#63b8ff" d="M503.61,-200C489.81,-200 474.62,-200 460.47,-200"/>
<polygon fill="#63b8ff" stroke="#63b8ff" points="503.3,-203.5 513.3,-200 503.3,-196.5 503.3,-203.5"/>
</a>
</g>
</g>
<!-- Node10&#45;&gt;Node11 -->
<g id="edge11_Node000010_Node000011" class="edge">
<title>Node10&#45;&gt;Node11</title>
<g id="a_edge11_Node000010_Node000011"><a xlink:title=" ">
<path fill="none" stroke="#63b8ff" d="M357.21,-148.41C337.49,-142.84 315.36,-136.58 298.45,-131.8"/>
<polygon fill="#63b8ff" stroke="#63b8ff" points="356.14,-151.75 366.72,-151.1 358.05,-145.01 356.14,-151.75"/>
</a>
</g>
</g>
<!-- Node12 -->
<g id="Node000012" class="node">
<title>Node12</title>
<g id="a_Node000012"><a xlink:href="wi_npo_s-_app_8cpp.html#aa0d0c9beb94350f8eac8fc4026a65375" target="_top" xlink:title=" ">
<polygon fill="white" stroke="#666666" points="187.25,-172 97,-172 97,-152 187.25,-152 187.25,-172"/>
<text text-anchor="middle" x="142.12" y="-158.5" font-family="Helvetica,sans-Serif" font-size="10.00">MyRegisterClass</text>
</a>
</g>
</g>
<!-- Node11&#45;&gt;Node12 -->
<g id="edge12_Node000011_Node000012" class="edge">
<title>Node11&#45;&gt;Node12</title>
<g id="a_edge12_Node000011_Node000012"><a xlink:title=" ">
<path fill="none" stroke="#63b8ff" d="M230.69,-135.54C213.88,-140.62 194.26,-146.55 177.85,-151.51"/>
<polygon fill="#63b8ff" stroke="#63b8ff" points="231.27,-139.02 239.83,-132.78 229.24,-132.32 231.27,-139.02"/>
</a>
</g>
</g>
<!-- Node12&#45;&gt;Node4 -->
<g id="edge13_Node000012_Node000004" class="edge">
<title>Node12&#45;&gt;Node4</title>
<g id="a_edge13_Node000012_Node000004"><a xlink:title=" ">
<path fill="none" stroke="#63b8ff" d="M116.89,-178.8C95.34,-193.74 64.52,-215.11 46.4,-227.67"/>
<polygon fill="#63b8ff" stroke="#63b8ff" points="118.87,-181.69 125.1,-173.11 114.88,-175.93 118.87,-181.69"/>
</a>
</g>
</g>
<!-- Node14 -->
<g id="Node000014" class="node">
<title>Node14</title>
<g id="a_Node000014"><a xlink:href="class_hooks_mgr.html#a5f8aa4cd119cb5d489b0a6f1a2971a79" target="_top" xlink:title=" ">
<polygon fill="white" stroke="#666666" points="316.5,-210 223.25,-210 223.25,-190 316.5,-190 316.5,-210"/>
<text text-anchor="middle" x="269.88" y="-196.5" font-family="Helvetica,sans-Serif" font-size="10.00">HooksMgr::attach</text>
</a>
</g>
</g>
<!-- Node13&#45;&gt;Node14 -->
<g id="edge15_Node000013_Node000014" class="edge">
<title>Node13&#45;&gt;Node14</title>
<g id="a_edge15_Node000013_Node000014"><a xlink:title=" ">
<path fill="none" stroke="#63b8ff" d="M340.73,-200C332.59,-200 324.41,-200 316.65,-200"/>
<polygon fill="#63b8ff" stroke="#63b8ff" points="340.63,-203.5 350.63,-200 340.63,-196.5 340.63,-203.5"/>
</a>
</g>
</g>
<!-- Node15&#45;&gt;Node10 -->
<g id="edge17_Node000015_Node000010" class="edge">
<title>Node15&#45;&gt;Node10</title>
<g id="a_edge17_Node000015_Node000010"><a xlink:title=" ">
<path fill="none" stroke="#63b8ff" d="M504.74,-162C488.03,-162 469.15,-162 452.49,-162"/>
<polygon fill="#63b8ff" stroke="#63b8ff" points="504.4,-165.5 514.4,-162 504.4,-158.5 504.4,-165.5"/>
</a>
</g>
</g>
<!-- Node15&#45;&gt;Node13 -->
<g id="edge18_Node000015_Node000013" class="edge">
<title>Node15&#45;&gt;Node13</title>
<g id="a_edge18_Node000015_Node000013"><a xlink:title=" ">
<path fill="none" stroke="#63b8ff" d="M504.96,-174.1C486.22,-179.07 464.74,-184.76 446.7,-189.54"/>
<polygon fill="#63b8ff" stroke="#63b8ff" points="505.69,-177.53 514.45,-171.59 503.89,-170.77 505.69,-177.53"/>
</a>
</g>
</g>
<!-- Node17 -->
<g id="Node000017" class="node">
<title>Node17</title>
<g id="a_Node000017"><a xlink:href="wi_npo_s-_hook_2dllmain_8cpp.html#a26e64fb39b69bcd9d1274d279f1561b9" target="_top" xlink:title=" ">
<polygon fill="white" stroke="#666666" points="430.38,-96 382.12,-96 382.12,-76 430.38,-76 430.38,-96"/>
<text text-anchor="middle" x="406.25" y="-82.5" font-family="Helvetica,sans-Serif" font-size="10.00">DllMain</text>
</a>
</g>
</g>
<!-- Node16&#45;&gt;Node17 -->
<g id="edge20_Node000016_Node000017" class="edge">
<title>Node16&#45;&gt;Node17</title>
<g id="a_edge20_Node000016_Node000017"><a xlink:title=" ">
<path fill="none" stroke="#63b8ff" d="M499.79,-86C476.18,-86 449.25,-86 430.56,-86"/>
<polygon fill="#63b8ff" stroke="#63b8ff" points="499.55,-89.5 509.55,-86 499.55,-82.5 499.55,-89.5"/>
</a>
</g>
</g>
<!-- Node19 -->
<g id="Node000019" class="node">
<title>Node19</title>
<g id="a_Node000019"><a xlink:href="class_hooks_cfg.html#a22af3c96dcf5d97e276a10872e212cd3" target="_top" xlink:title="stores disabled in config">
<polygon fill="white" stroke="#666666" points="453.62,-20 358.88,-20 358.88,0 453.62,0 453.62,-20"/>
<text text-anchor="middle" x="406.25" y="-6.5" font-family="Helvetica,sans-Serif" font-size="10.00">HooksCfg::disable</text>
</a>
</g>
</g>
<!-- Node18&#45;&gt;Node19 -->
<g id="edge23_Node000018_Node000019" class="edge">
<title>Node18&#45;&gt;Node19</title>
<g id="a_edge23_Node000018_Node000019"><a xlink:title=" ">
<path fill="none" stroke="#63b8ff" d="M500.39,-34.69C482.78,-30.02 463.27,-24.85 446.68,-20.45"/>
<polygon fill="#63b8ff" stroke="#63b8ff" points="499.04,-37.95 509.6,-37.13 500.84,-31.18 499.04,-37.95"/>
</a>
</g>
</g>
<!-- Node20 -->
<g id="Node000020" class="node">
<title>Node20</title>
<g id="a_Node000020"><a xlink:href="class_hooks_cfg.html#a6b7aaaea554488711f35909aac7a9dba" target="_top" xlink:title="remove disabled from config">
<polygon fill="white" stroke="#666666" points="452.5,-58 360,-58 360,-38 452.5,-38 452.5,-58"/>
<text text-anchor="middle" x="406.25" y="-44.5" font-family="Helvetica,sans-Serif" font-size="10.00">HooksCfg::enable</text>
</a>
</g>
</g>
<!-- Node18&#45;&gt;Node20 -->
<g id="edge25_Node000018_Node000020" class="edge">
<title>Node18&#45;&gt;Node20</title>
<g id="a_edge25_Node000018_Node000020"><a xlink:title=" ">
<path fill="none" stroke="#63b8ff" d="M484.12,-48C473.45,-48 462.62,-48 452.59,-48"/>
<polygon fill="#63b8ff" stroke="#63b8ff" points="484.09,-51.5 494.09,-48 484.09,-44.5 484.09,-51.5"/>
</a>
</g>
</g>
<!-- Node19&#45;&gt;Node11 -->
<g id="edge24_Node000019_Node000011" class="edge">
<title>Node19&#45;&gt;Node11</title>
<g id="a_edge24_Node000019_Node000011"><a xlink:title=" ">
<path fill="none" stroke="#63b8ff" d="M358.25,-25.43C356.26,-26.55 354.33,-27.74 352.5,-29 318.12,-52.69 289.4,-94.28 277.18,-113.6"/>
<polygon fill="#63b8ff" stroke="#63b8ff" points="359.74,-28.59 367.21,-21.08 356.68,-22.3 359.74,-28.59"/>
</a>
</g>
</g>
<!-- Node20&#45;&gt;Node11 -->
<g id="edge26_Node000020_Node000011" class="edge">
<title>Node20&#45;&gt;Node11</title>
<g id="a_edge26_Node000020_Node000011"><a xlink:title=" ">
<path fill="none" stroke="#63b8ff" d="M361.48,-62.74C358.4,-64.09 355.38,-65.51 352.5,-67 326.41,-80.51 298.97,-101.21 283.49,-113.6"/>
<polygon fill="#63b8ff" stroke="#63b8ff" points="362.69,-66.02 370.64,-59.02 360.05,-59.54 362.69,-66.02"/>
</a>
</g>
</g>
</g>
</svg>
