<?xml version="1.0" encoding="UTF-8" standalone="no"?>
<!DOCTYPE svg PUBLIC "-//W3C//DTD SVG 1.1//EN"
 "http://www.w3.org/Graphics/SVG/1.1/DTD/svg11.dtd">
<!-- Generated by graphviz version 9.0.0 (20230911.1827)
 -->
<!-- Title: HooksMgr::load Pages: 1 -->
<svg width="551pt" height="104pt"
 viewBox="0.00 0.00 550.75 104.00" xmlns="http://www.w3.org/2000/svg" xmlns:xlink="http://www.w3.org/1999/xlink">
<g id="graph0" class="graph" transform="scale(1 1) rotate(0) translate(4 100)">
<title>HooksMgr::load</title>
<!-- Node1 -->
<g id="Node000001" class="node">
<title>Node1</title>
<g id="a_Node000001"><a xlink:title=" ">
<polygon fill="#999999" stroke="#666666" points="542.75,-58 458.5,-58 458.5,-38 542.75,-38 542.75,-58"/>
<text text-anchor="middle" x="500.62" y="-44.5" font-family="Helvetica,sans-Serif" font-size="10.00">HooksMgr::load</text>
</a>
</g>
</g>
<!-- Node2 -->
<g id="Node000002" class="node">
<title>Node2</title>
<g id="a_Node000002"><a xlink:href="class_hooks_mgr.html#a5f8aa4cd119cb5d489b0a6f1a2971a79" target="_top" xlink:title=" ">
<polygon fill="white" stroke="#666666" points="415.75,-96 322.5,-96 322.5,-76 415.75,-76 415.75,-96"/>
<text text-anchor="middle" x="369.12" y="-82.5" font-family="Helvetica,sans-Serif" font-size="10.00">HooksMgr::attach</text>
</a>
</g>
</g>
<!-- Node1&#45;&gt;Node2 -->
<g id="edge1_Node000001_Node000002" class="edge">
<title>Node1&#45;&gt;Node2</title>
<g id="a_edge1_Node000001_Node000002"><a xlink:title=" ">
<path fill="none" stroke="#63b8ff" d="M452.9,-61.71C437.35,-66.27 420.3,-71.28 405.74,-75.55"/>
<polygon fill="#63b8ff" stroke="#63b8ff" points="453.83,-65.08 462.44,-58.91 451.86,-58.37 453.83,-65.08"/>
</a>
</g>
</g>
<!-- Node3 -->
<g id="Node000003" class="node">
<title>Node3</title>
<g id="a_Node000003"><a xlink:href="class_hooks_mgr.html#a7cfb009127366d7236f5c05c2e4f9ab3" target="_top" xlink:title=" ">
<polygon fill="white" stroke="#666666" points="415,-58 323.25,-58 323.25,-38 415,-38 415,-58"/>
<text text-anchor="middle" x="369.12" y="-44.5" font-family="Helvetica,sans-Serif" font-size="10.00">HooksMgr::install</text>
</a>
</g>
</g>
<!-- Node1&#45;&gt;Node3 -->
<g id="edge2_Node000001_Node000003" class="edge">
<title>Node1&#45;&gt;Node3</title>
<g id="a_edge2_Node000001_Node000003"><a xlink:title=" ">
<path fill="none" stroke="#63b8ff" d="M447.03,-48C436.44,-48 425.4,-48 415.1,-48"/>
<polygon fill="#63b8ff" stroke="#63b8ff" points="446.78,-51.5 456.78,-48 446.78,-44.5 446.78,-51.5"/>
</a>
</g>
</g>
<!-- Node7 -->
<g id="Node000007" class="node">
<title>Node7</title>
<g id="a_Node000007"><a xlink:href="class_hooks_mgr.html#a9f23bc9ed2833734602401ccba353a6a" target="_top" xlink:title=" ">
<polygon fill="white" stroke="#666666" points="422.5,-20 315.75,-20 315.75,0 422.5,0 422.5,-20"/>
<text text-anchor="middle" x="369.12" y="-6.5" font-family="Helvetica,sans-Serif" font-size="10.00">HooksMgr::loadHook</text>
</a>
</g>
</g>
<!-- Node1&#45;&gt;Node7 -->
<g id="edge6_Node000001_Node000007" class="edge">
<title>Node1&#45;&gt;Node7</title>
<g id="a_edge6_Node000001_Node000007"><a xlink:title=" ">
<path fill="none" stroke="#63b8ff" d="M452.9,-34.29C437.35,-29.73 420.3,-24.72 405.74,-20.45"/>
<polygon fill="#63b8ff" stroke="#63b8ff" points="451.86,-37.63 462.44,-37.09 453.83,-30.92 451.86,-37.63"/>
</a>
</g>
</g>
<!-- Node4 -->
<g id="Node000004" class="node">
<title>Node4</title>
<g id="a_Node000004"><a xlink:href="wi_npo_s-_app_8cpp.html#a30a1e3b0304f1b083637664cbda94e72" target="_top" xlink:title="the main window procedure of this app">
<polygon fill="white" stroke="#666666" points="279.75,-39 223.25,-39 223.25,-19 279.75,-19 279.75,-39"/>
<text text-anchor="middle" x="251.5" y="-25.5" font-family="Helvetica,sans-Serif" font-size="10.00">WndProc</text>
</a>
</g>
</g>
<!-- Node3&#45;&gt;Node4 -->
<g id="edge3_Node000003_Node000004" class="edge">
<title>Node3&#45;&gt;Node4</title>
<g id="a_edge3_Node000003_Node000004"><a xlink:title=" ">
<path fill="none" stroke="#63b8ff" d="M311.45,-38.69C300.52,-36.89 289.53,-35.09 280.06,-33.53"/>
<polygon fill="#63b8ff" stroke="#63b8ff" points="310.83,-42.13 321.27,-40.3 311.97,-35.22 310.83,-42.13"/>
</a>
</g>
</g>
<!-- Node5 -->
<g id="Node000005" class="node">
<title>Node5</title>
<g id="a_Node000005"><a xlink:href="wi_npo_s-_app_8cpp.html#aa0d0c9beb94350f8eac8fc4026a65375" target="_top" xlink:title=" ">
<polygon fill="white" stroke="#666666" points="187.25,-39 97,-39 97,-19 187.25,-19 187.25,-39"/>
<text text-anchor="middle" x="142.12" y="-25.5" font-family="Helvetica,sans-Serif" font-size="10.00">MyRegisterClass</text>
</a>
</g>
</g>
<!-- Node4&#45;&gt;Node5 -->
<g id="edge4_Node000004_Node000005" class="edge">
<title>Node4&#45;&gt;Node5</title>
<g id="a_edge4_Node000004_Node000005"><a xlink:title=" ">
<path fill="none" stroke="#63b8ff" d="M211.42,-29C203.6,-29 195.33,-29 187.35,-29"/>
<polygon fill="#63b8ff" stroke="#63b8ff" points="211.33,-32.5 221.33,-29 211.33,-25.5 211.33,-32.5"/>
</a>
</g>
</g>
<!-- Node6 -->
<g id="Node000006" class="node">
<title>Node6</title>
<g id="a_Node000006"><a xlink:href="wi_npo_s-_app_8cpp.html#a8c6630df6bab43efe8254a603885b62e" target="_top" xlink:title=" ">
<polygon fill="white" stroke="#666666" points="61,-39 0,-39 0,-19 61,-19 61,-39"/>
<text text-anchor="middle" x="30.5" y="-25.5" font-family="Helvetica,sans-Serif" font-size="10.00">wWinMain</text>
</a>
</g>
</g>
<!-- Node5&#45;&gt;Node6 -->
<g id="edge5_Node000005_Node000006" class="edge">
<title>Node5&#45;&gt;Node6</title>
<g id="a_edge5_Node000005_Node000006"><a xlink:title=" ">
<path fill="none" stroke="#63b8ff" d="M85.3,-29C77.02,-29 68.77,-29 61.31,-29"/>
<polygon fill="#63b8ff" stroke="#63b8ff" points="85.02,-32.5 95.02,-29 85.02,-25.5 85.02,-32.5"/>
</a>
</g>
</g>
<!-- Node7&#45;&gt;Node4 -->
<g id="edge7_Node000007_Node000004" class="edge">
<title>Node7&#45;&gt;Node4</title>
<g id="a_edge7_Node000007_Node000004"><a xlink:title=" ">
<path fill="none" stroke="#63b8ff" d="M304.26,-20.49C295.82,-21.88 287.56,-23.24 280.2,-24.45"/>
<polygon fill="#63b8ff" stroke="#63b8ff" points="304.59,-23.99 313.89,-18.91 303.46,-17.08 304.59,-23.99"/>
</a>
</g>
</g>
</g>
</svg>
