<?xml version="1.0" encoding="UTF-8" standalone="no"?>
<!DOCTYPE svg PUBLIC "-//W3C//DTD SVG 1.1//EN"
 "http://www.w3.org/Graphics/SVG/1.1/DTD/svg11.dtd">
<!-- Generated by graphviz version 9.0.0 (20230911.1827)
 -->
<!-- Title: HooksMgr::setHooks Pages: 1 -->
<!--zoomable 553 -->

<svg id="main" version="1.1" xmlns="http://www.w3.org/2000/svg" xmlns:xlink="http://www.w3.org/1999/xlink" xml:space="preserve" onload="init(evt)">
<style type="text/css"><![CDATA[
.node, .edge {opacity: 0.7;}
.node.selected, .edge.selected {opacity: 1;}
.edge:hover path { stroke: red; }
.edge:hover polygon { stroke: red; fill: red; }
]]></style>

<defs>
  <circle id="rim" cx="0" cy="0" r="7"/>
  <circle id="rim2" cx="0" cy="0" r="3.5"/>
  <g id="zoomPlus">
    <use xlink:href="#rim" fill="#404040"><set attributeName="fill" to="#808080" begin="zoomplus.mouseover" end="zoomplus.mouseout"/></use>
    <path d="M-4,0h8M0,-4v8" fill="none" stroke="white" stroke-width="1.5" pointer-events="none"/>
  </g>
  <g id="zoomMin">
    <use xlink:href="#rim" fill="#404040"><set attributeName="fill" to="#808080" begin="zoomminus.mouseover" end="zoomminus.mouseout"/></use>
    <path d="M-4,0h8" fill="none" stroke="white" stroke-width="1.5" pointer-events="none"/>
  </g>
  <g id="arrowUp" transform="translate(30 24)">
    <use xlink:href="#rim"/>
    <path pointer-events="none" fill="none" stroke="white" stroke-width="1.5" d="M0,-3.0v7 M-2.5,-0.5L0,-3.0L2.5,-0.5"/>
  </g>
  <g id="arrowRight" transform="rotate(90) translate(36 -43)">
    <use xlink:href="#rim"/>
    <path pointer-events="none" fill="none" stroke="white" stroke-width="1.5" d="M0,-3.0v7 M-2.5,-0.5L0,-3.0L2.5,-0.5"/>
  </g>
  <g id="arrowDown" transform="rotate(180) translate(-30 -48)">
    <use xlink:href="#rim"/>
    <path pointer-events="none" fill="none" stroke="white" stroke-width="1.5" d="M0,-3.0v7 M-2.5,-0.5L0,-3.0L2.5,-0.5"/>
  </g>
  <g id="arrowLeft" transform="rotate(270) translate(-36 17)">
    <use xlink:href="#rim"/>
    <path pointer-events="none" fill="none" stroke="white" stroke-width="1.5" d="M0,-3.0v7 M-2.5,-0.5L0,-3.0L2.5,-0.5"/>
  </g>
  <g id="resetDef">
    <use xlink:href="#rim2" fill="#404040"><set attributeName="fill" to="#808080" begin="reset.mouseover" end="reset.mouseout"/></use>
  </g>
</defs>
<script type="application/ecmascript">
var viewWidth = 1535;
var viewHeight = 553;
var sectionId = 'dynsection-8';
</script>
<script type="application/ecmascript" xlink:href="svg.min.js"/>
<svg id="graph" class="graph">
<g id="viewport">
<title>HooksMgr::setHooks</title>
<!-- Node1 -->
<g id="Node000001" class="node">
<title>Node1</title>
<g id="a_Node000001"><a xlink:title=" ">
<polygon fill="#999999" stroke="#666666" points="107.5,-450 0,-450 0,-430 107.5,-430 107.5,-450"/>
<text text-anchor="middle" x="53.75" y="-436.5" font-family="Helvetica,sans-Serif" font-size="10.00">HooksMgr::setHooks</text>
</a>
</g>
</g>
<!-- Node2 -->
<g id="Node000002" class="node">
<title>Node2</title>
<g id="a_Node000002"><a xlink:href="_hooks_impl_8cpp.html#adae4ff67fba416ac992fe973d90abc58" target="_top" xlink:title="the exported hook for the main window procedure">
<polygon fill="white" stroke="#666666" points="216.5,-469 143.5,-469 143.5,-449 216.5,-449 216.5,-469"/>
<text text-anchor="middle" x="180" y="-455.5" font-family="Helvetica,sans-Serif" font-size="10.00">CallWndProc</text>
</a>
</g>
</g>
<!-- Node1&#45;&gt;Node2 -->
<g id="edge1_Node000001_Node000002" class="edge">
<title>Node1&#45;&gt;Node2</title>
<g id="a_edge1_Node000001_Node000002"><a xlink:title=" ">
<path fill="none" stroke="#63b8ff" d="M107.8,-448.11C115.87,-449.35 124.14,-450.61 132.07,-451.82"/>
<polygon fill="#63b8ff" stroke="#63b8ff" points="131.45,-455.27 141.86,-453.32 132.51,-448.35 131.45,-455.27"/>
</a>
</g>
</g>
<!-- Node12 -->
<g id="Node000012" class="node">
<title>Node12</title>
<g id="a_Node000012"><a xlink:href="_hooks_impl_8cpp.html#ab9f4b48939788d5aa0f404323b16a957" target="_top" xlink:title="the exported hook for the windows&#45;message procedure">
<polygon fill="white" stroke="#666666" points="215.38,-431 144.62,-431 144.62,-411 215.38,-411 215.38,-431"/>
<text text-anchor="middle" x="180" y="-417.5" font-family="Helvetica,sans-Serif" font-size="10.00">GetMsgProc</text>
</a>
</g>
</g>
<!-- Node1&#45;&gt;Node12 -->
<g id="edge11_Node000001_Node000012" class="edge">
<title>Node1&#45;&gt;Node12</title>
<g id="a_edge11_Node000001_Node000012"><a xlink:title=" ">
<path fill="none" stroke="#63b8ff" d="M107.8,-431.89C116.23,-430.6 124.89,-429.27 133.13,-428.01"/>
<polygon fill="#63b8ff" stroke="#63b8ff" points="133.6,-431.48 142.95,-426.51 132.54,-424.56 133.6,-431.48"/>
</a>
</g>
</g>
<!-- Node3 -->
<g id="Node000003" class="node">
<title>Node3</title>
<g id="a_Node000003"><a xlink:href="class_hooks_impl.html#a10c087a169c357990bf12340347e2fc0" target="_top" xlink:title="here we follow the main message loop of the application">
<polygon fill="white" stroke="#666666" points="375.75,-488 252.5,-488 252.5,-468 375.75,-468 375.75,-488"/>
<text text-anchor="middle" x="314.12" y="-474.5" font-family="Helvetica,sans-Serif" font-size="10.00">HooksImpl::callWndProc</text>
</a>
</g>
</g>
<!-- Node2&#45;&gt;Node3 -->
<g id="edge2_Node000002_Node000003" class="edge">
<title>Node2&#45;&gt;Node3</title>
<g id="a_edge2_Node000002_Node000003"><a xlink:title=" ">
<path fill="none" stroke="#63b8ff" d="M216.75,-464.14C224.27,-465.22 232.45,-466.4 240.77,-467.59"/>
<polygon fill="#63b8ff" stroke="#63b8ff" points="240.24,-471.06 250.64,-469.01 241.24,-464.13 240.24,-471.06"/>
</a>
</g>
</g>
<!-- Node7 -->
<g id="Node000007" class="node">
<title>Node7</title>
<g id="a_Node000007"><a xlink:href="class_hooks_cfg.html#ab994ae67a05ce4decf5b7af5314eb913" target="_top" xlink:title="check if someone has disabled stored in config">
<polygon fill="white" stroke="#666666" points="368.62,-450 259.62,-450 259.62,-430 368.62,-430 368.62,-450"/>
<text text-anchor="middle" x="314.12" y="-436.5" font-family="Helvetica,sans-Serif" font-size="10.00">HooksCfg::isDisabled</text>
</a>
</g>
</g>
<!-- Node2&#45;&gt;Node7 -->
<g id="edge6_Node000002_Node000007" class="edge">
<title>Node2&#45;&gt;Node7</title>
<g id="a_edge6_Node000002_Node000007"><a xlink:title=" ">
<path fill="none" stroke="#63b8ff" d="M216.75,-453.86C226.45,-452.46 237.27,-450.91 248.04,-449.36"/>
<polygon fill="#63b8ff" stroke="#63b8ff" points="248.32,-452.86 257.72,-447.97 247.32,-445.93 248.32,-452.86"/>
</a>
</g>
</g>
<!-- Node4 -->
<g id="Node000004" class="node">
<title>Node4</title>
<g id="a_Node000004"><a xlink:href="class_hooks_impl.html#a1022c4a7b4012228b83b0b89ee790f89" target="_top" xlink:title="here we react to position changes of the main window">
<polygon fill="white" stroke="#666666" points="580,-488 411.75,-488 411.75,-468 580,-468 580,-488"/>
<text text-anchor="middle" x="495.88" y="-474.5" font-family="Helvetica,sans-Serif" font-size="10.00">HooksImpl::onWindowPosChanged</text>
</a>
</g>
</g>
<!-- Node3&#45;&gt;Node4 -->
<g id="edge3_Node000003_Node000004" class="edge">
<title>Node3&#45;&gt;Node4</title>
<g id="a_edge3_Node000003_Node000004"><a xlink:title=" ">
<path fill="none" stroke="#63b8ff" d="M376.23,-478C383.91,-478 391.9,-478 399.95,-478"/>
<polygon fill="#63b8ff" stroke="#63b8ff" points="399.82,-481.5 409.82,-478 399.82,-474.5 399.82,-481.5"/>
</a>
</g>
</g>
<!-- Node5 -->
<g id="Node000005" class="node">
<title>Node5</title>
<g id="a_Node000005"><a xlink:href="class_hooks_impl.html#a8ef5405a747979c1f5197848e4a8e684" target="_top" xlink:title=" ">
<polygon fill="white" stroke="#666666" points="759.12,-221 628.38,-221 628.38,-189 759.12,-189 759.12,-221"/>
<text text-anchor="start" x="636.38" y="-207.5" font-family="Helvetica,sans-Serif" font-size="10.00">HooksImpl::hasCaptionDbl</text>
<text text-anchor="middle" x="693.75" y="-195.5" font-family="Helvetica,sans-Serif" font-size="10.00">Clicked</text>
</a>
</g>
</g>
<!-- Node4&#45;&gt;Node5 -->
<g id="edge4_Node000004_Node000005" class="edge">
<title>Node4&#45;&gt;Node5</title>
<g id="a_edge4_Node000004_Node000005"><a xlink:title=" ">
<path fill="none" stroke="#63b8ff" d="M566.42,-467.53C571.29,-465.2 575.89,-462.39 580,-459 652.04,-399.68 679.59,-284.99 688.75,-232.47"/>
<polygon fill="#63b8ff" stroke="#63b8ff" points="692.16,-233.31 690.32,-222.88 685.25,-232.18 692.16,-233.31"/>
</a>
</g>
</g>
<!-- Node6 -->
<g id="Node000006" class="node">
<title>Node6</title>
<g id="a_Node000006"><a xlink:href="class_hooks_impl.html#a7a48621aa5b57024ae963b861fd508cb" target="_top" xlink:title=" ">
<polygon fill="white" stroke="#666666" points="755,-466 632.5,-466 632.5,-446 755,-446 755,-466"/>
<text text-anchor="middle" x="693.75" y="-452.5" font-family="Helvetica,sans-Serif" font-size="10.00">HooksImpl::hasLastRect</text>
</a>
</g>
</g>
<!-- Node4&#45;&gt;Node6 -->
<g id="edge5_Node000004_Node000006" class="edge">
<title>Node4&#45;&gt;Node6</title>
<g id="a_edge5_Node000004_Node000006"><a xlink:title=" ">
<path fill="none" stroke="#63b8ff" d="M580.23,-468.64C593.68,-467.13 607.5,-465.57 620.66,-464.1"/>
<polygon fill="#63b8ff" stroke="#63b8ff" points="620.97,-467.58 630.51,-462.99 620.19,-460.63 620.97,-467.58"/>
</a>
</g>
</g>
<!-- Node8 -->
<g id="Node000008" class="node">
<title>Node8</title>
<g id="a_Node000008"><a xlink:href="class_hooks_cfg.html#a9642afc6c6fe88141770403a09cdfc4b" target="_top" xlink:title="read the global config for all apps">
<polygon fill="white" stroke="#666666" points="550.75,-526 441,-526 441,-506 550.75,-506 550.75,-526"/>
<text text-anchor="middle" x="495.88" y="-512.5" font-family="Helvetica,sans-Serif" font-size="10.00">HooksCfg::readConfig</text>
</a>
</g>
</g>
<!-- Node7&#45;&gt;Node8 -->
<g id="edge7_Node000007_Node000008" class="edge">
<title>Node7&#45;&gt;Node8</title>
<g id="a_edge7_Node000007_Node000008"><a xlink:title=" ">
<path fill="none" stroke="#63b8ff" d="M358.09,-450.44C364.24,-452.78 370.32,-455.61 375.75,-459 395.48,-471.32 391.54,-485.47 411.75,-497 417.43,-500.24 423.63,-502.93 430,-505.16"/>
<polygon fill="#63b8ff" stroke="#63b8ff" points="428.78,-508.45 439.37,-508.05 430.84,-501.76 428.78,-508.45"/>
</a>
</g>
</g>
<!-- Node9 -->
<g id="Node000009" class="node">
<title>Node9</title>
<g id="a_Node000009"><a xlink:href="class_hooks_cfg.html#a808e4e4a7bc43b89c87ef172fa8caf6a" target="_top" xlink:title="the path to the global config, for all apps">
<polygon fill="white" stroke="#666666" points="756.12,-507 631.38,-507 631.38,-487 756.12,-487 756.12,-507"/>
<text text-anchor="middle" x="693.75" y="-493.5" font-family="Helvetica,sans-Serif" font-size="10.00">HooksCfg::getConfigPath</text>
</a>
</g>
</g>
<!-- Node8&#45;&gt;Node9 -->
<g id="edge8_Node000008_Node000009" class="edge">
<title>Node8&#45;&gt;Node9</title>
<g id="a_edge8_Node000008_Node000009"><a xlink:title=" ">
<path fill="none" stroke="#63b8ff" d="M551.18,-510.73C572.39,-508.68 597.03,-506.28 619.76,-504.08"/>
<polygon fill="#63b8ff" stroke="#63b8ff" points="619.96,-507.58 629.58,-503.13 619.29,-500.61 619.96,-507.58"/>
</a>
</g>
</g>
<!-- Node11 -->
<g id="Node000011" class="node">
<title>Node11</title>
<g id="a_Node000011"><a xlink:href="class_hooks_cfg.html#ab8fd861156e6b389e43bbda021f42c50" target="_top" xlink:title="read a JSON config from given path">
<polygon fill="white" stroke="#666666" points="770.75,-545 616.75,-545 616.75,-525 770.75,-525 770.75,-545"/>
<text text-anchor="middle" x="693.75" y="-531.5" font-family="Helvetica,sans-Serif" font-size="10.00">HooksCfg::readConfigDocument</text>
</a>
</g>
</g>
<!-- Node8&#45;&gt;Node11 -->
<g id="edge10_Node000008_Node000011" class="edge">
<title>Node8&#45;&gt;Node11</title>
<g id="a_edge10_Node000008_Node000011"><a xlink:title=" ">
<path fill="none" stroke="#63b8ff" d="M551.18,-521.27C567.87,-522.89 586.68,-524.71 605.01,-526.49"/>
<polygon fill="#63b8ff" stroke="#63b8ff" points="604.54,-529.96 614.83,-527.44 605.22,-522.99 604.54,-529.96"/>
</a>
</g>
</g>
<!-- Node10 -->
<g id="Node000010" class="node">
<title>Node10</title>
<g id="a_Node000010"><a xlink:href="class_hooks_cfg.html#a437c5768d5246cf980d1be5ea6f272c6" target="_top" xlink:title="the directory, where store the configs and logs">
<polygon fill="white" stroke="#666666" points="936,-507 819.5,-507 819.5,-487 936,-487 936,-507"/>
<text text-anchor="middle" x="877.75" y="-493.5" font-family="Helvetica,sans-Serif" font-size="10.00">HooksCfg::getConfigDir</text>
</a>
</g>
</g>
<!-- Node9&#45;&gt;Node10 -->
<g id="edge9_Node000009_Node000010" class="edge">
<title>Node9&#45;&gt;Node10</title>
<g id="a_edge9_Node000009_Node000010"><a xlink:title=" ">
<path fill="none" stroke="#63b8ff" d="M756.62,-497C773.03,-497 790.86,-497 807.63,-497"/>
<polygon fill="#63b8ff" stroke="#63b8ff" points="807.52,-500.5 817.52,-497 807.52,-493.5 807.52,-500.5"/>
</a>
</g>
</g>
<!-- Node12&#45;&gt;Node7 -->
<g id="edge54_Node000012_Node000007" class="edge">
<title>Node12&#45;&gt;Node7</title>
<g id="a_edge54_Node000012_Node000007"><a xlink:title=" ">
<path fill="none" stroke="#63b8ff" d="M215.71,-425.99C225.69,-427.43 236.91,-429.04 248.09,-430.65"/>
<polygon fill="#63b8ff" stroke="#63b8ff" points="247.32,-434.07 257.71,-432.03 248.31,-427.14 247.32,-434.07"/>
</a>
</g>
</g>
<!-- Node13 -->
<g id="Node000013" class="node">
<title>Node13</title>
<g id="a_Node000013"><a xlink:href="class_hooks_impl.html#a07053e18c49265e300fe89b2a5bc28de" target="_top" xlink:title="here the Windows messages are picked up, which do not appear in the main message loop">
<polygon fill="white" stroke="#666666" points="374.25,-248 254,-248 254,-228 374.25,-228 374.25,-248"/>
<text text-anchor="middle" x="314.12" y="-234.5" font-family="Helvetica,sans-Serif" font-size="10.00">HooksImpl::getMsgProc</text>
</a>
</g>
</g>
<!-- Node12&#45;&gt;Node13 -->
<g id="edge12_Node000012_Node000013" class="edge">
<title>Node12&#45;&gt;Node13</title>
<g id="a_edge12_Node000012_Node000013"><a xlink:title=" ">
<path fill="none" stroke="#63b8ff" d="M188.48,-410.64C209.83,-381.07 271.28,-295.96 299.12,-257.4"/>
<polygon fill="#63b8ff" stroke="#63b8ff" points="301.82,-259.63 304.84,-249.48 296.15,-255.54 301.82,-259.63"/>
</a>
</g>
</g>
<!-- Node14 -->
<g id="Node000014" class="node">
<title>Node14</title>
<g id="a_Node000014"><a xlink:href="class_hooks_impl.html#a30acc60a07305d2df36a7798cb73aaa1" target="_top" xlink:title=" ">
<polygon fill="white" stroke="#666666" points="568.75,-324 423,-324 423,-304 568.75,-304 568.75,-324"/>
<text text-anchor="middle" x="495.88" y="-310.5" font-family="Helvetica,sans-Serif" font-size="10.00">HooksImpl::getLButtonUpMsg</text>
</a>
</g>
</g>
<!-- Node13&#45;&gt;Node14 -->
<g id="edge13_Node000013_Node000014" class="edge">
<title>Node13&#45;&gt;Node14</title>
<g id="a_edge13_Node000013_Node000014"><a xlink:title=" ">
<path fill="none" stroke="#63b8ff" d="M329.45,-248.38C347.71,-261.14 380.63,-282.61 411.75,-295 416.73,-296.98 421.97,-298.79 427.29,-300.42"/>
<polygon fill="#63b8ff" stroke="#63b8ff" points="426.23,-303.76 436.81,-303.12 428.14,-297.02 426.23,-303.76"/>
</a>
</g>
</g>
<!-- Node15 -->
<g id="Node000015" class="node">
<title>Node15</title>
<g id="a_Node000015"><a xlink:href="class_hooks_impl.html#a1f4bd7b8436918fc1cd5cea1c3a15bc9" target="_top" xlink:title=" ">
<polygon fill="white" stroke="#666666" points="574.75,-286 417,-286 417,-266 574.75,-266 574.75,-286"/>
<text text-anchor="middle" x="495.88" y="-272.5" font-family="Helvetica,sans-Serif" font-size="10.00">HooksImpl::getNcLButtonUpMsg</text>
</a>
</g>
</g>
<!-- Node13&#45;&gt;Node15 -->
<g id="edge14_Node000013_Node000015" class="edge">
<title>Node13&#45;&gt;Node15</title>
<g id="a_edge14_Node000013_Node000015"><a xlink:title=" ">
<path fill="none" stroke="#63b8ff" d="M364.72,-248.48C386.23,-253.03 411.63,-258.4 434.25,-263.18"/>
<polygon fill="#63b8ff" stroke="#63b8ff" points="433.46,-266.59 443.96,-265.24 434.9,-259.74 433.46,-266.59"/>
</a>
</g>
</g>
<!-- Node16 -->
<g id="Node000016" class="node">
<title>Node16</title>
<g id="a_Node000016"><a xlink:href="class_task_toolbar.html#a3159b1e31199ee3691bf2bcf5ec21100" target="_top" xlink:title=" ">
<polygon fill="white" stroke="#666666" points="550.75,-248 441,-248 441,-228 550.75,-228 550.75,-248"/>
<text text-anchor="middle" x="495.88" y="-234.5" font-family="Helvetica,sans-Serif" font-size="10.00">TaskToolbar::initialize</text>
</a>
</g>
</g>
<!-- Node13&#45;&gt;Node16 -->
<g id="edge15_Node000013_Node000016" class="edge">
<title>Node13&#45;&gt;Node16</title>
<g id="a_edge15_Node000013_Node000016"><a xlink:title=" ">
<path fill="none" stroke="#63b8ff" d="M374.48,-238C392.1,-238 411.49,-238 429.46,-238"/>
<polygon fill="#63b8ff" stroke="#63b8ff" points="429.23,-241.5 439.23,-238 429.23,-234.5 429.23,-241.5"/>
</a>
</g>
</g>
<!-- Node17 -->
<g id="Node000017" class="node">
<title>Node17</title>
<g id="a_Node000017"><a xlink:href="class_hooks_impl.html#ae0d26e76e300b5392e64fb070aafe8d5" target="_top" xlink:title="do the work, if necessary">
<polygon fill="white" stroke="#666666" points="562.38,-134 429.38,-134 429.38,-114 562.38,-114 562.38,-134"/>
<text text-anchor="middle" x="495.88" y="-120.5" font-family="Helvetica,sans-Serif" font-size="10.00">HooksImpl::onCaptionClick</text>
</a>
</g>
</g>
<!-- Node13&#45;&gt;Node17 -->
<g id="edge16_Node000013_Node000017" class="edge">
<title>Node13&#45;&gt;Node17</title>
<g id="a_edge16_Node000013_Node000017"><a xlink:title=" ">
<path fill="none" stroke="#63b8ff" d="M323.28,-227.71C338.62,-209.06 373.65,-169.59 411.75,-148 418.59,-144.12 426.11,-140.83 433.74,-138.04"/>
<polygon fill="#63b8ff" stroke="#63b8ff" points="434.74,-141.4 443.11,-134.91 432.52,-134.76 434.74,-141.4"/>
</a>
</g>
</g>
<!-- Node18 -->
<g id="Node000018" class="node">
<title>Node18</title>
<g id="a_Node000018"><a xlink:href="class_hooks_impl.html#a84c9a5c6b0754e092de2ee6a8b8bba1e" target="_top" xlink:title="method to change the size of a window in steps">
<polygon fill="white" stroke="#666666" points="771.5,-171 616,-171 616,-151 771.5,-151 771.5,-171"/>
<text text-anchor="middle" x="693.75" y="-157.5" font-family="Helvetica,sans-Serif" font-size="10.00">HooksImpl::onIncrementWindow</text>
</a>
</g>
</g>
<!-- Node13&#45;&gt;Node18 -->
<g id="edge44_Node000013_Node000018" class="edge">
<title>Node13&#45;&gt;Node18</title>
<g id="a_edge44_Node000013_Node000018"><a xlink:title=" ">
<path fill="none" stroke="#63b8ff" d="M328.25,-227.54C346,-214.05 379.21,-191.14 411.75,-181 474.11,-161.57 547.88,-156.97 604.18,-157.02"/>
<polygon fill="#63b8ff" stroke="#63b8ff" points="604.03,-160.51 614.05,-157.08 604.07,-153.51 604.03,-160.51"/>
</a>
</g>
</g>
<!-- Node19 -->
<g id="Node000019" class="node">
<title>Node19</title>
<g id="a_Node000019"><a xlink:href="class_hooks_impl.html#ab6696c1ccc12ebdd892883485456ed3c" target="_top" xlink:title=" ">
<polygon fill="white" stroke="#666666" points="763.62,-132 623.88,-132 623.88,-112 763.62,-112 763.62,-132"/>
<text text-anchor="middle" x="693.75" y="-118.5" font-family="Helvetica,sans-Serif" font-size="10.00">HooksImpl::onShowPosWnd</text>
</a>
</g>
</g>
<!-- Node13&#45;&gt;Node19 -->
<g id="edge52_Node000013_Node000019" class="edge">
<title>Node13&#45;&gt;Node19</title>
<g id="a_edge52_Node000013_Node000019"><a xlink:title=" ">
<path fill="none" stroke="#63b8ff" d="M318.75,-227.82C328.72,-201.55 359.36,-131.69 411.75,-105 490.54,-64.85 598.33,-89.95 654.76,-108.12"/>
<polygon fill="#63b8ff" stroke="#63b8ff" points="653.31,-111.32 663.91,-111.16 655.52,-104.68 653.31,-111.32"/>
</a>
</g>
</g>
<!-- Node35 -->
<g id="Node000035" class="node">
<title>Node35</title>
<g id="a_Node000035"><a xlink:href="class_hooks_impl.html#a924c5db32f07636c8acbc9421c216112" target="_top" xlink:title=" ">
<polygon fill="white" stroke="#666666" points="764,-58 623.5,-58 623.5,-38 764,-38 764,-58"/>
<text text-anchor="middle" x="693.75" y="-44.5" font-family="Helvetica,sans-Serif" font-size="10.00">HooksImpl::onClosePosWnd</text>
</a>
</g>
</g>
<!-- Node13&#45;&gt;Node35 -->
<g id="edge40_Node000013_Node000035" class="edge">
<title>Node13&#45;&gt;Node35</title>
<g id="a_edge40_Node000013_Node000035"><a xlink:title=" ">
<path fill="none" stroke="#63b8ff" d="M317.97,-227.63C326.54,-198.58 355.09,-116.13 411.75,-80 471.06,-42.18 551.99,-36.67 611.77,-39.15"/>
<polygon fill="#63b8ff" stroke="#63b8ff" points="611.38,-42.63 621.54,-39.64 611.73,-35.64 611.38,-42.63"/>
</a>
</g>
</g>
<!-- Node36 -->
<g id="Node000036" class="node">
<title>Node36</title>
<g id="a_Node000036"><a xlink:href="class_hooks_impl.html#a7628ad89b3625fcd9e8538d94d7b2cde" target="_top" xlink:title="processes the WM_LBUTTONUP event">
<polygon fill="white" stroke="#666666" points="557.88,-210 433.88,-210 433.88,-190 557.88,-190 557.88,-210"/>
<text text-anchor="middle" x="495.88" y="-196.5" font-family="Helvetica,sans-Serif" font-size="10.00">HooksImpl::onLButtonUp</text>
</a>
</g>
</g>
<!-- Node13&#45;&gt;Node36 -->
<g id="edge45_Node000013_Node000036" class="edge">
<title>Node13&#45;&gt;Node36</title>
<g id="a_edge45_Node000013_Node000036"><a xlink:title=" ">
<path fill="none" stroke="#63b8ff" d="M364.72,-227.52C386.23,-222.97 411.63,-217.6 434.25,-212.82"/>
<polygon fill="#63b8ff" stroke="#63b8ff" points="434.9,-216.26 443.96,-210.76 433.46,-209.41 434.9,-216.26"/>
</a>
</g>
</g>
<!-- Node37 -->
<g id="Node000037" class="node">
<title>Node37</title>
<g id="a_Node000037"><a xlink:href="class_hooks_impl.html#afe7a8e2c13ab2abe83b4f3d0c462e761" target="_top" xlink:title="this procedure handles the double click in non&#45;client area">
<polygon fill="white" stroke="#666666" points="565,-450 426.75,-450 426.75,-418 565,-418 565,-450"/>
<text text-anchor="start" x="434.75" y="-436.5" font-family="Helvetica,sans-Serif" font-size="10.00">HooksImpl::onNcLButtonDbl</text>
<text text-anchor="middle" x="495.88" y="-424.5" font-family="Helvetica,sans-Serif" font-size="10.00">Click</text>
</a>
</g>
</g>
<!-- Node13&#45;&gt;Node37 -->
<g id="edge48_Node000013_Node000037" class="edge">
<title>Node13&#45;&gt;Node37</title>
<g id="a_edge48_Node000013_Node000037"><a xlink:title=" ">
<path fill="none" stroke="#63b8ff" d="M317.95,-248.25C326.63,-277.86 355.81,-364.29 411.75,-409 413.29,-410.23 414.88,-411.4 416.53,-412.51"/>
<polygon fill="#63b8ff" stroke="#63b8ff" points="414.72,-415.5 425.12,-417.51 418.24,-409.45 414.72,-415.5"/>
</a>
</g>
</g>
<!-- Node38 -->
<g id="Node000038" class="node">
<title>Node38</title>
<g id="a_Node000038"><a xlink:href="class_hooks_impl.html#a9adf50040968aa66908f643ad1edda53" target="_top" xlink:title="processes the WM_NCLBUTTONDOWN event">
<polygon fill="white" stroke="#666666" points="569.88,-20 421.88,-20 421.88,0 569.88,0 569.88,-20"/>
<text text-anchor="middle" x="495.88" y="-6.5" font-family="Helvetica,sans-Serif" font-size="10.00">HooksImpl::onNcLButtonDown</text>
</a>
</g>
</g>
<!-- Node13&#45;&gt;Node38 -->
<g id="edge50_Node000013_Node000038" class="edge">
<title>Node13&#45;&gt;Node38</title>
<g id="a_edge50_Node000013_Node000038"><a xlink:title=" ">
<path fill="none" stroke="#63b8ff" d="M316.92,-227.72C323.27,-194.38 347.87,-88.33 411.75,-34 415.83,-30.53 420.38,-27.57 425.19,-25.03"/>
<polygon fill="#63b8ff" stroke="#63b8ff" points="426.35,-28.35 434,-21.02 423.45,-21.98 426.35,-28.35"/>
</a>
</g>
</g>
<!-- Node39 -->
<g id="Node000039" class="node">
<title>Node39</title>
<g id="a_Node000039"><a xlink:href="class_hooks_impl.html#a88ea927a4d021535e4a5768ef60a50d7" target="_top" xlink:title="processes the WM_NCLBUTTONUP event">
<polygon fill="white" stroke="#666666" points="564.62,-400 427.12,-400 427.12,-380 564.62,-380 564.62,-400"/>
<text text-anchor="middle" x="495.88" y="-386.5" font-family="Helvetica,sans-Serif" font-size="10.00">HooksImpl::onNCLButtonUp</text>
</a>
</g>
</g>
<!-- Node13&#45;&gt;Node39 -->
<g id="edge51_Node000013_Node000039" class="edge">
<title>Node13&#45;&gt;Node39</title>
<g id="a_edge51_Node000013_Node000039"><a xlink:title=" ">
<path fill="none" stroke="#63b8ff" d="M319.45,-248.26C330.65,-273.51 363.16,-338.92 411.75,-371 413.86,-372.39 416.05,-373.68 418.32,-374.88"/>
<polygon fill="#63b8ff" stroke="#63b8ff" points="416.67,-377.98 427.23,-378.92 419.57,-371.6 416.67,-377.98"/>
</a>
</g>
</g>
<!-- Node40 -->
<g id="Node000040" class="node">
<title>Node40</title>
<g id="a_Node000040"><a xlink:href="class_task_toolbar.html#a2304586dd147f754c7040f781eda1270" target="_top" xlink:title=" ">
<polygon fill="white" stroke="#666666" points="556,-362 435.75,-362 435.75,-342 556,-342 556,-362"/>
<text text-anchor="middle" x="495.88" y="-348.5" font-family="Helvetica,sans-Serif" font-size="10.00">TaskToolbar::uninitialize</text>
</a>
</g>
</g>
<!-- Node13&#45;&gt;Node40 -->
<g id="edge53_Node000013_Node000040" class="edge">
<title>Node13&#45;&gt;Node40</title>
<g id="a_edge53_Node000013_Node000040"><a xlink:title=" ">
<path fill="none" stroke="#63b8ff" d="M322.56,-248.47C337.23,-268.27 371.92,-311.2 411.75,-333 415.84,-335.24 420.18,-337.21 424.65,-338.96"/>
<polygon fill="#63b8ff" stroke="#63b8ff" points="423.23,-342.17 433.83,-342.12 425.52,-335.55 423.23,-342.17"/>
</a>
</g>
</g>
<!-- Node17&#45;&gt;Node5 -->
<g id="edge17_Node000017_Node000005" class="edge">
<title>Node17&#45;&gt;Node5</title>
<g id="a_edge17_Node000017_Node000005"><a xlink:title=" ">
<path fill="none" stroke="#63b8ff" d="M516.77,-134.29C540.16,-146.16 580.31,-165.86 616,-180 620.13,-181.64 624.42,-183.25 628.76,-184.83"/>
<polygon fill="#63b8ff" stroke="#63b8ff" points="627.57,-188.12 638.17,-188.14 629.9,-181.52 627.57,-188.12"/>
</a>
</g>
</g>
<!-- Node17&#45;&gt;Node18 -->
<g id="edge18_Node000017_Node000018" class="edge">
<title>Node17&#45;&gt;Node18</title>
<g id="a_edge18_Node000017_Node000018"><a xlink:title=" ">
<path fill="none" stroke="#63b8ff" d="M552.22,-134.45C575.17,-138.79 602,-143.86 626.02,-148.4"/>
<polygon fill="#63b8ff" stroke="#63b8ff" points="625.24,-151.81 635.72,-150.23 626.54,-144.93 625.24,-151.81"/>
</a>
</g>
</g>
<!-- Node17&#45;&gt;Node19 -->
<g id="edge19_Node000017_Node000019" class="edge">
<title>Node17&#45;&gt;Node19</title>
<g id="a_edge19_Node000017_Node000019"><a xlink:title=" ">
<path fill="none" stroke="#63b8ff" d="M562.64,-123.33C578.54,-123.17 595.7,-122.99 612.19,-122.82"/>
<polygon fill="#63b8ff" stroke="#63b8ff" points="611.99,-126.32 621.95,-122.72 611.92,-119.33 611.99,-126.32"/>
</a>
</g>
</g>
<!-- Node20 -->
<g id="Node000020" class="node">
<title>Node20</title>
<g id="a_Node000020"><a xlink:href="class_win_pos_wnd.html#abec2e67db5543a717d59b02ab8dbb930" target="_top" xlink:title="create the required windows for monitor preview and all configured positions">
<polygon fill="white" stroke="#666666" points="929.62,-172 825.88,-172 825.88,-152 929.62,-152 929.62,-172"/>
<text text-anchor="middle" x="877.75" y="-158.5" font-family="Helvetica,sans-Serif" font-size="10.00">WinPosWnd::create</text>
</a>
</g>
</g>
<!-- Node19&#45;&gt;Node20 -->
<g id="edge20_Node000019_Node000020" class="edge">
<title>Node19&#45;&gt;Node20</title>
<g id="a_edge20_Node000019_Node000020"><a xlink:title=" ">
<path fill="none" stroke="#63b8ff" d="M742.09,-132.41C765.29,-137.5 793.45,-143.69 818.01,-149.09"/>
<polygon fill="#63b8ff" stroke="#63b8ff" points="817.02,-152.45 827.53,-151.18 818.52,-145.62 817.02,-152.45"/>
</a>
</g>
</g>
<!-- Node34 -->
<g id="Node000034" class="node">
<title>Node34</title>
<g id="a_Node000034"><a xlink:href="class_win_pos_wnd.html#acb456c59641ec336d5c7646764fe7e6a" target="_top" xlink:title=" ">
<polygon fill="white" stroke="#666666" points="948,-131 807.5,-131 807.5,-111 948,-111 948,-131"/>
<text text-anchor="middle" x="877.75" y="-117.5" font-family="Helvetica,sans-Serif" font-size="10.00">WinPosWnd::getWndHandle</text>
</a>
</g>
</g>
<!-- Node19&#45;&gt;Node34 -->
<g id="edge39_Node000019_Node000034" class="edge">
<title>Node19&#45;&gt;Node34</title>
<g id="a_edge39_Node000019_Node000034"><a xlink:title=" ">
<path fill="none" stroke="#63b8ff" d="M764.08,-121.62C774.4,-121.56 785.13,-121.5 795.67,-121.45"/>
<polygon fill="#63b8ff" stroke="#63b8ff" points="795.52,-124.95 805.5,-121.39 795.48,-117.95 795.52,-124.95"/>
</a>
</g>
</g>
<!-- Node21 -->
<g id="Node000021" class="node">
<title>Node21</title>
<g id="a_Node000021"><a xlink:href="class_win_pos_wnd.html#a4b607f031e5058874a31918e4cc1ba79" target="_top" xlink:title="if the window looks beyond the edge of the monitor, it is moved so that it is displayed as a whole on...">
<polygon fill="white" stroke="#666666" points="1144,-304 988.5,-304 988.5,-284 1144,-284 1144,-304"/>
<text text-anchor="middle" x="1066.25" y="-290.5" font-family="Helvetica,sans-Serif" font-size="10.00">WinPosWnd::correctEdgecases</text>
</a>
</g>
</g>
<!-- Node20&#45;&gt;Node21 -->
<g id="edge21_Node000020_Node000021" class="edge">
<title>Node20&#45;&gt;Node21</title>
<g id="a_edge21_Node000020_Node000021"><a xlink:title=" ">
<path fill="none" stroke="#63b8ff" d="M885.22,-172.33C899.85,-194.8 937.84,-248.25 984,-275 986.67,-276.55 989.46,-277.97 992.32,-279.27"/>
<polygon fill="#63b8ff" stroke="#63b8ff" points="991,-282.51 1001.58,-282.95 993.58,-276.01 991,-282.51"/>
</a>
</g>
</g>
<!-- Node22 -->
<g id="Node000022" class="node">
<title>Node22</title>
<g id="a_Node000022"><a xlink:href="class_win_pos_wnd.html#a8abc6edd027488d4f7242b9f12693af8" target="_top" xlink:title="destroys every windows">
<polygon fill="white" stroke="#666666" points="1120.75,-58 1011.75,-58 1011.75,-38 1120.75,-38 1120.75,-58"/>
<text text-anchor="middle" x="1066.25" y="-44.5" font-family="Helvetica,sans-Serif" font-size="10.00">WinPosWnd::destroy</text>
</a>
</g>
</g>
<!-- Node20&#45;&gt;Node22 -->
<g id="edge22_Node000020_Node000022" class="edge">
<title>Node20&#45;&gt;Node22</title>
<g id="a_edge22_Node000020_Node000022"><a xlink:title=" ">
<path fill="none" stroke="#63b8ff" d="M928.63,-151.59C935.64,-148.64 942.36,-144.85 948,-140 975.43,-116.42 955.67,-89.5 984,-67 989.09,-62.96 994.89,-59.75 1000.99,-57.21"/>
<polygon fill="#63b8ff" stroke="#63b8ff" points="1001.77,-60.64 1010.05,-54.03 999.46,-54.04 1001.77,-60.64"/>
</a>
</g>
</g>
<!-- Node23 -->
<g id="Node000023" class="node">
<title>Node23</title>
<g id="a_Node000023"><a xlink:href="class_win_pos_wnd_cfg.html#afe04626c840dd23b6b063f58bcb06dce" target="_top" xlink:title=" ">
<polygon fill="white" stroke="#666666" points="1527,-182 1363.25,-182 1363.25,-162 1527,-162 1527,-182"/>
<text text-anchor="middle" x="1445.12" y="-168.5" font-family="Helvetica,sans-Serif" font-size="10.00">WinPosWndCfg::getCloseTimeout</text>
</a>
</g>
</g>
<!-- Node20&#45;&gt;Node23 -->
<g id="edge23_Node000020_Node000023" class="edge">
<title>Node20&#45;&gt;Node23</title>
<g id="a_edge23_Node000020_Node000023"><a xlink:title=" ">
<path fill="none" stroke="#63b8ff" d="M929.92,-162.91C1025.24,-164.59 1231.22,-168.23 1351.55,-170.36"/>
<polygon fill="#63b8ff" stroke="#63b8ff" points="1351.34,-173.86 1361.41,-170.54 1351.47,-166.86 1351.34,-173.86"/>
</a>
</g>
</g>
<!-- Node24 -->
<g id="Node000024" class="node">
<title>Node24</title>
<g id="a_Node000024"><a xlink:href="class_win_pos_wnd_cfg.html#a10a73295ae59c85d651ad0088b235125" target="_top" xlink:title=" ">
<polygon fill="white" stroke="#666666" points="1137.25,-210 995.25,-210 995.25,-190 1137.25,-190 1137.25,-210"/>
<text text-anchor="middle" x="1066.25" y="-196.5" font-family="Helvetica,sans-Serif" font-size="10.00">WinPosWndCfg::getMonitors</text>
</a>
</g>
</g>
<!-- Node20&#45;&gt;Node24 -->
<g id="edge24_Node000020_Node000024" class="edge">
<title>Node20&#45;&gt;Node24</title>
<g id="a_edge24_Node000020_Node000024"><a xlink:title=" ">
<path fill="none" stroke="#63b8ff" d="M929.71,-172.38C952.34,-176.99 979.17,-182.46 1002.98,-187.31"/>
<polygon fill="#63b8ff" stroke="#63b8ff" points="1002.05,-190.69 1012.54,-189.26 1003.44,-183.83 1002.05,-190.69"/>
</a>
</g>
</g>
<!-- Node25 -->
<g id="Node000025" class="node">
<title>Node25</title>
<g id="a_Node000025"><a xlink:href="class_win_pos_wnd_cfg.html#a1fd1c1c55716a4697a044ae0671cf2aa" target="_top" xlink:title=" ">
<polygon fill="white" stroke="#666666" points="1509.75,-286 1380.5,-286 1380.5,-266 1509.75,-266 1509.75,-286"/>
<text text-anchor="middle" x="1445.12" y="-272.5" font-family="Helvetica,sans-Serif" font-size="10.00">WinPosWndCfg::getScale</text>
</a>
</g>
</g>
<!-- Node20&#45;&gt;Node25 -->
<g id="edge25_Node000020_Node000025" class="edge">
<title>Node20&#45;&gt;Node25</title>
<g id="a_edge25_Node000020_Node000025"><a xlink:title=" ">
<path fill="none" stroke="#63b8ff" d="M882.1,-172.28C892.11,-201.01 924.79,-282.1 984,-313 1126.83,-387.55 1329.1,-322.19 1409.36,-290.69"/>
<polygon fill="#63b8ff" stroke="#63b8ff" points="1410.47,-294.02 1418.45,-287.05 1407.87,-287.52 1410.47,-294.02"/>
</a>
</g>
</g>
<!-- Node26 -->
<g id="Node000026" class="node">
<title>Node26</title>
<g id="a_Node000026"><a xlink:href="class_win_pos_wnd.html#a159d04333920b8b0ab3b8ecc6f6607dd" target="_top" xlink:title=" ">
<polygon fill="white" stroke="#666666" points="1148.5,-134 984,-134 984,-114 1148.5,-114 1148.5,-134"/>
<text text-anchor="middle" x="1066.25" y="-120.5" font-family="Helvetica,sans-Serif" font-size="10.00">WinPosWnd::getTotalPreviewRect</text>
</a>
</g>
</g>
<!-- Node20&#45;&gt;Node26 -->
<g id="edge26_Node000020_Node000026" class="edge">
<title>Node20&#45;&gt;Node26</title>
<g id="a_edge26_Node000020_Node000026"><a xlink:title=" ">
<path fill="none" stroke="#63b8ff" d="M929.71,-151.62C952.34,-147.01 979.17,-141.54 1002.98,-136.69"/>
<polygon fill="#63b8ff" stroke="#63b8ff" points="1003.44,-140.17 1012.54,-134.74 1002.05,-133.31 1003.44,-140.17"/>
</a>
</g>
</g>
<!-- Node27 -->
<g id="Node000027" class="node">
<title>Node27</title>
<g id="a_Node000027"><a xlink:href="class_win_pos_wnd.html#a86ca33ea895961e25e6c1601e420f40e" target="_top" xlink:title="initialize the WNDCLASS structure">
<polygon fill="white" stroke="#666666" points="1133.5,-96 999,-96 999,-76 1133.5,-76 1133.5,-96"/>
<text text-anchor="middle" x="1066.25" y="-82.5" font-family="Helvetica,sans-Serif" font-size="10.00">WinPosWnd::initWndClass</text>
</a>
</g>
</g>
<!-- Node20&#45;&gt;Node27 -->
<g id="edge27_Node000020_Node000027" class="edge">
<title>Node20&#45;&gt;Node27</title>
<g id="a_edge27_Node000020_Node000027"><a xlink:title=" ">
<path fill="none" stroke="#63b8ff" d="M922.21,-151.6C931.07,-148.55 940.1,-144.73 948,-140 967.15,-128.54 964.42,-115.71 984,-105 987.02,-103.35 990.17,-101.84 993.41,-100.47"/>
<polygon fill="#63b8ff" stroke="#63b8ff" points="994.45,-103.81 1002.59,-97.03 992,-97.26 994.45,-103.81"/>
</a>
</g>
</g>
<!-- Node30 -->
<g id="Node000030" class="node">
<title>Node30</title>
<g id="a_Node000030"><a xlink:href="struct_win_pos_wnd_1_1_monitor_preview.html#a01fe1b4351422928e43305d1758ae6fb" target="_top" xlink:title="move the rectangle to the cursor position">
<polygon fill="white" stroke="#666666" points="1137.25,-392 995.25,-392 995.25,-360 1137.25,-360 1137.25,-392"/>
<text text-anchor="start" x="1003.25" y="-378.5" font-family="Helvetica,sans-Serif" font-size="10.00">WinPosWnd::MonitorPreview</text>
<text text-anchor="middle" x="1066.25" y="-366.5" font-family="Helvetica,sans-Serif" font-size="10.00">::offsetToPt</text>
</a>
</g>
</g>
<!-- Node20&#45;&gt;Node30 -->
<g id="edge30_Node000020_Node000030" class="edge">
<title>Node20&#45;&gt;Node30</title>
<g id="a_edge30_Node000020_Node000030"><a xlink:title=" ">
<path fill="none" stroke="#63b8ff" d="M881.87,-172.41C891.66,-203.36 924.73,-295.83 984,-346 987.62,-349.06 991.57,-351.82 995.73,-354.31"/>
<polygon fill="#63b8ff" stroke="#63b8ff" points="993.92,-357.32 1004.4,-358.93 997.22,-351.14 993.92,-357.32"/>
</a>
</g>
</g>
<!-- Node31 -->
<g id="Node000031" class="node">
<title>Node31</title>
<g id="a_Node000031"><a xlink:href="class_win_pos_wnd_cfg.html#a038475d40481960d701d09f6e39467c8" target="_top" xlink:title=" ">
<polygon fill="white" stroke="#666666" points="1134.62,-248 997.88,-248 997.88,-228 1134.62,-228 1134.62,-248"/>
<text text-anchor="middle" x="1066.25" y="-234.5" font-family="Helvetica,sans-Serif" font-size="10.00">WinPosWndCfg::readConfig</text>
</a>
</g>
</g>
<!-- Node20&#45;&gt;Node31 -->
<g id="edge31_Node000020_Node000031" class="edge">
<title>Node20&#45;&gt;Node31</title>
<g id="a_edge31_Node000020_Node000031"><a xlink:title=" ">
<path fill="none" stroke="#63b8ff" d="M894.52,-172.28C914.56,-184.94 950.59,-206.31 984,-219 989.28,-221.01 994.84,-222.84 1000.47,-224.51"/>
<polygon fill="#63b8ff" stroke="#63b8ff" points="999.29,-227.82 1009.86,-227.12 1001.16,-221.07 999.29,-227.82"/>
</a>
</g>
</g>
<!-- Node28 -->
<g id="Node000028" class="node">
<title>Node28</title>
<g id="a_Node000028"><a xlink:href="class_win_pos_wnd.html#a104a18975fac2ac85a75eabda629ddb2" target="_top" xlink:title="static WNDPROC. Forwards to the WinPosWnd instances.">
<polygon fill="white" stroke="#666666" points="1327.25,-77 1184.5,-77 1184.5,-57 1327.25,-57 1327.25,-77"/>
<text text-anchor="middle" x="1255.88" y="-63.5" font-family="Helvetica,sans-Serif" font-size="10.00">WinPosWnd::WndProcStatic</text>
</a>
</g>
</g>
<!-- Node27&#45;&gt;Node28 -->
<g id="edge28_Node000027_Node000028" class="edge">
<title>Node27&#45;&gt;Node28</title>
<g id="a_edge28_Node000027_Node000028"><a xlink:title=" ">
<path fill="none" stroke="#63b8ff" d="M1133.93,-79.25C1146.56,-77.97 1159.9,-76.62 1172.93,-75.3"/>
<polygon fill="#63b8ff" stroke="#63b8ff" points="1173.18,-78.79 1182.78,-74.3 1172.47,-71.83 1173.18,-78.79"/>
</a>
</g>
</g>
<!-- Node29 -->
<g id="Node000029" class="node">
<title>Node29</title>
<g id="a_Node000029"><a xlink:href="class_win_pos_wnd.html#a5ad8686caf3b8310fff6d4bec255f898" target="_top" xlink:title="get the instance of WinPosWnd to a window handle">
<polygon fill="white" stroke="#666666" points="1517.62,-39 1372.62,-39 1372.62,-19 1517.62,-19 1517.62,-39"/>
<text text-anchor="middle" x="1445.12" y="-25.5" font-family="Helvetica,sans-Serif" font-size="10.00">WinPosWnd::getWinPosWnd</text>
</a>
</g>
</g>
<!-- Node28&#45;&gt;Node29 -->
<g id="edge29_Node000028_Node000029" class="edge">
<title>Node28&#45;&gt;Node29</title>
<g id="a_edge29_Node000028_Node000029"><a xlink:title=" ">
<path fill="none" stroke="#63b8ff" d="M1308.54,-56.52C1331.15,-51.93 1357.89,-46.5 1381.61,-41.69"/>
<polygon fill="#63b8ff" stroke="#63b8ff" points="1382.04,-45.17 1391.15,-39.75 1380.65,-38.31 1382.04,-45.17"/>
</a>
</g>
</g>
<!-- Node31&#45;&gt;Node25 -->
<g id="edge33_Node000031_Node000025" class="edge">
<title>Node31&#45;&gt;Node25</title>
<g id="a_edge33_Node000031_Node000025"><a xlink:title=" ">
<path fill="none" stroke="#63b8ff" d="M1135.06,-244.84C1201.01,-251.49 1300.96,-261.56 1369.22,-268.45"/>
<polygon fill="#63b8ff" stroke="#63b8ff" points="1368.5,-271.89 1378.81,-269.41 1369.21,-264.93 1368.5,-271.89"/>
</a>
</g>
</g>
<!-- Node31&#45;&gt;Node31 -->
<g id="edge34_Node000031_Node000031" class="edge">
<title>Node31&#45;&gt;Node31</title>
<g id="a_edge34_Node000031_Node000031"><a xlink:title=" ">
<path fill="none" stroke="#63b8ff" d="M1036.3,-248.34C1023.5,-256.98 1033.48,-266 1066.25,-266 1084.68,-266 1095.9,-263.14 1099.92,-259.11"/>
<polygon fill="#63b8ff" stroke="#63b8ff" points="1103.27,-258.08 1096.69,-249.77 1096.65,-260.36 1103.27,-258.08"/>
</a>
</g>
</g>
<!-- Node32 -->
<g id="Node000032" class="node">
<title>Node32</title>
<g id="a_Node000032"><a xlink:href="class_win_pos_wnd_cfg.html#a93944e9bbc627a502d59f845b3b1e827" target="_top" xlink:title=" ">
<polygon fill="white" stroke="#666666" points="1521,-239 1369.25,-239 1369.25,-219 1521,-219 1521,-239"/>
<text text-anchor="middle" x="1445.12" y="-225.5" font-family="Helvetica,sans-Serif" font-size="10.00">WinPosWndCfg::getConfigPath</text>
</a>
</g>
</g>
<!-- Node31&#45;&gt;Node32 -->
<g id="edge32_Node000031_Node000032" class="edge">
<title>Node31&#45;&gt;Node32</title>
<g id="a_edge32_Node000031_Node000032"><a xlink:title=" ">
<path fill="none" stroke="#63b8ff" d="M1135.06,-236.38C1197.27,-234.9 1289.72,-232.69 1357.3,-231.07"/>
<polygon fill="#63b8ff" stroke="#63b8ff" points="1357.34,-234.57 1367.26,-230.84 1357.18,-227.58 1357.34,-234.57"/>
</a>
</g>
</g>
<!-- Node33 -->
<g id="Node000033" class="node">
<title>Node33</title>
<g id="a_Node000033"><a xlink:href="class_win_pos_wnd_cfg.html#a2e024dd316be8cf377996f7be3017acd" target="_top" xlink:title=" ">
<polygon fill="white" stroke="#666666" points="1325,-210 1186.75,-210 1186.75,-190 1325,-190 1325,-210"/>
<text text-anchor="middle" x="1255.88" y="-196.5" font-family="Helvetica,sans-Serif" font-size="10.00">WinPosWndCfg::writeConfig</text>
</a>
</g>
</g>
<!-- Node31&#45;&gt;Node33 -->
<g id="edge35_Node000031_Node000033" class="edge">
<title>Node31&#45;&gt;Node33</title>
<g id="a_edge35_Node000031_Node000033"><a xlink:title=" ">
<path fill="none" stroke="#63b8ff" d="M1119.02,-227.52C1141.68,-222.93 1168.46,-217.5 1192.24,-212.69"/>
<polygon fill="#63b8ff" stroke="#63b8ff" points="1192.69,-216.17 1201.79,-210.75 1191.3,-209.31 1192.69,-216.17"/>
</a>
</g>
</g>
<!-- Node33&#45;&gt;Node23 -->
<g id="edge36_Node000033_Node000023" class="edge">
<title>Node33&#45;&gt;Node23</title>
<g id="a_edge36_Node000033_Node000023"><a xlink:title=" ">
<path fill="none" stroke="#63b8ff" d="M1325.27,-189.77C1337.43,-187.95 1350.2,-186.04 1362.68,-184.18"/>
<polygon fill="#63b8ff" stroke="#63b8ff" points="1363.16,-187.65 1372.53,-182.71 1362.13,-180.72 1363.16,-187.65"/>
</a>
</g>
</g>
<!-- Node33&#45;&gt;Node25 -->
<g id="edge38_Node000033_Node000025" class="edge">
<title>Node33&#45;&gt;Node25</title>
<g id="a_edge38_Node000033_Node000025"><a xlink:title=" ">
<path fill="none" stroke="#63b8ff" d="M1278.23,-210.32C1299.53,-220.46 1333.32,-236.09 1363.25,-248 1375.53,-252.88 1389.04,-257.76 1401.44,-262.03"/>
<polygon fill="#63b8ff" stroke="#63b8ff" points="1399.97,-265.23 1410.56,-265.13 1402.22,-258.6 1399.97,-265.23"/>
</a>
</g>
</g>
<!-- Node33&#45;&gt;Node32 -->
<g id="edge37_Node000033_Node000032" class="edge">
<title>Node33&#45;&gt;Node32</title>
<g id="a_edge37_Node000033_Node000032"><a xlink:title=" ">
<path fill="none" stroke="#63b8ff" d="M1324.48,-210.47C1337.73,-212.52 1351.75,-214.69 1365.34,-216.8"/>
<polygon fill="#63b8ff" stroke="#63b8ff" points="1364.71,-220.24 1375.13,-218.31 1365.78,-213.32 1364.71,-220.24"/>
</a>
</g>
</g>
<!-- Node35&#45;&gt;Node22 -->
<g id="edge41_Node000035_Node000022" class="edge">
<title>Node35&#45;&gt;Node22</title>
<g id="a_edge41_Node000035_Node000022"><a xlink:title=" ">
<path fill="none" stroke="#63b8ff" d="M764.44,-48C832.07,-48 933.91,-48 999.99,-48"/>
<polygon fill="#63b8ff" stroke="#63b8ff" points="999.98,-51.5 1009.98,-48 999.98,-44.5 999.98,-51.5"/>
</a>
</g>
</g>
<!-- Node35&#45;&gt;Node29 -->
<g id="edge42_Node000035_Node000029" class="edge">
<title>Node35&#45;&gt;Node29</title>
<g id="a_edge42_Node000035_Node000029"><a xlink:title=" ">
<path fill="none" stroke="#63b8ff" d="M764.24,-42.15C822.79,-37.53 908.8,-31.47 984,-29 1115.69,-24.68 1268.7,-25.93 1360.88,-27.36"/>
<polygon fill="#63b8ff" stroke="#63b8ff" points="1360.8,-30.86 1370.86,-27.52 1360.92,-23.86 1360.8,-30.86"/>
</a>
</g>
</g>
<!-- Node35&#45;&gt;Node34 -->
<g id="edge43_Node000035_Node000034" class="edge">
<title>Node35&#45;&gt;Node34</title>
<g id="a_edge43_Node000035_Node000034"><a xlink:title=" ">
<path fill="none" stroke="#63b8ff" d="M720.83,-58.46C752.18,-71.04 804.99,-92.22 840.35,-106.4"/>
<polygon fill="#63b8ff" stroke="#63b8ff" points="838.73,-109.52 849.32,-110 841.34,-103.03 838.73,-109.52"/>
</a>
</g>
</g>
<!-- Node36&#45;&gt;Node5 -->
<g id="edge46_Node000036_Node000005" class="edge">
<title>Node36&#45;&gt;Node5</title>
<g id="a_edge46_Node000036_Node000005"><a xlink:title=" ">
<path fill="none" stroke="#63b8ff" d="M558.31,-201.57C576.88,-202.04 597.5,-202.57 616.89,-203.06"/>
<polygon fill="#63b8ff" stroke="#63b8ff" points="616.55,-206.56 626.63,-203.31 616.72,-199.56 616.55,-206.56"/>
</a>
</g>
</g>
<!-- Node36&#45;&gt;Node18 -->
<g id="edge47_Node000036_Node000018" class="edge">
<title>Node36&#45;&gt;Node18</title>
<g id="a_edge47_Node000036_Node000018"><a xlink:title=" ">
<path fill="none" stroke="#63b8ff" d="M549.37,-189.55C573.85,-184.67 603.2,-178.83 628.95,-173.7"/>
<polygon fill="#63b8ff" stroke="#63b8ff" points="629.51,-177.16 638.63,-171.78 628.14,-170.3 629.51,-177.16"/>
</a>
</g>
</g>
<!-- Node37&#45;&gt;Node6 -->
<g id="edge49_Node000037_Node000006" class="edge">
<title>Node37&#45;&gt;Node6</title>
<g id="a_edge49_Node000037_Node000006"><a xlink:title=" ">
<path fill="none" stroke="#63b8ff" d="M565.38,-441.69C583.3,-443.71 602.66,-445.88 620.75,-447.91"/>
<polygon fill="#63b8ff" stroke="#63b8ff" points="620.29,-451.38 630.62,-449.02 621.07,-444.43 620.29,-451.38"/>
</a>
</g>
</g>
</g>
</svg>

<g id="navigator" transform="translate(0 0)" fill="#404254">
  <rect fill="#f2f5e9" fill-opacity="0.5" stroke="#606060" stroke-width=".5" x="0" y="0" width="60" height="60"/>
  <use id="zoomplus" xlink:href="#zoomPlus" x="17" y="9" onmousedown="handleZoom(evt,'in')"/>
  <use id="zoomminus" xlink:href="#zoomMin" x="42" y="9" onmousedown="handleZoom(evt,'out')"/>
  <use id="reset" xlink:href="#resetDef" x="30" y="36" onmousedown="handleReset()"/>
   <use id="arrowup" xlink:href="#arrowUp" x="0" y="0" onmousedown="handlePan(0,-1)"/>
  <use id="arrowright" xlink:href="#arrowRight" x="0" y="0" onmousedown="handlePan(1,0)"/>
  <use id="arrowdown" xlink:href="#arrowDown" x="0" y="0" onmousedown="handlePan(0,1)"/>
  <use id="arrowleft" xlink:href="#arrowLeft" x="0" y="0" onmousedown="handlePan(-1,0)"/>
</g>
<svg viewBox="0 0 15 15" width="100%" height="30px" preserveAspectRatio="xMaxYMin meet">
 <g id="arrow_out" transform="scale(0.3 0.3)">
  <a xlink:href="class_hooks_mgr_a25aacc981b80470642a51175ee56ba01_cgraph_org.svg" target="_base">
   <rect id="button" ry="5" rx="5" y="6" x="6" height="38" width="38"
        fill="#f2f5e9" fill-opacity="0.5" stroke="#606060" stroke-width="1.0"/>
   <path id="arrow"
     d="M 11.500037,31.436501 C 11.940474,20.09759 22.043105,11.32322 32.158766,21.979434 L 37.068811,17.246167 C 37.068811,17.246167 37.088388,32 37.088388,32 L 22.160133,31.978069 C 22.160133,31.978069 26.997745,27.140456 26.997745,27.140456 C 18.528582,18.264221 13.291696,25.230495 11.500037,31.436501 z"
     style="fill:#404040;"/>
  </a>
 </g>
</svg>

<style type='text/css'>
<![CDATA[
[data-mouse-over-selected='false'] { opacity: 0.7; }
[data-mouse-over-selected='true']  { opacity: 1.0; }
]]>
</style>
<script type="application/ecmascript"><![CDATA[
document.addEventListener('DOMContentLoaded', (event) => {
  highlightEdges();
  highlightAdjacentNodes();
});
]]></script>
</svg>
