<?xml version="1.0" encoding="UTF-8" standalone="no"?>
<!DOCTYPE svg PUBLIC "-//W3C//DTD SVG 1.1//EN"
 "http://www.w3.org/Graphics/SVG/1.1/DTD/svg11.dtd">
<!-- Generated by graphviz version 8.1.0 (20230707.0739)
 -->
<!-- Title: std::unique_ptr&lt; HooksCfg &gt; Pages: 1 -->
<svg width="149pt" height="164pt"
 viewBox="0.00 0.00 148.50 164.00" xmlns="http://www.w3.org/2000/svg" xmlns:xlink="http://www.w3.org/1999/xlink">
<g id="graph0" class="graph" transform="scale(1 1) rotate(0) translate(4 160)">
<title>std::unique_ptr&lt; HooksCfg &gt;</title>
<!-- Node1 -->
<g id="Node000001" class="node">
<title>Node1</title>
<g id="a_Node000001"><a xlink:title=" ">
<polygon fill="#999999" stroke="#666666" points="140.5,-20 0,-20 0,0 140.5,0 140.5,-20"/>
<text text-anchor="middle" x="70.25" y="-6.5" font-family="Helvetica,sans-Serif" font-size="10.00">std::unique_ptr&lt; HooksCfg &gt;</text>
</a>
</g>
</g>
<!-- Node2 -->
<g id="Node000002" class="node">
<title>Node2</title>
<g id="a_Node000002"><a xlink:href="class_hooks_cfg.html" target="_top" xlink:title=" ">
<polygon fill="white" stroke="#666666" points="99.25,-88 41.25,-88 41.25,-68 99.25,-68 99.25,-88"/>
<text text-anchor="middle" x="70.25" y="-74.5" font-family="Helvetica,sans-Serif" font-size="10.00">HooksCfg</text>
</a>
</g>
</g>
<!-- Node2&#45;&gt;Node1 -->
<g id="edge1_Node000001_Node000002" class="edge">
<title>Node2&#45;&gt;Node1</title>
<g id="a_edge1_Node000001_Node000002"><a xlink:title=" ">
<path fill="none" stroke="#9a32cd" stroke-dasharray="5,2" d="M70.25,-56.65C70.25,-44.58 70.25,-29.84 70.25,-20.44"/>
<polygon fill="#9a32cd" stroke="#9a32cd" points="66.75,-56.54 70.25,-66.54 73.75,-56.54 66.75,-56.54"/>
</a>
</g>
<text text-anchor="middle" x="74.38" y="-40.5" font-family="Helvetica,sans-Serif" font-size="10.00" fill="grey"> p</text>
</g>
<!-- Node3 -->
<g id="Node000003" class="node">
<title>Node3</title>
<g id="a_Node000003"><a xlink:title=" ">
<polygon fill="white" stroke="#666666" points="63,-156 21.5,-156 21.5,-136 63,-136 63,-156"/>
<text text-anchor="middle" x="42.25" y="-142.5" font-family="Helvetica,sans-Serif" font-size="10.00">RECT</text>
</a>
</g>
</g>
<!-- Node3&#45;&gt;Node2 -->
<g id="edge2_Node000002_Node000003" class="edge">
<title>Node3&#45;&gt;Node2</title>
<g id="a_edge2_Node000002_Node000003"><a xlink:title=" ">
<path fill="none" stroke="#9a32cd" stroke-dasharray="5,2" d="M46.44,-125.36C48.11,-119.04 50.29,-112.1 53,-106 55.8,-99.7 59.94,-93.17 63.46,-88.11"/>
<polygon fill="#9a32cd" stroke="#9a32cd" points="42.88,-124.21 43.98,-134.75 49.69,-125.82 42.88,-124.21"/>
</a>
</g>
<text text-anchor="middle" x="63.88" y="-108.5" font-family="Helvetica,sans-Serif" font-size="10.00" fill="grey"> Rect</text>
</g>
<!-- Node4 -->
<g id="Node000004" class="node">
<title>Node4</title>
<g id="a_Node000004"><a xlink:title=" ">
<polygon fill="white" stroke="#666666" points="115.25,-156 81.25,-156 81.25,-136 115.25,-136 115.25,-156"/>
<text text-anchor="middle" x="98.25" y="-142.5" font-family="Helvetica,sans-Serif" font-size="10.00">bool</text>
</a>
</g>
</g>
<!-- Node4&#45;&gt;Node2 -->
<g id="edge3_Node000002_Node000004" class="edge">
<title>Node4&#45;&gt;Node2</title>
<g id="a_edge3_Node000002_Node000004"><a xlink:title=" ">
<path fill="none" stroke="#9a32cd" stroke-dasharray="5,2" d="M90.1,-125.78C84.89,-113.51 78.37,-98.14 74.25,-88.44"/>
<polygon fill="#9a32cd" stroke="#9a32cd" points="87.11,-126.7 94.24,-134.54 93.55,-123.97 87.11,-126.7"/>
</a>
</g>
<text text-anchor="middle" x="108.38" y="-108.5" font-family="Helvetica,sans-Serif" font-size="10.00" fill="grey"> _disabled</text>
</g>
</g>
</svg>
