<?xml version="1.0" encoding="UTF-8" standalone="no"?>
<!DOCTYPE svg PUBLIC "-//W3C//DTD SVG 1.1//EN"
 "http://www.w3.org/Graphics/SVG/1.1/DTD/svg11.dtd">
<!-- Generated by graphviz version 8.1.0 (20230707.0739)
 -->
<!-- Title: HooksImpl::onClosePosWnd Pages: 1 -->
<svg width="330pt" height="104pt"
 viewBox="0.00 0.00 329.50 104.00" xmlns="http://www.w3.org/2000/svg" xmlns:xlink="http://www.w3.org/1999/xlink">
<g id="graph0" class="graph" transform="scale(1 1) rotate(0) translate(4 100)">
<title>HooksImpl::onClosePosWnd</title>
<!-- Node1 -->
<g id="Node000001" class="node">
<title>Node1</title>
<g id="a_Node000001"><a xlink:title=" ">
<polygon fill="#999999" stroke="#666666" points="140.5,-58 0,-58 0,-38 140.5,-38 140.5,-58"/>
<text text-anchor="middle" x="70.25" y="-44.5" font-family="Helvetica,sans-Serif" font-size="10.00">HooksImpl::onClosePosWnd</text>
</a>
</g>
</g>
<!-- Node2 -->
<g id="Node000002" class="node">
<title>Node2</title>
<g id="a_Node000002"><a xlink:href="class_win_pos_wnd.html#a8abc6edd027488d4f7242b9f12693af8" target="_top" xlink:title="destroys every windows">
<polygon fill="white" stroke="#666666" points="303.5,-96 194.5,-96 194.5,-76 303.5,-76 303.5,-96"/>
<text text-anchor="middle" x="249" y="-82.5" font-family="Helvetica,sans-Serif" font-size="10.00">WinPosWnd::destroy</text>
</a>
</g>
</g>
<!-- Node1&#45;&gt;Node2 -->
<g id="edge1_Node000001_Node000002" class="edge">
<title>Node1&#45;&gt;Node2</title>
<g id="a_edge1_Node000001_Node000002"><a xlink:title=" ">
<path fill="none" stroke="#63b8ff" d="M120.02,-58.48C141.27,-63.05 166.37,-68.45 188.69,-73.25"/>
<polygon fill="#63b8ff" stroke="#63b8ff" points="187.88,-76.87 198.39,-75.55 189.35,-70.03 187.88,-76.87"/>
</a>
</g>
</g>
<!-- Node3 -->
<g id="Node000003" class="node">
<title>Node3</title>
<g id="a_Node000003"><a xlink:href="class_win_pos_wnd.html#a5ad8686caf3b8310fff6d4bec255f898" target="_top" xlink:title="get the instance of WinPosWnd to a window handle">
<polygon fill="white" stroke="#666666" points="321.5,-58 176.5,-58 176.5,-38 321.5,-38 321.5,-58"/>
<text text-anchor="middle" x="249" y="-44.5" font-family="Helvetica,sans-Serif" font-size="10.00">WinPosWnd::getWinPosWnd</text>
</a>
</g>
</g>
<!-- Node1&#45;&gt;Node3 -->
<g id="edge2_Node000001_Node000003" class="edge">
<title>Node1&#45;&gt;Node3</title>
<g id="a_edge2_Node000001_Node000003"><a xlink:title=" ">
<path fill="none" stroke="#63b8ff" d="M140.85,-48C148.91,-48 157.19,-48 165.4,-48"/>
<polygon fill="#63b8ff" stroke="#63b8ff" points="165.14,-51.5 175.14,-48 165.14,-44.5 165.14,-51.5"/>
</a>
</g>
</g>
<!-- Node4 -->
<g id="Node000004" class="node">
<title>Node4</title>
<g id="a_Node000004"><a xlink:href="class_win_pos_wnd.html#acb456c59641ec336d5c7646764fe7e6a" target="_top" xlink:title=" ">
<polygon fill="white" stroke="#666666" points="319.25,-20 178.75,-20 178.75,0 319.25,0 319.25,-20"/>
<text text-anchor="middle" x="249" y="-6.5" font-family="Helvetica,sans-Serif" font-size="10.00">WinPosWnd::getWndHandle</text>
</a>
</g>
</g>
<!-- Node1&#45;&gt;Node4 -->
<g id="edge3_Node000001_Node000004" class="edge">
<title>Node1&#45;&gt;Node4</title>
<g id="a_edge3_Node000001_Node000004"><a xlink:title=" ">
<path fill="none" stroke="#63b8ff" d="M120.02,-37.52C141.27,-32.95 166.37,-27.55 188.69,-22.75"/>
<polygon fill="#63b8ff" stroke="#63b8ff" points="189.35,-25.97 198.39,-20.45 187.88,-19.13 189.35,-25.97"/>
</a>
</g>
</g>
</g>
</svg>
