<?xml version="1.0" encoding="UTF-8" standalone="no"?>
<!DOCTYPE svg PUBLIC "-//W3C//DTD SVG 1.1//EN"
 "http://www.w3.org/Graphics/SVG/1.1/DTD/svg11.dtd">
<!-- Generated by graphviz version 8.1.0 (20230707.0739)
 -->
<!-- Title: HooksImpl Pages: 1 -->
<svg width="1848pt" height="731pt"
 viewBox="0.00 0.00 1847.55 731.00" xmlns="http://www.w3.org/2000/svg" xmlns:xlink="http://www.w3.org/1999/xlink">
<g id="graph0" class="graph" transform="scale(1 1) rotate(0) translate(4 727)">
<title>HooksImpl</title>
<!-- Node1 -->
<g id="Node000001" class="node">
<title>Node1</title>
<g id="a_Node000001"><a xlink:title=" ">
<polygon fill="#999999" stroke="#666666" points="1009.3,-467 947.55,-467 947.55,-447 1009.3,-447 1009.3,-467"/>
<text text-anchor="middle" x="978.43" y="-453.5" font-family="Helvetica,sans-Serif" font-size="10.00">HooksImpl</text>
</a>
</g>
</g>
<!-- Node2 -->
<g id="Node000002" class="node">
<title>Node2</title>
<g id="a_Node000002"><a xlink:href="class_win_pos_wnd.html" target="_top" xlink:title=" ">
<polygon fill="white" stroke="#666666" points="727.18,-555 656.43,-555 656.43,-535 727.18,-535 727.18,-555"/>
<text text-anchor="middle" x="691.8" y="-541.5" font-family="Helvetica,sans-Serif" font-size="10.00">WinPosWnd</text>
</a>
</g>
</g>
<!-- Node2&#45;&gt;Node1 -->
<g id="edge1_Node000001_Node000002" class="edge">
<title>Node2&#45;&gt;Node1</title>
<g id="a_edge1_Node000001_Node000002"><a xlink:title=" ">
<path fill="none" stroke="#9a32cd" stroke-dasharray="5,2" d="M738.02,-542.05C775.69,-538.55 830.31,-531.01 875.55,-515 908.93,-503.19 944,-480.64 963.04,-467.4"/>
<polygon fill="#9a32cd" stroke="#9a32cd" points="738.04,-538.62 728.38,-542.98 738.65,-545.6 738.04,-538.62"/>
</a>
</g>
<text text-anchor="middle" x="829.43" y="-538.5" font-family="Helvetica,sans-Serif" font-size="10.00" fill="grey"> _winPosWnd</text>
</g>
<!-- Node4 -->
<g id="Node000004" class="node">
<title>Node4</title>
<g id="a_Node000004"><a xlink:title=" ">
<polygon fill="white" stroke="#666666" points="1063.3,-663 893.55,-663 893.55,-643 1063.3,-643 1063.3,-663"/>
<text text-anchor="middle" x="978.43" y="-649.5" font-family="Helvetica,sans-Serif" font-size="10.00">std::map&lt; HWND, WinPosWnd * &gt;</text>
</a>
</g>
</g>
<!-- Node2&#45;&gt;Node4 -->
<g id="edge5_Node000004_Node000002" class="edge">
<title>Node2&#45;&gt;Node4</title>
<g id="a_edge5_Node000004_Node000002"><a xlink:title=" ">
<path fill="none" stroke="#9a32cd" stroke-dasharray="5,2" d="M709.64,-563.04C726.57,-580.01 754.27,-604.74 783.3,-618 803.43,-627.2 852.72,-636.03 896.59,-642.52"/>
<polygon fill="#9a32cd" stroke="#9a32cd" points="712.71,-561.15 703.23,-556.41 707.69,-566.02 712.71,-561.15"/>
</a>
</g>
<text text-anchor="middle" x="829.43" y="-641.5" font-family="Helvetica,sans-Serif" font-size="10.00" fill="grey"> elements</text>
</g>
<!-- Node13 -->
<g id="Node000013" class="node">
<title>Node13</title>
<g id="a_Node000013"><a xlink:href="struct_win_pos_wnd_1_1_monitor_preview.html" target="_top" xlink:title=" ">
<polygon fill="white" stroke="#666666" points="1049.43,-234 907.43,-234 907.43,-214 1049.43,-214 1049.43,-234"/>
<text text-anchor="middle" x="978.43" y="-220.5" font-family="Helvetica,sans-Serif" font-size="10.00">WinPosWnd::MonitorPreview</text>
</a>
</g>
</g>
<!-- Node2&#45;&gt;Node13 -->
<g id="edge16_Node000013_Node000002" class="edge">
<title>Node2&#45;&gt;Node13</title>
<g id="a_edge16_Node000013_Node000002"><a xlink:title=" ">
<path fill="none" stroke="#9a32cd" stroke-dasharray="5,2" d="M737.6,-534.78C747.78,-530.67 757.8,-524.95 765.3,-517 783.25,-497.99 763.94,-478.56 783.3,-461 814.38,-432.82 842.74,-467.14 875.55,-441 945.86,-384.99 970.05,-269.01 975.89,-234.14"/>
<polygon fill="#9a32cd" stroke="#9a32cd" points="736.71,-531.73 728.45,-538.37 739.04,-538.33 736.71,-531.73"/>
</a>
</g>
<text text-anchor="middle" x="829.43" y="-463.5" font-family="Helvetica,sans-Serif" font-size="10.00" fill="grey"> winPosWnd</text>
</g>
<!-- Node3 -->
<g id="Node000003" class="node">
<title>Node3</title>
<g id="a_Node000003"><a xlink:title=" ">
<polygon fill="white" stroke="#666666" points="463.8,-479 331.55,-479 331.55,-459 463.8,-459 463.8,-479"/>
<text text-anchor="middle" x="397.68" y="-465.5" font-family="Helvetica,sans-Serif" font-size="10.00">static const WNDCLASS *</text>
</a>
</g>
</g>
<!-- Node3&#45;&gt;Node2 -->
<g id="edge2_Node000002_Node000003" class="edge">
<title>Node3&#45;&gt;Node2</title>
<g id="a_edge2_Node000002_Node000003"><a xlink:title=" ">
<path fill="none" stroke="#9a32cd" stroke-dasharray="5,2" d="M474.85,-469.09C514.12,-471.85 561.73,-479.57 600.3,-499 610.4,-504.09 608.82,-510.83 618.3,-517 629.83,-524.51 643.69,-530.48 656.18,-534.94"/>
<polygon fill="#9a32cd" stroke="#9a32cd" points="475.2,-465.54 465.01,-468.44 474.78,-472.53 475.2,-465.54"/>
</a>
</g>
<text text-anchor="middle" x="541.05" y="-501.5" font-family="Helvetica,sans-Serif" font-size="10.00" fill="grey"> wndClass</text>
</g>
<!-- Node4&#45;&gt;Node2 -->
<g id="edge3_Node000002_Node000004" class="edge">
<title>Node4&#45;&gt;Node2</title>
<g id="a_edge3_Node000002_Node000004"><a xlink:title=" ">
<path fill="none" stroke="#9a32cd" stroke-dasharray="5,2" d="M948.21,-637.74C928.17,-627.71 900.74,-614.86 875.55,-606 835.69,-591.98 823.4,-596.33 783.3,-583 759.37,-575.04 732.86,-563.59 714.75,-555.34"/>
<polygon fill="#9a32cd" stroke="#9a32cd" points="946.47,-641.28 956.97,-642.69 949.64,-635.04 946.47,-641.28"/>
</a>
</g>
<text text-anchor="middle" x="829.43" y="-608.5" font-family="Helvetica,sans-Serif" font-size="10.00" fill="grey"> hWndToWinPosMap</text>
</g>
<!-- Node5 -->
<g id="Node000005" class="node">
<title>Node5</title>
<g id="a_Node000005"><a xlink:title=" ">
<polygon fill="white" stroke="#666666" points="175.68,-593 129.68,-593 129.68,-573 175.68,-573 175.68,-593"/>
<text text-anchor="middle" x="152.68" y="-579.5" font-family="Helvetica,sans-Serif" font-size="10.00">HWND</text>
</a>
</g>
</g>
<!-- Node5&#45;&gt;Node4 -->
<g id="edge4_Node000004_Node000005" class="edge">
<title>Node5&#45;&gt;Node4</title>
<g id="a_edge4_Node000004_Node000005"><a xlink:title=" ">
<path fill="none" stroke="#9a32cd" stroke-dasharray="5,2" d="M186.45,-592.47C195.86,-594.91 206.18,-597.31 215.8,-599 465.36,-642.73 530.22,-640.99 783.3,-653 819.32,-654.71 859.14,-654.99 893.3,-654.74"/>
<polygon fill="#9a32cd" stroke="#9a32cd" points="187.48,-588.85 176.92,-589.63 185.67,-595.61 187.48,-588.85"/>
</a>
</g>
<text text-anchor="middle" x="541.05" y="-646.5" font-family="Helvetica,sans-Serif" font-size="10.00" fill="grey"> keys</text>
</g>
<!-- Node9 -->
<g id="Node000009" class="node">
<title>Node9</title>
<g id="a_Node000009"><a xlink:title=" ">
<polygon fill="white" stroke="#666666" points="452.18,-593 343.18,-593 343.18,-573 452.18,-573 452.18,-593"/>
<text text-anchor="middle" x="397.68" y="-579.5" font-family="Helvetica,sans-Serif" font-size="10.00">std::vector&lt; HWND &gt;</text>
</a>
</g>
</g>
<!-- Node5&#45;&gt;Node9 -->
<g id="edge10_Node000009_Node000005" class="edge">
<title>Node5&#45;&gt;Node9</title>
<g id="a_edge10_Node000009_Node000005"><a xlink:title=" ">
<path fill="none" stroke="#9a32cd" stroke-dasharray="5,2" d="M186.88,-583C227,-583 295.06,-583 342.75,-583"/>
<polygon fill="#9a32cd" stroke="#9a32cd" points="187.1,-579.5 177.1,-583 187.1,-586.5 187.1,-579.5"/>
</a>
</g>
<text text-anchor="middle" x="264.68" y="-585.5" font-family="Helvetica,sans-Serif" font-size="10.00" fill="grey"> elements</text>
</g>
<!-- Node5&#45;&gt;Node13 -->
<g id="edge17_Node000013_Node000005" class="edge">
<title>Node5&#45;&gt;Node13</title>
<g id="a_edge17_Node000013_Node000005"><a xlink:title=" ">
<path fill="none" stroke="#9a32cd" stroke-dasharray="5,2" d="M154.25,-562.25C156.52,-524.51 167.15,-444.92 215.8,-406 331.06,-313.79 743.18,-394.31 875.55,-329 920.65,-306.75 956.93,-256.11 971.05,-234.3"/>
<polygon fill="#9a32cd" stroke="#9a32cd" points="150.72,-561.79 153.77,-571.93 157.72,-562.1 150.72,-561.79"/>
</a>
</g>
<text text-anchor="middle" x="541.05" y="-359.5" font-family="Helvetica,sans-Serif" font-size="10.00" fill="grey"> hWnd</text>
</g>
<!-- Node6 -->
<g id="Node000006" class="node">
<title>Node6</title>
<g id="a_Node000006"><a xlink:title=" ">
<polygon fill="white" stroke="#666666" points="197.8,-673 107.55,-673 107.55,-653 197.8,-653 197.8,-673"/>
<text text-anchor="middle" x="152.68" y="-659.5" font-family="Helvetica,sans-Serif" font-size="10.00">std::map&lt; K, T &gt;</text>
</a>
</g>
</g>
<!-- Node6&#45;&gt;Node4 -->
<g id="edge6_Node000004_Node000006" class="edge">
<title>Node6&#45;&gt;Node4</title>
<g id="a_edge6_Node000004_Node000006"><a xlink:title=" ">
<path fill="none" stroke="orange" stroke-dasharray="5,2" d="M194.18,-676.46C201.31,-678.33 208.72,-679.97 215.8,-681 505.95,-723.3 585.11,-721.26 875.55,-681 900.26,-677.57 927.47,-669.89 947.54,-663.43"/>
<polygon fill="orange" stroke="orange" points="195.22,-672.83 184.64,-673.48 193.31,-679.57 195.22,-672.83"/>
</a>
</g>
<text text-anchor="middle" x="541.05" y="-713.5" font-family="Helvetica,sans-Serif" font-size="10.00" fill="grey"> &lt; HWND, WinPosWnd * &gt;</text>
</g>
<!-- Node7 -->
<g id="Node000007" class="node">
<title>Node7</title>
<g id="a_Node000007"><a xlink:title=" ">
<polygon fill="white" stroke="#666666" points="28.8,-673 0,-673 0,-653 28.8,-653 28.8,-673"/>
<text text-anchor="middle" x="14.4" y="-659.5" font-family="Helvetica,sans-Serif" font-size="10.00">K</text>
</a>
</g>
</g>
<!-- Node7&#45;&gt;Node6 -->
<g id="edge7_Node000006_Node000007" class="edge">
<title>Node7&#45;&gt;Node6</title>
<g id="a_edge7_Node000006_Node000007"><a xlink:title=" ">
<path fill="none" stroke="#9a32cd" stroke-dasharray="5,2" d="M40.02,-663C58.67,-663 84.81,-663 107.1,-663"/>
<polygon fill="#9a32cd" stroke="#9a32cd" points="40.22,-659.5 30.22,-663 40.22,-666.5 40.22,-659.5"/>
</a>
</g>
<text text-anchor="middle" x="68.18" y="-665.5" font-family="Helvetica,sans-Serif" font-size="10.00" fill="grey"> keys</text>
</g>
<!-- Node8 -->
<g id="Node000008" class="node">
<title>Node8</title>
<g id="a_Node000008"><a xlink:title=" ">
<polygon fill="white" stroke="#666666" points="28.8,-169 0,-169 0,-149 28.8,-149 28.8,-169"/>
<text text-anchor="middle" x="14.4" y="-155.5" font-family="Helvetica,sans-Serif" font-size="10.00">T</text>
</a>
</g>
</g>
<!-- Node8&#45;&gt;Node6 -->
<g id="edge8_Node000006_Node000008" class="edge">
<title>Node8&#45;&gt;Node6</title>
<g id="a_edge8_Node000006_Node000008"><a xlink:title=" ">
<path fill="none" stroke="#9a32cd" stroke-dasharray="5,2" d="M16.68,-180.4C21.27,-246.12 40.35,-449.75 107.55,-602 116.21,-621.61 131.88,-641.13 142.03,-652.63"/>
<polygon fill="#9a32cd" stroke="#9a32cd" points="20.11,-180.22 15.97,-170.47 13.13,-180.67 20.11,-180.22"/>
</a>
</g>
<text text-anchor="middle" x="68.18" y="-558.5" font-family="Helvetica,sans-Serif" font-size="10.00" fill="grey"> elements</text>
</g>
<!-- Node10 -->
<g id="Node000010" class="node">
<title>Node10</title>
<g id="a_Node000010"><a xlink:title=" ">
<polygon fill="white" stroke="#666666" points="194.8,-243 110.55,-243 110.55,-223 194.8,-223 194.8,-243"/>
<text text-anchor="middle" x="152.68" y="-229.5" font-family="Helvetica,sans-Serif" font-size="10.00">std::vector&lt; T &gt;</text>
</a>
</g>
</g>
<!-- Node8&#45;&gt;Node10 -->
<g id="edge12_Node000010_Node000008" class="edge">
<title>Node8&#45;&gt;Node10</title>
<g id="a_edge12_Node000010_Node000008"><a xlink:title=" ">
<path fill="none" stroke="#9a32cd" stroke-dasharray="5,2" d="M38.84,-171.73C65.36,-186.13 108.05,-209.31 132.61,-222.65"/>
<polygon fill="#9a32cd" stroke="#9a32cd" points="40.67,-168.2 30.22,-166.5 37.33,-174.35 40.67,-168.2"/>
</a>
</g>
<text text-anchor="middle" x="68.18" y="-200.5" font-family="Helvetica,sans-Serif" font-size="10.00" fill="grey"> elements</text>
</g>
<!-- Node18 -->
<g id="Node000018" class="node">
<title>Node18</title>
<g id="a_Node000018"><a xlink:title=" ">
<polygon fill="white" stroke="#666666" points="449.93,-140 345.43,-140 345.43,-120 449.93,-120 449.93,-140"/>
<text text-anchor="middle" x="397.68" y="-126.5" font-family="Helvetica,sans-Serif" font-size="10.00">std::shared_ptr&lt; T &gt;</text>
</a>
</g>
</g>
<!-- Node8&#45;&gt;Node18 -->
<g id="edge23_Node000018_Node000008" class="edge">
<title>Node8&#45;&gt;Node18</title>
<g id="a_edge23_Node000018_Node000008"><a xlink:title=" ">
<path fill="none" stroke="#9a32cd" stroke-dasharray="5,2" d="M39.82,-157.14C100.95,-152.49 261.66,-140.27 344.96,-133.93"/>
<polygon fill="#9a32cd" stroke="#9a32cd" points="39.68,-153.72 29.97,-157.97 40.21,-160.7 39.68,-153.72"/>
</a>
</g>
<text text-anchor="middle" x="152.68" y="-165.5" font-family="Helvetica,sans-Serif" font-size="10.00" fill="grey"> dummy</text>
<text text-anchor="middle" x="152.68" y="-153.5" font-family="Helvetica,sans-Serif" font-size="10.00" fill="grey">ptr</text>
</g>
<!-- Node22 -->
<g id="Node000022" class="node">
<title>Node22</title>
<g id="a_Node000022"><a xlink:title=" ">
<polygon fill="white" stroke="#666666" points="313.55,-55 215.8,-55 215.8,-35 313.55,-35 313.55,-55"/>
<text text-anchor="middle" x="264.68" y="-41.5" font-family="Helvetica,sans-Serif" font-size="10.00">std::weak_ptr&lt; T &gt;</text>
</a>
</g>
</g>
<!-- Node8&#45;&gt;Node22 -->
<g id="edge32_Node000022_Node000008" class="edge">
<title>Node8&#45;&gt;Node22</title>
<g id="a_edge32_Node000022_Node000008"><a xlink:title=" ">
<path fill="none" stroke="#9a32cd" stroke-dasharray="5,2" d="M26.03,-139.34C31.33,-131.13 38.4,-122.1 46.8,-116 97.61,-79.09 168.64,-60.67 215.37,-51.99"/>
<polygon fill="#9a32cd" stroke="#9a32cd" points="22.57,-137.31 20.49,-147.69 28.6,-140.88 22.57,-137.31"/>
</a>
</g>
<text text-anchor="middle" x="68.18" y="-118.5" font-family="Helvetica,sans-Serif" font-size="10.00" fill="grey"> ptr</text>
</g>
<!-- Node9&#45;&gt;Node2 -->
<g id="edge9_Node000002_Node000009" class="edge">
<title>Node9&#45;&gt;Node2</title>
<g id="a_edge9_Node000002_Node000009"><a xlink:title=" ">
<path fill="none" stroke="#9a32cd" stroke-dasharray="5,2" d="M463.1,-576.49C502.73,-572.28 554.53,-566.4 600.3,-560 618.75,-557.42 639.24,-554.06 656.05,-551.18"/>
<polygon fill="#9a32cd" stroke="#9a32cd" points="462.83,-573.11 453.26,-577.63 463.57,-580.07 462.83,-573.11"/>
</a>
</g>
<text text-anchor="middle" x="541.05" y="-576.5" font-family="Helvetica,sans-Serif" font-size="10.00" fill="grey"> _hWnds</text>
</g>
<!-- Node10&#45;&gt;Node9 -->
<g id="edge11_Node000009_Node000010" class="edge">
<title>Node10&#45;&gt;Node9</title>
<g id="a_edge11_Node000009_Node000010"><a xlink:title=" ">
<path fill="none" stroke="orange" stroke-dasharray="5,2" d="M158.73,-253.62C174.04,-311.72 225.55,-478.15 331.55,-564 335.76,-567.41 340.56,-570.21 345.6,-572.5"/>
<polygon fill="orange" stroke="orange" points="161.93,-253.04 156.07,-244.21 155.15,-254.77 161.93,-253.04"/>
</a>
</g>
<text text-anchor="middle" x="264.68" y="-545.5" font-family="Helvetica,sans-Serif" font-size="10.00" fill="grey"> &lt; HWND &gt;</text>
</g>
<!-- Node11 -->
<g id="Node000011" class="node">
<title>Node11</title>
<g id="a_Node000011"><a xlink:title=" ">
<polygon fill="white" stroke="#666666" points="1591.8,-319 1467.05,-319 1467.05,-287 1591.8,-287 1591.8,-319"/>
<text text-anchor="start" x="1475.05" y="-305.5" font-family="Helvetica,sans-Serif" font-size="10.00">std::vector&lt; std::shared</text>
<text text-anchor="middle" x="1529.43" y="-293.5" font-family="Helvetica,sans-Serif" font-size="10.00">_ptr&lt; MonitorPreview &gt; &gt;</text>
</a>
</g>
</g>
<!-- Node10&#45;&gt;Node11 -->
<g id="edge35_Node000011_Node000010" class="edge">
<title>Node10&#45;&gt;Node11</title>
<g id="a_edge35_Node000011_Node000010"><a xlink:title=" ">
<path fill="none" stroke="orange" stroke-dasharray="5,2" d="M205.88,-235.64C311.51,-240.98 558.14,-253.46 765.3,-264 1025.97,-277.27 1336.72,-293.18 1466.6,-299.83"/>
<polygon fill="orange" stroke="orange" points="206.37,-232.11 196.21,-235.1 206.02,-239.1 206.37,-232.11"/>
</a>
</g>
<text text-anchor="start" x="786.3" y="-283.5" font-family="Helvetica,sans-Serif" font-size="10.00" fill="grey"> &lt; std::shared_ptr&lt;</text>
<text text-anchor="middle" x="829.43" y="-271.5" font-family="Helvetica,sans-Serif" font-size="10.00" fill="grey"> MonitorPreview &gt; &gt;</text>
</g>
<!-- Node17 -->
<g id="Node000017" class="node">
<title>Node17</title>
<g id="a_Node000017"><a xlink:title=" ">
<polygon fill="white" stroke="#666666" points="760.55,-146 623.05,-146 623.05,-114 760.55,-114 760.55,-146"/>
<text text-anchor="start" x="631.05" y="-132.5" font-family="Helvetica,sans-Serif" font-size="10.00">std::vector&lt; WinPosPreview</text>
<text text-anchor="middle" x="691.8" y="-120.5" font-family="Helvetica,sans-Serif" font-size="10.00">Ptr &gt;</text>
</a>
</g>
</g>
<!-- Node10&#45;&gt;Node17 -->
<g id="edge24_Node000017_Node000010" class="edge">
<title>Node10&#45;&gt;Node17</title>
<g id="a_edge24_Node000017_Node000010"><a xlink:title=" ">
<path fill="none" stroke="orange" stroke-dasharray="5,2" d="M205.7,-223.02C303.31,-204.31 513.83,-163.94 622.62,-143.07"/>
<polygon fill="orange" stroke="orange" points="205.09,-219.77 195.93,-225.09 206.41,-226.64 205.09,-219.77"/>
</a>
</g>
<text text-anchor="middle" x="397.68" y="-200.5" font-family="Helvetica,sans-Serif" font-size="10.00" fill="grey"> &lt; WinPosPreviewPtr &gt;</text>
</g>
<!-- Node11&#45;&gt;Node2 -->
<g id="edge13_Node000002_Node000011" class="edge">
<title>Node11&#45;&gt;Node2</title>
<g id="a_edge13_Node000002_Node000011"><a xlink:title=" ">
<path fill="none" stroke="#9a32cd" stroke-dasharray="5,2" d="M1487.96,-324.47C1387.71,-376.3 1118.34,-507.27 875.55,-552 824.65,-561.38 764.48,-555.97 727.48,-550.81"/>
<polygon fill="#9a32cd" stroke="#9a32cd" points="1489.42,-327.13 1496.68,-319.42 1486.2,-320.92 1489.42,-327.13"/>
</a>
</g>
<text text-anchor="middle" x="1125.55" y="-499.5" font-family="Helvetica,sans-Serif" font-size="10.00" fill="grey"> _previews</text>
</g>
<!-- Node12 -->
<g id="Node000012" class="node">
<title>Node12</title>
<g id="a_Node000012"><a xlink:title=" ">
<polygon fill="white" stroke="#666666" points="1318.18,-275 1195.68,-275 1195.68,-243 1318.18,-243 1318.18,-275"/>
<text text-anchor="start" x="1203.68" y="-261.5" font-family="Helvetica,sans-Serif" font-size="10.00">std::shared_ptr&lt; Monitor</text>
<text text-anchor="middle" x="1256.93" y="-249.5" font-family="Helvetica,sans-Serif" font-size="10.00">Preview &gt;</text>
</a>
</g>
</g>
<!-- Node12&#45;&gt;Node11 -->
<g id="edge14_Node000011_Node000012" class="edge">
<title>Node12&#45;&gt;Node11</title>
<g id="a_edge14_Node000011_Node000012"><a xlink:title=" ">
<path fill="none" stroke="#9a32cd" stroke-dasharray="5,2" d="M1329.04,-263C1362.68,-265.67 1403.28,-270.02 1439.3,-277 1451.96,-279.45 1465.41,-282.91 1477.92,-286.51"/>
<polygon fill="#9a32cd" stroke="#9a32cd" points="1329.61,-259.46 1319.38,-262.19 1329.08,-266.44 1329.61,-259.46"/>
</a>
</g>
<text text-anchor="middle" x="1391.68" y="-279.5" font-family="Helvetica,sans-Serif" font-size="10.00" fill="grey"> elements</text>
</g>
<!-- Node13&#45;&gt;Node12 -->
<g id="edge15_Node000012_Node000013" class="edge">
<title>Node13&#45;&gt;Node12</title>
<g id="a_edge15_Node000012_Node000013"><a xlink:title=" ">
<path fill="none" stroke="#9a32cd" stroke-dasharray="5,2" d="M1060.45,-219.25C1094.49,-218.81 1134.33,-220.33 1169.8,-227 1186.89,-230.21 1205.04,-236.49 1220.25,-242.64"/>
<polygon fill="#9a32cd" stroke="#9a32cd" points="1060.55,-215.77 1050.62,-219.46 1060.68,-222.77 1060.55,-215.77"/>
</a>
</g>
<text text-anchor="middle" x="1125.55" y="-241.5" font-family="Helvetica,sans-Serif" font-size="10.00" fill="grey"> dummy</text>
<text text-anchor="middle" x="1125.55" y="-229.5" font-family="Helvetica,sans-Serif" font-size="10.00" fill="grey">ptr</text>
</g>
<!-- Node21 -->
<g id="Node000021" class="node">
<title>Node21</title>
<g id="a_Node000021"><a xlink:title=" ">
<polygon fill="white" stroke="#666666" points="1326.05,-129 1187.8,-129 1187.8,-97 1326.05,-97 1326.05,-129"/>
<text text-anchor="start" x="1195.8" y="-115.5" font-family="Helvetica,sans-Serif" font-size="10.00">std::weak_ptr&lt; WinPosWnd</text>
<text text-anchor="middle" x="1256.93" y="-103.5" font-family="Helvetica,sans-Serif" font-size="10.00">::MonitorPreview &gt;</text>
</a>
</g>
</g>
<!-- Node13&#45;&gt;Node21 -->
<g id="edge30_Node000021_Node000013" class="edge">
<title>Node13&#45;&gt;Node21</title>
<g id="a_edge30_Node000021_Node000013"><a xlink:title=" ">
<path fill="none" stroke="#9a32cd" stroke-dasharray="5,2" d="M1041.79,-209.6C1049.48,-206.23 1056.88,-202.09 1063.3,-197 1075.48,-187.33 1069.07,-176.6 1081.3,-167 1111.76,-143.11 1152.85,-129.72 1187.52,-122.26"/>
<polygon fill="#9a32cd" stroke="#9a32cd" points="1040.61,-206.7 1032.57,-213.6 1043.16,-213.22 1040.61,-206.7"/>
</a>
</g>
<text text-anchor="middle" x="1125.55" y="-169.5" font-family="Helvetica,sans-Serif" font-size="10.00" fill="grey"> ptr</text>
</g>
<!-- Node14 -->
<g id="Node000014" class="node">
<title>Node14</title>
<g id="a_Node000014"><a xlink:title=" ">
<polygon fill="white" stroke="#666666" points="418.43,-315 376.93,-315 376.93,-295 418.43,-295 418.43,-315"/>
<text text-anchor="middle" x="397.68" y="-301.5" font-family="Helvetica,sans-Serif" font-size="10.00">RECT</text>
</a>
</g>
</g>
<!-- Node14&#45;&gt;Node1 -->
<g id="edge41_Node000001_Node000014" class="edge">
<title>Node14&#45;&gt;Node1</title>
<g id="a_edge41_Node000001_Node000014"><a xlink:title=" ">
<path fill="none" stroke="#9a32cd" stroke-dasharray="5,2" d="M429.45,-309.08C506.28,-319.8 712.09,-351.92 875.55,-408 905.99,-418.45 939.24,-435.62 959.21,-446.61"/>
<polygon fill="#9a32cd" stroke="#9a32cd" points="430.04,-305.49 419.66,-307.59 429.09,-312.42 430.04,-305.49"/>
</a>
</g>
<text text-anchor="middle" x="691.8" y="-376.5" font-family="Helvetica,sans-Serif" font-size="10.00" fill="grey"> _lastRect</text>
</g>
<!-- Node14&#45;&gt;Node2 -->
<g id="edge36_Node000002_Node000014" class="edge">
<title>Node14&#45;&gt;Node2</title>
<g id="a_edge36_Node000002_Node000014"><a xlink:title=" ">
<path fill="none" stroke="#9a32cd" stroke-dasharray="5,2" d="M413.55,-323.57C429.15,-342.23 455.08,-371.01 481.8,-391 529.4,-426.6 562.86,-406.84 600.3,-453 618.91,-475.95 598.42,-495.14 618.3,-517 628.11,-527.78 642.54,-534.45 655.96,-538.55"/>
<polygon fill="#9a32cd" stroke="#9a32cd" points="415.81,-321.81 406.76,-316.31 410.4,-326.26 415.81,-321.81"/>
</a>
</g>
<text text-anchor="middle" x="541.05" y="-455.5" font-family="Helvetica,sans-Serif" font-size="10.00" fill="grey"> _totalRect</text>
</g>
<!-- Node14&#45;&gt;Node13 -->
<g id="edge18_Node000013_Node000014" class="edge">
<title>Node14&#45;&gt;Node13</title>
<g id="a_edge18_Node000013_Node000014"><a xlink:title=" ">
<path fill="none" stroke="#9a32cd" stroke-dasharray="5,2" d="M429.37,-299.87C494.47,-289.09 651.27,-263.6 783.3,-246 824.32,-240.53 870.33,-235.28 907.26,-231.28"/>
<polygon fill="#9a32cd" stroke="#9a32cd" points="428.95,-296.56 419.66,-301.65 430.09,-303.46 428.95,-296.56"/>
</a>
</g>
<text text-anchor="middle" x="691.8" y="-283.5" font-family="Helvetica,sans-Serif" font-size="10.00" fill="grey"> monitorRect</text>
<text text-anchor="middle" x="691.8" y="-271.5" font-family="Helvetica,sans-Serif" font-size="10.00" fill="grey">prvRect</text>
</g>
<!-- Node20 -->
<g id="Node000020" class="node">
<title>Node20</title>
<g id="a_Node000020"><a xlink:href="struct_win_pos_wnd_1_1_win_pos_preview.html" target="_top" xlink:title=" ">
<polygon fill="white" stroke="#666666" points="1601.55,-123 1457.3,-123 1457.3,-103 1601.55,-103 1601.55,-123"/>
<text text-anchor="middle" x="1529.43" y="-109.5" font-family="Helvetica,sans-Serif" font-size="10.00">WinPosWnd::WinPosPreview</text>
</a>
</g>
</g>
<!-- Node14&#45;&gt;Node20 -->
<g id="edge27_Node000020_Node000014" class="edge">
<title>Node14&#45;&gt;Node20</title>
<g id="a_edge27_Node000020_Node000014"><a xlink:title=" ">
<path fill="none" stroke="#9a32cd" stroke-dasharray="5,2" d="M428.54,-290.94C444.2,-283.85 463.82,-275.43 481.8,-269 613.01,-222.1 646.21,-207.95 783.3,-183 792.29,-181.36 1430.24,-130.18 1439.3,-129 1450.84,-127.49 1463.15,-125.52 1474.83,-123.48"/>
<polygon fill="#9a32cd" stroke="#9a32cd" points="427.51,-288.02 419.87,-295.37 430.42,-294.38 427.51,-288.02"/>
</a>
</g>
<text text-anchor="middle" x="978.43" y="-187.5" font-family="Helvetica,sans-Serif" font-size="10.00" fill="grey"> prvRect</text>
<text text-anchor="middle" x="978.43" y="-175.5" font-family="Helvetica,sans-Serif" font-size="10.00" fill="grey">wndRect</text>
</g>
<!-- Node15 -->
<g id="Node000015" class="node">
<title>Node15</title>
<g id="a_Node000015"><a xlink:title=" ">
<polygon fill="white" stroke="#666666" points="721.55,-96 662.05,-96 662.05,-76 721.55,-76 721.55,-96"/>
<text text-anchor="middle" x="691.8" y="-82.5" font-family="Helvetica,sans-Serif" font-size="10.00">std::string</text>
</a>
</g>
</g>
<!-- Node15&#45;&gt;Node13 -->
<g id="edge19_Node000013_Node000015" class="edge">
<title>Node15&#45;&gt;Node13</title>
<g id="a_edge19_Node000013_Node000015"><a xlink:title=" ">
<path fill="none" stroke="#9a32cd" stroke-dasharray="5,2" d="M732.64,-91.29C780.08,-98.38 855.45,-112.37 875.55,-132 896.99,-152.95 872.8,-175.37 893.55,-197 900.65,-204.4 909.77,-209.77 919.38,-213.67"/>
<polygon fill="#9a32cd" stroke="#9a32cd" points="733.21,-87.69 722.81,-89.72 732.2,-94.62 733.21,-87.69"/>
</a>
</g>
<text text-anchor="middle" x="829.43" y="-146.5" font-family="Helvetica,sans-Serif" font-size="10.00" fill="grey"> device</text>
<text text-anchor="middle" x="829.43" y="-134.5" font-family="Helvetica,sans-Serif" font-size="10.00" fill="grey">name</text>
</g>
<!-- Node15&#45;&gt;Node20 -->
<g id="edge28_Node000020_Node000015" class="edge">
<title>Node15&#45;&gt;Node20</title>
<g id="a_edge28_Node000020_Node000015"><a xlink:title=" ">
<path fill="none" stroke="#9a32cd" stroke-dasharray="5,2" d="M732.67,-84.47C832.65,-81 1102.07,-73.86 1326.05,-88 1370.92,-90.83 1421.08,-97.01 1460.23,-102.51"/>
<polygon fill="#9a32cd" stroke="#9a32cd" points="732.74,-81 722.88,-84.86 732.99,-88 732.74,-81"/>
</a>
</g>
<text text-anchor="middle" x="1125.55" y="-84.5" font-family="Helvetica,sans-Serif" font-size="10.00" fill="grey"> name</text>
</g>
<!-- Node16 -->
<g id="Node000016" class="node">
<title>Node16</title>
<g id="a_Node000016"><a xlink:title=" ">
<polygon fill="white" stroke="#666666" points="444.68,-102 350.68,-102 350.68,-70 444.68,-70 444.68,-102"/>
<text text-anchor="start" x="358.68" y="-88.5" font-family="Helvetica,sans-Serif" font-size="10.00">std::basic_string&lt;</text>
<text text-anchor="middle" x="397.68" y="-76.5" font-family="Helvetica,sans-Serif" font-size="10.00"> Char &gt;</text>
</a>
</g>
</g>
<!-- Node16&#45;&gt;Node15 -->
<g id="edge20_Node000015_Node000016" class="edge">
<title>Node16&#45;&gt;Node15</title>
<g id="a_edge20_Node000015_Node000016"><a xlink:title=" ">
<path fill="none" stroke="#63b8ff" d="M455.7,-86C517.5,-86 613.67,-86 661.59,-86"/>
<polygon fill="#63b8ff" stroke="#63b8ff" points="455.96,-82.5 445.96,-86 455.96,-89.5 455.96,-82.5"/>
</a>
</g>
</g>
<!-- Node17&#45;&gt;Node13 -->
<g id="edge21_Node000013_Node000017" class="edge">
<title>Node17&#45;&gt;Node13</title>
<g id="a_edge21_Node000013_Node000017"><a xlink:title=" ">
<path fill="none" stroke="#9a32cd" stroke-dasharray="5,2" d="M751.79,-149.87C791.76,-163.29 845.8,-181.35 893.55,-197 910.41,-202.53 929.21,-208.59 944.74,-213.57"/>
<polygon fill="#9a32cd" stroke="#9a32cd" points="753.02,-146.26 742.43,-146.39 750.8,-152.89 753.02,-146.26"/>
</a>
</g>
<text text-anchor="middle" x="829.43" y="-191.5" font-family="Helvetica,sans-Serif" font-size="10.00" fill="grey"> previews</text>
</g>
<!-- Node18&#45;&gt;Node12 -->
<g id="edge34_Node000012_Node000018" class="edge">
<title>Node18&#45;&gt;Node12</title>
<g id="a_edge34_Node000012_Node000018"><a xlink:title=" ">
<path fill="none" stroke="orange" stroke-dasharray="5,2" d="M444.83,-143.49C531.75,-168.22 726.05,-220.37 893.55,-243 999.02,-257.25 1123.16,-259.66 1195.36,-259.65"/>
<polygon fill="orange" stroke="orange" points="445.86,-139.85 435.28,-140.47 443.93,-146.58 445.86,-139.85"/>
</a>
</g>
<text text-anchor="middle" x="829.43" y="-242.5" font-family="Helvetica,sans-Serif" font-size="10.00" fill="grey"> &lt; MonitorPreview &gt;</text>
</g>
<!-- Node18&#45;&gt;Node17 -->
<g id="edge22_Node000017_Node000018" class="edge">
<title>Node18&#45;&gt;Node17</title>
<g id="a_edge22_Node000017_Node000018"><a xlink:title=" ">
<path fill="none" stroke="#9a32cd" stroke-dasharray="5,2" d="M460.99,-130C508.5,-130 573.88,-130 622.75,-130"/>
<polygon fill="#9a32cd" stroke="#9a32cd" points="461.23,-126.5 451.23,-130 461.23,-133.5 461.23,-126.5"/>
</a>
</g>
<text text-anchor="middle" x="541.05" y="-132.5" font-family="Helvetica,sans-Serif" font-size="10.00" fill="grey"> elements</text>
</g>
<!-- Node19 -->
<g id="Node000019" class="node">
<title>Node19</title>
<g id="a_Node000019"><a xlink:title=" ">
<polygon fill="white" stroke="#666666" points="1839.55,-123 1672.8,-123 1672.8,-103 1839.55,-103 1839.55,-123"/>
<text text-anchor="middle" x="1756.18" y="-109.5" font-family="Helvetica,sans-Serif" font-size="10.00">std::shared_ptr&lt; WinPosPreview &gt;</text>
</a>
</g>
</g>
<!-- Node18&#45;&gt;Node19 -->
<g id="edge33_Node000019_Node000018" class="edge">
<title>Node18&#45;&gt;Node19</title>
<g id="a_edge33_Node000019_Node000018"><a xlink:title=" ">
<path fill="none" stroke="orange" stroke-dasharray="5,2" d="M447.85,-116.37C453.26,-114.66 458.67,-112.85 463.8,-111 534.2,-85.58 546.97,-66.68 618.3,-44 709.23,-15.09 733.01,0 828.43,0 828.43,0 828.43,0 1530.43,0 1621.27,0 1712.86,-74.6 1744.01,-102.57"/>
<polygon fill="orange" stroke="orange" points="447.04,-113.26 438.5,-119.54 449.09,-119.96 447.04,-113.26"/>
</a>
</g>
<text text-anchor="middle" x="1125.55" y="-2.5" font-family="Helvetica,sans-Serif" font-size="10.00" fill="grey"> &lt; WinPosPreview &gt;</text>
</g>
<!-- Node19&#45;&gt;Node13 -->
<g id="edge25_Node000013_Node000019" class="edge">
<title>Node19&#45;&gt;Node13</title>
<g id="a_edge25_Node000013_Node000019"><a xlink:title=" ">
<path fill="none" stroke="#9a32cd" stroke-dasharray="5,2" d="M1711.51,-126.55C1694.01,-131.62 1673.57,-137.09 1654.8,-141 1540.23,-164.84 1198.47,-201.49 1049.8,-216.85"/>
<polygon fill="#9a32cd" stroke="#9a32cd" points="1712.39,-129.65 1720.99,-123.46 1710.41,-122.93 1712.39,-129.65"/>
</a>
</g>
<text text-anchor="middle" x="1391.68" y="-186.5" font-family="Helvetica,sans-Serif" font-size="10.00" fill="grey"> activeWinPosPreview</text>
</g>
<!-- Node20&#45;&gt;Node19 -->
<g id="edge26_Node000019_Node000020" class="edge">
<title>Node20&#45;&gt;Node19</title>
<g id="a_edge26_Node000019_Node000020"><a xlink:title=" ">
<path fill="none" stroke="#9a32cd" stroke-dasharray="5,2" d="M1612.83,-113C1632.31,-113 1653.09,-113 1672.57,-113"/>
<polygon fill="#9a32cd" stroke="#9a32cd" points="1612.85,-109.5 1602.85,-113 1612.85,-116.5 1612.85,-109.5"/>
</a>
</g>
<text text-anchor="middle" x="1637.18" y="-127.5" font-family="Helvetica,sans-Serif" font-size="10.00" fill="grey"> dummy</text>
<text text-anchor="middle" x="1637.18" y="-115.5" font-family="Helvetica,sans-Serif" font-size="10.00" fill="grey">ptr</text>
</g>
<!-- Node21&#45;&gt;Node20 -->
<g id="edge29_Node000020_Node000021" class="edge">
<title>Node21&#45;&gt;Node20</title>
<g id="a_edge29_Node000020_Node000021"><a xlink:title=" ">
<path fill="none" stroke="#9a32cd" stroke-dasharray="5,2" d="M1337.53,-113C1375.39,-113 1420.31,-113 1457.06,-113"/>
<polygon fill="#9a32cd" stroke="#9a32cd" points="1337.53,-109.5 1327.53,-113 1337.53,-116.5 1337.53,-109.5"/>
</a>
</g>
<text text-anchor="middle" x="1391.68" y="-115.5" font-family="Helvetica,sans-Serif" font-size="10.00" fill="grey"> monitorPreview</text>
</g>
<!-- Node22&#45;&gt;Node21 -->
<g id="edge31_Node000021_Node000022" class="edge">
<title>Node22&#45;&gt;Node21</title>
<g id="a_edge31_Node000021_Node000022"><a xlink:title=" ">
<path fill="none" stroke="orange" stroke-dasharray="5,2" d="M324.92,-44.32C418.56,-43.66 606.44,-44.05 765.3,-55 916.54,-65.43 1092.82,-89.1 1187.46,-102.76"/>
<polygon fill="orange" stroke="orange" points="324.95,-40.82 314.98,-44.4 325,-47.82 324.95,-40.82"/>
</a>
</g>
<text text-anchor="middle" x="691.8" y="-57.5" font-family="Helvetica,sans-Serif" font-size="10.00" fill="grey"> &lt; WinPosWnd::MonitorPreview &gt;</text>
</g>
<!-- Node23 -->
<g id="Node000023" class="node">
<title>Node23</title>
<g id="a_Node000023"><a xlink:title=" ">
<polygon fill="white" stroke="#666666" points="416.18,-555 379.18,-555 379.18,-535 416.18,-535 416.18,-555"/>
<text text-anchor="middle" x="397.68" y="-541.5" font-family="Helvetica,sans-Serif" font-size="10.00">UINT</text>
</a>
</g>
</g>
<!-- Node23&#45;&gt;Node2 -->
<g id="edge37_Node000002_Node000023" class="edge">
<title>Node23&#45;&gt;Node2</title>
<g id="a_edge37_Node000002_Node000023"><a xlink:title=" ">
<path fill="none" stroke="#9a32cd" stroke-dasharray="5,2" d="M427.35,-545C481.4,-545 598.17,-545 656.37,-545"/>
<polygon fill="#9a32cd" stroke="#9a32cd" points="427.51,-541.5 417.51,-545 427.51,-548.5 427.51,-541.5"/>
</a>
</g>
<text text-anchor="middle" x="541.05" y="-547.5" font-family="Helvetica,sans-Serif" font-size="10.00" fill="grey"> _closeTimeout</text>
</g>
<!-- Node24 -->
<g id="Node000024" class="node">
<title>Node24</title>
<g id="a_Node000024"><a xlink:title=" ">
<polygon fill="white" stroke="#666666" points="421.05,-517 374.3,-517 374.3,-497 421.05,-497 421.05,-517"/>
<text text-anchor="middle" x="397.68" y="-503.5" font-family="Helvetica,sans-Serif" font-size="10.00">FLOAT</text>
</a>
</g>
</g>
<!-- Node24&#45;&gt;Node2 -->
<g id="edge38_Node000002_Node000024" class="edge">
<title>Node24&#45;&gt;Node2</title>
<g id="a_edge38_Node000002_Node000024"><a xlink:title=" ">
<path fill="none" stroke="#9a32cd" stroke-dasharray="5,2" d="M432.16,-509.97C472.23,-513.68 541.32,-520.58 600.3,-529 618.78,-531.64 639.27,-535.21 656.08,-538.31"/>
<polygon fill="#9a32cd" stroke="#9a32cd" points="432.69,-506.41 422.41,-508.99 432.05,-513.38 432.69,-506.41"/>
</a>
</g>
<text text-anchor="middle" x="541.05" y="-531.5" font-family="Helvetica,sans-Serif" font-size="10.00" fill="grey"> _scale</text>
</g>
<!-- Node25 -->
<g id="Node000025" class="node">
<title>Node25</title>
<g id="a_Node000025"><a xlink:title=" ">
<polygon fill="white" stroke="#666666" points="711.05,-444 672.55,-444 672.55,-424 711.05,-424 711.05,-444"/>
<text text-anchor="middle" x="691.8" y="-430.5" font-family="Helvetica,sans-Serif" font-size="10.00">MSG</text>
</a>
</g>
</g>
<!-- Node25&#45;&gt;Node1 -->
<g id="edge39_Node000001_Node000025" class="edge">
<title>Node25&#45;&gt;Node1</title>
<g id="a_edge39_Node000001_Node000025"><a xlink:title=" ">
<path fill="none" stroke="#9a32cd" stroke-dasharray="5,2" d="M721.69,-426.38C757.91,-417.95 821.78,-406.82 875.55,-417 905.23,-422.62 937.34,-436.69 957.42,-446.54"/>
<polygon fill="#9a32cd" stroke="#9a32cd" points="721.27,-423.12 712.38,-428.88 722.92,-429.92 721.27,-423.12"/>
</a>
</g>
<text text-anchor="middle" x="829.43" y="-431.5" font-family="Helvetica,sans-Serif" font-size="10.00" fill="grey"> _lButtonUpMsg</text>
<text text-anchor="middle" x="829.43" y="-419.5" font-family="Helvetica,sans-Serif" font-size="10.00" fill="grey">_ncLButtonUpMsg</text>
</g>
<!-- Node26 -->
<g id="Node000026" class="node">
<title>Node26</title>
<g id="a_Node000026"><a xlink:title=" ">
<polygon fill="white" stroke="#666666" points="714.05,-508 669.55,-508 669.55,-488 714.05,-488 714.05,-508"/>
<text text-anchor="middle" x="691.8" y="-494.5" font-family="Helvetica,sans-Serif" font-size="10.00">POINT</text>
</a>
</g>
</g>
<!-- Node26&#45;&gt;Node1 -->
<g id="edge40_Node000001_Node000026" class="edge">
<title>Node26&#45;&gt;Node1</title>
<g id="a_edge40_Node000001_Node000026"><a xlink:title=" ">
<path fill="none" stroke="#9a32cd" stroke-dasharray="5,2" d="M725.04,-494.76C761.62,-490.93 823.02,-484.05 875.55,-476 899.74,-472.29 926.98,-467.16 947.2,-463.17"/>
<polygon fill="#9a32cd" stroke="#9a32cd" points="725.11,-491.33 715.52,-495.84 725.83,-498.3 725.11,-491.33"/>
</a>
</g>
<text text-anchor="middle" x="829.43" y="-501.5" font-family="Helvetica,sans-Serif" font-size="10.00" fill="grey"> _captionDblClick</text>
<text text-anchor="middle" x="829.43" y="-489.5" font-family="Helvetica,sans-Serif" font-size="10.00" fill="grey">_lastLButtonDown</text>
</g>
</g>
</svg>
