<?xml version="1.0" encoding="UTF-8" standalone="no"?>
<!DOCTYPE svg PUBLIC "-//W3C//DTD SVG 1.1//EN"
 "http://www.w3.org/Graphics/SVG/1.1/DTD/svg11.dtd">
<!-- Generated by graphviz version 8.1.0 (20230707.0739)
 -->
<!-- Title: HooksImpl::getMsgProc Pages: 1 -->
<!--zoomable 526 -->

<svg id="main" version="1.1" xmlns="http://www.w3.org/2000/svg" xmlns:xlink="http://www.w3.org/1999/xlink" xml:space="preserve" onload="init(evt)">
<style type="text/css"><![CDATA[
.node, .edge {opacity: 0.7;}
.node.selected, .edge.selected {opacity: 1;}
.edge:hover path { stroke: red; }
.edge:hover polygon { stroke: red; fill: red; }
]]></style>

<defs>
  <circle id="rim" cx="0" cy="0" r="7"/>
  <circle id="rim2" cx="0" cy="0" r="3.5"/>
  <g id="zoomPlus">
    <use xlink:href="#rim" fill="#404040"><set attributeName="fill" to="#808080" begin="zoomplus.mouseover" end="zoomplus.mouseout"/></use>
    <path d="M-4,0h8M0,-4v8" fill="none" stroke="white" stroke-width="1.5" pointer-events="none"/>
  </g>
  <g id="zoomMin">
    <use xlink:href="#rim" fill="#404040"><set attributeName="fill" to="#808080" begin="zoomminus.mouseover" end="zoomminus.mouseout"/></use>
    <path d="M-4,0h8" fill="none" stroke="white" stroke-width="1.5" pointer-events="none"/>
  </g>
  <g id="arrowUp" transform="translate(30 24)">
    <use xlink:href="#rim"/>
    <path pointer-events="none" fill="none" stroke="white" stroke-width="1.5" d="M0,-3.0v7 M-2.5,-0.5L0,-3.0L2.5,-0.5"/>
  </g>
  <g id="arrowRight" transform="rotate(90) translate(36 -43)">
    <use xlink:href="#rim"/>
    <path pointer-events="none" fill="none" stroke="white" stroke-width="1.5" d="M0,-3.0v7 M-2.5,-0.5L0,-3.0L2.5,-0.5"/>
  </g>
  <g id="arrowDown" transform="rotate(180) translate(-30 -48)">
    <use xlink:href="#rim"/>
    <path pointer-events="none" fill="none" stroke="white" stroke-width="1.5" d="M0,-3.0v7 M-2.5,-0.5L0,-3.0L2.5,-0.5"/>
  </g>
  <g id="arrowLeft" transform="rotate(270) translate(-36 17)">
    <use xlink:href="#rim"/>
    <path pointer-events="none" fill="none" stroke="white" stroke-width="1.5" d="M0,-3.0v7 M-2.5,-0.5L0,-3.0L2.5,-0.5"/>
  </g>
  <g id="resetDef">
    <use xlink:href="#rim2" fill="#404040"><set attributeName="fill" to="#808080" begin="reset.mouseover" end="reset.mouseout"/></use>
  </g>
</defs>
<script type="application/ecmascript">
var viewWidth = 1269;
var viewHeight = 526;
var sectionId = 'dynsection-4';
</script>
<script type="application/ecmascript" xlink:href="svg.min.js"/>
<svg id="graph" class="graph">
<g id="viewport">
<title>HooksImpl::getMsgProc</title>
<!-- Node1 -->
<g id="Node000001" class="node">
<title>Node1</title>
<g id="a_Node000001"><a xlink:title="here the Windows messages are picked up, which do not appear in the main message loop">
<polygon fill="#999999" stroke="#666666" points="120.25,-241 0,-241 0,-221 120.25,-221 120.25,-241"/>
<text text-anchor="middle" x="60.12" y="-227.5" font-family="Helvetica,sans-Serif" font-size="10.00">HooksImpl::getMsgProc</text>
</a>
</g>
</g>
<!-- Node2 -->
<g id="Node000002" class="node">
<title>Node2</title>
<g id="a_Node000002"><a xlink:href="class_hooks_impl.html#a30acc60a07305d2df36a7798cb73aaa1" target="_top" xlink:title=" ">
<polygon fill="white" stroke="#666666" points="308,-450 162.25,-450 162.25,-430 308,-430 308,-450"/>
<text text-anchor="middle" x="235.12" y="-436.5" font-family="Helvetica,sans-Serif" font-size="10.00">HooksImpl::getLButtonUpMsg</text>
</a>
</g>
</g>
<!-- Node1&#45;&gt;Node2 -->
<g id="edge1_Node000001_Node000002" class="edge">
<title>Node1&#45;&gt;Node2</title>
<g id="a_edge1_Node000001_Node000002"><a xlink:title=" ">
<path fill="none" stroke="#63b8ff" d="M63.07,-241.14C69.76,-273.01 94.81,-372.02 156.25,-421 157.88,-422.3 159.59,-423.52 161.36,-424.65"/>
<polygon fill="#63b8ff" stroke="#63b8ff" points="159.19,-427.99 169.66,-429.66 162.51,-421.83 159.19,-427.99"/>
</a>
</g>
</g>
<!-- Node3 -->
<g id="Node000003" class="node">
<title>Node3</title>
<g id="a_Node000003"><a xlink:href="class_hooks_impl.html#a1f4bd7b8436918fc1cd5cea1c3a15bc9" target="_top" xlink:title=" ">
<polygon fill="white" stroke="#666666" points="314,-412 156.25,-412 156.25,-392 314,-392 314,-412"/>
<text text-anchor="middle" x="235.12" y="-398.5" font-family="Helvetica,sans-Serif" font-size="10.00">HooksImpl::getNcLButtonUpMsg</text>
</a>
</g>
</g>
<!-- Node1&#45;&gt;Node3 -->
<g id="edge2_Node000001_Node000003" class="edge">
<title>Node1&#45;&gt;Node3</title>
<g id="a_edge2_Node000001_Node000003"><a xlink:title=" ">
<path fill="none" stroke="#63b8ff" d="M64.5,-241.43C74.06,-269.18 104.01,-345.27 156.25,-383 158.18,-384.39 160.19,-385.68 162.27,-386.88"/>
<polygon fill="#63b8ff" stroke="#63b8ff" points="160.26,-390.28 170.78,-391.54 163.35,-383.99 160.26,-390.28"/>
</a>
</g>
</g>
<!-- Node4 -->
<g id="Node000004" class="node">
<title>Node4</title>
<g id="a_Node000004"><a xlink:href="class_task_toolbar.html#a3159b1e31199ee3691bf2bcf5ec21100" target="_top" xlink:title=" ">
<polygon fill="white" stroke="#666666" points="290,-374 180.25,-374 180.25,-354 290,-354 290,-374"/>
<text text-anchor="middle" x="235.12" y="-360.5" font-family="Helvetica,sans-Serif" font-size="10.00">TaskToolbar::initialize</text>
</a>
</g>
</g>
<!-- Node1&#45;&gt;Node4 -->
<g id="edge3_Node000001_Node000004" class="edge">
<title>Node1&#45;&gt;Node4</title>
<g id="a_edge3_Node000001_Node000004"><a xlink:title=" ">
<path fill="none" stroke="#63b8ff" d="M67.34,-241.41C80.79,-263.03 114.76,-313.05 156.25,-340 162.15,-343.83 168.69,-347.08 175.41,-349.83"/>
<polygon fill="#63b8ff" stroke="#63b8ff" points="173.73,-353.31 184.32,-353.5 176.16,-346.74 173.73,-353.31"/>
</a>
</g>
</g>
<!-- Node5 -->
<g id="Node000005" class="node">
<title>Node5</title>
<g id="a_Node000005"><a xlink:href="class_hooks_impl.html#ae0d26e76e300b5392e64fb070aafe8d5" target="_top" xlink:title="do the work, if necessary">
<polygon fill="white" stroke="#666666" points="301.62,-260 168.62,-260 168.62,-240 301.62,-240 301.62,-260"/>
<text text-anchor="middle" x="235.12" y="-246.5" font-family="Helvetica,sans-Serif" font-size="10.00">HooksImpl::onCaptionClick</text>
</a>
</g>
</g>
<!-- Node1&#45;&gt;Node5 -->
<g id="edge4_Node000001_Node000005" class="edge">
<title>Node1&#45;&gt;Node5</title>
<g id="a_edge4_Node000001_Node000005"><a xlink:title=" ">
<path fill="none" stroke="#63b8ff" d="M120.66,-237.54C132.53,-238.84 145.15,-240.23 157.5,-241.58"/>
<polygon fill="#63b8ff" stroke="#63b8ff" points="156.93,-245.15 167.26,-242.77 157.7,-238.2 156.93,-245.15"/>
</a>
</g>
</g>
<!-- Node7 -->
<g id="Node000007" class="node">
<title>Node7</title>
<g id="a_Node000007"><a xlink:href="class_hooks_impl.html#a84c9a5c6b0754e092de2ee6a8b8bba1e" target="_top" xlink:title="method to change the size of a window in steps">
<polygon fill="white" stroke="#666666" points="505.5,-310 350,-310 350,-290 505.5,-290 505.5,-310"/>
<text text-anchor="middle" x="427.75" y="-296.5" font-family="Helvetica,sans-Serif" font-size="10.00">HooksImpl::onIncrementWindow</text>
</a>
</g>
</g>
<!-- Node1&#45;&gt;Node7 -->
<g id="edge32_Node000001_Node000007" class="edge">
<title>Node1&#45;&gt;Node7</title>
<g id="a_edge32_Node000001_Node000007"><a xlink:title=" ">
<path fill="none" stroke="#63b8ff" d="M69.76,-241.46C85.02,-259.03 118.75,-293.86 156.25,-307 227.53,-331.98 315.97,-322.82 371.91,-312.55"/>
<polygon fill="#63b8ff" stroke="#63b8ff" points="372.48,-315.81 381.64,-310.49 371.16,-308.94 372.48,-315.81"/>
</a>
</g>
</g>
<!-- Node8 -->
<g id="Node000008" class="node">
<title>Node8</title>
<g id="a_Node000008"><a xlink:href="class_hooks_impl.html#ab6696c1ccc12ebdd892883485456ed3c" target="_top" xlink:title=" ">
<polygon fill="white" stroke="#666666" points="497.62,-222 357.88,-222 357.88,-202 497.62,-202 497.62,-222"/>
<text text-anchor="middle" x="427.75" y="-208.5" font-family="Helvetica,sans-Serif" font-size="10.00">HooksImpl::onShowPosWnd</text>
</a>
</g>
</g>
<!-- Node1&#45;&gt;Node8 -->
<g id="edge40_Node000001_Node000008" class="edge">
<title>Node1&#45;&gt;Node8</title>
<g id="a_edge40_Node000001_Node000008"><a xlink:title=" ">
<path fill="none" stroke="#63b8ff" d="M120.68,-227.91C182.24,-224.71 278.71,-219.69 346.86,-216.15"/>
<polygon fill="#63b8ff" stroke="#63b8ff" points="346.74,-219.61 356.55,-215.6 346.38,-212.62 346.74,-219.61"/>
</a>
</g>
</g>
<!-- Node24 -->
<g id="Node000024" class="node">
<title>Node24</title>
<g id="a_Node000024"><a xlink:href="class_hooks_impl.html#a924c5db32f07636c8acbc9421c216112" target="_top" xlink:title=" ">
<polygon fill="white" stroke="#666666" points="498,-184 357.5,-184 357.5,-164 498,-164 498,-184"/>
<text text-anchor="middle" x="427.75" y="-170.5" font-family="Helvetica,sans-Serif" font-size="10.00">HooksImpl::onClosePosWnd</text>
</a>
</g>
</g>
<!-- Node1&#45;&gt;Node24 -->
<g id="edge28_Node000001_Node000024" class="edge">
<title>Node1&#45;&gt;Node24</title>
<g id="a_edge28_Node000001_Node000024"><a xlink:title=" ">
<path fill="none" stroke="#63b8ff" d="M118.17,-220.52C130.7,-218.3 143.91,-216.01 156.25,-214 220.03,-203.59 292.46,-192.94 346.31,-185.25"/>
<polygon fill="#63b8ff" stroke="#63b8ff" points="346.76,-188.58 356.17,-183.7 345.77,-181.65 346.76,-188.58"/>
</a>
</g>
</g>
<!-- Node25 -->
<g id="Node000025" class="node">
<title>Node25</title>
<g id="a_Node000025"><a xlink:href="class_hooks_impl.html#a7628ad89b3625fcd9e8538d94d7b2cde" target="_top" xlink:title="processes the WM_LBUTTONUP event">
<polygon fill="white" stroke="#666666" points="297.12,-298 173.12,-298 173.12,-278 297.12,-278 297.12,-298"/>
<text text-anchor="middle" x="235.12" y="-284.5" font-family="Helvetica,sans-Serif" font-size="10.00">HooksImpl::onLButtonUp</text>
</a>
</g>
</g>
<!-- Node1&#45;&gt;Node25 -->
<g id="edge33_Node000001_Node000025" class="edge">
<title>Node1&#45;&gt;Node25</title>
<g id="a_edge33_Node000001_Node000025"><a xlink:title=" ">
<path fill="none" stroke="#63b8ff" d="M84.63,-241.47C103.68,-249.69 131.35,-261.03 156.25,-269 162.69,-271.06 169.48,-273.02 176.27,-274.85"/>
<polygon fill="#63b8ff" stroke="#63b8ff" points="175.32,-278.48 185.88,-277.6 177.08,-271.7 175.32,-278.48"/>
</a>
</g>
</g>
<!-- Node26 -->
<g id="Node000026" class="node">
<title>Node26</title>
<g id="a_Node000026"><a xlink:href="class_hooks_impl.html#afe7a8e2c13ab2abe83b4f3d0c462e761" target="_top" xlink:title="this procedure handles the double click in non&#45;client area">
<polygon fill="white" stroke="#666666" points="304.25,-146 166,-146 166,-114 304.25,-114 304.25,-146"/>
<text text-anchor="start" x="174" y="-132.5" font-family="Helvetica,sans-Serif" font-size="10.00">HooksImpl::onNcLButtonDbl</text>
<text text-anchor="middle" x="235.12" y="-120.5" font-family="Helvetica,sans-Serif" font-size="10.00">Click</text>
</a>
</g>
</g>
<!-- Node1&#45;&gt;Node26 -->
<g id="edge36_Node000001_Node000026" class="edge">
<title>Node1&#45;&gt;Node26</title>
<g id="a_edge36_Node000001_Node000026"><a xlink:title=" ">
<path fill="none" stroke="#63b8ff" d="M72.71,-220.68C89.94,-205.75 123.78,-177.93 156.25,-160 162.39,-156.61 168.98,-153.43 175.65,-150.51"/>
<polygon fill="#63b8ff" stroke="#63b8ff" points="176.55,-153.5 184.42,-146.4 173.84,-147.05 176.55,-153.5"/>
</a>
</g>
</g>
<!-- Node28 -->
<g id="Node000028" class="node">
<title>Node28</title>
<g id="a_Node000028"><a xlink:href="class_hooks_impl.html#a9adf50040968aa66908f643ad1edda53" target="_top" xlink:title="processes the WM_NCLBUTTONDOWN event">
<polygon fill="white" stroke="#666666" points="309.12,-96 161.12,-96 161.12,-76 309.12,-76 309.12,-96"/>
<text text-anchor="middle" x="235.12" y="-82.5" font-family="Helvetica,sans-Serif" font-size="10.00">HooksImpl::onNcLButtonDown</text>
</a>
</g>
</g>
<!-- Node1&#45;&gt;Node28 -->
<g id="edge38_Node000001_Node000028" class="edge">
<title>Node1&#45;&gt;Node28</title>
<g id="a_edge38_Node000001_Node000028"><a xlink:title=" ">
<path fill="none" stroke="#63b8ff" d="M65.86,-220.61C77.51,-196.28 109.99,-135.42 156.25,-105 158.54,-103.49 160.94,-102.11 163.41,-100.83"/>
<polygon fill="#63b8ff" stroke="#63b8ff" points="164.58,-103.7 172.29,-96.43 161.73,-97.31 164.58,-103.7"/>
</a>
</g>
</g>
<!-- Node29 -->
<g id="Node000029" class="node">
<title>Node29</title>
<g id="a_Node000029"><a xlink:href="class_hooks_impl.html#a88ea927a4d021535e4a5768ef60a50d7" target="_top" xlink:title="processes the WM_NCLBUTTONUP event">
<polygon fill="white" stroke="#666666" points="303.88,-58 166.38,-58 166.38,-38 303.88,-38 303.88,-58"/>
<text text-anchor="middle" x="235.12" y="-44.5" font-family="Helvetica,sans-Serif" font-size="10.00">HooksImpl::onNCLButtonUp</text>
</a>
</g>
</g>
<!-- Node1&#45;&gt;Node29 -->
<g id="edge39_Node000001_Node000029" class="edge">
<title>Node1&#45;&gt;Node29</title>
<g id="a_edge39_Node000001_Node000029"><a xlink:title=" ">
<path fill="none" stroke="#63b8ff" d="M64,-220.61C72.62,-191.44 101.16,-108.21 156.25,-67 157.96,-65.72 159.75,-64.52 161.6,-63.41"/>
<polygon fill="#63b8ff" stroke="#63b8ff" points="162.96,-66.13 170.27,-58.46 159.77,-59.9 162.96,-66.13"/>
</a>
</g>
</g>
<!-- Node30 -->
<g id="Node000030" class="node">
<title>Node30</title>
<g id="a_Node000030"><a xlink:href="class_task_toolbar.html#a2304586dd147f754c7040f781eda1270" target="_top" xlink:title=" ">
<polygon fill="white" stroke="#666666" points="295.25,-20 175,-20 175,0 295.25,0 295.25,-20"/>
<text text-anchor="middle" x="235.12" y="-6.5" font-family="Helvetica,sans-Serif" font-size="10.00">TaskToolbar::uninitialize</text>
</a>
</g>
</g>
<!-- Node1&#45;&gt;Node30 -->
<g id="edge41_Node000001_Node000030" class="edge">
<title>Node1&#45;&gt;Node30</title>
<g id="a_edge41_Node000001_Node000030"><a xlink:title=" ">
<path fill="none" stroke="#63b8ff" d="M62.78,-220.71C68.7,-187.38 92.01,-81.48 156.25,-29 159,-26.75 161.97,-24.77 165.1,-23.01"/>
<polygon fill="#63b8ff" stroke="#63b8ff" points="166.32,-25.83 173.86,-18.4 163.33,-19.5 166.32,-25.83"/>
</a>
</g>
</g>
<!-- Node6 -->
<g id="Node000006" class="node">
<title>Node6</title>
<g id="a_Node000006"><a xlink:href="class_hooks_impl.html#a8ef5405a747979c1f5197848e4a8e684" target="_top" xlink:title=" ">
<polygon fill="white" stroke="#666666" points="493.12,-272 362.38,-272 362.38,-240 493.12,-240 493.12,-272"/>
<text text-anchor="start" x="370.38" y="-258.5" font-family="Helvetica,sans-Serif" font-size="10.00">HooksImpl::hasCaptionDbl</text>
<text text-anchor="middle" x="427.75" y="-246.5" font-family="Helvetica,sans-Serif" font-size="10.00">Clicked</text>
</a>
</g>
</g>
<!-- Node5&#45;&gt;Node6 -->
<g id="edge5_Node000005_Node000006" class="edge">
<title>Node5&#45;&gt;Node6</title>
<g id="a_edge5_Node000005_Node000006"><a xlink:title=" ">
<path fill="none" stroke="#63b8ff" d="M301.99,-252.07C317.97,-252.58 335.18,-253.12 351.55,-253.63"/>
<polygon fill="#63b8ff" stroke="#63b8ff" points="351.06,-257.15 361.17,-253.97 351.28,-250.15 351.06,-257.15"/>
</a>
</g>
</g>
<!-- Node5&#45;&gt;Node7 -->
<g id="edge6_Node000005_Node000007" class="edge">
<title>Node5&#45;&gt;Node7</title>
<g id="a_edge6_Node000005_Node000007"><a xlink:title=" ">
<path fill="none" stroke="#63b8ff" d="M281.59,-260.42C292.27,-263.06 303.57,-265.99 314,-269 330.21,-273.67 333.8,-276.3 350,-281 356.91,-283 364.21,-284.98 371.44,-286.86"/>
<polygon fill="#63b8ff" stroke="#63b8ff" points="370.39,-290.46 380.95,-289.54 372.12,-283.68 370.39,-290.46"/>
</a>
</g>
</g>
<!-- Node5&#45;&gt;Node8 -->
<g id="edge7_Node000005_Node000008" class="edge">
<title>Node5&#45;&gt;Node8</title>
<g id="a_edge7_Node000005_Node000008"><a xlink:title=" ">
<path fill="none" stroke="#63b8ff" d="M288.72,-239.52C311.95,-234.88 339.45,-229.4 363.77,-224.56"/>
<polygon fill="#63b8ff" stroke="#63b8ff" points="364.21,-227.84 373.33,-222.45 362.84,-220.97 364.21,-227.84"/>
</a>
</g>
</g>
<!-- Node9 -->
<g id="Node000009" class="node">
<title>Node9</title>
<g id="a_Node000009"><a xlink:href="class_win_pos_wnd.html#abec2e67db5543a717d59b02ab8dbb930" target="_top" xlink:title="create the required windows for monitor preview and all configured positions">
<polygon fill="white" stroke="#666666" points="663.62,-326 559.88,-326 559.88,-306 663.62,-306 663.62,-326"/>
<text text-anchor="middle" x="611.75" y="-312.5" font-family="Helvetica,sans-Serif" font-size="10.00">WinPosWnd::create</text>
</a>
</g>
</g>
<!-- Node8&#45;&gt;Node9 -->
<g id="edge8_Node000008_Node000009" class="edge">
<title>Node8&#45;&gt;Node9</title>
<g id="a_edge8_Node000008_Node000009"><a xlink:title=" ">
<path fill="none" stroke="#63b8ff" d="M483.48,-222.41C491.07,-224.75 498.62,-227.58 505.5,-231 540.13,-248.2 573.75,-278.43 593.33,-297.82"/>
<polygon fill="#63b8ff" stroke="#63b8ff" points="590.55,-299.99 600.07,-304.64 595.52,-295.07 590.55,-299.99"/>
</a>
</g>
</g>
<!-- Node23 -->
<g id="Node000023" class="node">
<title>Node23</title>
<g id="a_Node000023"><a xlink:href="class_win_pos_wnd.html#acb456c59641ec336d5c7646764fe7e6a" target="_top" xlink:title=" ">
<polygon fill="white" stroke="#666666" points="682,-222 541.5,-222 541.5,-202 682,-202 682,-222"/>
<text text-anchor="middle" x="611.75" y="-208.5" font-family="Helvetica,sans-Serif" font-size="10.00">WinPosWnd::getWndHandle</text>
</a>
</g>
</g>
<!-- Node8&#45;&gt;Node23 -->
<g id="edge27_Node000008_Node000023" class="edge">
<title>Node8&#45;&gt;Node23</title>
<g id="a_edge27_Node000008_Node000023"><a xlink:title=" ">
<path fill="none" stroke="#63b8ff" d="M498.08,-212C508.62,-212 519.58,-212 530.34,-212"/>
<polygon fill="#63b8ff" stroke="#63b8ff" points="530.01,-215.5 540.01,-212 530.01,-208.5 530.01,-215.5"/>
</a>
</g>
</g>
<!-- Node10 -->
<g id="Node000010" class="node">
<title>Node10</title>
<g id="a_Node000010"><a xlink:href="class_win_pos_wnd.html#a4b607f031e5058874a31918e4cc1ba79" target="_top" xlink:title="if the window looks beyond the edge of the monitor, it is moved so that it is displayed as a whole on...">
<polygon fill="white" stroke="#666666" points="878,-354 722.5,-354 722.5,-334 878,-334 878,-354"/>
<text text-anchor="middle" x="800.25" y="-340.5" font-family="Helvetica,sans-Serif" font-size="10.00">WinPosWnd::correctEdgecases</text>
</a>
</g>
</g>
<!-- Node9&#45;&gt;Node10 -->
<g id="edge9_Node000009_Node000010" class="edge">
<title>Node9&#45;&gt;Node10</title>
<g id="a_edge9_Node000009_Node000010"><a xlink:title=" ">
<path fill="none" stroke="#63b8ff" d="M663.71,-323.65C680.66,-326.2 699.98,-329.1 718.61,-331.89"/>
<polygon fill="#63b8ff" stroke="#63b8ff" points="718.06,-335.5 728.47,-333.52 719.1,-328.58 718.06,-335.5"/>
</a>
</g>
</g>
<!-- Node11 -->
<g id="Node000011" class="node">
<title>Node11</title>
<g id="a_Node000011"><a xlink:href="class_win_pos_wnd.html#a8abc6edd027488d4f7242b9f12693af8" target="_top" xlink:title="destroys every windows">
<polygon fill="white" stroke="#666666" points="854.75,-184 745.75,-184 745.75,-164 854.75,-164 854.75,-184"/>
<text text-anchor="middle" x="800.25" y="-170.5" font-family="Helvetica,sans-Serif" font-size="10.00">WinPosWnd::destroy</text>
</a>
</g>
</g>
<!-- Node9&#45;&gt;Node11 -->
<g id="edge10_Node000009_Node000011" class="edge">
<title>Node9&#45;&gt;Node11</title>
<g id="a_edge10_Node000009_Node000011"><a xlink:title=" ">
<path fill="none" stroke="#63b8ff" d="M620.82,-305.86C643.24,-277.78 705.45,-200.63 718,-193 723.31,-189.77 729.13,-187.09 735.13,-184.86"/>
<polygon fill="#63b8ff" stroke="#63b8ff" points="735.92,-187.96 744.34,-181.53 733.75,-181.3 735.92,-187.96"/>
</a>
</g>
</g>
<!-- Node12 -->
<g id="Node000012" class="node">
<title>Node12</title>
<g id="a_Node000012"><a xlink:href="class_win_pos_wnd_cfg.html#afe04626c840dd23b6b063f58bcb06dce" target="_top" xlink:title=" ">
<polygon fill="white" stroke="#666666" points="1261,-436 1097.25,-436 1097.25,-416 1261,-416 1261,-436"/>
<text text-anchor="middle" x="1179.12" y="-422.5" font-family="Helvetica,sans-Serif" font-size="10.00">WinPosWndCfg::getCloseTimeout</text>
</a>
</g>
</g>
<!-- Node9&#45;&gt;Node12 -->
<g id="edge11_Node000009_Node000012" class="edge">
<title>Node9&#45;&gt;Node12</title>
<g id="a_edge11_Node000009_Node000012"><a xlink:title=" ">
<path fill="none" stroke="#63b8ff" d="M616.93,-326.36C628.36,-353.09 662.99,-424.13 718,-451 860.24,-520.46 1057.48,-467.61 1139.72,-440.03"/>
<polygon fill="#63b8ff" stroke="#63b8ff" points="1140.76,-443.03 1149.09,-436.48 1138.5,-436.41 1140.76,-443.03"/>
</a>
</g>
</g>
<!-- Node13 -->
<g id="Node000013" class="node">
<title>Node13</title>
<g id="a_Node000013"><a xlink:href="class_win_pos_wnd_cfg.html#a10a73295ae59c85d651ad0088b235125" target="_top" xlink:title=" ">
<polygon fill="white" stroke="#666666" points="871.25,-518 729.25,-518 729.25,-498 871.25,-498 871.25,-518"/>
<text text-anchor="middle" x="800.25" y="-504.5" font-family="Helvetica,sans-Serif" font-size="10.00">WinPosWndCfg::getMonitors</text>
</a>
</g>
</g>
<!-- Node9&#45;&gt;Node13 -->
<g id="edge12_Node000009_Node000013" class="edge">
<title>Node9&#45;&gt;Node13</title>
<g id="a_edge12_Node000009_Node000013"><a xlink:title=" ">
<path fill="none" stroke="#63b8ff" d="M616.15,-326.09C626.48,-355.25 660.43,-440.31 718,-484 722.88,-487.7 728.32,-490.84 734.01,-493.49"/>
<polygon fill="#63b8ff" stroke="#63b8ff" points="732.19,-496.93 742.77,-497.51 734.86,-490.46 732.19,-496.93"/>
</a>
</g>
</g>
<!-- Node14 -->
<g id="Node000014" class="node">
<title>Node14</title>
<g id="a_Node000014"><a xlink:href="class_win_pos_wnd_cfg.html#a1fd1c1c55716a4697a044ae0671cf2aa" target="_top" xlink:title=" ">
<polygon fill="white" stroke="#666666" points="1243.75,-298 1114.5,-298 1114.5,-278 1243.75,-278 1243.75,-298"/>
<text text-anchor="middle" x="1179.12" y="-284.5" font-family="Helvetica,sans-Serif" font-size="10.00">WinPosWndCfg::getScale</text>
</a>
</g>
</g>
<!-- Node9&#45;&gt;Node14 -->
<g id="edge13_Node000009_Node000014" class="edge">
<title>Node9&#45;&gt;Node14</title>
<g id="a_edge13_Node000009_Node000014"><a xlink:title=" ">
<path fill="none" stroke="#63b8ff" d="M629.85,-305.64C650.07,-294.06 685.12,-276.01 718,-269 857.62,-239.24 1026.31,-260.24 1115.6,-275.66"/>
<polygon fill="#63b8ff" stroke="#63b8ff" points="1114.9,-279.27 1125.35,-277.56 1116.11,-272.38 1114.9,-279.27"/>
</a>
</g>
</g>
<!-- Node15 -->
<g id="Node000015" class="node">
<title>Node15</title>
<g id="a_Node000015"><a xlink:href="class_win_pos_wnd.html#a159d04333920b8b0ab3b8ecc6f6607dd" target="_top" xlink:title=" ">
<polygon fill="white" stroke="#666666" points="882.5,-442 718,-442 718,-422 882.5,-422 882.5,-442"/>
<text text-anchor="middle" x="800.25" y="-428.5" font-family="Helvetica,sans-Serif" font-size="10.00">WinPosWnd::getTotalPreviewRect</text>
</a>
</g>
</g>
<!-- Node9&#45;&gt;Node15 -->
<g id="edge14_Node000009_Node000015" class="edge">
<title>Node9&#45;&gt;Node15</title>
<g id="a_edge14_Node000009_Node000015"><a xlink:title=" ">
<path fill="none" stroke="#63b8ff" d="M620.78,-326.34C636.92,-346.36 675.4,-390.43 718,-413 721.47,-414.84 725.11,-416.5 728.86,-418"/>
<polygon fill="#63b8ff" stroke="#63b8ff" points="727.35,-421.54 737.95,-421.62 729.71,-414.95 727.35,-421.54"/>
</a>
</g>
</g>
<!-- Node16 -->
<g id="Node000016" class="node">
<title>Node16</title>
<g id="a_Node000016"><a xlink:href="class_win_pos_wnd.html#a86ca33ea895961e25e6c1601e420f40e" target="_top" xlink:title="initialize the WNDCLASS structure">
<polygon fill="white" stroke="#666666" points="867.5,-222 733,-222 733,-202 867.5,-202 867.5,-222"/>
<text text-anchor="middle" x="800.25" y="-208.5" font-family="Helvetica,sans-Serif" font-size="10.00">WinPosWnd::initWndClass</text>
</a>
</g>
</g>
<!-- Node9&#45;&gt;Node16 -->
<g id="edge15_Node000009_Node000016" class="edge">
<title>Node9&#45;&gt;Node16</title>
<g id="a_edge15_Node000009_Node000016"><a xlink:title=" ">
<path fill="none" stroke="#63b8ff" d="M623.51,-305.65C641.61,-288.77 679.91,-255.28 718,-236 725.84,-232.03 734.44,-228.61 743.02,-225.7"/>
<polygon fill="#63b8ff" stroke="#63b8ff" points="743.96,-228.75 752.43,-222.39 741.84,-222.08 743.96,-228.75"/>
</a>
</g>
</g>
<!-- Node19 -->
<g id="Node000019" class="node">
<title>Node19</title>
<g id="a_Node000019"><a xlink:href="struct_win_pos_wnd_1_1_monitor_preview.html#a01fe1b4351422928e43305d1758ae6fb" target="_top" xlink:title="move the rectangle to the cursor position">
<polygon fill="white" stroke="#666666" points="871.25,-404 729.25,-404 729.25,-372 871.25,-372 871.25,-404"/>
<text text-anchor="start" x="737.25" y="-390.5" font-family="Helvetica,sans-Serif" font-size="10.00">WinPosWnd::MonitorPreview</text>
<text text-anchor="middle" x="800.25" y="-378.5" font-family="Helvetica,sans-Serif" font-size="10.00">::offsetToPt</text>
</a>
</g>
</g>
<!-- Node9&#45;&gt;Node19 -->
<g id="edge18_Node000009_Node000019" class="edge">
<title>Node9&#45;&gt;Node19</title>
<g id="a_edge18_Node000009_Node000019"><a xlink:title=" ">
<path fill="none" stroke="#63b8ff" d="M633.8,-326.31C654.83,-336.39 688.21,-351.81 718,-363 722.68,-364.76 727.54,-366.48 732.45,-368.16"/>
<polygon fill="#63b8ff" stroke="#63b8ff" points="730.97,-371.69 741.57,-371.53 733.18,-365.05 730.97,-371.69"/>
</a>
</g>
</g>
<!-- Node20 -->
<g id="Node000020" class="node">
<title>Node20</title>
<g id="a_Node000020"><a xlink:href="class_win_pos_wnd_cfg.html#a038475d40481960d701d09f6e39467c8" target="_top" xlink:title=" ">
<polygon fill="white" stroke="#666666" points="868.62,-298 731.88,-298 731.88,-278 868.62,-278 868.62,-298"/>
<text text-anchor="middle" x="800.25" y="-284.5" font-family="Helvetica,sans-Serif" font-size="10.00">WinPosWndCfg::readConfig</text>
</a>
</g>
</g>
<!-- Node9&#45;&gt;Node20 -->
<g id="edge19_Node000009_Node000020" class="edge">
<title>Node9&#45;&gt;Node20</title>
<g id="a_edge19_Node000009_Node000020"><a xlink:title=" ">
<path fill="none" stroke="#63b8ff" d="M663.71,-308.35C681.37,-305.7 701.58,-302.66 720.92,-299.76"/>
<polygon fill="#63b8ff" stroke="#63b8ff" points="721.19,-303.11 730.56,-298.16 720.15,-296.19 721.19,-303.11"/>
</a>
</g>
</g>
<!-- Node17 -->
<g id="Node000017" class="node">
<title>Node17</title>
<g id="a_Node000017"><a xlink:href="class_win_pos_wnd.html#a104a18975fac2ac85a75eabda629ddb2" target="_top" xlink:title="static WNDPROC. Forwards to the WinPosWnd instances.">
<polygon fill="white" stroke="#666666" points="1061.25,-203 918.5,-203 918.5,-183 1061.25,-183 1061.25,-203"/>
<text text-anchor="middle" x="989.88" y="-189.5" font-family="Helvetica,sans-Serif" font-size="10.00">WinPosWnd::WndProcStatic</text>
</a>
</g>
</g>
<!-- Node16&#45;&gt;Node17 -->
<g id="edge16_Node000016_Node000017" class="edge">
<title>Node16&#45;&gt;Node17</title>
<g id="a_edge16_Node000016_Node000017"><a xlink:title=" ">
<path fill="none" stroke="#63b8ff" d="M867.93,-205.25C880.81,-203.94 894.44,-202.56 907.72,-201.22"/>
<polygon fill="#63b8ff" stroke="#63b8ff" points="907.69,-204.64 917.28,-200.15 906.98,-197.67 907.69,-204.64"/>
</a>
</g>
</g>
<!-- Node18 -->
<g id="Node000018" class="node">
<title>Node18</title>
<g id="a_Node000018"><a xlink:href="class_win_pos_wnd.html#a5ad8686caf3b8310fff6d4bec255f898" target="_top" xlink:title="get the instance of WinPosWnd to a window handle">
<polygon fill="white" stroke="#666666" points="1251.62,-165 1106.62,-165 1106.62,-145 1251.62,-145 1251.62,-165"/>
<text text-anchor="middle" x="1179.12" y="-151.5" font-family="Helvetica,sans-Serif" font-size="10.00">WinPosWnd::getWinPosWnd</text>
</a>
</g>
</g>
<!-- Node17&#45;&gt;Node18 -->
<g id="edge17_Node000017_Node000018" class="edge">
<title>Node17&#45;&gt;Node18</title>
<g id="a_edge17_Node000017_Node000018"><a xlink:title=" ">
<path fill="none" stroke="#63b8ff" d="M1042.54,-182.52C1065.26,-177.91 1092.13,-172.45 1115.93,-167.62"/>
<polygon fill="#63b8ff" stroke="#63b8ff" points="1116.53,-170.87 1125.63,-165.45 1115.13,-164.01 1116.53,-170.87"/>
</a>
</g>
</g>
<!-- Node20&#45;&gt;Node14 -->
<g id="edge21_Node000020_Node000014" class="edge">
<title>Node20&#45;&gt;Node14</title>
<g id="a_edge21_Node000020_Node000014"><a xlink:title=" ">
<path fill="none" stroke="#63b8ff" d="M869.06,-288C935.14,-288 1035.37,-288 1103.64,-288"/>
<polygon fill="#63b8ff" stroke="#63b8ff" points="1103.31,-291.5 1113.31,-288 1103.31,-284.5 1103.31,-291.5"/>
</a>
</g>
</g>
<!-- Node20&#45;&gt;Node20 -->
<g id="edge22_Node000020_Node000020" class="edge">
<title>Node20&#45;&gt;Node20</title>
<g id="a_edge22_Node000020_Node000020"><a xlink:title=" ">
<path fill="none" stroke="#63b8ff" d="M770.3,-298.34C757.5,-306.98 767.48,-316 800.25,-316 819.71,-316 831.13,-312.82 834.52,-308.43"/>
<polygon fill="#63b8ff" stroke="#63b8ff" points="837.35,-307.15 830.2,-299.34 830.92,-309.91 837.35,-307.15"/>
</a>
</g>
</g>
<!-- Node21 -->
<g id="Node000021" class="node">
<title>Node21</title>
<g id="a_Node000021"><a xlink:href="class_win_pos_wnd_cfg.html#a93944e9bbc627a502d59f845b3b1e827" target="_top" xlink:title=" ">
<polygon fill="white" stroke="#666666" points="1255,-355 1103.25,-355 1103.25,-335 1255,-335 1255,-355"/>
<text text-anchor="middle" x="1179.12" y="-341.5" font-family="Helvetica,sans-Serif" font-size="10.00">WinPosWndCfg::getConfigPath</text>
</a>
</g>
</g>
<!-- Node20&#45;&gt;Node21 -->
<g id="edge20_Node000020_Node000021" class="edge">
<title>Node20&#45;&gt;Node21</title>
<g id="a_edge20_Node000020_Node000021"><a xlink:title=" ">
<path fill="none" stroke="#63b8ff" d="M825.31,-298.35C841.6,-305.51 863.54,-315.44 882.5,-325 898.84,-333.24 900.78,-340.41 918.5,-345 975.12,-359.67 1041.05,-359.47 1092.3,-355.7"/>
<polygon fill="#63b8ff" stroke="#63b8ff" points="1092.32,-359.13 1102.01,-354.85 1091.76,-352.15 1092.32,-359.13"/>
</a>
</g>
</g>
<!-- Node22 -->
<g id="Node000022" class="node">
<title>Node22</title>
<g id="a_Node000022"><a xlink:href="class_win_pos_wnd_cfg.html#a2e024dd316be8cf377996f7be3017acd" target="_top" xlink:title=" ">
<polygon fill="white" stroke="#666666" points="1059,-336 920.75,-336 920.75,-316 1059,-316 1059,-336"/>
<text text-anchor="middle" x="989.88" y="-322.5" font-family="Helvetica,sans-Serif" font-size="10.00">WinPosWndCfg::writeConfig</text>
</a>
</g>
</g>
<!-- Node20&#45;&gt;Node22 -->
<g id="edge23_Node000020_Node000022" class="edge">
<title>Node20&#45;&gt;Node22</title>
<g id="a_edge23_Node000020_Node000022"><a xlink:title=" ">
<path fill="none" stroke="#63b8ff" d="M853.02,-298.48C875.78,-303.09 902.71,-308.55 926.56,-313.38"/>
<polygon fill="#63b8ff" stroke="#63b8ff" points="925.78,-317 936.28,-315.55 927.17,-310.13 925.78,-317"/>
</a>
</g>
</g>
<!-- Node22&#45;&gt;Node12 -->
<g id="edge24_Node000022_Node000012" class="edge">
<title>Node22&#45;&gt;Node12</title>
<g id="a_edge24_Node000022_Node000012"><a xlink:title=" ">
<path fill="none" stroke="#63b8ff" d="M1010.21,-336.33C1043.15,-353.92 1110.32,-389.79 1148.98,-410.44"/>
<polygon fill="#63b8ff" stroke="#63b8ff" points="1147.15,-413.96 1157.62,-415.58 1150.44,-407.78 1147.15,-413.96"/>
</a>
</g>
</g>
<!-- Node22&#45;&gt;Node14 -->
<g id="edge26_Node000022_Node000014" class="edge">
<title>Node22&#45;&gt;Node14</title>
<g id="a_edge26_Node000022_Node000014"><a xlink:title=" ">
<path fill="none" stroke="#63b8ff" d="M1042.54,-315.52C1065.26,-310.91 1092.13,-305.45 1115.93,-300.62"/>
<polygon fill="#63b8ff" stroke="#63b8ff" points="1116.53,-303.87 1125.63,-298.45 1115.13,-297.01 1116.53,-303.87"/>
</a>
</g>
</g>
<!-- Node22&#45;&gt;Node21 -->
<g id="edge25_Node000022_Node000021" class="edge">
<title>Node22&#45;&gt;Node21</title>
<g id="a_edge25_Node000022_Node000021"><a xlink:title=" ">
<path fill="none" stroke="#63b8ff" d="M1059.27,-332.94C1069.93,-334.02 1081.06,-335.15 1092.04,-336.27"/>
<polygon fill="#63b8ff" stroke="#63b8ff" points="1091.66,-339.85 1101.96,-337.37 1092.37,-332.88 1091.66,-339.85"/>
</a>
</g>
</g>
<!-- Node24&#45;&gt;Node11 -->
<g id="edge29_Node000024_Node000011" class="edge">
<title>Node24&#45;&gt;Node11</title>
<g id="a_edge29_Node000024_Node000011"><a xlink:title=" ">
<path fill="none" stroke="#63b8ff" d="M498.44,-174C566.35,-174 668.75,-174 734.81,-174"/>
<polygon fill="#63b8ff" stroke="#63b8ff" points="734.49,-177.5 744.49,-174 734.49,-170.5 734.49,-177.5"/>
</a>
</g>
</g>
<!-- Node24&#45;&gt;Node18 -->
<g id="edge30_Node000024_Node000018" class="edge">
<title>Node24&#45;&gt;Node18</title>
<g id="a_edge30_Node000024_Node000018"><a xlink:title=" ">
<path fill="none" stroke="#63b8ff" d="M498.24,-168.15C556.79,-163.53 642.8,-157.47 718,-155 849.96,-150.67 1003.32,-151.93 1095.45,-153.37"/>
<polygon fill="#63b8ff" stroke="#63b8ff" points="1095.32,-156.88 1105.37,-153.54 1095.43,-149.88 1095.32,-156.88"/>
</a>
</g>
</g>
<!-- Node24&#45;&gt;Node23 -->
<g id="edge31_Node000024_Node000023" class="edge">
<title>Node24&#45;&gt;Node23</title>
<g id="a_edge31_Node000024_Node000023"><a xlink:title=" ">
<path fill="none" stroke="#63b8ff" d="M478.96,-184.48C500.95,-189.07 526.93,-194.5 549.99,-199.31"/>
<polygon fill="#63b8ff" stroke="#63b8ff" points="549.2,-202.93 559.7,-201.55 550.63,-196.08 549.2,-202.93"/>
</a>
</g>
</g>
<!-- Node25&#45;&gt;Node6 -->
<g id="edge34_Node000025_Node000006" class="edge">
<title>Node25&#45;&gt;Node6</title>
<g id="a_edge34_Node000025_Node000006"><a xlink:title=" ">
<path fill="none" stroke="#63b8ff" d="M297.49,-277.7C314.6,-274.83 333.4,-271.67 351.23,-268.68"/>
<polygon fill="#63b8ff" stroke="#63b8ff" points="351.6,-272 360.89,-266.89 350.45,-265.09 351.6,-272"/>
</a>
</g>
</g>
<!-- Node25&#45;&gt;Node7 -->
<g id="edge35_Node000025_Node000007" class="edge">
<title>Node25&#45;&gt;Node7</title>
<g id="a_edge35_Node000025_Node000007"><a xlink:title=" ">
<path fill="none" stroke="#63b8ff" d="M297.49,-291.86C310.76,-292.7 325.04,-293.6 339.1,-294.48"/>
<polygon fill="#63b8ff" stroke="#63b8ff" points="338.58,-298.02 348.78,-295.15 339.02,-291.03 338.58,-298.02"/>
</a>
</g>
</g>
<!-- Node27 -->
<g id="Node000027" class="node">
<title>Node27</title>
<g id="a_Node000027"><a xlink:href="class_hooks_impl.html#a7a48621aa5b57024ae963b861fd508cb" target="_top" xlink:title=" ">
<polygon fill="white" stroke="#666666" points="489,-140 366.5,-140 366.5,-120 489,-120 489,-140"/>
<text text-anchor="middle" x="427.75" y="-126.5" font-family="Helvetica,sans-Serif" font-size="10.00">HooksImpl::hasLastRect</text>
</a>
</g>
</g>
<!-- Node26&#45;&gt;Node27 -->
<g id="edge37_Node000026_Node000027" class="edge">
<title>Node26&#45;&gt;Node27</title>
<g id="a_edge37_Node000026_Node000027"><a xlink:title=" ">
<path fill="none" stroke="#63b8ff" d="M304.68,-130C321.14,-130 338.76,-130 355.34,-130"/>
<polygon fill="#63b8ff" stroke="#63b8ff" points="355.07,-133.5 365.07,-130 355.07,-126.5 355.07,-133.5"/>
</a>
</g>
</g>
</g>
</svg>

<g id="navigator" transform="translate(0 0)" fill="#404254">
  <rect fill="#f2f5e9" fill-opacity="0.5" stroke="#606060" stroke-width=".5" x="0" y="0" width="60" height="60"/>
  <use id="zoomplus" xlink:href="#zoomPlus" x="17" y="9" onmousedown="handleZoom(evt,'in')"/>
  <use id="zoomminus" xlink:href="#zoomMin" x="42" y="9" onmousedown="handleZoom(evt,'out')"/>
  <use id="reset" xlink:href="#resetDef" x="30" y="36" onmousedown="handleReset()"/>
   <use id="arrowup" xlink:href="#arrowUp" x="0" y="0" onmousedown="handlePan(0,-1)"/>
  <use id="arrowright" xlink:href="#arrowRight" x="0" y="0" onmousedown="handlePan(1,0)"/>
  <use id="arrowdown" xlink:href="#arrowDown" x="0" y="0" onmousedown="handlePan(0,1)"/>
  <use id="arrowleft" xlink:href="#arrowLeft" x="0" y="0" onmousedown="handlePan(-1,0)"/>
</g>
<svg viewBox="0 0 15 15" width="100%" height="30px" preserveAspectRatio="xMaxYMin meet">
 <g id="arrow_out" transform="scale(0.3 0.3)">
  <a xlink:href="class_hooks_impl_a07053e18c49265e300fe89b2a5bc28de_cgraph_org.svg" target="_base">
   <rect id="button" ry="5" rx="5" y="6" x="6" height="38" width="38"
        fill="#f2f5e9" fill-opacity="0.5" stroke="#606060" stroke-width="1.0"/>
   <path id="arrow"
     d="M 11.500037,31.436501 C 11.940474,20.09759 22.043105,11.32322 32.158766,21.979434 L 37.068811,17.246167 C 37.068811,17.246167 37.088388,32 37.088388,32 L 22.160133,31.978069 C 22.160133,31.978069 26.997745,27.140456 26.997745,27.140456 C 18.528582,18.264221 13.291696,25.230495 11.500037,31.436501 z"
     style="fill:#404040;"/>
  </a>
 </g>
</svg>

<style type='text/css'>
<![CDATA[
[data-mouse-over-selected='false'] { opacity: 0.7; }
[data-mouse-over-selected='true']  { opacity: 1.0; }
]]>
</style>
<script type="application/ecmascript"><![CDATA[
document.addEventListener('DOMContentLoaded', (event) => {
  highlightEdges();
  highlightAdjacentNodes();
});
]]></script>
</svg>
