<?xml version="1.0" encoding="UTF-8" standalone="no"?>
<!DOCTYPE svg PUBLIC "-//W3C//DTD SVG 1.1//EN"
 "http://www.w3.org/Graphics/SVG/1.1/DTD/svg11.dtd">
<!-- Generated by graphviz version 8.1.0 (20230707.0739)
 -->
<!-- Title: HooksCfg::isDisabled Pages: 1 -->
<svg width="605pt" height="66pt"
 viewBox="0.00 0.00 605.25 66.00" xmlns="http://www.w3.org/2000/svg" xmlns:xlink="http://www.w3.org/1999/xlink">
<g id="graph0" class="graph" transform="scale(1 1) rotate(0) translate(4 62)">
<title>HooksCfg::isDisabled</title>
<!-- Node1 -->
<g id="Node000001" class="node">
<title>Node1</title>
<g id="a_Node000001"><a xlink:title="check if someone has disabled stored in config">
<polygon fill="#999999" stroke="#666666" points="109,-39 0,-39 0,-19 109,-19 109,-39"/>
<text text-anchor="middle" x="54.5" y="-25.5" font-family="Helvetica,sans-Serif" font-size="10.00">HooksCfg::isDisabled</text>
</a>
</g>
</g>
<!-- Node2 -->
<g id="Node000002" class="node">
<title>Node2</title>
<g id="a_Node000002"><a xlink:href="class_hooks_cfg.html#a9642afc6c6fe88141770403a09cdfc4b" target="_top" xlink:title="read the global config for all apps">
<polygon fill="white" stroke="#666666" points="254.75,-39 145,-39 145,-19 254.75,-19 254.75,-39"/>
<text text-anchor="middle" x="199.88" y="-25.5" font-family="Helvetica,sans-Serif" font-size="10.00">HooksCfg::readConfig</text>
</a>
</g>
</g>
<!-- Node1&#45;&gt;Node2 -->
<g id="edge1_Node000001_Node000002" class="edge">
<title>Node1&#45;&gt;Node2</title>
<g id="a_edge1_Node000001_Node000002"><a xlink:title=" ">
<path fill="none" stroke="#63b8ff" d="M109.3,-29C117.36,-29 125.75,-29 134.02,-29"/>
<polygon fill="#63b8ff" stroke="#63b8ff" points="133.78,-32.5 143.78,-29 133.78,-25.5 133.78,-32.5"/>
</a>
</g>
</g>
<!-- Node3 -->
<g id="Node000003" class="node">
<title>Node3</title>
<g id="a_Node000003"><a xlink:href="class_hooks_cfg.html#a808e4e4a7bc43b89c87ef172fa8caf6a" target="_top" xlink:title="the path to the global config, for all apps">
<polygon fill="white" stroke="#666666" points="430.12,-58 305.38,-58 305.38,-38 430.12,-38 430.12,-58"/>
<text text-anchor="middle" x="367.75" y="-44.5" font-family="Helvetica,sans-Serif" font-size="10.00">HooksCfg::getConfigPath</text>
</a>
</g>
</g>
<!-- Node2&#45;&gt;Node3 -->
<g id="edge2_Node000002_Node000003" class="edge">
<title>Node2&#45;&gt;Node3</title>
<g id="a_edge2_Node000002_Node000003"><a xlink:title=" ">
<path fill="none" stroke="#63b8ff" d="M255.19,-35.22C267.66,-36.65 281.12,-38.19 294.23,-39.69"/>
<polygon fill="#63b8ff" stroke="#63b8ff" points="293.79,-43.28 304.13,-40.94 294.59,-36.33 293.79,-43.28"/>
</a>
</g>
</g>
<!-- Node5 -->
<g id="Node000005" class="node">
<title>Node5</title>
<g id="a_Node000005"><a xlink:href="class_hooks_cfg.html#ab8fd861156e6b389e43bbda021f42c50" target="_top" xlink:title="read a JSON config from given path">
<polygon fill="white" stroke="#666666" points="444.75,-20 290.75,-20 290.75,0 444.75,0 444.75,-20"/>
<text text-anchor="middle" x="367.75" y="-6.5" font-family="Helvetica,sans-Serif" font-size="10.00">HooksCfg::readConfigDocument</text>
</a>
</g>
</g>
<!-- Node2&#45;&gt;Node5 -->
<g id="edge4_Node000002_Node000005" class="edge">
<title>Node2&#45;&gt;Node5</title>
<g id="a_edge4_Node000002_Node000005"><a xlink:title=" ">
<path fill="none" stroke="#63b8ff" d="M255.19,-22.78C263.01,-21.88 271.21,-20.94 279.47,-20"/>
<polygon fill="#63b8ff" stroke="#63b8ff" points="279.8,-23.37 289.34,-18.75 279.01,-16.41 279.8,-23.37"/>
</a>
</g>
</g>
<!-- Node4 -->
<g id="Node000004" class="node">
<title>Node4</title>
<g id="a_Node000004"><a xlink:href="class_hooks_cfg.html#a437c5768d5246cf980d1be5ea6f272c6" target="_top" xlink:title="the directory, where store the configs and logs">
<polygon fill="white" stroke="#666666" points="597.25,-58 480.75,-58 480.75,-38 597.25,-38 597.25,-58"/>
<text text-anchor="middle" x="539" y="-44.5" font-family="Helvetica,sans-Serif" font-size="10.00">HooksCfg::getConfigDir</text>
</a>
</g>
</g>
<!-- Node3&#45;&gt;Node4 -->
<g id="edge3_Node000003_Node000004" class="edge">
<title>Node3&#45;&gt;Node4</title>
<g id="a_edge3_Node000003_Node000004"><a xlink:title=" ">
<path fill="none" stroke="#63b8ff" d="M430.33,-48C443.11,-48 456.64,-48 469.64,-48"/>
<polygon fill="#63b8ff" stroke="#63b8ff" points="469.41,-51.5 479.41,-48 469.41,-44.5 469.41,-51.5"/>
</a>
</g>
</g>
</g>
</svg>
