<?xml version="1.0" encoding="UTF-8" standalone="no"?>
<!DOCTYPE svg PUBLIC "-//W3C//DTD SVG 1.1//EN"
 "http://www.w3.org/Graphics/SVG/1.1/DTD/svg11.dtd">
<!-- Generated by graphviz version 9.0.0 (20230911.1827)
 -->
<!-- Title: HooksImpl::getMsgProc Pages: 1 -->
<svg width="1269pt" height="526pt"
 viewBox="0.00 0.00 1269.00 526.00" xmlns="http://www.w3.org/2000/svg" xmlns:xlink="http://www.w3.org/1999/xlink">
<g id="graph0" class="graph" transform="scale(1 1) rotate(0) translate(4 522)">
<title>HooksImpl::getMsgProc</title>
<!-- Node1 -->
<g id="Node000001" class="node">
<title>Node1</title>
<g id="a_Node000001"><a xlink:title="here the Windows messages are picked up, which do not appear in the main message loop">
<polygon fill="#999999" stroke="#666666" points="120.25,-241 0,-241 0,-221 120.25,-221 120.25,-241"/>
<text text-anchor="middle" x="60.12" y="-227.5" font-family="Helvetica,sans-Serif" font-size="10.00">HooksImpl::getMsgProc</text>
</a>
</g>
</g>
<!-- Node2 -->
<g id="Node000002" class="node">
<title>Node2</title>
<g id="a_Node000002"><a xlink:href="class_hooks_impl.html#a30acc60a07305d2df36a7798cb73aaa1" target="_top" xlink:title=" ">
<polygon fill="white" stroke="#666666" points="308,-450 162.25,-450 162.25,-430 308,-430 308,-450"/>
<text text-anchor="middle" x="235.12" y="-436.5" font-family="Helvetica,sans-Serif" font-size="10.00">HooksImpl::getLButtonUpMsg</text>
</a>
</g>
</g>
<!-- Node1&#45;&gt;Node2 -->
<g id="edge1_Node000001_Node000002" class="edge">
<title>Node1&#45;&gt;Node2</title>
<g id="a_edge1_Node000001_Node000002"><a xlink:title=" ">
<path fill="none" stroke="#63b8ff" d="M63.07,-241.14C69.76,-273.01 94.81,-372.02 156.25,-421 157.75,-422.19 159.31,-423.31 160.92,-424.36"/>
<polygon fill="#63b8ff" stroke="#63b8ff" points="158.87,-427.23 169.33,-428.93 162.21,-421.08 158.87,-427.23"/>
</a>
</g>
</g>
<!-- Node3 -->
<g id="Node000003" class="node">
<title>Node3</title>
<g id="a_Node000003"><a xlink:href="class_hooks_impl.html#a1f4bd7b8436918fc1cd5cea1c3a15bc9" target="_top" xlink:title=" ">
<polygon fill="white" stroke="#666666" points="314,-412 156.25,-412 156.25,-392 314,-392 314,-412"/>
<text text-anchor="middle" x="235.12" y="-398.5" font-family="Helvetica,sans-Serif" font-size="10.00">HooksImpl::getNcLButtonUpMsg</text>
</a>
</g>
</g>
<!-- Node1&#45;&gt;Node3 -->
<g id="edge2_Node000001_Node000003" class="edge">
<title>Node1&#45;&gt;Node3</title>
<g id="a_edge2_Node000001_Node000003"><a xlink:title=" ">
<path fill="none" stroke="#63b8ff" d="M64.5,-241.43C74.06,-269.18 104.01,-345.27 156.25,-383 158.03,-384.28 159.88,-385.48 161.79,-386.6"/>
<polygon fill="#63b8ff" stroke="#63b8ff" points="159.91,-389.57 170.43,-390.87 163.02,-383.3 159.91,-389.57"/>
</a>
</g>
</g>
<!-- Node4 -->
<g id="Node000004" class="node">
<title>Node4</title>
<g id="a_Node000004"><a xlink:href="class_task_toolbar.html#a3159b1e31199ee3691bf2bcf5ec21100" target="_top" xlink:title=" ">
<polygon fill="white" stroke="#666666" points="290,-374 180.25,-374 180.25,-354 290,-354 290,-374"/>
<text text-anchor="middle" x="235.12" y="-360.5" font-family="Helvetica,sans-Serif" font-size="10.00">TaskToolbar::initialize</text>
</a>
</g>
</g>
<!-- Node1&#45;&gt;Node4 -->
<g id="edge3_Node000001_Node000004" class="edge">
<title>Node1&#45;&gt;Node4</title>
<g id="a_edge3_Node000001_Node000004"><a xlink:title=" ">
<path fill="none" stroke="#63b8ff" d="M67.34,-241.41C80.79,-263.03 114.76,-313.05 156.25,-340 162.01,-343.74 168.39,-346.93 174.94,-349.64"/>
<polygon fill="#63b8ff" stroke="#63b8ff" points="173.31,-352.76 183.9,-352.98 175.76,-346.2 173.31,-352.76"/>
</a>
</g>
</g>
<!-- Node5 -->
<g id="Node000005" class="node">
<title>Node5</title>
<g id="a_Node000005"><a xlink:href="class_hooks_impl.html#ae0d26e76e300b5392e64fb070aafe8d5" target="_top" xlink:title="do the work, if necessary">
<polygon fill="white" stroke="#666666" points="301.62,-260 168.62,-260 168.62,-240 301.62,-240 301.62,-260"/>
<text text-anchor="middle" x="235.12" y="-246.5" font-family="Helvetica,sans-Serif" font-size="10.00">HooksImpl::onCaptionClick</text>
</a>
</g>
</g>
<!-- Node1&#45;&gt;Node5 -->
<g id="edge4_Node000001_Node000005" class="edge">
<title>Node1&#45;&gt;Node5</title>
<g id="a_edge4_Node000001_Node000005"><a xlink:title=" ">
<path fill="none" stroke="#63b8ff" d="M120.66,-237.54C132.41,-238.83 144.9,-240.2 157.13,-241.54"/>
<polygon fill="#63b8ff" stroke="#63b8ff" points="156.43,-244.99 166.75,-242.6 157.19,-238.03 156.43,-244.99"/>
</a>
</g>
</g>
<!-- Node7 -->
<g id="Node000007" class="node">
<title>Node7</title>
<g id="a_Node000007"><a xlink:href="class_hooks_impl.html#a84c9a5c6b0754e092de2ee6a8b8bba1e" target="_top" xlink:title="method to change the size of a window in steps">
<polygon fill="white" stroke="#666666" points="505.5,-310 350,-310 350,-290 505.5,-290 505.5,-310"/>
<text text-anchor="middle" x="427.75" y="-296.5" font-family="Helvetica,sans-Serif" font-size="10.00">HooksImpl::onIncrementWindow</text>
</a>
</g>
</g>
<!-- Node1&#45;&gt;Node7 -->
<g id="edge32_Node000001_Node000007" class="edge">
<title>Node1&#45;&gt;Node7</title>
<g id="a_edge32_Node000001_Node000007"><a xlink:title=" ">
<path fill="none" stroke="#63b8ff" d="M69.76,-241.46C85.02,-259.03 118.75,-293.86 156.25,-307 227.38,-331.93 315.61,-322.86 371.56,-312.62"/>
<polygon fill="#63b8ff" stroke="#63b8ff" points="371.99,-316.1 381.16,-310.78 370.68,-309.22 371.99,-316.1"/>
</a>
</g>
</g>
<!-- Node8 -->
<g id="Node000008" class="node">
<title>Node8</title>
<g id="a_Node000008"><a xlink:href="class_hooks_impl.html#ab6696c1ccc12ebdd892883485456ed3c" target="_top" xlink:title=" ">
<polygon fill="white" stroke="#666666" points="497.62,-222 357.88,-222 357.88,-202 497.62,-202 497.62,-222"/>
<text text-anchor="middle" x="427.75" y="-208.5" font-family="Helvetica,sans-Serif" font-size="10.00">HooksImpl::onShowPosWnd</text>
</a>
</g>
</g>
<!-- Node1&#45;&gt;Node8 -->
<g id="edge40_Node000001_Node000008" class="edge">
<title>Node1&#45;&gt;Node8</title>
<g id="a_edge40_Node000001_Node000008"><a xlink:title=" ">
<path fill="none" stroke="#63b8ff" d="M120.68,-227.91C182.12,-224.71 278.31,-219.71 346.44,-216.17"/>
<polygon fill="#63b8ff" stroke="#63b8ff" points="346.23,-219.69 356.03,-215.67 345.87,-212.7 346.23,-219.69"/>
</a>
</g>
</g>
<!-- Node24 -->
<g id="Node000024" class="node">
<title>Node24</title>
<g id="a_Node000024"><a xlink:href="class_hooks_impl.html#a924c5db32f07636c8acbc9421c216112" target="_top" xlink:title=" ">
<polygon fill="white" stroke="#666666" points="498,-184 357.5,-184 357.5,-164 498,-164 498,-184"/>
<text text-anchor="middle" x="427.75" y="-170.5" font-family="Helvetica,sans-Serif" font-size="10.00">HooksImpl::onClosePosWnd</text>
</a>
</g>
</g>
<!-- Node1&#45;&gt;Node24 -->
<g id="edge28_Node000001_Node000024" class="edge">
<title>Node1&#45;&gt;Node24</title>
<g id="a_edge28_Node000001_Node000024"><a xlink:title=" ">
<path fill="none" stroke="#63b8ff" d="M118.17,-220.52C130.7,-218.3 143.91,-216.01 156.25,-214 219.89,-203.61 292.16,-192.98 345.97,-185.3"/>
<polygon fill="#63b8ff" stroke="#63b8ff" points="346.26,-188.79 355.67,-183.92 345.27,-181.86 346.26,-188.79"/>
</a>
</g>
</g>
<!-- Node25 -->
<g id="Node000025" class="node">
<title>Node25</title>
<g id="a_Node000025"><a xlink:href="class_hooks_impl.html#a7628ad89b3625fcd9e8538d94d7b2cde" target="_top" xlink:title="processes the WM_LBUTTONUP event">
<polygon fill="white" stroke="#666666" points="297.12,-298 173.12,-298 173.12,-278 297.12,-278 297.12,-298"/>
<text text-anchor="middle" x="235.12" y="-284.5" font-family="Helvetica,sans-Serif" font-size="10.00">HooksImpl::onLButtonUp</text>
</a>
</g>
</g>
<!-- Node1&#45;&gt;Node25 -->
<g id="edge33_Node000001_Node000025" class="edge">
<title>Node1&#45;&gt;Node25</title>
<g id="a_edge33_Node000001_Node000025"><a xlink:title=" ">
<path fill="none" stroke="#63b8ff" d="M84.63,-241.47C103.68,-249.69 131.35,-261.03 156.25,-269 162.53,-271.01 169.16,-272.93 175.79,-274.72"/>
<polygon fill="#63b8ff" stroke="#63b8ff" points="174.86,-278.09 185.42,-277.22 176.62,-271.32 174.86,-278.09"/>
</a>
</g>
</g>
<!-- Node26 -->
<g id="Node000026" class="node">
<title>Node26</title>
<g id="a_Node000026"><a xlink:href="class_hooks_impl.html#afe7a8e2c13ab2abe83b4f3d0c462e761" target="_top" xlink:title="this procedure handles the double click in non&#45;client area">
<polygon fill="white" stroke="#666666" points="304.25,-146 166,-146 166,-114 304.25,-114 304.25,-146"/>
<text text-anchor="start" x="174" y="-132.5" font-family="Helvetica,sans-Serif" font-size="10.00">HooksImpl::onNcLButtonDbl</text>
<text text-anchor="middle" x="235.12" y="-120.5" font-family="Helvetica,sans-Serif" font-size="10.00">Click</text>
</a>
</g>
</g>
<!-- Node1&#45;&gt;Node26 -->
<g id="edge36_Node000001_Node000026" class="edge">
<title>Node1&#45;&gt;Node26</title>
<g id="a_edge36_Node000001_Node000026"><a xlink:title=" ">
<path fill="none" stroke="#63b8ff" d="M72.71,-220.68C89.94,-205.75 123.78,-177.93 156.25,-160 162.24,-156.69 168.68,-153.58 175.18,-150.71"/>
<polygon fill="#63b8ff" stroke="#63b8ff" points="176.17,-154.1 184.02,-146.99 173.45,-147.64 176.17,-154.1"/>
</a>
</g>
</g>
<!-- Node28 -->
<g id="Node000028" class="node">
<title>Node28</title>
<g id="a_Node000028"><a xlink:href="class_hooks_impl.html#a9adf50040968aa66908f643ad1edda53" target="_top" xlink:title="processes the WM_NCLBUTTONDOWN event">
<polygon fill="white" stroke="#666666" points="309.12,-96 161.12,-96 161.12,-76 309.12,-76 309.12,-96"/>
<text text-anchor="middle" x="235.12" y="-82.5" font-family="Helvetica,sans-Serif" font-size="10.00">HooksImpl::onNcLButtonDown</text>
</a>
</g>
</g>
<!-- Node1&#45;&gt;Node28 -->
<g id="edge38_Node000001_Node000028" class="edge">
<title>Node1&#45;&gt;Node28</title>
<g id="a_edge38_Node000001_Node000028"><a xlink:title=" ">
<path fill="none" stroke="#63b8ff" d="M65.86,-220.61C77.51,-196.28 109.99,-135.42 156.25,-105 158.38,-103.6 160.59,-102.31 162.88,-101.11"/>
<polygon fill="#63b8ff" stroke="#63b8ff" points="164.22,-104.34 171.91,-97.05 161.35,-97.96 164.22,-104.34"/>
</a>
</g>
</g>
<!-- Node29 -->
<g id="Node000029" class="node">
<title>Node29</title>
<g id="a_Node000029"><a xlink:href="class_hooks_impl.html#a88ea927a4d021535e4a5768ef60a50d7" target="_top" xlink:title="processes the WM_NCLBUTTONUP event">
<polygon fill="white" stroke="#666666" points="303.88,-58 166.38,-58 166.38,-38 303.88,-38 303.88,-58"/>
<text text-anchor="middle" x="235.12" y="-44.5" font-family="Helvetica,sans-Serif" font-size="10.00">HooksImpl::onNCLButtonUp</text>
</a>
</g>
</g>
<!-- Node1&#45;&gt;Node29 -->
<g id="edge39_Node000001_Node000029" class="edge">
<title>Node1&#45;&gt;Node29</title>
<g id="a_edge39_Node000001_Node000029"><a xlink:title=" ">
<path fill="none" stroke="#63b8ff" d="M64,-220.61C72.62,-191.44 101.16,-108.21 156.25,-67 157.82,-65.83 159.45,-64.72 161.14,-63.69"/>
<polygon fill="#63b8ff" stroke="#63b8ff" points="162.64,-66.85 169.93,-59.16 159.43,-60.63 162.64,-66.85"/>
</a>
</g>
</g>
<!-- Node30 -->
<g id="Node000030" class="node">
<title>Node30</title>
<g id="a_Node000030"><a xlink:href="class_task_toolbar.html#a2304586dd147f754c7040f781eda1270" target="_top" xlink:title=" ">
<polygon fill="white" stroke="#666666" points="295.25,-20 175,-20 175,0 295.25,0 295.25,-20"/>
<text text-anchor="middle" x="235.12" y="-6.5" font-family="Helvetica,sans-Serif" font-size="10.00">TaskToolbar::uninitialize</text>
</a>
</g>
</g>
<!-- Node1&#45;&gt;Node30 -->
<g id="edge41_Node000001_Node000030" class="edge">
<title>Node1&#45;&gt;Node30</title>
<g id="a_edge41_Node000001_Node000030"><a xlink:title=" ">
<path fill="none" stroke="#63b8ff" d="M62.78,-220.71C68.7,-187.38 92.01,-81.48 156.25,-29 158.83,-26.9 161.6,-25.02 164.51,-23.34"/>
<polygon fill="#63b8ff" stroke="#63b8ff" points="165.98,-26.52 173.5,-19.05 162.97,-20.2 165.98,-26.52"/>
</a>
</g>
</g>
<!-- Node6 -->
<g id="Node000006" class="node">
<title>Node6</title>
<g id="a_Node000006"><a xlink:href="class_hooks_impl.html#a8ef5405a747979c1f5197848e4a8e684" target="_top" xlink:title=" ">
<polygon fill="white" stroke="#666666" points="493.12,-272 362.38,-272 362.38,-240 493.12,-240 493.12,-272"/>
<text text-anchor="start" x="370.38" y="-258.5" font-family="Helvetica,sans-Serif" font-size="10.00">HooksImpl::hasCaptionDbl</text>
<text text-anchor="middle" x="427.75" y="-246.5" font-family="Helvetica,sans-Serif" font-size="10.00">Clicked</text>
</a>
</g>
</g>
<!-- Node5&#45;&gt;Node6 -->
<g id="edge5_Node000005_Node000006" class="edge">
<title>Node5&#45;&gt;Node6</title>
<g id="a_edge5_Node000005_Node000006"><a xlink:title=" ">
<path fill="none" stroke="#63b8ff" d="M301.99,-252.07C317.82,-252.57 334.85,-253.11 351.08,-253.62"/>
<polygon fill="#63b8ff" stroke="#63b8ff" points="350.55,-257.1 360.65,-253.92 350.77,-250.11 350.55,-257.1"/>
</a>
</g>
</g>
<!-- Node5&#45;&gt;Node7 -->
<g id="edge6_Node000005_Node000007" class="edge">
<title>Node5&#45;&gt;Node7</title>
<g id="a_edge6_Node000005_Node000007"><a xlink:title=" ">
<path fill="none" stroke="#63b8ff" d="M281.59,-260.42C292.27,-263.06 303.57,-265.99 314,-269 330.21,-273.67 333.8,-276.3 350,-281 356.75,-282.96 363.87,-284.89 370.94,-286.73"/>
<polygon fill="#63b8ff" stroke="#63b8ff" points="369.93,-290.09 380.48,-289.17 371.66,-283.3 369.93,-290.09"/>
</a>
</g>
</g>
<!-- Node5&#45;&gt;Node8 -->
<g id="edge7_Node000005_Node000008" class="edge">
<title>Node5&#45;&gt;Node8</title>
<g id="a_edge7_Node000005_Node000008"><a xlink:title=" ">
<path fill="none" stroke="#63b8ff" d="M288.72,-239.52C311.74,-234.93 338.96,-229.5 363.11,-224.69"/>
<polygon fill="#63b8ff" stroke="#63b8ff" points="363.72,-228.13 372.84,-222.75 362.35,-221.27 363.72,-228.13"/>
</a>
</g>
</g>
<!-- Node9 -->
<g id="Node000009" class="node">
<title>Node9</title>
<g id="a_Node000009"><a xlink:href="class_win_pos_wnd.html#abec2e67db5543a717d59b02ab8dbb930" target="_top" xlink:title="create the required windows for monitor preview and all configured positions">
<polygon fill="white" stroke="#666666" points="663.62,-326 559.88,-326 559.88,-306 663.62,-306 663.62,-326"/>
<text text-anchor="middle" x="611.75" y="-312.5" font-family="Helvetica,sans-Serif" font-size="10.00">WinPosWnd::create</text>
</a>
</g>
</g>
<!-- Node8&#45;&gt;Node9 -->
<g id="edge8_Node000008_Node000009" class="edge">
<title>Node8&#45;&gt;Node9</title>
<g id="a_edge8_Node000008_Node000009"><a xlink:title=" ">
<path fill="none" stroke="#63b8ff" d="M483.48,-222.41C491.07,-224.75 498.62,-227.58 505.5,-231 539.98,-248.13 573.45,-278.16 593.07,-297.56"/>
<polygon fill="#63b8ff" stroke="#63b8ff" points="590.48,-299.92 600,-304.56 595.45,-294.99 590.48,-299.92"/>
</a>
</g>
</g>
<!-- Node23 -->
<g id="Node000023" class="node">
<title>Node23</title>
<g id="a_Node000023"><a xlink:href="class_win_pos_wnd.html#acb456c59641ec336d5c7646764fe7e6a" target="_top" xlink:title=" ">
<polygon fill="white" stroke="#666666" points="682,-222 541.5,-222 541.5,-202 682,-202 682,-222"/>
<text text-anchor="middle" x="611.75" y="-208.5" font-family="Helvetica,sans-Serif" font-size="10.00">WinPosWnd::getWndHandle</text>
</a>
</g>
</g>
<!-- Node8&#45;&gt;Node23 -->
<g id="edge27_Node000008_Node000023" class="edge">
<title>Node8&#45;&gt;Node23</title>
<g id="a_edge27_Node000008_Node000023"><a xlink:title=" ">
<path fill="none" stroke="#63b8ff" d="M498.08,-212C508.4,-212 519.13,-212 529.67,-212"/>
<polygon fill="#63b8ff" stroke="#63b8ff" points="529.5,-215.5 539.5,-212 529.5,-208.5 529.5,-215.5"/>
</a>
</g>
</g>
<!-- Node10 -->
<g id="Node000010" class="node">
<title>Node10</title>
<g id="a_Node000010"><a xlink:href="class_win_pos_wnd.html#a4b607f031e5058874a31918e4cc1ba79" target="_top" xlink:title="if the window looks beyond the edge of the monitor, it is moved so that it is displayed as a whole on...">
<polygon fill="white" stroke="#666666" points="878,-354 722.5,-354 722.5,-334 878,-334 878,-354"/>
<text text-anchor="middle" x="800.25" y="-340.5" font-family="Helvetica,sans-Serif" font-size="10.00">WinPosWnd::correctEdgecases</text>
</a>
</g>
</g>
<!-- Node9&#45;&gt;Node10 -->
<g id="edge9_Node000009_Node000010" class="edge">
<title>Node9&#45;&gt;Node10</title>
<g id="a_edge9_Node000009_Node000010"><a xlink:title=" ">
<path fill="none" stroke="#63b8ff" d="M663.71,-323.65C680.58,-326.18 699.79,-329.07 718.34,-331.85"/>
<polygon fill="#63b8ff" stroke="#63b8ff" points="717.57,-335.28 727.98,-333.3 718.61,-328.35 717.57,-335.28"/>
</a>
</g>
</g>
<!-- Node11 -->
<g id="Node000011" class="node">
<title>Node11</title>
<g id="a_Node000011"><a xlink:href="class_win_pos_wnd.html#a8abc6edd027488d4f7242b9f12693af8" target="_top" xlink:title="destroys every windows">
<polygon fill="white" stroke="#666666" points="854.75,-184 745.75,-184 745.75,-164 854.75,-164 854.75,-184"/>
<text text-anchor="middle" x="800.25" y="-170.5" font-family="Helvetica,sans-Serif" font-size="10.00">WinPosWnd::destroy</text>
</a>
</g>
</g>
<!-- Node9&#45;&gt;Node11 -->
<g id="edge10_Node000009_Node000011" class="edge">
<title>Node9&#45;&gt;Node11</title>
<g id="a_edge10_Node000009_Node000011"><a xlink:title=" ">
<path fill="none" stroke="#63b8ff" d="M620.82,-305.86C643.24,-277.78 705.45,-200.63 718,-193 723.18,-189.85 728.84,-187.22 734.69,-185.03"/>
<polygon fill="#63b8ff" stroke="#63b8ff" points="735.49,-188.45 743.91,-182 733.31,-181.79 735.49,-188.45"/>
</a>
</g>
</g>
<!-- Node12 -->
<g id="Node000012" class="node">
<title>Node12</title>
<g id="a_Node000012"><a xlink:href="class_win_pos_wnd_cfg.html#afe04626c840dd23b6b063f58bcb06dce" target="_top" xlink:title=" ">
<polygon fill="white" stroke="#666666" points="1261,-436 1097.25,-436 1097.25,-416 1261,-416 1261,-436"/>
<text text-anchor="middle" x="1179.12" y="-422.5" font-family="Helvetica,sans-Serif" font-size="10.00">WinPosWndCfg::getCloseTimeout</text>
</a>
</g>
</g>
<!-- Node9&#45;&gt;Node12 -->
<g id="edge11_Node000009_Node000012" class="edge">
<title>Node9&#45;&gt;Node12</title>
<g id="a_edge11_Node000009_Node000012"><a xlink:title=" ">
<path fill="none" stroke="#63b8ff" d="M616.93,-326.36C628.36,-353.09 662.99,-424.13 718,-451 859.95,-520.32 1056.67,-467.83 1139.22,-440.2"/>
<polygon fill="#63b8ff" stroke="#63b8ff" points="1140.33,-443.52 1148.66,-436.97 1138.06,-436.89 1140.33,-443.52"/>
</a>
</g>
</g>
<!-- Node13 -->
<g id="Node000013" class="node">
<title>Node13</title>
<g id="a_Node000013"><a xlink:href="class_win_pos_wnd_cfg.html#a10a73295ae59c85d651ad0088b235125" target="_top" xlink:title=" ">
<polygon fill="white" stroke="#666666" points="871.25,-518 729.25,-518 729.25,-498 871.25,-498 871.25,-518"/>
<text text-anchor="middle" x="800.25" y="-504.5" font-family="Helvetica,sans-Serif" font-size="10.00">WinPosWndCfg::getMonitors</text>
</a>
</g>
</g>
<!-- Node9&#45;&gt;Node13 -->
<g id="edge12_Node000009_Node000013" class="edge">
<title>Node9&#45;&gt;Node13</title>
<g id="a_edge12_Node000009_Node000013"><a xlink:title=" ">
<path fill="none" stroke="#63b8ff" d="M616.15,-326.09C626.48,-355.25 660.43,-440.31 718,-484 722.64,-487.52 727.79,-490.53 733.18,-493.1"/>
<polygon fill="#63b8ff" stroke="#63b8ff" points="731.8,-496.31 742.38,-496.93 734.49,-489.85 731.8,-496.31"/>
</a>
</g>
</g>
<!-- Node14 -->
<g id="Node000014" class="node">
<title>Node14</title>
<g id="a_Node000014"><a xlink:href="class_win_pos_wnd_cfg.html#a1fd1c1c55716a4697a044ae0671cf2aa" target="_top" xlink:title=" ">
<polygon fill="white" stroke="#666666" points="1243.75,-298 1114.5,-298 1114.5,-278 1243.75,-278 1243.75,-298"/>
<text text-anchor="middle" x="1179.12" y="-284.5" font-family="Helvetica,sans-Serif" font-size="10.00">WinPosWndCfg::getScale</text>
</a>
</g>
</g>
<!-- Node9&#45;&gt;Node14 -->
<g id="edge13_Node000009_Node000014" class="edge">
<title>Node9&#45;&gt;Node14</title>
<g id="a_edge13_Node000009_Node000014"><a xlink:title=" ">
<path fill="none" stroke="#63b8ff" d="M629.85,-305.64C650.07,-294.06 685.12,-276.01 718,-269 857.33,-239.3 1025.63,-260.15 1115.06,-275.57"/>
<polygon fill="#63b8ff" stroke="#63b8ff" points="1114.41,-279.01 1124.86,-277.3 1115.62,-272.12 1114.41,-279.01"/>
</a>
</g>
</g>
<!-- Node15 -->
<g id="Node000015" class="node">
<title>Node15</title>
<g id="a_Node000015"><a xlink:href="class_win_pos_wnd.html#a159d04333920b8b0ab3b8ecc6f6607dd" target="_top" xlink:title=" ">
<polygon fill="white" stroke="#666666" points="882.5,-442 718,-442 718,-422 882.5,-422 882.5,-442"/>
<text text-anchor="middle" x="800.25" y="-428.5" font-family="Helvetica,sans-Serif" font-size="10.00">WinPosWnd::getTotalPreviewRect</text>
</a>
</g>
</g>
<!-- Node9&#45;&gt;Node15 -->
<g id="edge14_Node000009_Node000015" class="edge">
<title>Node9&#45;&gt;Node15</title>
<g id="a_edge14_Node000009_Node000015"><a xlink:title=" ">
<path fill="none" stroke="#63b8ff" d="M620.78,-326.34C636.92,-346.36 675.4,-390.43 718,-413 721.26,-414.73 724.68,-416.3 728.2,-417.73"/>
<polygon fill="#63b8ff" stroke="#63b8ff" points="726.93,-421 737.52,-421.1 729.31,-414.41 726.93,-421"/>
</a>
</g>
</g>
<!-- Node16 -->
<g id="Node000016" class="node">
<title>Node16</title>
<g id="a_Node000016"><a xlink:href="class_win_pos_wnd.html#a86ca33ea895961e25e6c1601e420f40e" target="_top" xlink:title="initialize the WNDCLASS structure">
<polygon fill="white" stroke="#666666" points="867.5,-222 733,-222 733,-202 867.5,-202 867.5,-222"/>
<text text-anchor="middle" x="800.25" y="-208.5" font-family="Helvetica,sans-Serif" font-size="10.00">WinPosWnd::initWndClass</text>
</a>
</g>
</g>
<!-- Node9&#45;&gt;Node16 -->
<g id="edge15_Node000009_Node000016" class="edge">
<title>Node9&#45;&gt;Node16</title>
<g id="a_edge15_Node000009_Node000016"><a xlink:title=" ">
<path fill="none" stroke="#63b8ff" d="M623.51,-305.65C641.61,-288.77 679.91,-255.28 718,-236 725.75,-232.08 734.25,-228.69 742.74,-225.79"/>
<polygon fill="#63b8ff" stroke="#63b8ff" points="743.52,-229.22 751.99,-222.85 741.4,-222.55 743.52,-229.22"/>
</a>
</g>
</g>
<!-- Node19 -->
<g id="Node000019" class="node">
<title>Node19</title>
<g id="a_Node000019"><a xlink:href="struct_win_pos_wnd_1_1_monitor_preview.html#a01fe1b4351422928e43305d1758ae6fb" target="_top" xlink:title="move the rectangle to the cursor position">
<polygon fill="white" stroke="#666666" points="871.25,-404 729.25,-404 729.25,-372 871.25,-372 871.25,-404"/>
<text text-anchor="start" x="737.25" y="-390.5" font-family="Helvetica,sans-Serif" font-size="10.00">WinPosWnd::MonitorPreview</text>
<text text-anchor="middle" x="800.25" y="-378.5" font-family="Helvetica,sans-Serif" font-size="10.00">::offsetToPt</text>
</a>
</g>
</g>
<!-- Node9&#45;&gt;Node19 -->
<g id="edge18_Node000009_Node000019" class="edge">
<title>Node9&#45;&gt;Node19</title>
<g id="a_edge18_Node000009_Node000019"><a xlink:title=" ">
<path fill="none" stroke="#63b8ff" d="M633.8,-326.31C654.83,-336.39 688.21,-351.81 718,-363 722.43,-364.66 727.02,-366.3 731.67,-367.9"/>
<polygon fill="#63b8ff" stroke="#63b8ff" points="730.54,-371.21 741.13,-371.05 732.75,-364.57 730.54,-371.21"/>
</a>
</g>
</g>
<!-- Node20 -->
<g id="Node000020" class="node">
<title>Node20</title>
<g id="a_Node000020"><a xlink:href="class_win_pos_wnd_cfg.html#a038475d40481960d701d09f6e39467c8" target="_top" xlink:title=" ">
<polygon fill="white" stroke="#666666" points="868.62,-298 731.88,-298 731.88,-278 868.62,-278 868.62,-298"/>
<text text-anchor="middle" x="800.25" y="-284.5" font-family="Helvetica,sans-Serif" font-size="10.00">WinPosWndCfg::readConfig</text>
</a>
</g>
</g>
<!-- Node9&#45;&gt;Node20 -->
<g id="edge19_Node000009_Node000020" class="edge">
<title>Node9&#45;&gt;Node20</title>
<g id="a_edge19_Node000009_Node000020"><a xlink:title=" ">
<path fill="none" stroke="#63b8ff" d="M663.71,-308.35C681.2,-305.72 701.21,-302.72 720.39,-299.84"/>
<polygon fill="#63b8ff" stroke="#63b8ff" points="720.69,-303.33 730.06,-298.39 719.65,-296.41 720.69,-303.33"/>
</a>
</g>
</g>
<!-- Node17 -->
<g id="Node000017" class="node">
<title>Node17</title>
<g id="a_Node000017"><a xlink:href="class_win_pos_wnd.html#a104a18975fac2ac85a75eabda629ddb2" target="_top" xlink:title="static WNDPROC. Forwards to the WinPosWnd instances.">
<polygon fill="white" stroke="#666666" points="1061.25,-203 918.5,-203 918.5,-183 1061.25,-183 1061.25,-203"/>
<text text-anchor="middle" x="989.88" y="-189.5" font-family="Helvetica,sans-Serif" font-size="10.00">WinPosWnd::WndProcStatic</text>
</a>
</g>
</g>
<!-- Node16&#45;&gt;Node17 -->
<g id="edge16_Node000016_Node000017" class="edge">
<title>Node16&#45;&gt;Node17</title>
<g id="a_edge16_Node000016_Node000017"><a xlink:title=" ">
<path fill="none" stroke="#63b8ff" d="M867.93,-205.25C880.56,-203.97 893.9,-202.62 906.93,-201.3"/>
<polygon fill="#63b8ff" stroke="#63b8ff" points="907.18,-204.79 916.78,-200.3 906.47,-197.83 907.18,-204.79"/>
</a>
</g>
</g>
<!-- Node18 -->
<g id="Node000018" class="node">
<title>Node18</title>
<g id="a_Node000018"><a xlink:href="class_win_pos_wnd.html#a5ad8686caf3b8310fff6d4bec255f898" target="_top" xlink:title="get the instance of WinPosWnd to a window handle">
<polygon fill="white" stroke="#666666" points="1251.62,-165 1106.62,-165 1106.62,-145 1251.62,-145 1251.62,-165"/>
<text text-anchor="middle" x="1179.12" y="-151.5" font-family="Helvetica,sans-Serif" font-size="10.00">WinPosWnd::getWinPosWnd</text>
</a>
</g>
</g>
<!-- Node17&#45;&gt;Node18 -->
<g id="edge17_Node000017_Node000018" class="edge">
<title>Node17&#45;&gt;Node18</title>
<g id="a_edge17_Node000017_Node000018"><a xlink:title=" ">
<path fill="none" stroke="#63b8ff" d="M1042.54,-182.52C1065.15,-177.93 1091.89,-172.5 1115.61,-167.69"/>
<polygon fill="#63b8ff" stroke="#63b8ff" points="1116.04,-171.17 1125.15,-165.75 1114.65,-164.31 1116.04,-171.17"/>
</a>
</g>
</g>
<!-- Node20&#45;&gt;Node14 -->
<g id="edge21_Node000020_Node000014" class="edge">
<title>Node20&#45;&gt;Node14</title>
<g id="a_edge21_Node000020_Node000014"><a xlink:title=" ">
<path fill="none" stroke="#63b8ff" d="M869.06,-288C935.01,-288 1034.96,-288 1103.22,-288"/>
<polygon fill="#63b8ff" stroke="#63b8ff" points="1102.8,-291.5 1112.8,-288 1102.8,-284.5 1102.8,-291.5"/>
</a>
</g>
</g>
<!-- Node20&#45;&gt;Node20 -->
<g id="edge22_Node000020_Node000020" class="edge">
<title>Node20&#45;&gt;Node20</title>
<g id="a_edge22_Node000020_Node000020"><a xlink:title=" ">
<path fill="none" stroke="#63b8ff" d="M770.3,-298.34C757.5,-306.98 767.48,-316 800.25,-316 818.68,-316 829.9,-313.14 833.92,-309.11"/>
<polygon fill="#63b8ff" stroke="#63b8ff" points="837.27,-308.08 830.69,-299.77 830.65,-310.36 837.27,-308.08"/>
</a>
</g>
</g>
<!-- Node21 -->
<g id="Node000021" class="node">
<title>Node21</title>
<g id="a_Node000021"><a xlink:href="class_win_pos_wnd_cfg.html#a93944e9bbc627a502d59f845b3b1e827" target="_top" xlink:title=" ">
<polygon fill="white" stroke="#666666" points="1255,-355 1103.25,-355 1103.25,-335 1255,-335 1255,-355"/>
<text text-anchor="middle" x="1179.12" y="-341.5" font-family="Helvetica,sans-Serif" font-size="10.00">WinPosWndCfg::getConfigPath</text>
</a>
</g>
</g>
<!-- Node20&#45;&gt;Node21 -->
<g id="edge20_Node000020_Node000021" class="edge">
<title>Node20&#45;&gt;Node21</title>
<g id="a_edge20_Node000020_Node000021"><a xlink:title=" ">
<path fill="none" stroke="#63b8ff" d="M825.31,-298.35C841.6,-305.51 863.54,-315.44 882.5,-325 898.84,-333.24 900.78,-340.41 918.5,-345 974.89,-359.61 1040.5,-359.47 1091.66,-355.75"/>
<polygon fill="#63b8ff" stroke="#63b8ff" points="1091.81,-359.25 1101.5,-354.97 1091.26,-352.27 1091.81,-359.25"/>
</a>
</g>
</g>
<!-- Node22 -->
<g id="Node000022" class="node">
<title>Node22</title>
<g id="a_Node000022"><a xlink:href="class_win_pos_wnd_cfg.html#a2e024dd316be8cf377996f7be3017acd" target="_top" xlink:title=" ">
<polygon fill="white" stroke="#666666" points="1059,-336 920.75,-336 920.75,-316 1059,-316 1059,-336"/>
<text text-anchor="middle" x="989.88" y="-322.5" font-family="Helvetica,sans-Serif" font-size="10.00">WinPosWndCfg::writeConfig</text>
</a>
</g>
</g>
<!-- Node20&#45;&gt;Node22 -->
<g id="edge23_Node000020_Node000022" class="edge">
<title>Node20&#45;&gt;Node22</title>
<g id="a_edge23_Node000020_Node000022"><a xlink:title=" ">
<path fill="none" stroke="#63b8ff" d="M853.02,-298.48C875.68,-303.07 902.46,-308.5 926.24,-313.31"/>
<polygon fill="#63b8ff" stroke="#63b8ff" points="925.3,-316.69 935.79,-315.25 926.69,-309.83 925.3,-316.69"/>
</a>
</g>
</g>
<!-- Node22&#45;&gt;Node12 -->
<g id="edge24_Node000022_Node000012" class="edge">
<title>Node22&#45;&gt;Node12</title>
<g id="a_edge24_Node000022_Node000012"><a xlink:title=" ">
<path fill="none" stroke="#63b8ff" d="M1010.21,-336.33C1043.01,-353.84 1109.75,-389.49 1148.49,-410.17"/>
<polygon fill="#63b8ff" stroke="#63b8ff" points="1146.81,-413.24 1157.28,-414.87 1150.11,-407.07 1146.81,-413.24"/>
</a>
</g>
</g>
<!-- Node22&#45;&gt;Node14 -->
<g id="edge26_Node000022_Node000014" class="edge">
<title>Node22&#45;&gt;Node14</title>
<g id="a_edge26_Node000022_Node000014"><a xlink:title=" ">
<path fill="none" stroke="#63b8ff" d="M1042.54,-315.52C1065.15,-310.93 1091.89,-305.5 1115.61,-300.69"/>
<polygon fill="#63b8ff" stroke="#63b8ff" points="1116.04,-304.17 1125.15,-298.75 1114.65,-297.31 1116.04,-304.17"/>
</a>
</g>
</g>
<!-- Node22&#45;&gt;Node21 -->
<g id="edge25_Node000022_Node000021" class="edge">
<title>Node22&#45;&gt;Node21</title>
<g id="a_edge25_Node000022_Node000021"><a xlink:title=" ">
<path fill="none" stroke="#63b8ff" d="M1059.27,-332.94C1069.82,-334.01 1080.82,-335.13 1091.7,-336.23"/>
<polygon fill="#63b8ff" stroke="#63b8ff" points="1091.15,-339.69 1101.46,-337.22 1091.86,-332.73 1091.15,-339.69"/>
</a>
</g>
</g>
<!-- Node24&#45;&gt;Node11 -->
<g id="edge29_Node000024_Node000011" class="edge">
<title>Node24&#45;&gt;Node11</title>
<g id="a_edge29_Node000024_Node000011"><a xlink:title=" ">
<path fill="none" stroke="#63b8ff" d="M498.44,-174C566.07,-174 667.91,-174 733.99,-174"/>
<polygon fill="#63b8ff" stroke="#63b8ff" points="733.98,-177.5 743.98,-174 733.98,-170.5 733.98,-177.5"/>
</a>
</g>
</g>
<!-- Node24&#45;&gt;Node18 -->
<g id="edge30_Node000024_Node000018" class="edge">
<title>Node24&#45;&gt;Node18</title>
<g id="a_edge30_Node000024_Node000018"><a xlink:title=" ">
<path fill="none" stroke="#63b8ff" d="M498.24,-168.15C556.79,-163.53 642.8,-157.47 718,-155 849.69,-150.68 1002.7,-151.93 1094.88,-153.36"/>
<polygon fill="#63b8ff" stroke="#63b8ff" points="1094.8,-156.86 1104.86,-153.52 1094.92,-149.86 1094.8,-156.86"/>
</a>
</g>
</g>
<!-- Node24&#45;&gt;Node23 -->
<g id="edge31_Node000024_Node000023" class="edge">
<title>Node24&#45;&gt;Node23</title>
<g id="a_edge31_Node000024_Node000023"><a xlink:title=" ">
<path fill="none" stroke="#63b8ff" d="M478.96,-184.48C500.85,-189.05 526.69,-194.45 549.68,-199.25"/>
<polygon fill="#63b8ff" stroke="#63b8ff" points="548.71,-202.62 559.22,-201.24 550.14,-195.77 548.71,-202.62"/>
</a>
</g>
</g>
<!-- Node25&#45;&gt;Node6 -->
<g id="edge34_Node000025_Node000006" class="edge">
<title>Node25&#45;&gt;Node6</title>
<g id="a_edge34_Node000025_Node000006"><a xlink:title=" ">
<path fill="none" stroke="#63b8ff" d="M297.49,-277.7C314.44,-274.85 333.05,-271.73 350.73,-268.76"/>
<polygon fill="#63b8ff" stroke="#63b8ff" points="351.11,-272.25 360.39,-267.14 349.95,-265.34 351.11,-272.25"/>
</a>
</g>
</g>
<!-- Node25&#45;&gt;Node7 -->
<g id="edge35_Node000025_Node000007" class="edge">
<title>Node25&#45;&gt;Node7</title>
<g id="a_edge35_Node000025_Node000007"><a xlink:title=" ">
<path fill="none" stroke="#63b8ff" d="M297.49,-291.86C310.63,-292.69 324.76,-293.58 338.68,-294.46"/>
<polygon fill="#63b8ff" stroke="#63b8ff" points="338.07,-297.92 348.27,-295.06 338.51,-290.94 338.07,-297.92"/>
</a>
</g>
</g>
<!-- Node27 -->
<g id="Node000027" class="node">
<title>Node27</title>
<g id="a_Node000027"><a xlink:href="class_hooks_impl.html#a7a48621aa5b57024ae963b861fd508cb" target="_top" xlink:title=" ">
<polygon fill="white" stroke="#666666" points="489,-140 366.5,-140 366.5,-120 489,-120 489,-140"/>
<text text-anchor="middle" x="427.75" y="-126.5" font-family="Helvetica,sans-Serif" font-size="10.00">HooksImpl::hasLastRect</text>
</a>
</g>
</g>
<!-- Node26&#45;&gt;Node27 -->
<g id="edge37_Node000026_Node000027" class="edge">
<title>Node26&#45;&gt;Node27</title>
<g id="a_edge37_Node000026_Node000027"><a xlink:title=" ">
<path fill="none" stroke="#63b8ff" d="M304.68,-130C320.98,-130 338.42,-130 354.87,-130"/>
<polygon fill="#63b8ff" stroke="#63b8ff" points="354.56,-133.5 364.56,-130 354.56,-126.5 354.56,-133.5"/>
</a>
</g>
</g>
</g>
</svg>
