<?xml version="1.0" encoding="UTF-8" standalone="no"?>
<!DOCTYPE svg PUBLIC "-//W3C//DTD SVG 1.1//EN"
 "http://www.w3.org/Graphics/SVG/1.1/DTD/svg11.dtd">
<!-- Generated by graphviz version 8.1.0 (20230707.0739)
 -->
<!-- Title: HooksMgr::attach Pages: 1 -->
<svg width="1664pt" height="553pt"
 viewBox="0.00 0.00 1664.25 553.00" xmlns="http://www.w3.org/2000/svg" xmlns:xlink="http://www.w3.org/1999/xlink">
<g id="graph0" class="graph" transform="scale(1 1) rotate(0) translate(4 549)">
<title>HooksMgr::attach</title>
<!-- Node1 -->
<g id="Node000001" class="node">
<title>Node1</title>
<g id="a_Node000001"><a xlink:title=" ">
<polygon fill="#999999" stroke="#666666" points="93.25,-469 0,-469 0,-449 93.25,-449 93.25,-469"/>
<text text-anchor="middle" x="46.62" y="-455.5" font-family="Helvetica,sans-Serif" font-size="10.00">HooksMgr::attach</text>
</a>
</g>
</g>
<!-- Node2 -->
<g id="Node000002" class="node">
<title>Node2</title>
<g id="a_Node000002"><a xlink:href="class_hooks_mgr.html#ae14d3d66665b288a8a22f6beea14774f" target="_top" xlink:title=" ">
<polygon fill="white" stroke="#666666" points="225.12,-488 140.88,-488 140.88,-468 225.12,-468 225.12,-488"/>
<text text-anchor="middle" x="183" y="-474.5" font-family="Helvetica,sans-Serif" font-size="10.00">HooksMgr::load</text>
</a>
</g>
</g>
<!-- Node1&#45;&gt;Node2 -->
<g id="edge1_Node000001_Node000002" class="edge">
<title>Node1&#45;&gt;Node2</title>
<g id="a_edge1_Node000001_Node000002"><a xlink:title=" ">
<path fill="none" stroke="#63b8ff" d="M93.49,-465.49C105.14,-467.13 117.73,-468.91 129.67,-470.6"/>
<polygon fill="#63b8ff" stroke="#63b8ff" points="129.01,-474.18 139.4,-472.12 129.99,-467.25 129.01,-474.18"/>
</a>
</g>
</g>
<!-- Node3 -->
<g id="Node000003" class="node">
<title>Node3</title>
<g id="a_Node000003"><a xlink:href="class_hooks_mgr.html#a25aacc981b80470642a51175ee56ba01" target="_top" xlink:title=" ">
<polygon fill="white" stroke="#666666" points="236.75,-450 129.25,-450 129.25,-430 236.75,-430 236.75,-450"/>
<text text-anchor="middle" x="183" y="-436.5" font-family="Helvetica,sans-Serif" font-size="10.00">HooksMgr::setHooks</text>
</a>
</g>
</g>
<!-- Node1&#45;&gt;Node3 -->
<g id="edge2_Node000001_Node000003" class="edge">
<title>Node1&#45;&gt;Node3</title>
<g id="a_edge2_Node000001_Node000003"><a xlink:title=" ">
<path fill="none" stroke="#63b8ff" d="M93.49,-452.51C101.42,-451.39 109.79,-450.21 118.1,-449.04"/>
<polygon fill="#63b8ff" stroke="#63b8ff" points="118.52,-452.37 127.94,-447.5 117.54,-445.44 118.52,-452.37"/>
</a>
</g>
</g>
<!-- Node4 -->
<g id="Node000004" class="node">
<title>Node4</title>
<g id="a_Node000004"><a xlink:href="_hooks_impl_8cpp.html#adae4ff67fba416ac992fe973d90abc58" target="_top" xlink:title="the exported hook for the main window procedure">
<polygon fill="white" stroke="#666666" points="345.75,-469 272.75,-469 272.75,-449 345.75,-449 345.75,-469"/>
<text text-anchor="middle" x="309.25" y="-455.5" font-family="Helvetica,sans-Serif" font-size="10.00">CallWndProc</text>
</a>
</g>
</g>
<!-- Node3&#45;&gt;Node4 -->
<g id="edge3_Node000003_Node000004" class="edge">
<title>Node3&#45;&gt;Node4</title>
<g id="a_edge3_Node000003_Node000004"><a xlink:title=" ">
<path fill="none" stroke="#63b8ff" d="M237.05,-448.11C245.31,-449.37 253.78,-450.67 261.87,-451.91"/>
<polygon fill="#63b8ff" stroke="#63b8ff" points="261.19,-455.5 271.61,-453.55 262.25,-448.58 261.19,-455.5"/>
</a>
</g>
</g>
<!-- Node14 -->
<g id="Node000014" class="node">
<title>Node14</title>
<g id="a_Node000014"><a xlink:href="_hooks_impl_8cpp.html#ab9f4b48939788d5aa0f404323b16a957" target="_top" xlink:title="the exported hook for the windows&#45;message procedure">
<polygon fill="white" stroke="#666666" points="344.62,-431 273.88,-431 273.88,-411 344.62,-411 344.62,-431"/>
<text text-anchor="middle" x="309.25" y="-417.5" font-family="Helvetica,sans-Serif" font-size="10.00">GetMsgProc</text>
</a>
</g>
</g>
<!-- Node3&#45;&gt;Node14 -->
<g id="edge13_Node000003_Node000014" class="edge">
<title>Node3&#45;&gt;Node14</title>
<g id="a_edge13_Node000003_Node000014"><a xlink:title=" ">
<path fill="none" stroke="#63b8ff" d="M237.05,-431.89C245.68,-430.57 254.54,-429.21 262.95,-427.93"/>
<polygon fill="#63b8ff" stroke="#63b8ff" points="263.34,-431.25 272.7,-426.28 262.28,-424.34 263.34,-431.25"/>
</a>
</g>
</g>
<!-- Node5 -->
<g id="Node000005" class="node">
<title>Node5</title>
<g id="a_Node000005"><a xlink:href="class_hooks_impl.html#a10c087a169c357990bf12340347e2fc0" target="_top" xlink:title="here we follow the main message loop of the application">
<polygon fill="white" stroke="#666666" points="505,-488 381.75,-488 381.75,-468 505,-468 505,-488"/>
<text text-anchor="middle" x="443.38" y="-474.5" font-family="Helvetica,sans-Serif" font-size="10.00">HooksImpl::callWndProc</text>
</a>
</g>
</g>
<!-- Node4&#45;&gt;Node5 -->
<g id="edge4_Node000004_Node000005" class="edge">
<title>Node4&#45;&gt;Node5</title>
<g id="a_edge4_Node000004_Node000005"><a xlink:title=" ">
<path fill="none" stroke="#63b8ff" d="M346,-464.14C353.69,-465.25 362.07,-466.45 370.58,-467.68"/>
<polygon fill="#63b8ff" stroke="#63b8ff" points="369.99,-471.27 380.39,-469.23 370.99,-464.34 369.99,-471.27"/>
</a>
</g>
</g>
<!-- Node9 -->
<g id="Node000009" class="node">
<title>Node9</title>
<g id="a_Node000009"><a xlink:href="class_hooks_cfg.html#ab994ae67a05ce4decf5b7af5314eb913" target="_top" xlink:title="check if someone has disabled stored in config">
<polygon fill="white" stroke="#666666" points="497.88,-450 388.88,-450 388.88,-430 497.88,-430 497.88,-450"/>
<text text-anchor="middle" x="443.38" y="-436.5" font-family="Helvetica,sans-Serif" font-size="10.00">HooksCfg::isDisabled</text>
</a>
</g>
</g>
<!-- Node4&#45;&gt;Node9 -->
<g id="edge8_Node000004_Node000009" class="edge">
<title>Node4&#45;&gt;Node9</title>
<g id="a_edge8_Node000004_Node000009"><a xlink:title=" ">
<path fill="none" stroke="#63b8ff" d="M346,-453.86C355.81,-452.45 366.74,-450.88 377.63,-449.31"/>
<polygon fill="#63b8ff" stroke="#63b8ff" points="378.06,-452.64 387.46,-447.75 377.07,-445.71 378.06,-452.64"/>
</a>
</g>
</g>
<!-- Node6 -->
<g id="Node000006" class="node">
<title>Node6</title>
<g id="a_Node000006"><a xlink:href="class_hooks_impl.html#a1022c4a7b4012228b83b0b89ee790f89" target="_top" xlink:title="here we react to position changes of the main window">
<polygon fill="white" stroke="#666666" points="709.25,-488 541,-488 541,-468 709.25,-468 709.25,-488"/>
<text text-anchor="middle" x="625.12" y="-474.5" font-family="Helvetica,sans-Serif" font-size="10.00">HooksImpl::onWindowPosChanged</text>
</a>
</g>
</g>
<!-- Node5&#45;&gt;Node6 -->
<g id="edge5_Node000005_Node000006" class="edge">
<title>Node5&#45;&gt;Node6</title>
<g id="a_edge5_Node000005_Node000006"><a xlink:title=" ">
<path fill="none" stroke="#63b8ff" d="M505.48,-478C513.34,-478 521.52,-478 529.75,-478"/>
<polygon fill="#63b8ff" stroke="#63b8ff" points="529.58,-481.5 539.58,-478 529.58,-474.5 529.58,-481.5"/>
</a>
</g>
</g>
<!-- Node7 -->
<g id="Node000007" class="node">
<title>Node7</title>
<g id="a_Node000007"><a xlink:href="class_hooks_impl.html#a8ef5405a747979c1f5197848e4a8e684" target="_top" xlink:title=" ">
<polygon fill="white" stroke="#666666" points="888.38,-221 757.62,-221 757.62,-189 888.38,-189 888.38,-221"/>
<text text-anchor="start" x="765.62" y="-207.5" font-family="Helvetica,sans-Serif" font-size="10.00">HooksImpl::hasCaptionDbl</text>
<text text-anchor="middle" x="823" y="-195.5" font-family="Helvetica,sans-Serif" font-size="10.00">Clicked</text>
</a>
</g>
</g>
<!-- Node6&#45;&gt;Node7 -->
<g id="edge6_Node000006_Node000007" class="edge">
<title>Node6&#45;&gt;Node7</title>
<g id="a_edge6_Node000006_Node000007"><a xlink:title=" ">
<path fill="none" stroke="#63b8ff" d="M695.67,-467.53C700.54,-465.2 705.14,-462.39 709.25,-459 781.44,-399.55 808.95,-284.5 818.06,-232.14"/>
<polygon fill="#63b8ff" stroke="#63b8ff" points="821.65,-232.82 819.82,-222.38 814.75,-231.69 821.65,-232.82"/>
</a>
</g>
</g>
<!-- Node8 -->
<g id="Node000008" class="node">
<title>Node8</title>
<g id="a_Node000008"><a xlink:href="class_hooks_impl.html#a7a48621aa5b57024ae963b861fd508cb" target="_top" xlink:title=" ">
<polygon fill="white" stroke="#666666" points="884.25,-466 761.75,-466 761.75,-446 884.25,-446 884.25,-466"/>
<text text-anchor="middle" x="823" y="-452.5" font-family="Helvetica,sans-Serif" font-size="10.00">HooksImpl::hasLastRect</text>
</a>
</g>
</g>
<!-- Node6&#45;&gt;Node8 -->
<g id="edge7_Node000006_Node000008" class="edge">
<title>Node6&#45;&gt;Node8</title>
<g id="a_edge7_Node000006_Node000008"><a xlink:title=" ">
<path fill="none" stroke="#63b8ff" d="M709.48,-468.64C723.2,-467.1 737.31,-465.51 750.7,-464.01"/>
<polygon fill="#63b8ff" stroke="#63b8ff" points="750.72,-467.42 760.27,-462.82 749.94,-460.46 750.72,-467.42"/>
</a>
</g>
</g>
<!-- Node10 -->
<g id="Node000010" class="node">
<title>Node10</title>
<g id="a_Node000010"><a xlink:href="class_hooks_cfg.html#a9642afc6c6fe88141770403a09cdfc4b" target="_top" xlink:title="read the global config for all apps">
<polygon fill="white" stroke="#666666" points="680,-526 570.25,-526 570.25,-506 680,-506 680,-526"/>
<text text-anchor="middle" x="625.12" y="-512.5" font-family="Helvetica,sans-Serif" font-size="10.00">HooksCfg::readConfig</text>
</a>
</g>
</g>
<!-- Node9&#45;&gt;Node10 -->
<g id="edge9_Node000009_Node000010" class="edge">
<title>Node9&#45;&gt;Node10</title>
<g id="a_edge9_Node000009_Node000010"><a xlink:title=" ">
<path fill="none" stroke="#63b8ff" d="M487.34,-450.44C493.49,-452.78 499.57,-455.61 505,-459 524.73,-471.32 520.79,-485.47 541,-497 546.82,-500.32 553.19,-503.06 559.72,-505.33"/>
<polygon fill="#63b8ff" stroke="#63b8ff" points="558.48,-508.91 569.06,-508.5 560.53,-502.22 558.48,-508.91"/>
</a>
</g>
</g>
<!-- Node11 -->
<g id="Node000011" class="node">
<title>Node11</title>
<g id="a_Node000011"><a xlink:href="class_hooks_cfg.html#a808e4e4a7bc43b89c87ef172fa8caf6a" target="_top" xlink:title="the path to the global config, for all apps">
<polygon fill="white" stroke="#666666" points="885.38,-507 760.62,-507 760.62,-487 885.38,-487 885.38,-507"/>
<text text-anchor="middle" x="823" y="-493.5" font-family="Helvetica,sans-Serif" font-size="10.00">HooksCfg::getConfigPath</text>
</a>
</g>
</g>
<!-- Node10&#45;&gt;Node11 -->
<g id="edge10_Node000010_Node000011" class="edge">
<title>Node10&#45;&gt;Node11</title>
<g id="a_edge10_Node000010_Node000011"><a xlink:title=" ">
<path fill="none" stroke="#63b8ff" d="M680.43,-510.73C701.83,-508.66 726.73,-506.24 749.63,-504.02"/>
<polygon fill="#63b8ff" stroke="#63b8ff" points="749.72,-507.43 759.33,-502.98 749.04,-500.46 749.72,-507.43"/>
</a>
</g>
</g>
<!-- Node13 -->
<g id="Node000013" class="node">
<title>Node13</title>
<g id="a_Node000013"><a xlink:href="class_hooks_cfg.html#ab8fd861156e6b389e43bbda021f42c50" target="_top" xlink:title="read a JSON config from given path">
<polygon fill="white" stroke="#666666" points="900,-545 746,-545 746,-525 900,-525 900,-545"/>
<text text-anchor="middle" x="823" y="-531.5" font-family="Helvetica,sans-Serif" font-size="10.00">HooksCfg::readConfigDocument</text>
</a>
</g>
</g>
<!-- Node10&#45;&gt;Node13 -->
<g id="edge12_Node000010_Node000013" class="edge">
<title>Node10&#45;&gt;Node13</title>
<g id="a_edge12_Node000010_Node000013"><a xlink:title=" ">
<path fill="none" stroke="#63b8ff" d="M680.43,-521.27C697.27,-522.9 716.29,-524.75 734.78,-526.54"/>
<polygon fill="#63b8ff" stroke="#63b8ff" points="734.3,-530.11 744.59,-527.59 734.98,-523.14 734.3,-530.11"/>
</a>
</g>
</g>
<!-- Node12 -->
<g id="Node000012" class="node">
<title>Node12</title>
<g id="a_Node000012"><a xlink:href="class_hooks_cfg.html#a437c5768d5246cf980d1be5ea6f272c6" target="_top" xlink:title="the directory, where store the configs and logs">
<polygon fill="white" stroke="#666666" points="1065.25,-507 948.75,-507 948.75,-487 1065.25,-487 1065.25,-507"/>
<text text-anchor="middle" x="1007" y="-493.5" font-family="Helvetica,sans-Serif" font-size="10.00">HooksCfg::getConfigDir</text>
</a>
</g>
</g>
<!-- Node11&#45;&gt;Node12 -->
<g id="edge11_Node000011_Node000012" class="edge">
<title>Node11&#45;&gt;Node12</title>
<g id="a_edge11_Node000011_Node000012"><a xlink:title=" ">
<path fill="none" stroke="#63b8ff" d="M885.87,-497C902.44,-497 920.45,-497 937.36,-497"/>
<polygon fill="#63b8ff" stroke="#63b8ff" points="937.29,-500.5 947.29,-497 937.29,-493.5 937.29,-500.5"/>
</a>
</g>
</g>
<!-- Node14&#45;&gt;Node9 -->
<g id="edge56_Node000014_Node000009" class="edge">
<title>Node14&#45;&gt;Node9</title>
<g id="a_edge56_Node000014_Node000009"><a xlink:title=" ">
<path fill="none" stroke="#63b8ff" d="M344.96,-425.99C355.05,-427.44 366.4,-429.07 377.69,-430.7"/>
<polygon fill="#63b8ff" stroke="#63b8ff" points="377.07,-434.29 387.46,-432.25 378.06,-427.36 377.07,-434.29"/>
</a>
</g>
</g>
<!-- Node15 -->
<g id="Node000015" class="node">
<title>Node15</title>
<g id="a_Node000015"><a xlink:href="class_hooks_impl.html#a07053e18c49265e300fe89b2a5bc28de" target="_top" xlink:title="here the Windows messages are picked up, which do not appear in the main message loop">
<polygon fill="white" stroke="#666666" points="503.5,-248 383.25,-248 383.25,-228 503.5,-228 503.5,-248"/>
<text text-anchor="middle" x="443.38" y="-234.5" font-family="Helvetica,sans-Serif" font-size="10.00">HooksImpl::getMsgProc</text>
</a>
</g>
</g>
<!-- Node14&#45;&gt;Node15 -->
<g id="edge14_Node000014_Node000015" class="edge">
<title>Node14&#45;&gt;Node15</title>
<g id="a_edge14_Node000014_Node000015"><a xlink:title=" ">
<path fill="none" stroke="#63b8ff" d="M317.73,-410.64C339.17,-380.94 401.05,-295.23 428.72,-256.91"/>
<polygon fill="#63b8ff" stroke="#63b8ff" points="431.96,-259.41 434.97,-249.25 426.28,-255.31 431.96,-259.41"/>
</a>
</g>
</g>
<!-- Node16 -->
<g id="Node000016" class="node">
<title>Node16</title>
<g id="a_Node000016"><a xlink:href="class_hooks_impl.html#a30acc60a07305d2df36a7798cb73aaa1" target="_top" xlink:title=" ">
<polygon fill="white" stroke="#666666" points="698,-324 552.25,-324 552.25,-304 698,-304 698,-324"/>
<text text-anchor="middle" x="625.12" y="-310.5" font-family="Helvetica,sans-Serif" font-size="10.00">HooksImpl::getLButtonUpMsg</text>
</a>
</g>
</g>
<!-- Node15&#45;&gt;Node16 -->
<g id="edge15_Node000015_Node000016" class="edge">
<title>Node15&#45;&gt;Node16</title>
<g id="a_edge15_Node000015_Node000016"><a xlink:title=" ">
<path fill="none" stroke="#63b8ff" d="M458.7,-248.38C476.96,-261.14 509.88,-282.61 541,-295 546.11,-297.04 551.49,-298.88 556.96,-300.55"/>
<polygon fill="#63b8ff" stroke="#63b8ff" points="555.94,-304.18 566.51,-303.54 557.85,-297.44 555.94,-304.18"/>
</a>
</g>
</g>
<!-- Node17 -->
<g id="Node000017" class="node">
<title>Node17</title>
<g id="a_Node000017"><a xlink:href="class_hooks_impl.html#a1f4bd7b8436918fc1cd5cea1c3a15bc9" target="_top" xlink:title=" ">
<polygon fill="white" stroke="#666666" points="704,-286 546.25,-286 546.25,-266 704,-266 704,-286"/>
<text text-anchor="middle" x="625.12" y="-272.5" font-family="Helvetica,sans-Serif" font-size="10.00">HooksImpl::getNcLButtonUpMsg</text>
</a>
</g>
</g>
<!-- Node15&#45;&gt;Node17 -->
<g id="edge16_Node000015_Node000017" class="edge">
<title>Node15&#45;&gt;Node17</title>
<g id="a_edge16_Node000015_Node000017"><a xlink:title=" ">
<path fill="none" stroke="#63b8ff" d="M493.97,-248.48C515.68,-253.07 541.34,-258.5 564.12,-263.31"/>
<polygon fill="#63b8ff" stroke="#63b8ff" points="563.19,-266.91 573.69,-265.55 564.63,-260.06 563.19,-266.91"/>
</a>
</g>
</g>
<!-- Node18 -->
<g id="Node000018" class="node">
<title>Node18</title>
<g id="a_Node000018"><a xlink:href="class_task_toolbar.html#a3159b1e31199ee3691bf2bcf5ec21100" target="_top" xlink:title=" ">
<polygon fill="white" stroke="#666666" points="680,-248 570.25,-248 570.25,-228 680,-228 680,-248"/>
<text text-anchor="middle" x="625.12" y="-234.5" font-family="Helvetica,sans-Serif" font-size="10.00">TaskToolbar::initialize</text>
</a>
</g>
</g>
<!-- Node15&#45;&gt;Node18 -->
<g id="edge17_Node000015_Node000018" class="edge">
<title>Node15&#45;&gt;Node18</title>
<g id="a_edge17_Node000015_Node000018"><a xlink:title=" ">
<path fill="none" stroke="#63b8ff" d="M503.73,-238C521.51,-238 541.1,-238 559.22,-238"/>
<polygon fill="#63b8ff" stroke="#63b8ff" points="558.99,-241.5 568.99,-238 558.99,-234.5 558.99,-241.5"/>
</a>
</g>
</g>
<!-- Node19 -->
<g id="Node000019" class="node">
<title>Node19</title>
<g id="a_Node000019"><a xlink:href="class_hooks_impl.html#ae0d26e76e300b5392e64fb070aafe8d5" target="_top" xlink:title="do the work, if necessary">
<polygon fill="white" stroke="#666666" points="691.62,-134 558.62,-134 558.62,-114 691.62,-114 691.62,-134"/>
<text text-anchor="middle" x="625.12" y="-120.5" font-family="Helvetica,sans-Serif" font-size="10.00">HooksImpl::onCaptionClick</text>
</a>
</g>
</g>
<!-- Node15&#45;&gt;Node19 -->
<g id="edge18_Node000015_Node000019" class="edge">
<title>Node15&#45;&gt;Node19</title>
<g id="a_edge18_Node000015_Node000019"><a xlink:title=" ">
<path fill="none" stroke="#63b8ff" d="M452.53,-227.71C467.87,-209.06 502.9,-169.59 541,-148 548,-144.04 555.7,-140.68 563.52,-137.85"/>
<polygon fill="#63b8ff" stroke="#63b8ff" points="564.41,-140.91 572.8,-134.43 562.2,-134.27 564.41,-140.91"/>
</a>
</g>
</g>
<!-- Node20 -->
<g id="Node000020" class="node">
<title>Node20</title>
<g id="a_Node000020"><a xlink:href="class_hooks_impl.html#a84c9a5c6b0754e092de2ee6a8b8bba1e" target="_top" xlink:title="method to change the size of a window in steps">
<polygon fill="white" stroke="#666666" points="900.75,-171 745.25,-171 745.25,-151 900.75,-151 900.75,-171"/>
<text text-anchor="middle" x="823" y="-157.5" font-family="Helvetica,sans-Serif" font-size="10.00">HooksImpl::onIncrementWindow</text>
</a>
</g>
</g>
<!-- Node15&#45;&gt;Node20 -->
<g id="edge46_Node000015_Node000020" class="edge">
<title>Node15&#45;&gt;Node20</title>
<g id="a_edge46_Node000015_Node000020"><a xlink:title=" ">
<path fill="none" stroke="#63b8ff" d="M457.5,-227.54C475.25,-214.05 508.46,-191.14 541,-181 603.62,-161.49 677.75,-156.93 734.14,-157.02"/>
<polygon fill="#63b8ff" stroke="#63b8ff" points="733.79,-160.52 743.81,-157.09 733.84,-153.52 733.79,-160.52"/>
</a>
</g>
</g>
<!-- Node21 -->
<g id="Node000021" class="node">
<title>Node21</title>
<g id="a_Node000021"><a xlink:href="class_hooks_impl.html#ab6696c1ccc12ebdd892883485456ed3c" target="_top" xlink:title=" ">
<polygon fill="white" stroke="#666666" points="892.88,-132 753.12,-132 753.12,-112 892.88,-112 892.88,-132"/>
<text text-anchor="middle" x="823" y="-118.5" font-family="Helvetica,sans-Serif" font-size="10.00">HooksImpl::onShowPosWnd</text>
</a>
</g>
</g>
<!-- Node15&#45;&gt;Node21 -->
<g id="edge54_Node000015_Node000021" class="edge">
<title>Node15&#45;&gt;Node21</title>
<g id="a_edge54_Node000015_Node000021"><a xlink:title=" ">
<path fill="none" stroke="#63b8ff" d="M448,-227.82C457.97,-201.55 488.61,-131.69 541,-105 619.96,-64.77 728.03,-90.05 784.37,-108.23"/>
<polygon fill="#63b8ff" stroke="#63b8ff" points="783,-111.8 793.59,-111.64 785.21,-105.16 783,-111.8"/>
</a>
</g>
</g>
<!-- Node37 -->
<g id="Node000037" class="node">
<title>Node37</title>
<g id="a_Node000037"><a xlink:href="class_hooks_impl.html#a924c5db32f07636c8acbc9421c216112" target="_top" xlink:title=" ">
<polygon fill="white" stroke="#666666" points="893.25,-58 752.75,-58 752.75,-38 893.25,-38 893.25,-58"/>
<text text-anchor="middle" x="823" y="-44.5" font-family="Helvetica,sans-Serif" font-size="10.00">HooksImpl::onClosePosWnd</text>
</a>
</g>
</g>
<!-- Node15&#45;&gt;Node37 -->
<g id="edge42_Node000015_Node000037" class="edge">
<title>Node15&#45;&gt;Node37</title>
<g id="a_edge42_Node000015_Node000037"><a xlink:title=" ">
<path fill="none" stroke="#63b8ff" d="M447.22,-227.63C455.79,-198.58 484.34,-116.13 541,-80 600.43,-42.1 681.58,-36.64 741.39,-39.16"/>
<polygon fill="#63b8ff" stroke="#63b8ff" points="741.14,-42.71 751.31,-39.72 741.5,-35.72 741.14,-42.71"/>
</a>
</g>
</g>
<!-- Node38 -->
<g id="Node000038" class="node">
<title>Node38</title>
<g id="a_Node000038"><a xlink:href="class_hooks_impl.html#a7628ad89b3625fcd9e8538d94d7b2cde" target="_top" xlink:title="processes the WM_LBUTTONUP event">
<polygon fill="white" stroke="#666666" points="687.12,-210 563.12,-210 563.12,-190 687.12,-190 687.12,-210"/>
<text text-anchor="middle" x="625.12" y="-196.5" font-family="Helvetica,sans-Serif" font-size="10.00">HooksImpl::onLButtonUp</text>
</a>
</g>
</g>
<!-- Node15&#45;&gt;Node38 -->
<g id="edge47_Node000015_Node000038" class="edge">
<title>Node15&#45;&gt;Node38</title>
<g id="a_edge47_Node000015_Node000038"><a xlink:title=" ">
<path fill="none" stroke="#63b8ff" d="M493.97,-227.52C515.68,-222.93 541.34,-217.5 564.12,-212.69"/>
<polygon fill="#63b8ff" stroke="#63b8ff" points="564.63,-215.94 573.69,-210.45 563.19,-209.09 564.63,-215.94"/>
</a>
</g>
</g>
<!-- Node39 -->
<g id="Node000039" class="node">
<title>Node39</title>
<g id="a_Node000039"><a xlink:href="class_hooks_impl.html#afe7a8e2c13ab2abe83b4f3d0c462e761" target="_top" xlink:title="this procedure handles the double click in non&#45;client area">
<polygon fill="white" stroke="#666666" points="694.25,-450 556,-450 556,-418 694.25,-418 694.25,-450"/>
<text text-anchor="start" x="564" y="-436.5" font-family="Helvetica,sans-Serif" font-size="10.00">HooksImpl::onNcLButtonDbl</text>
<text text-anchor="middle" x="625.12" y="-424.5" font-family="Helvetica,sans-Serif" font-size="10.00">Click</text>
</a>
</g>
</g>
<!-- Node15&#45;&gt;Node39 -->
<g id="edge50_Node000015_Node000039" class="edge">
<title>Node15&#45;&gt;Node39</title>
<g id="a_edge50_Node000015_Node000039"><a xlink:title=" ">
<path fill="none" stroke="#63b8ff" d="M447.2,-248.25C455.88,-277.86 485.06,-364.29 541,-409 542.68,-410.34 544.43,-411.61 546.23,-412.81"/>
<polygon fill="#63b8ff" stroke="#63b8ff" points="544.27,-416.3 554.68,-418.27 547.77,-410.24 544.27,-416.3"/>
</a>
</g>
</g>
<!-- Node40 -->
<g id="Node000040" class="node">
<title>Node40</title>
<g id="a_Node000040"><a xlink:href="class_hooks_impl.html#a9adf50040968aa66908f643ad1edda53" target="_top" xlink:title="processes the WM_NCLBUTTONDOWN event">
<polygon fill="white" stroke="#666666" points="699.12,-20 551.12,-20 551.12,0 699.12,0 699.12,-20"/>
<text text-anchor="middle" x="625.12" y="-6.5" font-family="Helvetica,sans-Serif" font-size="10.00">HooksImpl::onNcLButtonDown</text>
</a>
</g>
</g>
<!-- Node15&#45;&gt;Node40 -->
<g id="edge52_Node000015_Node000040" class="edge">
<title>Node15&#45;&gt;Node40</title>
<g id="a_edge52_Node000015_Node000040"><a xlink:title=" ">
<path fill="none" stroke="#63b8ff" d="M446.17,-227.72C452.52,-194.38 477.12,-88.33 541,-34 545.18,-30.44 549.87,-27.41 554.82,-24.83"/>
<polygon fill="#63b8ff" stroke="#63b8ff" points="555.96,-27.7 563.63,-20.4 553.08,-21.33 555.96,-27.7"/>
</a>
</g>
</g>
<!-- Node41 -->
<g id="Node000041" class="node">
<title>Node41</title>
<g id="a_Node000041"><a xlink:href="class_hooks_impl.html#a88ea927a4d021535e4a5768ef60a50d7" target="_top" xlink:title="processes the WM_NCLBUTTONUP event">
<polygon fill="white" stroke="#666666" points="693.88,-400 556.38,-400 556.38,-380 693.88,-380 693.88,-400"/>
<text text-anchor="middle" x="625.12" y="-386.5" font-family="Helvetica,sans-Serif" font-size="10.00">HooksImpl::onNCLButtonUp</text>
</a>
</g>
</g>
<!-- Node15&#45;&gt;Node41 -->
<g id="edge53_Node000015_Node000041" class="edge">
<title>Node15&#45;&gt;Node41</title>
<g id="a_edge53_Node000015_Node000041"><a xlink:title=" ">
<path fill="none" stroke="#63b8ff" d="M448.7,-248.26C459.9,-273.51 492.41,-338.92 541,-371 543.27,-372.5 545.64,-373.88 548.09,-375.15"/>
<polygon fill="#63b8ff" stroke="#63b8ff" points="546.3,-378.64 556.85,-379.55 549.17,-372.25 546.3,-378.64"/>
</a>
</g>
</g>
<!-- Node42 -->
<g id="Node000042" class="node">
<title>Node42</title>
<g id="a_Node000042"><a xlink:href="class_task_toolbar.html#a2304586dd147f754c7040f781eda1270" target="_top" xlink:title=" ">
<polygon fill="white" stroke="#666666" points="685.25,-362 565,-362 565,-342 685.25,-342 685.25,-362"/>
<text text-anchor="middle" x="625.12" y="-348.5" font-family="Helvetica,sans-Serif" font-size="10.00">TaskToolbar::uninitialize</text>
</a>
</g>
</g>
<!-- Node15&#45;&gt;Node42 -->
<g id="edge55_Node000015_Node000042" class="edge">
<title>Node15&#45;&gt;Node42</title>
<g id="a_edge55_Node000015_Node000042"><a xlink:title=" ">
<path fill="none" stroke="#63b8ff" d="M451.81,-248.47C466.48,-268.27 501.17,-311.2 541,-333 545.2,-335.3 549.67,-337.32 554.28,-339.1"/>
<polygon fill="#63b8ff" stroke="#63b8ff" points="552.91,-342.68 563.51,-342.62 555.19,-336.06 552.91,-342.68"/>
</a>
</g>
</g>
<!-- Node19&#45;&gt;Node7 -->
<g id="edge19_Node000019_Node000007" class="edge">
<title>Node19&#45;&gt;Node7</title>
<g id="a_edge19_Node000019_Node000007"><a xlink:title=" ">
<path fill="none" stroke="#63b8ff" d="M646.02,-134.29C669.41,-146.16 709.56,-165.86 745.25,-180 749.62,-181.73 754.16,-183.44 758.75,-185.1"/>
<polygon fill="#63b8ff" stroke="#63b8ff" points="757.25,-188.63 767.85,-188.64 759.57,-182.02 757.25,-188.63"/>
</a>
</g>
</g>
<!-- Node19&#45;&gt;Node20 -->
<g id="edge20_Node000019_Node000020" class="edge">
<title>Node19&#45;&gt;Node20</title>
<g id="a_edge20_Node000019_Node000020"><a xlink:title=" ">
<path fill="none" stroke="#63b8ff" d="M681.47,-134.45C704.63,-138.83 731.73,-143.95 755.93,-148.52"/>
<polygon fill="#63b8ff" stroke="#63b8ff" points="754.98,-152.09 765.45,-150.51 756.28,-145.21 754.98,-152.09"/>
</a>
</g>
</g>
<!-- Node19&#45;&gt;Node21 -->
<g id="edge21_Node000019_Node000021" class="edge">
<title>Node19&#45;&gt;Node21</title>
<g id="a_edge21_Node000019_Node000021"><a xlink:title=" ">
<path fill="none" stroke="#63b8ff" d="M691.89,-123.33C707.94,-123.16 725.28,-122.99 741.91,-122.82"/>
<polygon fill="#63b8ff" stroke="#63b8ff" points="741.75,-126.31 751.72,-122.71 741.68,-119.31 741.75,-126.31"/>
</a>
</g>
</g>
<!-- Node22 -->
<g id="Node000022" class="node">
<title>Node22</title>
<g id="a_Node000022"><a xlink:href="class_win_pos_wnd.html#abec2e67db5543a717d59b02ab8dbb930" target="_top" xlink:title="create the required windows for monitor preview and all configured positions">
<polygon fill="white" stroke="#666666" points="1058.88,-172 955.12,-172 955.12,-152 1058.88,-152 1058.88,-172"/>
<text text-anchor="middle" x="1007" y="-158.5" font-family="Helvetica,sans-Serif" font-size="10.00">WinPosWnd::create</text>
</a>
</g>
</g>
<!-- Node21&#45;&gt;Node22 -->
<g id="edge22_Node000021_Node000022" class="edge">
<title>Node21&#45;&gt;Node22</title>
<g id="a_edge22_Node000021_Node000022"><a xlink:title=" ">
<path fill="none" stroke="#63b8ff" d="M871.34,-132.41C894.65,-137.53 922.96,-143.75 947.59,-149.16"/>
<polygon fill="#63b8ff" stroke="#63b8ff" points="946.74,-152.78 957.26,-151.51 948.25,-145.94 946.74,-152.78"/>
</a>
</g>
</g>
<!-- Node36 -->
<g id="Node000036" class="node">
<title>Node36</title>
<g id="a_Node000036"><a xlink:href="class_win_pos_wnd.html#acb456c59641ec336d5c7646764fe7e6a" target="_top" xlink:title=" ">
<polygon fill="white" stroke="#666666" points="1077.25,-131 936.75,-131 936.75,-111 1077.25,-111 1077.25,-131"/>
<text text-anchor="middle" x="1007" y="-117.5" font-family="Helvetica,sans-Serif" font-size="10.00">WinPosWnd::getWndHandle</text>
</a>
</g>
</g>
<!-- Node21&#45;&gt;Node36 -->
<g id="edge41_Node000021_Node000036" class="edge">
<title>Node21&#45;&gt;Node36</title>
<g id="a_edge41_Node000021_Node000036"><a xlink:title=" ">
<path fill="none" stroke="#63b8ff" d="M893.33,-121.62C903.87,-121.56 914.83,-121.5 925.59,-121.44"/>
<polygon fill="#63b8ff" stroke="#63b8ff" points="925.28,-124.94 935.26,-121.38 925.25,-117.94 925.28,-124.94"/>
</a>
</g>
</g>
<!-- Node23 -->
<g id="Node000023" class="node">
<title>Node23</title>
<g id="a_Node000023"><a xlink:href="class_win_pos_wnd.html#a4b607f031e5058874a31918e4cc1ba79" target="_top" xlink:title="if the window looks beyond the edge of the monitor, it is moved so that it is displayed as a whole on...">
<polygon fill="white" stroke="#666666" points="1273.25,-304 1117.75,-304 1117.75,-284 1273.25,-284 1273.25,-304"/>
<text text-anchor="middle" x="1195.5" y="-290.5" font-family="Helvetica,sans-Serif" font-size="10.00">WinPosWnd::correctEdgecases</text>
</a>
</g>
</g>
<!-- Node22&#45;&gt;Node23 -->
<g id="edge23_Node000022_Node000023" class="edge">
<title>Node22&#45;&gt;Node23</title>
<g id="a_edge23_Node000022_Node000023"><a xlink:title=" ">
<path fill="none" stroke="#63b8ff" d="M1014.47,-172.33C1029.1,-194.8 1067.09,-248.25 1113.25,-275 1116.1,-276.65 1119.09,-278.16 1122.17,-279.54"/>
<polygon fill="#63b8ff" stroke="#63b8ff" points="1120.65,-283.1 1131.24,-283.51 1123.22,-276.59 1120.65,-283.1"/>
</a>
</g>
</g>
<!-- Node24 -->
<g id="Node000024" class="node">
<title>Node24</title>
<g id="a_Node000024"><a xlink:href="class_win_pos_wnd.html#a8abc6edd027488d4f7242b9f12693af8" target="_top" xlink:title="destroys every windows">
<polygon fill="white" stroke="#666666" points="1250,-58 1141,-58 1141,-38 1250,-38 1250,-58"/>
<text text-anchor="middle" x="1195.5" y="-44.5" font-family="Helvetica,sans-Serif" font-size="10.00">WinPosWnd::destroy</text>
</a>
</g>
</g>
<!-- Node22&#45;&gt;Node24 -->
<g id="edge24_Node000022_Node000024" class="edge">
<title>Node22&#45;&gt;Node24</title>
<g id="a_edge24_Node000022_Node000024"><a xlink:title=" ">
<path fill="none" stroke="#63b8ff" d="M1057.88,-151.59C1064.89,-148.64 1071.61,-144.85 1077.25,-140 1104.68,-116.42 1084.92,-89.5 1113.25,-67 1118.46,-62.86 1124.42,-59.6 1130.69,-57.02"/>
<polygon fill="#63b8ff" stroke="#63b8ff" points="1131.44,-60.12 1139.73,-53.53 1129.13,-53.51 1131.44,-60.12"/>
</a>
</g>
</g>
<!-- Node25 -->
<g id="Node000025" class="node">
<title>Node25</title>
<g id="a_Node000025"><a xlink:href="class_win_pos_wnd_cfg.html#afe04626c840dd23b6b063f58bcb06dce" target="_top" xlink:title=" ">
<polygon fill="white" stroke="#666666" points="1656.25,-182 1492.5,-182 1492.5,-162 1656.25,-162 1656.25,-182"/>
<text text-anchor="middle" x="1574.38" y="-168.5" font-family="Helvetica,sans-Serif" font-size="10.00">WinPosWndCfg::getCloseTimeout</text>
</a>
</g>
</g>
<!-- Node22&#45;&gt;Node25 -->
<g id="edge25_Node000022_Node000025" class="edge">
<title>Node22&#45;&gt;Node25</title>
<g id="a_edge25_Node000022_Node000025"><a xlink:title=" ">
<path fill="none" stroke="#63b8ff" d="M1059.17,-162.91C1154.69,-164.59 1361.3,-168.25 1481.52,-170.38"/>
<polygon fill="#63b8ff" stroke="#63b8ff" points="1481.11,-173.89 1491.17,-170.56 1481.23,-166.89 1481.11,-173.89"/>
</a>
</g>
</g>
<!-- Node26 -->
<g id="Node000026" class="node">
<title>Node26</title>
<g id="a_Node000026"><a xlink:href="class_win_pos_wnd_cfg.html#a10a73295ae59c85d651ad0088b235125" target="_top" xlink:title=" ">
<polygon fill="white" stroke="#666666" points="1266.5,-210 1124.5,-210 1124.5,-190 1266.5,-190 1266.5,-210"/>
<text text-anchor="middle" x="1195.5" y="-196.5" font-family="Helvetica,sans-Serif" font-size="10.00">WinPosWndCfg::getMonitors</text>
</a>
</g>
</g>
<!-- Node22&#45;&gt;Node26 -->
<g id="edge26_Node000022_Node000026" class="edge">
<title>Node22&#45;&gt;Node26</title>
<g id="a_edge26_Node000022_Node000026"><a xlink:title=" ">
<path fill="none" stroke="#63b8ff" d="M1058.96,-172.38C1081.69,-177.01 1108.67,-182.51 1132.55,-187.38"/>
<polygon fill="#63b8ff" stroke="#63b8ff" points="1131.78,-191 1142.28,-189.56 1133.18,-184.14 1131.78,-191"/>
</a>
</g>
</g>
<!-- Node27 -->
<g id="Node000027" class="node">
<title>Node27</title>
<g id="a_Node000027"><a xlink:href="class_win_pos_wnd_cfg.html#a1fd1c1c55716a4697a044ae0671cf2aa" target="_top" xlink:title=" ">
<polygon fill="white" stroke="#666666" points="1639,-286 1509.75,-286 1509.75,-266 1639,-266 1639,-286"/>
<text text-anchor="middle" x="1574.38" y="-272.5" font-family="Helvetica,sans-Serif" font-size="10.00">WinPosWndCfg::getScale</text>
</a>
</g>
</g>
<!-- Node22&#45;&gt;Node27 -->
<g id="edge27_Node000022_Node000027" class="edge">
<title>Node22&#45;&gt;Node27</title>
<g id="a_edge27_Node000022_Node000027"><a xlink:title=" ">
<path fill="none" stroke="#63b8ff" d="M1011.35,-172.28C1021.36,-201.01 1054.04,-282.1 1113.25,-313 1256.38,-387.7 1459.18,-321.92 1539.1,-290.5"/>
<polygon fill="#63b8ff" stroke="#63b8ff" points="1540.13,-293.46 1548.11,-286.49 1537.52,-286.96 1540.13,-293.46"/>
</a>
</g>
</g>
<!-- Node28 -->
<g id="Node000028" class="node">
<title>Node28</title>
<g id="a_Node000028"><a xlink:href="class_win_pos_wnd.html#a159d04333920b8b0ab3b8ecc6f6607dd" target="_top" xlink:title=" ">
<polygon fill="white" stroke="#666666" points="1277.75,-134 1113.25,-134 1113.25,-114 1277.75,-114 1277.75,-134"/>
<text text-anchor="middle" x="1195.5" y="-120.5" font-family="Helvetica,sans-Serif" font-size="10.00">WinPosWnd::getTotalPreviewRect</text>
</a>
</g>
</g>
<!-- Node22&#45;&gt;Node28 -->
<g id="edge28_Node000022_Node000028" class="edge">
<title>Node22&#45;&gt;Node28</title>
<g id="a_edge28_Node000022_Node000028"><a xlink:title=" ">
<path fill="none" stroke="#63b8ff" d="M1058.96,-151.62C1081.69,-146.99 1108.67,-141.49 1132.55,-136.62"/>
<polygon fill="#63b8ff" stroke="#63b8ff" points="1133.18,-139.86 1142.28,-134.44 1131.78,-133 1133.18,-139.86"/>
</a>
</g>
</g>
<!-- Node29 -->
<g id="Node000029" class="node">
<title>Node29</title>
<g id="a_Node000029"><a xlink:href="class_win_pos_wnd.html#a86ca33ea895961e25e6c1601e420f40e" target="_top" xlink:title="initialize the WNDCLASS structure">
<polygon fill="white" stroke="#666666" points="1262.75,-96 1128.25,-96 1128.25,-76 1262.75,-76 1262.75,-96"/>
<text text-anchor="middle" x="1195.5" y="-82.5" font-family="Helvetica,sans-Serif" font-size="10.00">WinPosWnd::initWndClass</text>
</a>
</g>
</g>
<!-- Node22&#45;&gt;Node29 -->
<g id="edge29_Node000022_Node000029" class="edge">
<title>Node22&#45;&gt;Node29</title>
<g id="a_edge29_Node000022_Node000029"><a xlink:title=" ">
<path fill="none" stroke="#63b8ff" d="M1051.46,-151.6C1060.32,-148.55 1069.35,-144.73 1077.25,-140 1096.4,-128.54 1093.67,-115.71 1113.25,-105 1116.36,-103.3 1119.63,-101.75 1122.98,-100.33"/>
<polygon fill="#63b8ff" stroke="#63b8ff" points="1124.11,-103.27 1132.26,-96.5 1121.66,-96.71 1124.11,-103.27"/>
</a>
</g>
</g>
<!-- Node32 -->
<g id="Node000032" class="node">
<title>Node32</title>
<g id="a_Node000032"><a xlink:href="struct_win_pos_wnd_1_1_monitor_preview.html#a01fe1b4351422928e43305d1758ae6fb" target="_top" xlink:title="move the rectangle to the cursor position">
<polygon fill="white" stroke="#666666" points="1266.5,-392 1124.5,-392 1124.5,-360 1266.5,-360 1266.5,-392"/>
<text text-anchor="start" x="1132.5" y="-378.5" font-family="Helvetica,sans-Serif" font-size="10.00">WinPosWnd::MonitorPreview</text>
<text text-anchor="middle" x="1195.5" y="-366.5" font-family="Helvetica,sans-Serif" font-size="10.00">::offsetToPt</text>
</a>
</g>
</g>
<!-- Node22&#45;&gt;Node32 -->
<g id="edge32_Node000022_Node000032" class="edge">
<title>Node22&#45;&gt;Node32</title>
<g id="a_edge32_Node000022_Node000032"><a xlink:title=" ">
<path fill="none" stroke="#63b8ff" d="M1011.12,-172.41C1020.91,-203.36 1053.98,-295.83 1113.25,-346 1116.97,-349.15 1121.04,-351.97 1125.33,-354.52"/>
<polygon fill="#63b8ff" stroke="#63b8ff" points="1123.51,-358.05 1133.98,-359.64 1126.79,-351.86 1123.51,-358.05"/>
</a>
</g>
</g>
<!-- Node33 -->
<g id="Node000033" class="node">
<title>Node33</title>
<g id="a_Node000033"><a xlink:href="class_win_pos_wnd_cfg.html#a038475d40481960d701d09f6e39467c8" target="_top" xlink:title=" ">
<polygon fill="white" stroke="#666666" points="1263.88,-248 1127.12,-248 1127.12,-228 1263.88,-228 1263.88,-248"/>
<text text-anchor="middle" x="1195.5" y="-234.5" font-family="Helvetica,sans-Serif" font-size="10.00">WinPosWndCfg::readConfig</text>
</a>
</g>
</g>
<!-- Node22&#45;&gt;Node33 -->
<g id="edge33_Node000022_Node000033" class="edge">
<title>Node22&#45;&gt;Node33</title>
<g id="a_edge33_Node000022_Node000033"><a xlink:title=" ">
<path fill="none" stroke="#63b8ff" d="M1023.77,-172.28C1043.81,-184.94 1079.84,-206.31 1113.25,-219 1118.67,-221.06 1124.37,-222.94 1130.15,-224.64"/>
<polygon fill="#63b8ff" stroke="#63b8ff" points="1129,-228.23 1139.57,-227.52 1130.87,-221.48 1129,-228.23"/>
</a>
</g>
</g>
<!-- Node30 -->
<g id="Node000030" class="node">
<title>Node30</title>
<g id="a_Node000030"><a xlink:href="class_win_pos_wnd.html#a104a18975fac2ac85a75eabda629ddb2" target="_top" xlink:title="static WNDPROC. Forwards to the WinPosWnd instances.">
<polygon fill="white" stroke="#666666" points="1456.5,-77 1313.75,-77 1313.75,-57 1456.5,-57 1456.5,-77"/>
<text text-anchor="middle" x="1385.12" y="-63.5" font-family="Helvetica,sans-Serif" font-size="10.00">WinPosWnd::WndProcStatic</text>
</a>
</g>
</g>
<!-- Node29&#45;&gt;Node30 -->
<g id="edge30_Node000029_Node000030" class="edge">
<title>Node29&#45;&gt;Node30</title>
<g id="a_edge30_Node000029_Node000030"><a xlink:title=" ">
<path fill="none" stroke="#63b8ff" d="M1263.18,-79.25C1276.06,-77.94 1289.69,-76.56 1302.97,-75.22"/>
<polygon fill="#63b8ff" stroke="#63b8ff" points="1302.94,-78.64 1312.53,-74.15 1302.23,-71.67 1302.94,-78.64"/>
</a>
</g>
</g>
<!-- Node31 -->
<g id="Node000031" class="node">
<title>Node31</title>
<g id="a_Node000031"><a xlink:href="class_win_pos_wnd.html#a5ad8686caf3b8310fff6d4bec255f898" target="_top" xlink:title="get the instance of WinPosWnd to a window handle">
<polygon fill="white" stroke="#666666" points="1646.88,-39 1501.88,-39 1501.88,-19 1646.88,-19 1646.88,-39"/>
<text text-anchor="middle" x="1574.38" y="-25.5" font-family="Helvetica,sans-Serif" font-size="10.00">WinPosWnd::getWinPosWnd</text>
</a>
</g>
</g>
<!-- Node30&#45;&gt;Node31 -->
<g id="edge31_Node000030_Node000031" class="edge">
<title>Node30&#45;&gt;Node31</title>
<g id="a_edge31_Node000030_Node000031"><a xlink:title=" ">
<path fill="none" stroke="#63b8ff" d="M1437.79,-56.52C1460.51,-51.91 1487.38,-46.45 1511.18,-41.62"/>
<polygon fill="#63b8ff" stroke="#63b8ff" points="1511.78,-44.87 1520.88,-39.45 1510.38,-38.01 1511.78,-44.87"/>
</a>
</g>
</g>
<!-- Node33&#45;&gt;Node27 -->
<g id="edge35_Node000033_Node000027" class="edge">
<title>Node33&#45;&gt;Node27</title>
<g id="a_edge35_Node000033_Node000027"><a xlink:title=" ">
<path fill="none" stroke="#63b8ff" d="M1264.31,-244.84C1330.39,-251.5 1430.62,-261.61 1498.89,-268.49"/>
<polygon fill="#63b8ff" stroke="#63b8ff" points="1498.26,-272.04 1508.56,-269.57 1498.96,-265.08 1498.26,-272.04"/>
</a>
</g>
</g>
<!-- Node33&#45;&gt;Node33 -->
<g id="edge36_Node000033_Node000033" class="edge">
<title>Node33&#45;&gt;Node33</title>
<g id="a_edge36_Node000033_Node000033"><a xlink:title=" ">
<path fill="none" stroke="#63b8ff" d="M1165.55,-248.34C1152.75,-256.98 1162.73,-266 1195.5,-266 1214.96,-266 1226.38,-262.82 1229.77,-258.43"/>
<polygon fill="#63b8ff" stroke="#63b8ff" points="1232.6,-257.15 1225.45,-249.34 1226.17,-259.91 1232.6,-257.15"/>
</a>
</g>
</g>
<!-- Node34 -->
<g id="Node000034" class="node">
<title>Node34</title>
<g id="a_Node000034"><a xlink:href="class_win_pos_wnd_cfg.html#a93944e9bbc627a502d59f845b3b1e827" target="_top" xlink:title=" ">
<polygon fill="white" stroke="#666666" points="1650.25,-239 1498.5,-239 1498.5,-219 1650.25,-219 1650.25,-239"/>
<text text-anchor="middle" x="1574.38" y="-225.5" font-family="Helvetica,sans-Serif" font-size="10.00">WinPosWndCfg::getConfigPath</text>
</a>
</g>
</g>
<!-- Node33&#45;&gt;Node34 -->
<g id="edge34_Node000033_Node000034" class="edge">
<title>Node33&#45;&gt;Node34</title>
<g id="a_edge34_Node000033_Node000034"><a xlink:title=" ">
<path fill="none" stroke="#63b8ff" d="M1264.31,-236.38C1326.77,-234.89 1419.74,-232.67 1487.39,-231.05"/>
<polygon fill="#63b8ff" stroke="#63b8ff" points="1487.11,-234.54 1497.02,-230.8 1486.94,-227.54 1487.11,-234.54"/>
</a>
</g>
</g>
<!-- Node35 -->
<g id="Node000035" class="node">
<title>Node35</title>
<g id="a_Node000035"><a xlink:href="class_win_pos_wnd_cfg.html#a2e024dd316be8cf377996f7be3017acd" target="_top" xlink:title=" ">
<polygon fill="white" stroke="#666666" points="1454.25,-210 1316,-210 1316,-190 1454.25,-190 1454.25,-210"/>
<text text-anchor="middle" x="1385.12" y="-196.5" font-family="Helvetica,sans-Serif" font-size="10.00">WinPosWndCfg::writeConfig</text>
</a>
</g>
</g>
<!-- Node33&#45;&gt;Node35 -->
<g id="edge37_Node000033_Node000035" class="edge">
<title>Node33&#45;&gt;Node35</title>
<g id="a_edge37_Node000033_Node000035"><a xlink:title=" ">
<path fill="none" stroke="#63b8ff" d="M1248.27,-227.52C1271.03,-222.91 1297.96,-217.45 1321.81,-212.62"/>
<polygon fill="#63b8ff" stroke="#63b8ff" points="1322.42,-215.87 1331.53,-210.45 1321.03,-209 1322.42,-215.87"/>
</a>
</g>
</g>
<!-- Node35&#45;&gt;Node25 -->
<g id="edge38_Node000035_Node000025" class="edge">
<title>Node35&#45;&gt;Node25</title>
<g id="a_edge38_Node000035_Node000025"><a xlink:title=" ">
<path fill="none" stroke="#63b8ff" d="M1454.52,-189.77C1466.93,-187.92 1479.97,-185.97 1492.69,-184.06"/>
<polygon fill="#63b8ff" stroke="#63b8ff" points="1492.91,-187.42 1502.28,-182.48 1491.87,-180.5 1492.91,-187.42"/>
</a>
</g>
</g>
<!-- Node35&#45;&gt;Node27 -->
<g id="edge40_Node000035_Node000027" class="edge">
<title>Node35&#45;&gt;Node27</title>
<g id="a_edge40_Node000035_Node000027"><a xlink:title=" ">
<path fill="none" stroke="#63b8ff" d="M1407.48,-210.32C1428.78,-220.46 1462.57,-236.09 1492.5,-248 1504.9,-252.93 1518.56,-257.85 1531.07,-262.16"/>
<polygon fill="#63b8ff" stroke="#63b8ff" points="1529.65,-265.72 1540.25,-265.62 1531.91,-259.09 1529.65,-265.72"/>
</a>
</g>
</g>
<!-- Node35&#45;&gt;Node34 -->
<g id="edge39_Node000035_Node000034" class="edge">
<title>Node35&#45;&gt;Node34</title>
<g id="a_edge39_Node000035_Node000034"><a xlink:title=" ">
<path fill="none" stroke="#63b8ff" d="M1453.73,-210.47C1467.25,-212.56 1481.56,-214.78 1495.4,-216.92"/>
<polygon fill="#63b8ff" stroke="#63b8ff" points="1494.45,-220.47 1504.87,-218.55 1495.53,-213.56 1494.45,-220.47"/>
</a>
</g>
</g>
<!-- Node37&#45;&gt;Node24 -->
<g id="edge43_Node000037_Node000024" class="edge">
<title>Node37&#45;&gt;Node24</title>
<g id="a_edge43_Node000037_Node000024"><a xlink:title=" ">
<path fill="none" stroke="#63b8ff" d="M893.69,-48C961.6,-48 1064,-48 1130.06,-48"/>
<polygon fill="#63b8ff" stroke="#63b8ff" points="1129.74,-51.5 1139.74,-48 1129.74,-44.5 1129.74,-51.5"/>
</a>
</g>
</g>
<!-- Node37&#45;&gt;Node31 -->
<g id="edge44_Node000037_Node000031" class="edge">
<title>Node37&#45;&gt;Node31</title>
<g id="a_edge44_Node000037_Node000031"><a xlink:title=" ">
<path fill="none" stroke="#63b8ff" d="M893.49,-42.15C952.04,-37.53 1038.05,-31.47 1113.25,-29 1245.21,-24.67 1398.57,-25.93 1490.7,-27.37"/>
<polygon fill="#63b8ff" stroke="#63b8ff" points="1490.57,-30.88 1500.62,-27.54 1490.68,-23.88 1490.57,-30.88"/>
</a>
</g>
</g>
<!-- Node37&#45;&gt;Node36 -->
<g id="edge45_Node000037_Node000036" class="edge">
<title>Node37&#45;&gt;Node36</title>
<g id="a_edge45_Node000037_Node000036"><a xlink:title=" ">
<path fill="none" stroke="#63b8ff" d="M850.08,-58.46C881.57,-71.09 934.7,-92.4 970.06,-106.58"/>
<polygon fill="#63b8ff" stroke="#63b8ff" points="968.39,-110.09 978.97,-110.56 970.99,-103.59 968.39,-110.09"/>
</a>
</g>
</g>
<!-- Node38&#45;&gt;Node7 -->
<g id="edge48_Node000038_Node000007" class="edge">
<title>Node38&#45;&gt;Node7</title>
<g id="a_edge48_Node000038_Node000007"><a xlink:title=" ">
<path fill="none" stroke="#63b8ff" d="M687.56,-201.57C706.22,-202.04 726.94,-202.57 746.41,-203.07"/>
<polygon fill="#63b8ff" stroke="#63b8ff" points="746.31,-206.59 756.39,-203.35 746.49,-199.6 746.31,-206.59"/>
</a>
</g>
</g>
<!-- Node38&#45;&gt;Node20 -->
<g id="edge49_Node000038_Node000020" class="edge">
<title>Node38&#45;&gt;Node20</title>
<g id="a_edge49_Node000038_Node000020"><a xlink:title=" ">
<path fill="none" stroke="#63b8ff" d="M678.62,-189.55C703.32,-184.63 732.97,-178.73 758.89,-173.57"/>
<polygon fill="#63b8ff" stroke="#63b8ff" points="759.24,-176.87 768.36,-171.48 757.87,-170 759.24,-176.87"/>
</a>
</g>
</g>
<!-- Node39&#45;&gt;Node8 -->
<g id="edge51_Node000039_Node000008" class="edge">
<title>Node39&#45;&gt;Node8</title>
<g id="a_edge51_Node000039_Node000008"><a xlink:title=" ">
<path fill="none" stroke="#63b8ff" d="M694.63,-441.69C712.72,-443.73 732.27,-445.92 750.51,-447.97"/>
<polygon fill="#63b8ff" stroke="#63b8ff" points="750.04,-451.55 760.37,-449.19 750.82,-444.6 750.04,-451.55"/>
</a>
</g>
</g>
</g>
</svg>
