<?xml version="1.0" encoding="UTF-8" standalone="no"?>
<!DOCTYPE svg PUBLIC "-//W3C//DTD SVG 1.1//EN"
 "http://www.w3.org/Graphics/SVG/1.1/DTD/svg11.dtd">
<!-- Generated by graphviz version 9.0.0 (20230911.1827)
 -->
<!-- Title: WinPosWnd::create Pages: 1 -->
<svg width="691pt" height="373pt"
 viewBox="0.00 0.00 690.75 373.33" xmlns="http://www.w3.org/2000/svg" xmlns:xlink="http://www.w3.org/1999/xlink">
<g id="graph0" class="graph" transform="scale(1 1) rotate(0) translate(4 369.33)">
<title>WinPosWnd::create</title>
<!-- Node1 -->
<g id="Node000001" class="node">
<title>Node1</title>
<g id="a_Node000001"><a xlink:title="create the required windows for monitor preview and all configured positions">
<polygon fill="#999999" stroke="#666666" points="103.75,-213.33 0,-213.33 0,-193.33 103.75,-193.33 103.75,-213.33"/>
<text text-anchor="middle" x="51.88" y="-199.83" font-family="Helvetica,sans-Serif" font-size="10.00">WinPosWnd::create</text>
</a>
</g>
</g>
<!-- Node2 -->
<g id="Node000002" class="node">
<title>Node2</title>
<g id="a_Node000002"><a xlink:href="class_win_pos_wnd.html#a4b607f031e5058874a31918e4cc1ba79" target="_top" xlink:title="if the window looks beyond the edge of the monitor, it is moved so that it is displayed as a whole on...">
<polygon fill="white" stroke="#666666" points="299.75,-365.33 144.25,-365.33 144.25,-345.33 299.75,-345.33 299.75,-365.33"/>
<text text-anchor="middle" x="222" y="-351.83" font-family="Helvetica,sans-Serif" font-size="10.00">WinPosWnd::correctEdgecases</text>
</a>
</g>
</g>
<!-- Node1&#45;&gt;Node2 -->
<g id="edge1_Node000001_Node000002" class="edge">
<title>Node1&#45;&gt;Node2</title>
<g id="a_edge1_Node000001_Node000002"><a xlink:title=" ">
<path fill="none" stroke="#63b8ff" d="M56.47,-213.57C65.86,-238.76 93.67,-304.05 139.75,-336.33 141.57,-337.61 143.47,-338.8 145.43,-339.91"/>
<polygon fill="#63b8ff" stroke="#63b8ff" points="143.74,-342.98 154.27,-344.19 146.79,-336.68 143.74,-342.98"/>
</a>
</g>
</g>
<!-- Node3 -->
<g id="Node000003" class="node">
<title>Node3</title>
<g id="a_Node000003"><a xlink:href="class_win_pos_wnd.html#a8abc6edd027488d4f7242b9f12693af8" target="_top" xlink:title="destroys every windows">
<polygon fill="white" stroke="#666666" points="276.5,-327.33 167.5,-327.33 167.5,-307.33 276.5,-307.33 276.5,-327.33"/>
<text text-anchor="middle" x="222" y="-313.83" font-family="Helvetica,sans-Serif" font-size="10.00">WinPosWnd::destroy</text>
</a>
</g>
</g>
<!-- Node1&#45;&gt;Node3 -->
<g id="edge2_Node000001_Node000003" class="edge">
<title>Node1&#45;&gt;Node3</title>
<g id="a_edge2_Node000001_Node000003"><a xlink:title=" ">
<path fill="none" stroke="#63b8ff" d="M59.31,-213.8C72.05,-233.6 102.53,-276.53 139.75,-298.33 144.98,-301.4 150.68,-303.97 156.55,-306.12"/>
<polygon fill="#63b8ff" stroke="#63b8ff" points="155.2,-309.36 165.79,-309.11 157.35,-302.7 155.2,-309.36"/>
</a>
</g>
</g>
<!-- Node4 -->
<g id="Node000004" class="node">
<title>Node4</title>
<g id="a_Node000004"><a xlink:href="class_win_pos_wnd_cfg.html#afe04626c840dd23b6b063f58bcb06dce" target="_top" xlink:title=" ">
<polygon fill="white" stroke="#666666" points="682.75,-185.33 519,-185.33 519,-165.33 682.75,-165.33 682.75,-185.33"/>
<text text-anchor="middle" x="600.88" y="-171.83" font-family="Helvetica,sans-Serif" font-size="10.00">WinPosWndCfg::getCloseTimeout</text>
</a>
</g>
</g>
<!-- Node1&#45;&gt;Node4 -->
<g id="edge3_Node000001_Node000004" class="edge">
<title>Node1&#45;&gt;Node4</title>
<g id="a_edge3_Node000001_Node000004"><a xlink:title=" ">
<path fill="none" stroke="#63b8ff" d="M103.84,-200.72C195.99,-196 391.48,-186 507.64,-180.05"/>
<polygon fill="#63b8ff" stroke="#63b8ff" points="507.65,-183.55 517.46,-179.55 507.29,-176.56 507.65,-183.55"/>
</a>
</g>
</g>
<!-- Node5 -->
<g id="Node000005" class="node">
<title>Node5</title>
<g id="a_Node000005"><a xlink:href="class_win_pos_wnd_cfg.html#a10a73295ae59c85d651ad0088b235125" target="_top" xlink:title=" ">
<polygon fill="white" stroke="#666666" points="293,-251.33 151,-251.33 151,-231.33 293,-231.33 293,-251.33"/>
<text text-anchor="middle" x="222" y="-237.83" font-family="Helvetica,sans-Serif" font-size="10.00">WinPosWndCfg::getMonitors</text>
</a>
</g>
</g>
<!-- Node1&#45;&gt;Node5 -->
<g id="edge4_Node000001_Node000005" class="edge">
<title>Node1&#45;&gt;Node5</title>
<g id="a_edge4_Node000001_Node000005"><a xlink:title=" ">
<path fill="none" stroke="#63b8ff" d="M99.26,-213.81C119.2,-218.32 142.7,-223.63 163.71,-228.38"/>
<polygon fill="#63b8ff" stroke="#63b8ff" points="162.76,-231.75 173.29,-230.55 164.31,-224.93 162.76,-231.75"/>
</a>
</g>
</g>
<!-- Node6 -->
<g id="Node000006" class="node">
<title>Node6</title>
<g id="a_Node000006"><a xlink:href="class_win_pos_wnd_cfg.html#a1fd1c1c55716a4697a044ae0671cf2aa" target="_top" xlink:title=" ">
<polygon fill="white" stroke="#666666" points="665.5,-81.33 536.25,-81.33 536.25,-61.33 665.5,-61.33 665.5,-81.33"/>
<text text-anchor="middle" x="600.88" y="-67.83" font-family="Helvetica,sans-Serif" font-size="10.00">WinPosWndCfg::getScale</text>
</a>
</g>
</g>
<!-- Node1&#45;&gt;Node6 -->
<g id="edge5_Node000001_Node000006" class="edge">
<title>Node1&#45;&gt;Node6</title>
<g id="a_edge5_Node000001_Node000006"><a xlink:title=" ">
<path fill="none" stroke="#63b8ff" d="M54.61,-193.22C60.34,-163.3 81.74,-75.15 139.75,-40.33 278.26,42.8 484.24,-24.36 565.31,-56.55"/>
<polygon fill="#63b8ff" stroke="#63b8ff" points="563.92,-59.76 574.5,-60.27 566.55,-53.27 563.92,-59.76"/>
</a>
</g>
</g>
<!-- Node7 -->
<g id="Node000007" class="node">
<title>Node7</title>
<g id="a_Node000007"><a xlink:href="class_win_pos_wnd.html#a159d04333920b8b0ab3b8ecc6f6607dd" target="_top" xlink:title=" ">
<polygon fill="white" stroke="#666666" points="304.25,-175.33 139.75,-175.33 139.75,-155.33 304.25,-155.33 304.25,-175.33"/>
<text text-anchor="middle" x="222" y="-161.83" font-family="Helvetica,sans-Serif" font-size="10.00">WinPosWnd::getTotalPreviewRect</text>
</a>
</g>
</g>
<!-- Node1&#45;&gt;Node7 -->
<g id="edge6_Node000001_Node000007" class="edge">
<title>Node1&#45;&gt;Node7</title>
<g id="a_edge6_Node000001_Node000007"><a xlink:title=" ">
<path fill="none" stroke="#63b8ff" d="M99.26,-192.84C119.2,-188.34 142.7,-183.03 163.71,-178.28"/>
<polygon fill="#63b8ff" stroke="#63b8ff" points="164.31,-181.73 173.29,-176.11 162.76,-174.9 164.31,-181.73"/>
</a>
</g>
</g>
<!-- Node8 -->
<g id="Node000008" class="node">
<title>Node8</title>
<g id="a_Node000008"><a xlink:href="class_win_pos_wnd.html#a86ca33ea895961e25e6c1601e420f40e" target="_top" xlink:title="initialize the WNDCLASS structure">
<polygon fill="white" stroke="#666666" points="289.25,-289.33 154.75,-289.33 154.75,-269.33 289.25,-269.33 289.25,-289.33"/>
<text text-anchor="middle" x="222" y="-275.83" font-family="Helvetica,sans-Serif" font-size="10.00">WinPosWnd::initWndClass</text>
</a>
</g>
</g>
<!-- Node1&#45;&gt;Node8 -->
<g id="edge7_Node000001_Node000008" class="edge">
<title>Node1&#45;&gt;Node8</title>
<g id="a_edge7_Node000001_Node000008"><a xlink:title=" ">
<path fill="none" stroke="#63b8ff" d="M65.59,-213.76C81.82,-226.57 111.24,-248.1 139.75,-260.33 144.29,-262.28 149.06,-264.04 153.93,-265.64"/>
<polygon fill="#63b8ff" stroke="#63b8ff" points="152.63,-268.9 163.21,-268.44 154.65,-262.2 152.63,-268.9"/>
</a>
</g>
</g>
<!-- Node11 -->
<g id="Node000011" class="node">
<title>Node11</title>
<g id="a_Node000011"><a xlink:href="struct_win_pos_wnd_1_1_monitor_preview.html#a01fe1b4351422928e43305d1758ae6fb" target="_top" xlink:title="move the rectangle to the cursor position">
<polygon fill="white" stroke="#666666" points="293,-81.33 151,-81.33 151,-49.33 293,-49.33 293,-81.33"/>
<text text-anchor="start" x="159" y="-67.83" font-family="Helvetica,sans-Serif" font-size="10.00">WinPosWnd::MonitorPreview</text>
<text text-anchor="middle" x="222" y="-55.83" font-family="Helvetica,sans-Serif" font-size="10.00">::offsetToPt</text>
</a>
</g>
</g>
<!-- Node1&#45;&gt;Node11 -->
<g id="edge10_Node000001_Node000011" class="edge">
<title>Node1&#45;&gt;Node11</title>
<g id="a_edge10_Node000001_Node000011"><a xlink:title=" ">
<path fill="none" stroke="#63b8ff" d="M58.03,-192.86C69.54,-170.59 99.5,-118.27 139.75,-90.33 141.52,-89.1 143.36,-87.93 145.24,-86.81"/>
<polygon fill="#63b8ff" stroke="#63b8ff" points="146.45,-90.13 153.68,-82.39 143.2,-83.93 146.45,-90.13"/>
</a>
</g>
</g>
<!-- Node12 -->
<g id="Node000012" class="node">
<title>Node12</title>
<g id="a_Node000012"><a xlink:href="class_win_pos_wnd_cfg.html#a038475d40481960d701d09f6e39467c8" target="_top" xlink:title=" ">
<polygon fill="white" stroke="#666666" points="290.38,-119.33 153.62,-119.33 153.62,-99.33 290.38,-99.33 290.38,-119.33"/>
<text text-anchor="middle" x="222" y="-105.83" font-family="Helvetica,sans-Serif" font-size="10.00">WinPosWndCfg::readConfig</text>
</a>
</g>
</g>
<!-- Node1&#45;&gt;Node12 -->
<g id="edge11_Node000001_Node000012" class="edge">
<title>Node1&#45;&gt;Node12</title>
<g id="a_edge11_Node000001_Node000012"><a xlink:title=" ">
<path fill="none" stroke="#63b8ff" d="M67.21,-192.94C84.09,-180.94 113.21,-160.96 139.75,-146.33 154.24,-138.34 170.78,-130.57 185.14,-124.24"/>
<polygon fill="#63b8ff" stroke="#63b8ff" points="186.45,-127.49 194.23,-120.3 183.67,-121.06 186.45,-127.49"/>
</a>
</g>
</g>
<!-- Node9 -->
<g id="Node000009" class="node">
<title>Node9</title>
<g id="a_Node000009"><a xlink:href="class_win_pos_wnd.html#a104a18975fac2ac85a75eabda629ddb2" target="_top" xlink:title="static WNDPROC. Forwards to the WinPosWnd instances.">
<polygon fill="white" stroke="#666666" points="483,-289.33 340.25,-289.33 340.25,-269.33 483,-269.33 483,-289.33"/>
<text text-anchor="middle" x="411.62" y="-275.83" font-family="Helvetica,sans-Serif" font-size="10.00">WinPosWnd::WndProcStatic</text>
</a>
</g>
</g>
<!-- Node8&#45;&gt;Node9 -->
<g id="edge8_Node000008_Node000009" class="edge">
<title>Node8&#45;&gt;Node9</title>
<g id="a_edge8_Node000008_Node000009"><a xlink:title=" ">
<path fill="none" stroke="#63b8ff" d="M289.68,-279.33C302.31,-279.33 315.65,-279.33 328.68,-279.33"/>
<polygon fill="#63b8ff" stroke="#63b8ff" points="328.52,-282.83 338.52,-279.33 328.52,-275.83 328.52,-282.83"/>
</a>
</g>
</g>
<!-- Node10 -->
<g id="Node000010" class="node">
<title>Node10</title>
<g id="a_Node000010"><a xlink:href="class_win_pos_wnd.html#a5ad8686caf3b8310fff6d4bec255f898" target="_top" xlink:title="get the instance of WinPosWnd to a window handle">
<polygon fill="white" stroke="#666666" points="673.38,-289.33 528.38,-289.33 528.38,-269.33 673.38,-269.33 673.38,-289.33"/>
<text text-anchor="middle" x="600.88" y="-275.83" font-family="Helvetica,sans-Serif" font-size="10.00">WinPosWnd::getWinPosWnd</text>
</a>
</g>
</g>
<!-- Node9&#45;&gt;Node10 -->
<g id="edge9_Node000009_Node000010" class="edge">
<title>Node9&#45;&gt;Node10</title>
<g id="a_edge9_Node000009_Node000010"><a xlink:title=" ">
<path fill="none" stroke="#63b8ff" d="M483.42,-279.33C494.25,-279.33 505.53,-279.33 516.6,-279.33"/>
<polygon fill="#63b8ff" stroke="#63b8ff" points="516.54,-282.83 526.54,-279.33 516.54,-275.83 516.54,-282.83"/>
</a>
</g>
</g>
<!-- Node12&#45;&gt;Node6 -->
<g id="edge13_Node000012_Node000006" class="edge">
<title>Node12&#45;&gt;Node6</title>
<g id="a_edge13_Node000012_Node000006"><a xlink:title=" ">
<path fill="none" stroke="#63b8ff" d="M290.81,-102.49C356.76,-95.84 456.71,-85.76 524.97,-78.88"/>
<polygon fill="#63b8ff" stroke="#63b8ff" points="524.96,-82.4 534.56,-77.92 524.25,-75.44 524.96,-82.4"/>
</a>
</g>
</g>
<!-- Node12&#45;&gt;Node12 -->
<g id="edge14_Node000012_Node000012" class="edge">
<title>Node12&#45;&gt;Node12</title>
<g id="a_edge14_Node000012_Node000012"><a xlink:title=" ">
<path fill="none" stroke="#63b8ff" d="M194.97,-119.67C183.42,-128.3 192.43,-137.33 222,-137.33 238.17,-137.33 248.2,-134.63 252.07,-130.77"/>
<polygon fill="#63b8ff" stroke="#63b8ff" points="255.45,-129.85 249.43,-121.13 248.69,-131.7 255.45,-129.85"/>
</a>
</g>
</g>
<!-- Node13 -->
<g id="Node000013" class="node">
<title>Node13</title>
<g id="a_Node000013"><a xlink:href="class_win_pos_wnd_cfg.html#a93944e9bbc627a502d59f845b3b1e827" target="_top" xlink:title=" ">
<polygon fill="white" stroke="#666666" points="676.75,-119.33 525,-119.33 525,-99.33 676.75,-99.33 676.75,-119.33"/>
<text text-anchor="middle" x="600.88" y="-105.83" font-family="Helvetica,sans-Serif" font-size="10.00">WinPosWndCfg::getConfigPath</text>
</a>
</g>
</g>
<!-- Node12&#45;&gt;Node13 -->
<g id="edge12_Node000012_Node000013" class="edge">
<title>Node12&#45;&gt;Node13</title>
<g id="a_edge12_Node000012_Node000013"><a xlink:title=" ">
<path fill="none" stroke="#63b8ff" d="M290.81,-109.33C353.02,-109.33 445.47,-109.33 513.05,-109.33"/>
<polygon fill="#63b8ff" stroke="#63b8ff" points="513.01,-112.83 523.01,-109.33 513.01,-105.83 513.01,-112.83"/>
</a>
</g>
</g>
<!-- Node14 -->
<g id="Node000014" class="node">
<title>Node14</title>
<g id="a_Node000014"><a xlink:href="class_win_pos_wnd_cfg.html#a2e024dd316be8cf377996f7be3017acd" target="_top" xlink:title=" ">
<polygon fill="white" stroke="#666666" points="480.75,-157.33 342.5,-157.33 342.5,-137.33 480.75,-137.33 480.75,-157.33"/>
<text text-anchor="middle" x="411.62" y="-143.83" font-family="Helvetica,sans-Serif" font-size="10.00">WinPosWndCfg::writeConfig</text>
</a>
</g>
</g>
<!-- Node12&#45;&gt;Node14 -->
<g id="edge15_Node000012_Node000014" class="edge">
<title>Node12&#45;&gt;Node14</title>
<g id="a_edge15_Node000012_Node000014"><a xlink:title=" ">
<path fill="none" stroke="#63b8ff" d="M274.77,-119.81C297.43,-124.4 324.21,-129.83 347.99,-134.64"/>
<polygon fill="#63b8ff" stroke="#63b8ff" points="347.05,-138.02 357.54,-136.58 348.44,-131.16 347.05,-138.02"/>
</a>
</g>
</g>
<!-- Node14&#45;&gt;Node4 -->
<g id="edge16_Node000014_Node000004" class="edge">
<title>Node14&#45;&gt;Node4</title>
<g id="a_edge16_Node000014_Node000004"><a xlink:title=" ">
<path fill="none" stroke="#63b8ff" d="M481.02,-157.56C493.18,-159.37 505.95,-161.28 518.43,-163.15"/>
<polygon fill="#63b8ff" stroke="#63b8ff" points="517.88,-166.61 528.28,-164.62 518.91,-159.68 517.88,-166.61"/>
</a>
</g>
</g>
<!-- Node14&#45;&gt;Node6 -->
<g id="edge18_Node000014_Node000006" class="edge">
<title>Node14&#45;&gt;Node6</title>
<g id="a_edge18_Node000014_Node000006"><a xlink:title=" ">
<path fill="none" stroke="#63b8ff" d="M428.93,-136.84C449.28,-124.17 485.49,-102.99 519,-90.33 524.34,-88.31 529.97,-86.46 535.66,-84.78"/>
<polygon fill="#63b8ff" stroke="#63b8ff" points="536.47,-88.18 545.18,-82.15 534.61,-81.44 536.47,-88.18"/>
</a>
</g>
</g>
<!-- Node14&#45;&gt;Node13 -->
<g id="edge17_Node000014_Node000013" class="edge">
<title>Node14&#45;&gt;Node13</title>
<g id="a_edge17_Node000014_Node000013"><a xlink:title=" ">
<path fill="none" stroke="#63b8ff" d="M464.29,-136.84C486.9,-132.26 513.64,-126.83 537.36,-122.02"/>
<polygon fill="#63b8ff" stroke="#63b8ff" points="537.79,-125.5 546.9,-120.08 536.4,-118.64 537.79,-125.5"/>
</a>
</g>
</g>
</g>
</svg>
