<?xml version="1.0" encoding="UTF-8" standalone="no"?>
<!DOCTYPE svg PUBLIC "-//W3C//DTD SVG 1.1//EN"
 "http://www.w3.org/Graphics/SVG/1.1/DTD/svg11.dtd">
<!-- Generated by graphviz version 9.0.0 (20230911.1827)
 -->
<!-- Title: WinPosWndCfg Pages: 1 -->
<svg width="431pt" height="473pt"
 viewBox="0.00 0.00 431.00 473.00" xmlns="http://www.w3.org/2000/svg" xmlns:xlink="http://www.w3.org/1999/xlink">
<g id="graph0" class="graph" transform="scale(1 1) rotate(0) translate(4 469)">
<title>WinPosWndCfg</title>
<!-- Node1 -->
<g id="Node000001" class="node">
<title>Node1</title>
<g id="a_Node000001"><a xlink:title=" ">
<polygon fill="#999999" stroke="#666666" points="229.25,-20 144.25,-20 144.25,0 229.25,0 229.25,-20"/>
<text text-anchor="middle" x="186.75" y="-6.5" font-family="Helvetica,sans-Serif" font-size="10.00">WinPosWndCfg</text>
</a>
</g>
</g>
<!-- Node2 -->
<g id="Node000002" class="node">
<title>Node2</title>
<g id="a_Node000002"><a xlink:title=" ">
<polygon fill="white" stroke="#666666" points="116.25,-88 79.25,-88 79.25,-68 116.25,-68 116.25,-88"/>
<text text-anchor="middle" x="97.75" y="-74.5" font-family="Helvetica,sans-Serif" font-size="10.00">UINT</text>
</a>
</g>
</g>
<!-- Node2&#45;&gt;Node1 -->
<g id="edge1_Node000001_Node000002" class="edge">
<title>Node2&#45;&gt;Node1</title>
<g id="a_edge1_Node000001_Node000002"><a xlink:title=" ">
<path fill="none" stroke="#9a32cd" stroke-dasharray="5,2" d="M104.03,-57.12C106.99,-50.33 111.13,-43.16 116.75,-38 125.29,-30.16 136.35,-24.51 147.15,-20.47"/>
<polygon fill="#9a32cd" stroke="#9a32cd" points="100.8,-55.75 100.64,-66.35 107.37,-58.17 100.8,-55.75"/>
</a>
</g>
<text text-anchor="middle" x="149.75" y="-40.5" font-family="Helvetica,sans-Serif" font-size="10.00" fill="grey"> _closeTimeout</text>
</g>
<!-- Node3 -->
<g id="Node000003" class="node">
<title>Node3</title>
<g id="a_Node000003"><a xlink:title=" ">
<polygon fill="white" stroke="#666666" points="210.12,-88 163.38,-88 163.38,-68 210.12,-68 210.12,-88"/>
<text text-anchor="middle" x="186.75" y="-74.5" font-family="Helvetica,sans-Serif" font-size="10.00">FLOAT</text>
</a>
</g>
</g>
<!-- Node3&#45;&gt;Node1 -->
<g id="edge2_Node000001_Node000003" class="edge">
<title>Node3&#45;&gt;Node1</title>
<g id="a_edge2_Node000001_Node000003"><a xlink:title=" ">
<path fill="none" stroke="#9a32cd" stroke-dasharray="5,2" d="M186.75,-56.28C186.75,-44.27 186.75,-29.74 186.75,-20.44"/>
<polygon fill="#9a32cd" stroke="#9a32cd" points="183.25,-56.03 186.75,-66.03 190.25,-56.03 183.25,-56.03"/>
</a>
</g>
<text text-anchor="middle" x="202.5" y="-40.5" font-family="Helvetica,sans-Serif" font-size="10.00" fill="grey"> _scale</text>
</g>
<!-- Node4 -->
<g id="Node000004" class="node">
<title>Node4</title>
<g id="a_Node000004"><a xlink:title=" ">
<polygon fill="white" stroke="#666666" points="366.88,-88 228.62,-88 228.62,-68 366.88,-68 366.88,-88"/>
<text text-anchor="middle" x="297.75" y="-74.5" font-family="Helvetica,sans-Serif" font-size="10.00">std::vector&lt; MonitorConfig &gt;</text>
</a>
</g>
</g>
<!-- Node4&#45;&gt;Node1 -->
<g id="edge3_Node000001_Node000004" class="edge">
<title>Node4&#45;&gt;Node1</title>
<g id="a_edge3_Node000001_Node000004"><a xlink:title=" ">
<path fill="none" stroke="#9a32cd" stroke-dasharray="5,2" d="M272.09,-61.74C250.64,-48.99 220.75,-31.21 202.62,-20.44"/>
<polygon fill="#9a32cd" stroke="#9a32cd" points="270.16,-64.67 280.55,-66.77 273.74,-58.65 270.16,-64.67"/>
</a>
</g>
<text text-anchor="middle" x="274.62" y="-40.5" font-family="Helvetica,sans-Serif" font-size="10.00" fill="grey"> _monitors</text>
</g>
<!-- Node5 -->
<g id="Node000005" class="node">
<title>Node5</title>
<g id="a_Node000005"><a xlink:href="struct_win_pos_wnd_cfg_1_1_monitor_config.html" target="_top" xlink:title=" ">
<polygon fill="white" stroke="#666666" points="213.88,-156 63.62,-156 63.62,-136 213.88,-136 213.88,-156"/>
<text text-anchor="middle" x="138.75" y="-142.5" font-family="Helvetica,sans-Serif" font-size="10.00">WinPosWndCfg::MonitorConfig</text>
</a>
</g>
</g>
<!-- Node5&#45;&gt;Node4 -->
<g id="edge4_Node000004_Node000005" class="edge">
<title>Node5&#45;&gt;Node4</title>
<g id="a_edge4_Node000004_Node000005"><a xlink:title=" ">
<path fill="none" stroke="#9a32cd" stroke-dasharray="5,2" d="M171.8,-131.28C202.69,-118.46 247.99,-99.65 275.01,-88.44"/>
<polygon fill="#9a32cd" stroke="#9a32cd" points="170.82,-127.9 162.93,-134.96 173.51,-134.36 170.82,-127.9"/>
</a>
</g>
<text text-anchor="middle" x="253.12" y="-108.5" font-family="Helvetica,sans-Serif" font-size="10.00" fill="grey"> elements</text>
</g>
<!-- Node6 -->
<g id="Node000006" class="node">
<title>Node6</title>
<g id="a_Node000006"><a xlink:title=" ">
<polygon fill="white" stroke="#666666" points="41.5,-396 0,-396 0,-376 41.5,-376 41.5,-396"/>
<text text-anchor="middle" x="20.75" y="-382.5" font-family="Helvetica,sans-Serif" font-size="10.00">RECT</text>
</a>
</g>
</g>
<!-- Node6&#45;&gt;Node5 -->
<g id="edge5_Node000005_Node000006" class="edge">
<title>Node6&#45;&gt;Node5</title>
<g id="a_edge5_Node000005_Node000006"><a xlink:title=" ">
<path fill="none" stroke="#9a32cd" stroke-dasharray="5,2" d="M18.29,-364.62C15.74,-335.73 14.51,-281.92 34.25,-242 53.92,-202.22 98.01,-171.2 122.16,-156.44"/>
<polygon fill="#9a32cd" stroke="#9a32cd" points="14.77,-364.6 19.29,-374.19 21.73,-363.88 14.77,-364.6"/>
</a>
</g>
<text text-anchor="middle" x="62.5" y="-256.5" font-family="Helvetica,sans-Serif" font-size="10.00" fill="grey"> monitorRect</text>
<text text-anchor="middle" x="62.5" y="-244.5" font-family="Helvetica,sans-Serif" font-size="10.00" fill="grey">previewRect</text>
</g>
<!-- Node11 -->
<g id="Node000011" class="node">
<title>Node11</title>
<g id="a_Node000011"><a xlink:href="struct_win_pos_wnd_cfg_1_1_pos_preview_config.html" target="_top" xlink:title=" ">
<polygon fill="white" stroke="#666666" points="255.38,-316 114.12,-316 114.12,-284 255.38,-284 255.38,-316"/>
<text text-anchor="start" x="122.12" y="-302.5" font-family="Helvetica,sans-Serif" font-size="10.00">WinPosWndCfg::PosPreview</text>
<text text-anchor="middle" x="184.75" y="-290.5" font-family="Helvetica,sans-Serif" font-size="10.00">Config</text>
</a>
</g>
</g>
<!-- Node6&#45;&gt;Node11 -->
<g id="edge11_Node000011_Node000006" class="edge">
<title>Node6&#45;&gt;Node11</title>
<g id="a_edge11_Node000011_Node000006"><a xlink:title=" ">
<path fill="none" stroke="#9a32cd" stroke-dasharray="5,2" d="M38.1,-368.19C50.22,-357.2 67.21,-343.24 84.25,-334 97.16,-327 111.82,-321.15 125.87,-316.41"/>
<polygon fill="#9a32cd" stroke="#9a32cd" points="35.89,-365.46 30.97,-374.84 40.67,-370.58 35.89,-365.46"/>
</a>
</g>
<text text-anchor="middle" x="102.5" y="-348.5" font-family="Helvetica,sans-Serif" font-size="10.00" fill="grey"> prvRect</text>
<text text-anchor="middle" x="102.5" y="-336.5" font-family="Helvetica,sans-Serif" font-size="10.00" fill="grey">wndRect</text>
</g>
<!-- Node7 -->
<g id="Node000007" class="node">
<title>Node7</title>
<g id="a_Node000007"><a xlink:title=" ">
<polygon fill="white" stroke="#666666" points="127.5,-396 68,-396 68,-376 127.5,-376 127.5,-396"/>
<text text-anchor="middle" x="97.75" y="-382.5" font-family="Helvetica,sans-Serif" font-size="10.00">std::string</text>
</a>
</g>
</g>
<!-- Node7&#45;&gt;Node5 -->
<g id="edge6_Node000005_Node000007" class="edge">
<title>Node7&#45;&gt;Node5</title>
<g id="a_edge6_Node000005_Node000007"><a xlink:title=" ">
<path fill="none" stroke="#9a32cd" stroke-dasharray="5,2" d="M95.32,-364.5C91.97,-330.38 88.1,-260.14 104.75,-204 110.19,-185.66 122.87,-167.14 131.11,-156.38"/>
<polygon fill="#9a32cd" stroke="#9a32cd" points="91.81,-364.63 96.37,-374.2 98.77,-363.88 91.81,-364.63"/>
</a>
</g>
<text text-anchor="middle" x="110.75" y="-256.5" font-family="Helvetica,sans-Serif" font-size="10.00" fill="grey"> device</text>
<text text-anchor="middle" x="110.75" y="-244.5" font-family="Helvetica,sans-Serif" font-size="10.00" fill="grey">name</text>
</g>
<!-- Node7&#45;&gt;Node11 -->
<g id="edge12_Node000011_Node000007" class="edge">
<title>Node7&#45;&gt;Node11</title>
<g id="a_edge12_Node000011_Node000007"><a xlink:title=" ">
<path fill="none" stroke="#9a32cd" stroke-dasharray="5,2" d="M115.28,-368.08C130.96,-352.94 153.73,-330.95 168.88,-316.32"/>
<polygon fill="#9a32cd" stroke="#9a32cd" points="113.24,-365.17 108.48,-374.64 118.11,-370.21 113.24,-365.17"/>
</a>
</g>
<text text-anchor="middle" x="162.25" y="-342.5" font-family="Helvetica,sans-Serif" font-size="10.00" fill="grey"> name</text>
</g>
<!-- Node8 -->
<g id="Node000008" class="node">
<title>Node8</title>
<g id="a_Node000008"><a xlink:title=" ">
<polygon fill="white" stroke="#666666" points="144.75,-465 50.75,-465 50.75,-433 144.75,-433 144.75,-465"/>
<text text-anchor="start" x="58.75" y="-451.5" font-family="Helvetica,sans-Serif" font-size="10.00">std::basic_string&lt;</text>
<text text-anchor="middle" x="97.75" y="-439.5" font-family="Helvetica,sans-Serif" font-size="10.00"> Char &gt;</text>
</a>
</g>
</g>
<!-- Node8&#45;&gt;Node7 -->
<g id="edge7_Node000007_Node000008" class="edge">
<title>Node8&#45;&gt;Node7</title>
<g id="a_edge7_Node000007_Node000008"><a xlink:title=" ">
<path fill="none" stroke="#63b8ff" d="M97.75,-421.36C97.75,-412.41 97.75,-403.01 97.75,-396.31"/>
<polygon fill="#63b8ff" stroke="#63b8ff" points="94.25,-421.09 97.75,-431.09 101.25,-421.09 94.25,-421.09"/>
</a>
</g>
</g>
<!-- Node9 -->
<g id="Node000009" class="node">
<title>Node9</title>
<g id="a_Node000009"><a xlink:title=" ">
<polygon fill="white" stroke="#666666" points="164,-224 113.5,-224 113.5,-204 164,-204 164,-224"/>
<text text-anchor="middle" x="138.75" y="-210.5" font-family="Helvetica,sans-Serif" font-size="10.00">uint32_t</text>
</a>
</g>
</g>
<!-- Node9&#45;&gt;Node5 -->
<g id="edge8_Node000005_Node000009" class="edge">
<title>Node9&#45;&gt;Node5</title>
<g id="a_edge8_Node000005_Node000009"><a xlink:title=" ">
<path fill="none" stroke="#9a32cd" stroke-dasharray="5,2" d="M138.75,-192.28C138.75,-180.27 138.75,-165.74 138.75,-156.44"/>
<polygon fill="#9a32cd" stroke="#9a32cd" points="135.25,-192.03 138.75,-202.03 142.25,-192.03 135.25,-192.03"/>
</a>
</g>
<text text-anchor="middle" x="151.88" y="-176.5" font-family="Helvetica,sans-Serif" font-size="10.00" fill="grey"> index</text>
</g>
<!-- Node10 -->
<g id="Node000010" class="node">
<title>Node10</title>
<g id="a_Node000010"><a xlink:title=" ">
<polygon fill="white" stroke="#666666" points="337.88,-224 181.62,-224 181.62,-204 337.88,-204 337.88,-224"/>
<text text-anchor="middle" x="259.75" y="-210.5" font-family="Helvetica,sans-Serif" font-size="10.00">std::vector&lt; PosPreviewConfig &gt;</text>
</a>
</g>
</g>
<!-- Node10&#45;&gt;Node5 -->
<g id="edge9_Node000005_Node000010" class="edge">
<title>Node10&#45;&gt;Node5</title>
<g id="a_edge9_Node000005_Node000010"><a xlink:title=" ">
<path fill="none" stroke="#9a32cd" stroke-dasharray="5,2" d="M232.41,-198.09C208.99,-185.32 175.99,-167.31 156.05,-156.44"/>
<polygon fill="#9a32cd" stroke="#9a32cd" points="230.63,-201.1 241.08,-202.82 233.98,-194.96 230.63,-201.1"/>
</a>
</g>
<text text-anchor="middle" x="229.62" y="-176.5" font-family="Helvetica,sans-Serif" font-size="10.00" fill="grey"> previews</text>
</g>
<!-- Node11&#45;&gt;Node10 -->
<g id="edge10_Node000010_Node000011" class="edge">
<title>Node11&#45;&gt;Node10</title>
<g id="a_edge10_Node000010_Node000011"><a xlink:title=" ">
<path fill="none" stroke="#9a32cd" stroke-dasharray="5,2" d="M182.06,-272.18C182.37,-261.83 184.52,-250.47 191,-242 197.08,-234.06 205.83,-228.44 215.07,-224.48"/>
<polygon fill="#9a32cd" stroke="#9a32cd" points="178.56,-272.22 182.35,-282.11 185.56,-272.02 178.56,-272.22"/>
</a>
</g>
<text text-anchor="middle" x="212.12" y="-250.5" font-family="Helvetica,sans-Serif" font-size="10.00" fill="grey"> elements</text>
</g>
<!-- Node12 -->
<g id="Node000012" class="node">
<title>Node12</title>
<g id="a_Node000012"><a xlink:title=" ">
<polygon fill="white" stroke="#666666" points="204,-396 165.5,-396 165.5,-376 204,-376 204,-396"/>
<text text-anchor="middle" x="184.75" y="-382.5" font-family="Helvetica,sans-Serif" font-size="10.00">Units</text>
</a>
</g>
</g>
<!-- Node12&#45;&gt;Node11 -->
<g id="edge13_Node000011_Node000012" class="edge">
<title>Node12&#45;&gt;Node11</title>
<g id="a_edge13_Node000011_Node000012"><a xlink:title=" ">
<path fill="none" stroke="#9a32cd" stroke-dasharray="5,2" d="M184.75,-364.61C184.75,-349.72 184.75,-329.86 184.75,-316.32"/>
<polygon fill="#9a32cd" stroke="#9a32cd" points="181.25,-364.18 184.75,-374.18 188.25,-364.18 181.25,-364.18"/>
</a>
</g>
<text text-anchor="middle" x="196.75" y="-342.5" font-family="Helvetica,sans-Serif" font-size="10.00" fill="grey"> units</text>
</g>
<!-- Node13 -->
<g id="Node000013" class="node">
<title>Node13</title>
<g id="a_Node000013"><a xlink:title=" ">
<polygon fill="white" stroke="#666666" points="382.88,-310 298.62,-310 298.62,-290 382.88,-290 382.88,-310"/>
<text text-anchor="middle" x="340.75" y="-296.5" font-family="Helvetica,sans-Serif" font-size="10.00">std::vector&lt; T &gt;</text>
</a>
</g>
</g>
<!-- Node13&#45;&gt;Node4 -->
<g id="edge16_Node000004_Node000013" class="edge">
<title>Node13&#45;&gt;Node4</title>
<g id="a_edge16_Node000004_Node000013"><a xlink:title=" ">
<path fill="none" stroke="orange" stroke-dasharray="5,2" d="M350.65,-279.21C352.35,-274.95 353.85,-270.41 354.75,-266 356.88,-255.55 355.85,-252.61 354.75,-242 348.35,-180.58 315.34,-112.46 302.69,-88.2"/>
<polygon fill="orange" stroke="orange" points="347.55,-277.58 346.61,-288.13 353.92,-280.47 347.55,-277.58"/>
</a>
</g>
<text text-anchor="middle" x="382.88" y="-176.5" font-family="Helvetica,sans-Serif" font-size="10.00" fill="grey"> &lt; MonitorConfig &gt;</text>
</g>
<!-- Node13&#45;&gt;Node10 -->
<g id="edge14_Node000010_Node000013" class="edge">
<title>Node13&#45;&gt;Node10</title>
<g id="a_edge14_Node000010_Node000013"><a xlink:title=" ">
<path fill="none" stroke="orange" stroke-dasharray="5,2" d="M287.63,-289.01C275.43,-284.12 263.9,-276.84 256.5,-266 248,-253.54 252.22,-235.14 256.02,-224.18"/>
<polygon fill="orange" stroke="orange" points="286.39,-292.28 296.99,-292.22 288.67,-285.66 286.39,-292.28"/>
</a>
</g>
<text text-anchor="middle" x="304.88" y="-250.5" font-family="Helvetica,sans-Serif" font-size="10.00" fill="grey"> &lt; PosPreviewConfig &gt;</text>
</g>
<!-- Node14 -->
<g id="Node000014" class="node">
<title>Node14</title>
<g id="a_Node000014"><a xlink:title=" ">
<polygon fill="white" stroke="#666666" points="355.15,-396 326.35,-396 326.35,-376 355.15,-376 355.15,-396"/>
<text text-anchor="middle" x="340.75" y="-382.5" font-family="Helvetica,sans-Serif" font-size="10.00">T</text>
</a>
</g>
</g>
<!-- Node14&#45;&gt;Node13 -->
<g id="edge15_Node000013_Node000014" class="edge">
<title>Node14&#45;&gt;Node13</title>
<g id="a_edge15_Node000013_Node000014"><a xlink:title=" ">
<path fill="none" stroke="#9a32cd" stroke-dasharray="5,2" d="M340.75,-364.3C340.75,-347.06 340.75,-323.31 340.75,-310.35"/>
<polygon fill="#9a32cd" stroke="#9a32cd" points="337.25,-364.18 340.75,-374.18 344.25,-364.18 337.25,-364.18"/>
</a>
</g>
<text text-anchor="middle" x="362.12" y="-342.5" font-family="Helvetica,sans-Serif" font-size="10.00" fill="grey"> elements</text>
</g>
</g>
</svg>
