<?xml version="1.0" encoding="UTF-8" standalone="no"?>
<!DOCTYPE svg PUBLIC "-//W3C//DTD SVG 1.1//EN"
 "http://www.w3.org/Graphics/SVG/1.1/DTD/svg11.dtd">
<!-- Generated by graphviz version 8.1.0 (20230707.0739)
 -->
<!-- Title: HooksCfg::getConfigDir Pages: 1 -->
<svg width="1273pt" height="294pt"
 viewBox="0.00 0.00 1273.25 294.00" xmlns="http://www.w3.org/2000/svg" xmlns:xlink="http://www.w3.org/1999/xlink">
<g id="graph0" class="graph" transform="scale(1 1) rotate(0) translate(4 290)">
<title>HooksCfg::getConfigDir</title>
<!-- Node1 -->
<g id="Node000001" class="node">
<title>Node1</title>
<g id="a_Node000001"><a xlink:title="the directory, where store the configs and logs">
<polygon fill="#999999" stroke="#666666" points="1265.25,-229 1148.75,-229 1148.75,-209 1265.25,-209 1265.25,-229"/>
<text text-anchor="middle" x="1207" y="-215.5" font-family="Helvetica,sans-Serif" font-size="10.00">HooksCfg::getConfigDir</text>
</a>
</g>
</g>
<!-- Node2 -->
<g id="Node000002" class="node">
<title>Node2</title>
<g id="a_Node000002"><a xlink:href="class_hooks_cfg.html#aeb2825839d92ca34c260d5505b706a55" target="_top" xlink:title="the path to the config file for this app">
<polygon fill="white" stroke="#666666" points="1112.75,-267 970.75,-267 970.75,-247 1112.75,-247 1112.75,-267"/>
<text text-anchor="middle" x="1041.75" y="-253.5" font-family="Helvetica,sans-Serif" font-size="10.00">HooksCfg::getAppConfigPath</text>
</a>
</g>
</g>
<!-- Node1&#45;&gt;Node2 -->
<g id="edge1_Node000001_Node000002" class="edge">
<title>Node1&#45;&gt;Node2</title>
<g id="a_edge1_Node000001_Node000002"><a xlink:title=" ">
<path fill="none" stroke="#63b8ff" d="M1150.5,-231.92C1130.02,-236.69 1107.08,-242.03 1087.64,-246.55"/>
<polygon fill="#63b8ff" stroke="#63b8ff" points="1151.01,-235.16 1159.96,-229.48 1149.43,-228.34 1151.01,-235.16"/>
</a>
</g>
</g>
<!-- Node5 -->
<g id="Node000005" class="node">
<title>Node5</title>
<g id="a_Node000005"><a xlink:href="class_hooks_cfg.html#a985dd80af3b2ced9ffb520fb7e79a122" target="_top" xlink:title="save the config for this app">
<polygon fill="white" stroke="#666666" points="934.75,-248 806.25,-248 806.25,-228 934.75,-228 934.75,-248"/>
<text text-anchor="middle" x="870.5" y="-234.5" font-family="Helvetica,sans-Serif" font-size="10.00">HooksCfg::writeAppConfig</text>
</a>
</g>
</g>
<!-- Node1&#45;&gt;Node5 -->
<g id="edge27_Node000001_Node000005" class="edge">
<title>Node1&#45;&gt;Node5</title>
<g id="a_edge27_Node000001_Node000005"><a xlink:title=" ">
<path fill="none" stroke="#63b8ff" d="M1137.73,-222.88C1078.37,-226.25 993.02,-231.1 935.08,-234.39"/>
<polygon fill="#63b8ff" stroke="#63b8ff" points="1137.71,-226.33 1147.5,-222.27 1137.31,-219.34 1137.71,-226.33"/>
</a>
</g>
</g>
<!-- Node6 -->
<g id="Node000006" class="node">
<title>Node6</title>
<g id="a_Node000006"><a xlink:href="class_hooks_cfg.html#a808e4e4a7bc43b89c87ef172fa8caf6a" target="_top" xlink:title="the path to the global config, for all apps">
<polygon fill="white" stroke="#666666" points="1104.12,-153 979.38,-153 979.38,-133 1104.12,-133 1104.12,-153"/>
<text text-anchor="middle" x="1041.75" y="-139.5" font-family="Helvetica,sans-Serif" font-size="10.00">HooksCfg::getConfigPath</text>
</a>
</g>
</g>
<!-- Node1&#45;&gt;Node6 -->
<g id="edge6_Node000001_Node000006" class="edge">
<title>Node1&#45;&gt;Node6</title>
<g id="a_edge6_Node000001_Node000006"><a xlink:title=" ">
<path fill="none" stroke="#63b8ff" d="M1173.84,-204.03C1141.73,-189.08 1093.22,-166.5 1065.1,-153.4"/>
<polygon fill="#63b8ff" stroke="#63b8ff" points="1172.1,-207.54 1182.64,-208.59 1175.05,-201.2 1172.1,-207.54"/>
</a>
</g>
</g>
<!-- Node3 -->
<g id="Node000003" class="node">
<title>Node3</title>
<g id="a_Node000003"><a xlink:href="class_hooks_cfg.html#afcb787461ef5ba011f6307c321223af6" target="_top" xlink:title="read the config for this app">
<polygon fill="white" stroke="#666666" points="770.25,-286 643.25,-286 643.25,-266 770.25,-266 770.25,-286"/>
<text text-anchor="middle" x="706.75" y="-272.5" font-family="Helvetica,sans-Serif" font-size="10.00">HooksCfg::readAppConfig</text>
</a>
</g>
</g>
<!-- Node2&#45;&gt;Node3 -->
<g id="edge2_Node000002_Node000003" class="edge">
<title>Node2&#45;&gt;Node3</title>
<g id="a_edge2_Node000002_Node000003"><a xlink:title=" ">
<path fill="none" stroke="#63b8ff" d="M959.89,-261.61C901.65,-264.94 824.19,-269.36 770.56,-272.42"/>
<polygon fill="#63b8ff" stroke="#63b8ff" points="959.75,-265.07 969.54,-261.01 959.35,-258.08 959.75,-265.07"/>
</a>
</g>
</g>
<!-- Node2&#45;&gt;Node5 -->
<g id="edge4_Node000002_Node000005" class="edge">
<title>Node2&#45;&gt;Node5</title>
<g id="a_edge4_Node000002_Node000005"><a xlink:title=" ">
<path fill="none" stroke="#63b8ff" d="M959.66,-247.9C951.41,-246.97 943.12,-246.04 935.1,-245.14"/>
<polygon fill="#63b8ff" stroke="#63b8ff" points="959.12,-251.47 969.44,-249.11 959.9,-244.51 959.12,-251.47"/>
</a>
</g>
</g>
<!-- Node4 -->
<g id="Node000004" class="node">
<title>Node4</title>
<g id="a_Node000004"><a xlink:href="wi_npo_s-_app_8cpp.html#a8c6630df6bab43efe8254a603885b62e" target="_top" xlink:title=" ">
<polygon fill="white" stroke="#666666" points="61,-248 0,-248 0,-228 61,-228 61,-248"/>
<text text-anchor="middle" x="30.5" y="-234.5" font-family="Helvetica,sans-Serif" font-size="10.00">wWinMain</text>
</a>
</g>
</g>
<!-- Node3&#45;&gt;Node4 -->
<g id="edge3_Node000003_Node000004" class="edge">
<title>Node3&#45;&gt;Node4</title>
<g id="a_edge3_Node000003_Node000004"><a xlink:title=" ">
<path fill="none" stroke="#63b8ff" d="M631.9,-276C571.49,-276 483.84,-276 407.25,-276 407.25,-276 407.25,-276 268.88,-276 193.33,-276 105.95,-257 61.23,-245.87"/>
<polygon fill="#63b8ff" stroke="#63b8ff" points="631.86,-279.5 641.86,-276 631.86,-272.5 631.86,-279.5"/>
</a>
</g>
</g>
<!-- Node5&#45;&gt;Node4 -->
<g id="edge5_Node000005_Node000004" class="edge">
<title>Node5&#45;&gt;Node4</title>
<g id="a_edge5_Node000005_Node000004"><a xlink:title=" ">
<path fill="none" stroke="#63b8ff" d="M794.95,-238C730.73,-238 635.57,-238 552.62,-238 552.62,-238 552.62,-238 268.88,-238 194.28,-238 106.51,-238 61.48,-238"/>
<polygon fill="#63b8ff" stroke="#63b8ff" points="794.77,-241.5 804.77,-238 794.77,-234.5 794.77,-241.5"/>
</a>
</g>
</g>
<!-- Node7 -->
<g id="Node000007" class="node">
<title>Node7</title>
<g id="a_Node000007"><a xlink:href="class_hooks_cfg.html#a9642afc6c6fe88141770403a09cdfc4b" target="_top" xlink:title="read the global config for all apps">
<polygon fill="white" stroke="#666666" points="925.38,-153 815.62,-153 815.62,-133 925.38,-133 925.38,-153"/>
<text text-anchor="middle" x="870.5" y="-139.5" font-family="Helvetica,sans-Serif" font-size="10.00">HooksCfg::readConfig</text>
</a>
</g>
</g>
<!-- Node6&#45;&gt;Node7 -->
<g id="edge7_Node000006_Node000007" class="edge">
<title>Node6&#45;&gt;Node7</title>
<g id="a_edge7_Node000006_Node000007"><a xlink:title=" ">
<path fill="none" stroke="#63b8ff" d="M968.36,-143C954.08,-143 939.32,-143 925.76,-143"/>
<polygon fill="#63b8ff" stroke="#63b8ff" points="968.17,-146.5 978.17,-143 968.17,-139.5 968.17,-146.5"/>
</a>
</g>
</g>
<!-- Node18 -->
<g id="Node000018" class="node">
<title>Node18</title>
<g id="a_Node000018"><a xlink:href="class_hooks_cfg.html#ac448d3ff024be030d38bafcb0e841a60" target="_top" xlink:title="save global config for all apps">
<polygon fill="white" stroke="#666666" points="607.25,-58 496,-58 496,-38 607.25,-38 607.25,-58"/>
<text text-anchor="middle" x="551.62" y="-44.5" font-family="Helvetica,sans-Serif" font-size="10.00">HooksCfg::writeConfig</text>
</a>
</g>
</g>
<!-- Node6&#45;&gt;Node18 -->
<g id="edge22_Node000006_Node000018" class="edge">
<title>Node6&#45;&gt;Node18</title>
<g id="a_edge22_Node000006_Node000018"><a xlink:title=" ">
<path fill="none" stroke="#63b8ff" d="M976.56,-130.51C879.44,-111.6 696.88,-76.08 606.35,-58.46"/>
<polygon fill="#63b8ff" stroke="#63b8ff" points="975.63,-134.09 986.12,-132.56 976.97,-127.22 975.63,-134.09"/>
</a>
</g>
</g>
<!-- Node8 -->
<g id="Node000008" class="node">
<title>Node8</title>
<g id="a_Node000008"><a xlink:href="class_hooks_cfg.html#ab994ae67a05ce4decf5b7af5314eb913" target="_top" xlink:title="check if someone has disabled stored in config">
<polygon fill="white" stroke="#666666" points="761.25,-153 652.25,-153 652.25,-133 761.25,-133 761.25,-153"/>
<text text-anchor="middle" x="706.75" y="-139.5" font-family="Helvetica,sans-Serif" font-size="10.00">HooksCfg::isDisabled</text>
</a>
</g>
</g>
<!-- Node7&#45;&gt;Node8 -->
<g id="edge8_Node000007_Node000008" class="edge">
<title>Node7&#45;&gt;Node8</title>
<g id="a_edge8_Node000007_Node000008"><a xlink:title=" ">
<path fill="none" stroke="#63b8ff" d="M804.48,-143C790.26,-143 775.37,-143 761.64,-143"/>
<polygon fill="#63b8ff" stroke="#63b8ff" points="804.19,-146.5 814.19,-143 804.19,-139.5 804.19,-146.5"/>
</a>
</g>
</g>
<!-- Node9 -->
<g id="Node000009" class="node">
<title>Node9</title>
<g id="a_Node000009"><a xlink:href="_hooks_impl_8cpp.html#adae4ff67fba416ac992fe973d90abc58" target="_top" xlink:title="the exported hook for the main window procedure">
<polygon fill="white" stroke="#666666" points="588.12,-210 515.12,-210 515.12,-190 588.12,-190 588.12,-210"/>
<text text-anchor="middle" x="551.62" y="-196.5" font-family="Helvetica,sans-Serif" font-size="10.00">CallWndProc</text>
</a>
</g>
</g>
<!-- Node8&#45;&gt;Node9 -->
<g id="edge9_Node000008_Node000009" class="edge">
<title>Node8&#45;&gt;Node9</title>
<g id="a_edge9_Node000008_Node000009"><a xlink:title=" ">
<path fill="none" stroke="#63b8ff" d="M669.42,-157.35C650.87,-164.59 627.92,-173.42 607.25,-181 599.52,-183.83 591.14,-186.8 583.31,-189.53"/>
<polygon fill="#63b8ff" stroke="#63b8ff" points="670.47,-160.31 678.5,-153.4 667.91,-153.79 670.47,-160.31"/>
</a>
</g>
</g>
<!-- Node11 -->
<g id="Node000011" class="node">
<title>Node11</title>
<g id="a_Node000011"><a xlink:href="wi_npo_s-_app_8cpp.html#a30a1e3b0304f1b083637664cbda94e72" target="_top" xlink:title="the main window procedure of this app">
<polygon fill="white" stroke="#666666" points="298.12,-134 241.62,-134 241.62,-114 298.12,-114 298.12,-134"/>
<text text-anchor="middle" x="269.88" y="-120.5" font-family="Helvetica,sans-Serif" font-size="10.00">WndProc</text>
</a>
</g>
</g>
<!-- Node8&#45;&gt;Node11 -->
<g id="edge21_Node000008_Node000011" class="edge">
<title>Node8&#45;&gt;Node11</title>
<g id="a_edge21_Node000008_Node000011"><a xlink:title=" ">
<path fill="none" stroke="#63b8ff" d="M641.21,-140.18C544.72,-135.96 366.92,-128.2 298.61,-125.21"/>
<polygon fill="#63b8ff" stroke="#63b8ff" points="640.85,-143.71 650.99,-140.65 641.15,-136.72 640.85,-143.71"/>
</a>
</g>
</g>
<!-- Node15 -->
<g id="Node000015" class="node">
<title>Node15</title>
<g id="a_Node000015"><a xlink:href="_hooks_impl_8cpp.html#ab9f4b48939788d5aa0f404323b16a957" target="_top" xlink:title="the exported hook for the windows&#45;message procedure">
<polygon fill="white" stroke="#666666" points="587,-172 516.25,-172 516.25,-152 587,-152 587,-172"/>
<text text-anchor="middle" x="551.62" y="-158.5" font-family="Helvetica,sans-Serif" font-size="10.00">GetMsgProc</text>
</a>
</g>
</g>
<!-- Node8&#45;&gt;Node15 -->
<g id="edge16_Node000008_Node000015" class="edge">
<title>Node8&#45;&gt;Node15</title>
<g id="a_edge16_Node000008_Node000015"><a xlink:title=" ">
<path fill="none" stroke="#63b8ff" d="M641.08,-151.02C622.69,-153.31 603.37,-155.7 587.49,-157.67"/>
<polygon fill="#63b8ff" stroke="#63b8ff" points="641.27,-154.4 650.76,-149.7 640.41,-147.46 641.27,-154.4"/>
</a>
</g>
</g>
<!-- Node16 -->
<g id="Node000016" class="node">
<title>Node16</title>
<g id="a_Node000016"><a xlink:href="_hooks_impl_8cpp.html#a2d95eeaf5ead86287ab88b2065c28d1a" target="_top" xlink:title="the exported hook for the shell procedure">
<polygon fill="white" stroke="#666666" points="591.88,-96 511.38,-96 511.38,-76 591.88,-76 591.88,-96"/>
<text text-anchor="middle" x="551.62" y="-82.5" font-family="Helvetica,sans-Serif" font-size="10.00">ShellHookProc</text>
</a>
</g>
</g>
<!-- Node8&#45;&gt;Node16 -->
<g id="edge19_Node000008_Node000016" class="edge">
<title>Node8&#45;&gt;Node16</title>
<g id="a_edge19_Node000008_Node000016"><a xlink:title=" ">
<path fill="none" stroke="#63b8ff" d="M667.44,-128.74C640.53,-118.72 605.13,-105.54 580.79,-96.48"/>
<polygon fill="#63b8ff" stroke="#63b8ff" points="666.07,-132.34 676.66,-132.55 668.51,-125.78 666.07,-132.34"/>
</a>
</g>
</g>
<!-- Node10 -->
<g id="Node000010" class="node">
<title>Node10</title>
<g id="a_Node000010"><a xlink:href="class_hooks_mgr.html#a7cfb009127366d7236f5c05c2e4f9ab3" target="_top" xlink:title=" ">
<polygon fill="white" stroke="#666666" points="452.12,-172 360.38,-172 360.38,-152 452.12,-152 452.12,-172"/>
<text text-anchor="middle" x="406.25" y="-158.5" font-family="Helvetica,sans-Serif" font-size="10.00">HooksMgr::install</text>
</a>
</g>
</g>
<!-- Node9&#45;&gt;Node10 -->
<g id="edge10_Node000009_Node000010" class="edge">
<title>Node9&#45;&gt;Node10</title>
<g id="a_edge10_Node000009_Node000010"><a xlink:title=" ">
<path fill="none" stroke="#63b8ff" d="M504.22,-187.7C485.63,-182.78 464.45,-177.16 446.63,-172.44"/>
<polygon fill="#63b8ff" stroke="#63b8ff" points="503.25,-191.33 513.82,-190.51 505.05,-184.56 503.25,-191.33"/>
</a>
</g>
</g>
<!-- Node13 -->
<g id="Node000013" class="node">
<title>Node13</title>
<g id="a_Node000013"><a xlink:href="class_hooks_mgr.html#a25aacc981b80470642a51175ee56ba01" target="_top" xlink:title=" ">
<polygon fill="white" stroke="#666666" points="460,-210 352.5,-210 352.5,-190 460,-190 460,-210"/>
<text text-anchor="middle" x="406.25" y="-196.5" font-family="Helvetica,sans-Serif" font-size="10.00">HooksMgr::setHooks</text>
</a>
</g>
</g>
<!-- Node9&#45;&gt;Node13 -->
<g id="edge14_Node000009_Node000013" class="edge">
<title>Node9&#45;&gt;Node13</title>
<g id="a_edge14_Node000009_Node000013"><a xlink:title=" ">
<path fill="none" stroke="#63b8ff" d="M504.02,-200C490.11,-200 474.76,-200 460.47,-200"/>
<polygon fill="#63b8ff" stroke="#63b8ff" points="503.82,-203.5 513.82,-200 503.82,-196.5 503.82,-203.5"/>
</a>
</g>
</g>
<!-- Node10&#45;&gt;Node11 -->
<g id="edge11_Node000010_Node000011" class="edge">
<title>Node10&#45;&gt;Node11</title>
<g id="a_edge11_Node000010_Node000011"><a xlink:title=" ">
<path fill="none" stroke="#63b8ff" d="M357.76,-148.57C337.9,-142.95 315.52,-136.63 298.45,-131.8"/>
<polygon fill="#63b8ff" stroke="#63b8ff" points="356.6,-152.16 367.18,-151.52 358.51,-145.43 356.6,-152.16"/>
</a>
</g>
</g>
<!-- Node12 -->
<g id="Node000012" class="node">
<title>Node12</title>
<g id="a_Node000012"><a xlink:href="wi_npo_s-_app_8cpp.html#aa0d0c9beb94350f8eac8fc4026a65375" target="_top" xlink:title=" ">
<polygon fill="white" stroke="#666666" points="187.25,-172 97,-172 97,-152 187.25,-152 187.25,-172"/>
<text text-anchor="middle" x="142.12" y="-158.5" font-family="Helvetica,sans-Serif" font-size="10.00">MyRegisterClass</text>
</a>
</g>
</g>
<!-- Node11&#45;&gt;Node12 -->
<g id="edge12_Node000011_Node000012" class="edge">
<title>Node11&#45;&gt;Node12</title>
<g id="a_edge12_Node000011_Node000012"><a xlink:title=" ">
<path fill="none" stroke="#63b8ff" d="M231.17,-135.39C214.25,-140.51 194.41,-146.5 177.85,-151.51"/>
<polygon fill="#63b8ff" stroke="#63b8ff" points="231.72,-138.58 240.28,-132.34 229.69,-131.88 231.72,-138.58"/>
</a>
</g>
</g>
<!-- Node12&#45;&gt;Node4 -->
<g id="edge13_Node000012_Node000004" class="edge">
<title>Node12&#45;&gt;Node4</title>
<g id="a_edge13_Node000012_Node000004"><a xlink:title=" ">
<path fill="none" stroke="#63b8ff" d="M117.47,-178.4C95.9,-193.36 64.68,-215 46.4,-227.67"/>
<polygon fill="#63b8ff" stroke="#63b8ff" points="119.12,-180.82 125.34,-172.25 115.13,-175.07 119.12,-180.82"/>
</a>
</g>
</g>
<!-- Node14 -->
<g id="Node000014" class="node">
<title>Node14</title>
<g id="a_Node000014"><a xlink:href="class_hooks_mgr.html#a5f8aa4cd119cb5d489b0a6f1a2971a79" target="_top" xlink:title=" ">
<polygon fill="white" stroke="#666666" points="316.5,-210 223.25,-210 223.25,-190 316.5,-190 316.5,-210"/>
<text text-anchor="middle" x="269.88" y="-196.5" font-family="Helvetica,sans-Serif" font-size="10.00">HooksMgr::attach</text>
</a>
</g>
</g>
<!-- Node13&#45;&gt;Node14 -->
<g id="edge15_Node000013_Node000014" class="edge">
<title>Node13&#45;&gt;Node14</title>
<g id="a_edge15_Node000013_Node000014"><a xlink:title=" ">
<path fill="none" stroke="#63b8ff" d="M341.29,-200C332.97,-200 324.59,-200 316.65,-200"/>
<polygon fill="#63b8ff" stroke="#63b8ff" points="341.14,-203.5 351.14,-200 341.14,-196.5 341.14,-203.5"/>
</a>
</g>
</g>
<!-- Node15&#45;&gt;Node10 -->
<g id="edge17_Node000015_Node000010" class="edge">
<title>Node15&#45;&gt;Node10</title>
<g id="a_edge17_Node000015_Node000010"><a xlink:title=" ">
<path fill="none" stroke="#63b8ff" d="M505.22,-162C488.39,-162 469.31,-162 452.49,-162"/>
<polygon fill="#63b8ff" stroke="#63b8ff" points="504.92,-165.5 514.92,-162 504.92,-158.5 504.92,-165.5"/>
</a>
</g>
</g>
<!-- Node15&#45;&gt;Node13 -->
<g id="edge18_Node000015_Node000013" class="edge">
<title>Node15&#45;&gt;Node13</title>
<g id="a_edge18_Node000015_Node000013"><a xlink:title=" ">
<path fill="none" stroke="#63b8ff" d="M505.48,-173.96C486.62,-178.96 464.91,-184.72 446.7,-189.54"/>
<polygon fill="#63b8ff" stroke="#63b8ff" points="506.15,-177.14 514.92,-171.2 504.35,-170.38 506.15,-177.14"/>
</a>
</g>
</g>
<!-- Node17 -->
<g id="Node000017" class="node">
<title>Node17</title>
<g id="a_Node000017"><a xlink:href="wi_npo_s-_hook_2dllmain_8cpp.html#a26e64fb39b69bcd9d1274d279f1561b9" target="_top" xlink:title=" ">
<polygon fill="white" stroke="#666666" points="430.38,-96 382.12,-96 382.12,-76 430.38,-76 430.38,-96"/>
<text text-anchor="middle" x="406.25" y="-82.5" font-family="Helvetica,sans-Serif" font-size="10.00">DllMain</text>
</a>
</g>
</g>
<!-- Node16&#45;&gt;Node17 -->
<g id="edge20_Node000016_Node000017" class="edge">
<title>Node16&#45;&gt;Node17</title>
<g id="a_edge20_Node000016_Node000017"><a xlink:title=" ">
<path fill="none" stroke="#63b8ff" d="M500.11,-86C476.42,-86 449.34,-86 430.56,-86"/>
<polygon fill="#63b8ff" stroke="#63b8ff" points="500.07,-89.5 510.07,-86 500.07,-82.5 500.07,-89.5"/>
</a>
</g>
</g>
<!-- Node19 -->
<g id="Node000019" class="node">
<title>Node19</title>
<g id="a_Node000019"><a xlink:href="class_hooks_cfg.html#a22af3c96dcf5d97e276a10872e212cd3" target="_top" xlink:title="stores disabled in config">
<polygon fill="white" stroke="#666666" points="453.62,-20 358.88,-20 358.88,0 453.62,0 453.62,-20"/>
<text text-anchor="middle" x="406.25" y="-6.5" font-family="Helvetica,sans-Serif" font-size="10.00">HooksCfg::disable</text>
</a>
</g>
</g>
<!-- Node18&#45;&gt;Node19 -->
<g id="edge23_Node000018_Node000019" class="edge">
<title>Node18&#45;&gt;Node19</title>
<g id="a_edge23_Node000018_Node000019"><a xlink:title=" ">
<path fill="none" stroke="#63b8ff" d="M500.89,-34.82C483.15,-30.12 463.43,-24.89 446.68,-20.45"/>
<polygon fill="#63b8ff" stroke="#63b8ff" points="499.5,-38.34 510.07,-37.52 501.3,-31.57 499.5,-38.34"/>
</a>
</g>
</g>
<!-- Node20 -->
<g id="Node000020" class="node">
<title>Node20</title>
<g id="a_Node000020"><a xlink:href="class_hooks_cfg.html#a6b7aaaea554488711f35909aac7a9dba" target="_top" xlink:title="remove disabled from config">
<polygon fill="white" stroke="#666666" points="452.5,-58 360,-58 360,-38 452.5,-38 452.5,-58"/>
<text text-anchor="middle" x="406.25" y="-44.5" font-family="Helvetica,sans-Serif" font-size="10.00">HooksCfg::enable</text>
</a>
</g>
</g>
<!-- Node18&#45;&gt;Node20 -->
<g id="edge25_Node000018_Node000020" class="edge">
<title>Node18&#45;&gt;Node20</title>
<g id="a_edge25_Node000018_Node000020"><a xlink:title=" ">
<path fill="none" stroke="#63b8ff" d="M484.81,-48C473.91,-48 462.83,-48 452.59,-48"/>
<polygon fill="#63b8ff" stroke="#63b8ff" points="484.6,-51.5 494.6,-48 484.6,-44.5 484.6,-51.5"/>
</a>
</g>
</g>
<!-- Node19&#45;&gt;Node11 -->
<g id="edge24_Node000019_Node000011" class="edge">
<title>Node19&#45;&gt;Node11</title>
<g id="a_edge24_Node000019_Node000011"><a xlink:title=" ">
<path fill="none" stroke="#63b8ff" d="M358.75,-25.15C356.58,-26.35 354.49,-27.63 352.5,-29 318.12,-52.69 289.4,-94.28 277.18,-113.6"/>
<polygon fill="#63b8ff" stroke="#63b8ff" points="360.08,-27.91 367.57,-20.41 357.04,-21.61 360.08,-27.91"/>
</a>
</g>
</g>
<!-- Node20&#45;&gt;Node11 -->
<g id="edge26_Node000020_Node000011" class="edge">
<title>Node20&#45;&gt;Node11</title>
<g id="a_edge26_Node000020_Node000011"><a xlink:title=" ">
<path fill="none" stroke="#63b8ff" d="M362.09,-62.47C358.8,-63.9 355.57,-65.41 352.5,-67 326.41,-80.51 298.97,-101.21 283.49,-113.6"/>
<polygon fill="#63b8ff" stroke="#63b8ff" points="363.08,-65.44 371.04,-58.45 360.45,-58.95 363.08,-65.44"/>
</a>
</g>
</g>
</g>
</svg>
