<?xml version="1.0" encoding="UTF-8" standalone="no"?>
<!DOCTYPE svg PUBLIC "-//W3C//DTD SVG 1.1//EN"
 "http://www.w3.org/Graphics/SVG/1.1/DTD/svg11.dtd">
<!-- Generated by graphviz version 9.0.0 (20230911.1827)
 -->
<!-- Title: HooksMgr::install Pages: 1 -->
<!--zoomable 553 -->

<svg id="main" version="1.1" xmlns="http://www.w3.org/2000/svg" xmlns:xlink="http://www.w3.org/1999/xlink" xml:space="preserve" onload="init(evt)">
<style type="text/css"><![CDATA[
.node, .edge {opacity: 0.7;}
.node.selected, .edge.selected {opacity: 1;}
.edge:hover path { stroke: red; }
.edge:hover polygon { stroke: red; fill: red; }
]]></style>

<defs>
  <circle id="rim" cx="0" cy="0" r="7"/>
  <circle id="rim2" cx="0" cy="0" r="3.5"/>
  <g id="zoomPlus">
    <use xlink:href="#rim" fill="#404040"><set attributeName="fill" to="#808080" begin="zoomplus.mouseover" end="zoomplus.mouseout"/></use>
    <path d="M-4,0h8M0,-4v8" fill="none" stroke="white" stroke-width="1.5" pointer-events="none"/>
  </g>
  <g id="zoomMin">
    <use xlink:href="#rim" fill="#404040"><set attributeName="fill" to="#808080" begin="zoomminus.mouseover" end="zoomminus.mouseout"/></use>
    <path d="M-4,0h8" fill="none" stroke="white" stroke-width="1.5" pointer-events="none"/>
  </g>
  <g id="arrowUp" transform="translate(30 24)">
    <use xlink:href="#rim"/>
    <path pointer-events="none" fill="none" stroke="white" stroke-width="1.5" d="M0,-3.0v7 M-2.5,-0.5L0,-3.0L2.5,-0.5"/>
  </g>
  <g id="arrowRight" transform="rotate(90) translate(36 -43)">
    <use xlink:href="#rim"/>
    <path pointer-events="none" fill="none" stroke="white" stroke-width="1.5" d="M0,-3.0v7 M-2.5,-0.5L0,-3.0L2.5,-0.5"/>
  </g>
  <g id="arrowDown" transform="rotate(180) translate(-30 -48)">
    <use xlink:href="#rim"/>
    <path pointer-events="none" fill="none" stroke="white" stroke-width="1.5" d="M0,-3.0v7 M-2.5,-0.5L0,-3.0L2.5,-0.5"/>
  </g>
  <g id="arrowLeft" transform="rotate(270) translate(-36 17)">
    <use xlink:href="#rim"/>
    <path pointer-events="none" fill="none" stroke="white" stroke-width="1.5" d="M0,-3.0v7 M-2.5,-0.5L0,-3.0L2.5,-0.5"/>
  </g>
  <g id="resetDef">
    <use xlink:href="#rim2" fill="#404040"><set attributeName="fill" to="#808080" begin="reset.mouseover" end="reset.mouseout"/></use>
  </g>
</defs>
<script type="application/ecmascript">
var viewWidth = 1531;
var viewHeight = 553;
var sectionId = 'dynsection-3';
</script>
<script type="application/ecmascript" xlink:href="svg.min.js"/>
<svg id="graph" class="graph">
<g id="viewport">
<title>HooksMgr::install</title>
<!-- Node1 -->
<g id="Node000001" class="node">
<title>Node1</title>
<g id="a_Node000001"><a xlink:title=" ">
<polygon fill="#999999" stroke="#666666" points="91.75,-431 0,-431 0,-411 91.75,-411 91.75,-431"/>
<text text-anchor="middle" x="45.88" y="-417.5" font-family="Helvetica,sans-Serif" font-size="10.00">HooksMgr::install</text>
</a>
</g>
</g>
<!-- Node2 -->
<g id="Node000002" class="node">
<title>Node2</title>
<g id="a_Node000002"><a xlink:href="_hooks_impl_8cpp.html#adae4ff67fba416ac992fe973d90abc58" target="_top" xlink:title="the exported hook for the main window procedure">
<polygon fill="white" stroke="#666666" points="206.38,-469 133.38,-469 133.38,-449 206.38,-449 206.38,-469"/>
<text text-anchor="middle" x="169.88" y="-455.5" font-family="Helvetica,sans-Serif" font-size="10.00">CallWndProc</text>
</a>
</g>
</g>
<!-- Node1&#45;&gt;Node2 -->
<g id="edge1_Node000001_Node000002" class="edge">
<title>Node1&#45;&gt;Node2</title>
<g id="a_edge1_Node000001_Node000002"><a xlink:title=" ">
<path fill="none" stroke="#63b8ff" d="M80.53,-431.48C94.14,-435.72 110.02,-440.67 124.55,-445.19"/>
<polygon fill="#63b8ff" stroke="#63b8ff" points="123.29,-448.47 133.88,-448.1 125.37,-441.78 123.29,-448.47"/>
</a>
</g>
</g>
<!-- Node12 -->
<g id="Node000012" class="node">
<title>Node12</title>
<g id="a_Node000012"><a xlink:href="_hooks_impl_8cpp.html#ab9f4b48939788d5aa0f404323b16a957" target="_top" xlink:title="the exported hook for the windows&#45;message procedure">
<polygon fill="white" stroke="#666666" points="205.25,-431 134.5,-431 134.5,-411 205.25,-411 205.25,-431"/>
<text text-anchor="middle" x="169.88" y="-417.5" font-family="Helvetica,sans-Serif" font-size="10.00">GetMsgProc</text>
</a>
</g>
</g>
<!-- Node1&#45;&gt;Node12 -->
<g id="edge11_Node000001_Node000012" class="edge">
<title>Node1&#45;&gt;Node12</title>
<g id="a_edge11_Node000001_Node000012"><a xlink:title=" ">
<path fill="none" stroke="#63b8ff" d="M91.96,-421C102.01,-421 112.68,-421 122.77,-421"/>
<polygon fill="#63b8ff" stroke="#63b8ff" points="122.76,-424.5 132.76,-421 122.76,-417.5 122.76,-424.5"/>
</a>
</g>
</g>
<!-- Node41 -->
<g id="Node000041" class="node">
<title>Node41</title>
<g id="a_Node000041"><a xlink:href="class_hooks_mgr.html#ae14d3d66665b288a8a22f6beea14774f" target="_top" xlink:title=" ">
<polygon fill="white" stroke="#666666" points="212,-393 127.75,-393 127.75,-373 212,-373 212,-393"/>
<text text-anchor="middle" x="169.88" y="-379.5" font-family="Helvetica,sans-Serif" font-size="10.00">HooksMgr::load</text>
</a>
</g>
</g>
<!-- Node1&#45;&gt;Node41 -->
<g id="edge55_Node000001_Node000041" class="edge">
<title>Node1&#45;&gt;Node41</title>
<g id="a_edge55_Node000001_Node000041"><a xlink:title=" ">
<path fill="none" stroke="#63b8ff" d="M80.53,-410.52C94.14,-406.28 110.02,-401.33 124.55,-396.81"/>
<polygon fill="#63b8ff" stroke="#63b8ff" points="125.37,-400.22 133.88,-393.9 123.29,-393.53 125.37,-400.22"/>
</a>
</g>
</g>
<!-- Node3 -->
<g id="Node000003" class="node">
<title>Node3</title>
<g id="a_Node000003"><a xlink:href="class_hooks_impl.html#a10c087a169c357990bf12340347e2fc0" target="_top" xlink:title="here we follow the main message loop of the application">
<polygon fill="white" stroke="#666666" points="371.25,-488 248,-488 248,-468 371.25,-468 371.25,-488"/>
<text text-anchor="middle" x="309.62" y="-474.5" font-family="Helvetica,sans-Serif" font-size="10.00">HooksImpl::callWndProc</text>
</a>
</g>
</g>
<!-- Node2&#45;&gt;Node3 -->
<g id="edge2_Node000002_Node000003" class="edge">
<title>Node2&#45;&gt;Node3</title>
<g id="a_edge2_Node000002_Node000003"><a xlink:title=" ">
<path fill="none" stroke="#63b8ff" d="M206.71,-463.94C215.9,-465.21 226.12,-466.62 236.44,-468.04"/>
<polygon fill="#63b8ff" stroke="#63b8ff" points="235.75,-471.48 246.13,-469.38 236.7,-464.55 235.75,-471.48"/>
</a>
</g>
</g>
<!-- Node7 -->
<g id="Node000007" class="node">
<title>Node7</title>
<g id="a_Node000007"><a xlink:href="class_hooks_cfg.html#ab994ae67a05ce4decf5b7af5314eb913" target="_top" xlink:title="check if someone has disabled stored in config">
<polygon fill="white" stroke="#666666" points="364.12,-450 255.12,-450 255.12,-430 364.12,-430 364.12,-450"/>
<text text-anchor="middle" x="309.62" y="-436.5" font-family="Helvetica,sans-Serif" font-size="10.00">HooksCfg::isDisabled</text>
</a>
</g>
</g>
<!-- Node2&#45;&gt;Node7 -->
<g id="edge6_Node000002_Node000007" class="edge">
<title>Node2&#45;&gt;Node7</title>
<g id="a_edge6_Node000002_Node000007"><a xlink:title=" ">
<path fill="none" stroke="#63b8ff" d="M206.71,-454.06C218.05,-452.49 230.96,-450.71 243.7,-448.96"/>
<polygon fill="#63b8ff" stroke="#63b8ff" points="243.87,-452.47 253.29,-447.63 242.91,-445.53 243.87,-452.47"/>
</a>
</g>
</g>
<!-- Node4 -->
<g id="Node000004" class="node">
<title>Node4</title>
<g id="a_Node000004"><a xlink:href="class_hooks_impl.html#a1022c4a7b4012228b83b0b89ee790f89" target="_top" xlink:title="here we react to position changes of the main window">
<polygon fill="white" stroke="#666666" points="575.5,-488 407.25,-488 407.25,-468 575.5,-468 575.5,-488"/>
<text text-anchor="middle" x="491.38" y="-474.5" font-family="Helvetica,sans-Serif" font-size="10.00">HooksImpl::onWindowPosChanged</text>
</a>
</g>
</g>
<!-- Node3&#45;&gt;Node4 -->
<g id="edge3_Node000003_Node000004" class="edge">
<title>Node3&#45;&gt;Node4</title>
<g id="a_edge3_Node000003_Node000004"><a xlink:title=" ">
<path fill="none" stroke="#63b8ff" d="M371.73,-478C379.41,-478 387.4,-478 395.45,-478"/>
<polygon fill="#63b8ff" stroke="#63b8ff" points="395.32,-481.5 405.32,-478 395.32,-474.5 395.32,-481.5"/>
</a>
</g>
</g>
<!-- Node5 -->
<g id="Node000005" class="node">
<title>Node5</title>
<g id="a_Node000005"><a xlink:href="class_hooks_impl.html#a8ef5405a747979c1f5197848e4a8e684" target="_top" xlink:title=" ">
<polygon fill="white" stroke="#666666" points="754.62,-221 623.88,-221 623.88,-189 754.62,-189 754.62,-221"/>
<text text-anchor="start" x="631.88" y="-207.5" font-family="Helvetica,sans-Serif" font-size="10.00">HooksImpl::hasCaptionDbl</text>
<text text-anchor="middle" x="689.25" y="-195.5" font-family="Helvetica,sans-Serif" font-size="10.00">Clicked</text>
</a>
</g>
</g>
<!-- Node4&#45;&gt;Node5 -->
<g id="edge4_Node000004_Node000005" class="edge">
<title>Node4&#45;&gt;Node5</title>
<g id="a_edge4_Node000004_Node000005"><a xlink:title=" ">
<path fill="none" stroke="#63b8ff" d="M561.92,-467.53C566.79,-465.2 571.39,-462.39 575.5,-459 647.54,-399.68 675.09,-284.99 684.25,-232.47"/>
<polygon fill="#63b8ff" stroke="#63b8ff" points="687.66,-233.31 685.82,-222.88 680.75,-232.18 687.66,-233.31"/>
</a>
</g>
</g>
<!-- Node6 -->
<g id="Node000006" class="node">
<title>Node6</title>
<g id="a_Node000006"><a xlink:href="class_hooks_impl.html#a7a48621aa5b57024ae963b861fd508cb" target="_top" xlink:title=" ">
<polygon fill="white" stroke="#666666" points="750.5,-466 628,-466 628,-446 750.5,-446 750.5,-466"/>
<text text-anchor="middle" x="689.25" y="-452.5" font-family="Helvetica,sans-Serif" font-size="10.00">HooksImpl::hasLastRect</text>
</a>
</g>
</g>
<!-- Node4&#45;&gt;Node6 -->
<g id="edge5_Node000004_Node000006" class="edge">
<title>Node4&#45;&gt;Node6</title>
<g id="a_edge5_Node000004_Node000006"><a xlink:title=" ">
<path fill="none" stroke="#63b8ff" d="M575.73,-468.64C589.18,-467.13 603,-465.57 616.16,-464.1"/>
<polygon fill="#63b8ff" stroke="#63b8ff" points="616.47,-467.58 626.01,-462.99 615.69,-460.63 616.47,-467.58"/>
</a>
</g>
</g>
<!-- Node8 -->
<g id="Node000008" class="node">
<title>Node8</title>
<g id="a_Node000008"><a xlink:href="class_hooks_cfg.html#a9642afc6c6fe88141770403a09cdfc4b" target="_top" xlink:title="read the global config for all apps">
<polygon fill="white" stroke="#666666" points="546.25,-526 436.5,-526 436.5,-506 546.25,-506 546.25,-526"/>
<text text-anchor="middle" x="491.38" y="-512.5" font-family="Helvetica,sans-Serif" font-size="10.00">HooksCfg::readConfig</text>
</a>
</g>
</g>
<!-- Node7&#45;&gt;Node8 -->
<g id="edge7_Node000007_Node000008" class="edge">
<title>Node7&#45;&gt;Node8</title>
<g id="a_edge7_Node000007_Node000008"><a xlink:title=" ">
<path fill="none" stroke="#63b8ff" d="M353.59,-450.44C359.74,-452.78 365.82,-455.61 371.25,-459 390.98,-471.32 387.04,-485.47 407.25,-497 412.93,-500.24 419.13,-502.93 425.5,-505.16"/>
<polygon fill="#63b8ff" stroke="#63b8ff" points="424.28,-508.45 434.87,-508.05 426.34,-501.76 424.28,-508.45"/>
</a>
</g>
</g>
<!-- Node9 -->
<g id="Node000009" class="node">
<title>Node9</title>
<g id="a_Node000009"><a xlink:href="class_hooks_cfg.html#a808e4e4a7bc43b89c87ef172fa8caf6a" target="_top" xlink:title="the path to the global config, for all apps">
<polygon fill="white" stroke="#666666" points="751.62,-507 626.88,-507 626.88,-487 751.62,-487 751.62,-507"/>
<text text-anchor="middle" x="689.25" y="-493.5" font-family="Helvetica,sans-Serif" font-size="10.00">HooksCfg::getConfigPath</text>
</a>
</g>
</g>
<!-- Node8&#45;&gt;Node9 -->
<g id="edge8_Node000008_Node000009" class="edge">
<title>Node8&#45;&gt;Node9</title>
<g id="a_edge8_Node000008_Node000009"><a xlink:title=" ">
<path fill="none" stroke="#63b8ff" d="M546.68,-510.73C567.89,-508.68 592.53,-506.28 615.26,-504.08"/>
<polygon fill="#63b8ff" stroke="#63b8ff" points="615.46,-507.58 625.08,-503.13 614.79,-500.61 615.46,-507.58"/>
</a>
</g>
</g>
<!-- Node11 -->
<g id="Node000011" class="node">
<title>Node11</title>
<g id="a_Node000011"><a xlink:href="class_hooks_cfg.html#ab8fd861156e6b389e43bbda021f42c50" target="_top" xlink:title="read a JSON config from given path">
<polygon fill="white" stroke="#666666" points="766.25,-545 612.25,-545 612.25,-525 766.25,-525 766.25,-545"/>
<text text-anchor="middle" x="689.25" y="-531.5" font-family="Helvetica,sans-Serif" font-size="10.00">HooksCfg::readConfigDocument</text>
</a>
</g>
</g>
<!-- Node8&#45;&gt;Node11 -->
<g id="edge10_Node000008_Node000011" class="edge">
<title>Node8&#45;&gt;Node11</title>
<g id="a_edge10_Node000008_Node000011"><a xlink:title=" ">
<path fill="none" stroke="#63b8ff" d="M546.68,-521.27C563.37,-522.89 582.18,-524.71 600.51,-526.49"/>
<polygon fill="#63b8ff" stroke="#63b8ff" points="600.04,-529.96 610.33,-527.44 600.72,-522.99 600.04,-529.96"/>
</a>
</g>
</g>
<!-- Node10 -->
<g id="Node000010" class="node">
<title>Node10</title>
<g id="a_Node000010"><a xlink:href="class_hooks_cfg.html#a437c5768d5246cf980d1be5ea6f272c6" target="_top" xlink:title="the directory, where store the configs and logs">
<polygon fill="white" stroke="#666666" points="931.5,-507 815,-507 815,-487 931.5,-487 931.5,-507"/>
<text text-anchor="middle" x="873.25" y="-493.5" font-family="Helvetica,sans-Serif" font-size="10.00">HooksCfg::getConfigDir</text>
</a>
</g>
</g>
<!-- Node9&#45;&gt;Node10 -->
<g id="edge9_Node000009_Node000010" class="edge">
<title>Node9&#45;&gt;Node10</title>
<g id="a_edge9_Node000009_Node000010"><a xlink:title=" ">
<path fill="none" stroke="#63b8ff" d="M752.12,-497C768.53,-497 786.36,-497 803.13,-497"/>
<polygon fill="#63b8ff" stroke="#63b8ff" points="803.02,-500.5 813.02,-497 803.02,-493.5 803.02,-500.5"/>
</a>
</g>
</g>
<!-- Node12&#45;&gt;Node7 -->
<g id="edge54_Node000012_Node000007" class="edge">
<title>Node12&#45;&gt;Node7</title>
<g id="a_edge54_Node000012_Node000007"><a xlink:title=" ">
<path fill="none" stroke="#63b8ff" d="M205.64,-425.79C217.16,-427.38 230.4,-429.21 243.45,-431.01"/>
<polygon fill="#63b8ff" stroke="#63b8ff" points="242.95,-434.47 253.33,-432.37 243.9,-427.54 242.95,-434.47"/>
</a>
</g>
</g>
<!-- Node13 -->
<g id="Node000013" class="node">
<title>Node13</title>
<g id="a_Node000013"><a xlink:href="class_hooks_impl.html#a07053e18c49265e300fe89b2a5bc28de" target="_top" xlink:title="here the Windows messages are picked up, which do not appear in the main message loop">
<polygon fill="white" stroke="#666666" points="369.75,-248 249.5,-248 249.5,-228 369.75,-228 369.75,-248"/>
<text text-anchor="middle" x="309.62" y="-234.5" font-family="Helvetica,sans-Serif" font-size="10.00">HooksImpl::getMsgProc</text>
</a>
</g>
</g>
<!-- Node12&#45;&gt;Node13 -->
<g id="edge12_Node000012_Node000013" class="edge">
<title>Node12&#45;&gt;Node13</title>
<g id="a_edge12_Node000012_Node000013"><a xlink:title=" ">
<path fill="none" stroke="#63b8ff" d="M199.28,-410.67C203.83,-408.25 208.27,-405.38 212,-402 257.59,-360.74 287.95,-292.82 301.14,-258.79"/>
<polygon fill="#63b8ff" stroke="#63b8ff" points="304.32,-260.28 304.55,-249.69 297.76,-257.82 304.32,-260.28"/>
</a>
</g>
</g>
<!-- Node14 -->
<g id="Node000014" class="node">
<title>Node14</title>
<g id="a_Node000014"><a xlink:href="class_hooks_impl.html#a30acc60a07305d2df36a7798cb73aaa1" target="_top" xlink:title=" ">
<polygon fill="white" stroke="#666666" points="564.25,-324 418.5,-324 418.5,-304 564.25,-304 564.25,-324"/>
<text text-anchor="middle" x="491.38" y="-310.5" font-family="Helvetica,sans-Serif" font-size="10.00">HooksImpl::getLButtonUpMsg</text>
</a>
</g>
</g>
<!-- Node13&#45;&gt;Node14 -->
<g id="edge13_Node000013_Node000014" class="edge">
<title>Node13&#45;&gt;Node14</title>
<g id="a_edge13_Node000013_Node000014"><a xlink:title=" ">
<path fill="none" stroke="#63b8ff" d="M324.95,-248.38C343.21,-261.14 376.13,-282.61 407.25,-295 412.23,-296.98 417.47,-298.79 422.79,-300.42"/>
<polygon fill="#63b8ff" stroke="#63b8ff" points="421.73,-303.76 432.31,-303.12 423.64,-297.02 421.73,-303.76"/>
</a>
</g>
</g>
<!-- Node15 -->
<g id="Node000015" class="node">
<title>Node15</title>
<g id="a_Node000015"><a xlink:href="class_hooks_impl.html#a1f4bd7b8436918fc1cd5cea1c3a15bc9" target="_top" xlink:title=" ">
<polygon fill="white" stroke="#666666" points="570.25,-286 412.5,-286 412.5,-266 570.25,-266 570.25,-286"/>
<text text-anchor="middle" x="491.38" y="-272.5" font-family="Helvetica,sans-Serif" font-size="10.00">HooksImpl::getNcLButtonUpMsg</text>
</a>
</g>
</g>
<!-- Node13&#45;&gt;Node15 -->
<g id="edge14_Node000013_Node000015" class="edge">
<title>Node13&#45;&gt;Node15</title>
<g id="a_edge14_Node000013_Node000015"><a xlink:title=" ">
<path fill="none" stroke="#63b8ff" d="M360.22,-248.48C381.73,-253.03 407.13,-258.4 429.75,-263.18"/>
<polygon fill="#63b8ff" stroke="#63b8ff" points="428.96,-266.59 439.46,-265.24 430.4,-259.74 428.96,-266.59"/>
</a>
</g>
</g>
<!-- Node16 -->
<g id="Node000016" class="node">
<title>Node16</title>
<g id="a_Node000016"><a xlink:href="class_task_toolbar.html#a3159b1e31199ee3691bf2bcf5ec21100" target="_top" xlink:title=" ">
<polygon fill="white" stroke="#666666" points="546.25,-248 436.5,-248 436.5,-228 546.25,-228 546.25,-248"/>
<text text-anchor="middle" x="491.38" y="-234.5" font-family="Helvetica,sans-Serif" font-size="10.00">TaskToolbar::initialize</text>
</a>
</g>
</g>
<!-- Node13&#45;&gt;Node16 -->
<g id="edge15_Node000013_Node000016" class="edge">
<title>Node13&#45;&gt;Node16</title>
<g id="a_edge15_Node000013_Node000016"><a xlink:title=" ">
<path fill="none" stroke="#63b8ff" d="M369.98,-238C387.6,-238 406.99,-238 424.96,-238"/>
<polygon fill="#63b8ff" stroke="#63b8ff" points="424.73,-241.5 434.73,-238 424.73,-234.5 424.73,-241.5"/>
</a>
</g>
</g>
<!-- Node17 -->
<g id="Node000017" class="node">
<title>Node17</title>
<g id="a_Node000017"><a xlink:href="class_hooks_impl.html#ae0d26e76e300b5392e64fb070aafe8d5" target="_top" xlink:title="do the work, if necessary">
<polygon fill="white" stroke="#666666" points="557.88,-134 424.88,-134 424.88,-114 557.88,-114 557.88,-134"/>
<text text-anchor="middle" x="491.38" y="-120.5" font-family="Helvetica,sans-Serif" font-size="10.00">HooksImpl::onCaptionClick</text>
</a>
</g>
</g>
<!-- Node13&#45;&gt;Node17 -->
<g id="edge16_Node000013_Node000017" class="edge">
<title>Node13&#45;&gt;Node17</title>
<g id="a_edge16_Node000013_Node000017"><a xlink:title=" ">
<path fill="none" stroke="#63b8ff" d="M318.78,-227.71C334.12,-209.06 369.15,-169.59 407.25,-148 414.09,-144.12 421.61,-140.83 429.24,-138.04"/>
<polygon fill="#63b8ff" stroke="#63b8ff" points="430.24,-141.4 438.61,-134.91 428.02,-134.76 430.24,-141.4"/>
</a>
</g>
</g>
<!-- Node18 -->
<g id="Node000018" class="node">
<title>Node18</title>
<g id="a_Node000018"><a xlink:href="class_hooks_impl.html#a84c9a5c6b0754e092de2ee6a8b8bba1e" target="_top" xlink:title="method to change the size of a window in steps">
<polygon fill="white" stroke="#666666" points="767,-171 611.5,-171 611.5,-151 767,-151 767,-171"/>
<text text-anchor="middle" x="689.25" y="-157.5" font-family="Helvetica,sans-Serif" font-size="10.00">HooksImpl::onIncrementWindow</text>
</a>
</g>
</g>
<!-- Node13&#45;&gt;Node18 -->
<g id="edge44_Node000013_Node000018" class="edge">
<title>Node13&#45;&gt;Node18</title>
<g id="a_edge44_Node000013_Node000018"><a xlink:title=" ">
<path fill="none" stroke="#63b8ff" d="M323.75,-227.54C341.5,-214.05 374.71,-191.14 407.25,-181 469.61,-161.57 543.38,-156.97 599.68,-157.02"/>
<polygon fill="#63b8ff" stroke="#63b8ff" points="599.53,-160.51 609.55,-157.08 599.57,-153.51 599.53,-160.51"/>
</a>
</g>
</g>
<!-- Node19 -->
<g id="Node000019" class="node">
<title>Node19</title>
<g id="a_Node000019"><a xlink:href="class_hooks_impl.html#ab6696c1ccc12ebdd892883485456ed3c" target="_top" xlink:title=" ">
<polygon fill="white" stroke="#666666" points="759.12,-132 619.38,-132 619.38,-112 759.12,-112 759.12,-132"/>
<text text-anchor="middle" x="689.25" y="-118.5" font-family="Helvetica,sans-Serif" font-size="10.00">HooksImpl::onShowPosWnd</text>
</a>
</g>
</g>
<!-- Node13&#45;&gt;Node19 -->
<g id="edge52_Node000013_Node000019" class="edge">
<title>Node13&#45;&gt;Node19</title>
<g id="a_edge52_Node000013_Node000019"><a xlink:title=" ">
<path fill="none" stroke="#63b8ff" d="M314.25,-227.82C324.22,-201.55 354.86,-131.69 407.25,-105 486.04,-64.85 593.83,-89.95 650.26,-108.12"/>
<polygon fill="#63b8ff" stroke="#63b8ff" points="648.81,-111.32 659.41,-111.16 651.02,-104.68 648.81,-111.32"/>
</a>
</g>
</g>
<!-- Node35 -->
<g id="Node000035" class="node">
<title>Node35</title>
<g id="a_Node000035"><a xlink:href="class_hooks_impl.html#a924c5db32f07636c8acbc9421c216112" target="_top" xlink:title=" ">
<polygon fill="white" stroke="#666666" points="759.5,-58 619,-58 619,-38 759.5,-38 759.5,-58"/>
<text text-anchor="middle" x="689.25" y="-44.5" font-family="Helvetica,sans-Serif" font-size="10.00">HooksImpl::onClosePosWnd</text>
</a>
</g>
</g>
<!-- Node13&#45;&gt;Node35 -->
<g id="edge40_Node000013_Node000035" class="edge">
<title>Node13&#45;&gt;Node35</title>
<g id="a_edge40_Node000013_Node000035"><a xlink:title=" ">
<path fill="none" stroke="#63b8ff" d="M313.47,-227.63C322.04,-198.58 350.59,-116.13 407.25,-80 466.56,-42.18 547.49,-36.67 607.27,-39.15"/>
<polygon fill="#63b8ff" stroke="#63b8ff" points="606.88,-42.63 617.04,-39.64 607.23,-35.64 606.88,-42.63"/>
</a>
</g>
</g>
<!-- Node36 -->
<g id="Node000036" class="node">
<title>Node36</title>
<g id="a_Node000036"><a xlink:href="class_hooks_impl.html#a7628ad89b3625fcd9e8538d94d7b2cde" target="_top" xlink:title="processes the WM_LBUTTONUP event">
<polygon fill="white" stroke="#666666" points="553.38,-210 429.38,-210 429.38,-190 553.38,-190 553.38,-210"/>
<text text-anchor="middle" x="491.38" y="-196.5" font-family="Helvetica,sans-Serif" font-size="10.00">HooksImpl::onLButtonUp</text>
</a>
</g>
</g>
<!-- Node13&#45;&gt;Node36 -->
<g id="edge45_Node000013_Node000036" class="edge">
<title>Node13&#45;&gt;Node36</title>
<g id="a_edge45_Node000013_Node000036"><a xlink:title=" ">
<path fill="none" stroke="#63b8ff" d="M360.22,-227.52C381.73,-222.97 407.13,-217.6 429.75,-212.82"/>
<polygon fill="#63b8ff" stroke="#63b8ff" points="430.4,-216.26 439.46,-210.76 428.96,-209.41 430.4,-216.26"/>
</a>
</g>
</g>
<!-- Node37 -->
<g id="Node000037" class="node">
<title>Node37</title>
<g id="a_Node000037"><a xlink:href="class_hooks_impl.html#afe7a8e2c13ab2abe83b4f3d0c462e761" target="_top" xlink:title="this procedure handles the double click in non&#45;client area">
<polygon fill="white" stroke="#666666" points="560.5,-450 422.25,-450 422.25,-418 560.5,-418 560.5,-450"/>
<text text-anchor="start" x="430.25" y="-436.5" font-family="Helvetica,sans-Serif" font-size="10.00">HooksImpl::onNcLButtonDbl</text>
<text text-anchor="middle" x="491.38" y="-424.5" font-family="Helvetica,sans-Serif" font-size="10.00">Click</text>
</a>
</g>
</g>
<!-- Node13&#45;&gt;Node37 -->
<g id="edge48_Node000013_Node000037" class="edge">
<title>Node13&#45;&gt;Node37</title>
<g id="a_edge48_Node000013_Node000037"><a xlink:title=" ">
<path fill="none" stroke="#63b8ff" d="M313.45,-248.25C322.13,-277.86 351.31,-364.29 407.25,-409 408.79,-410.23 410.38,-411.4 412.03,-412.51"/>
<polygon fill="#63b8ff" stroke="#63b8ff" points="410.22,-415.5 420.62,-417.51 413.74,-409.45 410.22,-415.5"/>
</a>
</g>
</g>
<!-- Node38 -->
<g id="Node000038" class="node">
<title>Node38</title>
<g id="a_Node000038"><a xlink:href="class_hooks_impl.html#a9adf50040968aa66908f643ad1edda53" target="_top" xlink:title="processes the WM_NCLBUTTONDOWN event">
<polygon fill="white" stroke="#666666" points="565.38,-20 417.38,-20 417.38,0 565.38,0 565.38,-20"/>
<text text-anchor="middle" x="491.38" y="-6.5" font-family="Helvetica,sans-Serif" font-size="10.00">HooksImpl::onNcLButtonDown</text>
</a>
</g>
</g>
<!-- Node13&#45;&gt;Node38 -->
<g id="edge50_Node000013_Node000038" class="edge">
<title>Node13&#45;&gt;Node38</title>
<g id="a_edge50_Node000013_Node000038"><a xlink:title=" ">
<path fill="none" stroke="#63b8ff" d="M312.42,-227.72C318.77,-194.38 343.37,-88.33 407.25,-34 411.33,-30.53 415.88,-27.57 420.69,-25.03"/>
<polygon fill="#63b8ff" stroke="#63b8ff" points="421.85,-28.35 429.5,-21.02 418.95,-21.98 421.85,-28.35"/>
</a>
</g>
</g>
<!-- Node39 -->
<g id="Node000039" class="node">
<title>Node39</title>
<g id="a_Node000039"><a xlink:href="class_hooks_impl.html#a88ea927a4d021535e4a5768ef60a50d7" target="_top" xlink:title="processes the WM_NCLBUTTONUP event">
<polygon fill="white" stroke="#666666" points="560.12,-400 422.62,-400 422.62,-380 560.12,-380 560.12,-400"/>
<text text-anchor="middle" x="491.38" y="-386.5" font-family="Helvetica,sans-Serif" font-size="10.00">HooksImpl::onNCLButtonUp</text>
</a>
</g>
</g>
<!-- Node13&#45;&gt;Node39 -->
<g id="edge51_Node000013_Node000039" class="edge">
<title>Node13&#45;&gt;Node39</title>
<g id="a_edge51_Node000013_Node000039"><a xlink:title=" ">
<path fill="none" stroke="#63b8ff" d="M314.95,-248.26C326.15,-273.51 358.66,-338.92 407.25,-371 409.36,-372.39 411.55,-373.68 413.82,-374.88"/>
<polygon fill="#63b8ff" stroke="#63b8ff" points="412.17,-377.98 422.73,-378.92 415.07,-371.6 412.17,-377.98"/>
</a>
</g>
</g>
<!-- Node40 -->
<g id="Node000040" class="node">
<title>Node40</title>
<g id="a_Node000040"><a xlink:href="class_task_toolbar.html#a2304586dd147f754c7040f781eda1270" target="_top" xlink:title=" ">
<polygon fill="white" stroke="#666666" points="551.5,-362 431.25,-362 431.25,-342 551.5,-342 551.5,-362"/>
<text text-anchor="middle" x="491.38" y="-348.5" font-family="Helvetica,sans-Serif" font-size="10.00">TaskToolbar::uninitialize</text>
</a>
</g>
</g>
<!-- Node13&#45;&gt;Node40 -->
<g id="edge53_Node000013_Node000040" class="edge">
<title>Node13&#45;&gt;Node40</title>
<g id="a_edge53_Node000013_Node000040"><a xlink:title=" ">
<path fill="none" stroke="#63b8ff" d="M318.06,-248.47C332.73,-268.27 367.42,-311.2 407.25,-333 411.34,-335.24 415.68,-337.21 420.15,-338.96"/>
<polygon fill="#63b8ff" stroke="#63b8ff" points="418.73,-342.17 429.33,-342.12 421.02,-335.55 418.73,-342.17"/>
</a>
</g>
</g>
<!-- Node17&#45;&gt;Node5 -->
<g id="edge17_Node000017_Node000005" class="edge">
<title>Node17&#45;&gt;Node5</title>
<g id="a_edge17_Node000017_Node000005"><a xlink:title=" ">
<path fill="none" stroke="#63b8ff" d="M512.27,-134.29C535.66,-146.16 575.81,-165.86 611.5,-180 615.63,-181.64 619.92,-183.25 624.26,-184.83"/>
<polygon fill="#63b8ff" stroke="#63b8ff" points="623.07,-188.12 633.67,-188.14 625.4,-181.52 623.07,-188.12"/>
</a>
</g>
</g>
<!-- Node17&#45;&gt;Node18 -->
<g id="edge18_Node000017_Node000018" class="edge">
<title>Node17&#45;&gt;Node18</title>
<g id="a_edge18_Node000017_Node000018"><a xlink:title=" ">
<path fill="none" stroke="#63b8ff" d="M547.72,-134.45C570.67,-138.79 597.5,-143.86 621.52,-148.4"/>
<polygon fill="#63b8ff" stroke="#63b8ff" points="620.74,-151.81 631.22,-150.23 622.04,-144.93 620.74,-151.81"/>
</a>
</g>
</g>
<!-- Node17&#45;&gt;Node19 -->
<g id="edge19_Node000017_Node000019" class="edge">
<title>Node17&#45;&gt;Node19</title>
<g id="a_edge19_Node000017_Node000019"><a xlink:title=" ">
<path fill="none" stroke="#63b8ff" d="M558.14,-123.33C574.04,-123.17 591.2,-122.99 607.69,-122.82"/>
<polygon fill="#63b8ff" stroke="#63b8ff" points="607.49,-126.32 617.45,-122.72 607.42,-119.33 607.49,-126.32"/>
</a>
</g>
</g>
<!-- Node20 -->
<g id="Node000020" class="node">
<title>Node20</title>
<g id="a_Node000020"><a xlink:href="class_win_pos_wnd.html#abec2e67db5543a717d59b02ab8dbb930" target="_top" xlink:title="create the required windows for monitor preview and all configured positions">
<polygon fill="white" stroke="#666666" points="925.12,-172 821.38,-172 821.38,-152 925.12,-152 925.12,-172"/>
<text text-anchor="middle" x="873.25" y="-158.5" font-family="Helvetica,sans-Serif" font-size="10.00">WinPosWnd::create</text>
</a>
</g>
</g>
<!-- Node19&#45;&gt;Node20 -->
<g id="edge20_Node000019_Node000020" class="edge">
<title>Node19&#45;&gt;Node20</title>
<g id="a_edge20_Node000019_Node000020"><a xlink:title=" ">
<path fill="none" stroke="#63b8ff" d="M737.59,-132.41C760.79,-137.5 788.95,-143.69 813.51,-149.09"/>
<polygon fill="#63b8ff" stroke="#63b8ff" points="812.52,-152.45 823.03,-151.18 814.02,-145.62 812.52,-152.45"/>
</a>
</g>
</g>
<!-- Node34 -->
<g id="Node000034" class="node">
<title>Node34</title>
<g id="a_Node000034"><a xlink:href="class_win_pos_wnd.html#acb456c59641ec336d5c7646764fe7e6a" target="_top" xlink:title=" ">
<polygon fill="white" stroke="#666666" points="943.5,-131 803,-131 803,-111 943.5,-111 943.5,-131"/>
<text text-anchor="middle" x="873.25" y="-117.5" font-family="Helvetica,sans-Serif" font-size="10.00">WinPosWnd::getWndHandle</text>
</a>
</g>
</g>
<!-- Node19&#45;&gt;Node34 -->
<g id="edge39_Node000019_Node000034" class="edge">
<title>Node19&#45;&gt;Node34</title>
<g id="a_edge39_Node000019_Node000034"><a xlink:title=" ">
<path fill="none" stroke="#63b8ff" d="M759.58,-121.62C769.9,-121.56 780.63,-121.5 791.17,-121.45"/>
<polygon fill="#63b8ff" stroke="#63b8ff" points="791.02,-124.95 801,-121.39 790.98,-117.95 791.02,-124.95"/>
</a>
</g>
</g>
<!-- Node21 -->
<g id="Node000021" class="node">
<title>Node21</title>
<g id="a_Node000021"><a xlink:href="class_win_pos_wnd.html#a4b607f031e5058874a31918e4cc1ba79" target="_top" xlink:title="if the window looks beyond the edge of the monitor, it is moved so that it is displayed as a whole on...">
<polygon fill="white" stroke="#666666" points="1139.5,-304 984,-304 984,-284 1139.5,-284 1139.5,-304"/>
<text text-anchor="middle" x="1061.75" y="-290.5" font-family="Helvetica,sans-Serif" font-size="10.00">WinPosWnd::correctEdgecases</text>
</a>
</g>
</g>
<!-- Node20&#45;&gt;Node21 -->
<g id="edge21_Node000020_Node000021" class="edge">
<title>Node20&#45;&gt;Node21</title>
<g id="a_edge21_Node000020_Node000021"><a xlink:title=" ">
<path fill="none" stroke="#63b8ff" d="M880.72,-172.33C895.35,-194.8 933.34,-248.25 979.5,-275 982.17,-276.55 984.96,-277.97 987.82,-279.27"/>
<polygon fill="#63b8ff" stroke="#63b8ff" points="986.5,-282.51 997.08,-282.95 989.08,-276.01 986.5,-282.51"/>
</a>
</g>
</g>
<!-- Node22 -->
<g id="Node000022" class="node">
<title>Node22</title>
<g id="a_Node000022"><a xlink:href="class_win_pos_wnd.html#a8abc6edd027488d4f7242b9f12693af8" target="_top" xlink:title="destroys every windows">
<polygon fill="white" stroke="#666666" points="1116.25,-58 1007.25,-58 1007.25,-38 1116.25,-38 1116.25,-58"/>
<text text-anchor="middle" x="1061.75" y="-44.5" font-family="Helvetica,sans-Serif" font-size="10.00">WinPosWnd::destroy</text>
</a>
</g>
</g>
<!-- Node20&#45;&gt;Node22 -->
<g id="edge22_Node000020_Node000022" class="edge">
<title>Node20&#45;&gt;Node22</title>
<g id="a_edge22_Node000020_Node000022"><a xlink:title=" ">
<path fill="none" stroke="#63b8ff" d="M924.13,-151.59C931.14,-148.64 937.86,-144.85 943.5,-140 970.93,-116.42 951.17,-89.5 979.5,-67 984.59,-62.96 990.39,-59.75 996.49,-57.21"/>
<polygon fill="#63b8ff" stroke="#63b8ff" points="997.27,-60.64 1005.55,-54.03 994.96,-54.04 997.27,-60.64"/>
</a>
</g>
</g>
<!-- Node23 -->
<g id="Node000023" class="node">
<title>Node23</title>
<g id="a_Node000023"><a xlink:href="class_win_pos_wnd_cfg.html#afe04626c840dd23b6b063f58bcb06dce" target="_top" xlink:title=" ">
<polygon fill="white" stroke="#666666" points="1522.5,-182 1358.75,-182 1358.75,-162 1522.5,-162 1522.5,-182"/>
<text text-anchor="middle" x="1440.62" y="-168.5" font-family="Helvetica,sans-Serif" font-size="10.00">WinPosWndCfg::getCloseTimeout</text>
</a>
</g>
</g>
<!-- Node20&#45;&gt;Node23 -->
<g id="edge23_Node000020_Node000023" class="edge">
<title>Node20&#45;&gt;Node23</title>
<g id="a_edge23_Node000020_Node000023"><a xlink:title=" ">
<path fill="none" stroke="#63b8ff" d="M925.42,-162.91C1020.74,-164.59 1226.72,-168.23 1347.05,-170.36"/>
<polygon fill="#63b8ff" stroke="#63b8ff" points="1346.84,-173.86 1356.91,-170.54 1346.97,-166.86 1346.84,-173.86"/>
</a>
</g>
</g>
<!-- Node24 -->
<g id="Node000024" class="node">
<title>Node24</title>
<g id="a_Node000024"><a xlink:href="class_win_pos_wnd_cfg.html#a10a73295ae59c85d651ad0088b235125" target="_top" xlink:title=" ">
<polygon fill="white" stroke="#666666" points="1132.75,-210 990.75,-210 990.75,-190 1132.75,-190 1132.75,-210"/>
<text text-anchor="middle" x="1061.75" y="-196.5" font-family="Helvetica,sans-Serif" font-size="10.00">WinPosWndCfg::getMonitors</text>
</a>
</g>
</g>
<!-- Node20&#45;&gt;Node24 -->
<g id="edge24_Node000020_Node000024" class="edge">
<title>Node20&#45;&gt;Node24</title>
<g id="a_edge24_Node000020_Node000024"><a xlink:title=" ">
<path fill="none" stroke="#63b8ff" d="M925.21,-172.38C947.84,-176.99 974.67,-182.46 998.48,-187.31"/>
<polygon fill="#63b8ff" stroke="#63b8ff" points="997.55,-190.69 1008.04,-189.26 998.94,-183.83 997.55,-190.69"/>
</a>
</g>
</g>
<!-- Node25 -->
<g id="Node000025" class="node">
<title>Node25</title>
<g id="a_Node000025"><a xlink:href="class_win_pos_wnd_cfg.html#a1fd1c1c55716a4697a044ae0671cf2aa" target="_top" xlink:title=" ">
<polygon fill="white" stroke="#666666" points="1505.25,-286 1376,-286 1376,-266 1505.25,-266 1505.25,-286"/>
<text text-anchor="middle" x="1440.62" y="-272.5" font-family="Helvetica,sans-Serif" font-size="10.00">WinPosWndCfg::getScale</text>
</a>
</g>
</g>
<!-- Node20&#45;&gt;Node25 -->
<g id="edge25_Node000020_Node000025" class="edge">
<title>Node20&#45;&gt;Node25</title>
<g id="a_edge25_Node000020_Node000025"><a xlink:title=" ">
<path fill="none" stroke="#63b8ff" d="M877.6,-172.28C887.61,-201.01 920.29,-282.1 979.5,-313 1122.33,-387.55 1324.6,-322.19 1404.86,-290.69"/>
<polygon fill="#63b8ff" stroke="#63b8ff" points="1405.97,-294.02 1413.95,-287.05 1403.37,-287.52 1405.97,-294.02"/>
</a>
</g>
</g>
<!-- Node26 -->
<g id="Node000026" class="node">
<title>Node26</title>
<g id="a_Node000026"><a xlink:href="class_win_pos_wnd.html#a159d04333920b8b0ab3b8ecc6f6607dd" target="_top" xlink:title=" ">
<polygon fill="white" stroke="#666666" points="1144,-134 979.5,-134 979.5,-114 1144,-114 1144,-134"/>
<text text-anchor="middle" x="1061.75" y="-120.5" font-family="Helvetica,sans-Serif" font-size="10.00">WinPosWnd::getTotalPreviewRect</text>
</a>
</g>
</g>
<!-- Node20&#45;&gt;Node26 -->
<g id="edge26_Node000020_Node000026" class="edge">
<title>Node20&#45;&gt;Node26</title>
<g id="a_edge26_Node000020_Node000026"><a xlink:title=" ">
<path fill="none" stroke="#63b8ff" d="M925.21,-151.62C947.84,-147.01 974.67,-141.54 998.48,-136.69"/>
<polygon fill="#63b8ff" stroke="#63b8ff" points="998.94,-140.17 1008.04,-134.74 997.55,-133.31 998.94,-140.17"/>
</a>
</g>
</g>
<!-- Node27 -->
<g id="Node000027" class="node">
<title>Node27</title>
<g id="a_Node000027"><a xlink:href="class_win_pos_wnd.html#a86ca33ea895961e25e6c1601e420f40e" target="_top" xlink:title="initialize the WNDCLASS structure">
<polygon fill="white" stroke="#666666" points="1129,-96 994.5,-96 994.5,-76 1129,-76 1129,-96"/>
<text text-anchor="middle" x="1061.75" y="-82.5" font-family="Helvetica,sans-Serif" font-size="10.00">WinPosWnd::initWndClass</text>
</a>
</g>
</g>
<!-- Node20&#45;&gt;Node27 -->
<g id="edge27_Node000020_Node000027" class="edge">
<title>Node20&#45;&gt;Node27</title>
<g id="a_edge27_Node000020_Node000027"><a xlink:title=" ">
<path fill="none" stroke="#63b8ff" d="M917.71,-151.6C926.57,-148.55 935.6,-144.73 943.5,-140 962.65,-128.54 959.92,-115.71 979.5,-105 982.52,-103.35 985.67,-101.84 988.91,-100.47"/>
<polygon fill="#63b8ff" stroke="#63b8ff" points="989.95,-103.81 998.09,-97.03 987.5,-97.26 989.95,-103.81"/>
</a>
</g>
</g>
<!-- Node30 -->
<g id="Node000030" class="node">
<title>Node30</title>
<g id="a_Node000030"><a xlink:href="struct_win_pos_wnd_1_1_monitor_preview.html#a01fe1b4351422928e43305d1758ae6fb" target="_top" xlink:title="move the rectangle to the cursor position">
<polygon fill="white" stroke="#666666" points="1132.75,-392 990.75,-392 990.75,-360 1132.75,-360 1132.75,-392"/>
<text text-anchor="start" x="998.75" y="-378.5" font-family="Helvetica,sans-Serif" font-size="10.00">WinPosWnd::MonitorPreview</text>
<text text-anchor="middle" x="1061.75" y="-366.5" font-family="Helvetica,sans-Serif" font-size="10.00">::offsetToPt</text>
</a>
</g>
</g>
<!-- Node20&#45;&gt;Node30 -->
<g id="edge30_Node000020_Node000030" class="edge">
<title>Node20&#45;&gt;Node30</title>
<g id="a_edge30_Node000020_Node000030"><a xlink:title=" ">
<path fill="none" stroke="#63b8ff" d="M877.37,-172.41C887.16,-203.36 920.23,-295.83 979.5,-346 983.12,-349.06 987.07,-351.82 991.23,-354.31"/>
<polygon fill="#63b8ff" stroke="#63b8ff" points="989.42,-357.32 999.9,-358.93 992.72,-351.14 989.42,-357.32"/>
</a>
</g>
</g>
<!-- Node31 -->
<g id="Node000031" class="node">
<title>Node31</title>
<g id="a_Node000031"><a xlink:href="class_win_pos_wnd_cfg.html#a038475d40481960d701d09f6e39467c8" target="_top" xlink:title=" ">
<polygon fill="white" stroke="#666666" points="1130.12,-248 993.38,-248 993.38,-228 1130.12,-228 1130.12,-248"/>
<text text-anchor="middle" x="1061.75" y="-234.5" font-family="Helvetica,sans-Serif" font-size="10.00">WinPosWndCfg::readConfig</text>
</a>
</g>
</g>
<!-- Node20&#45;&gt;Node31 -->
<g id="edge31_Node000020_Node000031" class="edge">
<title>Node20&#45;&gt;Node31</title>
<g id="a_edge31_Node000020_Node000031"><a xlink:title=" ">
<path fill="none" stroke="#63b8ff" d="M890.02,-172.28C910.06,-184.94 946.09,-206.31 979.5,-219 984.78,-221.01 990.34,-222.84 995.97,-224.51"/>
<polygon fill="#63b8ff" stroke="#63b8ff" points="994.79,-227.82 1005.36,-227.12 996.66,-221.07 994.79,-227.82"/>
</a>
</g>
</g>
<!-- Node28 -->
<g id="Node000028" class="node">
<title>Node28</title>
<g id="a_Node000028"><a xlink:href="class_win_pos_wnd.html#a104a18975fac2ac85a75eabda629ddb2" target="_top" xlink:title="static WNDPROC. Forwards to the WinPosWnd instances.">
<polygon fill="white" stroke="#666666" points="1322.75,-77 1180,-77 1180,-57 1322.75,-57 1322.75,-77"/>
<text text-anchor="middle" x="1251.38" y="-63.5" font-family="Helvetica,sans-Serif" font-size="10.00">WinPosWnd::WndProcStatic</text>
</a>
</g>
</g>
<!-- Node27&#45;&gt;Node28 -->
<g id="edge28_Node000027_Node000028" class="edge">
<title>Node27&#45;&gt;Node28</title>
<g id="a_edge28_Node000027_Node000028"><a xlink:title=" ">
<path fill="none" stroke="#63b8ff" d="M1129.43,-79.25C1142.06,-77.97 1155.4,-76.62 1168.43,-75.3"/>
<polygon fill="#63b8ff" stroke="#63b8ff" points="1168.68,-78.79 1178.28,-74.3 1167.97,-71.83 1168.68,-78.79"/>
</a>
</g>
</g>
<!-- Node29 -->
<g id="Node000029" class="node">
<title>Node29</title>
<g id="a_Node000029"><a xlink:href="class_win_pos_wnd.html#a5ad8686caf3b8310fff6d4bec255f898" target="_top" xlink:title="get the instance of WinPosWnd to a window handle">
<polygon fill="white" stroke="#666666" points="1513.12,-39 1368.12,-39 1368.12,-19 1513.12,-19 1513.12,-39"/>
<text text-anchor="middle" x="1440.62" y="-25.5" font-family="Helvetica,sans-Serif" font-size="10.00">WinPosWnd::getWinPosWnd</text>
</a>
</g>
</g>
<!-- Node28&#45;&gt;Node29 -->
<g id="edge29_Node000028_Node000029" class="edge">
<title>Node28&#45;&gt;Node29</title>
<g id="a_edge29_Node000028_Node000029"><a xlink:title=" ">
<path fill="none" stroke="#63b8ff" d="M1304.04,-56.52C1326.65,-51.93 1353.39,-46.5 1377.11,-41.69"/>
<polygon fill="#63b8ff" stroke="#63b8ff" points="1377.54,-45.17 1386.65,-39.75 1376.15,-38.31 1377.54,-45.17"/>
</a>
</g>
</g>
<!-- Node31&#45;&gt;Node25 -->
<g id="edge33_Node000031_Node000025" class="edge">
<title>Node31&#45;&gt;Node25</title>
<g id="a_edge33_Node000031_Node000025"><a xlink:title=" ">
<path fill="none" stroke="#63b8ff" d="M1130.56,-244.84C1196.51,-251.49 1296.46,-261.56 1364.72,-268.45"/>
<polygon fill="#63b8ff" stroke="#63b8ff" points="1364,-271.89 1374.31,-269.41 1364.71,-264.93 1364,-271.89"/>
</a>
</g>
</g>
<!-- Node31&#45;&gt;Node31 -->
<g id="edge34_Node000031_Node000031" class="edge">
<title>Node31&#45;&gt;Node31</title>
<g id="a_edge34_Node000031_Node000031"><a xlink:title=" ">
<path fill="none" stroke="#63b8ff" d="M1031.8,-248.34C1019,-256.98 1028.98,-266 1061.75,-266 1080.18,-266 1091.4,-263.14 1095.42,-259.11"/>
<polygon fill="#63b8ff" stroke="#63b8ff" points="1098.77,-258.08 1092.19,-249.77 1092.15,-260.36 1098.77,-258.08"/>
</a>
</g>
</g>
<!-- Node32 -->
<g id="Node000032" class="node">
<title>Node32</title>
<g id="a_Node000032"><a xlink:href="class_win_pos_wnd_cfg.html#a93944e9bbc627a502d59f845b3b1e827" target="_top" xlink:title=" ">
<polygon fill="white" stroke="#666666" points="1516.5,-239 1364.75,-239 1364.75,-219 1516.5,-219 1516.5,-239"/>
<text text-anchor="middle" x="1440.62" y="-225.5" font-family="Helvetica,sans-Serif" font-size="10.00">WinPosWndCfg::getConfigPath</text>
</a>
</g>
</g>
<!-- Node31&#45;&gt;Node32 -->
<g id="edge32_Node000031_Node000032" class="edge">
<title>Node31&#45;&gt;Node32</title>
<g id="a_edge32_Node000031_Node000032"><a xlink:title=" ">
<path fill="none" stroke="#63b8ff" d="M1130.56,-236.38C1192.77,-234.9 1285.22,-232.69 1352.8,-231.07"/>
<polygon fill="#63b8ff" stroke="#63b8ff" points="1352.84,-234.57 1362.76,-230.84 1352.68,-227.58 1352.84,-234.57"/>
</a>
</g>
</g>
<!-- Node33 -->
<g id="Node000033" class="node">
<title>Node33</title>
<g id="a_Node000033"><a xlink:href="class_win_pos_wnd_cfg.html#a2e024dd316be8cf377996f7be3017acd" target="_top" xlink:title=" ">
<polygon fill="white" stroke="#666666" points="1320.5,-210 1182.25,-210 1182.25,-190 1320.5,-190 1320.5,-210"/>
<text text-anchor="middle" x="1251.38" y="-196.5" font-family="Helvetica,sans-Serif" font-size="10.00">WinPosWndCfg::writeConfig</text>
</a>
</g>
</g>
<!-- Node31&#45;&gt;Node33 -->
<g id="edge35_Node000031_Node000033" class="edge">
<title>Node31&#45;&gt;Node33</title>
<g id="a_edge35_Node000031_Node000033"><a xlink:title=" ">
<path fill="none" stroke="#63b8ff" d="M1114.52,-227.52C1137.18,-222.93 1163.96,-217.5 1187.74,-212.69"/>
<polygon fill="#63b8ff" stroke="#63b8ff" points="1188.19,-216.17 1197.29,-210.75 1186.8,-209.31 1188.19,-216.17"/>
</a>
</g>
</g>
<!-- Node33&#45;&gt;Node23 -->
<g id="edge36_Node000033_Node000023" class="edge">
<title>Node33&#45;&gt;Node23</title>
<g id="a_edge36_Node000033_Node000023"><a xlink:title=" ">
<path fill="none" stroke="#63b8ff" d="M1320.77,-189.77C1332.93,-187.95 1345.7,-186.04 1358.18,-184.18"/>
<polygon fill="#63b8ff" stroke="#63b8ff" points="1358.66,-187.65 1368.03,-182.71 1357.63,-180.72 1358.66,-187.65"/>
</a>
</g>
</g>
<!-- Node33&#45;&gt;Node25 -->
<g id="edge38_Node000033_Node000025" class="edge">
<title>Node33&#45;&gt;Node25</title>
<g id="a_edge38_Node000033_Node000025"><a xlink:title=" ">
<path fill="none" stroke="#63b8ff" d="M1273.73,-210.32C1295.03,-220.46 1328.82,-236.09 1358.75,-248 1371.03,-252.88 1384.54,-257.76 1396.94,-262.03"/>
<polygon fill="#63b8ff" stroke="#63b8ff" points="1395.47,-265.23 1406.06,-265.13 1397.72,-258.6 1395.47,-265.23"/>
</a>
</g>
</g>
<!-- Node33&#45;&gt;Node32 -->
<g id="edge37_Node000033_Node000032" class="edge">
<title>Node33&#45;&gt;Node32</title>
<g id="a_edge37_Node000033_Node000032"><a xlink:title=" ">
<path fill="none" stroke="#63b8ff" d="M1319.98,-210.47C1333.23,-212.52 1347.25,-214.69 1360.84,-216.8"/>
<polygon fill="#63b8ff" stroke="#63b8ff" points="1360.21,-220.24 1370.63,-218.31 1361.28,-213.32 1360.21,-220.24"/>
</a>
</g>
</g>
<!-- Node35&#45;&gt;Node22 -->
<g id="edge41_Node000035_Node000022" class="edge">
<title>Node35&#45;&gt;Node22</title>
<g id="a_edge41_Node000035_Node000022"><a xlink:title=" ">
<path fill="none" stroke="#63b8ff" d="M759.94,-48C827.57,-48 929.41,-48 995.49,-48"/>
<polygon fill="#63b8ff" stroke="#63b8ff" points="995.48,-51.5 1005.48,-48 995.48,-44.5 995.48,-51.5"/>
</a>
</g>
</g>
<!-- Node35&#45;&gt;Node29 -->
<g id="edge42_Node000035_Node000029" class="edge">
<title>Node35&#45;&gt;Node29</title>
<g id="a_edge42_Node000035_Node000029"><a xlink:title=" ">
<path fill="none" stroke="#63b8ff" d="M759.74,-42.15C818.29,-37.53 904.3,-31.47 979.5,-29 1111.19,-24.68 1264.2,-25.93 1356.38,-27.36"/>
<polygon fill="#63b8ff" stroke="#63b8ff" points="1356.3,-30.86 1366.36,-27.52 1356.42,-23.86 1356.3,-30.86"/>
</a>
</g>
</g>
<!-- Node35&#45;&gt;Node34 -->
<g id="edge43_Node000035_Node000034" class="edge">
<title>Node35&#45;&gt;Node34</title>
<g id="a_edge43_Node000035_Node000034"><a xlink:title=" ">
<path fill="none" stroke="#63b8ff" d="M716.33,-58.46C747.68,-71.04 800.49,-92.22 835.85,-106.4"/>
<polygon fill="#63b8ff" stroke="#63b8ff" points="834.23,-109.52 844.82,-110 836.84,-103.03 834.23,-109.52"/>
</a>
</g>
</g>
<!-- Node36&#45;&gt;Node5 -->
<g id="edge46_Node000036_Node000005" class="edge">
<title>Node36&#45;&gt;Node5</title>
<g id="a_edge46_Node000036_Node000005"><a xlink:title=" ">
<path fill="none" stroke="#63b8ff" d="M553.81,-201.57C572.38,-202.04 593,-202.57 612.39,-203.06"/>
<polygon fill="#63b8ff" stroke="#63b8ff" points="612.05,-206.56 622.13,-203.31 612.22,-199.56 612.05,-206.56"/>
</a>
</g>
</g>
<!-- Node36&#45;&gt;Node18 -->
<g id="edge47_Node000036_Node000018" class="edge">
<title>Node36&#45;&gt;Node18</title>
<g id="a_edge47_Node000036_Node000018"><a xlink:title=" ">
<path fill="none" stroke="#63b8ff" d="M544.87,-189.55C569.35,-184.67 598.7,-178.83 624.45,-173.7"/>
<polygon fill="#63b8ff" stroke="#63b8ff" points="625.01,-177.16 634.13,-171.78 623.64,-170.3 625.01,-177.16"/>
</a>
</g>
</g>
<!-- Node37&#45;&gt;Node6 -->
<g id="edge49_Node000037_Node000006" class="edge">
<title>Node37&#45;&gt;Node6</title>
<g id="a_edge49_Node000037_Node000006"><a xlink:title=" ">
<path fill="none" stroke="#63b8ff" d="M560.88,-441.69C578.8,-443.71 598.16,-445.88 616.25,-447.91"/>
<polygon fill="#63b8ff" stroke="#63b8ff" points="615.79,-451.38 626.12,-449.02 616.57,-444.43 615.79,-451.38"/>
</a>
</g>
</g>
</g>
</svg>

<g id="navigator" transform="translate(0 0)" fill="#404254">
  <rect fill="#f2f5e9" fill-opacity="0.5" stroke="#606060" stroke-width=".5" x="0" y="0" width="60" height="60"/>
  <use id="zoomplus" xlink:href="#zoomPlus" x="17" y="9" onmousedown="handleZoom(evt,'in')"/>
  <use id="zoomminus" xlink:href="#zoomMin" x="42" y="9" onmousedown="handleZoom(evt,'out')"/>
  <use id="reset" xlink:href="#resetDef" x="30" y="36" onmousedown="handleReset()"/>
   <use id="arrowup" xlink:href="#arrowUp" x="0" y="0" onmousedown="handlePan(0,-1)"/>
  <use id="arrowright" xlink:href="#arrowRight" x="0" y="0" onmousedown="handlePan(1,0)"/>
  <use id="arrowdown" xlink:href="#arrowDown" x="0" y="0" onmousedown="handlePan(0,1)"/>
  <use id="arrowleft" xlink:href="#arrowLeft" x="0" y="0" onmousedown="handlePan(-1,0)"/>
</g>
<svg viewBox="0 0 15 15" width="100%" height="30px" preserveAspectRatio="xMaxYMin meet">
 <g id="arrow_out" transform="scale(0.3 0.3)">
  <a xlink:href="class_hooks_mgr_a7cfb009127366d7236f5c05c2e4f9ab3_cgraph_org.svg" target="_base">
   <rect id="button" ry="5" rx="5" y="6" x="6" height="38" width="38"
        fill="#f2f5e9" fill-opacity="0.5" stroke="#606060" stroke-width="1.0"/>
   <path id="arrow"
     d="M 11.500037,31.436501 C 11.940474,20.09759 22.043105,11.32322 32.158766,21.979434 L 37.068811,17.246167 C 37.068811,17.246167 37.088388,32 37.088388,32 L 22.160133,31.978069 C 22.160133,31.978069 26.997745,27.140456 26.997745,27.140456 C 18.528582,18.264221 13.291696,25.230495 11.500037,31.436501 z"
     style="fill:#404040;"/>
  </a>
 </g>
</svg>

<style type='text/css'>
<![CDATA[
[data-mouse-over-selected='false'] { opacity: 0.7; }
[data-mouse-over-selected='true']  { opacity: 1.0; }
]]>
</style>
<script type="application/ecmascript"><![CDATA[
document.addEventListener('DOMContentLoaded', (event) => {
  highlightEdges();
  highlightAdjacentNodes();
});
]]></script>
</svg>
