<?xml version="1.0" encoding="UTF-8" standalone="no"?>
<!DOCTYPE svg PUBLIC "-//W3C//DTD SVG 1.1//EN"
 "http://www.w3.org/Graphics/SVG/1.1/DTD/svg11.dtd">
<!-- Generated by graphviz version 8.1.0 (20230707.0739)
 -->
<!-- Title: HooksImpl::callWndProc Pages: 1 -->
<svg width="502pt" height="78pt"
 viewBox="0.00 0.00 502.25 78.00" xmlns="http://www.w3.org/2000/svg" xmlns:xlink="http://www.w3.org/1999/xlink">
<g id="graph0" class="graph" transform="scale(1 1) rotate(0) translate(4 74)">
<title>HooksImpl::callWndProc</title>
<!-- Node1 -->
<g id="Node000001" class="node">
<title>Node1</title>
<g id="a_Node000001"><a xlink:title="here we follow the main message loop of the application">
<polygon fill="#999999" stroke="#666666" points="123.25,-42 0,-42 0,-22 123.25,-22 123.25,-42"/>
<text text-anchor="middle" x="61.62" y="-28.5" font-family="Helvetica,sans-Serif" font-size="10.00">HooksImpl::callWndProc</text>
</a>
</g>
</g>
<!-- Node2 -->
<g id="Node000002" class="node">
<title>Node2</title>
<g id="a_Node000002"><a xlink:href="class_hooks_impl.html#a1022c4a7b4012228b83b0b89ee790f89" target="_top" xlink:title="here we react to position changes of the main window">
<polygon fill="white" stroke="#666666" points="327.5,-42 159.25,-42 159.25,-22 327.5,-22 327.5,-42"/>
<text text-anchor="middle" x="243.38" y="-28.5" font-family="Helvetica,sans-Serif" font-size="10.00">HooksImpl::onWindowPosChanged</text>
</a>
</g>
</g>
<!-- Node1&#45;&gt;Node2 -->
<g id="edge1_Node000001_Node000002" class="edge">
<title>Node1&#45;&gt;Node2</title>
<g id="a_edge1_Node000001_Node000002"><a xlink:title=" ">
<path fill="none" stroke="#63b8ff" d="M123.73,-32C131.59,-32 139.77,-32 148,-32"/>
<polygon fill="#63b8ff" stroke="#63b8ff" points="147.83,-35.5 157.83,-32 147.83,-28.5 147.83,-35.5"/>
</a>
</g>
</g>
<!-- Node3 -->
<g id="Node000003" class="node">
<title>Node3</title>
<g id="a_Node000003"><a xlink:href="class_hooks_impl.html#a8ef5405a747979c1f5197848e4a8e684" target="_top" xlink:title=" ">
<polygon fill="white" stroke="#666666" points="494.25,-70 363.5,-70 363.5,-38 494.25,-38 494.25,-70"/>
<text text-anchor="start" x="371.5" y="-56.5" font-family="Helvetica,sans-Serif" font-size="10.00">HooksImpl::hasCaptionDbl</text>
<text text-anchor="middle" x="428.88" y="-44.5" font-family="Helvetica,sans-Serif" font-size="10.00">Clicked</text>
</a>
</g>
</g>
<!-- Node2&#45;&gt;Node3 -->
<g id="edge2_Node000002_Node000003" class="edge">
<title>Node2&#45;&gt;Node3</title>
<g id="a_edge2_Node000002_Node000003"><a xlink:title=" ">
<path fill="none" stroke="#63b8ff" d="M327.8,-42C335.94,-42.98 344.16,-43.96 352.22,-44.93"/>
<polygon fill="#63b8ff" stroke="#63b8ff" points="351.72,-48.51 362.07,-46.23 352.56,-41.56 351.72,-48.51"/>
</a>
</g>
</g>
<!-- Node4 -->
<g id="Node000004" class="node">
<title>Node4</title>
<g id="a_Node000004"><a xlink:href="class_hooks_impl.html#a7a48621aa5b57024ae963b861fd508cb" target="_top" xlink:title=" ">
<polygon fill="white" stroke="#666666" points="490.12,-20 367.62,-20 367.62,0 490.12,0 490.12,-20"/>
<text text-anchor="middle" x="428.88" y="-6.5" font-family="Helvetica,sans-Serif" font-size="10.00">HooksImpl::hasLastRect</text>
</a>
</g>
</g>
<!-- Node2&#45;&gt;Node4 -->
<g id="edge3_Node000002_Node000004" class="edge">
<title>Node2&#45;&gt;Node4</title>
<g id="a_edge3_Node000002_Node000004"><a xlink:title=" ">
<path fill="none" stroke="#63b8ff" d="M327.8,-22C337.33,-20.86 346.98,-19.7 356.33,-18.58"/>
<polygon fill="#63b8ff" stroke="#63b8ff" points="356.64,-21.95 366.15,-17.28 355.8,-15 356.64,-21.95"/>
</a>
</g>
</g>
</g>
</svg>
