<?xml version="1.0" encoding="UTF-8" standalone="no"?>
<!DOCTYPE svg PUBLIC "-//W3C//DTD SVG 1.1//EN"
 "http://www.w3.org/Graphics/SVG/1.1/DTD/svg11.dtd">
<!-- Generated by graphviz version 9.0.0 (20230911.1827)
 -->
<!-- Title: HooksImpl::onIncrementWindow Pages: 1 -->
<svg width="1092pt" height="85pt"
 viewBox="0.00 0.00 1091.50 85.00" xmlns="http://www.w3.org/2000/svg" xmlns:xlink="http://www.w3.org/1999/xlink">
<g id="graph0" class="graph" transform="scale(1 1) rotate(0) translate(4 81)">
<title>HooksImpl::onIncrementWindow</title>
<!-- Node1 -->
<g id="Node000001" class="node">
<title>Node1</title>
<g id="a_Node000001"><a xlink:title="method to change the size of a window in steps">
<polygon fill="#999999" stroke="#666666" points="1083.5,-58 928,-58 928,-38 1083.5,-38 1083.5,-58"/>
<text text-anchor="middle" x="1005.75" y="-44.5" font-family="Helvetica,sans-Serif" font-size="10.00">HooksImpl::onIncrementWindow</text>
</a>
</g>
</g>
<!-- Node2 -->
<g id="Node000002" class="node">
<title>Node2</title>
<g id="a_Node000002"><a xlink:href="class_hooks_impl.html#a07053e18c49265e300fe89b2a5bc28de" target="_top" xlink:title="here the Windows messages are picked up, which do not appear in the main message loop">
<polygon fill="white" stroke="#666666" points="723,-58 602.75,-58 602.75,-38 723,-38 723,-58"/>
<text text-anchor="middle" x="662.88" y="-44.5" font-family="Helvetica,sans-Serif" font-size="10.00">HooksImpl::getMsgProc</text>
</a>
</g>
</g>
<!-- Node1&#45;&gt;Node2 -->
<g id="edge1_Node000001_Node000002" class="edge">
<title>Node1&#45;&gt;Node2</title>
<g id="a_edge1_Node000001_Node000002"><a xlink:title=" ">
<path fill="none" stroke="#63b8ff" d="M942.53,-60.39C926.16,-63.13 908.47,-65.62 892,-67 833.09,-71.93 817.82,-72.82 759,-67 741.74,-65.29 722.97,-61.88 706.7,-58.42"/>
<polygon fill="#63b8ff" stroke="#63b8ff" points="942.87,-63.89 952.13,-58.73 941.68,-56.99 942.87,-63.89"/>
</a>
</g>
</g>
<!-- Node10 -->
<g id="Node000010" class="node">
<title>Node10</title>
<g id="a_Node000010"><a xlink:href="class_hooks_impl.html#ae0d26e76e300b5392e64fb070aafe8d5" target="_top" xlink:title="do the work, if necessary">
<polygon fill="white" stroke="#666666" points="892,-58 759,-58 759,-38 892,-38 892,-58"/>
<text text-anchor="middle" x="825.5" y="-44.5" font-family="Helvetica,sans-Serif" font-size="10.00">HooksImpl::onCaptionClick</text>
</a>
</g>
</g>
<!-- Node1&#45;&gt;Node10 -->
<g id="edge9_Node000001_Node000010" class="edge">
<title>Node1&#45;&gt;Node10</title>
<g id="a_edge9_Node000001_Node000010"><a xlink:title=" ">
<path fill="none" stroke="#63b8ff" d="M916.24,-48C908.18,-48 900.12,-48 892.31,-48"/>
<polygon fill="#63b8ff" stroke="#63b8ff" points="916.09,-51.5 926.09,-48 916.09,-44.5 916.09,-51.5"/>
</a>
</g>
</g>
<!-- Node11 -->
<g id="Node000011" class="node">
<title>Node11</title>
<g id="a_Node000011"><a xlink:href="class_hooks_impl.html#a7628ad89b3625fcd9e8538d94d7b2cde" target="_top" xlink:title="processes the WM_LBUTTONUP event">
<polygon fill="white" stroke="#666666" points="887.5,-20 763.5,-20 763.5,0 887.5,0 887.5,-20"/>
<text text-anchor="middle" x="825.5" y="-6.5" font-family="Helvetica,sans-Serif" font-size="10.00">HooksImpl::onLButtonUp</text>
</a>
</g>
</g>
<!-- Node1&#45;&gt;Node11 -->
<g id="edge11_Node000001_Node000011" class="edge">
<title>Node1&#45;&gt;Node11</title>
<g id="a_edge11_Node000001_Node000011"><a xlink:title=" ">
<path fill="none" stroke="#63b8ff" d="M944.46,-35.15C922.01,-30.36 896.83,-24.99 875.52,-20.45"/>
<polygon fill="#63b8ff" stroke="#63b8ff" points="943.58,-38.54 954.09,-37.2 945.04,-31.69 943.58,-38.54"/>
</a>
</g>
</g>
<!-- Node3 -->
<g id="Node000003" class="node">
<title>Node3</title>
<g id="a_Node000003"><a xlink:href="_hooks_impl_8cpp.html#ab9f4b48939788d5aa0f404323b16a957" target="_top" xlink:title="the exported hook for the windows&#45;message procedure">
<polygon fill="white" stroke="#666666" points="566.75,-58 496,-58 496,-38 566.75,-38 566.75,-58"/>
<text text-anchor="middle" x="531.38" y="-44.5" font-family="Helvetica,sans-Serif" font-size="10.00">GetMsgProc</text>
</a>
</g>
</g>
<!-- Node2&#45;&gt;Node3 -->
<g id="edge2_Node000002_Node000003" class="edge">
<title>Node2&#45;&gt;Node3</title>
<g id="a_edge2_Node000002_Node000003"><a xlink:title=" ">
<path fill="none" stroke="#63b8ff" d="M591.07,-48C582.75,-48 574.58,-48 567.09,-48"/>
<polygon fill="#63b8ff" stroke="#63b8ff" points="590.92,-51.5 600.92,-48 590.92,-44.5 590.92,-51.5"/>
</a>
</g>
</g>
<!-- Node4 -->
<g id="Node000004" class="node">
<title>Node4</title>
<g id="a_Node000004"><a xlink:href="class_hooks_mgr.html#a7cfb009127366d7236f5c05c2e4f9ab3" target="_top" xlink:title=" ">
<polygon fill="white" stroke="#666666" points="452.12,-77 360.38,-77 360.38,-57 452.12,-57 452.12,-77"/>
<text text-anchor="middle" x="406.25" y="-63.5" font-family="Helvetica,sans-Serif" font-size="10.00">HooksMgr::install</text>
</a>
</g>
</g>
<!-- Node3&#45;&gt;Node4 -->
<g id="edge3_Node000003_Node000004" class="edge">
<title>Node3&#45;&gt;Node4</title>
<g id="a_edge3_Node000003_Node000004"><a xlink:title=" ">
<path fill="none" stroke="#63b8ff" d="M484.59,-55.07C474,-56.7 462.75,-58.44 452.2,-60.06"/>
<polygon fill="#63b8ff" stroke="#63b8ff" points="484.91,-58.56 494.25,-53.57 483.84,-51.64 484.91,-58.56"/>
</a>
</g>
</g>
<!-- Node8 -->
<g id="Node000008" class="node">
<title>Node8</title>
<g id="a_Node000008"><a xlink:href="class_hooks_mgr.html#a25aacc981b80470642a51175ee56ba01" target="_top" xlink:title=" ">
<polygon fill="white" stroke="#666666" points="460,-39 352.5,-39 352.5,-19 460,-19 460,-39"/>
<text text-anchor="middle" x="406.25" y="-25.5" font-family="Helvetica,sans-Serif" font-size="10.00">HooksMgr::setHooks</text>
</a>
</g>
</g>
<!-- Node3&#45;&gt;Node8 -->
<g id="edge7_Node000003_Node000008" class="edge">
<title>Node3&#45;&gt;Node8</title>
<g id="a_edge7_Node000003_Node000008"><a xlink:title=" ">
<path fill="none" stroke="#63b8ff" d="M484.58,-40.93C476.72,-39.72 468.51,-38.45 460.48,-37.21"/>
<polygon fill="#63b8ff" stroke="#63b8ff" points="483.84,-44.36 494.25,-42.43 484.91,-37.44 483.84,-44.36"/>
</a>
</g>
</g>
<!-- Node5 -->
<g id="Node000005" class="node">
<title>Node5</title>
<g id="a_Node000005"><a xlink:href="wi_npo_s-_app_8cpp.html#a30a1e3b0304f1b083637664cbda94e72" target="_top" xlink:title="the main window procedure of this app">
<polygon fill="white" stroke="#666666" points="298.12,-77 241.62,-77 241.62,-57 298.12,-57 298.12,-77"/>
<text text-anchor="middle" x="269.88" y="-63.5" font-family="Helvetica,sans-Serif" font-size="10.00">WndProc</text>
</a>
</g>
</g>
<!-- Node4&#45;&gt;Node5 -->
<g id="edge4_Node000004_Node000005" class="edge">
<title>Node4&#45;&gt;Node5</title>
<g id="a_edge4_Node000004_Node000005"><a xlink:title=" ">
<path fill="none" stroke="#63b8ff" d="M348.87,-67C331.44,-67 313.01,-67 298.45,-67"/>
<polygon fill="#63b8ff" stroke="#63b8ff" points="348.62,-70.5 358.62,-67 348.62,-63.5 348.62,-70.5"/>
</a>
</g>
</g>
<!-- Node6 -->
<g id="Node000006" class="node">
<title>Node6</title>
<g id="a_Node000006"><a xlink:href="wi_npo_s-_app_8cpp.html#aa0d0c9beb94350f8eac8fc4026a65375" target="_top" xlink:title=" ">
<polygon fill="white" stroke="#666666" points="187.25,-77 97,-77 97,-57 187.25,-57 187.25,-77"/>
<text text-anchor="middle" x="142.12" y="-63.5" font-family="Helvetica,sans-Serif" font-size="10.00">MyRegisterClass</text>
</a>
</g>
</g>
<!-- Node5&#45;&gt;Node6 -->
<g id="edge5_Node000005_Node000006" class="edge">
<title>Node5&#45;&gt;Node6</title>
<g id="a_edge5_Node000005_Node000006"><a xlink:title=" ">
<path fill="none" stroke="#63b8ff" d="M229.97,-67C216.51,-67 201.32,-67 187.46,-67"/>
<polygon fill="#63b8ff" stroke="#63b8ff" points="229.77,-70.5 239.77,-67 229.77,-63.5 229.77,-70.5"/>
</a>
</g>
</g>
<!-- Node7 -->
<g id="Node000007" class="node">
<title>Node7</title>
<g id="a_Node000007"><a xlink:href="wi_npo_s-_app_8cpp.html#a8c6630df6bab43efe8254a603885b62e" target="_top" xlink:title=" ">
<polygon fill="white" stroke="#666666" points="61,-77 0,-77 0,-57 61,-57 61,-77"/>
<text text-anchor="middle" x="30.5" y="-63.5" font-family="Helvetica,sans-Serif" font-size="10.00">wWinMain</text>
</a>
</g>
</g>
<!-- Node6&#45;&gt;Node7 -->
<g id="edge6_Node000006_Node000007" class="edge">
<title>Node6&#45;&gt;Node7</title>
<g id="a_edge6_Node000006_Node000007"><a xlink:title=" ">
<path fill="none" stroke="#63b8ff" d="M85.3,-67C77.02,-67 68.77,-67 61.31,-67"/>
<polygon fill="#63b8ff" stroke="#63b8ff" points="85.02,-70.5 95.02,-67 85.02,-63.5 85.02,-70.5"/>
</a>
</g>
</g>
<!-- Node9 -->
<g id="Node000009" class="node">
<title>Node9</title>
<g id="a_Node000009"><a xlink:href="class_hooks_mgr.html#a5f8aa4cd119cb5d489b0a6f1a2971a79" target="_top" xlink:title=" ">
<polygon fill="white" stroke="#666666" points="316.5,-39 223.25,-39 223.25,-19 316.5,-19 316.5,-39"/>
<text text-anchor="middle" x="269.88" y="-25.5" font-family="Helvetica,sans-Serif" font-size="10.00">HooksMgr::attach</text>
</a>
</g>
</g>
<!-- Node8&#45;&gt;Node9 -->
<g id="edge8_Node000008_Node000009" class="edge">
<title>Node8&#45;&gt;Node9</title>
<g id="a_edge8_Node000008_Node000009"><a xlink:title=" ">
<path fill="none" stroke="#63b8ff" d="M340.73,-29C332.59,-29 324.41,-29 316.65,-29"/>
<polygon fill="#63b8ff" stroke="#63b8ff" points="340.63,-32.5 350.63,-29 340.63,-25.5 340.63,-32.5"/>
</a>
</g>
</g>
<!-- Node10&#45;&gt;Node2 -->
<g id="edge10_Node000010_Node000002" class="edge">
<title>Node10&#45;&gt;Node2</title>
<g id="a_edge10_Node000010_Node000002"><a xlink:title=" ">
<path fill="none" stroke="#63b8ff" d="M747.37,-48C739.31,-48 731.2,-48 723.38,-48"/>
<polygon fill="#63b8ff" stroke="#63b8ff" points="747.19,-51.5 757.19,-48 747.19,-44.5 747.19,-51.5"/>
</a>
</g>
</g>
<!-- Node11&#45;&gt;Node2 -->
<g id="edge12_Node000011_Node000002" class="edge">
<title>Node11&#45;&gt;Node2</title>
<g id="a_edge12_Node000011_Node000002"><a xlink:title=" ">
<path fill="none" stroke="#63b8ff" d="M769.06,-23.12C749.12,-27.83 726.9,-33.09 708.05,-37.55"/>
<polygon fill="#63b8ff" stroke="#63b8ff" points="769.78,-26.54 778.71,-20.83 768.17,-19.73 769.78,-26.54"/>
</a>
</g>
</g>
</g>
</svg>
