<?xml version="1.0" encoding="UTF-8" standalone="no"?>
<!DOCTYPE svg PUBLIC "-//W3C//DTD SVG 1.1//EN"
 "http://www.w3.org/Graphics/SVG/1.1/DTD/svg11.dtd">
<!-- Generated by graphviz version 8.1.0 (20230707.0739)
 -->
<!-- Title: WinPosWndCfg::getScale Pages: 1 -->
<!--zoomable 95 -->

<svg id="main" version="1.1" xmlns="http://www.w3.org/2000/svg" xmlns:xlink="http://www.w3.org/1999/xlink" xml:space="preserve" onload="init(evt)">
<style type="text/css"><![CDATA[
.node, .edge {opacity: 0.7;}
.node.selected, .edge.selected {opacity: 1;}
.edge:hover path { stroke: red; }
.edge:hover polygon { stroke: red; fill: red; }
]]></style>

<defs>
  <circle id="rim" cx="0" cy="0" r="7"/>
  <circle id="rim2" cx="0" cy="0" r="3.5"/>
  <g id="zoomPlus">
    <use xlink:href="#rim" fill="#404040"><set attributeName="fill" to="#808080" begin="zoomplus.mouseover" end="zoomplus.mouseout"/></use>
    <path d="M-4,0h8M0,-4v8" fill="none" stroke="white" stroke-width="1.5" pointer-events="none"/>
  </g>
  <g id="zoomMin">
    <use xlink:href="#rim" fill="#404040"><set attributeName="fill" to="#808080" begin="zoomminus.mouseover" end="zoomminus.mouseout"/></use>
    <path d="M-4,0h8" fill="none" stroke="white" stroke-width="1.5" pointer-events="none"/>
  </g>
  <g id="arrowUp" transform="translate(30 24)">
    <use xlink:href="#rim"/>
    <path pointer-events="none" fill="none" stroke="white" stroke-width="1.5" d="M0,-3.0v7 M-2.5,-0.5L0,-3.0L2.5,-0.5"/>
  </g>
  <g id="arrowRight" transform="rotate(90) translate(36 -43)">
    <use xlink:href="#rim"/>
    <path pointer-events="none" fill="none" stroke="white" stroke-width="1.5" d="M0,-3.0v7 M-2.5,-0.5L0,-3.0L2.5,-0.5"/>
  </g>
  <g id="arrowDown" transform="rotate(180) translate(-30 -48)">
    <use xlink:href="#rim"/>
    <path pointer-events="none" fill="none" stroke="white" stroke-width="1.5" d="M0,-3.0v7 M-2.5,-0.5L0,-3.0L2.5,-0.5"/>
  </g>
  <g id="arrowLeft" transform="rotate(270) translate(-36 17)">
    <use xlink:href="#rim"/>
    <path pointer-events="none" fill="none" stroke="white" stroke-width="1.5" d="M0,-3.0v7 M-2.5,-0.5L0,-3.0L2.5,-0.5"/>
  </g>
  <g id="resetDef">
    <use xlink:href="#rim2" fill="#404040"><set attributeName="fill" to="#808080" begin="reset.mouseover" end="reset.mouseout"/></use>
  </g>
</defs>
<script type="application/ecmascript">
var viewWidth = 1728;
var viewHeight = 95;
var sectionId = 'dynsection-4';
</script>
<script type="application/ecmascript" xlink:href="svg.min.js"/>
<svg id="graph" class="graph">
<g id="viewport">
<title>WinPosWndCfg::getScale</title>
<!-- Node1 -->
<g id="Node000001" class="node">
<title>Node1</title>
<g id="a_Node000001"><a xlink:title=" ">
<polygon fill="#999999" stroke="#666666" points="1719.75,-58 1590.5,-58 1590.5,-38 1719.75,-38 1719.75,-58"/>
<text text-anchor="middle" x="1655.12" y="-44.5" font-family="Helvetica,sans-Serif" font-size="10.00">WinPosWndCfg::getScale</text>
</a>
</g>
</g>
<!-- Node2 -->
<g id="Node000002" class="node">
<title>Node2</title>
<g id="a_Node000002"><a xlink:href="class_win_pos_wnd.html#abec2e67db5543a717d59b02ab8dbb930" target="_top" xlink:title="create the required windows for monitor preview and all configured positions">
<polygon fill="white" stroke="#666666" points="1207.5,-68 1103.75,-68 1103.75,-48 1207.5,-48 1207.5,-68"/>
<text text-anchor="middle" x="1155.62" y="-54.5" font-family="Helvetica,sans-Serif" font-size="10.00">WinPosWnd::create</text>
</a>
</g>
</g>
<!-- Node1&#45;&gt;Node2 -->
<g id="edge1_Node000001_Node000002" class="edge">
<title>Node1&#45;&gt;Node2</title>
<g id="a_edge1_Node000001_Node000002"><a xlink:title=" ">
<path fill="none" stroke="#63b8ff" d="M1579.35,-55.85C1497.04,-63.47 1360.82,-73.06 1243.5,-67 1231.84,-66.4 1219.33,-65.34 1207.55,-64.16"/>
<polygon fill="#63b8ff" stroke="#63b8ff" points="1579.47,-59.26 1589.1,-54.84 1578.82,-52.29 1579.47,-59.26"/>
</a>
</g>
</g>
<!-- Node13 -->
<g id="Node000013" class="node">
<title>Node13</title>
<g id="a_Node000013"><a xlink:href="class_win_pos_wnd_cfg.html#a038475d40481960d701d09f6e39467c8" target="_top" xlink:title=" ">
<polygon fill="white" stroke="#666666" points="1380.25,-40 1243.5,-40 1243.5,-20 1380.25,-20 1380.25,-40"/>
<text text-anchor="middle" x="1311.88" y="-26.5" font-family="Helvetica,sans-Serif" font-size="10.00">WinPosWndCfg::readConfig</text>
</a>
</g>
</g>
<!-- Node1&#45;&gt;Node13 -->
<g id="edge13_Node000001_Node000013" class="edge">
<title>Node1&#45;&gt;Node13</title>
<g id="a_edge13_Node000001_Node000013"><a xlink:title=" ">
<path fill="none" stroke="#63b8ff" d="M1579.55,-44.07C1520.31,-40.94 1438.15,-36.61 1380.73,-33.58"/>
<polygon fill="#63b8ff" stroke="#63b8ff" points="1579.17,-47.6 1589.34,-44.64 1579.54,-40.61 1579.17,-47.6"/>
</a>
</g>
</g>
<!-- Node14 -->
<g id="Node000014" class="node">
<title>Node14</title>
<g id="a_Node000014"><a xlink:href="class_win_pos_wnd_cfg.html#a2e024dd316be8cf377996f7be3017acd" target="_top" xlink:title=" ">
<polygon fill="white" stroke="#666666" points="1554.5,-20 1416.25,-20 1416.25,0 1554.5,0 1554.5,-20"/>
<text text-anchor="middle" x="1485.38" y="-6.5" font-family="Helvetica,sans-Serif" font-size="10.00">WinPosWndCfg::writeConfig</text>
</a>
</g>
</g>
<!-- Node1&#45;&gt;Node14 -->
<g id="edge16_Node000001_Node000014" class="edge">
<title>Node1&#45;&gt;Node14</title>
<g id="a_edge16_Node000001_Node000014"><a xlink:title=" ">
<path fill="none" stroke="#63b8ff" d="M1597.39,-35.15C1576.26,-30.36 1552.57,-24.99 1532.51,-20.45"/>
<polygon fill="#63b8ff" stroke="#63b8ff" points="1596.32,-38.72 1606.84,-37.52 1597.86,-31.89 1596.32,-38.72"/>
</a>
</g>
</g>
<!-- Node3 -->
<g id="Node000003" class="node">
<title>Node3</title>
<g id="a_Node000003"><a xlink:href="class_hooks_impl.html#ab6696c1ccc12ebdd892883485456ed3c" target="_top" xlink:title=" ">
<polygon fill="white" stroke="#666666" points="1067.75,-68 928,-68 928,-48 1067.75,-48 1067.75,-68"/>
<text text-anchor="middle" x="997.88" y="-54.5" font-family="Helvetica,sans-Serif" font-size="10.00">HooksImpl::onShowPosWnd</text>
</a>
</g>
</g>
<!-- Node2&#45;&gt;Node3 -->
<g id="edge2_Node000002_Node000003" class="edge">
<title>Node2&#45;&gt;Node3</title>
<g id="a_edge2_Node000002_Node000003"><a xlink:title=" ">
<path fill="none" stroke="#63b8ff" d="M1092.76,-58C1084.66,-58 1076.31,-58 1068.1,-58"/>
<polygon fill="#63b8ff" stroke="#63b8ff" points="1092.63,-61.5 1102.63,-58 1092.63,-54.5 1092.63,-61.5"/>
</a>
</g>
</g>
<!-- Node4 -->
<g id="Node000004" class="node">
<title>Node4</title>
<g id="a_Node000004"><a xlink:href="class_hooks_impl.html#a07053e18c49265e300fe89b2a5bc28de" target="_top" xlink:title="here the Windows messages are picked up, which do not appear in the main message loop">
<polygon fill="white" stroke="#666666" points="723,-68 602.75,-68 602.75,-48 723,-48 723,-68"/>
<text text-anchor="middle" x="662.88" y="-54.5" font-family="Helvetica,sans-Serif" font-size="10.00">HooksImpl::getMsgProc</text>
</a>
</g>
</g>
<!-- Node3&#45;&gt;Node4 -->
<g id="edge3_Node000003_Node000004" class="edge">
<title>Node3&#45;&gt;Node4</title>
<g id="a_edge3_Node000003_Node000004"><a xlink:title=" ">
<path fill="none" stroke="#63b8ff" d="M917,-58C857.42,-58 777.31,-58 723.31,-58"/>
<polygon fill="#63b8ff" stroke="#63b8ff" points="916.88,-61.5 926.88,-58 916.88,-54.5 916.88,-61.5"/>
</a>
</g>
</g>
<!-- Node12 -->
<g id="Node000012" class="node">
<title>Node12</title>
<g id="a_Node000012"><a xlink:href="class_hooks_impl.html#ae0d26e76e300b5392e64fb070aafe8d5" target="_top" xlink:title="do the work, if necessary">
<polygon fill="white" stroke="#666666" points="892,-49 759,-49 759,-29 892,-29 892,-49"/>
<text text-anchor="middle" x="825.5" y="-35.5" font-family="Helvetica,sans-Serif" font-size="10.00">HooksImpl::onCaptionClick</text>
</a>
</g>
</g>
<!-- Node3&#45;&gt;Node12 -->
<g id="edge11_Node000003_Node000012" class="edge">
<title>Node3&#45;&gt;Node12</title>
<g id="a_edge11_Node000003_Node000012"><a xlink:title=" ">
<path fill="none" stroke="#63b8ff" d="M916.88,-49.08C908.69,-48.17 900.44,-47.25 892.43,-46.35"/>
<polygon fill="#63b8ff" stroke="#63b8ff" points="916.25,-52.64 926.58,-50.27 917.03,-45.69 916.25,-52.64"/>
</a>
</g>
</g>
<!-- Node5 -->
<g id="Node000005" class="node">
<title>Node5</title>
<g id="a_Node000005"><a xlink:href="_hooks_impl_8cpp.html#ab9f4b48939788d5aa0f404323b16a957" target="_top" xlink:title="the exported hook for the windows&#45;message procedure">
<polygon fill="white" stroke="#666666" points="566.75,-68 496,-68 496,-48 566.75,-48 566.75,-68"/>
<text text-anchor="middle" x="531.38" y="-54.5" font-family="Helvetica,sans-Serif" font-size="10.00">GetMsgProc</text>
</a>
</g>
</g>
<!-- Node4&#45;&gt;Node5 -->
<g id="edge4_Node000004_Node000005" class="edge">
<title>Node4&#45;&gt;Node5</title>
<g id="a_edge4_Node000004_Node000005"><a xlink:title=" ">
<path fill="none" stroke="#63b8ff" d="M591.63,-58C583.13,-58 574.75,-58 567.09,-58"/>
<polygon fill="#63b8ff" stroke="#63b8ff" points="591.43,-61.5 601.43,-58 591.43,-54.5 591.43,-61.5"/>
</a>
</g>
</g>
<!-- Node6 -->
<g id="Node000006" class="node">
<title>Node6</title>
<g id="a_Node000006"><a xlink:href="class_hooks_mgr.html#a7cfb009127366d7236f5c05c2e4f9ab3" target="_top" xlink:title=" ">
<polygon fill="white" stroke="#666666" points="452.12,-87 360.38,-87 360.38,-67 452.12,-67 452.12,-87"/>
<text text-anchor="middle" x="406.25" y="-73.5" font-family="Helvetica,sans-Serif" font-size="10.00">HooksMgr::install</text>
</a>
</g>
</g>
<!-- Node5&#45;&gt;Node6 -->
<g id="edge5_Node000005_Node000006" class="edge">
<title>Node5&#45;&gt;Node6</title>
<g id="a_edge5_Node000005_Node000006"><a xlink:title=" ">
<path fill="none" stroke="#63b8ff" d="M484.93,-65.01C474.24,-66.66 462.86,-68.42 452.2,-70.06"/>
<polygon fill="#63b8ff" stroke="#63b8ff" points="485.4,-68.33 494.75,-63.34 484.33,-61.41 485.4,-68.33"/>
</a>
</g>
</g>
<!-- Node10 -->
<g id="Node000010" class="node">
<title>Node10</title>
<g id="a_Node000010"><a xlink:href="class_hooks_mgr.html#a25aacc981b80470642a51175ee56ba01" target="_top" xlink:title=" ">
<polygon fill="white" stroke="#666666" points="460,-49 352.5,-49 352.5,-29 460,-29 460,-49"/>
<text text-anchor="middle" x="406.25" y="-35.5" font-family="Helvetica,sans-Serif" font-size="10.00">HooksMgr::setHooks</text>
</a>
</g>
</g>
<!-- Node5&#45;&gt;Node10 -->
<g id="edge9_Node000005_Node000010" class="edge">
<title>Node5&#45;&gt;Node10</title>
<g id="a_edge9_Node000005_Node000010"><a xlink:title=" ">
<path fill="none" stroke="#63b8ff" d="M485.12,-51.02C477.11,-49.78 468.69,-48.48 460.48,-47.21"/>
<polygon fill="#63b8ff" stroke="#63b8ff" points="484.33,-54.59 494.75,-52.66 485.4,-47.67 484.33,-54.59"/>
</a>
</g>
</g>
<!-- Node7 -->
<g id="Node000007" class="node">
<title>Node7</title>
<g id="a_Node000007"><a xlink:href="wi_npo_s-_app_8cpp.html#a30a1e3b0304f1b083637664cbda94e72" target="_top" xlink:title="the main window procedure of this app">
<polygon fill="white" stroke="#666666" points="298.12,-87 241.62,-87 241.62,-67 298.12,-67 298.12,-87"/>
<text text-anchor="middle" x="269.88" y="-73.5" font-family="Helvetica,sans-Serif" font-size="10.00">WndProc</text>
</a>
</g>
</g>
<!-- Node6&#45;&gt;Node7 -->
<g id="edge6_Node000006_Node000007" class="edge">
<title>Node6&#45;&gt;Node7</title>
<g id="a_edge6_Node000006_Node000007"><a xlink:title=" ">
<path fill="none" stroke="#63b8ff" d="M349.37,-77C331.79,-77 313.15,-77 298.45,-77"/>
<polygon fill="#63b8ff" stroke="#63b8ff" points="349.13,-80.5 359.13,-77 349.13,-73.5 349.13,-80.5"/>
</a>
</g>
</g>
<!-- Node8 -->
<g id="Node000008" class="node">
<title>Node8</title>
<g id="a_Node000008"><a xlink:href="wi_npo_s-_app_8cpp.html#aa0d0c9beb94350f8eac8fc4026a65375" target="_top" xlink:title=" ">
<polygon fill="white" stroke="#666666" points="187.25,-87 97,-87 97,-67 187.25,-67 187.25,-87"/>
<text text-anchor="middle" x="142.12" y="-73.5" font-family="Helvetica,sans-Serif" font-size="10.00">MyRegisterClass</text>
</a>
</g>
</g>
<!-- Node7&#45;&gt;Node8 -->
<g id="edge7_Node000007_Node000008" class="edge">
<title>Node7&#45;&gt;Node8</title>
<g id="a_edge7_Node000007_Node000008"><a xlink:title=" ">
<path fill="none" stroke="#63b8ff" d="M230.38,-77C216.81,-77 201.46,-77 187.46,-77"/>
<polygon fill="#63b8ff" stroke="#63b8ff" points="230.28,-80.5 240.28,-77 230.28,-73.5 230.28,-80.5"/>
</a>
</g>
</g>
<!-- Node9 -->
<g id="Node000009" class="node">
<title>Node9</title>
<g id="a_Node000009"><a xlink:href="wi_npo_s-_app_8cpp.html#a8c6630df6bab43efe8254a603885b62e" target="_top" xlink:title=" ">
<polygon fill="white" stroke="#666666" points="61,-87 0,-87 0,-67 61,-67 61,-87"/>
<text text-anchor="middle" x="30.5" y="-73.5" font-family="Helvetica,sans-Serif" font-size="10.00">wWinMain</text>
</a>
</g>
</g>
<!-- Node8&#45;&gt;Node9 -->
<g id="edge8_Node000008_Node000009" class="edge">
<title>Node8&#45;&gt;Node9</title>
<g id="a_edge8_Node000008_Node000009"><a xlink:title=" ">
<path fill="none" stroke="#63b8ff" d="M85.58,-77C77.21,-77 68.86,-77 61.31,-77"/>
<polygon fill="#63b8ff" stroke="#63b8ff" points="85.54,-80.5 95.54,-77 85.54,-73.5 85.54,-80.5"/>
</a>
</g>
</g>
<!-- Node11 -->
<g id="Node000011" class="node">
<title>Node11</title>
<g id="a_Node000011"><a xlink:href="class_hooks_mgr.html#a5f8aa4cd119cb5d489b0a6f1a2971a79" target="_top" xlink:title=" ">
<polygon fill="white" stroke="#666666" points="316.5,-49 223.25,-49 223.25,-29 316.5,-29 316.5,-49"/>
<text text-anchor="middle" x="269.88" y="-35.5" font-family="Helvetica,sans-Serif" font-size="10.00">HooksMgr::attach</text>
</a>
</g>
</g>
<!-- Node10&#45;&gt;Node11 -->
<g id="edge10_Node000010_Node000011" class="edge">
<title>Node10&#45;&gt;Node11</title>
<g id="a_edge10_Node000010_Node000011"><a xlink:title=" ">
<path fill="none" stroke="#63b8ff" d="M341.29,-39C332.97,-39 324.59,-39 316.65,-39"/>
<polygon fill="#63b8ff" stroke="#63b8ff" points="341.14,-42.5 351.14,-39 341.14,-35.5 341.14,-42.5"/>
</a>
</g>
</g>
<!-- Node12&#45;&gt;Node4 -->
<g id="edge12_Node000012_Node000004" class="edge">
<title>Node12&#45;&gt;Node4</title>
<g id="a_edge12_Node000012_Node000004"><a xlink:title=" ">
<path fill="none" stroke="#63b8ff" d="M747.92,-48.06C739.68,-49.03 731.38,-50.01 723.38,-50.96"/>
<polygon fill="#63b8ff" stroke="#63b8ff" points="748.18,-51.43 757.7,-46.78 747.36,-44.48 748.18,-51.43"/>
</a>
</g>
</g>
<!-- Node13&#45;&gt;Node2 -->
<g id="edge14_Node000013_Node000002" class="edge">
<title>Node13&#45;&gt;Node2</title>
<g id="a_edge14_Node000013_Node000002"><a xlink:title=" ">
<path fill="none" stroke="#63b8ff" d="M1242.76,-42.37C1231,-44.5 1218.96,-46.68 1207.76,-48.72"/>
<polygon fill="#63b8ff" stroke="#63b8ff" points="1243.22,-45.66 1252.44,-40.43 1241.97,-38.77 1243.22,-45.66"/>
</a>
</g>
</g>
<!-- Node13&#45;&gt;Node13 -->
<g id="edge15_Node000013_Node000013" class="edge">
<title>Node13&#45;&gt;Node13</title>
<g id="a_edge15_Node000013_Node000013"><a xlink:title=" ">
<path fill="none" stroke="#63b8ff" d="M1340.05,-50.77C1336.97,-54.98 1327.58,-58 1311.88,-58 1284.71,-58 1276.44,-48.98 1287.05,-40.34"/>
<polygon fill="#63b8ff" stroke="#63b8ff" points="1343.09,-49.79 1336.7,-41.34 1336.42,-51.93 1343.09,-49.79"/>
</a>
</g>
</g>
<!-- Node14&#45;&gt;Node13 -->
<g id="edge17_Node000014_Node000013" class="edge">
<title>Node14&#45;&gt;Node13</title>
<g id="a_edge17_Node000014_Node000013"><a xlink:title=" ">
<path fill="none" stroke="#63b8ff" d="M1405.33,-19.22C1397.08,-20.18 1388.74,-21.15 1380.63,-22.1"/>
<polygon fill="#63b8ff" stroke="#63b8ff" points="1405.57,-22.6 1415.1,-17.96 1404.76,-15.64 1405.57,-22.6"/>
</a>
</g>
</g>
</g>
</svg>

<g id="navigator" transform="translate(0 0)" fill="#404254">
  <rect fill="#f2f5e9" fill-opacity="0.5" stroke="#606060" stroke-width=".5" x="0" y="0" width="60" height="60"/>
  <use id="zoomplus" xlink:href="#zoomPlus" x="17" y="9" onmousedown="handleZoom(evt,'in')"/>
  <use id="zoomminus" xlink:href="#zoomMin" x="42" y="9" onmousedown="handleZoom(evt,'out')"/>
  <use id="reset" xlink:href="#resetDef" x="30" y="36" onmousedown="handleReset()"/>
   <use id="arrowup" xlink:href="#arrowUp" x="0" y="0" onmousedown="handlePan(0,-1)"/>
  <use id="arrowright" xlink:href="#arrowRight" x="0" y="0" onmousedown="handlePan(1,0)"/>
  <use id="arrowdown" xlink:href="#arrowDown" x="0" y="0" onmousedown="handlePan(0,1)"/>
  <use id="arrowleft" xlink:href="#arrowLeft" x="0" y="0" onmousedown="handlePan(-1,0)"/>
</g>
<svg viewBox="0 0 15 15" width="100%" height="30px" preserveAspectRatio="xMaxYMin meet">
 <g id="arrow_out" transform="scale(0.3 0.3)">
  <a xlink:href="class_win_pos_wnd_cfg_a1fd1c1c55716a4697a044ae0671cf2aa_icgraph_org.svg" target="_base">
   <rect id="button" ry="5" rx="5" y="6" x="6" height="38" width="38"
        fill="#f2f5e9" fill-opacity="0.5" stroke="#606060" stroke-width="1.0"/>
   <path id="arrow"
     d="M 11.500037,31.436501 C 11.940474,20.09759 22.043105,11.32322 32.158766,21.979434 L 37.068811,17.246167 C 37.068811,17.246167 37.088388,32 37.088388,32 L 22.160133,31.978069 C 22.160133,31.978069 26.997745,27.140456 26.997745,27.140456 C 18.528582,18.264221 13.291696,25.230495 11.500037,31.436501 z"
     style="fill:#404040;"/>
  </a>
 </g>
</svg>

<style type='text/css'>
<![CDATA[
[data-mouse-over-selected='false'] { opacity: 0.7; }
[data-mouse-over-selected='true']  { opacity: 1.0; }
]]>
</style>
<script type="application/ecmascript"><![CDATA[
document.addEventListener('DOMContentLoaded', (event) => {
  highlightEdges();
  highlightAdjacentNodes();
});
]]></script>
</svg>
