<?xml version="1.0" encoding="UTF-8" standalone="no"?>
<!DOCTYPE svg PUBLIC "-//W3C//DTD SVG 1.1//EN"
 "http://www.w3.org/Graphics/SVG/1.1/DTD/svg11.dtd">
<!-- Generated by graphviz version 9.0.0 (20230911.1827)
 -->
<!-- Title: WinPosWndCfg::getConfigPath Pages: 1 -->
<svg width="1760pt" height="113pt"
 viewBox="0.00 0.00 1760.00 113.00" xmlns="http://www.w3.org/2000/svg" xmlns:xlink="http://www.w3.org/1999/xlink">
<g id="graph0" class="graph" transform="scale(1 1) rotate(0) translate(4 109)">
<title>WinPosWndCfg::getConfigPath</title>
<!-- Node1 -->
<g id="Node000001" class="node">
<title>Node1</title>
<g id="a_Node000001"><a xlink:title=" ">
<polygon fill="#999999" stroke="#666666" points="1752,-67 1600.25,-67 1600.25,-47 1752,-47 1752,-67"/>
<text text-anchor="middle" x="1676.12" y="-53.5" font-family="Helvetica,sans-Serif" font-size="10.00">WinPosWndCfg::getConfigPath</text>
</a>
</g>
</g>
<!-- Node2 -->
<g id="Node000002" class="node">
<title>Node2</title>
<g id="a_Node000002"><a xlink:href="class_hooks_cfg.html#a8b233f05628799d6d8e141b1b87254ff" target="_top" xlink:title="open the wiNpoS config in editor">
<polygon fill="white" stroke="#666666" points="1390,-105 1243.5,-105 1243.5,-85 1390,-85 1390,-105"/>
<text text-anchor="middle" x="1316.75" y="-91.5" font-family="Helvetica,sans-Serif" font-size="10.00">HooksCfg::openWinPosConfig</text>
</a>
</g>
</g>
<!-- Node1&#45;&gt;Node2 -->
<g id="edge1_Node000001_Node000002" class="edge">
<title>Node1&#45;&gt;Node2</title>
<g id="a_edge1_Node000001_Node000002"><a xlink:title=" ">
<path fill="none" stroke="#63b8ff" d="M1588.67,-66.19C1527.94,-72.65 1447.64,-81.19 1390.25,-87.29"/>
<polygon fill="#63b8ff" stroke="#63b8ff" points="1588.69,-69.71 1598.27,-65.17 1587.95,-62.75 1588.69,-69.71"/>
</a>
</g>
</g>
<!-- Node6 -->
<g id="Node000006" class="node">
<title>Node6</title>
<g id="a_Node000006"><a xlink:href="class_win_pos_wnd_cfg.html#a038475d40481960d701d09f6e39467c8" target="_top" xlink:title=" ">
<polygon fill="white" stroke="#666666" points="1385.12,-39 1248.38,-39 1248.38,-19 1385.12,-19 1385.12,-39"/>
<text text-anchor="middle" x="1316.75" y="-25.5" font-family="Helvetica,sans-Serif" font-size="10.00">WinPosWndCfg::readConfig</text>
</a>
</g>
</g>
<!-- Node1&#45;&gt;Node6 -->
<g id="edge5_Node000001_Node000006" class="edge">
<title>Node1&#45;&gt;Node6</title>
<g id="a_edge5_Node000001_Node000006"><a xlink:title=" ">
<path fill="none" stroke="#63b8ff" d="M1588.62,-50.55C1540.69,-46.94 1480.04,-42.31 1426,-38 1412.93,-36.96 1398.99,-35.82 1385.59,-34.71"/>
<polygon fill="#63b8ff" stroke="#63b8ff" points="1588.15,-54.02 1598.38,-51.28 1588.67,-47.04 1588.15,-54.02"/>
</a>
</g>
</g>
<!-- Node15 -->
<g id="Node000015" class="node">
<title>Node15</title>
<g id="a_Node000015"><a xlink:href="class_win_pos_wnd_cfg.html#a2e024dd316be8cf377996f7be3017acd" target="_top" xlink:title=" ">
<polygon fill="white" stroke="#666666" points="1564.25,-29 1426,-29 1426,-9 1564.25,-9 1564.25,-29"/>
<text text-anchor="middle" x="1495.12" y="-15.5" font-family="Helvetica,sans-Serif" font-size="10.00">WinPosWndCfg::writeConfig</text>
</a>
</g>
</g>
<!-- Node1&#45;&gt;Node15 -->
<g id="edge17_Node000001_Node000015" class="edge">
<title>Node1&#45;&gt;Node15</title>
<g id="a_edge17_Node000001_Node000015"><a xlink:title=" ">
<path fill="none" stroke="#63b8ff" d="M1614.58,-44.15C1592.04,-39.36 1566.75,-33.99 1545.35,-29.45"/>
<polygon fill="#63b8ff" stroke="#63b8ff" points="1613.75,-47.55 1624.26,-46.2 1615.2,-40.7 1613.75,-47.55"/>
</a>
</g>
</g>
<!-- Node3 -->
<g id="Node000003" class="node">
<title>Node3</title>
<g id="a_Node000003"><a xlink:href="wi_npo_s-_app_8cpp.html#a30a1e3b0304f1b083637664cbda94e72" target="_top" xlink:title="the main window procedure of this app">
<polygon fill="white" stroke="#666666" points="298.12,-86 241.62,-86 241.62,-66 298.12,-66 298.12,-86"/>
<text text-anchor="middle" x="269.88" y="-72.5" font-family="Helvetica,sans-Serif" font-size="10.00">WndProc</text>
</a>
</g>
</g>
<!-- Node2&#45;&gt;Node3 -->
<g id="edge2_Node000002_Node000003" class="edge">
<title>Node2&#45;&gt;Node3</title>
<g id="a_edge2_Node000002_Node000003"><a xlink:title=" ">
<path fill="none" stroke="#63b8ff" d="M1231.86,-95C1167.98,-95 1077.89,-95 998.88,-95 998.88,-95 998.88,-95 530.38,-95 445.68,-95 345.84,-84.81 298.48,-79.35"/>
<polygon fill="#63b8ff" stroke="#63b8ff" points="1231.56,-98.5 1241.56,-95 1231.56,-91.5 1231.56,-98.5"/>
</a>
</g>
</g>
<!-- Node4 -->
<g id="Node000004" class="node">
<title>Node4</title>
<g id="a_Node000004"><a xlink:href="wi_npo_s-_app_8cpp.html#aa0d0c9beb94350f8eac8fc4026a65375" target="_top" xlink:title=" ">
<polygon fill="white" stroke="#666666" points="187.25,-86 97,-86 97,-66 187.25,-66 187.25,-86"/>
<text text-anchor="middle" x="142.12" y="-72.5" font-family="Helvetica,sans-Serif" font-size="10.00">MyRegisterClass</text>
</a>
</g>
</g>
<!-- Node3&#45;&gt;Node4 -->
<g id="edge3_Node000003_Node000004" class="edge">
<title>Node3&#45;&gt;Node4</title>
<g id="a_edge3_Node000003_Node000004"><a xlink:title=" ">
<path fill="none" stroke="#63b8ff" d="M229.97,-76C216.51,-76 201.32,-76 187.46,-76"/>
<polygon fill="#63b8ff" stroke="#63b8ff" points="229.77,-79.5 239.77,-76 229.77,-72.5 229.77,-79.5"/>
</a>
</g>
</g>
<!-- Node5 -->
<g id="Node000005" class="node">
<title>Node5</title>
<g id="a_Node000005"><a xlink:href="wi_npo_s-_app_8cpp.html#a8c6630df6bab43efe8254a603885b62e" target="_top" xlink:title=" ">
<polygon fill="white" stroke="#666666" points="61,-86 0,-86 0,-66 61,-66 61,-86"/>
<text text-anchor="middle" x="30.5" y="-72.5" font-family="Helvetica,sans-Serif" font-size="10.00">wWinMain</text>
</a>
</g>
</g>
<!-- Node4&#45;&gt;Node5 -->
<g id="edge4_Node000004_Node000005" class="edge">
<title>Node4&#45;&gt;Node5</title>
<g id="a_edge4_Node000004_Node000005"><a xlink:title=" ">
<path fill="none" stroke="#63b8ff" d="M85.3,-76C77.02,-76 68.77,-76 61.31,-76"/>
<polygon fill="#63b8ff" stroke="#63b8ff" points="85.02,-79.5 95.02,-76 85.02,-72.5 85.02,-79.5"/>
</a>
</g>
</g>
<!-- Node6&#45;&gt;Node6 -->
<g id="edge16_Node000006_Node000006" class="edge">
<title>Node6&#45;&gt;Node6</title>
<g id="a_edge16_Node000006_Node000006"><a xlink:title=" ">
<path fill="none" stroke="#63b8ff" d="M1345.23,-50.44C1341.56,-54.3 1332.07,-57 1316.75,-57 1288.74,-57 1280.21,-47.98 1291.15,-39.34"/>
<polygon fill="#63b8ff" stroke="#63b8ff" points="1348.63,-49.61 1342.73,-40.8 1341.85,-51.36 1348.63,-49.61"/>
</a>
</g>
</g>
<!-- Node7 -->
<g id="Node000007" class="node">
<title>Node7</title>
<g id="a_Node000007"><a xlink:href="class_win_pos_wnd.html#abec2e67db5543a717d59b02ab8dbb930" target="_top" xlink:title="create the required windows for monitor preview and all configured positions">
<polygon fill="white" stroke="#666666" points="1207.5,-39 1103.75,-39 1103.75,-19 1207.5,-19 1207.5,-39"/>
<text text-anchor="middle" x="1155.62" y="-25.5" font-family="Helvetica,sans-Serif" font-size="10.00">WinPosWnd::create</text>
</a>
</g>
</g>
<!-- Node6&#45;&gt;Node7 -->
<g id="edge6_Node000006_Node000007" class="edge">
<title>Node6&#45;&gt;Node7</title>
<g id="a_edge6_Node000006_Node000007"><a xlink:title=" ">
<path fill="none" stroke="#63b8ff" d="M1236.75,-29C1226.91,-29 1217.06,-29 1207.79,-29"/>
<polygon fill="#63b8ff" stroke="#63b8ff" points="1236.75,-32.5 1246.75,-29 1236.75,-25.5 1236.75,-32.5"/>
</a>
</g>
</g>
<!-- Node8 -->
<g id="Node000008" class="node">
<title>Node8</title>
<g id="a_Node000008"><a xlink:href="class_hooks_impl.html#ab6696c1ccc12ebdd892883485456ed3c" target="_top" xlink:title=" ">
<polygon fill="white" stroke="#666666" points="1067.75,-39 928,-39 928,-19 1067.75,-19 1067.75,-39"/>
<text text-anchor="middle" x="997.88" y="-25.5" font-family="Helvetica,sans-Serif" font-size="10.00">HooksImpl::onShowPosWnd</text>
</a>
</g>
</g>
<!-- Node7&#45;&gt;Node8 -->
<g id="edge7_Node000007_Node000008" class="edge">
<title>Node7&#45;&gt;Node8</title>
<g id="a_edge7_Node000007_Node000008"><a xlink:title=" ">
<path fill="none" stroke="#63b8ff" d="M1092.21,-29C1084.28,-29 1076.12,-29 1068.1,-29"/>
<polygon fill="#63b8ff" stroke="#63b8ff" points="1092.11,-32.5 1102.11,-29 1092.11,-25.5 1092.11,-32.5"/>
</a>
</g>
</g>
<!-- Node9 -->
<g id="Node000009" class="node">
<title>Node9</title>
<g id="a_Node000009"><a xlink:href="class_hooks_impl.html#a07053e18c49265e300fe89b2a5bc28de" target="_top" xlink:title="here the Windows messages are picked up, which do not appear in the main message loop">
<polygon fill="white" stroke="#666666" points="723,-39 602.75,-39 602.75,-19 723,-19 723,-39"/>
<text text-anchor="middle" x="662.88" y="-25.5" font-family="Helvetica,sans-Serif" font-size="10.00">HooksImpl::getMsgProc</text>
</a>
</g>
</g>
<!-- Node8&#45;&gt;Node9 -->
<g id="edge8_Node000008_Node000009" class="edge">
<title>Node8&#45;&gt;Node9</title>
<g id="a_edge8_Node000008_Node000009"><a xlink:title=" ">
<path fill="none" stroke="#63b8ff" d="M916.63,-29C857.08,-29 777.2,-29 723.31,-29"/>
<polygon fill="#63b8ff" stroke="#63b8ff" points="916.36,-32.5 926.36,-29 916.36,-25.5 916.36,-32.5"/>
</a>
</g>
</g>
<!-- Node14 -->
<g id="Node000014" class="node">
<title>Node14</title>
<g id="a_Node000014"><a xlink:href="class_hooks_impl.html#ae0d26e76e300b5392e64fb070aafe8d5" target="_top" xlink:title="do the work, if necessary">
<polygon fill="white" stroke="#666666" points="892,-20 759,-20 759,0 892,0 892,-20"/>
<text text-anchor="middle" x="825.5" y="-6.5" font-family="Helvetica,sans-Serif" font-size="10.00">HooksImpl::onCaptionClick</text>
</a>
</g>
</g>
<!-- Node8&#45;&gt;Node14 -->
<g id="edge14_Node000008_Node000014" class="edge">
<title>Node8&#45;&gt;Node14</title>
<g id="a_edge14_Node000008_Node000014"><a xlink:title=" ">
<path fill="none" stroke="#63b8ff" d="M916.33,-20.02C908.32,-19.12 900.26,-18.23 892.43,-17.35"/>
<polygon fill="#63b8ff" stroke="#63b8ff" points="915.75,-23.47 926.07,-21.1 916.52,-16.52 915.75,-23.47"/>
</a>
</g>
</g>
<!-- Node10 -->
<g id="Node000010" class="node">
<title>Node10</title>
<g id="a_Node000010"><a xlink:href="_hooks_impl_8cpp.html#ab9f4b48939788d5aa0f404323b16a957" target="_top" xlink:title="the exported hook for the windows&#45;message procedure">
<polygon fill="white" stroke="#666666" points="566.75,-39 496,-39 496,-19 566.75,-19 566.75,-39"/>
<text text-anchor="middle" x="531.38" y="-25.5" font-family="Helvetica,sans-Serif" font-size="10.00">GetMsgProc</text>
</a>
</g>
</g>
<!-- Node9&#45;&gt;Node10 -->
<g id="edge9_Node000009_Node000010" class="edge">
<title>Node9&#45;&gt;Node10</title>
<g id="a_edge9_Node000009_Node000010"><a xlink:title=" ">
<path fill="none" stroke="#63b8ff" d="M591.07,-29C582.75,-29 574.58,-29 567.09,-29"/>
<polygon fill="#63b8ff" stroke="#63b8ff" points="590.92,-32.5 600.92,-29 590.92,-25.5 590.92,-32.5"/>
</a>
</g>
</g>
<!-- Node11 -->
<g id="Node000011" class="node">
<title>Node11</title>
<g id="a_Node000011"><a xlink:href="class_hooks_mgr.html#a7cfb009127366d7236f5c05c2e4f9ab3" target="_top" xlink:title=" ">
<polygon fill="white" stroke="#666666" points="452.12,-67 360.38,-67 360.38,-47 452.12,-47 452.12,-67"/>
<text text-anchor="middle" x="406.25" y="-53.5" font-family="Helvetica,sans-Serif" font-size="10.00">HooksMgr::install</text>
</a>
</g>
</g>
<!-- Node10&#45;&gt;Node11 -->
<g id="edge10_Node000010_Node000011" class="edge">
<title>Node10&#45;&gt;Node11</title>
<g id="a_edge10_Node000010_Node000011"><a xlink:title=" ">
<path fill="none" stroke="#63b8ff" d="M484.59,-39.41C474,-41.82 462.75,-44.38 452.2,-46.78"/>
<polygon fill="#63b8ff" stroke="#63b8ff" points="485.3,-42.84 494.27,-37.21 483.75,-36.01 485.3,-42.84"/>
</a>
</g>
</g>
<!-- Node12 -->
<g id="Node000012" class="node">
<title>Node12</title>
<g id="a_Node000012"><a xlink:href="class_hooks_mgr.html#a25aacc981b80470642a51175ee56ba01" target="_top" xlink:title=" ">
<polygon fill="white" stroke="#666666" points="460,-29 352.5,-29 352.5,-9 460,-9 460,-29"/>
<text text-anchor="middle" x="406.25" y="-15.5" font-family="Helvetica,sans-Serif" font-size="10.00">HooksMgr::setHooks</text>
</a>
</g>
</g>
<!-- Node10&#45;&gt;Node12 -->
<g id="edge12_Node000010_Node000012" class="edge">
<title>Node10&#45;&gt;Node12</title>
<g id="a_edge12_Node000010_Node000012"><a xlink:title=" ">
<path fill="none" stroke="#63b8ff" d="M484.3,-25.26C476.53,-24.63 468.41,-23.97 460.48,-23.32"/>
<polygon fill="#63b8ff" stroke="#63b8ff" points="483.99,-28.74 494.24,-26.07 484.56,-21.77 483.99,-28.74"/>
</a>
</g>
</g>
<!-- Node11&#45;&gt;Node3 -->
<g id="edge11_Node000011_Node000003" class="edge">
<title>Node11&#45;&gt;Node3</title>
<g id="a_edge11_Node000011_Node000003"><a xlink:title=" ">
<path fill="none" stroke="#63b8ff" d="M348.87,-64.97C331.44,-67.44 313.01,-70.04 298.45,-72.1"/>
<polygon fill="#63b8ff" stroke="#63b8ff" points="349.22,-68.46 358.63,-63.59 348.24,-61.53 349.22,-68.46"/>
</a>
</g>
</g>
<!-- Node13 -->
<g id="Node000013" class="node">
<title>Node13</title>
<g id="a_Node000013"><a xlink:href="class_hooks_mgr.html#a5f8aa4cd119cb5d489b0a6f1a2971a79" target="_top" xlink:title=" ">
<polygon fill="white" stroke="#666666" points="316.5,-29 223.25,-29 223.25,-9 316.5,-9 316.5,-29"/>
<text text-anchor="middle" x="269.88" y="-15.5" font-family="Helvetica,sans-Serif" font-size="10.00">HooksMgr::attach</text>
</a>
</g>
</g>
<!-- Node12&#45;&gt;Node13 -->
<g id="edge13_Node000012_Node000013" class="edge">
<title>Node12&#45;&gt;Node13</title>
<g id="a_edge13_Node000012_Node000013"><a xlink:title=" ">
<path fill="none" stroke="#63b8ff" d="M340.73,-19C332.59,-19 324.41,-19 316.65,-19"/>
<polygon fill="#63b8ff" stroke="#63b8ff" points="340.63,-22.5 350.63,-19 340.63,-15.5 340.63,-22.5"/>
</a>
</g>
</g>
<!-- Node14&#45;&gt;Node9 -->
<g id="edge15_Node000014_Node000009" class="edge">
<title>Node14&#45;&gt;Node9</title>
<g id="a_edge15_Node000014_Node000009"><a xlink:title=" ">
<path fill="none" stroke="#63b8ff" d="M747.37,-19.12C739.31,-20.08 731.2,-21.04 723.38,-21.96"/>
<polygon fill="#63b8ff" stroke="#63b8ff" points="747.68,-22.61 757.2,-17.96 746.86,-15.66 747.68,-22.61"/>
</a>
</g>
</g>
<!-- Node15&#45;&gt;Node6 -->
<g id="edge18_Node000015_Node000006" class="edge">
<title>Node15&#45;&gt;Node6</title>
<g id="a_edge18_Node000015_Node000006"><a xlink:title=" ">
<path fill="none" stroke="#63b8ff" d="M1414.45,-23.52C1404.81,-24.06 1395.03,-24.62 1385.57,-25.15"/>
<polygon fill="#63b8ff" stroke="#63b8ff" points="1414.38,-27.03 1424.17,-22.97 1413.99,-20.04 1414.38,-27.03"/>
</a>
</g>
</g>
</g>
</svg>
