<?xml version="1.0" encoding="UTF-8" standalone="no"?>
<!DOCTYPE svg PUBLIC "-//W3C//DTD SVG 1.1//EN"
 "http://www.w3.org/Graphics/SVG/1.1/DTD/svg11.dtd">
<!-- Generated by graphviz version 8.1.0 (20230707.0739)
 -->
<!-- Title: HooksImpl::shellHookProc Pages: 1 -->
<svg width="340pt" height="28pt"
 viewBox="0.00 0.00 339.50 28.00" xmlns="http://www.w3.org/2000/svg" xmlns:xlink="http://www.w3.org/1999/xlink">
<g id="graph0" class="graph" transform="scale(1 1) rotate(0) translate(4 24)">
<title>HooksImpl::shellHookProc</title>
<!-- Node1 -->
<g id="Node000001" class="node">
<title>Node1</title>
<g id="a_Node000001"><a xlink:title=" ">
<polygon fill="#999999" stroke="#666666" points="331.5,-20 200.75,-20 200.75,0 331.5,0 331.5,-20"/>
<text text-anchor="middle" x="266.12" y="-6.5" font-family="Helvetica,sans-Serif" font-size="10.00">HooksImpl::shellHookProc</text>
</a>
</g>
</g>
<!-- Node2 -->
<g id="Node000002" class="node">
<title>Node2</title>
<g id="a_Node000002"><a xlink:href="_hooks_impl_8cpp.html#a2d95eeaf5ead86287ab88b2065c28d1a" target="_top" xlink:title="the exported hook for the shell procedure">
<polygon fill="white" stroke="#666666" points="164.75,-20 84.25,-20 84.25,0 164.75,0 164.75,-20"/>
<text text-anchor="middle" x="124.5" y="-6.5" font-family="Helvetica,sans-Serif" font-size="10.00">ShellHookProc</text>
</a>
</g>
</g>
<!-- Node1&#45;&gt;Node2 -->
<g id="edge1_Node000001_Node000002" class="edge">
<title>Node1&#45;&gt;Node2</title>
<g id="a_edge1_Node000001_Node000002"><a xlink:title=" ">
<path fill="none" stroke="#63b8ff" d="M189.79,-10C181.25,-10 172.82,-10 165.02,-10"/>
<polygon fill="#63b8ff" stroke="#63b8ff" points="189.63,-13.5 199.63,-10 189.63,-6.5 189.63,-13.5"/>
</a>
</g>
</g>
<!-- Node3 -->
<g id="Node000003" class="node">
<title>Node3</title>
<g id="a_Node000003"><a xlink:href="wi_npo_s-_hook_2dllmain_8cpp.html#a26e64fb39b69bcd9d1274d279f1561b9" target="_top" xlink:title=" ">
<polygon fill="white" stroke="#666666" points="48.25,-20 0,-20 0,0 48.25,0 48.25,-20"/>
<text text-anchor="middle" x="24.12" y="-6.5" font-family="Helvetica,sans-Serif" font-size="10.00">DllMain</text>
</a>
</g>
</g>
<!-- Node2&#45;&gt;Node3 -->
<g id="edge2_Node000002_Node000003" class="edge">
<title>Node2&#45;&gt;Node3</title>
<g id="a_edge2_Node000002_Node000003"><a xlink:title=" ">
<path fill="none" stroke="#63b8ff" d="M73.01,-10C64.47,-10 55.98,-10 48.58,-10"/>
<polygon fill="#63b8ff" stroke="#63b8ff" points="72.77,-13.5 82.77,-10 72.77,-6.5 72.77,-13.5"/>
</a>
</g>
</g>
</g>
</svg>
