<?xml version="1.0" encoding="UTF-8" standalone="no"?>
<!DOCTYPE svg PUBLIC "-//W3C//DTD SVG 1.1//EN"
 "http://www.w3.org/Graphics/SVG/1.1/DTD/svg11.dtd">
<!-- Generated by graphviz version 8.1.0 (20230707.0739)
 -->
<!-- Title: HooksImpl::onShowPosWnd Pages: 1 -->
<!--zoomable 382 -->

<svg id="main" version="1.1" xmlns="http://www.w3.org/2000/svg" xmlns:xlink="http://www.w3.org/1999/xlink" xml:space="preserve" onload="init(evt)">
<style type="text/css"><![CDATA[
.node, .edge {opacity: 0.7;}
.node.selected, .edge.selected {opacity: 1;}
.edge:hover path { stroke: red; }
.edge:hover polygon { stroke: red; fill: red; }
]]></style>

<defs>
  <circle id="rim" cx="0" cy="0" r="7"/>
  <circle id="rim2" cx="0" cy="0" r="3.5"/>
  <g id="zoomPlus">
    <use xlink:href="#rim" fill="#404040"><set attributeName="fill" to="#808080" begin="zoomplus.mouseover" end="zoomplus.mouseout"/></use>
    <path d="M-4,0h8M0,-4v8" fill="none" stroke="white" stroke-width="1.5" pointer-events="none"/>
  </g>
  <g id="zoomMin">
    <use xlink:href="#rim" fill="#404040"><set attributeName="fill" to="#808080" begin="zoomminus.mouseover" end="zoomminus.mouseout"/></use>
    <path d="M-4,0h8" fill="none" stroke="white" stroke-width="1.5" pointer-events="none"/>
  </g>
  <g id="arrowUp" transform="translate(30 24)">
    <use xlink:href="#rim"/>
    <path pointer-events="none" fill="none" stroke="white" stroke-width="1.5" d="M0,-3.0v7 M-2.5,-0.5L0,-3.0L2.5,-0.5"/>
  </g>
  <g id="arrowRight" transform="rotate(90) translate(36 -43)">
    <use xlink:href="#rim"/>
    <path pointer-events="none" fill="none" stroke="white" stroke-width="1.5" d="M0,-3.0v7 M-2.5,-0.5L0,-3.0L2.5,-0.5"/>
  </g>
  <g id="arrowDown" transform="rotate(180) translate(-30 -48)">
    <use xlink:href="#rim"/>
    <path pointer-events="none" fill="none" stroke="white" stroke-width="1.5" d="M0,-3.0v7 M-2.5,-0.5L0,-3.0L2.5,-0.5"/>
  </g>
  <g id="arrowLeft" transform="rotate(270) translate(-36 17)">
    <use xlink:href="#rim"/>
    <path pointer-events="none" fill="none" stroke="white" stroke-width="1.5" d="M0,-3.0v7 M-2.5,-0.5L0,-3.0L2.5,-0.5"/>
  </g>
  <g id="resetDef">
    <use xlink:href="#rim2" fill="#404040"><set attributeName="fill" to="#808080" begin="reset.mouseover" end="reset.mouseout"/></use>
  </g>
</defs>
<script type="application/ecmascript">
var viewWidth = 903;
var viewHeight = 382;
var sectionId = 'dynsection-20';
</script>
<script type="application/ecmascript" xlink:href="svg.min.js"/>
<svg id="graph" class="graph">
<g id="viewport">
<title>HooksImpl::onShowPosWnd</title>
<!-- Node1 -->
<g id="Node000001" class="node">
<title>Node1</title>
<g id="a_Node000001"><a xlink:title=" ">
<polygon fill="#999999" stroke="#666666" points="139.75,-203.38 0,-203.38 0,-183.38 139.75,-183.38 139.75,-203.38"/>
<text text-anchor="middle" x="69.88" y="-189.88" font-family="Helvetica,sans-Serif" font-size="10.00">HooksImpl::onShowPosWnd</text>
</a>
</g>
</g>
<!-- Node2 -->
<g id="Node000002" class="node">
<title>Node2</title>
<g id="a_Node000002"><a xlink:href="class_win_pos_wnd.html#abec2e67db5543a717d59b02ab8dbb930" target="_top" xlink:title="create the required windows for monitor preview and all configured positions">
<polygon fill="white" stroke="#666666" points="297.88,-222.38 194.12,-222.38 194.12,-202.38 297.88,-202.38 297.88,-222.38"/>
<text text-anchor="middle" x="246" y="-208.88" font-family="Helvetica,sans-Serif" font-size="10.00">WinPosWnd::create</text>
</a>
</g>
</g>
<!-- Node1&#45;&gt;Node2 -->
<g id="edge1_Node000001_Node000002" class="edge">
<title>Node1&#45;&gt;Node2</title>
<g id="a_edge1_Node000001_Node000002"><a xlink:title=" ">
<path fill="none" stroke="#63b8ff" d="M140.19,-200.94C154.26,-202.47 168.98,-204.08 182.78,-205.59"/>
<polygon fill="#63b8ff" stroke="#63b8ff" points="182.31,-209.16 192.63,-206.77 183.07,-202.21 182.31,-209.16"/>
</a>
</g>
</g>
<!-- Node16 -->
<g id="Node000016" class="node">
<title>Node16</title>
<g id="a_Node000016"><a xlink:href="class_win_pos_wnd.html#acb456c59641ec336d5c7646764fe7e6a" target="_top" xlink:title=" ">
<polygon fill="white" stroke="#666666" points="316.25,-184.38 175.75,-184.38 175.75,-164.38 316.25,-164.38 316.25,-184.38"/>
<text text-anchor="middle" x="246" y="-170.88" font-family="Helvetica,sans-Serif" font-size="10.00">WinPosWnd::getWndHandle</text>
</a>
</g>
</g>
<!-- Node1&#45;&gt;Node16 -->
<g id="edge20_Node000001_Node000016" class="edge">
<title>Node1&#45;&gt;Node16</title>
<g id="a_edge20_Node000001_Node000016"><a xlink:title=" ">
<path fill="none" stroke="#63b8ff" d="M140.19,-185.81C148.24,-184.93 156.5,-184.03 164.67,-183.14"/>
<polygon fill="#63b8ff" stroke="#63b8ff" points="164.79,-186.54 174.35,-181.98 164.03,-179.58 164.79,-186.54"/>
</a>
</g>
</g>
<!-- Node3 -->
<g id="Node000003" class="node">
<title>Node3</title>
<g id="a_Node000003"><a xlink:href="class_win_pos_wnd.html#a4b607f031e5058874a31918e4cc1ba79" target="_top" xlink:title="if the window looks beyond the edge of the monitor, it is moved so that it is displayed as a whole on...">
<polygon fill="white" stroke="#666666" points="512.25,-374.38 356.75,-374.38 356.75,-354.38 512.25,-354.38 512.25,-374.38"/>
<text text-anchor="middle" x="434.5" y="-360.88" font-family="Helvetica,sans-Serif" font-size="10.00">WinPosWnd::correctEdgecases</text>
</a>
</g>
</g>
<!-- Node2&#45;&gt;Node3 -->
<g id="edge2_Node000002_Node000003" class="edge">
<title>Node2&#45;&gt;Node3</title>
<g id="a_edge2_Node000002_Node000003"><a xlink:title=" ">
<path fill="none" stroke="#63b8ff" d="M251.99,-222.62C264.81,-247.84 301.53,-313.19 352.25,-345.38 354.69,-346.92 357.24,-348.35 359.87,-349.65"/>
<polygon fill="#63b8ff" stroke="#63b8ff" points="358.13,-353.14 368.7,-353.89 360.9,-346.72 358.13,-353.14"/>
</a>
</g>
</g>
<!-- Node4 -->
<g id="Node000004" class="node">
<title>Node4</title>
<g id="a_Node000004"><a xlink:href="class_win_pos_wnd.html#a8abc6edd027488d4f7242b9f12693af8" target="_top" xlink:title="destroys every windows">
<polygon fill="white" stroke="#666666" points="489,-336.38 380,-336.38 380,-316.38 489,-316.38 489,-336.38"/>
<text text-anchor="middle" x="434.5" y="-322.88" font-family="Helvetica,sans-Serif" font-size="10.00">WinPosWnd::destroy</text>
</a>
</g>
</g>
<!-- Node2&#45;&gt;Node4 -->
<g id="edge3_Node000002_Node000004" class="edge">
<title>Node2&#45;&gt;Node4</title>
<g id="a_edge3_Node000002_Node000004"><a xlink:title=" ">
<path fill="none" stroke="#63b8ff" d="M255.34,-222.8C271.71,-242.54 310.15,-285.35 352.25,-307.38 357.68,-310.21 363.53,-312.63 369.51,-314.7"/>
<polygon fill="#63b8ff" stroke="#63b8ff" points="368.08,-318.22 378.67,-317.84 370.15,-311.54 368.08,-318.22"/>
</a>
</g>
</g>
<!-- Node5 -->
<g id="Node000005" class="node">
<title>Node5</title>
<g id="a_Node000005"><a xlink:href="class_win_pos_wnd_cfg.html#afe04626c840dd23b6b063f58bcb06dce" target="_top" xlink:title=" ">
<polygon fill="white" stroke="#666666" points="895.25,-194.38 731.5,-194.38 731.5,-174.38 895.25,-174.38 895.25,-194.38"/>
<text text-anchor="middle" x="813.38" y="-180.88" font-family="Helvetica,sans-Serif" font-size="10.00">WinPosWndCfg::getCloseTimeout</text>
</a>
</g>
</g>
<!-- Node2&#45;&gt;Node5 -->
<g id="edge4_Node000002_Node000005" class="edge">
<title>Node2&#45;&gt;Node5</title>
<g id="a_edge4_Node000002_Node000005"><a xlink:title=" ">
<path fill="none" stroke="#63b8ff" d="M298.17,-209.84C393.69,-205.11 600.3,-194.88 720.52,-188.92"/>
<polygon fill="#63b8ff" stroke="#63b8ff" points="720.35,-192.39 730.17,-188.4 720.01,-185.4 720.35,-192.39"/>
</a>
</g>
</g>
<!-- Node6 -->
<g id="Node000006" class="node">
<title>Node6</title>
<g id="a_Node000006"><a xlink:href="class_win_pos_wnd_cfg.html#a10a73295ae59c85d651ad0088b235125" target="_top" xlink:title=" ">
<polygon fill="white" stroke="#666666" points="505.5,-260.38 363.5,-260.38 363.5,-240.38 505.5,-240.38 505.5,-260.38"/>
<text text-anchor="middle" x="434.5" y="-246.88" font-family="Helvetica,sans-Serif" font-size="10.00">WinPosWndCfg::getMonitors</text>
</a>
</g>
</g>
<!-- Node2&#45;&gt;Node6 -->
<g id="edge5_Node000002_Node000006" class="edge">
<title>Node2&#45;&gt;Node6</title>
<g id="a_edge5_Node000002_Node000006"><a xlink:title=" ">
<path fill="none" stroke="#63b8ff" d="M297.96,-222.76C320.69,-227.39 347.67,-232.89 371.55,-237.75"/>
<polygon fill="#63b8ff" stroke="#63b8ff" points="370.78,-241.37 381.28,-239.94 372.18,-234.51 370.78,-241.37"/>
</a>
</g>
</g>
<!-- Node7 -->
<g id="Node000007" class="node">
<title>Node7</title>
<g id="a_Node000007"><a xlink:href="class_win_pos_wnd_cfg.html#a1fd1c1c55716a4697a044ae0671cf2aa" target="_top" xlink:title=" ">
<polygon fill="white" stroke="#666666" points="878,-90.38 748.75,-90.38 748.75,-70.38 878,-70.38 878,-90.38"/>
<text text-anchor="middle" x="813.38" y="-76.88" font-family="Helvetica,sans-Serif" font-size="10.00">WinPosWndCfg::getScale</text>
</a>
</g>
</g>
<!-- Node2&#45;&gt;Node7 -->
<g id="edge6_Node000002_Node000007" class="edge">
<title>Node2&#45;&gt;Node7</title>
<g id="a_edge6_Node000002_Node000007"><a xlink:title=" ">
<path fill="none" stroke="#63b8ff" d="M298.13,-205.14C304.88,-202.35 311.2,-198.55 316.25,-193.38 362.36,-146.2 300.25,-89.97 352.25,-49.38 482.1,52.01 700.47,-29.61 781.17,-65.55"/>
<polygon fill="#63b8ff" stroke="#63b8ff" points="779.64,-69.15 790.19,-70.09 782.53,-62.77 779.64,-69.15"/>
</a>
</g>
</g>
<!-- Node8 -->
<g id="Node000008" class="node">
<title>Node8</title>
<g id="a_Node000008"><a xlink:href="class_win_pos_wnd.html#a159d04333920b8b0ab3b8ecc6f6607dd" target="_top" xlink:title=" ">
<polygon fill="white" stroke="#666666" points="516.75,-184.38 352.25,-184.38 352.25,-164.38 516.75,-164.38 516.75,-184.38"/>
<text text-anchor="middle" x="434.5" y="-170.88" font-family="Helvetica,sans-Serif" font-size="10.00">WinPosWnd::getTotalPreviewRect</text>
</a>
</g>
</g>
<!-- Node2&#45;&gt;Node8 -->
<g id="edge7_Node000002_Node000008" class="edge">
<title>Node2&#45;&gt;Node8</title>
<g id="a_edge7_Node000002_Node000008"><a xlink:title=" ">
<path fill="none" stroke="#63b8ff" d="M297.96,-201.99C320.69,-197.36 347.67,-191.86 371.55,-187"/>
<polygon fill="#63b8ff" stroke="#63b8ff" points="372.18,-190.24 381.28,-184.81 370.78,-183.38 372.18,-190.24"/>
</a>
</g>
</g>
<!-- Node9 -->
<g id="Node000009" class="node">
<title>Node9</title>
<g id="a_Node000009"><a xlink:href="class_win_pos_wnd.html#a86ca33ea895961e25e6c1601e420f40e" target="_top" xlink:title="initialize the WNDCLASS structure">
<polygon fill="white" stroke="#666666" points="501.75,-298.38 367.25,-298.38 367.25,-278.38 501.75,-278.38 501.75,-298.38"/>
<text text-anchor="middle" x="434.5" y="-284.88" font-family="Helvetica,sans-Serif" font-size="10.00">WinPosWnd::initWndClass</text>
</a>
</g>
</g>
<!-- Node2&#45;&gt;Node9 -->
<g id="edge8_Node000002_Node000009" class="edge">
<title>Node2&#45;&gt;Node9</title>
<g id="a_edge8_Node000002_Node000009"><a xlink:title=" ">
<path fill="none" stroke="#63b8ff" d="M262.77,-222.66C282.81,-235.32 318.84,-256.68 352.25,-269.38 357.67,-271.43 363.37,-273.31 369.15,-275.02"/>
<polygon fill="#63b8ff" stroke="#63b8ff" points="368,-278.61 378.57,-277.9 369.87,-271.86 368,-278.61"/>
</a>
</g>
</g>
<!-- Node12 -->
<g id="Node000012" class="node">
<title>Node12</title>
<g id="a_Node000012"><a xlink:href="struct_win_pos_wnd_1_1_monitor_preview.html#a01fe1b4351422928e43305d1758ae6fb" target="_top" xlink:title="move the rectangle to the cursor position">
<polygon fill="white" stroke="#666666" points="505.5,-90.38 363.5,-90.38 363.5,-58.38 505.5,-58.38 505.5,-90.38"/>
<text text-anchor="start" x="371.5" y="-76.88" font-family="Helvetica,sans-Serif" font-size="10.00">WinPosWnd::MonitorPreview</text>
<text text-anchor="middle" x="434.5" y="-64.88" font-family="Helvetica,sans-Serif" font-size="10.00">::offsetToPt</text>
</a>
</g>
</g>
<!-- Node2&#45;&gt;Node12 -->
<g id="edge11_Node000002_Node000012" class="edge">
<title>Node2&#45;&gt;Node12</title>
<g id="a_edge11_Node000002_Node000012"><a xlink:title=" ">
<path fill="none" stroke="#63b8ff" d="M298.29,-204.29C304.85,-201.61 311.08,-198.06 316.25,-193.38 349.39,-163.33 319.57,-129.93 352.25,-99.38 353.25,-98.44 354.29,-97.54 355.35,-96.67"/>
<polygon fill="#63b8ff" stroke="#63b8ff" points="356.81,-99.23 363.05,-90.66 352.83,-93.47 356.81,-99.23"/>
</a>
</g>
</g>
<!-- Node13 -->
<g id="Node000013" class="node">
<title>Node13</title>
<g id="a_Node000013"><a xlink:href="class_win_pos_wnd_cfg.html#a038475d40481960d701d09f6e39467c8" target="_top" xlink:title=" ">
<polygon fill="white" stroke="#666666" points="502.88,-128.38 366.12,-128.38 366.12,-108.38 502.88,-108.38 502.88,-128.38"/>
<text text-anchor="middle" x="434.5" y="-114.88" font-family="Helvetica,sans-Serif" font-size="10.00">WinPosWndCfg::readConfig</text>
</a>
</g>
</g>
<!-- Node2&#45;&gt;Node13 -->
<g id="edge12_Node000002_Node000013" class="edge">
<title>Node2&#45;&gt;Node13</title>
<g id="a_edge12_Node000002_Node000013"><a xlink:title=" ">
<path fill="none" stroke="#63b8ff" d="M297.88,-201.89C304.29,-199.58 310.58,-196.77 316.25,-193.38 336.2,-181.41 333.31,-168.89 352.25,-155.38 364.72,-146.48 379.66,-138.94 393.32,-133.03"/>
<polygon fill="#63b8ff" stroke="#63b8ff" points="394.55,-135.9 402.45,-128.84 391.87,-129.43 394.55,-135.9"/>
</a>
</g>
</g>
<!-- Node10 -->
<g id="Node000010" class="node">
<title>Node10</title>
<g id="a_Node000010"><a xlink:href="class_win_pos_wnd.html#a104a18975fac2ac85a75eabda629ddb2" target="_top" xlink:title="static WNDPROC. Forwards to the WinPosWnd instances.">
<polygon fill="white" stroke="#666666" points="695.5,-298.38 552.75,-298.38 552.75,-278.38 695.5,-278.38 695.5,-298.38"/>
<text text-anchor="middle" x="624.12" y="-284.88" font-family="Helvetica,sans-Serif" font-size="10.00">WinPosWnd::WndProcStatic</text>
</a>
</g>
</g>
<!-- Node9&#45;&gt;Node10 -->
<g id="edge9_Node000009_Node000010" class="edge">
<title>Node9&#45;&gt;Node10</title>
<g id="a_edge9_Node000009_Node000010"><a xlink:title=" ">
<path fill="none" stroke="#63b8ff" d="M502.18,-288.38C514.93,-288.38 528.42,-288.38 541.58,-288.38"/>
<polygon fill="#63b8ff" stroke="#63b8ff" points="541.53,-291.88 551.53,-288.38 541.53,-284.88 541.53,-291.88"/>
</a>
</g>
</g>
<!-- Node11 -->
<g id="Node000011" class="node">
<title>Node11</title>
<g id="a_Node000011"><a xlink:href="class_win_pos_wnd.html#a5ad8686caf3b8310fff6d4bec255f898" target="_top" xlink:title="get the instance of WinPosWnd to a window handle">
<polygon fill="white" stroke="#666666" points="885.88,-298.38 740.88,-298.38 740.88,-278.38 885.88,-278.38 885.88,-298.38"/>
<text text-anchor="middle" x="813.38" y="-284.88" font-family="Helvetica,sans-Serif" font-size="10.00">WinPosWnd::getWinPosWnd</text>
</a>
</g>
</g>
<!-- Node10&#45;&gt;Node11 -->
<g id="edge10_Node000010_Node000011" class="edge">
<title>Node10&#45;&gt;Node11</title>
<g id="a_edge10_Node000010_Node000011"><a xlink:title=" ">
<path fill="none" stroke="#63b8ff" d="M695.92,-288.38C706.98,-288.38 718.5,-288.38 729.8,-288.38"/>
<polygon fill="#63b8ff" stroke="#63b8ff" points="729.55,-291.88 739.55,-288.38 729.55,-284.88 729.55,-291.88"/>
</a>
</g>
</g>
<!-- Node13&#45;&gt;Node7 -->
<g id="edge14_Node000013_Node000007" class="edge">
<title>Node13&#45;&gt;Node7</title>
<g id="a_edge14_Node000013_Node000007"><a xlink:title=" ">
<path fill="none" stroke="#63b8ff" d="M503.31,-111.54C569.39,-104.88 669.62,-94.77 737.89,-87.89"/>
<polygon fill="#63b8ff" stroke="#63b8ff" points="737.96,-91.3 747.56,-86.81 737.26,-84.33 737.96,-91.3"/>
</a>
</g>
</g>
<!-- Node13&#45;&gt;Node13 -->
<g id="edge15_Node000013_Node000013" class="edge">
<title>Node13&#45;&gt;Node13</title>
<g id="a_edge15_Node000013_Node000013"><a xlink:title=" ">
<path fill="none" stroke="#63b8ff" d="M404.55,-128.71C391.75,-137.35 401.73,-146.38 434.5,-146.38 453.96,-146.38 465.38,-143.19 468.77,-138.8"/>
<polygon fill="#63b8ff" stroke="#63b8ff" points="471.6,-137.53 464.45,-129.71 465.17,-140.28 471.6,-137.53"/>
</a>
</g>
</g>
<!-- Node14 -->
<g id="Node000014" class="node">
<title>Node14</title>
<g id="a_Node000014"><a xlink:href="class_win_pos_wnd_cfg.html#a93944e9bbc627a502d59f845b3b1e827" target="_top" xlink:title=" ">
<polygon fill="white" stroke="#666666" points="889.25,-128.38 737.5,-128.38 737.5,-108.38 889.25,-108.38 889.25,-128.38"/>
<text text-anchor="middle" x="813.38" y="-114.88" font-family="Helvetica,sans-Serif" font-size="10.00">WinPosWndCfg::getConfigPath</text>
</a>
</g>
</g>
<!-- Node13&#45;&gt;Node14 -->
<g id="edge13_Node000013_Node000014" class="edge">
<title>Node13&#45;&gt;Node14</title>
<g id="a_edge13_Node000013_Node000014"><a xlink:title=" ">
<path fill="none" stroke="#63b8ff" d="M503.31,-118.38C565.77,-118.38 658.74,-118.38 726.39,-118.38"/>
<polygon fill="#63b8ff" stroke="#63b8ff" points="726.02,-121.88 736.02,-118.38 726.02,-114.88 726.02,-121.88"/>
</a>
</g>
</g>
<!-- Node15 -->
<g id="Node000015" class="node">
<title>Node15</title>
<g id="a_Node000015"><a xlink:href="class_win_pos_wnd_cfg.html#a2e024dd316be8cf377996f7be3017acd" target="_top" xlink:title=" ">
<polygon fill="white" stroke="#666666" points="693.25,-166.38 555,-166.38 555,-146.38 693.25,-146.38 693.25,-166.38"/>
<text text-anchor="middle" x="624.12" y="-152.88" font-family="Helvetica,sans-Serif" font-size="10.00">WinPosWndCfg::writeConfig</text>
</a>
</g>
</g>
<!-- Node13&#45;&gt;Node15 -->
<g id="edge16_Node000013_Node000015" class="edge">
<title>Node13&#45;&gt;Node15</title>
<g id="a_edge16_Node000013_Node000015"><a xlink:title=" ">
<path fill="none" stroke="#63b8ff" d="M487.27,-128.86C510.03,-133.47 536.96,-138.92 560.81,-143.75"/>
<polygon fill="#63b8ff" stroke="#63b8ff" points="560.03,-147.37 570.53,-145.93 561.42,-140.51 560.03,-147.37"/>
</a>
</g>
</g>
<!-- Node15&#45;&gt;Node5 -->
<g id="edge17_Node000015_Node000005" class="edge">
<title>Node15&#45;&gt;Node5</title>
<g id="a_edge17_Node000015_Node000005"><a xlink:title=" ">
<path fill="none" stroke="#63b8ff" d="M693.52,-166.6C705.93,-168.46 718.97,-170.41 731.69,-172.31"/>
<polygon fill="#63b8ff" stroke="#63b8ff" points="730.87,-175.88 741.28,-173.89 731.91,-168.95 730.87,-175.88"/>
</a>
</g>
</g>
<!-- Node15&#45;&gt;Node7 -->
<g id="edge19_Node000015_Node000007" class="edge">
<title>Node15&#45;&gt;Node7</title>
<g id="a_edge19_Node000015_Node000007"><a xlink:title=" ">
<path fill="none" stroke="#63b8ff" d="M641.43,-145.89C661.78,-133.22 697.99,-112.04 731.5,-99.38 736.98,-97.3 742.76,-95.41 748.6,-93.69"/>
<polygon fill="#63b8ff" stroke="#63b8ff" points="749.43,-96.82 758.14,-90.79 747.57,-90.07 749.43,-96.82"/>
</a>
</g>
</g>
<!-- Node15&#45;&gt;Node14 -->
<g id="edge18_Node000015_Node000014" class="edge">
<title>Node15&#45;&gt;Node14</title>
<g id="a_edge18_Node000015_Node000014"><a xlink:title=" ">
<path fill="none" stroke="#63b8ff" d="M676.79,-145.89C699.51,-141.28 726.38,-135.83 750.18,-131"/>
<polygon fill="#63b8ff" stroke="#63b8ff" points="750.78,-134.24 759.88,-128.83 749.38,-127.38 750.78,-134.24"/>
</a>
</g>
</g>
</g>
</svg>

<g id="navigator" transform="translate(0 0)" fill="#404254">
  <rect fill="#f2f5e9" fill-opacity="0.5" stroke="#606060" stroke-width=".5" x="0" y="0" width="60" height="60"/>
  <use id="zoomplus" xlink:href="#zoomPlus" x="17" y="9" onmousedown="handleZoom(evt,'in')"/>
  <use id="zoomminus" xlink:href="#zoomMin" x="42" y="9" onmousedown="handleZoom(evt,'out')"/>
  <use id="reset" xlink:href="#resetDef" x="30" y="36" onmousedown="handleReset()"/>
   <use id="arrowup" xlink:href="#arrowUp" x="0" y="0" onmousedown="handlePan(0,-1)"/>
  <use id="arrowright" xlink:href="#arrowRight" x="0" y="0" onmousedown="handlePan(1,0)"/>
  <use id="arrowdown" xlink:href="#arrowDown" x="0" y="0" onmousedown="handlePan(0,1)"/>
  <use id="arrowleft" xlink:href="#arrowLeft" x="0" y="0" onmousedown="handlePan(-1,0)"/>
</g>
<svg viewBox="0 0 15 15" width="100%" height="30px" preserveAspectRatio="xMaxYMin meet">
 <g id="arrow_out" transform="scale(0.3 0.3)">
  <a xlink:href="class_hooks_impl_ab6696c1ccc12ebdd892883485456ed3c_cgraph_org.svg" target="_base">
   <rect id="button" ry="5" rx="5" y="6" x="6" height="38" width="38"
        fill="#f2f5e9" fill-opacity="0.5" stroke="#606060" stroke-width="1.0"/>
   <path id="arrow"
     d="M 11.500037,31.436501 C 11.940474,20.09759 22.043105,11.32322 32.158766,21.979434 L 37.068811,17.246167 C 37.068811,17.246167 37.088388,32 37.088388,32 L 22.160133,31.978069 C 22.160133,31.978069 26.997745,27.140456 26.997745,27.140456 C 18.528582,18.264221 13.291696,25.230495 11.500037,31.436501 z"
     style="fill:#404040;"/>
  </a>
 </g>
</svg>

<style type='text/css'>
<![CDATA[
[data-mouse-over-selected='false'] { opacity: 0.7; }
[data-mouse-over-selected='true']  { opacity: 1.0; }
]]>
</style>
<script type="application/ecmascript"><![CDATA[
document.addEventListener('DOMContentLoaded', (event) => {
  highlightEdges();
  highlightAdjacentNodes();
});
]]></script>
</svg>
