<?xml version="1.0" encoding="UTF-8" standalone="no"?>
<!DOCTYPE svg PUBLIC "-//W3C//DTD SVG 1.1//EN"
 "http://www.w3.org/Graphics/SVG/1.1/DTD/svg11.dtd">
<!-- Generated by graphviz version 8.1.0 (20230707.0739)
 -->
<!-- Title: HooksCfg::isDisabled Pages: 1 -->
<svg width="730pt" height="125pt"
 viewBox="0.00 0.00 729.50 125.31" xmlns="http://www.w3.org/2000/svg" xmlns:xlink="http://www.w3.org/1999/xlink">
<g id="graph0" class="graph" transform="scale(1 1) rotate(0) translate(4 121.31)">
<title>HooksCfg::isDisabled</title>
<!-- Node1 -->
<g id="Node000001" class="node">
<title>Node1</title>
<g id="a_Node000001"><a xlink:title="check if someone has disabled stored in config">
<polygon fill="#999999" stroke="#666666" points="721.5,-77 612.5,-77 612.5,-57 721.5,-57 721.5,-77"/>
<text text-anchor="middle" x="667" y="-63.5" font-family="Helvetica,sans-Serif" font-size="10.00">HooksCfg::isDisabled</text>
</a>
</g>
</g>
<!-- Node2 -->
<g id="Node000002" class="node">
<title>Node2</title>
<g id="a_Node000002"><a xlink:href="_hooks_impl_8cpp.html#adae4ff67fba416ac992fe973d90abc58" target="_top" xlink:title="the exported hook for the main window procedure">
<polygon fill="white" stroke="#666666" points="572.75,-96 499.75,-96 499.75,-76 572.75,-76 572.75,-96"/>
<text text-anchor="middle" x="536.25" y="-82.5" font-family="Helvetica,sans-Serif" font-size="10.00">CallWndProc</text>
</a>
</g>
</g>
<!-- Node1&#45;&gt;Node2 -->
<g id="edge1_Node000001_Node000002" class="edge">
<title>Node1&#45;&gt;Node2</title>
<g id="a_edge1_Node000001_Node000002"><a xlink:title=" ">
<path fill="none" stroke="#63b8ff" d="M601.52,-76.52C591.68,-77.97 581.85,-79.42 572.94,-80.73"/>
<polygon fill="#63b8ff" stroke="#63b8ff" points="601.76,-79.87 611.14,-74.95 600.74,-72.95 601.76,-79.87"/>
</a>
</g>
</g>
<!-- Node4 -->
<g id="Node000004" class="node">
<title>Node4</title>
<g id="a_Node000004"><a xlink:href="wi_npo_s-_app_8cpp.html#a30a1e3b0304f1b083637664cbda94e72" target="_top" xlink:title="the main window procedure of this app">
<polygon fill="white" stroke="#666666" points="298.12,-115 241.62,-115 241.62,-95 298.12,-95 298.12,-115"/>
<text text-anchor="middle" x="269.88" y="-101.5" font-family="Helvetica,sans-Serif" font-size="10.00">WndProc</text>
</a>
</g>
</g>
<!-- Node1&#45;&gt;Node4 -->
<g id="edge13_Node000001_Node000004" class="edge">
<title>Node1&#45;&gt;Node4</title>
<g id="a_edge13_Node000001_Node000004"><a xlink:title=" ">
<path fill="none" stroke="#63b8ff" d="M638.09,-82.29C620.89,-90.83 598.07,-100.61 576.5,-105 475.63,-125.53 352.13,-114.94 298.22,-108.61"/>
<polygon fill="#63b8ff" stroke="#63b8ff" points="639.21,-85.14 646.51,-77.46 636.02,-78.91 639.21,-85.14"/>
</a>
</g>
</g>
<!-- Node9 -->
<g id="Node000009" class="node">
<title>Node9</title>
<g id="a_Node000009"><a xlink:href="_hooks_impl_8cpp.html#ab9f4b48939788d5aa0f404323b16a957" target="_top" xlink:title="the exported hook for the windows&#45;message procedure">
<polygon fill="white" stroke="#666666" points="571.62,-58 500.88,-58 500.88,-38 571.62,-38 571.62,-58"/>
<text text-anchor="middle" x="536.25" y="-44.5" font-family="Helvetica,sans-Serif" font-size="10.00">GetMsgProc</text>
</a>
</g>
</g>
<!-- Node1&#45;&gt;Node9 -->
<g id="edge8_Node000001_Node000009" class="edge">
<title>Node1&#45;&gt;Node9</title>
<g id="a_edge8_Node000001_Node000009"><a xlink:title=" ">
<path fill="none" stroke="#63b8ff" d="M601.51,-57.48C591.26,-55.97 581.01,-54.46 571.81,-53.1"/>
<polygon fill="#63b8ff" stroke="#63b8ff" points="600.74,-61.05 611.14,-59.05 601.76,-54.13 600.74,-61.05"/>
</a>
</g>
</g>
<!-- Node10 -->
<g id="Node000010" class="node">
<title>Node10</title>
<g id="a_Node000010"><a xlink:href="_hooks_impl_8cpp.html#a2d95eeaf5ead86287ab88b2065c28d1a" target="_top" xlink:title="the exported hook for the shell procedure">
<polygon fill="white" stroke="#666666" points="576.5,-20 496,-20 496,0 576.5,0 576.5,-20"/>
<text text-anchor="middle" x="536.25" y="-6.5" font-family="Helvetica,sans-Serif" font-size="10.00">ShellHookProc</text>
</a>
</g>
</g>
<!-- Node1&#45;&gt;Node10 -->
<g id="edge11_Node000001_Node000010" class="edge">
<title>Node1&#45;&gt;Node10</title>
<g id="a_edge11_Node000001_Node000010"><a xlink:title=" ">
<path fill="none" stroke="#63b8ff" d="M632.55,-52.19C610,-42.21 580.82,-29.29 560.72,-20.39"/>
<polygon fill="#63b8ff" stroke="#63b8ff" points="630.82,-55.7 641.39,-56.55 633.66,-49.3 630.82,-55.7"/>
</a>
</g>
</g>
<!-- Node3 -->
<g id="Node000003" class="node">
<title>Node3</title>
<g id="a_Node000003"><a xlink:href="class_hooks_mgr.html#a7cfb009127366d7236f5c05c2e4f9ab3" target="_top" xlink:title=" ">
<polygon fill="white" stroke="#666666" points="452.12,-96 360.38,-96 360.38,-76 452.12,-76 452.12,-96"/>
<text text-anchor="middle" x="406.25" y="-82.5" font-family="Helvetica,sans-Serif" font-size="10.00">HooksMgr::install</text>
</a>
</g>
</g>
<!-- Node2&#45;&gt;Node3 -->
<g id="edge2_Node000002_Node000003" class="edge">
<title>Node2&#45;&gt;Node3</title>
<g id="a_edge2_Node000002_Node000003"><a xlink:title=" ">
<path fill="none" stroke="#63b8ff" d="M488.36,-86C476.68,-86 464.17,-86 452.57,-86"/>
<polygon fill="#63b8ff" stroke="#63b8ff" points="488.25,-89.5 498.25,-86 488.25,-82.5 488.25,-89.5"/>
</a>
</g>
</g>
<!-- Node7 -->
<g id="Node000007" class="node">
<title>Node7</title>
<g id="a_Node000007"><a xlink:href="class_hooks_mgr.html#a25aacc981b80470642a51175ee56ba01" target="_top" xlink:title=" ">
<polygon fill="white" stroke="#666666" points="460,-58 352.5,-58 352.5,-38 460,-38 460,-58"/>
<text text-anchor="middle" x="406.25" y="-44.5" font-family="Helvetica,sans-Serif" font-size="10.00">HooksMgr::setHooks</text>
</a>
</g>
</g>
<!-- Node2&#45;&gt;Node7 -->
<g id="edge6_Node000002_Node000007" class="edge">
<title>Node2&#45;&gt;Node7</title>
<g id="a_edge6_Node000002_Node000007"><a xlink:title=" ">
<path fill="none" stroke="#63b8ff" d="M489.51,-72.42C474.03,-67.82 456.99,-62.77 442.45,-58.45"/>
<polygon fill="#63b8ff" stroke="#63b8ff" points="488.35,-76.02 498.93,-75.52 490.34,-69.31 488.35,-76.02"/>
</a>
</g>
</g>
<!-- Node3&#45;&gt;Node4 -->
<g id="edge3_Node000003_Node000004" class="edge">
<title>Node3&#45;&gt;Node4</title>
<g id="a_edge3_Node000003_Node000004"><a xlink:title=" ">
<path fill="none" stroke="#63b8ff" d="M349.37,-93.9C331.79,-96.39 313.15,-99.02 298.45,-101.1"/>
<polygon fill="#63b8ff" stroke="#63b8ff" points="349.72,-97.25 359.13,-92.38 348.74,-90.31 349.72,-97.25"/>
</a>
</g>
</g>
<!-- Node5 -->
<g id="Node000005" class="node">
<title>Node5</title>
<g id="a_Node000005"><a xlink:href="wi_npo_s-_app_8cpp.html#aa0d0c9beb94350f8eac8fc4026a65375" target="_top" xlink:title=" ">
<polygon fill="white" stroke="#666666" points="187.25,-115 97,-115 97,-95 187.25,-95 187.25,-115"/>
<text text-anchor="middle" x="142.12" y="-101.5" font-family="Helvetica,sans-Serif" font-size="10.00">MyRegisterClass</text>
</a>
</g>
</g>
<!-- Node4&#45;&gt;Node5 -->
<g id="edge4_Node000004_Node000005" class="edge">
<title>Node4&#45;&gt;Node5</title>
<g id="a_edge4_Node000004_Node000005"><a xlink:title=" ">
<path fill="none" stroke="#63b8ff" d="M230.38,-105C216.81,-105 201.46,-105 187.46,-105"/>
<polygon fill="#63b8ff" stroke="#63b8ff" points="230.28,-108.5 240.28,-105 230.28,-101.5 230.28,-108.5"/>
</a>
</g>
</g>
<!-- Node6 -->
<g id="Node000006" class="node">
<title>Node6</title>
<g id="a_Node000006"><a xlink:href="wi_npo_s-_app_8cpp.html#a8c6630df6bab43efe8254a603885b62e" target="_top" xlink:title=" ">
<polygon fill="white" stroke="#666666" points="61,-115 0,-115 0,-95 61,-95 61,-115"/>
<text text-anchor="middle" x="30.5" y="-101.5" font-family="Helvetica,sans-Serif" font-size="10.00">wWinMain</text>
</a>
</g>
</g>
<!-- Node5&#45;&gt;Node6 -->
<g id="edge5_Node000005_Node000006" class="edge">
<title>Node5&#45;&gt;Node6</title>
<g id="a_edge5_Node000005_Node000006"><a xlink:title=" ">
<path fill="none" stroke="#63b8ff" d="M85.58,-105C77.21,-105 68.86,-105 61.31,-105"/>
<polygon fill="#63b8ff" stroke="#63b8ff" points="85.54,-108.5 95.54,-105 85.54,-101.5 85.54,-108.5"/>
</a>
</g>
</g>
<!-- Node8 -->
<g id="Node000008" class="node">
<title>Node8</title>
<g id="a_Node000008"><a xlink:href="class_hooks_mgr.html#a5f8aa4cd119cb5d489b0a6f1a2971a79" target="_top" xlink:title=" ">
<polygon fill="white" stroke="#666666" points="316.5,-58 223.25,-58 223.25,-38 316.5,-38 316.5,-58"/>
<text text-anchor="middle" x="269.88" y="-44.5" font-family="Helvetica,sans-Serif" font-size="10.00">HooksMgr::attach</text>
</a>
</g>
</g>
<!-- Node7&#45;&gt;Node8 -->
<g id="edge7_Node000007_Node000008" class="edge">
<title>Node7&#45;&gt;Node8</title>
<g id="a_edge7_Node000007_Node000008"><a xlink:title=" ">
<path fill="none" stroke="#63b8ff" d="M341.29,-48C332.97,-48 324.59,-48 316.65,-48"/>
<polygon fill="#63b8ff" stroke="#63b8ff" points="341.14,-51.5 351.14,-48 341.14,-44.5 341.14,-51.5"/>
</a>
</g>
</g>
<!-- Node9&#45;&gt;Node3 -->
<g id="edge9_Node000009_Node000003" class="edge">
<title>Node9&#45;&gt;Node3</title>
<g id="a_edge9_Node000009_Node000003"><a xlink:title=" ">
<path fill="none" stroke="#63b8ff" d="M490.08,-61.41C474.41,-66.06 457.1,-71.2 442.36,-75.58"/>
<polygon fill="#63b8ff" stroke="#63b8ff" points="491.02,-64.48 499.61,-58.28 489.03,-57.77 491.02,-64.48"/>
</a>
</g>
</g>
<!-- Node9&#45;&gt;Node7 -->
<g id="edge10_Node000009_Node000007" class="edge">
<title>Node9&#45;&gt;Node7</title>
<g id="a_edge10_Node000009_Node000007"><a xlink:title=" ">
<path fill="none" stroke="#63b8ff" d="M489.73,-48C480.17,-48 470.01,-48 460.21,-48"/>
<polygon fill="#63b8ff" stroke="#63b8ff" points="489.61,-51.5 499.61,-48 489.61,-44.5 489.61,-51.5"/>
</a>
</g>
</g>
<!-- Node11 -->
<g id="Node000011" class="node">
<title>Node11</title>
<g id="a_Node000011"><a xlink:href="wi_npo_s-_hook_2dllmain_8cpp.html#a26e64fb39b69bcd9d1274d279f1561b9" target="_top" xlink:title=" ">
<polygon fill="white" stroke="#666666" points="430.38,-20 382.12,-20 382.12,0 430.38,0 430.38,-20"/>
<text text-anchor="middle" x="406.25" y="-6.5" font-family="Helvetica,sans-Serif" font-size="10.00">DllMain</text>
</a>
</g>
</g>
<!-- Node10&#45;&gt;Node11 -->
<g id="edge12_Node000010_Node000011" class="edge">
<title>Node10&#45;&gt;Node11</title>
<g id="a_edge12_Node000010_Node000011"><a xlink:title=" ">
<path fill="none" stroke="#63b8ff" d="M485.02,-10C466.31,-10 445.94,-10 430.74,-10"/>
<polygon fill="#63b8ff" stroke="#63b8ff" points="484.8,-13.5 494.8,-10 484.8,-6.5 484.8,-13.5"/>
</a>
</g>
</g>
</g>
</svg>
