<?xml version="1.0" encoding="UTF-8" standalone="no"?>
<!DOCTYPE svg PUBLIC "-//W3C//DTD SVG 1.1//EN"
 "http://www.w3.org/Graphics/SVG/1.1/DTD/svg11.dtd">
<!-- Generated by graphviz version 8.1.0 (20230707.0739)
 -->
<!-- Title: HooksCfg::getAppConfigPath Pages: 1 -->
<svg width="412pt" height="66pt"
 viewBox="0.00 0.00 411.50 66.00" xmlns="http://www.w3.org/2000/svg" xmlns:xlink="http://www.w3.org/1999/xlink">
<g id="graph0" class="graph" transform="scale(1 1) rotate(0) translate(4 62)">
<title>HooksCfg::getAppConfigPath</title>
<!-- Node1 -->
<g id="Node000001" class="node">
<title>Node1</title>
<g id="a_Node000001"><a xlink:title="the path to the config file for this app">
<polygon fill="#999999" stroke="#666666" points="403.5,-39 261.5,-39 261.5,-19 403.5,-19 403.5,-39"/>
<text text-anchor="middle" x="332.5" y="-25.5" font-family="Helvetica,sans-Serif" font-size="10.00">HooksCfg::getAppConfigPath</text>
</a>
</g>
</g>
<!-- Node2 -->
<g id="Node000002" class="node">
<title>Node2</title>
<g id="a_Node000002"><a xlink:href="class_hooks_cfg.html#afcb787461ef5ba011f6307c321223af6" target="_top" xlink:title="read the config for this app">
<polygon fill="white" stroke="#666666" points="224.75,-58 97.75,-58 97.75,-38 224.75,-38 224.75,-58"/>
<text text-anchor="middle" x="161.25" y="-44.5" font-family="Helvetica,sans-Serif" font-size="10.00">HooksCfg::readAppConfig</text>
</a>
</g>
</g>
<!-- Node1&#45;&gt;Node2 -->
<g id="edge1_Node000001_Node000002" class="edge">
<title>Node1&#45;&gt;Node2</title>
<g id="a_edge1_Node000001_Node000002"><a xlink:title=" ">
<path fill="none" stroke="#63b8ff" d="M250.44,-38.1C241.91,-39.06 233.32,-40.02 225.04,-40.95"/>
<polygon fill="#63b8ff" stroke="#63b8ff" points="250.65,-41.49 260.19,-36.89 249.87,-34.53 250.65,-41.49"/>
</a>
</g>
</g>
<!-- Node4 -->
<g id="Node000004" class="node">
<title>Node4</title>
<g id="a_Node000004"><a xlink:href="class_hooks_cfg.html#a985dd80af3b2ced9ffb520fb7e79a122" target="_top" xlink:title="save the config for this app">
<polygon fill="white" stroke="#666666" points="225.5,-20 97,-20 97,0 225.5,0 225.5,-20"/>
<text text-anchor="middle" x="161.25" y="-6.5" font-family="Helvetica,sans-Serif" font-size="10.00">HooksCfg::writeAppConfig</text>
</a>
</g>
</g>
<!-- Node1&#45;&gt;Node4 -->
<g id="edge3_Node000001_Node000004" class="edge">
<title>Node1&#45;&gt;Node4</title>
<g id="a_edge3_Node000001_Node000004"><a xlink:title=" ">
<path fill="none" stroke="#63b8ff" d="M250.41,-19.9C242.16,-18.97 233.87,-18.04 225.85,-17.14"/>
<polygon fill="#63b8ff" stroke="#63b8ff" points="249.87,-23.47 260.19,-21.11 250.65,-16.51 249.87,-23.47"/>
</a>
</g>
</g>
<!-- Node3 -->
<g id="Node000003" class="node">
<title>Node3</title>
<g id="a_Node000003"><a xlink:href="wi_npo_s-_app_8cpp.html#a8c6630df6bab43efe8254a603885b62e" target="_top" xlink:title=" ">
<polygon fill="white" stroke="#666666" points="61,-39 0,-39 0,-19 61,-19 61,-39"/>
<text text-anchor="middle" x="30.5" y="-25.5" font-family="Helvetica,sans-Serif" font-size="10.00">wWinMain</text>
</a>
</g>
</g>
<!-- Node2&#45;&gt;Node3 -->
<g id="edge2_Node000002_Node000003" class="edge">
<title>Node2&#45;&gt;Node3</title>
<g id="a_edge2_Node000002_Node000003"><a xlink:title=" ">
<path fill="none" stroke="#63b8ff" d="M86.74,-37.15C77.74,-35.82 68.98,-34.53 61.18,-33.38"/>
<polygon fill="#63b8ff" stroke="#63b8ff" points="85.98,-40.73 96.38,-38.72 87,-33.8 85.98,-40.73"/>
</a>
</g>
</g>
<!-- Node4&#45;&gt;Node3 -->
<g id="edge4_Node000004_Node000003" class="edge">
<title>Node4&#45;&gt;Node3</title>
<g id="a_edge4_Node000004_Node000003"><a xlink:title=" ">
<path fill="none" stroke="#63b8ff" d="M86.01,-20.96C77.36,-22.23 68.96,-23.47 61.44,-24.58"/>
<polygon fill="#63b8ff" stroke="#63b8ff" points="86.25,-24.31 95.63,-19.39 85.23,-17.39 86.25,-24.31"/>
</a>
</g>
</g>
</g>
</svg>
