<?xml version="1.0" encoding="UTF-8" standalone="no"?>
<!DOCTYPE svg PUBLIC "-//W3C//DTD SVG 1.1//EN"
 "http://www.w3.org/Graphics/SVG/1.1/DTD/svg11.dtd">
<!-- Generated by graphviz version 8.1.0 (20230707.0739)
 -->
<!-- Title: HooksMgr::install Pages: 1 -->
<svg width="1531pt" height="553pt"
 viewBox="0.00 0.00 1530.50 553.00" xmlns="http://www.w3.org/2000/svg" xmlns:xlink="http://www.w3.org/1999/xlink">
<g id="graph0" class="graph" transform="scale(1 1) rotate(0) translate(4 549)">
<title>HooksMgr::install</title>
<!-- Node1 -->
<g id="Node000001" class="node">
<title>Node1</title>
<g id="a_Node000001"><a xlink:title=" ">
<polygon fill="#999999" stroke="#666666" points="91.75,-431 0,-431 0,-411 91.75,-411 91.75,-431"/>
<text text-anchor="middle" x="45.88" y="-417.5" font-family="Helvetica,sans-Serif" font-size="10.00">HooksMgr::install</text>
</a>
</g>
</g>
<!-- Node2 -->
<g id="Node000002" class="node">
<title>Node2</title>
<g id="a_Node000002"><a xlink:href="_hooks_impl_8cpp.html#adae4ff67fba416ac992fe973d90abc58" target="_top" xlink:title="the exported hook for the main window procedure">
<polygon fill="white" stroke="#666666" points="206.38,-469 133.38,-469 133.38,-449 206.38,-449 206.38,-469"/>
<text text-anchor="middle" x="169.88" y="-455.5" font-family="Helvetica,sans-Serif" font-size="10.00">CallWndProc</text>
</a>
</g>
</g>
<!-- Node1&#45;&gt;Node2 -->
<g id="edge1_Node000001_Node000002" class="edge">
<title>Node1&#45;&gt;Node2</title>
<g id="a_edge1_Node000001_Node000002"><a xlink:title=" ">
<path fill="none" stroke="#63b8ff" d="M80.53,-431.48C94.27,-435.76 110.34,-440.77 124.97,-445.33"/>
<polygon fill="#63b8ff" stroke="#63b8ff" points="123.74,-448.92 134.32,-448.55 125.82,-442.23 123.74,-448.92"/>
</a>
</g>
</g>
<!-- Node12 -->
<g id="Node000012" class="node">
<title>Node12</title>
<g id="a_Node000012"><a xlink:href="_hooks_impl_8cpp.html#ab9f4b48939788d5aa0f404323b16a957" target="_top" xlink:title="the exported hook for the windows&#45;message procedure">
<polygon fill="white" stroke="#666666" points="205.25,-431 134.5,-431 134.5,-411 205.25,-411 205.25,-431"/>
<text text-anchor="middle" x="169.88" y="-417.5" font-family="Helvetica,sans-Serif" font-size="10.00">GetMsgProc</text>
</a>
</g>
</g>
<!-- Node1&#45;&gt;Node12 -->
<g id="edge11_Node000001_Node000012" class="edge">
<title>Node1&#45;&gt;Node12</title>
<g id="a_edge11_Node000001_Node000012"><a xlink:title=" ">
<path fill="none" stroke="#63b8ff" d="M91.96,-421C102.23,-421 113.14,-421 123.42,-421"/>
<polygon fill="#63b8ff" stroke="#63b8ff" points="123.28,-424.5 133.28,-421 123.28,-417.5 123.28,-424.5"/>
</a>
</g>
</g>
<!-- Node41 -->
<g id="Node000041" class="node">
<title>Node41</title>
<g id="a_Node000041"><a xlink:href="class_hooks_mgr.html#ae14d3d66665b288a8a22f6beea14774f" target="_top" xlink:title=" ">
<polygon fill="white" stroke="#666666" points="212,-393 127.75,-393 127.75,-373 212,-373 212,-393"/>
<text text-anchor="middle" x="169.88" y="-379.5" font-family="Helvetica,sans-Serif" font-size="10.00">HooksMgr::load</text>
</a>
</g>
</g>
<!-- Node1&#45;&gt;Node41 -->
<g id="edge55_Node000001_Node000041" class="edge">
<title>Node1&#45;&gt;Node41</title>
<g id="a_edge55_Node000001_Node000041"><a xlink:title=" ">
<path fill="none" stroke="#63b8ff" d="M80.53,-410.52C94.27,-406.24 110.34,-401.23 124.97,-396.67"/>
<polygon fill="#63b8ff" stroke="#63b8ff" points="125.82,-399.77 134.32,-393.45 123.74,-393.08 125.82,-399.77"/>
</a>
</g>
</g>
<!-- Node3 -->
<g id="Node000003" class="node">
<title>Node3</title>
<g id="a_Node000003"><a xlink:href="class_hooks_impl.html#a10c087a169c357990bf12340347e2fc0" target="_top" xlink:title="here we follow the main message loop of the application">
<polygon fill="white" stroke="#666666" points="371.25,-488 248,-488 248,-468 371.25,-468 371.25,-488"/>
<text text-anchor="middle" x="309.62" y="-474.5" font-family="Helvetica,sans-Serif" font-size="10.00">HooksImpl::callWndProc</text>
</a>
</g>
</g>
<!-- Node2&#45;&gt;Node3 -->
<g id="edge2_Node000002_Node000003" class="edge">
<title>Node2&#45;&gt;Node3</title>
<g id="a_edge2_Node000002_Node000003"><a xlink:title=" ">
<path fill="none" stroke="#63b8ff" d="M206.71,-463.94C216,-465.22 226.34,-466.65 236.77,-468.09"/>
<polygon fill="#63b8ff" stroke="#63b8ff" points="236.25,-471.69 246.63,-469.59 237.2,-464.75 236.25,-471.69"/>
</a>
</g>
</g>
<!-- Node7 -->
<g id="Node000007" class="node">
<title>Node7</title>
<g id="a_Node000007"><a xlink:href="class_hooks_cfg.html#ab994ae67a05ce4decf5b7af5314eb913" target="_top" xlink:title="check if someone has disabled stored in config">
<polygon fill="white" stroke="#666666" points="364.12,-450 255.12,-450 255.12,-430 364.12,-430 364.12,-450"/>
<text text-anchor="middle" x="309.62" y="-436.5" font-family="Helvetica,sans-Serif" font-size="10.00">HooksCfg::isDisabled</text>
</a>
</g>
</g>
<!-- Node2&#45;&gt;Node7 -->
<g id="edge6_Node000002_Node000007" class="edge">
<title>Node2&#45;&gt;Node7</title>
<g id="a_edge6_Node000002_Node000007"><a xlink:title=" ">
<path fill="none" stroke="#63b8ff" d="M206.71,-454.06C218.17,-452.48 231.23,-450.68 244.08,-448.9"/>
<polygon fill="#63b8ff" stroke="#63b8ff" points="244.37,-452.26 253.79,-447.42 243.41,-445.32 244.37,-452.26"/>
</a>
</g>
</g>
<!-- Node4 -->
<g id="Node000004" class="node">
<title>Node4</title>
<g id="a_Node000004"><a xlink:href="class_hooks_impl.html#a1022c4a7b4012228b83b0b89ee790f89" target="_top" xlink:title="here we react to position changes of the main window">
<polygon fill="white" stroke="#666666" points="575.5,-488 407.25,-488 407.25,-468 575.5,-468 575.5,-488"/>
<text text-anchor="middle" x="491.38" y="-474.5" font-family="Helvetica,sans-Serif" font-size="10.00">HooksImpl::onWindowPosChanged</text>
</a>
</g>
</g>
<!-- Node3&#45;&gt;Node4 -->
<g id="edge3_Node000003_Node000004" class="edge">
<title>Node3&#45;&gt;Node4</title>
<g id="a_edge3_Node000003_Node000004"><a xlink:title=" ">
<path fill="none" stroke="#63b8ff" d="M371.73,-478C379.59,-478 387.77,-478 396,-478"/>
<polygon fill="#63b8ff" stroke="#63b8ff" points="395.83,-481.5 405.83,-478 395.83,-474.5 395.83,-481.5"/>
</a>
</g>
</g>
<!-- Node5 -->
<g id="Node000005" class="node">
<title>Node5</title>
<g id="a_Node000005"><a xlink:href="class_hooks_impl.html#a8ef5405a747979c1f5197848e4a8e684" target="_top" xlink:title=" ">
<polygon fill="white" stroke="#666666" points="754.62,-221 623.88,-221 623.88,-189 754.62,-189 754.62,-221"/>
<text text-anchor="start" x="631.88" y="-207.5" font-family="Helvetica,sans-Serif" font-size="10.00">HooksImpl::hasCaptionDbl</text>
<text text-anchor="middle" x="689.25" y="-195.5" font-family="Helvetica,sans-Serif" font-size="10.00">Clicked</text>
</a>
</g>
</g>
<!-- Node4&#45;&gt;Node5 -->
<g id="edge4_Node000004_Node000005" class="edge">
<title>Node4&#45;&gt;Node5</title>
<g id="a_edge4_Node000004_Node000005"><a xlink:title=" ">
<path fill="none" stroke="#63b8ff" d="M561.92,-467.53C566.79,-465.2 571.39,-462.39 575.5,-459 647.69,-399.55 675.2,-284.5 684.31,-232.14"/>
<polygon fill="#63b8ff" stroke="#63b8ff" points="687.9,-232.82 686.07,-222.38 681,-231.69 687.9,-232.82"/>
</a>
</g>
</g>
<!-- Node6 -->
<g id="Node000006" class="node">
<title>Node6</title>
<g id="a_Node000006"><a xlink:href="class_hooks_impl.html#a7a48621aa5b57024ae963b861fd508cb" target="_top" xlink:title=" ">
<polygon fill="white" stroke="#666666" points="750.5,-466 628,-466 628,-446 750.5,-446 750.5,-466"/>
<text text-anchor="middle" x="689.25" y="-452.5" font-family="Helvetica,sans-Serif" font-size="10.00">HooksImpl::hasLastRect</text>
</a>
</g>
</g>
<!-- Node4&#45;&gt;Node6 -->
<g id="edge5_Node000004_Node000006" class="edge">
<title>Node4&#45;&gt;Node6</title>
<g id="a_edge5_Node000004_Node000006"><a xlink:title=" ">
<path fill="none" stroke="#63b8ff" d="M575.73,-468.64C589.45,-467.1 603.56,-465.51 616.95,-464.01"/>
<polygon fill="#63b8ff" stroke="#63b8ff" points="616.97,-467.42 626.52,-462.82 616.19,-460.46 616.97,-467.42"/>
</a>
</g>
</g>
<!-- Node8 -->
<g id="Node000008" class="node">
<title>Node8</title>
<g id="a_Node000008"><a xlink:href="class_hooks_cfg.html#a9642afc6c6fe88141770403a09cdfc4b" target="_top" xlink:title="read the global config for all apps">
<polygon fill="white" stroke="#666666" points="546.25,-526 436.5,-526 436.5,-506 546.25,-506 546.25,-526"/>
<text text-anchor="middle" x="491.38" y="-512.5" font-family="Helvetica,sans-Serif" font-size="10.00">HooksCfg::readConfig</text>
</a>
</g>
</g>
<!-- Node7&#45;&gt;Node8 -->
<g id="edge7_Node000007_Node000008" class="edge">
<title>Node7&#45;&gt;Node8</title>
<g id="a_edge7_Node000007_Node000008"><a xlink:title=" ">
<path fill="none" stroke="#63b8ff" d="M353.59,-450.44C359.74,-452.78 365.82,-455.61 371.25,-459 390.98,-471.32 387.04,-485.47 407.25,-497 413.07,-500.32 419.44,-503.06 425.97,-505.33"/>
<polygon fill="#63b8ff" stroke="#63b8ff" points="424.73,-508.91 435.31,-508.5 426.78,-502.22 424.73,-508.91"/>
</a>
</g>
</g>
<!-- Node9 -->
<g id="Node000009" class="node">
<title>Node9</title>
<g id="a_Node000009"><a xlink:href="class_hooks_cfg.html#a808e4e4a7bc43b89c87ef172fa8caf6a" target="_top" xlink:title="the path to the global config, for all apps">
<polygon fill="white" stroke="#666666" points="751.62,-507 626.88,-507 626.88,-487 751.62,-487 751.62,-507"/>
<text text-anchor="middle" x="689.25" y="-493.5" font-family="Helvetica,sans-Serif" font-size="10.00">HooksCfg::getConfigPath</text>
</a>
</g>
</g>
<!-- Node8&#45;&gt;Node9 -->
<g id="edge8_Node000008_Node000009" class="edge">
<title>Node8&#45;&gt;Node9</title>
<g id="a_edge8_Node000008_Node000009"><a xlink:title=" ">
<path fill="none" stroke="#63b8ff" d="M546.68,-510.73C568.08,-508.66 592.98,-506.24 615.88,-504.02"/>
<polygon fill="#63b8ff" stroke="#63b8ff" points="615.97,-507.43 625.58,-502.98 615.29,-500.46 615.97,-507.43"/>
</a>
</g>
</g>
<!-- Node11 -->
<g id="Node000011" class="node">
<title>Node11</title>
<g id="a_Node000011"><a xlink:href="class_hooks_cfg.html#ab8fd861156e6b389e43bbda021f42c50" target="_top" xlink:title="read a JSON config from given path">
<polygon fill="white" stroke="#666666" points="766.25,-545 612.25,-545 612.25,-525 766.25,-525 766.25,-545"/>
<text text-anchor="middle" x="689.25" y="-531.5" font-family="Helvetica,sans-Serif" font-size="10.00">HooksCfg::readConfigDocument</text>
</a>
</g>
</g>
<!-- Node8&#45;&gt;Node11 -->
<g id="edge10_Node000008_Node000011" class="edge">
<title>Node8&#45;&gt;Node11</title>
<g id="a_edge10_Node000008_Node000011"><a xlink:title=" ">
<path fill="none" stroke="#63b8ff" d="M546.68,-521.27C563.52,-522.9 582.54,-524.75 601.03,-526.54"/>
<polygon fill="#63b8ff" stroke="#63b8ff" points="600.55,-530.11 610.84,-527.59 601.23,-523.14 600.55,-530.11"/>
</a>
</g>
</g>
<!-- Node10 -->
<g id="Node000010" class="node">
<title>Node10</title>
<g id="a_Node000010"><a xlink:href="class_hooks_cfg.html#a437c5768d5246cf980d1be5ea6f272c6" target="_top" xlink:title="the directory, where store the configs and logs">
<polygon fill="white" stroke="#666666" points="931.5,-507 815,-507 815,-487 931.5,-487 931.5,-507"/>
<text text-anchor="middle" x="873.25" y="-493.5" font-family="Helvetica,sans-Serif" font-size="10.00">HooksCfg::getConfigDir</text>
</a>
</g>
</g>
<!-- Node9&#45;&gt;Node10 -->
<g id="edge9_Node000009_Node000010" class="edge">
<title>Node9&#45;&gt;Node10</title>
<g id="a_edge9_Node000009_Node000010"><a xlink:title=" ">
<path fill="none" stroke="#63b8ff" d="M752.12,-497C768.69,-497 786.7,-497 803.61,-497"/>
<polygon fill="#63b8ff" stroke="#63b8ff" points="803.54,-500.5 813.54,-497 803.54,-493.5 803.54,-500.5"/>
</a>
</g>
</g>
<!-- Node12&#45;&gt;Node7 -->
<g id="edge54_Node000012_Node000007" class="edge">
<title>Node12&#45;&gt;Node7</title>
<g id="a_edge54_Node000012_Node000007"><a xlink:title=" ">
<path fill="none" stroke="#63b8ff" d="M205.64,-425.79C217.4,-427.42 230.93,-429.28 244.24,-431.12"/>
<polygon fill="#63b8ff" stroke="#63b8ff" points="243.45,-434.68 253.83,-432.58 244.4,-427.75 243.45,-434.68"/>
</a>
</g>
</g>
<!-- Node13 -->
<g id="Node000013" class="node">
<title>Node13</title>
<g id="a_Node000013"><a xlink:href="class_hooks_impl.html#a07053e18c49265e300fe89b2a5bc28de" target="_top" xlink:title="here the Windows messages are picked up, which do not appear in the main message loop">
<polygon fill="white" stroke="#666666" points="369.75,-248 249.5,-248 249.5,-228 369.75,-228 369.75,-248"/>
<text text-anchor="middle" x="309.62" y="-234.5" font-family="Helvetica,sans-Serif" font-size="10.00">HooksImpl::getMsgProc</text>
</a>
</g>
</g>
<!-- Node12&#45;&gt;Node13 -->
<g id="edge12_Node000012_Node000013" class="edge">
<title>Node12&#45;&gt;Node13</title>
<g id="a_edge12_Node000012_Node000013"><a xlink:title=" ">
<path fill="none" stroke="#63b8ff" d="M199.28,-410.67C203.83,-408.25 208.27,-405.38 212,-402 257.79,-360.56 288.22,-292.23 301.31,-258.35"/>
<polygon fill="#63b8ff" stroke="#63b8ff" points="304.86,-259.86 305.08,-249.27 298.3,-257.41 304.86,-259.86"/>
</a>
</g>
</g>
<!-- Node14 -->
<g id="Node000014" class="node">
<title>Node14</title>
<g id="a_Node000014"><a xlink:href="class_hooks_impl.html#a30acc60a07305d2df36a7798cb73aaa1" target="_top" xlink:title=" ">
<polygon fill="white" stroke="#666666" points="564.25,-324 418.5,-324 418.5,-304 564.25,-304 564.25,-324"/>
<text text-anchor="middle" x="491.38" y="-310.5" font-family="Helvetica,sans-Serif" font-size="10.00">HooksImpl::getLButtonUpMsg</text>
</a>
</g>
</g>
<!-- Node13&#45;&gt;Node14 -->
<g id="edge13_Node000013_Node000014" class="edge">
<title>Node13&#45;&gt;Node14</title>
<g id="a_edge13_Node000013_Node000014"><a xlink:title=" ">
<path fill="none" stroke="#63b8ff" d="M324.95,-248.38C343.21,-261.14 376.13,-282.61 407.25,-295 412.36,-297.04 417.74,-298.88 423.21,-300.55"/>
<polygon fill="#63b8ff" stroke="#63b8ff" points="422.19,-304.18 432.76,-303.54 424.1,-297.44 422.19,-304.18"/>
</a>
</g>
</g>
<!-- Node15 -->
<g id="Node000015" class="node">
<title>Node15</title>
<g id="a_Node000015"><a xlink:href="class_hooks_impl.html#a1f4bd7b8436918fc1cd5cea1c3a15bc9" target="_top" xlink:title=" ">
<polygon fill="white" stroke="#666666" points="570.25,-286 412.5,-286 412.5,-266 570.25,-266 570.25,-286"/>
<text text-anchor="middle" x="491.38" y="-272.5" font-family="Helvetica,sans-Serif" font-size="10.00">HooksImpl::getNcLButtonUpMsg</text>
</a>
</g>
</g>
<!-- Node13&#45;&gt;Node15 -->
<g id="edge14_Node000013_Node000015" class="edge">
<title>Node13&#45;&gt;Node15</title>
<g id="a_edge14_Node000013_Node000015"><a xlink:title=" ">
<path fill="none" stroke="#63b8ff" d="M360.22,-248.48C381.93,-253.07 407.59,-258.5 430.37,-263.31"/>
<polygon fill="#63b8ff" stroke="#63b8ff" points="429.44,-266.91 439.94,-265.55 430.88,-260.06 429.44,-266.91"/>
</a>
</g>
</g>
<!-- Node16 -->
<g id="Node000016" class="node">
<title>Node16</title>
<g id="a_Node000016"><a xlink:href="class_task_toolbar.html#a3159b1e31199ee3691bf2bcf5ec21100" target="_top" xlink:title=" ">
<polygon fill="white" stroke="#666666" points="546.25,-248 436.5,-248 436.5,-228 546.25,-228 546.25,-248"/>
<text text-anchor="middle" x="491.38" y="-234.5" font-family="Helvetica,sans-Serif" font-size="10.00">TaskToolbar::initialize</text>
</a>
</g>
</g>
<!-- Node13&#45;&gt;Node16 -->
<g id="edge15_Node000013_Node000016" class="edge">
<title>Node13&#45;&gt;Node16</title>
<g id="a_edge15_Node000013_Node000016"><a xlink:title=" ">
<path fill="none" stroke="#63b8ff" d="M369.98,-238C387.76,-238 407.35,-238 425.47,-238"/>
<polygon fill="#63b8ff" stroke="#63b8ff" points="425.24,-241.5 435.24,-238 425.24,-234.5 425.24,-241.5"/>
</a>
</g>
</g>
<!-- Node17 -->
<g id="Node000017" class="node">
<title>Node17</title>
<g id="a_Node000017"><a xlink:href="class_hooks_impl.html#ae0d26e76e300b5392e64fb070aafe8d5" target="_top" xlink:title="do the work, if necessary">
<polygon fill="white" stroke="#666666" points="557.88,-134 424.88,-134 424.88,-114 557.88,-114 557.88,-134"/>
<text text-anchor="middle" x="491.38" y="-120.5" font-family="Helvetica,sans-Serif" font-size="10.00">HooksImpl::onCaptionClick</text>
</a>
</g>
</g>
<!-- Node13&#45;&gt;Node17 -->
<g id="edge16_Node000013_Node000017" class="edge">
<title>Node13&#45;&gt;Node17</title>
<g id="a_edge16_Node000013_Node000017"><a xlink:title=" ">
<path fill="none" stroke="#63b8ff" d="M318.78,-227.71C334.12,-209.06 369.15,-169.59 407.25,-148 414.25,-144.04 421.95,-140.68 429.77,-137.85"/>
<polygon fill="#63b8ff" stroke="#63b8ff" points="430.66,-140.91 439.05,-134.43 428.45,-134.27 430.66,-140.91"/>
</a>
</g>
</g>
<!-- Node18 -->
<g id="Node000018" class="node">
<title>Node18</title>
<g id="a_Node000018"><a xlink:href="class_hooks_impl.html#a84c9a5c6b0754e092de2ee6a8b8bba1e" target="_top" xlink:title="method to change the size of a window in steps">
<polygon fill="white" stroke="#666666" points="767,-171 611.5,-171 611.5,-151 767,-151 767,-171"/>
<text text-anchor="middle" x="689.25" y="-157.5" font-family="Helvetica,sans-Serif" font-size="10.00">HooksImpl::onIncrementWindow</text>
</a>
</g>
</g>
<!-- Node13&#45;&gt;Node18 -->
<g id="edge44_Node000013_Node000018" class="edge">
<title>Node13&#45;&gt;Node18</title>
<g id="a_edge44_Node000013_Node000018"><a xlink:title=" ">
<path fill="none" stroke="#63b8ff" d="M323.75,-227.54C341.5,-214.05 374.71,-191.14 407.25,-181 469.87,-161.49 544,-156.93 600.39,-157.02"/>
<polygon fill="#63b8ff" stroke="#63b8ff" points="600.04,-160.52 610.06,-157.09 600.09,-153.52 600.04,-160.52"/>
</a>
</g>
</g>
<!-- Node19 -->
<g id="Node000019" class="node">
<title>Node19</title>
<g id="a_Node000019"><a xlink:href="class_hooks_impl.html#ab6696c1ccc12ebdd892883485456ed3c" target="_top" xlink:title=" ">
<polygon fill="white" stroke="#666666" points="759.12,-132 619.38,-132 619.38,-112 759.12,-112 759.12,-132"/>
<text text-anchor="middle" x="689.25" y="-118.5" font-family="Helvetica,sans-Serif" font-size="10.00">HooksImpl::onShowPosWnd</text>
</a>
</g>
</g>
<!-- Node13&#45;&gt;Node19 -->
<g id="edge52_Node000013_Node000019" class="edge">
<title>Node13&#45;&gt;Node19</title>
<g id="a_edge52_Node000013_Node000019"><a xlink:title=" ">
<path fill="none" stroke="#63b8ff" d="M314.25,-227.82C324.22,-201.55 354.86,-131.69 407.25,-105 486.21,-64.77 594.28,-90.05 650.62,-108.23"/>
<polygon fill="#63b8ff" stroke="#63b8ff" points="649.25,-111.8 659.84,-111.64 651.46,-105.16 649.25,-111.8"/>
</a>
</g>
</g>
<!-- Node35 -->
<g id="Node000035" class="node">
<title>Node35</title>
<g id="a_Node000035"><a xlink:href="class_hooks_impl.html#a924c5db32f07636c8acbc9421c216112" target="_top" xlink:title=" ">
<polygon fill="white" stroke="#666666" points="759.5,-58 619,-58 619,-38 759.5,-38 759.5,-58"/>
<text text-anchor="middle" x="689.25" y="-44.5" font-family="Helvetica,sans-Serif" font-size="10.00">HooksImpl::onClosePosWnd</text>
</a>
</g>
</g>
<!-- Node13&#45;&gt;Node35 -->
<g id="edge40_Node000013_Node000035" class="edge">
<title>Node13&#45;&gt;Node35</title>
<g id="a_edge40_Node000013_Node000035"><a xlink:title=" ">
<path fill="none" stroke="#63b8ff" d="M313.47,-227.63C322.04,-198.58 350.59,-116.13 407.25,-80 466.68,-42.1 547.83,-36.64 607.64,-39.16"/>
<polygon fill="#63b8ff" stroke="#63b8ff" points="607.39,-42.71 617.56,-39.72 607.75,-35.72 607.39,-42.71"/>
</a>
</g>
</g>
<!-- Node36 -->
<g id="Node000036" class="node">
<title>Node36</title>
<g id="a_Node000036"><a xlink:href="class_hooks_impl.html#a7628ad89b3625fcd9e8538d94d7b2cde" target="_top" xlink:title="processes the WM_LBUTTONUP event">
<polygon fill="white" stroke="#666666" points="553.38,-210 429.38,-210 429.38,-190 553.38,-190 553.38,-210"/>
<text text-anchor="middle" x="491.38" y="-196.5" font-family="Helvetica,sans-Serif" font-size="10.00">HooksImpl::onLButtonUp</text>
</a>
</g>
</g>
<!-- Node13&#45;&gt;Node36 -->
<g id="edge45_Node000013_Node000036" class="edge">
<title>Node13&#45;&gt;Node36</title>
<g id="a_edge45_Node000013_Node000036"><a xlink:title=" ">
<path fill="none" stroke="#63b8ff" d="M360.22,-227.52C381.93,-222.93 407.59,-217.5 430.37,-212.69"/>
<polygon fill="#63b8ff" stroke="#63b8ff" points="430.88,-215.94 439.94,-210.45 429.44,-209.09 430.88,-215.94"/>
</a>
</g>
</g>
<!-- Node37 -->
<g id="Node000037" class="node">
<title>Node37</title>
<g id="a_Node000037"><a xlink:href="class_hooks_impl.html#afe7a8e2c13ab2abe83b4f3d0c462e761" target="_top" xlink:title="this procedure handles the double click in non&#45;client area">
<polygon fill="white" stroke="#666666" points="560.5,-450 422.25,-450 422.25,-418 560.5,-418 560.5,-450"/>
<text text-anchor="start" x="430.25" y="-436.5" font-family="Helvetica,sans-Serif" font-size="10.00">HooksImpl::onNcLButtonDbl</text>
<text text-anchor="middle" x="491.38" y="-424.5" font-family="Helvetica,sans-Serif" font-size="10.00">Click</text>
</a>
</g>
</g>
<!-- Node13&#45;&gt;Node37 -->
<g id="edge48_Node000013_Node000037" class="edge">
<title>Node13&#45;&gt;Node37</title>
<g id="a_edge48_Node000013_Node000037"><a xlink:title=" ">
<path fill="none" stroke="#63b8ff" d="M313.45,-248.25C322.13,-277.86 351.31,-364.29 407.25,-409 408.93,-410.34 410.68,-411.61 412.48,-412.81"/>
<polygon fill="#63b8ff" stroke="#63b8ff" points="410.52,-416.3 420.93,-418.27 414.02,-410.24 410.52,-416.3"/>
</a>
</g>
</g>
<!-- Node38 -->
<g id="Node000038" class="node">
<title>Node38</title>
<g id="a_Node000038"><a xlink:href="class_hooks_impl.html#a9adf50040968aa66908f643ad1edda53" target="_top" xlink:title="processes the WM_NCLBUTTONDOWN event">
<polygon fill="white" stroke="#666666" points="565.38,-20 417.38,-20 417.38,0 565.38,0 565.38,-20"/>
<text text-anchor="middle" x="491.38" y="-6.5" font-family="Helvetica,sans-Serif" font-size="10.00">HooksImpl::onNcLButtonDown</text>
</a>
</g>
</g>
<!-- Node13&#45;&gt;Node38 -->
<g id="edge50_Node000013_Node000038" class="edge">
<title>Node13&#45;&gt;Node38</title>
<g id="a_edge50_Node000013_Node000038"><a xlink:title=" ">
<path fill="none" stroke="#63b8ff" d="M312.42,-227.72C318.77,-194.38 343.37,-88.33 407.25,-34 411.43,-30.44 416.12,-27.41 421.07,-24.83"/>
<polygon fill="#63b8ff" stroke="#63b8ff" points="422.21,-27.7 429.88,-20.4 419.33,-21.33 422.21,-27.7"/>
</a>
</g>
</g>
<!-- Node39 -->
<g id="Node000039" class="node">
<title>Node39</title>
<g id="a_Node000039"><a xlink:href="class_hooks_impl.html#a88ea927a4d021535e4a5768ef60a50d7" target="_top" xlink:title="processes the WM_NCLBUTTONUP event">
<polygon fill="white" stroke="#666666" points="560.12,-400 422.62,-400 422.62,-380 560.12,-380 560.12,-400"/>
<text text-anchor="middle" x="491.38" y="-386.5" font-family="Helvetica,sans-Serif" font-size="10.00">HooksImpl::onNCLButtonUp</text>
</a>
</g>
</g>
<!-- Node13&#45;&gt;Node39 -->
<g id="edge51_Node000013_Node000039" class="edge">
<title>Node13&#45;&gt;Node39</title>
<g id="a_edge51_Node000013_Node000039"><a xlink:title=" ">
<path fill="none" stroke="#63b8ff" d="M314.95,-248.26C326.15,-273.51 358.66,-338.92 407.25,-371 409.52,-372.5 411.89,-373.88 414.34,-375.15"/>
<polygon fill="#63b8ff" stroke="#63b8ff" points="412.55,-378.64 423.1,-379.55 415.42,-372.25 412.55,-378.64"/>
</a>
</g>
</g>
<!-- Node40 -->
<g id="Node000040" class="node">
<title>Node40</title>
<g id="a_Node000040"><a xlink:href="class_task_toolbar.html#a2304586dd147f754c7040f781eda1270" target="_top" xlink:title=" ">
<polygon fill="white" stroke="#666666" points="551.5,-362 431.25,-362 431.25,-342 551.5,-342 551.5,-362"/>
<text text-anchor="middle" x="491.38" y="-348.5" font-family="Helvetica,sans-Serif" font-size="10.00">TaskToolbar::uninitialize</text>
</a>
</g>
</g>
<!-- Node13&#45;&gt;Node40 -->
<g id="edge53_Node000013_Node000040" class="edge">
<title>Node13&#45;&gt;Node40</title>
<g id="a_edge53_Node000013_Node000040"><a xlink:title=" ">
<path fill="none" stroke="#63b8ff" d="M318.06,-248.47C332.73,-268.27 367.42,-311.2 407.25,-333 411.45,-335.3 415.92,-337.32 420.53,-339.1"/>
<polygon fill="#63b8ff" stroke="#63b8ff" points="419.16,-342.68 429.76,-342.62 421.44,-336.06 419.16,-342.68"/>
</a>
</g>
</g>
<!-- Node17&#45;&gt;Node5 -->
<g id="edge17_Node000017_Node000005" class="edge">
<title>Node17&#45;&gt;Node5</title>
<g id="a_edge17_Node000017_Node000005"><a xlink:title=" ">
<path fill="none" stroke="#63b8ff" d="M512.27,-134.29C535.66,-146.16 575.81,-165.86 611.5,-180 615.87,-181.73 620.41,-183.44 625,-185.1"/>
<polygon fill="#63b8ff" stroke="#63b8ff" points="623.5,-188.63 634.1,-188.64 625.82,-182.02 623.5,-188.63"/>
</a>
</g>
</g>
<!-- Node17&#45;&gt;Node18 -->
<g id="edge18_Node000017_Node000018" class="edge">
<title>Node17&#45;&gt;Node18</title>
<g id="a_edge18_Node000017_Node000018"><a xlink:title=" ">
<path fill="none" stroke="#63b8ff" d="M547.72,-134.45C570.88,-138.83 597.98,-143.95 622.18,-148.52"/>
<polygon fill="#63b8ff" stroke="#63b8ff" points="621.23,-152.09 631.7,-150.51 622.53,-145.21 621.23,-152.09"/>
</a>
</g>
</g>
<!-- Node17&#45;&gt;Node19 -->
<g id="edge19_Node000017_Node000019" class="edge">
<title>Node17&#45;&gt;Node19</title>
<g id="a_edge19_Node000017_Node000019"><a xlink:title=" ">
<path fill="none" stroke="#63b8ff" d="M558.14,-123.33C574.19,-123.16 591.53,-122.99 608.16,-122.82"/>
<polygon fill="#63b8ff" stroke="#63b8ff" points="608,-126.31 617.97,-122.71 607.93,-119.31 608,-126.31"/>
</a>
</g>
</g>
<!-- Node20 -->
<g id="Node000020" class="node">
<title>Node20</title>
<g id="a_Node000020"><a xlink:href="class_win_pos_wnd.html#abec2e67db5543a717d59b02ab8dbb930" target="_top" xlink:title="create the required windows for monitor preview and all configured positions">
<polygon fill="white" stroke="#666666" points="925.12,-172 821.38,-172 821.38,-152 925.12,-152 925.12,-172"/>
<text text-anchor="middle" x="873.25" y="-158.5" font-family="Helvetica,sans-Serif" font-size="10.00">WinPosWnd::create</text>
</a>
</g>
</g>
<!-- Node19&#45;&gt;Node20 -->
<g id="edge20_Node000019_Node000020" class="edge">
<title>Node19&#45;&gt;Node20</title>
<g id="a_edge20_Node000019_Node000020"><a xlink:title=" ">
<path fill="none" stroke="#63b8ff" d="M737.59,-132.41C760.9,-137.53 789.21,-143.75 813.84,-149.16"/>
<polygon fill="#63b8ff" stroke="#63b8ff" points="812.99,-152.78 823.51,-151.51 814.5,-145.94 812.99,-152.78"/>
</a>
</g>
</g>
<!-- Node34 -->
<g id="Node000034" class="node">
<title>Node34</title>
<g id="a_Node000034"><a xlink:href="class_win_pos_wnd.html#acb456c59641ec336d5c7646764fe7e6a" target="_top" xlink:title=" ">
<polygon fill="white" stroke="#666666" points="943.5,-131 803,-131 803,-111 943.5,-111 943.5,-131"/>
<text text-anchor="middle" x="873.25" y="-117.5" font-family="Helvetica,sans-Serif" font-size="10.00">WinPosWnd::getWndHandle</text>
</a>
</g>
</g>
<!-- Node19&#45;&gt;Node34 -->
<g id="edge39_Node000019_Node000034" class="edge">
<title>Node19&#45;&gt;Node34</title>
<g id="a_edge39_Node000019_Node000034"><a xlink:title=" ">
<path fill="none" stroke="#63b8ff" d="M759.58,-121.62C770.12,-121.56 781.08,-121.5 791.84,-121.44"/>
<polygon fill="#63b8ff" stroke="#63b8ff" points="791.53,-124.94 801.51,-121.38 791.5,-117.94 791.53,-124.94"/>
</a>
</g>
</g>
<!-- Node21 -->
<g id="Node000021" class="node">
<title>Node21</title>
<g id="a_Node000021"><a xlink:href="class_win_pos_wnd.html#a4b607f031e5058874a31918e4cc1ba79" target="_top" xlink:title="if the window looks beyond the edge of the monitor, it is moved so that it is displayed as a whole on...">
<polygon fill="white" stroke="#666666" points="1139.5,-304 984,-304 984,-284 1139.5,-284 1139.5,-304"/>
<text text-anchor="middle" x="1061.75" y="-290.5" font-family="Helvetica,sans-Serif" font-size="10.00">WinPosWnd::correctEdgecases</text>
</a>
</g>
</g>
<!-- Node20&#45;&gt;Node21 -->
<g id="edge21_Node000020_Node000021" class="edge">
<title>Node20&#45;&gt;Node21</title>
<g id="a_edge21_Node000020_Node000021"><a xlink:title=" ">
<path fill="none" stroke="#63b8ff" d="M880.72,-172.33C895.35,-194.8 933.34,-248.25 979.5,-275 982.35,-276.65 985.34,-278.16 988.42,-279.54"/>
<polygon fill="#63b8ff" stroke="#63b8ff" points="986.9,-283.1 997.49,-283.51 989.47,-276.59 986.9,-283.1"/>
</a>
</g>
</g>
<!-- Node22 -->
<g id="Node000022" class="node">
<title>Node22</title>
<g id="a_Node000022"><a xlink:href="class_win_pos_wnd.html#a8abc6edd027488d4f7242b9f12693af8" target="_top" xlink:title="destroys every windows">
<polygon fill="white" stroke="#666666" points="1116.25,-58 1007.25,-58 1007.25,-38 1116.25,-38 1116.25,-58"/>
<text text-anchor="middle" x="1061.75" y="-44.5" font-family="Helvetica,sans-Serif" font-size="10.00">WinPosWnd::destroy</text>
</a>
</g>
</g>
<!-- Node20&#45;&gt;Node22 -->
<g id="edge22_Node000020_Node000022" class="edge">
<title>Node20&#45;&gt;Node22</title>
<g id="a_edge22_Node000020_Node000022"><a xlink:title=" ">
<path fill="none" stroke="#63b8ff" d="M924.13,-151.59C931.14,-148.64 937.86,-144.85 943.5,-140 970.93,-116.42 951.17,-89.5 979.5,-67 984.71,-62.86 990.67,-59.6 996.94,-57.02"/>
<polygon fill="#63b8ff" stroke="#63b8ff" points="997.69,-60.12 1005.98,-53.53 995.38,-53.51 997.69,-60.12"/>
</a>
</g>
</g>
<!-- Node23 -->
<g id="Node000023" class="node">
<title>Node23</title>
<g id="a_Node000023"><a xlink:href="class_win_pos_wnd_cfg.html#afe04626c840dd23b6b063f58bcb06dce" target="_top" xlink:title=" ">
<polygon fill="white" stroke="#666666" points="1522.5,-182 1358.75,-182 1358.75,-162 1522.5,-162 1522.5,-182"/>
<text text-anchor="middle" x="1440.62" y="-168.5" font-family="Helvetica,sans-Serif" font-size="10.00">WinPosWndCfg::getCloseTimeout</text>
</a>
</g>
</g>
<!-- Node20&#45;&gt;Node23 -->
<g id="edge23_Node000020_Node000023" class="edge">
<title>Node20&#45;&gt;Node23</title>
<g id="a_edge23_Node000020_Node000023"><a xlink:title=" ">
<path fill="none" stroke="#63b8ff" d="M925.42,-162.91C1020.94,-164.59 1227.55,-168.25 1347.77,-170.38"/>
<polygon fill="#63b8ff" stroke="#63b8ff" points="1347.36,-173.89 1357.42,-170.56 1347.48,-166.89 1347.36,-173.89"/>
</a>
</g>
</g>
<!-- Node24 -->
<g id="Node000024" class="node">
<title>Node24</title>
<g id="a_Node000024"><a xlink:href="class_win_pos_wnd_cfg.html#a10a73295ae59c85d651ad0088b235125" target="_top" xlink:title=" ">
<polygon fill="white" stroke="#666666" points="1132.75,-210 990.75,-210 990.75,-190 1132.75,-190 1132.75,-210"/>
<text text-anchor="middle" x="1061.75" y="-196.5" font-family="Helvetica,sans-Serif" font-size="10.00">WinPosWndCfg::getMonitors</text>
</a>
</g>
</g>
<!-- Node20&#45;&gt;Node24 -->
<g id="edge24_Node000020_Node000024" class="edge">
<title>Node20&#45;&gt;Node24</title>
<g id="a_edge24_Node000020_Node000024"><a xlink:title=" ">
<path fill="none" stroke="#63b8ff" d="M925.21,-172.38C947.94,-177.01 974.92,-182.51 998.8,-187.38"/>
<polygon fill="#63b8ff" stroke="#63b8ff" points="998.03,-191 1008.53,-189.56 999.43,-184.14 998.03,-191"/>
</a>
</g>
</g>
<!-- Node25 -->
<g id="Node000025" class="node">
<title>Node25</title>
<g id="a_Node000025"><a xlink:href="class_win_pos_wnd_cfg.html#a1fd1c1c55716a4697a044ae0671cf2aa" target="_top" xlink:title=" ">
<polygon fill="white" stroke="#666666" points="1505.25,-286 1376,-286 1376,-266 1505.25,-266 1505.25,-286"/>
<text text-anchor="middle" x="1440.62" y="-272.5" font-family="Helvetica,sans-Serif" font-size="10.00">WinPosWndCfg::getScale</text>
</a>
</g>
</g>
<!-- Node20&#45;&gt;Node25 -->
<g id="edge25_Node000020_Node000025" class="edge">
<title>Node20&#45;&gt;Node25</title>
<g id="a_edge25_Node000020_Node000025"><a xlink:title=" ">
<path fill="none" stroke="#63b8ff" d="M877.6,-172.28C887.61,-201.01 920.29,-282.1 979.5,-313 1122.63,-387.7 1325.43,-321.92 1405.35,-290.5"/>
<polygon fill="#63b8ff" stroke="#63b8ff" points="1406.38,-293.46 1414.36,-286.49 1403.77,-286.96 1406.38,-293.46"/>
</a>
</g>
</g>
<!-- Node26 -->
<g id="Node000026" class="node">
<title>Node26</title>
<g id="a_Node000026"><a xlink:href="class_win_pos_wnd.html#a159d04333920b8b0ab3b8ecc6f6607dd" target="_top" xlink:title=" ">
<polygon fill="white" stroke="#666666" points="1144,-134 979.5,-134 979.5,-114 1144,-114 1144,-134"/>
<text text-anchor="middle" x="1061.75" y="-120.5" font-family="Helvetica,sans-Serif" font-size="10.00">WinPosWnd::getTotalPreviewRect</text>
</a>
</g>
</g>
<!-- Node20&#45;&gt;Node26 -->
<g id="edge26_Node000020_Node000026" class="edge">
<title>Node20&#45;&gt;Node26</title>
<g id="a_edge26_Node000020_Node000026"><a xlink:title=" ">
<path fill="none" stroke="#63b8ff" d="M925.21,-151.62C947.94,-146.99 974.92,-141.49 998.8,-136.62"/>
<polygon fill="#63b8ff" stroke="#63b8ff" points="999.43,-139.86 1008.53,-134.44 998.03,-133 999.43,-139.86"/>
</a>
</g>
</g>
<!-- Node27 -->
<g id="Node000027" class="node">
<title>Node27</title>
<g id="a_Node000027"><a xlink:href="class_win_pos_wnd.html#a86ca33ea895961e25e6c1601e420f40e" target="_top" xlink:title="initialize the WNDCLASS structure">
<polygon fill="white" stroke="#666666" points="1129,-96 994.5,-96 994.5,-76 1129,-76 1129,-96"/>
<text text-anchor="middle" x="1061.75" y="-82.5" font-family="Helvetica,sans-Serif" font-size="10.00">WinPosWnd::initWndClass</text>
</a>
</g>
</g>
<!-- Node20&#45;&gt;Node27 -->
<g id="edge27_Node000020_Node000027" class="edge">
<title>Node20&#45;&gt;Node27</title>
<g id="a_edge27_Node000020_Node000027"><a xlink:title=" ">
<path fill="none" stroke="#63b8ff" d="M917.71,-151.6C926.57,-148.55 935.6,-144.73 943.5,-140 962.65,-128.54 959.92,-115.71 979.5,-105 982.61,-103.3 985.88,-101.75 989.23,-100.33"/>
<polygon fill="#63b8ff" stroke="#63b8ff" points="990.36,-103.27 998.51,-96.5 987.91,-96.71 990.36,-103.27"/>
</a>
</g>
</g>
<!-- Node30 -->
<g id="Node000030" class="node">
<title>Node30</title>
<g id="a_Node000030"><a xlink:href="struct_win_pos_wnd_1_1_monitor_preview.html#a01fe1b4351422928e43305d1758ae6fb" target="_top" xlink:title="move the rectangle to the cursor position">
<polygon fill="white" stroke="#666666" points="1132.75,-392 990.75,-392 990.75,-360 1132.75,-360 1132.75,-392"/>
<text text-anchor="start" x="998.75" y="-378.5" font-family="Helvetica,sans-Serif" font-size="10.00">WinPosWnd::MonitorPreview</text>
<text text-anchor="middle" x="1061.75" y="-366.5" font-family="Helvetica,sans-Serif" font-size="10.00">::offsetToPt</text>
</a>
</g>
</g>
<!-- Node20&#45;&gt;Node30 -->
<g id="edge30_Node000020_Node000030" class="edge">
<title>Node20&#45;&gt;Node30</title>
<g id="a_edge30_Node000020_Node000030"><a xlink:title=" ">
<path fill="none" stroke="#63b8ff" d="M877.37,-172.41C887.16,-203.36 920.23,-295.83 979.5,-346 983.22,-349.15 987.29,-351.97 991.58,-354.52"/>
<polygon fill="#63b8ff" stroke="#63b8ff" points="989.76,-358.05 1000.23,-359.64 993.04,-351.86 989.76,-358.05"/>
</a>
</g>
</g>
<!-- Node31 -->
<g id="Node000031" class="node">
<title>Node31</title>
<g id="a_Node000031"><a xlink:href="class_win_pos_wnd_cfg.html#a038475d40481960d701d09f6e39467c8" target="_top" xlink:title=" ">
<polygon fill="white" stroke="#666666" points="1130.12,-248 993.38,-248 993.38,-228 1130.12,-228 1130.12,-248"/>
<text text-anchor="middle" x="1061.75" y="-234.5" font-family="Helvetica,sans-Serif" font-size="10.00">WinPosWndCfg::readConfig</text>
</a>
</g>
</g>
<!-- Node20&#45;&gt;Node31 -->
<g id="edge31_Node000020_Node000031" class="edge">
<title>Node20&#45;&gt;Node31</title>
<g id="a_edge31_Node000020_Node000031"><a xlink:title=" ">
<path fill="none" stroke="#63b8ff" d="M890.02,-172.28C910.06,-184.94 946.09,-206.31 979.5,-219 984.92,-221.06 990.62,-222.94 996.4,-224.64"/>
<polygon fill="#63b8ff" stroke="#63b8ff" points="995.25,-228.23 1005.82,-227.52 997.12,-221.48 995.25,-228.23"/>
</a>
</g>
</g>
<!-- Node28 -->
<g id="Node000028" class="node">
<title>Node28</title>
<g id="a_Node000028"><a xlink:href="class_win_pos_wnd.html#a104a18975fac2ac85a75eabda629ddb2" target="_top" xlink:title="static WNDPROC. Forwards to the WinPosWnd instances.">
<polygon fill="white" stroke="#666666" points="1322.75,-77 1180,-77 1180,-57 1322.75,-57 1322.75,-77"/>
<text text-anchor="middle" x="1251.38" y="-63.5" font-family="Helvetica,sans-Serif" font-size="10.00">WinPosWnd::WndProcStatic</text>
</a>
</g>
</g>
<!-- Node27&#45;&gt;Node28 -->
<g id="edge28_Node000027_Node000028" class="edge">
<title>Node27&#45;&gt;Node28</title>
<g id="a_edge28_Node000027_Node000028"><a xlink:title=" ">
<path fill="none" stroke="#63b8ff" d="M1129.43,-79.25C1142.31,-77.94 1155.94,-76.56 1169.22,-75.22"/>
<polygon fill="#63b8ff" stroke="#63b8ff" points="1169.19,-78.64 1178.78,-74.15 1168.48,-71.67 1169.19,-78.64"/>
</a>
</g>
</g>
<!-- Node29 -->
<g id="Node000029" class="node">
<title>Node29</title>
<g id="a_Node000029"><a xlink:href="class_win_pos_wnd.html#a5ad8686caf3b8310fff6d4bec255f898" target="_top" xlink:title="get the instance of WinPosWnd to a window handle">
<polygon fill="white" stroke="#666666" points="1513.12,-39 1368.12,-39 1368.12,-19 1513.12,-19 1513.12,-39"/>
<text text-anchor="middle" x="1440.62" y="-25.5" font-family="Helvetica,sans-Serif" font-size="10.00">WinPosWnd::getWinPosWnd</text>
</a>
</g>
</g>
<!-- Node28&#45;&gt;Node29 -->
<g id="edge29_Node000028_Node000029" class="edge">
<title>Node28&#45;&gt;Node29</title>
<g id="a_edge29_Node000028_Node000029"><a xlink:title=" ">
<path fill="none" stroke="#63b8ff" d="M1304.04,-56.52C1326.76,-51.91 1353.63,-46.45 1377.43,-41.62"/>
<polygon fill="#63b8ff" stroke="#63b8ff" points="1378.03,-44.87 1387.13,-39.45 1376.63,-38.01 1378.03,-44.87"/>
</a>
</g>
</g>
<!-- Node31&#45;&gt;Node25 -->
<g id="edge33_Node000031_Node000025" class="edge">
<title>Node31&#45;&gt;Node25</title>
<g id="a_edge33_Node000031_Node000025"><a xlink:title=" ">
<path fill="none" stroke="#63b8ff" d="M1130.56,-244.84C1196.64,-251.5 1296.87,-261.61 1365.14,-268.49"/>
<polygon fill="#63b8ff" stroke="#63b8ff" points="1364.51,-272.04 1374.81,-269.57 1365.21,-265.08 1364.51,-272.04"/>
</a>
</g>
</g>
<!-- Node31&#45;&gt;Node31 -->
<g id="edge34_Node000031_Node000031" class="edge">
<title>Node31&#45;&gt;Node31</title>
<g id="a_edge34_Node000031_Node000031"><a xlink:title=" ">
<path fill="none" stroke="#63b8ff" d="M1031.8,-248.34C1019,-256.98 1028.98,-266 1061.75,-266 1081.21,-266 1092.63,-262.82 1096.02,-258.43"/>
<polygon fill="#63b8ff" stroke="#63b8ff" points="1098.85,-257.15 1091.7,-249.34 1092.42,-259.91 1098.85,-257.15"/>
</a>
</g>
</g>
<!-- Node32 -->
<g id="Node000032" class="node">
<title>Node32</title>
<g id="a_Node000032"><a xlink:href="class_win_pos_wnd_cfg.html#a93944e9bbc627a502d59f845b3b1e827" target="_top" xlink:title=" ">
<polygon fill="white" stroke="#666666" points="1516.5,-239 1364.75,-239 1364.75,-219 1516.5,-219 1516.5,-239"/>
<text text-anchor="middle" x="1440.62" y="-225.5" font-family="Helvetica,sans-Serif" font-size="10.00">WinPosWndCfg::getConfigPath</text>
</a>
</g>
</g>
<!-- Node31&#45;&gt;Node32 -->
<g id="edge32_Node000031_Node000032" class="edge">
<title>Node31&#45;&gt;Node32</title>
<g id="a_edge32_Node000031_Node000032"><a xlink:title=" ">
<path fill="none" stroke="#63b8ff" d="M1130.56,-236.38C1193.02,-234.89 1285.99,-232.67 1353.64,-231.05"/>
<polygon fill="#63b8ff" stroke="#63b8ff" points="1353.36,-234.54 1363.27,-230.8 1353.19,-227.54 1353.36,-234.54"/>
</a>
</g>
</g>
<!-- Node33 -->
<g id="Node000033" class="node">
<title>Node33</title>
<g id="a_Node000033"><a xlink:href="class_win_pos_wnd_cfg.html#a2e024dd316be8cf377996f7be3017acd" target="_top" xlink:title=" ">
<polygon fill="white" stroke="#666666" points="1320.5,-210 1182.25,-210 1182.25,-190 1320.5,-190 1320.5,-210"/>
<text text-anchor="middle" x="1251.38" y="-196.5" font-family="Helvetica,sans-Serif" font-size="10.00">WinPosWndCfg::writeConfig</text>
</a>
</g>
</g>
<!-- Node31&#45;&gt;Node33 -->
<g id="edge35_Node000031_Node000033" class="edge">
<title>Node31&#45;&gt;Node33</title>
<g id="a_edge35_Node000031_Node000033"><a xlink:title=" ">
<path fill="none" stroke="#63b8ff" d="M1114.52,-227.52C1137.28,-222.91 1164.21,-217.45 1188.06,-212.62"/>
<polygon fill="#63b8ff" stroke="#63b8ff" points="1188.67,-215.87 1197.78,-210.45 1187.28,-209 1188.67,-215.87"/>
</a>
</g>
</g>
<!-- Node33&#45;&gt;Node23 -->
<g id="edge36_Node000033_Node000023" class="edge">
<title>Node33&#45;&gt;Node23</title>
<g id="a_edge36_Node000033_Node000023"><a xlink:title=" ">
<path fill="none" stroke="#63b8ff" d="M1320.77,-189.77C1333.18,-187.92 1346.22,-185.97 1358.94,-184.06"/>
<polygon fill="#63b8ff" stroke="#63b8ff" points="1359.16,-187.42 1368.53,-182.48 1358.12,-180.5 1359.16,-187.42"/>
</a>
</g>
</g>
<!-- Node33&#45;&gt;Node25 -->
<g id="edge38_Node000033_Node000025" class="edge">
<title>Node33&#45;&gt;Node25</title>
<g id="a_edge38_Node000033_Node000025"><a xlink:title=" ">
<path fill="none" stroke="#63b8ff" d="M1273.73,-210.32C1295.03,-220.46 1328.82,-236.09 1358.75,-248 1371.15,-252.93 1384.81,-257.85 1397.32,-262.16"/>
<polygon fill="#63b8ff" stroke="#63b8ff" points="1395.9,-265.72 1406.5,-265.62 1398.16,-259.09 1395.9,-265.72"/>
</a>
</g>
</g>
<!-- Node33&#45;&gt;Node32 -->
<g id="edge37_Node000033_Node000032" class="edge">
<title>Node33&#45;&gt;Node32</title>
<g id="a_edge37_Node000033_Node000032"><a xlink:title=" ">
<path fill="none" stroke="#63b8ff" d="M1319.98,-210.47C1333.5,-212.56 1347.81,-214.78 1361.65,-216.92"/>
<polygon fill="#63b8ff" stroke="#63b8ff" points="1360.7,-220.47 1371.12,-218.55 1361.78,-213.56 1360.7,-220.47"/>
</a>
</g>
</g>
<!-- Node35&#45;&gt;Node22 -->
<g id="edge41_Node000035_Node000022" class="edge">
<title>Node35&#45;&gt;Node22</title>
<g id="a_edge41_Node000035_Node000022"><a xlink:title=" ">
<path fill="none" stroke="#63b8ff" d="M759.94,-48C827.85,-48 930.25,-48 996.31,-48"/>
<polygon fill="#63b8ff" stroke="#63b8ff" points="995.99,-51.5 1005.99,-48 995.99,-44.5 995.99,-51.5"/>
</a>
</g>
</g>
<!-- Node35&#45;&gt;Node29 -->
<g id="edge42_Node000035_Node000029" class="edge">
<title>Node35&#45;&gt;Node29</title>
<g id="a_edge42_Node000035_Node000029"><a xlink:title=" ">
<path fill="none" stroke="#63b8ff" d="M759.74,-42.15C818.29,-37.53 904.3,-31.47 979.5,-29 1111.46,-24.67 1264.82,-25.93 1356.95,-27.37"/>
<polygon fill="#63b8ff" stroke="#63b8ff" points="1356.82,-30.88 1366.87,-27.54 1356.93,-23.88 1356.82,-30.88"/>
</a>
</g>
</g>
<!-- Node35&#45;&gt;Node34 -->
<g id="edge43_Node000035_Node000034" class="edge">
<title>Node35&#45;&gt;Node34</title>
<g id="a_edge43_Node000035_Node000034"><a xlink:title=" ">
<path fill="none" stroke="#63b8ff" d="M716.33,-58.46C747.82,-71.09 800.95,-92.4 836.31,-106.58"/>
<polygon fill="#63b8ff" stroke="#63b8ff" points="834.64,-110.09 845.22,-110.56 837.24,-103.59 834.64,-110.09"/>
</a>
</g>
</g>
<!-- Node36&#45;&gt;Node5 -->
<g id="edge46_Node000036_Node000005" class="edge">
<title>Node36&#45;&gt;Node5</title>
<g id="a_edge46_Node000036_Node000005"><a xlink:title=" ">
<path fill="none" stroke="#63b8ff" d="M553.81,-201.57C572.47,-202.04 593.19,-202.57 612.66,-203.07"/>
<polygon fill="#63b8ff" stroke="#63b8ff" points="612.56,-206.59 622.64,-203.35 612.74,-199.6 612.56,-206.59"/>
</a>
</g>
</g>
<!-- Node36&#45;&gt;Node18 -->
<g id="edge47_Node000036_Node000018" class="edge">
<title>Node36&#45;&gt;Node18</title>
<g id="a_edge47_Node000036_Node000018"><a xlink:title=" ">
<path fill="none" stroke="#63b8ff" d="M544.87,-189.55C569.57,-184.63 599.22,-178.73 625.14,-173.57"/>
<polygon fill="#63b8ff" stroke="#63b8ff" points="625.49,-176.87 634.61,-171.48 624.12,-170 625.49,-176.87"/>
</a>
</g>
</g>
<!-- Node37&#45;&gt;Node6 -->
<g id="edge49_Node000037_Node000006" class="edge">
<title>Node37&#45;&gt;Node6</title>
<g id="a_edge49_Node000037_Node000006"><a xlink:title=" ">
<path fill="none" stroke="#63b8ff" d="M560.88,-441.69C578.97,-443.73 598.52,-445.92 616.76,-447.97"/>
<polygon fill="#63b8ff" stroke="#63b8ff" points="616.29,-451.55 626.62,-449.19 617.07,-444.6 616.29,-451.55"/>
</a>
</g>
</g>
</g>
</svg>
