<?xml version="1.0" encoding="UTF-8" standalone="no"?>
<!DOCTYPE svg PUBLIC "-//W3C//DTD SVG 1.1//EN"
 "http://www.w3.org/Graphics/SVG/1.1/DTD/svg11.dtd">
<!-- Generated by graphviz version 9.0.0 (20230911.1827)
 -->
<!-- Title: HooksCfg::readConfigDocument Pages: 1 -->
<!--zoomable 159 -->

<svg id="main" version="1.1" xmlns="http://www.w3.org/2000/svg" xmlns:xlink="http://www.w3.org/1999/xlink" xml:space="preserve" onload="init(evt)">
<style type="text/css"><![CDATA[
.node, .edge {opacity: 0.7;}
.node.selected, .edge.selected {opacity: 1;}
.edge:hover path { stroke: red; }
.edge:hover polygon { stroke: red; fill: red; }
]]></style>

<defs>
  <circle id="rim" cx="0" cy="0" r="7"/>
  <circle id="rim2" cx="0" cy="0" r="3.5"/>
  <g id="zoomPlus">
    <use xlink:href="#rim" fill="#404040"><set attributeName="fill" to="#808080" begin="zoomplus.mouseover" end="zoomplus.mouseout"/></use>
    <path d="M-4,0h8M0,-4v8" fill="none" stroke="white" stroke-width="1.5" pointer-events="none"/>
  </g>
  <g id="zoomMin">
    <use xlink:href="#rim" fill="#404040"><set attributeName="fill" to="#808080" begin="zoomminus.mouseover" end="zoomminus.mouseout"/></use>
    <path d="M-4,0h8" fill="none" stroke="white" stroke-width="1.5" pointer-events="none"/>
  </g>
  <g id="arrowUp" transform="translate(30 24)">
    <use xlink:href="#rim"/>
    <path pointer-events="none" fill="none" stroke="white" stroke-width="1.5" d="M0,-3.0v7 M-2.5,-0.5L0,-3.0L2.5,-0.5"/>
  </g>
  <g id="arrowRight" transform="rotate(90) translate(36 -43)">
    <use xlink:href="#rim"/>
    <path pointer-events="none" fill="none" stroke="white" stroke-width="1.5" d="M0,-3.0v7 M-2.5,-0.5L0,-3.0L2.5,-0.5"/>
  </g>
  <g id="arrowDown" transform="rotate(180) translate(-30 -48)">
    <use xlink:href="#rim"/>
    <path pointer-events="none" fill="none" stroke="white" stroke-width="1.5" d="M0,-3.0v7 M-2.5,-0.5L0,-3.0L2.5,-0.5"/>
  </g>
  <g id="arrowLeft" transform="rotate(270) translate(-36 17)">
    <use xlink:href="#rim"/>
    <path pointer-events="none" fill="none" stroke="white" stroke-width="1.5" d="M0,-3.0v7 M-2.5,-0.5L0,-3.0L2.5,-0.5"/>
  </g>
  <g id="resetDef">
    <use xlink:href="#rim2" fill="#404040"><set attributeName="fill" to="#808080" begin="reset.mouseover" end="reset.mouseout"/></use>
  </g>
</defs>
<script type="application/ecmascript">
var viewWidth = 1083;
var viewHeight = 159;
var sectionId = 'dynsection-19';
</script>
<script type="application/ecmascript" xlink:href="svg.min.js"/>
<svg id="graph" class="graph">
<g id="viewport">
<title>HooksCfg::readConfigDocument</title>
<!-- Node1 -->
<g id="Node000001" class="node">
<title>Node1</title>
<g id="a_Node000001"><a xlink:title="read a JSON config from given path">
<polygon fill="#999999" stroke="#666666" points="1075.25,-117.62 921.25,-117.62 921.25,-97.62 1075.25,-97.62 1075.25,-117.62"/>
<text text-anchor="middle" x="998.25" y="-104.12" font-family="Helvetica,sans-Serif" font-size="10.00">HooksCfg::readConfigDocument</text>
</a>
</g>
</g>
<!-- Node2 -->
<g id="Node000002" class="node">
<title>Node2</title>
<g id="a_Node000002"><a xlink:href="class_hooks_cfg.html#afcb787461ef5ba011f6307c321223af6" target="_top" xlink:title="read the config for this app">
<polygon fill="white" stroke="#666666" points="739.5,-150.62 612.5,-150.62 612.5,-130.62 739.5,-130.62 739.5,-150.62"/>
<text text-anchor="middle" x="676" y="-137.12" font-family="Helvetica,sans-Serif" font-size="10.00">HooksCfg::readAppConfig</text>
</a>
</g>
</g>
<!-- Node1&#45;&gt;Node2 -->
<g id="edge1_Node000001_Node000002" class="edge">
<title>Node1&#45;&gt;Node2</title>
<g id="a_edge1_Node000001_Node000002"><a xlink:title=" ">
<path fill="none" stroke="#63b8ff" d="M909.69,-116.65C855.91,-122.19 788.28,-129.16 739.81,-134.15"/>
<polygon fill="#63b8ff" stroke="#63b8ff" points="909.85,-120.15 919.44,-115.64 909.14,-113.18 909.85,-120.15"/>
</a>
</g>
</g>
<!-- Node4 -->
<g id="Node000004" class="node">
<title>Node4</title>
<g id="a_Node000004"><a xlink:href="class_hooks_cfg.html#a9642afc6c6fe88141770403a09cdfc4b" target="_top" xlink:title="read the global config for all apps">
<polygon fill="white" stroke="#666666" points="885.25,-98.62 775.5,-98.62 775.5,-78.62 885.25,-78.62 885.25,-98.62"/>
<text text-anchor="middle" x="830.38" y="-85.12" font-family="Helvetica,sans-Serif" font-size="10.00">HooksCfg::readConfig</text>
</a>
</g>
</g>
<!-- Node1&#45;&gt;Node4 -->
<g id="edge3_Node000001_Node000004" class="edge">
<title>Node1&#45;&gt;Node4</title>
<g id="a_edge3_Node000001_Node000004"><a xlink:title=" ">
<path fill="none" stroke="#63b8ff" d="M909.75,-97.6C901.42,-96.65 893.15,-95.7 885.28,-94.8"/>
<polygon fill="#63b8ff" stroke="#63b8ff" points="909.27,-101.07 919.61,-98.73 910.07,-94.11 909.27,-101.07"/>
</a>
</g>
</g>
<!-- Node3 -->
<g id="Node000003" class="node">
<title>Node3</title>
<g id="a_Node000003"><a xlink:href="wi_npo_s-_app_8cpp.html#a8c6630df6bab43efe8254a603885b62e" target="_top" xlink:title=" ">
<polygon fill="white" stroke="#666666" points="61,-98.62 0,-98.62 0,-78.62 61,-78.62 61,-98.62"/>
<text text-anchor="middle" x="30.5" y="-85.12" font-family="Helvetica,sans-Serif" font-size="10.00">wWinMain</text>
</a>
</g>
</g>
<!-- Node2&#45;&gt;Node3 -->
<g id="edge2_Node000002_Node000003" class="edge">
<title>Node2&#45;&gt;Node3</title>
<g id="a_edge2_Node000002_Node000003"><a xlink:title=" ">
<path fill="none" stroke="#63b8ff" d="M600.77,-142.75C547.03,-144.11 472.65,-145.62 407.25,-145.62 407.25,-145.62 407.25,-145.62 268.88,-145.62 190.04,-145.62 100.46,-115.53 57.36,-99.08"/>
<polygon fill="#63b8ff" stroke="#63b8ff" points="600.83,-146.25 610.74,-142.5 600.65,-139.26 600.83,-146.25"/>
</a>
</g>
</g>
<!-- Node5 -->
<g id="Node000005" class="node">
<title>Node5</title>
<g id="a_Node000005"><a xlink:href="class_hooks_cfg.html#ab994ae67a05ce4decf5b7af5314eb913" target="_top" xlink:title="check if someone has disabled stored in config">
<polygon fill="white" stroke="#666666" points="730.5,-79.62 621.5,-79.62 621.5,-59.62 730.5,-59.62 730.5,-79.62"/>
<text text-anchor="middle" x="676" y="-66.12" font-family="Helvetica,sans-Serif" font-size="10.00">HooksCfg::isDisabled</text>
</a>
</g>
</g>
<!-- Node4&#45;&gt;Node5 -->
<g id="edge4_Node000004_Node000005" class="edge">
<title>Node4&#45;&gt;Node5</title>
<g id="a_edge4_Node000004_Node000005"><a xlink:title=" ">
<path fill="none" stroke="#63b8ff" d="M763.92,-80.46C752.93,-79.09 741.64,-77.68 730.98,-76.35"/>
<polygon fill="#63b8ff" stroke="#63b8ff" points="763.37,-83.92 773.72,-81.68 764.23,-76.97 763.37,-83.92"/>
</a>
</g>
</g>
<!-- Node6 -->
<g id="Node000006" class="node">
<title>Node6</title>
<g id="a_Node000006"><a xlink:href="_hooks_impl_8cpp.html#adae4ff67fba416ac992fe973d90abc58" target="_top" xlink:title="the exported hook for the main window procedure">
<polygon fill="white" stroke="#666666" points="572.75,-79.62 499.75,-79.62 499.75,-59.62 572.75,-59.62 572.75,-79.62"/>
<text text-anchor="middle" x="536.25" y="-66.12" font-family="Helvetica,sans-Serif" font-size="10.00">CallWndProc</text>
</a>
</g>
</g>
<!-- Node5&#45;&gt;Node6 -->
<g id="edge5_Node000005_Node000006" class="edge">
<title>Node5&#45;&gt;Node6</title>
<g id="a_edge5_Node000005_Node000006"><a xlink:title=" ">
<path fill="none" stroke="#63b8ff" d="M609.84,-69.62C597.2,-69.62 584.39,-69.62 573.12,-69.62"/>
<polygon fill="#63b8ff" stroke="#63b8ff" points="609.83,-73.12 619.83,-69.62 609.83,-66.12 609.83,-73.12"/>
</a>
</g>
</g>
<!-- Node8 -->
<g id="Node000008" class="node">
<title>Node8</title>
<g id="a_Node000008"><a xlink:href="wi_npo_s-_app_8cpp.html#a30a1e3b0304f1b083637664cbda94e72" target="_top" xlink:title="the main window procedure of this app">
<polygon fill="white" stroke="#666666" points="298.12,-41.62 241.62,-41.62 241.62,-21.62 298.12,-21.62 298.12,-41.62"/>
<text text-anchor="middle" x="269.88" y="-28.12" font-family="Helvetica,sans-Serif" font-size="10.00">WndProc</text>
</a>
</g>
</g>
<!-- Node5&#45;&gt;Node8 -->
<g id="edge17_Node000005_Node000008" class="edge">
<title>Node5&#45;&gt;Node8</title>
<g id="a_edge17_Node000005_Node000008"><a xlink:title=" ">
<path fill="none" stroke="#63b8ff" d="M653.32,-52.55C634.3,-38.73 605.26,-20.35 576.5,-12.62 476.89,14.12 352.74,-10.58 298.44,-24.11"/>
<polygon fill="#63b8ff" stroke="#63b8ff" points="650.99,-55.18 661.09,-58.37 655.18,-49.57 650.99,-55.18"/>
</a>
</g>
</g>
<!-- Node12 -->
<g id="Node000012" class="node">
<title>Node12</title>
<g id="a_Node000012"><a xlink:href="_hooks_impl_8cpp.html#ab9f4b48939788d5aa0f404323b16a957" target="_top" xlink:title="the exported hook for the windows&#45;message procedure">
<polygon fill="white" stroke="#666666" points="571.62,-41.62 500.88,-41.62 500.88,-21.62 571.62,-21.62 571.62,-41.62"/>
<text text-anchor="middle" x="536.25" y="-28.12" font-family="Helvetica,sans-Serif" font-size="10.00">GetMsgProc</text>
</a>
</g>
</g>
<!-- Node5&#45;&gt;Node12 -->
<g id="edge12_Node000005_Node000012" class="edge">
<title>Node5&#45;&gt;Node12</title>
<g id="a_edge12_Node000005_Node000012"><a xlink:title=" ">
<path fill="none" stroke="#63b8ff" d="M626.13,-56.14C608.19,-51.19 588.26,-45.7 571.83,-41.16"/>
<polygon fill="#63b8ff" stroke="#63b8ff" points="624.96,-59.45 635.54,-58.74 626.83,-52.7 624.96,-59.45"/>
</a>
</g>
</g>
<!-- Node13 -->
<g id="Node000013" class="node">
<title>Node13</title>
<g id="a_Node000013"><a xlink:href="_hooks_impl_8cpp.html#a2d95eeaf5ead86287ab88b2065c28d1a" target="_top" xlink:title="the exported hook for the shell procedure">
<polygon fill="white" stroke="#666666" points="576.5,-117.62 496,-117.62 496,-97.62 576.5,-97.62 576.5,-117.62"/>
<text text-anchor="middle" x="536.25" y="-104.12" font-family="Helvetica,sans-Serif" font-size="10.00">ShellHookProc</text>
</a>
</g>
</g>
<!-- Node5&#45;&gt;Node13 -->
<g id="edge15_Node000005_Node000013" class="edge">
<title>Node5&#45;&gt;Node13</title>
<g id="a_edge15_Node000005_Node000013"><a xlink:title=" ">
<path fill="none" stroke="#63b8ff" d="M626.26,-83.07C609.47,-87.7 590.93,-92.82 575.13,-97.17"/>
<polygon fill="#63b8ff" stroke="#63b8ff" points="626.83,-86.54 635.54,-80.51 624.96,-79.8 626.83,-86.54"/>
</a>
</g>
</g>
<!-- Node7 -->
<g id="Node000007" class="node">
<title>Node7</title>
<g id="a_Node000007"><a xlink:href="class_hooks_mgr.html#a7cfb009127366d7236f5c05c2e4f9ab3" target="_top" xlink:title=" ">
<polygon fill="white" stroke="#666666" points="452.12,-41.62 360.38,-41.62 360.38,-21.62 452.12,-21.62 452.12,-41.62"/>
<text text-anchor="middle" x="406.25" y="-28.12" font-family="Helvetica,sans-Serif" font-size="10.00">HooksMgr::install</text>
</a>
</g>
</g>
<!-- Node6&#45;&gt;Node7 -->
<g id="edge6_Node000006_Node000007" class="edge">
<title>Node6&#45;&gt;Node7</title>
<g id="a_edge6_Node000006_Node000007"><a xlink:title=" ">
<path fill="none" stroke="#63b8ff" d="M489.07,-55.91C473.7,-51.35 456.85,-46.35 442.45,-42.07"/>
<polygon fill="#63b8ff" stroke="#63b8ff" points="487.9,-59.22 498.48,-58.71 489.89,-52.51 487.9,-59.22"/>
</a>
</g>
</g>
<!-- Node10 -->
<g id="Node000010" class="node">
<title>Node10</title>
<g id="a_Node000010"><a xlink:href="class_hooks_mgr.html#a25aacc981b80470642a51175ee56ba01" target="_top" xlink:title=" ">
<polygon fill="white" stroke="#666666" points="460,-79.62 352.5,-79.62 352.5,-59.62 460,-59.62 460,-79.62"/>
<text text-anchor="middle" x="406.25" y="-66.12" font-family="Helvetica,sans-Serif" font-size="10.00">HooksMgr::setHooks</text>
</a>
</g>
</g>
<!-- Node6&#45;&gt;Node10 -->
<g id="edge10_Node000006_Node000010" class="edge">
<title>Node6&#45;&gt;Node10</title>
<g id="a_edge10_Node000006_Node000010"><a xlink:title=" ">
<path fill="none" stroke="#63b8ff" d="M487.77,-69.62C478.78,-69.62 469.32,-69.62 460.18,-69.62"/>
<polygon fill="#63b8ff" stroke="#63b8ff" points="487.74,-73.12 497.74,-69.62 487.74,-66.12 487.74,-73.12"/>
</a>
</g>
</g>
<!-- Node7&#45;&gt;Node8 -->
<g id="edge7_Node000007_Node000008" class="edge">
<title>Node7&#45;&gt;Node8</title>
<g id="a_edge7_Node000007_Node000008"><a xlink:title=" ">
<path fill="none" stroke="#63b8ff" d="M348.87,-31.62C331.44,-31.62 313.01,-31.62 298.45,-31.62"/>
<polygon fill="#63b8ff" stroke="#63b8ff" points="348.62,-35.12 358.62,-31.62 348.62,-28.12 348.62,-35.12"/>
</a>
</g>
</g>
<!-- Node9 -->
<g id="Node000009" class="node">
<title>Node9</title>
<g id="a_Node000009"><a xlink:href="wi_npo_s-_app_8cpp.html#aa0d0c9beb94350f8eac8fc4026a65375" target="_top" xlink:title=" ">
<polygon fill="white" stroke="#666666" points="187.25,-79.62 97,-79.62 97,-59.62 187.25,-59.62 187.25,-79.62"/>
<text text-anchor="middle" x="142.12" y="-66.12" font-family="Helvetica,sans-Serif" font-size="10.00">MyRegisterClass</text>
</a>
</g>
</g>
<!-- Node8&#45;&gt;Node9 -->
<g id="edge8_Node000008_Node000009" class="edge">
<title>Node8&#45;&gt;Node9</title>
<g id="a_edge8_Node000008_Node000009"><a xlink:title=" ">
<path fill="none" stroke="#63b8ff" d="M230.69,-43.16C213.88,-48.24 194.26,-54.17 177.85,-59.13"/>
<polygon fill="#63b8ff" stroke="#63b8ff" points="231.27,-46.64 239.83,-40.4 229.24,-39.94 231.27,-46.64"/>
</a>
</g>
</g>
<!-- Node9&#45;&gt;Node3 -->
<g id="edge9_Node000009_Node000003" class="edge">
<title>Node9&#45;&gt;Node3</title>
<g id="a_edge9_Node000009_Node000003"><a xlink:title=" ">
<path fill="none" stroke="#63b8ff" d="M85.3,-79.3C77.02,-80.73 68.77,-82.16 61.31,-83.46"/>
<polygon fill="#63b8ff" stroke="#63b8ff" points="85.79,-82.77 95.05,-77.61 84.59,-75.87 85.79,-82.77"/>
</a>
</g>
</g>
<!-- Node11 -->
<g id="Node000011" class="node">
<title>Node11</title>
<g id="a_Node000011"><a xlink:href="class_hooks_mgr.html#a5f8aa4cd119cb5d489b0a6f1a2971a79" target="_top" xlink:title=" ">
<polygon fill="white" stroke="#666666" points="316.5,-79.62 223.25,-79.62 223.25,-59.62 316.5,-59.62 316.5,-79.62"/>
<text text-anchor="middle" x="269.88" y="-66.12" font-family="Helvetica,sans-Serif" font-size="10.00">HooksMgr::attach</text>
</a>
</g>
</g>
<!-- Node10&#45;&gt;Node11 -->
<g id="edge11_Node000010_Node000011" class="edge">
<title>Node10&#45;&gt;Node11</title>
<g id="a_edge11_Node000010_Node000011"><a xlink:title=" ">
<path fill="none" stroke="#63b8ff" d="M340.73,-69.62C332.59,-69.62 324.41,-69.62 316.65,-69.62"/>
<polygon fill="#63b8ff" stroke="#63b8ff" points="340.63,-73.12 350.63,-69.62 340.63,-66.12 340.63,-73.12"/>
</a>
</g>
</g>
<!-- Node12&#45;&gt;Node7 -->
<g id="edge13_Node000012_Node000007" class="edge">
<title>Node12&#45;&gt;Node7</title>
<g id="a_edge13_Node000012_Node000007"><a xlink:title=" ">
<path fill="none" stroke="#63b8ff" d="M489.44,-31.62C477.43,-31.62 464.49,-31.62 452.51,-31.62"/>
<polygon fill="#63b8ff" stroke="#63b8ff" points="489.1,-35.12 499.1,-31.62 489.1,-28.12 489.1,-35.12"/>
</a>
</g>
</g>
<!-- Node12&#45;&gt;Node10 -->
<g id="edge14_Node000012_Node000010" class="edge">
<title>Node12&#45;&gt;Node10</title>
<g id="a_edge14_Node000012_Node000010"><a xlink:title=" ">
<path fill="none" stroke="#63b8ff" d="M489.63,-45.17C474.08,-49.78 456.95,-54.87 442.36,-59.2"/>
<polygon fill="#63b8ff" stroke="#63b8ff" points="490.57,-48.54 499.16,-42.34 488.58,-41.83 490.57,-48.54"/>
</a>
</g>
</g>
<!-- Node14 -->
<g id="Node000014" class="node">
<title>Node14</title>
<g id="a_Node000014"><a xlink:href="wi_npo_s-_hook_2dllmain_8cpp.html#a26e64fb39b69bcd9d1274d279f1561b9" target="_top" xlink:title=" ">
<polygon fill="white" stroke="#666666" points="430.38,-117.62 382.12,-117.62 382.12,-97.62 430.38,-97.62 430.38,-117.62"/>
<text text-anchor="middle" x="406.25" y="-104.12" font-family="Helvetica,sans-Serif" font-size="10.00">DllMain</text>
</a>
</g>
</g>
<!-- Node13&#45;&gt;Node14 -->
<g id="edge16_Node000013_Node000014" class="edge">
<title>Node13&#45;&gt;Node14</title>
<g id="a_edge16_Node000013_Node000014"><a xlink:title=" ">
<path fill="none" stroke="#63b8ff" d="M484.5,-107.62C465.92,-107.62 445.8,-107.62 430.74,-107.62"/>
<polygon fill="#63b8ff" stroke="#63b8ff" points="484.29,-111.12 494.29,-107.62 484.29,-104.12 484.29,-111.12"/>
</a>
</g>
</g>
</g>
</svg>

<g id="navigator" transform="translate(0 0)" fill="#404254">
  <rect fill="#f2f5e9" fill-opacity="0.5" stroke="#606060" stroke-width=".5" x="0" y="0" width="60" height="60"/>
  <use id="zoomplus" xlink:href="#zoomPlus" x="17" y="9" onmousedown="handleZoom(evt,'in')"/>
  <use id="zoomminus" xlink:href="#zoomMin" x="42" y="9" onmousedown="handleZoom(evt,'out')"/>
  <use id="reset" xlink:href="#resetDef" x="30" y="36" onmousedown="handleReset()"/>
   <use id="arrowup" xlink:href="#arrowUp" x="0" y="0" onmousedown="handlePan(0,-1)"/>
  <use id="arrowright" xlink:href="#arrowRight" x="0" y="0" onmousedown="handlePan(1,0)"/>
  <use id="arrowdown" xlink:href="#arrowDown" x="0" y="0" onmousedown="handlePan(0,1)"/>
  <use id="arrowleft" xlink:href="#arrowLeft" x="0" y="0" onmousedown="handlePan(-1,0)"/>
</g>
<svg viewBox="0 0 15 15" width="100%" height="30px" preserveAspectRatio="xMaxYMin meet">
 <g id="arrow_out" transform="scale(0.3 0.3)">
  <a xlink:href="class_hooks_cfg_ab8fd861156e6b389e43bbda021f42c50_icgraph_org.svg" target="_base">
   <rect id="button" ry="5" rx="5" y="6" x="6" height="38" width="38"
        fill="#f2f5e9" fill-opacity="0.5" stroke="#606060" stroke-width="1.0"/>
   <path id="arrow"
     d="M 11.500037,31.436501 C 11.940474,20.09759 22.043105,11.32322 32.158766,21.979434 L 37.068811,17.246167 C 37.068811,17.246167 37.088388,32 37.088388,32 L 22.160133,31.978069 C 22.160133,31.978069 26.997745,27.140456 26.997745,27.140456 C 18.528582,18.264221 13.291696,25.230495 11.500037,31.436501 z"
     style="fill:#404040;"/>
  </a>
 </g>
</svg>

<style type='text/css'>
<![CDATA[
[data-mouse-over-selected='false'] { opacity: 0.7; }
[data-mouse-over-selected='true']  { opacity: 1.0; }
]]>
</style>
<script type="application/ecmascript"><![CDATA[
document.addEventListener('DOMContentLoaded', (event) => {
  highlightEdges();
  highlightAdjacentNodes();
});
]]></script>
</svg>
