<?xml version="1.0" encoding="UTF-8" standalone="no"?>
<!DOCTYPE svg PUBLIC "-//W3C//DTD SVG 1.1//EN"
 "http://www.w3.org/Graphics/SVG/1.1/DTD/svg11.dtd">
<!-- Generated by graphviz version 8.1.0 (20230707.0739)
 -->
<!-- Title: WinPosWnd::destroy Pages: 1 -->
<svg width="1375pt" height="123pt"
 viewBox="0.00 0.00 1374.75 123.00" xmlns="http://www.w3.org/2000/svg" xmlns:xlink="http://www.w3.org/1999/xlink">
<g id="graph0" class="graph" transform="scale(1 1) rotate(0) translate(4 119)">
<title>WinPosWnd::destroy</title>
<!-- Node1 -->
<g id="Node000001" class="node">
<title>Node1</title>
<g id="a_Node000001"><a xlink:title="destroys every windows">
<polygon fill="#999999" stroke="#666666" points="1366.75,-58 1257.75,-58 1257.75,-38 1366.75,-38 1366.75,-58"/>
<text text-anchor="middle" x="1312.25" y="-44.5" font-family="Helvetica,sans-Serif" font-size="10.00">WinPosWnd::destroy</text>
</a>
</g>
</g>
<!-- Node2 -->
<g id="Node000002" class="node">
<title>Node2</title>
<g id="a_Node000002"><a xlink:href="class_win_pos_wnd.html#abec2e67db5543a717d59b02ab8dbb930" target="_top" xlink:title="create the required windows for monitor preview and all configured positions">
<polygon fill="white" stroke="#666666" points="1215,-96 1111.25,-96 1111.25,-76 1215,-76 1215,-96"/>
<text text-anchor="middle" x="1163.12" y="-82.5" font-family="Helvetica,sans-Serif" font-size="10.00">WinPosWnd::create</text>
</a>
</g>
</g>
<!-- Node1&#45;&gt;Node2 -->
<g id="edge1_Node000001_Node000002" class="edge">
<title>Node1&#45;&gt;Node2</title>
<g id="a_edge1_Node000001_Node000002"><a xlink:title=" ">
<path fill="none" stroke="#63b8ff" d="M1260.21,-61.18C1242.01,-65.88 1221.78,-71.11 1204.58,-75.55"/>
<polygon fill="#63b8ff" stroke="#63b8ff" points="1260.85,-64.37 1269.66,-58.48 1259.1,-57.6 1260.85,-64.37"/>
</a>
</g>
</g>
<!-- Node13 -->
<g id="Node000013" class="node">
<title>Node13</title>
<g id="a_Node000013"><a xlink:href="class_hooks_impl.html#a924c5db32f07636c8acbc9421c216112" target="_top" xlink:title=" ">
<polygon fill="white" stroke="#666666" points="1068.5,-58 928,-58 928,-38 1068.5,-38 1068.5,-58"/>
<text text-anchor="middle" x="998.25" y="-44.5" font-family="Helvetica,sans-Serif" font-size="10.00">HooksImpl::onClosePosWnd</text>
</a>
</g>
</g>
<!-- Node1&#45;&gt;Node13 -->
<g id="edge13_Node000001_Node000013" class="edge">
<title>Node1&#45;&gt;Node13</title>
<g id="a_edge13_Node000001_Node000013"><a xlink:title=" ">
<path fill="none" stroke="#63b8ff" d="M1246.53,-48C1194.69,-48 1122.1,-48 1068.98,-48"/>
<polygon fill="#63b8ff" stroke="#63b8ff" points="1246.26,-51.5 1256.26,-48 1246.26,-44.5 1246.26,-51.5"/>
</a>
</g>
</g>
<!-- Node14 -->
<g id="Node000014" class="node">
<title>Node14</title>
<g id="a_Node000014"><a xlink:href="class_win_pos_wnd.html#a0d04adea97275251d99b3ea1be00a6bc" target="_top" xlink:title="the main WNDPROC for the WinPosWnd instances">
<polygon fill="white" stroke="#666666" points="1221.75,-20 1104.5,-20 1104.5,0 1221.75,0 1221.75,-20"/>
<text text-anchor="middle" x="1163.12" y="-6.5" font-family="Helvetica,sans-Serif" font-size="10.00">WinPosWnd::WndProc</text>
</a>
</g>
</g>
<!-- Node1&#45;&gt;Node14 -->
<g id="edge15_Node000001_Node000014" class="edge">
<title>Node1&#45;&gt;Node14</title>
<g id="a_edge15_Node000001_Node000014"><a xlink:title=" ">
<path fill="none" stroke="#63b8ff" d="M1260.21,-34.82C1242.01,-30.12 1221.78,-24.89 1204.58,-20.45"/>
<polygon fill="#63b8ff" stroke="#63b8ff" points="1259.1,-38.4 1269.66,-37.52 1260.85,-31.63 1259.1,-38.4"/>
</a>
</g>
</g>
<!-- Node3 -->
<g id="Node000003" class="node">
<title>Node3</title>
<g id="a_Node000003"><a xlink:href="class_hooks_impl.html#ab6696c1ccc12ebdd892883485456ed3c" target="_top" xlink:title=" ">
<polygon fill="white" stroke="#666666" points="1068.12,-96 928.38,-96 928.38,-76 1068.12,-76 1068.12,-96"/>
<text text-anchor="middle" x="998.25" y="-82.5" font-family="Helvetica,sans-Serif" font-size="10.00">HooksImpl::onShowPosWnd</text>
</a>
</g>
</g>
<!-- Node2&#45;&gt;Node3 -->
<g id="edge2_Node000002_Node000003" class="edge">
<title>Node2&#45;&gt;Node3</title>
<g id="a_edge2_Node000002_Node000003"><a xlink:title=" ">
<path fill="none" stroke="#63b8ff" d="M1100.35,-86C1089.9,-86 1078.99,-86 1068.37,-86"/>
<polygon fill="#63b8ff" stroke="#63b8ff" points="1100.04,-89.5 1110.04,-86 1100.04,-82.5 1100.04,-89.5"/>
</a>
</g>
</g>
<!-- Node4 -->
<g id="Node000004" class="node">
<title>Node4</title>
<g id="a_Node000004"><a xlink:href="class_hooks_impl.html#a07053e18c49265e300fe89b2a5bc28de" target="_top" xlink:title="here the Windows messages are picked up, which do not appear in the main message loop">
<polygon fill="white" stroke="#666666" points="723,-96 602.75,-96 602.75,-76 723,-76 723,-96"/>
<text text-anchor="middle" x="662.88" y="-82.5" font-family="Helvetica,sans-Serif" font-size="10.00">HooksImpl::getMsgProc</text>
</a>
</g>
</g>
<!-- Node3&#45;&gt;Node4 -->
<g id="edge3_Node000003_Node000004" class="edge">
<title>Node3&#45;&gt;Node4</title>
<g id="a_edge3_Node000003_Node000004"><a xlink:title=" ">
<path fill="none" stroke="#63b8ff" d="M938.76,-98.47C923.6,-101.18 907.25,-103.63 892,-105 833.12,-110.27 817.82,-110.82 759,-105 741.74,-103.29 722.97,-99.88 706.7,-96.42"/>
<polygon fill="#63b8ff" stroke="#63b8ff" points="939.36,-101.73 948.55,-96.47 938.08,-94.85 939.36,-101.73"/>
</a>
</g>
</g>
<!-- Node12 -->
<g id="Node000012" class="node">
<title>Node12</title>
<g id="a_Node000012"><a xlink:href="class_hooks_impl.html#ae0d26e76e300b5392e64fb070aafe8d5" target="_top" xlink:title="do the work, if necessary">
<polygon fill="white" stroke="#666666" points="892,-96 759,-96 759,-76 892,-76 892,-96"/>
<text text-anchor="middle" x="825.5" y="-82.5" font-family="Helvetica,sans-Serif" font-size="10.00">HooksImpl::onCaptionClick</text>
</a>
</g>
</g>
<!-- Node3&#45;&gt;Node12 -->
<g id="edge11_Node000003_Node000012" class="edge">
<title>Node3&#45;&gt;Node12</title>
<g id="a_edge11_Node000003_Node000012"><a xlink:title=" ">
<path fill="none" stroke="#63b8ff" d="M917.37,-86C909.01,-86 900.57,-86 892.39,-86"/>
<polygon fill="#63b8ff" stroke="#63b8ff" points="917.29,-89.5 927.29,-86 917.29,-82.5 917.29,-89.5"/>
</a>
</g>
</g>
<!-- Node5 -->
<g id="Node000005" class="node">
<title>Node5</title>
<g id="a_Node000005"><a xlink:href="_hooks_impl_8cpp.html#ab9f4b48939788d5aa0f404323b16a957" target="_top" xlink:title="the exported hook for the windows&#45;message procedure">
<polygon fill="white" stroke="#666666" points="566.75,-96 496,-96 496,-76 566.75,-76 566.75,-96"/>
<text text-anchor="middle" x="531.38" y="-82.5" font-family="Helvetica,sans-Serif" font-size="10.00">GetMsgProc</text>
</a>
</g>
</g>
<!-- Node4&#45;&gt;Node5 -->
<g id="edge4_Node000004_Node000005" class="edge">
<title>Node4&#45;&gt;Node5</title>
<g id="a_edge4_Node000004_Node000005"><a xlink:title=" ">
<path fill="none" stroke="#63b8ff" d="M591.63,-86C583.13,-86 574.75,-86 567.09,-86"/>
<polygon fill="#63b8ff" stroke="#63b8ff" points="591.43,-89.5 601.43,-86 591.43,-82.5 591.43,-89.5"/>
</a>
</g>
</g>
<!-- Node6 -->
<g id="Node000006" class="node">
<title>Node6</title>
<g id="a_Node000006"><a xlink:href="class_hooks_mgr.html#a7cfb009127366d7236f5c05c2e4f9ab3" target="_top" xlink:title=" ">
<polygon fill="white" stroke="#666666" points="452.12,-115 360.38,-115 360.38,-95 452.12,-95 452.12,-115"/>
<text text-anchor="middle" x="406.25" y="-101.5" font-family="Helvetica,sans-Serif" font-size="10.00">HooksMgr::install</text>
</a>
</g>
</g>
<!-- Node5&#45;&gt;Node6 -->
<g id="edge5_Node000005_Node000006" class="edge">
<title>Node5&#45;&gt;Node6</title>
<g id="a_edge5_Node000005_Node000006"><a xlink:title=" ">
<path fill="none" stroke="#63b8ff" d="M484.93,-93.01C474.24,-94.66 462.86,-96.42 452.2,-98.06"/>
<polygon fill="#63b8ff" stroke="#63b8ff" points="485.4,-96.33 494.75,-91.34 484.33,-89.41 485.4,-96.33"/>
</a>
</g>
</g>
<!-- Node10 -->
<g id="Node000010" class="node">
<title>Node10</title>
<g id="a_Node000010"><a xlink:href="class_hooks_mgr.html#a25aacc981b80470642a51175ee56ba01" target="_top" xlink:title=" ">
<polygon fill="white" stroke="#666666" points="460,-77 352.5,-77 352.5,-57 460,-57 460,-77"/>
<text text-anchor="middle" x="406.25" y="-63.5" font-family="Helvetica,sans-Serif" font-size="10.00">HooksMgr::setHooks</text>
</a>
</g>
</g>
<!-- Node5&#45;&gt;Node10 -->
<g id="edge9_Node000005_Node000010" class="edge">
<title>Node5&#45;&gt;Node10</title>
<g id="a_edge9_Node000005_Node000010"><a xlink:title=" ">
<path fill="none" stroke="#63b8ff" d="M485.12,-79.02C477.11,-77.78 468.69,-76.48 460.48,-75.21"/>
<polygon fill="#63b8ff" stroke="#63b8ff" points="484.33,-82.59 494.75,-80.66 485.4,-75.67 484.33,-82.59"/>
</a>
</g>
</g>
<!-- Node7 -->
<g id="Node000007" class="node">
<title>Node7</title>
<g id="a_Node000007"><a xlink:href="wi_npo_s-_app_8cpp.html#a30a1e3b0304f1b083637664cbda94e72" target="_top" xlink:title="the main window procedure of this app">
<polygon fill="white" stroke="#666666" points="298.12,-115 241.62,-115 241.62,-95 298.12,-95 298.12,-115"/>
<text text-anchor="middle" x="269.88" y="-101.5" font-family="Helvetica,sans-Serif" font-size="10.00">WndProc</text>
</a>
</g>
</g>
<!-- Node6&#45;&gt;Node7 -->
<g id="edge6_Node000006_Node000007" class="edge">
<title>Node6&#45;&gt;Node7</title>
<g id="a_edge6_Node000006_Node000007"><a xlink:title=" ">
<path fill="none" stroke="#63b8ff" d="M349.37,-105C331.79,-105 313.15,-105 298.45,-105"/>
<polygon fill="#63b8ff" stroke="#63b8ff" points="349.13,-108.5 359.13,-105 349.13,-101.5 349.13,-108.5"/>
</a>
</g>
</g>
<!-- Node8 -->
<g id="Node000008" class="node">
<title>Node8</title>
<g id="a_Node000008"><a xlink:href="wi_npo_s-_app_8cpp.html#aa0d0c9beb94350f8eac8fc4026a65375" target="_top" xlink:title=" ">
<polygon fill="white" stroke="#666666" points="187.25,-115 97,-115 97,-95 187.25,-95 187.25,-115"/>
<text text-anchor="middle" x="142.12" y="-101.5" font-family="Helvetica,sans-Serif" font-size="10.00">MyRegisterClass</text>
</a>
</g>
</g>
<!-- Node7&#45;&gt;Node8 -->
<g id="edge7_Node000007_Node000008" class="edge">
<title>Node7&#45;&gt;Node8</title>
<g id="a_edge7_Node000007_Node000008"><a xlink:title=" ">
<path fill="none" stroke="#63b8ff" d="M230.38,-105C216.81,-105 201.46,-105 187.46,-105"/>
<polygon fill="#63b8ff" stroke="#63b8ff" points="230.28,-108.5 240.28,-105 230.28,-101.5 230.28,-108.5"/>
</a>
</g>
</g>
<!-- Node9 -->
<g id="Node000009" class="node">
<title>Node9</title>
<g id="a_Node000009"><a xlink:href="wi_npo_s-_app_8cpp.html#a8c6630df6bab43efe8254a603885b62e" target="_top" xlink:title=" ">
<polygon fill="white" stroke="#666666" points="61,-115 0,-115 0,-95 61,-95 61,-115"/>
<text text-anchor="middle" x="30.5" y="-101.5" font-family="Helvetica,sans-Serif" font-size="10.00">wWinMain</text>
</a>
</g>
</g>
<!-- Node8&#45;&gt;Node9 -->
<g id="edge8_Node000008_Node000009" class="edge">
<title>Node8&#45;&gt;Node9</title>
<g id="a_edge8_Node000008_Node000009"><a xlink:title=" ">
<path fill="none" stroke="#63b8ff" d="M85.58,-105C77.21,-105 68.86,-105 61.31,-105"/>
<polygon fill="#63b8ff" stroke="#63b8ff" points="85.54,-108.5 95.54,-105 85.54,-101.5 85.54,-108.5"/>
</a>
</g>
</g>
<!-- Node11 -->
<g id="Node000011" class="node">
<title>Node11</title>
<g id="a_Node000011"><a xlink:href="class_hooks_mgr.html#a5f8aa4cd119cb5d489b0a6f1a2971a79" target="_top" xlink:title=" ">
<polygon fill="white" stroke="#666666" points="316.5,-77 223.25,-77 223.25,-57 316.5,-57 316.5,-77"/>
<text text-anchor="middle" x="269.88" y="-63.5" font-family="Helvetica,sans-Serif" font-size="10.00">HooksMgr::attach</text>
</a>
</g>
</g>
<!-- Node10&#45;&gt;Node11 -->
<g id="edge10_Node000010_Node000011" class="edge">
<title>Node10&#45;&gt;Node11</title>
<g id="a_edge10_Node000010_Node000011"><a xlink:title=" ">
<path fill="none" stroke="#63b8ff" d="M341.29,-67C332.97,-67 324.59,-67 316.65,-67"/>
<polygon fill="#63b8ff" stroke="#63b8ff" points="341.14,-70.5 351.14,-67 341.14,-63.5 341.14,-70.5"/>
</a>
</g>
</g>
<!-- Node12&#45;&gt;Node4 -->
<g id="edge12_Node000012_Node000004" class="edge">
<title>Node12&#45;&gt;Node4</title>
<g id="a_edge12_Node000012_Node000004"><a xlink:title=" ">
<path fill="none" stroke="#63b8ff" d="M747.92,-86C739.68,-86 731.38,-86 723.38,-86"/>
<polygon fill="#63b8ff" stroke="#63b8ff" points="747.7,-89.5 757.7,-86 747.7,-82.5 747.7,-89.5"/>
</a>
</g>
</g>
<!-- Node13&#45;&gt;Node4 -->
<g id="edge14_Node000013_Node000004" class="edge">
<title>Node13&#45;&gt;Node4</title>
<g id="a_edge14_Node000013_Node000004"><a xlink:title=" ">
<path fill="none" stroke="#63b8ff" d="M916.81,-52.05C870.51,-54.98 811.32,-59.72 759,-67 743.15,-69.21 725.97,-72.39 710.62,-75.53"/>
<polygon fill="#63b8ff" stroke="#63b8ff" points="916.92,-55.49 926.69,-51.39 916.49,-48.51 916.92,-55.49"/>
</a>
</g>
</g>
</g>
</svg>
