<?xml version="1.0" encoding="UTF-8" standalone="no"?>
<!DOCTYPE svg PUBLIC "-//W3C//DTD SVG 1.1//EN"
 "http://www.w3.org/Graphics/SVG/1.1/DTD/svg11.dtd">
<!-- Generated by graphviz version 8.1.0 (20230707.0739)
 -->
<!-- Title: HooksCfg::readConfigDocument Pages: 1 -->
<svg width="1083pt" height="159pt"
 viewBox="0.00 0.00 1083.25 158.62" xmlns="http://www.w3.org/2000/svg" xmlns:xlink="http://www.w3.org/1999/xlink">
<g id="graph0" class="graph" transform="scale(1 1) rotate(0) translate(4 154.62)">
<title>HooksCfg::readConfigDocument</title>
<!-- Node1 -->
<g id="Node000001" class="node">
<title>Node1</title>
<g id="a_Node000001"><a xlink:title="read a JSON config from given path">
<polygon fill="#999999" stroke="#666666" points="1075.25,-117.62 921.25,-117.62 921.25,-97.62 1075.25,-97.62 1075.25,-117.62"/>
<text text-anchor="middle" x="998.25" y="-104.12" font-family="Helvetica,sans-Serif" font-size="10.00">HooksCfg::readConfigDocument</text>
</a>
</g>
</g>
<!-- Node2 -->
<g id="Node000002" class="node">
<title>Node2</title>
<g id="a_Node000002"><a xlink:href="class_hooks_cfg.html#afcb787461ef5ba011f6307c321223af6" target="_top" xlink:title="read the config for this app">
<polygon fill="white" stroke="#666666" points="739.5,-150.62 612.5,-150.62 612.5,-130.62 739.5,-130.62 739.5,-150.62"/>
<text text-anchor="middle" x="676" y="-137.12" font-family="Helvetica,sans-Serif" font-size="10.00">HooksCfg::readAppConfig</text>
</a>
</g>
</g>
<!-- Node1&#45;&gt;Node2 -->
<g id="edge1_Node000001_Node000002" class="edge">
<title>Node1&#45;&gt;Node2</title>
<g id="a_edge1_Node000001_Node000002"><a xlink:title=" ">
<path fill="none" stroke="#63b8ff" d="M910.03,-116.61C856.2,-122.16 788.38,-129.15 739.81,-134.15"/>
<polygon fill="#63b8ff" stroke="#63b8ff" points="910.36,-119.99 919.95,-115.49 909.64,-113.03 910.36,-119.99"/>
</a>
</g>
</g>
<!-- Node4 -->
<g id="Node000004" class="node">
<title>Node4</title>
<g id="a_Node000004"><a xlink:href="class_hooks_cfg.html#a9642afc6c6fe88141770403a09cdfc4b" target="_top" xlink:title="read the global config for all apps">
<polygon fill="white" stroke="#666666" points="885.25,-98.62 775.5,-98.62 775.5,-78.62 885.25,-78.62 885.25,-98.62"/>
<text text-anchor="middle" x="830.38" y="-85.12" font-family="Helvetica,sans-Serif" font-size="10.00">HooksCfg::readConfig</text>
</a>
</g>
</g>
<!-- Node1&#45;&gt;Node4 -->
<g id="edge3_Node000001_Node000004" class="edge">
<title>Node1&#45;&gt;Node4</title>
<g id="a_edge3_Node000001_Node000004"><a xlink:title=" ">
<path fill="none" stroke="#63b8ff" d="M910.31,-97.67C901.79,-96.69 893.33,-95.72 885.28,-94.8"/>
<polygon fill="#63b8ff" stroke="#63b8ff" points="909.78,-101.24 920.11,-98.9 910.57,-94.29 909.78,-101.24"/>
</a>
</g>
</g>
<!-- Node3 -->
<g id="Node000003" class="node">
<title>Node3</title>
<g id="a_Node000003"><a xlink:href="wi_npo_s-_app_8cpp.html#a8c6630df6bab43efe8254a603885b62e" target="_top" xlink:title=" ">
<polygon fill="white" stroke="#666666" points="61,-98.62 0,-98.62 0,-78.62 61,-78.62 61,-98.62"/>
<text text-anchor="middle" x="30.5" y="-85.12" font-family="Helvetica,sans-Serif" font-size="10.00">wWinMain</text>
</a>
</g>
</g>
<!-- Node2&#45;&gt;Node3 -->
<g id="edge2_Node000002_Node000003" class="edge">
<title>Node2&#45;&gt;Node3</title>
<g id="a_edge2_Node000002_Node000003"><a xlink:title=" ">
<path fill="none" stroke="#63b8ff" d="M601.44,-142.74C547.65,-144.1 472.93,-145.62 407.25,-145.62 407.25,-145.62 407.25,-145.62 268.88,-145.62 190.04,-145.62 100.46,-115.53 57.36,-99.08"/>
<polygon fill="#63b8ff" stroke="#63b8ff" points="601.34,-146.21 611.25,-142.46 601.16,-139.22 601.34,-146.21"/>
</a>
</g>
</g>
<!-- Node5 -->
<g id="Node000005" class="node">
<title>Node5</title>
<g id="a_Node000005"><a xlink:href="class_hooks_cfg.html#ab994ae67a05ce4decf5b7af5314eb913" target="_top" xlink:title="check if someone has disabled stored in config">
<polygon fill="white" stroke="#666666" points="730.5,-79.62 621.5,-79.62 621.5,-59.62 730.5,-59.62 730.5,-79.62"/>
<text text-anchor="middle" x="676" y="-66.12" font-family="Helvetica,sans-Serif" font-size="10.00">HooksCfg::isDisabled</text>
</a>
</g>
</g>
<!-- Node4&#45;&gt;Node5 -->
<g id="edge4_Node000004_Node000005" class="edge">
<title>Node4&#45;&gt;Node5</title>
<g id="a_edge4_Node000004_Node000005"><a xlink:title=" ">
<path fill="none" stroke="#63b8ff" d="M764.61,-80.55C753.41,-79.15 741.86,-77.71 730.98,-76.35"/>
<polygon fill="#63b8ff" stroke="#63b8ff" points="763.87,-84.11 774.22,-81.87 764.73,-77.16 763.87,-84.11"/>
</a>
</g>
</g>
<!-- Node6 -->
<g id="Node000006" class="node">
<title>Node6</title>
<g id="a_Node000006"><a xlink:href="_hooks_impl_8cpp.html#adae4ff67fba416ac992fe973d90abc58" target="_top" xlink:title="the exported hook for the main window procedure">
<polygon fill="white" stroke="#666666" points="572.75,-79.62 499.75,-79.62 499.75,-59.62 572.75,-59.62 572.75,-79.62"/>
<text text-anchor="middle" x="536.25" y="-66.12" font-family="Helvetica,sans-Serif" font-size="10.00">CallWndProc</text>
</a>
</g>
</g>
<!-- Node5&#45;&gt;Node6 -->
<g id="edge5_Node000005_Node000006" class="edge">
<title>Node5&#45;&gt;Node6</title>
<g id="a_edge5_Node000005_Node000006"><a xlink:title=" ">
<path fill="none" stroke="#63b8ff" d="M610.61,-69.62C597.72,-69.62 584.62,-69.62 573.12,-69.62"/>
<polygon fill="#63b8ff" stroke="#63b8ff" points="610.35,-73.12 620.35,-69.62 610.35,-66.12 610.35,-73.12"/>
</a>
</g>
</g>
<!-- Node8 -->
<g id="Node000008" class="node">
<title>Node8</title>
<g id="a_Node000008"><a xlink:href="wi_npo_s-_app_8cpp.html#a30a1e3b0304f1b083637664cbda94e72" target="_top" xlink:title="the main window procedure of this app">
<polygon fill="white" stroke="#666666" points="298.12,-41.62 241.62,-41.62 241.62,-21.62 298.12,-21.62 298.12,-41.62"/>
<text text-anchor="middle" x="269.88" y="-28.12" font-family="Helvetica,sans-Serif" font-size="10.00">WndProc</text>
</a>
</g>
</g>
<!-- Node5&#45;&gt;Node8 -->
<g id="edge17_Node000005_Node000008" class="edge">
<title>Node5&#45;&gt;Node8</title>
<g id="a_edge17_Node000005_Node000008"><a xlink:title=" ">
<path fill="none" stroke="#63b8ff" d="M653.58,-52.74C634.57,-38.9 605.39,-20.38 576.5,-12.62 476.89,14.12 352.74,-10.58 298.44,-24.11"/>
<polygon fill="#63b8ff" stroke="#63b8ff" points="651.2,-56.08 661.3,-59.28 655.4,-50.48 651.2,-56.08"/>
</a>
</g>
</g>
<!-- Node12 -->
<g id="Node000012" class="node">
<title>Node12</title>
<g id="a_Node000012"><a xlink:href="_hooks_impl_8cpp.html#ab9f4b48939788d5aa0f404323b16a957" target="_top" xlink:title="the exported hook for the windows&#45;message procedure">
<polygon fill="white" stroke="#666666" points="571.62,-41.62 500.88,-41.62 500.88,-21.62 571.62,-21.62 571.62,-41.62"/>
<text text-anchor="middle" x="536.25" y="-28.12" font-family="Helvetica,sans-Serif" font-size="10.00">GetMsgProc</text>
</a>
</g>
</g>
<!-- Node5&#45;&gt;Node12 -->
<g id="edge12_Node000005_Node000012" class="edge">
<title>Node5&#45;&gt;Node12</title>
<g id="a_edge12_Node000005_Node000012"><a xlink:title=" ">
<path fill="none" stroke="#63b8ff" d="M626.64,-56.28C608.56,-51.3 588.42,-45.74 571.83,-41.16"/>
<polygon fill="#63b8ff" stroke="#63b8ff" points="625.42,-59.85 635.99,-59.14 627.29,-53.11 625.42,-59.85"/>
</a>
</g>
</g>
<!-- Node13 -->
<g id="Node000013" class="node">
<title>Node13</title>
<g id="a_Node000013"><a xlink:href="_hooks_impl_8cpp.html#a2d95eeaf5ead86287ab88b2065c28d1a" target="_top" xlink:title="the exported hook for the shell procedure">
<polygon fill="white" stroke="#666666" points="576.5,-117.62 496,-117.62 496,-97.62 576.5,-97.62 576.5,-117.62"/>
<text text-anchor="middle" x="536.25" y="-104.12" font-family="Helvetica,sans-Serif" font-size="10.00">ShellHookProc</text>
</a>
</g>
</g>
<!-- Node5&#45;&gt;Node13 -->
<g id="edge15_Node000005_Node000013" class="edge">
<title>Node5&#45;&gt;Node13</title>
<g id="a_edge15_Node000005_Node000013"><a xlink:title=" ">
<path fill="none" stroke="#63b8ff" d="M626.74,-82.94C609.82,-87.6 591.08,-92.77 575.13,-97.17"/>
<polygon fill="#63b8ff" stroke="#63b8ff" points="627.29,-86.14 635.99,-80.11 625.42,-79.39 627.29,-86.14"/>
</a>
</g>
</g>
<!-- Node7 -->
<g id="Node000007" class="node">
<title>Node7</title>
<g id="a_Node000007"><a xlink:href="class_hooks_mgr.html#a7cfb009127366d7236f5c05c2e4f9ab3" target="_top" xlink:title=" ">
<polygon fill="white" stroke="#666666" points="452.12,-41.62 360.38,-41.62 360.38,-21.62 452.12,-21.62 452.12,-41.62"/>
<text text-anchor="middle" x="406.25" y="-28.12" font-family="Helvetica,sans-Serif" font-size="10.00">HooksMgr::install</text>
</a>
</g>
</g>
<!-- Node6&#45;&gt;Node7 -->
<g id="edge6_Node000006_Node000007" class="edge">
<title>Node6&#45;&gt;Node7</title>
<g id="a_edge6_Node000006_Node000007"><a xlink:title=" ">
<path fill="none" stroke="#63b8ff" d="M489.51,-56.05C474.03,-51.45 456.99,-46.39 442.45,-42.07"/>
<polygon fill="#63b8ff" stroke="#63b8ff" points="488.35,-59.65 498.93,-59.14 490.34,-52.94 488.35,-59.65"/>
</a>
</g>
</g>
<!-- Node10 -->
<g id="Node000010" class="node">
<title>Node10</title>
<g id="a_Node000010"><a xlink:href="class_hooks_mgr.html#a25aacc981b80470642a51175ee56ba01" target="_top" xlink:title=" ">
<polygon fill="white" stroke="#666666" points="460,-79.62 352.5,-79.62 352.5,-59.62 460,-59.62 460,-79.62"/>
<text text-anchor="middle" x="406.25" y="-66.12" font-family="Helvetica,sans-Serif" font-size="10.00">HooksMgr::setHooks</text>
</a>
</g>
</g>
<!-- Node6&#45;&gt;Node10 -->
<g id="edge10_Node000006_Node000010" class="edge">
<title>Node6&#45;&gt;Node10</title>
<g id="a_edge10_Node000006_Node000010"><a xlink:title=" ">
<path fill="none" stroke="#63b8ff" d="M488.38,-69.62C479.2,-69.62 469.53,-69.62 460.18,-69.62"/>
<polygon fill="#63b8ff" stroke="#63b8ff" points="488.25,-73.12 498.25,-69.62 488.25,-66.12 488.25,-73.12"/>
</a>
</g>
</g>
<!-- Node7&#45;&gt;Node8 -->
<g id="edge7_Node000007_Node000008" class="edge">
<title>Node7&#45;&gt;Node8</title>
<g id="a_edge7_Node000007_Node000008"><a xlink:title=" ">
<path fill="none" stroke="#63b8ff" d="M349.37,-31.62C331.79,-31.62 313.15,-31.62 298.45,-31.62"/>
<polygon fill="#63b8ff" stroke="#63b8ff" points="349.13,-35.12 359.13,-31.62 349.13,-28.12 349.13,-35.12"/>
</a>
</g>
</g>
<!-- Node9 -->
<g id="Node000009" class="node">
<title>Node9</title>
<g id="a_Node000009"><a xlink:href="wi_npo_s-_app_8cpp.html#aa0d0c9beb94350f8eac8fc4026a65375" target="_top" xlink:title=" ">
<polygon fill="white" stroke="#666666" points="187.25,-79.62 97,-79.62 97,-59.62 187.25,-59.62 187.25,-79.62"/>
<text text-anchor="middle" x="142.12" y="-66.12" font-family="Helvetica,sans-Serif" font-size="10.00">MyRegisterClass</text>
</a>
</g>
</g>
<!-- Node8&#45;&gt;Node9 -->
<g id="edge8_Node000008_Node000009" class="edge">
<title>Node8&#45;&gt;Node9</title>
<g id="a_edge8_Node000008_Node000009"><a xlink:title=" ">
<path fill="none" stroke="#63b8ff" d="M231.17,-43.02C214.25,-48.13 194.41,-54.13 177.85,-59.13"/>
<polygon fill="#63b8ff" stroke="#63b8ff" points="231.72,-46.21 240.28,-39.96 229.69,-39.51 231.72,-46.21"/>
</a>
</g>
</g>
<!-- Node9&#45;&gt;Node3 -->
<g id="edge9_Node000009_Node000003" class="edge">
<title>Node9&#45;&gt;Node3</title>
<g id="a_edge9_Node000009_Node000003"><a xlink:title=" ">
<path fill="none" stroke="#63b8ff" d="M85.86,-79.2C77.4,-80.67 68.94,-82.13 61.31,-83.46"/>
<polygon fill="#63b8ff" stroke="#63b8ff" points="86.28,-82.51 95.54,-77.35 85.09,-75.61 86.28,-82.51"/>
</a>
</g>
</g>
<!-- Node11 -->
<g id="Node000011" class="node">
<title>Node11</title>
<g id="a_Node000011"><a xlink:href="class_hooks_mgr.html#a5f8aa4cd119cb5d489b0a6f1a2971a79" target="_top" xlink:title=" ">
<polygon fill="white" stroke="#666666" points="316.5,-79.62 223.25,-79.62 223.25,-59.62 316.5,-59.62 316.5,-79.62"/>
<text text-anchor="middle" x="269.88" y="-66.12" font-family="Helvetica,sans-Serif" font-size="10.00">HooksMgr::attach</text>
</a>
</g>
</g>
<!-- Node10&#45;&gt;Node11 -->
<g id="edge11_Node000010_Node000011" class="edge">
<title>Node10&#45;&gt;Node11</title>
<g id="a_edge11_Node000010_Node000011"><a xlink:title=" ">
<path fill="none" stroke="#63b8ff" d="M341.29,-69.62C332.97,-69.62 324.59,-69.62 316.65,-69.62"/>
<polygon fill="#63b8ff" stroke="#63b8ff" points="341.14,-73.12 351.14,-69.62 341.14,-66.12 341.14,-73.12"/>
</a>
</g>
</g>
<!-- Node12&#45;&gt;Node7 -->
<g id="edge13_Node000012_Node000007" class="edge">
<title>Node12&#45;&gt;Node7</title>
<g id="a_edge13_Node000012_Node000007"><a xlink:title=" ">
<path fill="none" stroke="#63b8ff" d="M489.81,-31.62C477.7,-31.62 464.61,-31.62 452.51,-31.62"/>
<polygon fill="#63b8ff" stroke="#63b8ff" points="489.61,-35.12 499.61,-31.62 489.61,-28.12 489.61,-35.12"/>
</a>
</g>
</g>
<!-- Node12&#45;&gt;Node10 -->
<g id="edge14_Node000012_Node000010" class="edge">
<title>Node12&#45;&gt;Node10</title>
<g id="a_edge14_Node000012_Node000010"><a xlink:title=" ">
<path fill="none" stroke="#63b8ff" d="M490.08,-45.03C474.41,-49.68 457.1,-54.83 442.36,-59.2"/>
<polygon fill="#63b8ff" stroke="#63b8ff" points="491.02,-48.11 499.61,-41.91 489.03,-41.4 491.02,-48.11"/>
</a>
</g>
</g>
<!-- Node14 -->
<g id="Node000014" class="node">
<title>Node14</title>
<g id="a_Node000014"><a xlink:href="wi_npo_s-_hook_2dllmain_8cpp.html#a26e64fb39b69bcd9d1274d279f1561b9" target="_top" xlink:title=" ">
<polygon fill="white" stroke="#666666" points="430.38,-117.62 382.12,-117.62 382.12,-97.62 430.38,-97.62 430.38,-117.62"/>
<text text-anchor="middle" x="406.25" y="-104.12" font-family="Helvetica,sans-Serif" font-size="10.00">DllMain</text>
</a>
</g>
</g>
<!-- Node13&#45;&gt;Node14 -->
<g id="edge16_Node000013_Node000014" class="edge">
<title>Node13&#45;&gt;Node14</title>
<g id="a_edge16_Node000013_Node000014"><a xlink:title=" ">
<path fill="none" stroke="#63b8ff" d="M485.02,-107.62C466.31,-107.62 445.94,-107.62 430.74,-107.62"/>
<polygon fill="#63b8ff" stroke="#63b8ff" points="484.8,-111.12 494.8,-107.62 484.8,-104.12 484.8,-111.12"/>
</a>
</g>
</g>
</g>
</svg>
