<?xml version="1.0" encoding="UTF-8" standalone="no"?>
<!DOCTYPE svg PUBLIC "-//W3C//DTD SVG 1.1//EN"
 "http://www.w3.org/Graphics/SVG/1.1/DTD/svg11.dtd">
<!-- Generated by graphviz version 8.1.0 (20230707.0739)
 -->
<!-- Title: HooksMgr Pages: 1 -->
<svg width="303pt" height="120pt"
 viewBox="0.00 0.00 302.50 120.00" xmlns="http://www.w3.org/2000/svg" xmlns:xlink="http://www.w3.org/1999/xlink">

<svg id="main" version="1.1" xmlns="http://www.w3.org/2000/svg" xmlns:xlink="http://www.w3.org/1999/xlink" xml:space="preserve" onload="init(evt)">
<style type="text/css"><![CDATA[
.node, .edge {opacity: 0.7;}
.node.selected, .edge.selected {opacity: 1;}
.edge:hover path { stroke: red; }
.edge:hover polygon { stroke: red; fill: red; }
]]></style>
<script type="application/ecmascript" xlink:href="svg.min.js"/>
<svg id="graph" class="graph">
<g id="graph0" class="graph" transform="scale(1 1) rotate(0) translate(4 116)">
<title>HooksMgr</title>
<!-- Node1 -->
<g id="Node000001" class="node">
<title>Node1</title>
<g id="a_Node000001"><a xlink:title="Manage the Hooks install / uninstall.">
<polygon fill="#999999" stroke="#666666" points="138.12,-20 77.88,-20 77.88,0 138.12,0 138.12,-20"/>
<text text-anchor="middle" x="108" y="-6.5" font-family="Helvetica,sans-Serif" font-size="10.00">HooksMgr</text>
</a>
</g>
</g>
<!-- Node2 -->
<g id="Node000002" class="node">
<title>Node2</title>
<g id="a_Node000002"><a xlink:title=" ">
<polygon fill="white" stroke="#666666" points="64,-112 0,-112 0,-92 64,-92 64,-112"/>
<text text-anchor="middle" x="32" y="-98.5" font-family="Helvetica,sans-Serif" font-size="10.00">HMODULE</text>
</a>
</g>
</g>
<!-- Node2&#45;&gt;Node1 -->
<g id="edge1_Node000001_Node000002" class="edge">
<title>Node2&#45;&gt;Node1</title>
<g id="a_edge1_Node000001_Node000002"><a xlink:title=" ">
<path fill="none" stroke="#9a32cd" stroke-dasharray="5,2" d="M36.79,-81.3C40.87,-67.83 47.88,-50.28 59,-38 65.72,-30.59 74.96,-24.77 83.61,-20.46"/>
<polygon fill="#9a32cd" stroke="#9a32cd" points="33.17,-80.27 33.92,-90.84 39.92,-82.1 33.17,-80.27"/>
</a>
</g>
<text text-anchor="middle" x="81.5" y="-52.5" font-family="Helvetica,sans-Serif" font-size="10.00" fill="grey"> _hModule</text>
</g>
<!-- Node3 -->
<g id="Node000003" class="node">
<title>Node3</title>
<g id="a_Node000003"><a xlink:title=" ">
<polygon fill="white" stroke="#666666" points="133.62,-112 82.38,-112 82.38,-92 133.62,-92 133.62,-112"/>
<text text-anchor="middle" x="108" y="-98.5" font-family="Helvetica,sans-Serif" font-size="10.00">HHOOK</text>
</a>
</g>
</g>
<!-- Node3&#45;&gt;Node1 -->
<g id="edge2_Node000001_Node000003" class="edge">
<title>Node3&#45;&gt;Node1</title>
<g id="a_edge2_Node000001_Node000003"><a xlink:title=" ">
<path fill="none" stroke="#9a32cd" stroke-dasharray="5,2" d="M108,-80.75C108,-61.87 108,-34.58 108,-20.38"/>
<polygon fill="#9a32cd" stroke="#9a32cd" points="104.5,-80.71 108,-90.71 111.5,-80.71 104.5,-80.71"/>
</a>
</g>
<text text-anchor="middle" x="150.75" y="-64.5" font-family="Helvetica,sans-Serif" font-size="10.00" fill="grey"> _hhkCallWndProc</text>
<text text-anchor="middle" x="150.75" y="-52.5" font-family="Helvetica,sans-Serif" font-size="10.00" fill="grey">_hhkGetMessage</text>
<text text-anchor="middle" x="150.75" y="-40.5" font-family="Helvetica,sans-Serif" font-size="10.00" fill="grey">_hhkShellHookProc</text>
</g>
<!-- Node4 -->
<g id="Node000004" class="node">
<title>Node4</title>
<g id="a_Node000004"><a xlink:title=" ">
<polygon fill="white" stroke="#666666" points="286.62,-112 151.38,-112 151.38,-92 286.62,-92 286.62,-112"/>
<text text-anchor="middle" x="219" y="-98.5" font-family="Helvetica,sans-Serif" font-size="10.00">PROCESS_INFORMATION</text>
</a>
</g>
</g>
<!-- Node4&#45;&gt;Node1 -->
<g id="edge3_Node000001_Node000004" class="edge">
<title>Node4&#45;&gt;Node1</title>
<g id="a_edge3_Node000001_Node000004"><a xlink:title=" ">
<path fill="none" stroke="#9a32cd" stroke-dasharray="5,2" d="M216.79,-81.06C214.25,-67.21 208.77,-49.29 197,-38 181.27,-22.91 157.38,-16.23 138.31,-13.28"/>
<polygon fill="#9a32cd" stroke="#9a32cd" points="213.47,-81.51 218.36,-90.91 220.4,-80.51 213.47,-81.51"/>
</a>
</g>
<text text-anchor="middle" x="254.75" y="-52.5" font-family="Helvetica,sans-Serif" font-size="10.00" fill="grey"> _childProcessInfo</text>
</g>
</g>
</svg>
</svg>

<style type='text/css'>
<![CDATA[
[data-mouse-over-selected='false'] { opacity: 0.7; }
[data-mouse-over-selected='true']  { opacity: 1.0; }
]]>
</style>
<script type="application/ecmascript"><![CDATA[
document.addEventListener('DOMContentLoaded', (event) => {
  highlightEdges();
  highlightAdjacentNodes();
});
]]></script>
</svg>
