<?xml version="1.0" encoding="UTF-8" standalone="no"?>
<!DOCTYPE svg PUBLIC "-//W3C//DTD SVG 1.1//EN"
 "http://www.w3.org/Graphics/SVG/1.1/DTD/svg11.dtd">
<!-- Generated by graphviz version 9.0.0 (20230911.1827)
 -->
<!-- Title: HooksImpl Pages: 1 -->
<!--zoomable 731 -->

<svg id="main" version="1.1" xmlns="http://www.w3.org/2000/svg" xmlns:xlink="http://www.w3.org/1999/xlink" xml:space="preserve" onload="init(evt)">
<style type="text/css"><![CDATA[
.node, .edge {opacity: 0.7;}
.node.selected, .edge.selected {opacity: 1;}
.edge:hover path { stroke: red; }
.edge:hover polygon { stroke: red; fill: red; }
]]></style>

<defs>
  <circle id="rim" cx="0" cy="0" r="7"/>
  <circle id="rim2" cx="0" cy="0" r="3.5"/>
  <g id="zoomPlus">
    <use xlink:href="#rim" fill="#404040"><set attributeName="fill" to="#808080" begin="zoomplus.mouseover" end="zoomplus.mouseout"/></use>
    <path d="M-4,0h8M0,-4v8" fill="none" stroke="white" stroke-width="1.5" pointer-events="none"/>
  </g>
  <g id="zoomMin">
    <use xlink:href="#rim" fill="#404040"><set attributeName="fill" to="#808080" begin="zoomminus.mouseover" end="zoomminus.mouseout"/></use>
    <path d="M-4,0h8" fill="none" stroke="white" stroke-width="1.5" pointer-events="none"/>
  </g>
  <g id="arrowUp" transform="translate(30 24)">
    <use xlink:href="#rim"/>
    <path pointer-events="none" fill="none" stroke="white" stroke-width="1.5" d="M0,-3.0v7 M-2.5,-0.5L0,-3.0L2.5,-0.5"/>
  </g>
  <g id="arrowRight" transform="rotate(90) translate(36 -43)">
    <use xlink:href="#rim"/>
    <path pointer-events="none" fill="none" stroke="white" stroke-width="1.5" d="M0,-3.0v7 M-2.5,-0.5L0,-3.0L2.5,-0.5"/>
  </g>
  <g id="arrowDown" transform="rotate(180) translate(-30 -48)">
    <use xlink:href="#rim"/>
    <path pointer-events="none" fill="none" stroke="white" stroke-width="1.5" d="M0,-3.0v7 M-2.5,-0.5L0,-3.0L2.5,-0.5"/>
  </g>
  <g id="arrowLeft" transform="rotate(270) translate(-36 17)">
    <use xlink:href="#rim"/>
    <path pointer-events="none" fill="none" stroke="white" stroke-width="1.5" d="M0,-3.0v7 M-2.5,-0.5L0,-3.0L2.5,-0.5"/>
  </g>
  <g id="resetDef">
    <use xlink:href="#rim2" fill="#404040"><set attributeName="fill" to="#808080" begin="reset.mouseover" end="reset.mouseout"/></use>
  </g>
</defs>
<script type="application/ecmascript">
var viewWidth = 1848;
var viewHeight = 731;
var sectionId = 'dynsection-0';
</script>
<script type="application/ecmascript" xlink:href="svg.min.js"/>
<svg id="graph" class="graph">
<g id="viewport">
<title>HooksImpl</title>
<!-- Node1 -->
<g id="Node000001" class="node">
<title>Node1</title>
<g id="a_Node000001"><a xlink:title=" ">
<polygon fill="#999999" stroke="#666666" points="1009.3,-467 947.55,-467 947.55,-447 1009.3,-447 1009.3,-467"/>
<text text-anchor="middle" x="978.43" y="-453.5" font-family="Helvetica,sans-Serif" font-size="10.00">HooksImpl</text>
</a>
</g>
</g>
<!-- Node2 -->
<g id="Node000002" class="node">
<title>Node2</title>
<g id="a_Node000002"><a xlink:href="class_win_pos_wnd.html" target="_top" xlink:title=" ">
<polygon fill="white" stroke="#666666" points="727.18,-555 656.43,-555 656.43,-535 727.18,-535 727.18,-555"/>
<text text-anchor="middle" x="691.8" y="-541.5" font-family="Helvetica,sans-Serif" font-size="10.00">WinPosWnd</text>
</a>
</g>
</g>
<!-- Node2&#45;&gt;Node1 -->
<g id="edge1_Node000001_Node000002" class="edge">
<title>Node2&#45;&gt;Node1</title>
<g id="a_edge1_Node000001_Node000002"><a xlink:title=" ">
<path fill="none" stroke="#9a32cd" stroke-dasharray="5,2" d="M738.51,-542.01C776.16,-538.48 830.5,-530.94 875.55,-515 908.93,-503.19 944,-480.64 963.04,-467.4"/>
<polygon fill="#9a32cd" stroke="#9a32cd" points="738.55,-538.49 728.89,-542.85 739.16,-545.46 738.55,-538.49"/>
</a>
</g>
<text text-anchor="middle" x="829.43" y="-538.5" font-family="Helvetica,sans-Serif" font-size="10.00" fill="grey"> _winPosWnd</text>
</g>
<!-- Node4 -->
<g id="Node000004" class="node">
<title>Node4</title>
<g id="a_Node000004"><a xlink:title=" ">
<polygon fill="white" stroke="#666666" points="1063.3,-663 893.55,-663 893.55,-643 1063.3,-643 1063.3,-663"/>
<text text-anchor="middle" x="978.43" y="-649.5" font-family="Helvetica,sans-Serif" font-size="10.00">std::map&lt; HWND, WinPosWnd * &gt;</text>
</a>
</g>
</g>
<!-- Node2&#45;&gt;Node4 -->
<g id="edge5_Node000004_Node000002" class="edge">
<title>Node2&#45;&gt;Node4</title>
<g id="a_edge5_Node000004_Node000002"><a xlink:title=" ">
<path fill="none" stroke="#9a32cd" stroke-dasharray="5,2" d="M710.1,-563.5C727.08,-580.45 754.53,-604.86 783.3,-618 803.43,-627.2 852.72,-636.03 896.59,-642.52"/>
<polygon fill="#9a32cd" stroke="#9a32cd" points="712.77,-561.22 703.29,-556.5 707.75,-566.1 712.77,-561.22"/>
</a>
</g>
<text text-anchor="middle" x="829.43" y="-641.5" font-family="Helvetica,sans-Serif" font-size="10.00" fill="grey"> elements</text>
</g>
<!-- Node13 -->
<g id="Node000013" class="node">
<title>Node13</title>
<g id="a_Node000013"><a xlink:href="struct_win_pos_wnd_1_1_monitor_preview.html" target="_top" xlink:title=" ">
<polygon fill="white" stroke="#666666" points="1049.43,-234 907.43,-234 907.43,-214 1049.43,-214 1049.43,-234"/>
<text text-anchor="middle" x="978.43" y="-220.5" font-family="Helvetica,sans-Serif" font-size="10.00">WinPosWnd::MonitorPreview</text>
</a>
</g>
</g>
<!-- Node2&#45;&gt;Node13 -->
<g id="edge16_Node000013_Node000002" class="edge">
<title>Node2&#45;&gt;Node13</title>
<g id="a_edge16_Node000013_Node000002"><a xlink:title=" ">
<path fill="none" stroke="#9a32cd" stroke-dasharray="5,2" d="M738.24,-534.52C748.2,-530.43 757.95,-524.78 765.3,-517 783.25,-497.99 763.94,-478.56 783.3,-461 814.38,-432.82 842.74,-467.14 875.55,-441 945.86,-384.99 970.05,-269.01 975.89,-234.14"/>
<polygon fill="#9a32cd" stroke="#9a32cd" points="737.11,-531.2 728.87,-537.86 739.47,-537.8 737.11,-531.2"/>
</a>
</g>
<text text-anchor="middle" x="829.43" y="-463.5" font-family="Helvetica,sans-Serif" font-size="10.00" fill="grey"> winPosWnd</text>
</g>
<!-- Node3 -->
<g id="Node000003" class="node">
<title>Node3</title>
<g id="a_Node000003"><a xlink:title=" ">
<polygon fill="white" stroke="#666666" points="463.8,-479 331.55,-479 331.55,-459 463.8,-459 463.8,-479"/>
<text text-anchor="middle" x="397.68" y="-465.5" font-family="Helvetica,sans-Serif" font-size="10.00">static const WNDCLASS *</text>
</a>
</g>
</g>
<!-- Node3&#45;&gt;Node2 -->
<g id="edge2_Node000002_Node000003" class="edge">
<title>Node3&#45;&gt;Node2</title>
<g id="a_edge2_Node000002_Node000003"><a xlink:title=" ">
<path fill="none" stroke="#9a32cd" stroke-dasharray="5,2" d="M475.35,-469.12C514.53,-471.92 561.9,-479.66 600.3,-499 610.4,-504.09 608.82,-510.83 618.3,-517 629.83,-524.51 643.69,-530.48 656.18,-534.94"/>
<polygon fill="#9a32cd" stroke="#9a32cd" points="475.71,-465.64 465.52,-468.53 475.29,-472.63 475.71,-465.64"/>
</a>
</g>
<text text-anchor="middle" x="541.05" y="-501.5" font-family="Helvetica,sans-Serif" font-size="10.00" fill="grey"> wndClass</text>
</g>
<!-- Node4&#45;&gt;Node2 -->
<g id="edge3_Node000002_Node000004" class="edge">
<title>Node4&#45;&gt;Node2</title>
<g id="a_edge3_Node000002_Node000004"><a xlink:title=" ">
<path fill="none" stroke="#9a32cd" stroke-dasharray="5,2" d="M947.94,-637.6C927.92,-627.6 900.63,-614.82 875.55,-606 835.69,-591.98 823.4,-596.33 783.3,-583 759.37,-575.04 732.86,-563.59 714.75,-555.34"/>
<polygon fill="#9a32cd" stroke="#9a32cd" points="946.12,-640.6 956.62,-642 949.28,-634.36 946.12,-640.6"/>
</a>
</g>
<text text-anchor="middle" x="829.43" y="-608.5" font-family="Helvetica,sans-Serif" font-size="10.00" fill="grey"> hWndToWinPosMap</text>
</g>
<!-- Node5 -->
<g id="Node000005" class="node">
<title>Node5</title>
<g id="a_Node000005"><a xlink:title=" ">
<polygon fill="white" stroke="#666666" points="175.68,-593 129.68,-593 129.68,-573 175.68,-573 175.68,-593"/>
<text text-anchor="middle" x="152.68" y="-579.5" font-family="Helvetica,sans-Serif" font-size="10.00">HWND</text>
</a>
</g>
</g>
<!-- Node5&#45;&gt;Node4 -->
<g id="edge4_Node000004_Node000005" class="edge">
<title>Node5&#45;&gt;Node4</title>
<g id="a_edge4_Node000004_Node000005"><a xlink:title=" ">
<path fill="none" stroke="#9a32cd" stroke-dasharray="5,2" d="M186.76,-592.55C196.09,-594.96 206.28,-597.33 215.8,-599 465.36,-642.73 530.22,-640.99 783.3,-653 819.32,-654.71 859.14,-654.99 893.3,-654.74"/>
<polygon fill="#9a32cd" stroke="#9a32cd" points="187.95,-589.24 177.38,-590.03 186.13,-596 187.95,-589.24"/>
</a>
</g>
<text text-anchor="middle" x="541.05" y="-646.5" font-family="Helvetica,sans-Serif" font-size="10.00" fill="grey"> keys</text>
</g>
<!-- Node9 -->
<g id="Node000009" class="node">
<title>Node9</title>
<g id="a_Node000009"><a xlink:title=" ">
<polygon fill="white" stroke="#666666" points="452.18,-593 343.18,-593 343.18,-573 452.18,-573 452.18,-593"/>
<text text-anchor="middle" x="397.68" y="-579.5" font-family="Helvetica,sans-Serif" font-size="10.00">std::vector&lt; HWND &gt;</text>
</a>
</g>
</g>
<!-- Node5&#45;&gt;Node9 -->
<g id="edge10_Node000009_Node000005" class="edge">
<title>Node5&#45;&gt;Node9</title>
<g id="a_edge10_Node000009_Node000005"><a xlink:title=" ">
<path fill="none" stroke="#9a32cd" stroke-dasharray="5,2" d="M187.4,-583C227.59,-583 295.26,-583 342.75,-583"/>
<polygon fill="#9a32cd" stroke="#9a32cd" points="187.61,-579.5 177.61,-583 187.61,-586.5 187.61,-579.5"/>
</a>
</g>
<text text-anchor="middle" x="264.68" y="-585.5" font-family="Helvetica,sans-Serif" font-size="10.00" fill="grey"> elements</text>
</g>
<!-- Node5&#45;&gt;Node13 -->
<g id="edge17_Node000013_Node000005" class="edge">
<title>Node5&#45;&gt;Node13</title>
<g id="a_edge17_Node000013_Node000005"><a xlink:title=" ">
<path fill="none" stroke="#9a32cd" stroke-dasharray="5,2" d="M154.28,-561.76C156.61,-523.82 167.36,-444.75 215.8,-406 331.06,-313.79 743.18,-394.31 875.55,-329 920.65,-306.75 956.93,-256.11 971.05,-234.3"/>
<polygon fill="#9a32cd" stroke="#9a32cd" points="150.8,-561.27 153.84,-571.42 157.79,-561.59 150.8,-561.27"/>
</a>
</g>
<text text-anchor="middle" x="541.05" y="-359.5" font-family="Helvetica,sans-Serif" font-size="10.00" fill="grey"> hWnd</text>
</g>
<!-- Node6 -->
<g id="Node000006" class="node">
<title>Node6</title>
<g id="a_Node000006"><a xlink:title=" ">
<polygon fill="white" stroke="#666666" points="197.8,-673 107.55,-673 107.55,-653 197.8,-653 197.8,-673"/>
<text text-anchor="middle" x="152.68" y="-659.5" font-family="Helvetica,sans-Serif" font-size="10.00">std::map&lt; K, T &gt;</text>
</a>
</g>
</g>
<!-- Node6&#45;&gt;Node4 -->
<g id="edge6_Node000004_Node000006" class="edge">
<title>Node6&#45;&gt;Node4</title>
<g id="a_edge6_Node000004_Node000006"><a xlink:title=" ">
<path fill="none" stroke="orange" stroke-dasharray="5,2" d="M194.68,-676.59C201.66,-678.41 208.88,-679.99 215.8,-681 505.95,-723.3 585.11,-721.26 875.55,-681 900.26,-677.57 927.47,-669.89 947.54,-663.43"/>
<polygon fill="orange" stroke="orange" points="195.67,-673.24 185.1,-673.89 193.78,-679.97 195.67,-673.24"/>
</a>
</g>
<text text-anchor="middle" x="541.05" y="-713.5" font-family="Helvetica,sans-Serif" font-size="10.00" fill="grey"> &lt; HWND, WinPosWnd * &gt;</text>
</g>
<!-- Node7 -->
<g id="Node000007" class="node">
<title>Node7</title>
<g id="a_Node000007"><a xlink:title=" ">
<polygon fill="white" stroke="#666666" points="28.8,-673 0,-673 0,-653 28.8,-653 28.8,-673"/>
<text text-anchor="middle" x="14.4" y="-659.5" font-family="Helvetica,sans-Serif" font-size="10.00">K</text>
</a>
</g>
</g>
<!-- Node7&#45;&gt;Node6 -->
<g id="edge7_Node000006_Node000007" class="edge">
<title>Node7&#45;&gt;Node6</title>
<g id="a_edge7_Node000006_Node000007"><a xlink:title=" ">
<path fill="none" stroke="#9a32cd" stroke-dasharray="5,2" d="M40.55,-663C59.17,-663 85.02,-663 107.1,-663"/>
<polygon fill="#9a32cd" stroke="#9a32cd" points="40.73,-659.5 30.73,-663 40.73,-666.5 40.73,-659.5"/>
</a>
</g>
<text text-anchor="middle" x="68.18" y="-665.5" font-family="Helvetica,sans-Serif" font-size="10.00" fill="grey"> keys</text>
</g>
<!-- Node8 -->
<g id="Node000008" class="node">
<title>Node8</title>
<g id="a_Node000008"><a xlink:title=" ">
<polygon fill="white" stroke="#666666" points="28.8,-169 0,-169 0,-149 28.8,-149 28.8,-169"/>
<text text-anchor="middle" x="14.4" y="-155.5" font-family="Helvetica,sans-Serif" font-size="10.00">T</text>
</a>
</g>
</g>
<!-- Node8&#45;&gt;Node6 -->
<g id="edge8_Node000006_Node000008" class="edge">
<title>Node8&#45;&gt;Node6</title>
<g id="a_edge8_Node000006_Node000008"><a xlink:title=" ">
<path fill="none" stroke="#9a32cd" stroke-dasharray="5,2" d="M16.71,-180.81C21.35,-246.96 40.49,-450.07 107.55,-602 116.21,-621.61 131.88,-641.13 142.03,-652.63"/>
<polygon fill="#9a32cd" stroke="#9a32cd" points="20.21,-180.73 16.07,-170.98 13.23,-181.18 20.21,-180.73"/>
</a>
</g>
<text text-anchor="middle" x="68.18" y="-558.5" font-family="Helvetica,sans-Serif" font-size="10.00" fill="grey"> elements</text>
</g>
<!-- Node10 -->
<g id="Node000010" class="node">
<title>Node10</title>
<g id="a_Node000010"><a xlink:title=" ">
<polygon fill="white" stroke="#666666" points="194.8,-243 110.55,-243 110.55,-223 194.8,-223 194.8,-243"/>
<text text-anchor="middle" x="152.68" y="-229.5" font-family="Helvetica,sans-Serif" font-size="10.00">std::vector&lt; T &gt;</text>
</a>
</g>
</g>
<!-- Node8&#45;&gt;Node10 -->
<g id="edge12_Node000010_Node000008" class="edge">
<title>Node8&#45;&gt;Node10</title>
<g id="a_edge12_Node000010_Node000008"><a xlink:title=" ">
<path fill="none" stroke="#9a32cd" stroke-dasharray="5,2" d="M39.2,-171.92C65.74,-186.34 108.15,-209.37 132.61,-222.65"/>
<polygon fill="#9a32cd" stroke="#9a32cd" points="41,-168.92 30.55,-167.23 37.66,-175.07 41,-168.92"/>
</a>
</g>
<text text-anchor="middle" x="68.18" y="-200.5" font-family="Helvetica,sans-Serif" font-size="10.00" fill="grey"> elements</text>
</g>
<!-- Node18 -->
<g id="Node000018" class="node">
<title>Node18</title>
<g id="a_Node000018"><a xlink:title=" ">
<polygon fill="white" stroke="#666666" points="449.93,-140 345.43,-140 345.43,-120 449.93,-120 449.93,-140"/>
<text text-anchor="middle" x="397.68" y="-126.5" font-family="Helvetica,sans-Serif" font-size="10.00">std::shared_ptr&lt; T &gt;</text>
</a>
</g>
</g>
<!-- Node8&#45;&gt;Node18 -->
<g id="edge23_Node000018_Node000008" class="edge">
<title>Node8&#45;&gt;Node18</title>
<g id="a_edge23_Node000018_Node000008"><a xlink:title=" ">
<path fill="none" stroke="#9a32cd" stroke-dasharray="5,2" d="M40.2,-157.11C101.62,-152.44 261.83,-140.26 344.96,-133.93"/>
<polygon fill="#9a32cd" stroke="#9a32cd" points="40.18,-153.6 30.48,-157.85 40.72,-160.58 40.18,-153.6"/>
</a>
</g>
<text text-anchor="middle" x="152.68" y="-165.5" font-family="Helvetica,sans-Serif" font-size="10.00" fill="grey"> dummy</text>
<text text-anchor="middle" x="152.68" y="-153.5" font-family="Helvetica,sans-Serif" font-size="10.00" fill="grey">ptr</text>
</g>
<!-- Node22 -->
<g id="Node000022" class="node">
<title>Node22</title>
<g id="a_Node000022"><a xlink:title=" ">
<polygon fill="white" stroke="#666666" points="313.55,-55 215.8,-55 215.8,-35 313.55,-35 313.55,-55"/>
<text text-anchor="middle" x="264.68" y="-41.5" font-family="Helvetica,sans-Serif" font-size="10.00">std::weak_ptr&lt; T &gt;</text>
</a>
</g>
</g>
<!-- Node8&#45;&gt;Node22 -->
<g id="edge32_Node000022_Node000008" class="edge">
<title>Node8&#45;&gt;Node22</title>
<g id="a_edge32_Node000022_Node000008"><a xlink:title=" ">
<path fill="none" stroke="#9a32cd" stroke-dasharray="5,2" d="M26.21,-139.07C31.48,-130.93 38.49,-122.04 46.8,-116 97.61,-79.09 168.64,-60.67 215.37,-51.99"/>
<polygon fill="#9a32cd" stroke="#9a32cd" points="23.36,-137.01 21.26,-147.39 29.38,-140.58 23.36,-137.01"/>
</a>
</g>
<text text-anchor="middle" x="68.18" y="-118.5" font-family="Helvetica,sans-Serif" font-size="10.00" fill="grey"> ptr</text>
</g>
<!-- Node9&#45;&gt;Node2 -->
<g id="edge9_Node000002_Node000009" class="edge">
<title>Node9&#45;&gt;Node2</title>
<g id="a_edge9_Node000002_Node000009"><a xlink:title=" ">
<path fill="none" stroke="#9a32cd" stroke-dasharray="5,2" d="M463.61,-576.44C503.18,-572.23 554.73,-566.37 600.3,-560 618.75,-557.42 639.24,-554.06 656.05,-551.18"/>
<polygon fill="#9a32cd" stroke="#9a32cd" points="463.34,-572.95 453.76,-577.48 464.07,-579.91 463.34,-572.95"/>
</a>
</g>
<text text-anchor="middle" x="541.05" y="-576.5" font-family="Helvetica,sans-Serif" font-size="10.00" fill="grey"> _hWnds</text>
</g>
<!-- Node10&#45;&gt;Node9 -->
<g id="edge11_Node000009_Node000010" class="edge">
<title>Node10&#45;&gt;Node9</title>
<g id="a_edge11_Node000009_Node000010"><a xlink:title=" ">
<path fill="none" stroke="orange" stroke-dasharray="5,2" d="M158.92,-254.35C174.47,-313.11 225.99,-478.5 331.55,-564 335.76,-567.41 340.56,-570.21 345.6,-572.5"/>
<polygon fill="orange" stroke="orange" points="162.31,-253.5 156.44,-244.68 155.53,-255.23 162.31,-253.5"/>
</a>
</g>
<text text-anchor="middle" x="264.68" y="-545.5" font-family="Helvetica,sans-Serif" font-size="10.00" fill="grey"> &lt; HWND &gt;</text>
</g>
<!-- Node11 -->
<g id="Node000011" class="node">
<title>Node11</title>
<g id="a_Node000011"><a xlink:title=" ">
<polygon fill="white" stroke="#666666" points="1591.8,-319 1467.05,-319 1467.05,-287 1591.8,-287 1591.8,-319"/>
<text text-anchor="start" x="1475.05" y="-305.5" font-family="Helvetica,sans-Serif" font-size="10.00">std::vector&lt; std::shared</text>
<text text-anchor="middle" x="1529.43" y="-293.5" font-family="Helvetica,sans-Serif" font-size="10.00">_ptr&lt; MonitorPreview &gt; &gt;</text>
</a>
</g>
</g>
<!-- Node10&#45;&gt;Node11 -->
<g id="edge35_Node000011_Node000010" class="edge">
<title>Node10&#45;&gt;Node11</title>
<g id="a_edge35_Node000011_Node000010"><a xlink:title=" ">
<path fill="none" stroke="orange" stroke-dasharray="5,2" d="M206.52,-235.67C312.5,-241.03 558.56,-253.48 765.3,-264 1025.97,-277.27 1336.72,-293.18 1466.6,-299.83"/>
<polygon fill="orange" stroke="orange" points="206.88,-232.18 196.72,-235.18 206.53,-239.18 206.88,-232.18"/>
</a>
</g>
<text text-anchor="start" x="786.3" y="-283.5" font-family="Helvetica,sans-Serif" font-size="10.00" fill="grey"> &lt; std::shared_ptr&lt;</text>
<text text-anchor="middle" x="829.43" y="-271.5" font-family="Helvetica,sans-Serif" font-size="10.00" fill="grey"> MonitorPreview &gt; &gt;</text>
</g>
<!-- Node17 -->
<g id="Node000017" class="node">
<title>Node17</title>
<g id="a_Node000017"><a xlink:title=" ">
<polygon fill="white" stroke="#666666" points="760.55,-146 623.05,-146 623.05,-114 760.55,-114 760.55,-146"/>
<text text-anchor="start" x="631.05" y="-132.5" font-family="Helvetica,sans-Serif" font-size="10.00">std::vector&lt; WinPosPreview</text>
<text text-anchor="middle" x="691.8" y="-120.5" font-family="Helvetica,sans-Serif" font-size="10.00">Ptr &gt;</text>
</a>
</g>
</g>
<!-- Node10&#45;&gt;Node17 -->
<g id="edge24_Node000017_Node000010" class="edge">
<title>Node10&#45;&gt;Node17</title>
<g id="a_edge24_Node000017_Node000010"><a xlink:title=" ">
<path fill="none" stroke="orange" stroke-dasharray="5,2" d="M206,-222.97C303.73,-204.22 513.94,-163.91 622.62,-143.07"/>
<polygon fill="orange" stroke="orange" points="205.58,-219.48 196.42,-224.8 206.9,-226.36 205.58,-219.48"/>
</a>
</g>
<text text-anchor="middle" x="397.68" y="-200.5" font-family="Helvetica,sans-Serif" font-size="10.00" fill="grey"> &lt; WinPosPreviewPtr &gt;</text>
</g>
<!-- Node11&#45;&gt;Node2 -->
<g id="edge13_Node000002_Node000011" class="edge">
<title>Node11&#45;&gt;Node2</title>
<g id="a_edge13_Node000002_Node000011"><a xlink:title=" ">
<path fill="none" stroke="#9a32cd" stroke-dasharray="5,2" d="M1487.66,-324.63C1387.16,-376.56 1118.1,-507.32 875.55,-552 824.65,-561.38 764.48,-555.97 727.48,-550.81"/>
<polygon fill="#9a32cd" stroke="#9a32cd" points="1489.08,-327.83 1496.34,-320.11 1485.85,-321.62 1489.08,-327.83"/>
</a>
</g>
<text text-anchor="middle" x="1125.55" y="-499.5" font-family="Helvetica,sans-Serif" font-size="10.00" fill="grey"> _previews</text>
</g>
<!-- Node12 -->
<g id="Node000012" class="node">
<title>Node12</title>
<g id="a_Node000012"><a xlink:title=" ">
<polygon fill="white" stroke="#666666" points="1318.18,-275 1195.68,-275 1195.68,-243 1318.18,-243 1318.18,-275"/>
<text text-anchor="start" x="1203.68" y="-261.5" font-family="Helvetica,sans-Serif" font-size="10.00">std::shared_ptr&lt; Monitor</text>
<text text-anchor="middle" x="1256.93" y="-249.5" font-family="Helvetica,sans-Serif" font-size="10.00">Preview &gt;</text>
</a>
</g>
</g>
<!-- Node12&#45;&gt;Node11 -->
<g id="edge14_Node000011_Node000012" class="edge">
<title>Node12&#45;&gt;Node11</title>
<g id="a_edge14_Node000011_Node000012"><a xlink:title=" ">
<path fill="none" stroke="#9a32cd" stroke-dasharray="5,2" d="M1329.48,-263.04C1363.03,-265.71 1403.43,-270.05 1439.3,-277 1451.96,-279.45 1465.41,-282.91 1477.92,-286.51"/>
<polygon fill="#9a32cd" stroke="#9a32cd" points="1330.12,-259.57 1319.88,-262.31 1329.59,-266.55 1330.12,-259.57"/>
</a>
</g>
<text text-anchor="middle" x="1391.68" y="-279.5" font-family="Helvetica,sans-Serif" font-size="10.00" fill="grey"> elements</text>
</g>
<!-- Node13&#45;&gt;Node12 -->
<g id="edge15_Node000012_Node000013" class="edge">
<title>Node13&#45;&gt;Node12</title>
<g id="a_edge15_Node000012_Node000013"><a xlink:title=" ">
<path fill="none" stroke="#9a32cd" stroke-dasharray="5,2" d="M1060.89,-219.25C1094.83,-218.82 1134.48,-220.36 1169.8,-227 1186.89,-230.21 1205.04,-236.49 1220.25,-242.64"/>
<polygon fill="#9a32cd" stroke="#9a32cd" points="1061.06,-215.74 1051.13,-219.43 1061.2,-222.74 1061.06,-215.74"/>
</a>
</g>
<text text-anchor="middle" x="1125.55" y="-241.5" font-family="Helvetica,sans-Serif" font-size="10.00" fill="grey"> dummy</text>
<text text-anchor="middle" x="1125.55" y="-229.5" font-family="Helvetica,sans-Serif" font-size="10.00" fill="grey">ptr</text>
</g>
<!-- Node21 -->
<g id="Node000021" class="node">
<title>Node21</title>
<g id="a_Node000021"><a xlink:title=" ">
<polygon fill="white" stroke="#666666" points="1326.05,-129 1187.8,-129 1187.8,-97 1326.05,-97 1326.05,-129"/>
<text text-anchor="start" x="1195.8" y="-115.5" font-family="Helvetica,sans-Serif" font-size="10.00">std::weak_ptr&lt; WinPosWnd</text>
<text text-anchor="middle" x="1256.93" y="-103.5" font-family="Helvetica,sans-Serif" font-size="10.00">::MonitorPreview &gt;</text>
</a>
</g>
</g>
<!-- Node13&#45;&gt;Node21 -->
<g id="edge30_Node000021_Node000013" class="edge">
<title>Node13&#45;&gt;Node21</title>
<g id="a_edge30_Node000021_Node000013"><a xlink:title=" ">
<path fill="none" stroke="#9a32cd" stroke-dasharray="5,2" d="M1042.05,-209.49C1049.65,-206.14 1056.96,-202.03 1063.3,-197 1075.48,-187.33 1069.07,-176.6 1081.3,-167 1111.76,-143.11 1152.85,-129.72 1187.52,-122.26"/>
<polygon fill="#9a32cd" stroke="#9a32cd" points="1041.01,-206.14 1032.98,-213.05 1043.56,-212.65 1041.01,-206.14"/>
</a>
</g>
<text text-anchor="middle" x="1125.55" y="-169.5" font-family="Helvetica,sans-Serif" font-size="10.00" fill="grey"> ptr</text>
</g>
<!-- Node14 -->
<g id="Node000014" class="node">
<title>Node14</title>
<g id="a_Node000014"><a xlink:title=" ">
<polygon fill="white" stroke="#666666" points="418.43,-315 376.93,-315 376.93,-295 418.43,-295 418.43,-315"/>
<text text-anchor="middle" x="397.68" y="-301.5" font-family="Helvetica,sans-Serif" font-size="10.00">RECT</text>
</a>
</g>
</g>
<!-- Node14&#45;&gt;Node1 -->
<g id="edge41_Node000001_Node000014" class="edge">
<title>Node14&#45;&gt;Node1</title>
<g id="a_edge41_Node000001_Node000014"><a xlink:title=" ">
<path fill="none" stroke="#9a32cd" stroke-dasharray="5,2" d="M429.92,-309.14C507.13,-319.94 712.43,-352.03 875.55,-408 905.99,-418.45 939.24,-435.62 959.21,-446.61"/>
<polygon fill="#9a32cd" stroke="#9a32cd" points="430.54,-305.7 420.16,-307.8 429.59,-312.63 430.54,-305.7"/>
</a>
</g>
<text text-anchor="middle" x="691.8" y="-376.5" font-family="Helvetica,sans-Serif" font-size="10.00" fill="grey"> _lastRect</text>
</g>
<!-- Node14&#45;&gt;Node2 -->
<g id="edge36_Node000002_Node000014" class="edge">
<title>Node14&#45;&gt;Node2</title>
<g id="a_edge36_Node000002_Node000014"><a xlink:title=" ">
<path fill="none" stroke="#9a32cd" stroke-dasharray="5,2" d="M413.98,-324.08C429.62,-342.75 455.32,-371.19 481.8,-391 529.4,-426.6 562.86,-406.84 600.3,-453 618.91,-475.95 598.42,-495.14 618.3,-517 628.11,-527.78 642.54,-534.45 655.96,-538.55"/>
<polygon fill="#9a32cd" stroke="#9a32cd" points="416.78,-321.98 407.72,-316.48 411.37,-326.42 416.78,-321.98"/>
</a>
</g>
<text text-anchor="middle" x="541.05" y="-455.5" font-family="Helvetica,sans-Serif" font-size="10.00" fill="grey"> _totalRect</text>
</g>
<!-- Node14&#45;&gt;Node13 -->
<g id="edge18_Node000013_Node000014" class="edge">
<title>Node14&#45;&gt;Node13</title>
<g id="a_edge18_Node000013_Node000014"><a xlink:title=" ">
<path fill="none" stroke="#9a32cd" stroke-dasharray="5,2" d="M429.77,-299.8C495.12,-288.98 651.55,-263.56 783.3,-246 824.32,-240.53 870.33,-235.28 907.26,-231.28"/>
<polygon fill="#9a32cd" stroke="#9a32cd" points="429.44,-296.31 420.15,-301.4 430.59,-303.22 429.44,-296.31"/>
</a>
</g>
<text text-anchor="middle" x="691.8" y="-283.5" font-family="Helvetica,sans-Serif" font-size="10.00" fill="grey"> monitorRect</text>
<text text-anchor="middle" x="691.8" y="-271.5" font-family="Helvetica,sans-Serif" font-size="10.00" fill="grey">prvRect</text>
</g>
<!-- Node20 -->
<g id="Node000020" class="node">
<title>Node20</title>
<g id="a_Node000020"><a xlink:href="struct_win_pos_wnd_1_1_win_pos_preview.html" target="_top" xlink:title=" ">
<polygon fill="white" stroke="#666666" points="1601.55,-123 1457.3,-123 1457.3,-103 1601.55,-103 1601.55,-123"/>
<text text-anchor="middle" x="1529.43" y="-109.5" font-family="Helvetica,sans-Serif" font-size="10.00">WinPosWnd::WinPosPreview</text>
</a>
</g>
</g>
<!-- Node14&#45;&gt;Node20 -->
<g id="edge27_Node000020_Node000014" class="edge">
<title>Node14&#45;&gt;Node20</title>
<g id="a_edge27_Node000020_Node000014"><a xlink:title=" ">
<path fill="none" stroke="#9a32cd" stroke-dasharray="5,2" d="M428.99,-290.74C444.57,-283.69 463.99,-275.37 481.8,-269 613.01,-222.1 646.21,-207.95 783.3,-183 792.29,-181.36 1430.24,-130.18 1439.3,-129 1450.84,-127.49 1463.15,-125.52 1474.83,-123.48"/>
<polygon fill="#9a32cd" stroke="#9a32cd" points="427.88,-287.39 420.25,-294.74 430.8,-293.76 427.88,-287.39"/>
</a>
</g>
<text text-anchor="middle" x="978.43" y="-187.5" font-family="Helvetica,sans-Serif" font-size="10.00" fill="grey"> prvRect</text>
<text text-anchor="middle" x="978.43" y="-175.5" font-family="Helvetica,sans-Serif" font-size="10.00" fill="grey">wndRect</text>
</g>
<!-- Node15 -->
<g id="Node000015" class="node">
<title>Node15</title>
<g id="a_Node000015"><a xlink:title=" ">
<polygon fill="white" stroke="#666666" points="721.55,-96 662.05,-96 662.05,-76 721.55,-76 721.55,-96"/>
<text text-anchor="middle" x="691.8" y="-82.5" font-family="Helvetica,sans-Serif" font-size="10.00">std::string</text>
</a>
</g>
</g>
<!-- Node15&#45;&gt;Node13 -->
<g id="edge19_Node000013_Node000015" class="edge">
<title>Node15&#45;&gt;Node13</title>
<g id="a_edge19_Node000013_Node000015"><a xlink:title=" ">
<path fill="none" stroke="#9a32cd" stroke-dasharray="5,2" d="M732.94,-91.34C780.4,-98.44 855.5,-112.41 875.55,-132 896.99,-152.95 872.8,-175.37 893.55,-197 900.65,-204.4 909.77,-209.77 919.38,-213.67"/>
<polygon fill="#9a32cd" stroke="#9a32cd" points="733.7,-87.91 723.3,-89.94 732.7,-94.84 733.7,-87.91"/>
</a>
</g>
<text text-anchor="middle" x="829.43" y="-146.5" font-family="Helvetica,sans-Serif" font-size="10.00" fill="grey"> device</text>
<text text-anchor="middle" x="829.43" y="-134.5" font-family="Helvetica,sans-Serif" font-size="10.00" fill="grey">name</text>
</g>
<!-- Node15&#45;&gt;Node20 -->
<g id="edge28_Node000020_Node000015" class="edge">
<title>Node15&#45;&gt;Node20</title>
<g id="a_edge28_Node000020_Node000015"><a xlink:title=" ">
<path fill="none" stroke="#9a32cd" stroke-dasharray="5,2" d="M733.28,-84.45C833.74,-80.97 1102.53,-73.89 1326.05,-88 1370.92,-90.83 1421.08,-97.01 1460.23,-102.51"/>
<polygon fill="#9a32cd" stroke="#9a32cd" points="733.26,-80.95 723.39,-84.8 733.51,-87.94 733.26,-80.95"/>
</a>
</g>
<text text-anchor="middle" x="1125.55" y="-84.5" font-family="Helvetica,sans-Serif" font-size="10.00" fill="grey"> name</text>
</g>
<!-- Node16 -->
<g id="Node000016" class="node">
<title>Node16</title>
<g id="a_Node000016"><a xlink:title=" ">
<polygon fill="white" stroke="#666666" points="444.68,-102 350.68,-102 350.68,-70 444.68,-70 444.68,-102"/>
<text text-anchor="start" x="358.68" y="-88.5" font-family="Helvetica,sans-Serif" font-size="10.00">std::basic_string&lt;</text>
<text text-anchor="middle" x="397.68" y="-76.5" font-family="Helvetica,sans-Serif" font-size="10.00"> Char &gt;</text>
</a>
</g>
</g>
<!-- Node16&#45;&gt;Node15 -->
<g id="edge20_Node000015_Node000016" class="edge">
<title>Node16&#45;&gt;Node15</title>
<g id="a_edge20_Node000015_Node000016"><a xlink:title=" ">
<path fill="none" stroke="#63b8ff" d="M456.47,-86C518.29,-86 613.87,-86 661.59,-86"/>
<polygon fill="#63b8ff" stroke="#63b8ff" points="456.48,-82.5 446.48,-86 456.48,-89.5 456.48,-82.5"/>
</a>
</g>
</g>
<!-- Node17&#45;&gt;Node13 -->
<g id="edge21_Node000013_Node000017" class="edge">
<title>Node17&#45;&gt;Node13</title>
<g id="a_edge21_Node000013_Node000017"><a xlink:title=" ">
<path fill="none" stroke="#9a32cd" stroke-dasharray="5,2" d="M752.31,-150.05C792.22,-163.45 846,-181.41 893.55,-197 910.41,-202.53 929.21,-208.59 944.74,-213.57"/>
<polygon fill="#9a32cd" stroke="#9a32cd" points="753.46,-146.74 742.87,-146.87 751.23,-153.38 753.46,-146.74"/>
</a>
</g>
<text text-anchor="middle" x="829.43" y="-191.5" font-family="Helvetica,sans-Serif" font-size="10.00" fill="grey"> previews</text>
</g>
<!-- Node18&#45;&gt;Node12 -->
<g id="edge34_Node000012_Node000018" class="edge">
<title>Node18&#45;&gt;Node12</title>
<g id="a_edge34_Node000012_Node000018"><a xlink:title=" ">
<path fill="none" stroke="orange" stroke-dasharray="5,2" d="M445.1,-143.56C532.15,-168.33 726.22,-220.39 893.55,-243 999.02,-257.25 1123.16,-259.66 1195.36,-259.65"/>
<polygon fill="orange" stroke="orange" points="446.31,-140.27 435.74,-140.88 444.39,-147 446.31,-140.27"/>
</a>
</g>
<text text-anchor="middle" x="829.43" y="-242.5" font-family="Helvetica,sans-Serif" font-size="10.00" fill="grey"> &lt; MonitorPreview &gt;</text>
</g>
<!-- Node18&#45;&gt;Node17 -->
<g id="edge22_Node000017_Node000018" class="edge">
<title>Node18&#45;&gt;Node17</title>
<g id="a_edge22_Node000017_Node000018"><a xlink:title=" ">
<path fill="none" stroke="#9a32cd" stroke-dasharray="5,2" d="M461.59,-130C509.06,-130 574.08,-130 622.75,-130"/>
<polygon fill="#9a32cd" stroke="#9a32cd" points="461.74,-126.5 451.74,-130 461.74,-133.5 461.74,-126.5"/>
</a>
</g>
<text text-anchor="middle" x="541.05" y="-132.5" font-family="Helvetica,sans-Serif" font-size="10.00" fill="grey"> elements</text>
</g>
<!-- Node19 -->
<g id="Node000019" class="node">
<title>Node19</title>
<g id="a_Node000019"><a xlink:title=" ">
<polygon fill="white" stroke="#666666" points="1839.55,-123 1672.8,-123 1672.8,-103 1839.55,-103 1839.55,-123"/>
<text text-anchor="middle" x="1756.18" y="-109.5" font-family="Helvetica,sans-Serif" font-size="10.00">std::shared_ptr&lt; WinPosPreview &gt;</text>
</a>
</g>
</g>
<!-- Node18&#45;&gt;Node19 -->
<g id="edge33_Node000019_Node000018" class="edge">
<title>Node18&#45;&gt;Node19</title>
<g id="a_edge33_Node000019_Node000018"><a xlink:title=" ">
<path fill="none" stroke="orange" stroke-dasharray="5,2" d="M448.27,-116.24C453.54,-114.56 458.8,-112.81 463.8,-111 534.2,-85.58 546.97,-66.68 618.3,-44 709.23,-15.09 733.01,0 828.43,0 828.43,0 828.43,0 1530.43,0 1621.27,0 1712.86,-74.6 1744.01,-102.57"/>
<polygon fill="orange" stroke="orange" points="447.48,-112.82 438.95,-119.09 449.54,-119.51 447.48,-112.82"/>
</a>
</g>
<text text-anchor="middle" x="1125.55" y="-2.5" font-family="Helvetica,sans-Serif" font-size="10.00" fill="grey"> &lt; WinPosPreview &gt;</text>
</g>
<!-- Node19&#45;&gt;Node13 -->
<g id="edge25_Node000013_Node000019" class="edge">
<title>Node19&#45;&gt;Node13</title>
<g id="a_edge25_Node000013_Node000019"><a xlink:title=" ">
<path fill="none" stroke="#9a32cd" stroke-dasharray="5,2" d="M1711.02,-126.69C1693.63,-131.72 1673.4,-137.13 1654.8,-141 1540.23,-164.84 1198.47,-201.49 1049.8,-216.85"/>
<polygon fill="#9a32cd" stroke="#9a32cd" points="1711.94,-130.07 1720.54,-123.89 1709.96,-123.36 1711.94,-130.07"/>
</a>
</g>
<text text-anchor="middle" x="1391.68" y="-186.5" font-family="Helvetica,sans-Serif" font-size="10.00" fill="grey"> activeWinPosPreview</text>
</g>
<!-- Node20&#45;&gt;Node19 -->
<g id="edge26_Node000019_Node000020" class="edge">
<title>Node20&#45;&gt;Node19</title>
<g id="a_edge26_Node000019_Node000020"><a xlink:title=" ">
<path fill="none" stroke="#9a32cd" stroke-dasharray="5,2" d="M1613.1,-113C1632.5,-113 1653.18,-113 1672.57,-113"/>
<polygon fill="#9a32cd" stroke="#9a32cd" points="1613.36,-109.5 1603.36,-113 1613.36,-116.5 1613.36,-109.5"/>
</a>
</g>
<text text-anchor="middle" x="1637.18" y="-127.5" font-family="Helvetica,sans-Serif" font-size="10.00" fill="grey"> dummy</text>
<text text-anchor="middle" x="1637.18" y="-115.5" font-family="Helvetica,sans-Serif" font-size="10.00" fill="grey">ptr</text>
</g>
<!-- Node21&#45;&gt;Node20 -->
<g id="edge29_Node000020_Node000021" class="edge">
<title>Node21&#45;&gt;Node20</title>
<g id="a_edge29_Node000020_Node000021"><a xlink:title=" ">
<path fill="none" stroke="#9a32cd" stroke-dasharray="5,2" d="M1338.01,-113C1375.78,-113 1420.47,-113 1457.06,-113"/>
<polygon fill="#9a32cd" stroke="#9a32cd" points="1338.05,-109.5 1328.05,-113 1338.05,-116.5 1338.05,-109.5"/>
</a>
</g>
<text text-anchor="middle" x="1391.68" y="-115.5" font-family="Helvetica,sans-Serif" font-size="10.00" fill="grey"> monitorPreview</text>
</g>
<!-- Node22&#45;&gt;Node21 -->
<g id="edge31_Node000021_Node000022" class="edge">
<title>Node22&#45;&gt;Node21</title>
<g id="a_edge31_Node000021_Node000022"><a xlink:title=" ">
<path fill="none" stroke="orange" stroke-dasharray="5,2" d="M325.2,-44.32C418.94,-43.66 606.6,-44.06 765.3,-55 916.54,-65.43 1092.82,-89.1 1187.46,-102.76"/>
<polygon fill="orange" stroke="orange" points="325.46,-40.81 315.49,-44.39 325.52,-47.81 325.46,-40.81"/>
</a>
</g>
<text text-anchor="middle" x="691.8" y="-57.5" font-family="Helvetica,sans-Serif" font-size="10.00" fill="grey"> &lt; WinPosWnd::MonitorPreview &gt;</text>
</g>
<!-- Node23 -->
<g id="Node000023" class="node">
<title>Node23</title>
<g id="a_Node000023"><a xlink:title=" ">
<polygon fill="white" stroke="#666666" points="416.18,-555 379.18,-555 379.18,-535 416.18,-535 416.18,-555"/>
<text text-anchor="middle" x="397.68" y="-541.5" font-family="Helvetica,sans-Serif" font-size="10.00">UINT</text>
</a>
</g>
</g>
<!-- Node23&#45;&gt;Node2 -->
<g id="edge37_Node000002_Node000023" class="edge">
<title>Node23&#45;&gt;Node2</title>
<g id="a_edge37_Node000002_Node000023"><a xlink:title=" ">
<path fill="none" stroke="#9a32cd" stroke-dasharray="5,2" d="M427.69,-545C481.89,-545 598.3,-545 656.37,-545"/>
<polygon fill="#9a32cd" stroke="#9a32cd" points="428.02,-541.5 418.02,-545 428.02,-548.5 428.02,-541.5"/>
</a>
</g>
<text text-anchor="middle" x="541.05" y="-547.5" font-family="Helvetica,sans-Serif" font-size="10.00" fill="grey"> _closeTimeout</text>
</g>
<!-- Node24 -->
<g id="Node000024" class="node">
<title>Node24</title>
<g id="a_Node000024"><a xlink:title=" ">
<polygon fill="white" stroke="#666666" points="421.05,-517 374.3,-517 374.3,-497 421.05,-497 421.05,-517"/>
<text text-anchor="middle" x="397.68" y="-503.5" font-family="Helvetica,sans-Serif" font-size="10.00">FLOAT</text>
</a>
</g>
</g>
<!-- Node24&#45;&gt;Node2 -->
<g id="edge38_Node000002_Node000024" class="edge">
<title>Node24&#45;&gt;Node2</title>
<g id="a_edge38_Node000002_Node000024"><a xlink:title=" ">
<path fill="none" stroke="#9a32cd" stroke-dasharray="5,2" d="M432.67,-510.02C472.82,-513.74 541.57,-520.61 600.3,-529 618.78,-531.64 639.27,-535.21 656.08,-538.31"/>
<polygon fill="#9a32cd" stroke="#9a32cd" points="433.2,-506.55 422.92,-509.12 432.56,-513.52 433.2,-506.55"/>
</a>
</g>
<text text-anchor="middle" x="541.05" y="-531.5" font-family="Helvetica,sans-Serif" font-size="10.00" fill="grey"> _scale</text>
</g>
<!-- Node25 -->
<g id="Node000025" class="node">
<title>Node25</title>
<g id="a_Node000025"><a xlink:title=" ">
<polygon fill="white" stroke="#666666" points="711.05,-444 672.55,-444 672.55,-424 711.05,-424 711.05,-444"/>
<text text-anchor="middle" x="691.8" y="-430.5" font-family="Helvetica,sans-Serif" font-size="10.00">MSG</text>
</a>
</g>
</g>
<!-- Node25&#45;&gt;Node1 -->
<g id="edge39_Node000001_Node000025" class="edge">
<title>Node25&#45;&gt;Node1</title>
<g id="a_edge39_Node000001_Node000025"><a xlink:title=" ">
<path fill="none" stroke="#9a32cd" stroke-dasharray="5,2" d="M722.16,-426.27C758.46,-417.85 822.01,-406.87 875.55,-417 905.23,-422.62 937.34,-436.69 957.42,-446.54"/>
<polygon fill="#9a32cd" stroke="#9a32cd" points="721.74,-422.77 712.85,-428.52 723.39,-429.57 721.74,-422.77"/>
</a>
</g>
<text text-anchor="middle" x="829.43" y="-431.5" font-family="Helvetica,sans-Serif" font-size="10.00" fill="grey"> _lButtonUpMsg</text>
<text text-anchor="middle" x="829.43" y="-419.5" font-family="Helvetica,sans-Serif" font-size="10.00" fill="grey">_ncLButtonUpMsg</text>
</g>
<!-- Node26 -->
<g id="Node000026" class="node">
<title>Node26</title>
<g id="a_Node000026"><a xlink:title=" ">
<polygon fill="white" stroke="#666666" points="714.05,-508 669.55,-508 669.55,-488 714.05,-488 714.05,-508"/>
<text text-anchor="middle" x="691.8" y="-494.5" font-family="Helvetica,sans-Serif" font-size="10.00">POINT</text>
</a>
</g>
</g>
<!-- Node26&#45;&gt;Node1 -->
<g id="edge40_Node000001_Node000026" class="edge">
<title>Node26&#45;&gt;Node1</title>
<g id="a_edge40_Node000001_Node000026"><a xlink:title=" ">
<path fill="none" stroke="#9a32cd" stroke-dasharray="5,2" d="M725.52,-494.71C762.15,-490.87 823.25,-484.02 875.55,-476 899.74,-472.29 926.98,-467.16 947.2,-463.17"/>
<polygon fill="#9a32cd" stroke="#9a32cd" points="725.62,-491.18 716.03,-495.69 726.34,-498.14 725.62,-491.18"/>
</a>
</g>
<text text-anchor="middle" x="829.43" y="-501.5" font-family="Helvetica,sans-Serif" font-size="10.00" fill="grey"> _captionDblClick</text>
<text text-anchor="middle" x="829.43" y="-489.5" font-family="Helvetica,sans-Serif" font-size="10.00" fill="grey">_lastLButtonDown</text>
</g>
</g>
</svg>

<g id="navigator" transform="translate(0 0)" fill="#404254">
  <rect fill="#f2f5e9" fill-opacity="0.5" stroke="#606060" stroke-width=".5" x="0" y="0" width="60" height="60"/>
  <use id="zoomplus" xlink:href="#zoomPlus" x="17" y="9" onmousedown="handleZoom(evt,'in')"/>
  <use id="zoomminus" xlink:href="#zoomMin" x="42" y="9" onmousedown="handleZoom(evt,'out')"/>
  <use id="reset" xlink:href="#resetDef" x="30" y="36" onmousedown="handleReset()"/>
   <use id="arrowup" xlink:href="#arrowUp" x="0" y="0" onmousedown="handlePan(0,-1)"/>
  <use id="arrowright" xlink:href="#arrowRight" x="0" y="0" onmousedown="handlePan(1,0)"/>
  <use id="arrowdown" xlink:href="#arrowDown" x="0" y="0" onmousedown="handlePan(0,1)"/>
  <use id="arrowleft" xlink:href="#arrowLeft" x="0" y="0" onmousedown="handlePan(-1,0)"/>
</g>
<svg viewBox="0 0 15 15" width="100%" height="30px" preserveAspectRatio="xMaxYMin meet">
 <g id="arrow_out" transform="scale(0.3 0.3)">
  <a xlink:href="class_hooks_impl__coll__graph_org.svg" target="_base">
   <rect id="button" ry="5" rx="5" y="6" x="6" height="38" width="38"
        fill="#f2f5e9" fill-opacity="0.5" stroke="#606060" stroke-width="1.0"/>
   <path id="arrow"
     d="M 11.500037,31.436501 C 11.940474,20.09759 22.043105,11.32322 32.158766,21.979434 L 37.068811,17.246167 C 37.068811,17.246167 37.088388,32 37.088388,32 L 22.160133,31.978069 C 22.160133,31.978069 26.997745,27.140456 26.997745,27.140456 C 18.528582,18.264221 13.291696,25.230495 11.500037,31.436501 z"
     style="fill:#404040;"/>
  </a>
 </g>
</svg>

<style type='text/css'>
<![CDATA[
[data-mouse-over-selected='false'] { opacity: 0.7; }
[data-mouse-over-selected='true']  { opacity: 1.0; }
]]>
</style>
<script type="application/ecmascript"><![CDATA[
document.addEventListener('DOMContentLoaded', (event) => {
  highlightEdges();
  highlightAdjacentNodes();
});
]]></script>
</svg>
