<?xml version="1.0" encoding="UTF-8" standalone="no"?>
<!DOCTYPE svg PUBLIC "-//W3C//DTD SVG 1.1//EN"
 "http://www.w3.org/Graphics/SVG/1.1/DTD/svg11.dtd">
<!-- Generated by graphviz version 9.0.0 (20230911.1827)
 -->
<!-- Title: HooksImpl::onLButtonUp Pages: 1 -->
<svg width="324pt" height="78pt"
 viewBox="0.00 0.00 323.50 78.00" xmlns="http://www.w3.org/2000/svg" xmlns:xlink="http://www.w3.org/1999/xlink">
<g id="graph0" class="graph" transform="scale(1 1) rotate(0) translate(4 74)">
<title>HooksImpl::onLButtonUp</title>
<!-- Node1 -->
<g id="Node000001" class="node">
<title>Node1</title>
<g id="a_Node000001"><a xlink:title="processes the WM_LBUTTONUP event">
<polygon fill="#999999" stroke="#666666" points="124,-42 0,-42 0,-22 124,-22 124,-42"/>
<text text-anchor="middle" x="62" y="-28.5" font-family="Helvetica,sans-Serif" font-size="10.00">HooksImpl::onLButtonUp</text>
</a>
</g>
</g>
<!-- Node2 -->
<g id="Node000002" class="node">
<title>Node2</title>
<g id="a_Node000002"><a xlink:href="class_hooks_impl.html#a8ef5405a747979c1f5197848e4a8e684" target="_top" xlink:title=" ">
<polygon fill="white" stroke="#666666" points="303.12,-70 172.38,-70 172.38,-38 303.12,-38 303.12,-70"/>
<text text-anchor="start" x="180.38" y="-56.5" font-family="Helvetica,sans-Serif" font-size="10.00">HooksImpl::hasCaptionDbl</text>
<text text-anchor="middle" x="237.75" y="-44.5" font-family="Helvetica,sans-Serif" font-size="10.00">Clicked</text>
</a>
</g>
</g>
<!-- Node1&#45;&gt;Node2 -->
<g id="edge1_Node000001_Node000002" class="edge">
<title>Node1&#45;&gt;Node2</title>
<g id="a_edge1_Node000001_Node000002"><a xlink:title=" ">
<path fill="none" stroke="#63b8ff" d="M124.26,-39.76C136.08,-41.25 148.59,-42.84 160.81,-44.38"/>
<polygon fill="#63b8ff" stroke="#63b8ff" points="160.06,-47.82 170.42,-45.6 160.94,-40.87 160.06,-47.82"/>
</a>
</g>
</g>
<!-- Node3 -->
<g id="Node000003" class="node">
<title>Node3</title>
<g id="a_Node000003"><a xlink:href="class_hooks_impl.html#a84c9a5c6b0754e092de2ee6a8b8bba1e" target="_top" xlink:title="method to change the size of a window in steps">
<polygon fill="white" stroke="#666666" points="315.5,-20 160,-20 160,0 315.5,0 315.5,-20"/>
<text text-anchor="middle" x="237.75" y="-6.5" font-family="Helvetica,sans-Serif" font-size="10.00">HooksImpl::onIncrementWindow</text>
</a>
</g>
</g>
<!-- Node1&#45;&gt;Node3 -->
<g id="edge2_Node000001_Node000003" class="edge">
<title>Node1&#45;&gt;Node3</title>
<g id="a_edge2_Node000001_Node000003"><a xlink:title=" ">
<path fill="none" stroke="#63b8ff" d="M124.26,-24.24C132.03,-23.26 140.1,-22.24 148.19,-21.21"/>
<polygon fill="#63b8ff" stroke="#63b8ff" points="148.62,-24.69 158.11,-19.96 147.74,-17.74 148.62,-24.69"/>
</a>
</g>
</g>
</g>
</svg>
