<?xml version="1.0" encoding="UTF-8" standalone="no"?>
<!DOCTYPE svg PUBLIC "-//W3C//DTD SVG 1.1//EN"
 "http://www.w3.org/Graphics/SVG/1.1/DTD/svg11.dtd">
<!-- Generated by graphviz version 8.1.0 (20230707.0739)
 -->
<!-- Title: WinPosWndCfg Pages: 1 -->
<!--zoomable 473 -->

<svg id="main" version="1.1" xmlns="http://www.w3.org/2000/svg" xmlns:xlink="http://www.w3.org/1999/xlink" xml:space="preserve" onload="init(evt)">
<style type="text/css"><![CDATA[
.node, .edge {opacity: 0.7;}
.node.selected, .edge.selected {opacity: 1;}
.edge:hover path { stroke: red; }
.edge:hover polygon { stroke: red; fill: red; }
]]></style>

<defs>
  <circle id="rim" cx="0" cy="0" r="7"/>
  <circle id="rim2" cx="0" cy="0" r="3.5"/>
  <g id="zoomPlus">
    <use xlink:href="#rim" fill="#404040"><set attributeName="fill" to="#808080" begin="zoomplus.mouseover" end="zoomplus.mouseout"/></use>
    <path d="M-4,0h8M0,-4v8" fill="none" stroke="white" stroke-width="1.5" pointer-events="none"/>
  </g>
  <g id="zoomMin">
    <use xlink:href="#rim" fill="#404040"><set attributeName="fill" to="#808080" begin="zoomminus.mouseover" end="zoomminus.mouseout"/></use>
    <path d="M-4,0h8" fill="none" stroke="white" stroke-width="1.5" pointer-events="none"/>
  </g>
  <g id="arrowUp" transform="translate(30 24)">
    <use xlink:href="#rim"/>
    <path pointer-events="none" fill="none" stroke="white" stroke-width="1.5" d="M0,-3.0v7 M-2.5,-0.5L0,-3.0L2.5,-0.5"/>
  </g>
  <g id="arrowRight" transform="rotate(90) translate(36 -43)">
    <use xlink:href="#rim"/>
    <path pointer-events="none" fill="none" stroke="white" stroke-width="1.5" d="M0,-3.0v7 M-2.5,-0.5L0,-3.0L2.5,-0.5"/>
  </g>
  <g id="arrowDown" transform="rotate(180) translate(-30 -48)">
    <use xlink:href="#rim"/>
    <path pointer-events="none" fill="none" stroke="white" stroke-width="1.5" d="M0,-3.0v7 M-2.5,-0.5L0,-3.0L2.5,-0.5"/>
  </g>
  <g id="arrowLeft" transform="rotate(270) translate(-36 17)">
    <use xlink:href="#rim"/>
    <path pointer-events="none" fill="none" stroke="white" stroke-width="1.5" d="M0,-3.0v7 M-2.5,-0.5L0,-3.0L2.5,-0.5"/>
  </g>
  <g id="resetDef">
    <use xlink:href="#rim2" fill="#404040"><set attributeName="fill" to="#808080" begin="reset.mouseover" end="reset.mouseout"/></use>
  </g>
</defs>
<script type="application/ecmascript">
var viewWidth = 431;
var viewHeight = 473;
var sectionId = 'dynsection-0';
</script>
<script type="application/ecmascript" xlink:href="svg.min.js"/>
<svg id="graph" class="graph">
<g id="viewport">
<title>WinPosWndCfg</title>
<!-- Node1 -->
<g id="Node000001" class="node">
<title>Node1</title>
<g id="a_Node000001"><a xlink:title=" ">
<polygon fill="#999999" stroke="#666666" points="229.25,-20 144.25,-20 144.25,0 229.25,0 229.25,-20"/>
<text text-anchor="middle" x="186.75" y="-6.5" font-family="Helvetica,sans-Serif" font-size="10.00">WinPosWndCfg</text>
</a>
</g>
</g>
<!-- Node2 -->
<g id="Node000002" class="node">
<title>Node2</title>
<g id="a_Node000002"><a xlink:title=" ">
<polygon fill="white" stroke="#666666" points="116.25,-88 79.25,-88 79.25,-68 116.25,-68 116.25,-88"/>
<text text-anchor="middle" x="97.75" y="-74.5" font-family="Helvetica,sans-Serif" font-size="10.00">UINT</text>
</a>
</g>
</g>
<!-- Node2&#45;&gt;Node1 -->
<g id="edge1_Node000001_Node000002" class="edge">
<title>Node2&#45;&gt;Node1</title>
<g id="a_edge1_Node000001_Node000002"><a xlink:title=" ">
<path fill="none" stroke="#9a32cd" stroke-dasharray="5,2" d="M103.82,-57.62C106.79,-50.68 111,-43.28 116.75,-38 125.29,-30.16 136.35,-24.51 147.15,-20.47"/>
<polygon fill="#9a32cd" stroke="#9a32cd" points="100.25,-56.17 100.12,-66.77 106.83,-58.57 100.25,-56.17"/>
</a>
</g>
<text text-anchor="middle" x="149.75" y="-40.5" font-family="Helvetica,sans-Serif" font-size="10.00" fill="grey"> _closeTimeout</text>
</g>
<!-- Node3 -->
<g id="Node000003" class="node">
<title>Node3</title>
<g id="a_Node000003"><a xlink:title=" ">
<polygon fill="white" stroke="#666666" points="210.12,-88 163.38,-88 163.38,-68 210.12,-68 210.12,-88"/>
<text text-anchor="middle" x="186.75" y="-74.5" font-family="Helvetica,sans-Serif" font-size="10.00">FLOAT</text>
</a>
</g>
</g>
<!-- Node3&#45;&gt;Node1 -->
<g id="edge2_Node000001_Node000003" class="edge">
<title>Node3&#45;&gt;Node1</title>
<g id="a_edge2_Node000001_Node000003"><a xlink:title=" ">
<path fill="none" stroke="#9a32cd" stroke-dasharray="5,2" d="M186.75,-56.65C186.75,-44.58 186.75,-29.84 186.75,-20.44"/>
<polygon fill="#9a32cd" stroke="#9a32cd" points="183.25,-56.54 186.75,-66.54 190.25,-56.54 183.25,-56.54"/>
</a>
</g>
<text text-anchor="middle" x="202.5" y="-40.5" font-family="Helvetica,sans-Serif" font-size="10.00" fill="grey"> _scale</text>
</g>
<!-- Node4 -->
<g id="Node000004" class="node">
<title>Node4</title>
<g id="a_Node000004"><a xlink:title=" ">
<polygon fill="white" stroke="#666666" points="366.88,-88 228.62,-88 228.62,-68 366.88,-68 366.88,-88"/>
<text text-anchor="middle" x="297.75" y="-74.5" font-family="Helvetica,sans-Serif" font-size="10.00">std::vector&lt; MonitorConfig &gt;</text>
</a>
</g>
</g>
<!-- Node4&#45;&gt;Node1 -->
<g id="edge3_Node000001_Node000004" class="edge">
<title>Node4&#45;&gt;Node1</title>
<g id="a_edge3_Node000001_Node000004"><a xlink:title=" ">
<path fill="none" stroke="#9a32cd" stroke-dasharray="5,2" d="M272.67,-62.09C251.19,-49.32 220.91,-31.31 202.62,-20.44"/>
<polygon fill="#9a32cd" stroke="#9a32cd" points="270.46,-65.44 280.85,-67.54 274.04,-59.42 270.46,-65.44"/>
</a>
</g>
<text text-anchor="middle" x="274.62" y="-40.5" font-family="Helvetica,sans-Serif" font-size="10.00" fill="grey"> _monitors</text>
</g>
<!-- Node5 -->
<g id="Node000005" class="node">
<title>Node5</title>
<g id="a_Node000005"><a xlink:href="struct_win_pos_wnd_cfg_1_1_monitor_config.html" target="_top" xlink:title=" ">
<polygon fill="white" stroke="#666666" points="213.88,-156 63.62,-156 63.62,-136 213.88,-136 213.88,-156"/>
<text text-anchor="middle" x="138.75" y="-142.5" font-family="Helvetica,sans-Serif" font-size="10.00">WinPosWndCfg::MonitorConfig</text>
</a>
</g>
</g>
<!-- Node5&#45;&gt;Node4 -->
<g id="edge4_Node000004_Node000005" class="edge">
<title>Node5&#45;&gt;Node4</title>
<g id="a_edge4_Node000004_Node000005"><a xlink:title=" ">
<path fill="none" stroke="#9a32cd" stroke-dasharray="5,2" d="M171.4,-131.45C202.3,-118.62 247.87,-99.7 275.01,-88.44"/>
<polygon fill="#9a32cd" stroke="#9a32cd" points="170.42,-128.48 162.53,-135.54 173.11,-134.94 170.42,-128.48"/>
</a>
</g>
<text text-anchor="middle" x="253.12" y="-108.5" font-family="Helvetica,sans-Serif" font-size="10.00" fill="grey"> elements</text>
</g>
<!-- Node6 -->
<g id="Node000006" class="node">
<title>Node6</title>
<g id="a_Node000006"><a xlink:title=" ">
<polygon fill="white" stroke="#666666" points="41.5,-396 0,-396 0,-376 41.5,-376 41.5,-396"/>
<text text-anchor="middle" x="20.75" y="-382.5" font-family="Helvetica,sans-Serif" font-size="10.00">RECT</text>
</a>
</g>
</g>
<!-- Node6&#45;&gt;Node5 -->
<g id="edge5_Node000005_Node000006" class="edge">
<title>Node6&#45;&gt;Node5</title>
<g id="a_edge5_Node000005_Node000006"><a xlink:title=" ">
<path fill="none" stroke="#9a32cd" stroke-dasharray="5,2" d="M18.33,-365.01C15.75,-336.21 14.42,-282.1 34.25,-242 53.92,-202.22 98.01,-171.2 122.16,-156.44"/>
<polygon fill="#9a32cd" stroke="#9a32cd" points="14.92,-365.11 19.45,-374.69 21.88,-364.38 14.92,-365.11"/>
</a>
</g>
<text text-anchor="middle" x="62.5" y="-256.5" font-family="Helvetica,sans-Serif" font-size="10.00" fill="grey"> monitorRect</text>
<text text-anchor="middle" x="62.5" y="-244.5" font-family="Helvetica,sans-Serif" font-size="10.00" fill="grey">previewRect</text>
</g>
<!-- Node11 -->
<g id="Node000011" class="node">
<title>Node11</title>
<g id="a_Node000011"><a xlink:href="struct_win_pos_wnd_cfg_1_1_pos_preview_config.html" target="_top" xlink:title=" ">
<polygon fill="white" stroke="#666666" points="255.38,-316 114.12,-316 114.12,-284 255.38,-284 255.38,-316"/>
<text text-anchor="start" x="122.12" y="-302.5" font-family="Helvetica,sans-Serif" font-size="10.00">WinPosWndCfg::PosPreview</text>
<text text-anchor="middle" x="184.75" y="-290.5" font-family="Helvetica,sans-Serif" font-size="10.00">Config</text>
</a>
</g>
</g>
<!-- Node6&#45;&gt;Node11 -->
<g id="edge11_Node000011_Node000006" class="edge">
<title>Node6&#45;&gt;Node11</title>
<g id="a_edge11_Node000011_Node000006"><a xlink:title=" ">
<path fill="none" stroke="#9a32cd" stroke-dasharray="5,2" d="M37.75,-368.51C49.88,-357.48 67.05,-343.33 84.25,-334 97.16,-327 111.82,-321.15 125.87,-316.41"/>
<polygon fill="#9a32cd" stroke="#9a32cd" points="35.78,-365.49 30.87,-374.88 40.56,-370.6 35.78,-365.49"/>
</a>
</g>
<text text-anchor="middle" x="102.5" y="-348.5" font-family="Helvetica,sans-Serif" font-size="10.00" fill="grey"> prvRect</text>
<text text-anchor="middle" x="102.5" y="-336.5" font-family="Helvetica,sans-Serif" font-size="10.00" fill="grey">wndRect</text>
</g>
<!-- Node7 -->
<g id="Node000007" class="node">
<title>Node7</title>
<g id="a_Node000007"><a xlink:title=" ">
<polygon fill="white" stroke="#666666" points="127.5,-396 68,-396 68,-376 127.5,-376 127.5,-396"/>
<text text-anchor="middle" x="97.75" y="-382.5" font-family="Helvetica,sans-Serif" font-size="10.00">std::string</text>
</a>
</g>
</g>
<!-- Node7&#45;&gt;Node5 -->
<g id="edge6_Node000005_Node000007" class="edge">
<title>Node7&#45;&gt;Node5</title>
<g id="a_edge6_Node000005_Node000007"><a xlink:title=" ">
<path fill="none" stroke="#9a32cd" stroke-dasharray="5,2" d="M95.36,-364.95C92,-330.99 88.03,-260.39 104.75,-204 110.19,-185.66 122.87,-167.14 131.11,-156.38"/>
<polygon fill="#9a32cd" stroke="#9a32cd" points="91.97,-365.14 96.53,-374.7 98.93,-364.38 91.97,-365.14"/>
</a>
</g>
<text text-anchor="middle" x="110.75" y="-256.5" font-family="Helvetica,sans-Serif" font-size="10.00" fill="grey"> device</text>
<text text-anchor="middle" x="110.75" y="-244.5" font-family="Helvetica,sans-Serif" font-size="10.00" fill="grey">name</text>
</g>
<!-- Node7&#45;&gt;Node11 -->
<g id="edge12_Node000011_Node000007" class="edge">
<title>Node7&#45;&gt;Node11</title>
<g id="a_edge12_Node000011_Node000007"><a xlink:title=" ">
<path fill="none" stroke="#9a32cd" stroke-dasharray="5,2" d="M115.28,-368.08C130.96,-352.94 153.73,-330.95 168.88,-316.32"/>
<polygon fill="#9a32cd" stroke="#9a32cd" points="113.16,-365.23 108.39,-374.69 118.02,-370.26 113.16,-365.23"/>
</a>
</g>
<text text-anchor="middle" x="162.25" y="-342.5" font-family="Helvetica,sans-Serif" font-size="10.00" fill="grey"> name</text>
</g>
<!-- Node8 -->
<g id="Node000008" class="node">
<title>Node8</title>
<g id="a_Node000008"><a xlink:title=" ">
<polygon fill="white" stroke="#666666" points="144.75,-465 50.75,-465 50.75,-433 144.75,-433 144.75,-465"/>
<text text-anchor="start" x="58.75" y="-451.5" font-family="Helvetica,sans-Serif" font-size="10.00">std::basic_string&lt;</text>
<text text-anchor="middle" x="97.75" y="-439.5" font-family="Helvetica,sans-Serif" font-size="10.00"> Char &gt;</text>
</a>
</g>
</g>
<!-- Node8&#45;&gt;Node7 -->
<g id="edge7_Node000007_Node000008" class="edge">
<title>Node8&#45;&gt;Node7</title>
<g id="a_edge7_Node000007_Node000008"><a xlink:title=" ">
<path fill="none" stroke="#63b8ff" d="M97.75,-421.67C97.75,-412.62 97.75,-403.08 97.75,-396.31"/>
<polygon fill="#63b8ff" stroke="#63b8ff" points="94.25,-421.61 97.75,-431.61 101.25,-421.61 94.25,-421.61"/>
</a>
</g>
</g>
<!-- Node9 -->
<g id="Node000009" class="node">
<title>Node9</title>
<g id="a_Node000009"><a xlink:title=" ">
<polygon fill="white" stroke="#666666" points="164,-224 113.5,-224 113.5,-204 164,-204 164,-224"/>
<text text-anchor="middle" x="138.75" y="-210.5" font-family="Helvetica,sans-Serif" font-size="10.00">uint32_t</text>
</a>
</g>
</g>
<!-- Node9&#45;&gt;Node5 -->
<g id="edge8_Node000005_Node000009" class="edge">
<title>Node9&#45;&gt;Node5</title>
<g id="a_edge8_Node000005_Node000009"><a xlink:title=" ">
<path fill="none" stroke="#9a32cd" stroke-dasharray="5,2" d="M138.75,-192.65C138.75,-180.58 138.75,-165.84 138.75,-156.44"/>
<polygon fill="#9a32cd" stroke="#9a32cd" points="135.25,-192.54 138.75,-202.54 142.25,-192.54 135.25,-192.54"/>
</a>
</g>
<text text-anchor="middle" x="151.88" y="-176.5" font-family="Helvetica,sans-Serif" font-size="10.00" fill="grey"> index</text>
</g>
<!-- Node10 -->
<g id="Node000010" class="node">
<title>Node10</title>
<g id="a_Node000010"><a xlink:title=" ">
<polygon fill="white" stroke="#666666" points="337.88,-224 181.62,-224 181.62,-204 337.88,-204 337.88,-224"/>
<text text-anchor="middle" x="259.75" y="-210.5" font-family="Helvetica,sans-Serif" font-size="10.00">std::vector&lt; PosPreviewConfig &gt;</text>
</a>
</g>
</g>
<!-- Node10&#45;&gt;Node5 -->
<g id="edge9_Node000005_Node000010" class="edge">
<title>Node10&#45;&gt;Node5</title>
<g id="a_edge9_Node000005_Node000010"><a xlink:title=" ">
<path fill="none" stroke="#9a32cd" stroke-dasharray="5,2" d="M233.04,-198.43C209.59,-185.64 176.17,-167.41 156.05,-156.44"/>
<polygon fill="#9a32cd" stroke="#9a32cd" points="230.96,-201.83 241.41,-203.54 234.31,-195.68 230.96,-201.83"/>
</a>
</g>
<text text-anchor="middle" x="229.62" y="-176.5" font-family="Helvetica,sans-Serif" font-size="10.00" fill="grey"> previews</text>
</g>
<!-- Node11&#45;&gt;Node10 -->
<g id="edge10_Node000010_Node000011" class="edge">
<title>Node11&#45;&gt;Node10</title>
<g id="a_edge10_Node000010_Node000011"><a xlink:title=" ">
<path fill="none" stroke="#9a32cd" stroke-dasharray="5,2" d="M182.04,-272.85C182.28,-262.32 184.38,-250.65 191,-242 197.08,-234.06 205.83,-228.44 215.07,-224.48"/>
<polygon fill="#9a32cd" stroke="#9a32cd" points="178.57,-272.74 182.39,-282.63 185.57,-272.52 178.57,-272.74"/>
</a>
</g>
<text text-anchor="middle" x="212.12" y="-250.5" font-family="Helvetica,sans-Serif" font-size="10.00" fill="grey"> elements</text>
</g>
<!-- Node12 -->
<g id="Node000012" class="node">
<title>Node12</title>
<g id="a_Node000012"><a xlink:title=" ">
<polygon fill="white" stroke="#666666" points="204,-396 165.5,-396 165.5,-376 204,-376 204,-396"/>
<text text-anchor="middle" x="184.75" y="-382.5" font-family="Helvetica,sans-Serif" font-size="10.00">Units</text>
</a>
</g>
</g>
<!-- Node12&#45;&gt;Node11 -->
<g id="edge13_Node000011_Node000012" class="edge">
<title>Node12&#45;&gt;Node11</title>
<g id="a_edge13_Node000011_Node000012"><a xlink:title=" ">
<path fill="none" stroke="#9a32cd" stroke-dasharray="5,2" d="M184.75,-365.05C184.75,-350.12 184.75,-330 184.75,-316.32"/>
<polygon fill="#9a32cd" stroke="#9a32cd" points="181.25,-364.69 184.75,-374.69 188.25,-364.69 181.25,-364.69"/>
</a>
</g>
<text text-anchor="middle" x="196.75" y="-342.5" font-family="Helvetica,sans-Serif" font-size="10.00" fill="grey"> units</text>
</g>
<!-- Node13 -->
<g id="Node000013" class="node">
<title>Node13</title>
<g id="a_Node000013"><a xlink:title=" ">
<polygon fill="white" stroke="#666666" points="382.88,-310 298.62,-310 298.62,-290 382.88,-290 382.88,-310"/>
<text text-anchor="middle" x="340.75" y="-296.5" font-family="Helvetica,sans-Serif" font-size="10.00">std::vector&lt; T &gt;</text>
</a>
</g>
</g>
<!-- Node13&#45;&gt;Node4 -->
<g id="edge16_Node000004_Node000013" class="edge">
<title>Node13&#45;&gt;Node4</title>
<g id="a_edge16_Node000004_Node000013"><a xlink:title=" ">
<path fill="none" stroke="orange" stroke-dasharray="5,2" d="M350.5,-279.59C352.26,-275.22 353.83,-270.54 354.75,-266 356.88,-255.55 355.85,-252.61 354.75,-242 348.35,-180.58 315.34,-112.46 302.69,-88.2"/>
<polygon fill="orange" stroke="orange" points="346.94,-277.96 345.98,-288.51 353.31,-280.86 346.94,-277.96"/>
</a>
</g>
<text text-anchor="middle" x="382.88" y="-176.5" font-family="Helvetica,sans-Serif" font-size="10.00" fill="grey"> &lt; MonitorConfig &gt;</text>
</g>
<!-- Node13&#45;&gt;Node10 -->
<g id="edge14_Node000010_Node000013" class="edge">
<title>Node13&#45;&gt;Node10</title>
<g id="a_edge14_Node000010_Node000013"><a xlink:title=" ">
<path fill="none" stroke="orange" stroke-dasharray="5,2" d="M288.37,-289.3C275.9,-284.41 264.04,-277.06 256.5,-266 248,-253.54 252.22,-235.14 256.02,-224.18"/>
<polygon fill="orange" stroke="orange" points="286.83,-292.81 297.42,-292.72 289.08,-286.18 286.83,-292.81"/>
</a>
</g>
<text text-anchor="middle" x="304.88" y="-250.5" font-family="Helvetica,sans-Serif" font-size="10.00" fill="grey"> &lt; PosPreviewConfig &gt;</text>
</g>
<!-- Node14 -->
<g id="Node000014" class="node">
<title>Node14</title>
<g id="a_Node000014"><a xlink:title=" ">
<polygon fill="white" stroke="#666666" points="355.15,-396 326.35,-396 326.35,-376 355.15,-376 355.15,-396"/>
<text text-anchor="middle" x="340.75" y="-382.5" font-family="Helvetica,sans-Serif" font-size="10.00">T</text>
</a>
</g>
</g>
<!-- Node14&#45;&gt;Node13 -->
<g id="edge15_Node000013_Node000014" class="edge">
<title>Node14&#45;&gt;Node13</title>
<g id="a_edge15_Node000013_Node000014"><a xlink:title=" ">
<path fill="none" stroke="#9a32cd" stroke-dasharray="5,2" d="M340.75,-364.8C340.75,-347.52 340.75,-323.43 340.75,-310.35"/>
<polygon fill="#9a32cd" stroke="#9a32cd" points="337.25,-364.69 340.75,-374.69 344.25,-364.69 337.25,-364.69"/>
</a>
</g>
<text text-anchor="middle" x="362.12" y="-342.5" font-family="Helvetica,sans-Serif" font-size="10.00" fill="grey"> elements</text>
</g>
</g>
</svg>

<g id="navigator" transform="translate(0 0)" fill="#404254">
  <rect fill="#f2f5e9" fill-opacity="0.5" stroke="#606060" stroke-width=".5" x="0" y="0" width="60" height="60"/>
  <use id="zoomplus" xlink:href="#zoomPlus" x="17" y="9" onmousedown="handleZoom(evt,'in')"/>
  <use id="zoomminus" xlink:href="#zoomMin" x="42" y="9" onmousedown="handleZoom(evt,'out')"/>
  <use id="reset" xlink:href="#resetDef" x="30" y="36" onmousedown="handleReset()"/>
   <use id="arrowup" xlink:href="#arrowUp" x="0" y="0" onmousedown="handlePan(0,-1)"/>
  <use id="arrowright" xlink:href="#arrowRight" x="0" y="0" onmousedown="handlePan(1,0)"/>
  <use id="arrowdown" xlink:href="#arrowDown" x="0" y="0" onmousedown="handlePan(0,1)"/>
  <use id="arrowleft" xlink:href="#arrowLeft" x="0" y="0" onmousedown="handlePan(-1,0)"/>
</g>
<svg viewBox="0 0 15 15" width="100%" height="30px" preserveAspectRatio="xMaxYMin meet">
 <g id="arrow_out" transform="scale(0.3 0.3)">
  <a xlink:href="class_win_pos_wnd_cfg__coll__graph_org.svg" target="_base">
   <rect id="button" ry="5" rx="5" y="6" x="6" height="38" width="38"
        fill="#f2f5e9" fill-opacity="0.5" stroke="#606060" stroke-width="1.0"/>
   <path id="arrow"
     d="M 11.500037,31.436501 C 11.940474,20.09759 22.043105,11.32322 32.158766,21.979434 L 37.068811,17.246167 C 37.068811,17.246167 37.088388,32 37.088388,32 L 22.160133,31.978069 C 22.160133,31.978069 26.997745,27.140456 26.997745,27.140456 C 18.528582,18.264221 13.291696,25.230495 11.500037,31.436501 z"
     style="fill:#404040;"/>
  </a>
 </g>
</svg>

<style type='text/css'>
<![CDATA[
[data-mouse-over-selected='false'] { opacity: 0.7; }
[data-mouse-over-selected='true']  { opacity: 1.0; }
]]>
</style>
<script type="application/ecmascript"><![CDATA[
document.addEventListener('DOMContentLoaded', (event) => {
  highlightEdges();
  highlightAdjacentNodes();
});
]]></script>
</svg>
