<?xml version="1.0" encoding="UTF-8" standalone="no"?>
<!DOCTYPE svg PUBLIC "-//W3C//DTD SVG 1.1//EN"
 "http://www.w3.org/Graphics/SVG/1.1/DTD/svg11.dtd">
<!-- Generated by graphviz version 9.0.0 (20230911.1827)
 -->
<!-- Title: HooksCfg::writeConfigDocument Pages: 1 -->
<svg width="829pt" height="104pt"
 viewBox="0.00 0.00 829.25 104.00" xmlns="http://www.w3.org/2000/svg" xmlns:xlink="http://www.w3.org/1999/xlink">
<g id="graph0" class="graph" transform="scale(1 1) rotate(0) translate(4 100)">
<title>HooksCfg::writeConfigDocument</title>
<!-- Node1 -->
<g id="Node000001" class="node">
<title>Node1</title>
<g id="a_Node000001"><a xlink:title="save the JSON document to the given path">
<polygon fill="#999999" stroke="#666666" points="821.25,-77 665.75,-77 665.75,-57 821.25,-57 821.25,-77"/>
<text text-anchor="middle" x="743.5" y="-63.5" font-family="Helvetica,sans-Serif" font-size="10.00">HooksCfg::writeConfigDocument</text>
</a>
</g>
</g>
<!-- Node2 -->
<g id="Node000002" class="node">
<title>Node2</title>
<g id="a_Node000002"><a xlink:href="class_hooks_cfg.html#a985dd80af3b2ced9ffb520fb7e79a122" target="_top" xlink:title="save the config for this app">
<polygon fill="white" stroke="#666666" points="351.75,-96 223.25,-96 223.25,-76 351.75,-76 351.75,-96"/>
<text text-anchor="middle" x="287.5" y="-82.5" font-family="Helvetica,sans-Serif" font-size="10.00">HooksCfg::writeAppConfig</text>
</a>
</g>
</g>
<!-- Node1&#45;&gt;Node2 -->
<g id="edge1_Node000001_Node000002" class="edge">
<title>Node1&#45;&gt;Node2</title>
<g id="a_edge1_Node000001_Node000002"><a xlink:title=" ">
<path fill="none" stroke="#63b8ff" d="M654.08,-70.7C565.28,-74.42 430.66,-80.05 351.95,-83.34"/>
<polygon fill="#63b8ff" stroke="#63b8ff" points="654.13,-74.2 663.97,-70.29 653.84,-67.21 654.13,-74.2"/>
</a>
</g>
</g>
<!-- Node4 -->
<g id="Node000004" class="node">
<title>Node4</title>
<g id="a_Node000004"><a xlink:href="class_hooks_cfg.html#ac448d3ff024be030d38bafcb0e841a60" target="_top" xlink:title="save global config for all apps">
<polygon fill="white" stroke="#666666" points="629.75,-58 518.5,-58 518.5,-38 629.75,-38 629.75,-58"/>
<text text-anchor="middle" x="574.12" y="-44.5" font-family="Helvetica,sans-Serif" font-size="10.00">HooksCfg::writeConfig</text>
</a>
</g>
</g>
<!-- Node1&#45;&gt;Node4 -->
<g id="edge3_Node000001_Node000004" class="edge">
<title>Node1&#45;&gt;Node4</title>
<g id="a_edge3_Node000001_Node000004"><a xlink:title=" ">
<path fill="none" stroke="#63b8ff" d="M654.37,-57C646.08,-56.05 637.85,-55.12 630.01,-54.23"/>
<polygon fill="#63b8ff" stroke="#63b8ff" points="653.84,-60.46 664.17,-58.11 654.63,-53.5 653.84,-60.46"/>
</a>
</g>
</g>
<!-- Node3 -->
<g id="Node000003" class="node">
<title>Node3</title>
<g id="a_Node000003"><a xlink:href="wi_npo_s-_app_8cpp.html#a8c6630df6bab43efe8254a603885b62e" target="_top" xlink:title=" ">
<polygon fill="white" stroke="#666666" points="61,-77 0,-77 0,-57 61,-57 61,-77"/>
<text text-anchor="middle" x="30.5" y="-63.5" font-family="Helvetica,sans-Serif" font-size="10.00">wWinMain</text>
</a>
</g>
</g>
<!-- Node2&#45;&gt;Node3 -->
<g id="edge2_Node000002_Node000003" class="edge">
<title>Node2&#45;&gt;Node3</title>
<g id="a_edge2_Node000002_Node000003"><a xlink:title=" ">
<path fill="none" stroke="#63b8ff" d="M211.34,-80.4C161.16,-76.66 97.89,-71.95 61.33,-69.22"/>
<polygon fill="#63b8ff" stroke="#63b8ff" points="211.07,-83.89 221.3,-81.14 211.59,-76.91 211.07,-83.89"/>
</a>
</g>
</g>
<!-- Node5 -->
<g id="Node000005" class="node">
<title>Node5</title>
<g id="a_Node000005"><a xlink:href="class_hooks_cfg.html#a22af3c96dcf5d97e276a10872e212cd3" target="_top" xlink:title="stores disabled in config">
<polygon fill="white" stroke="#666666" points="482.5,-58 387.75,-58 387.75,-38 482.5,-38 482.5,-58"/>
<text text-anchor="middle" x="435.12" y="-44.5" font-family="Helvetica,sans-Serif" font-size="10.00">HooksCfg::disable</text>
</a>
</g>
</g>
<!-- Node4&#45;&gt;Node5 -->
<g id="edge4_Node000004_Node000005" class="edge">
<title>Node4&#45;&gt;Node5</title>
<g id="a_edge4_Node000004_Node000005"><a xlink:title=" ">
<path fill="none" stroke="#63b8ff" d="M506.77,-48C498.63,-48 490.46,-48 482.7,-48"/>
<polygon fill="#63b8ff" stroke="#63b8ff" points="506.68,-51.5 516.68,-48 506.68,-44.5 506.68,-51.5"/>
</a>
</g>
</g>
<!-- Node8 -->
<g id="Node000008" class="node">
<title>Node8</title>
<g id="a_Node000008"><a xlink:href="class_hooks_cfg.html#a6b7aaaea554488711f35909aac7a9dba" target="_top" xlink:title="remove disabled from config">
<polygon fill="white" stroke="#666666" points="481.38,-20 388.88,-20 388.88,0 481.38,0 481.38,-20"/>
<text text-anchor="middle" x="435.12" y="-6.5" font-family="Helvetica,sans-Serif" font-size="10.00">HooksCfg::enable</text>
</a>
</g>
</g>
<!-- Node4&#45;&gt;Node8 -->
<g id="edge8_Node000004_Node000008" class="edge">
<title>Node4&#45;&gt;Node8</title>
<g id="a_edge8_Node000004_Node000008"><a xlink:title=" ">
<path fill="none" stroke="#63b8ff" d="M524.65,-34.55C507.95,-29.92 489.51,-24.81 473.8,-20.45"/>
<polygon fill="#63b8ff" stroke="#63b8ff" points="523.3,-37.81 533.87,-37.11 525.17,-31.07 523.3,-37.81"/>
</a>
</g>
</g>
<!-- Node6 -->
<g id="Node000006" class="node">
<title>Node6</title>
<g id="a_Node000006"><a xlink:href="wi_npo_s-_app_8cpp.html#a30a1e3b0304f1b083637664cbda94e72" target="_top" xlink:title="the main window procedure of this app">
<polygon fill="white" stroke="#666666" points="315.75,-58 259.25,-58 259.25,-38 315.75,-38 315.75,-58"/>
<text text-anchor="middle" x="287.5" y="-44.5" font-family="Helvetica,sans-Serif" font-size="10.00">WndProc</text>
</a>
</g>
</g>
<!-- Node5&#45;&gt;Node6 -->
<g id="edge5_Node000005_Node000006" class="edge">
<title>Node5&#45;&gt;Node6</title>
<g id="a_edge5_Node000005_Node000006"><a xlink:title=" ">
<path fill="none" stroke="#63b8ff" d="M376.3,-48C355.47,-48 332.94,-48 315.91,-48"/>
<polygon fill="#63b8ff" stroke="#63b8ff" points="376.13,-51.5 386.13,-48 376.13,-44.5 376.13,-51.5"/>
</a>
</g>
</g>
<!-- Node7 -->
<g id="Node000007" class="node">
<title>Node7</title>
<g id="a_Node000007"><a xlink:href="wi_npo_s-_app_8cpp.html#aa0d0c9beb94350f8eac8fc4026a65375" target="_top" xlink:title=" ">
<polygon fill="white" stroke="#666666" points="187.25,-58 97,-58 97,-38 187.25,-38 187.25,-58"/>
<text text-anchor="middle" x="142.12" y="-44.5" font-family="Helvetica,sans-Serif" font-size="10.00">MyRegisterClass</text>
</a>
</g>
</g>
<!-- Node6&#45;&gt;Node7 -->
<g id="edge6_Node000006_Node000007" class="edge">
<title>Node6&#45;&gt;Node7</title>
<g id="a_edge6_Node000006_Node000007"><a xlink:title=" ">
<path fill="none" stroke="#63b8ff" d="M247.57,-48C229.05,-48 206.8,-48 187.61,-48"/>
<polygon fill="#63b8ff" stroke="#63b8ff" points="247.34,-51.5 257.34,-48 247.34,-44.5 247.34,-51.5"/>
</a>
</g>
</g>
<!-- Node7&#45;&gt;Node3 -->
<g id="edge7_Node000007_Node000003" class="edge">
<title>Node7&#45;&gt;Node3</title>
<g id="a_edge7_Node000007_Node000003"><a xlink:title=" ">
<path fill="none" stroke="#63b8ff" d="M85.3,-57.68C77.02,-59.11 68.77,-60.54 61.31,-61.83"/>
<polygon fill="#63b8ff" stroke="#63b8ff" points="85.79,-61.14 95.05,-55.99 84.59,-54.25 85.79,-61.14"/>
</a>
</g>
</g>
<!-- Node8&#45;&gt;Node6 -->
<g id="edge9_Node000008_Node000006" class="edge">
<title>Node8&#45;&gt;Node6</title>
<g id="a_edge9_Node000008_Node000006"><a xlink:title=" ">
<path fill="none" stroke="#63b8ff" d="M382.86,-23.38C360.4,-29.24 334.92,-35.89 316.11,-40.8"/>
<polygon fill="#63b8ff" stroke="#63b8ff" points="383.69,-26.78 392.48,-20.87 381.92,-20 383.69,-26.78"/>
</a>
</g>
</g>
</g>
</svg>
