<?xml version="1.0" encoding="UTF-8" standalone="no"?>
<!DOCTYPE svg PUBLIC "-//W3C//DTD SVG 1.1//EN"
 "http://www.w3.org/Graphics/SVG/1.1/DTD/svg11.dtd">
<!-- Generated by graphviz version 9.0.0 (20230911.1827)
 -->
<!-- Title: WinPosWnd::getWndHandle Pages: 1 -->
<!--zoomable 104 -->

<svg id="main" version="1.1" xmlns="http://www.w3.org/2000/svg" xmlns:xlink="http://www.w3.org/1999/xlink" xml:space="preserve" onload="init(evt)">
<style type="text/css"><![CDATA[
.node, .edge {opacity: 0.7;}
.node.selected, .edge.selected {opacity: 1;}
.edge:hover path { stroke: red; }
.edge:hover polygon { stroke: red; fill: red; }
]]></style>

<defs>
  <circle id="rim" cx="0" cy="0" r="7"/>
  <circle id="rim2" cx="0" cy="0" r="3.5"/>
  <g id="zoomPlus">
    <use xlink:href="#rim" fill="#404040"><set attributeName="fill" to="#808080" begin="zoomplus.mouseover" end="zoomplus.mouseout"/></use>
    <path d="M-4,0h8M0,-4v8" fill="none" stroke="white" stroke-width="1.5" pointer-events="none"/>
  </g>
  <g id="zoomMin">
    <use xlink:href="#rim" fill="#404040"><set attributeName="fill" to="#808080" begin="zoomminus.mouseover" end="zoomminus.mouseout"/></use>
    <path d="M-4,0h8" fill="none" stroke="white" stroke-width="1.5" pointer-events="none"/>
  </g>
  <g id="arrowUp" transform="translate(30 24)">
    <use xlink:href="#rim"/>
    <path pointer-events="none" fill="none" stroke="white" stroke-width="1.5" d="M0,-3.0v7 M-2.5,-0.5L0,-3.0L2.5,-0.5"/>
  </g>
  <g id="arrowRight" transform="rotate(90) translate(36 -43)">
    <use xlink:href="#rim"/>
    <path pointer-events="none" fill="none" stroke="white" stroke-width="1.5" d="M0,-3.0v7 M-2.5,-0.5L0,-3.0L2.5,-0.5"/>
  </g>
  <g id="arrowDown" transform="rotate(180) translate(-30 -48)">
    <use xlink:href="#rim"/>
    <path pointer-events="none" fill="none" stroke="white" stroke-width="1.5" d="M0,-3.0v7 M-2.5,-0.5L0,-3.0L2.5,-0.5"/>
  </g>
  <g id="arrowLeft" transform="rotate(270) translate(-36 17)">
    <use xlink:href="#rim"/>
    <path pointer-events="none" fill="none" stroke="white" stroke-width="1.5" d="M0,-3.0v7 M-2.5,-0.5L0,-3.0L2.5,-0.5"/>
  </g>
  <g id="resetDef">
    <use xlink:href="#rim2" fill="#404040"><set attributeName="fill" to="#808080" begin="reset.mouseover" end="reset.mouseout"/></use>
  </g>
</defs>
<script type="application/ecmascript">
var viewWidth = 1260;
var viewHeight = 104;
var sectionId = 'dynsection-7';
</script>
<script type="application/ecmascript" xlink:href="svg.min.js"/>
<svg id="graph" class="graph">
<g id="viewport">
<title>WinPosWnd::getWndHandle</title>
<!-- Node1 -->
<g id="Node000001" class="node">
<title>Node1</title>
<g id="a_Node000001"><a xlink:title=" ">
<polygon fill="#999999" stroke="#666666" points="1251.75,-77 1111.25,-77 1111.25,-57 1251.75,-57 1251.75,-77"/>
<text text-anchor="middle" x="1181.5" y="-63.5" font-family="Helvetica,sans-Serif" font-size="10.00">WinPosWnd::getWndHandle</text>
</a>
</g>
</g>
<!-- Node2 -->
<g id="Node000002" class="node">
<title>Node2</title>
<g id="a_Node000002"><a xlink:href="class_hooks_impl.html#a924c5db32f07636c8acbc9421c216112" target="_top" xlink:title=" ">
<polygon fill="white" stroke="#666666" points="899.5,-96 759,-96 759,-76 899.5,-76 899.5,-96"/>
<text text-anchor="middle" x="829.25" y="-82.5" font-family="Helvetica,sans-Serif" font-size="10.00">HooksImpl::onClosePosWnd</text>
</a>
</g>
</g>
<!-- Node1&#45;&gt;Node2 -->
<g id="edge1_Node000001_Node000002" class="edge">
<title>Node1&#45;&gt;Node2</title>
<g id="a_edge1_Node000001_Node000002"><a xlink:title=" ">
<path fill="none" stroke="#63b8ff" d="M1099.47,-71.4C1039,-74.68 957.24,-79.11 899.74,-82.23"/>
<polygon fill="#63b8ff" stroke="#63b8ff" points="1099.58,-74.9 1109.37,-70.86 1099.2,-67.91 1099.58,-74.9"/>
</a>
</g>
</g>
<!-- Node11 -->
<g id="Node000011" class="node">
<title>Node11</title>
<g id="a_Node000011"><a xlink:href="class_hooks_impl.html#ab6696c1ccc12ebdd892883485456ed3c" target="_top" xlink:title=" ">
<polygon fill="white" stroke="#666666" points="1075.25,-58 935.5,-58 935.5,-38 1075.25,-38 1075.25,-58"/>
<text text-anchor="middle" x="1005.38" y="-44.5" font-family="Helvetica,sans-Serif" font-size="10.00">HooksImpl::onShowPosWnd</text>
</a>
</g>
</g>
<!-- Node1&#45;&gt;Node11 -->
<g id="edge10_Node000001_Node000011" class="edge">
<title>Node1&#45;&gt;Node11</title>
<g id="a_edge10_Node000001_Node000011"><a xlink:title=" ">
<path fill="none" stroke="#63b8ff" d="M1099.63,-58.18C1091.58,-57.3 1083.46,-56.41 1075.55,-55.55"/>
<polygon fill="#63b8ff" stroke="#63b8ff" points="1099.11,-61.64 1109.43,-59.24 1099.86,-54.68 1099.11,-61.64"/>
</a>
</g>
</g>
<!-- Node3 -->
<g id="Node000003" class="node">
<title>Node3</title>
<g id="a_Node000003"><a xlink:href="class_hooks_impl.html#a07053e18c49265e300fe89b2a5bc28de" target="_top" xlink:title="here the Windows messages are picked up, which do not appear in the main message loop">
<polygon fill="white" stroke="#666666" points="723,-58 602.75,-58 602.75,-38 723,-38 723,-58"/>
<text text-anchor="middle" x="662.88" y="-44.5" font-family="Helvetica,sans-Serif" font-size="10.00">HooksImpl::getMsgProc</text>
</a>
</g>
</g>
<!-- Node2&#45;&gt;Node3 -->
<g id="edge2_Node000002_Node000003" class="edge">
<title>Node2&#45;&gt;Node3</title>
<g id="a_edge2_Node000002_Node000003"><a xlink:title=" ">
<path fill="none" stroke="#63b8ff" d="M771.8,-72.95C751.32,-68.22 728.46,-62.93 709.08,-58.45"/>
<polygon fill="#63b8ff" stroke="#63b8ff" points="770.89,-76.33 781.42,-75.17 772.47,-69.51 770.89,-76.33"/>
</a>
</g>
</g>
<!-- Node4 -->
<g id="Node000004" class="node">
<title>Node4</title>
<g id="a_Node000004"><a xlink:href="_hooks_impl_8cpp.html#ab9f4b48939788d5aa0f404323b16a957" target="_top" xlink:title="the exported hook for the windows&#45;message procedure">
<polygon fill="white" stroke="#666666" points="566.75,-58 496,-58 496,-38 566.75,-38 566.75,-58"/>
<text text-anchor="middle" x="531.38" y="-44.5" font-family="Helvetica,sans-Serif" font-size="10.00">GetMsgProc</text>
</a>
</g>
</g>
<!-- Node3&#45;&gt;Node4 -->
<g id="edge3_Node000003_Node000004" class="edge">
<title>Node3&#45;&gt;Node4</title>
<g id="a_edge3_Node000003_Node000004"><a xlink:title=" ">
<path fill="none" stroke="#63b8ff" d="M591.07,-48C582.75,-48 574.58,-48 567.09,-48"/>
<polygon fill="#63b8ff" stroke="#63b8ff" points="590.92,-51.5 600.92,-48 590.92,-44.5 590.92,-51.5"/>
</a>
</g>
</g>
<!-- Node5 -->
<g id="Node000005" class="node">
<title>Node5</title>
<g id="a_Node000005"><a xlink:href="class_hooks_mgr.html#a7cfb009127366d7236f5c05c2e4f9ab3" target="_top" xlink:title=" ">
<polygon fill="white" stroke="#666666" points="452.12,-77 360.38,-77 360.38,-57 452.12,-57 452.12,-77"/>
<text text-anchor="middle" x="406.25" y="-63.5" font-family="Helvetica,sans-Serif" font-size="10.00">HooksMgr::install</text>
</a>
</g>
</g>
<!-- Node4&#45;&gt;Node5 -->
<g id="edge4_Node000004_Node000005" class="edge">
<title>Node4&#45;&gt;Node5</title>
<g id="a_edge4_Node000004_Node000005"><a xlink:title=" ">
<path fill="none" stroke="#63b8ff" d="M484.59,-55.07C474,-56.7 462.75,-58.44 452.2,-60.06"/>
<polygon fill="#63b8ff" stroke="#63b8ff" points="484.91,-58.56 494.25,-53.57 483.84,-51.64 484.91,-58.56"/>
</a>
</g>
</g>
<!-- Node9 -->
<g id="Node000009" class="node">
<title>Node9</title>
<g id="a_Node000009"><a xlink:href="class_hooks_mgr.html#a25aacc981b80470642a51175ee56ba01" target="_top" xlink:title=" ">
<polygon fill="white" stroke="#666666" points="460,-39 352.5,-39 352.5,-19 460,-19 460,-39"/>
<text text-anchor="middle" x="406.25" y="-25.5" font-family="Helvetica,sans-Serif" font-size="10.00">HooksMgr::setHooks</text>
</a>
</g>
</g>
<!-- Node4&#45;&gt;Node9 -->
<g id="edge8_Node000004_Node000009" class="edge">
<title>Node4&#45;&gt;Node9</title>
<g id="a_edge8_Node000004_Node000009"><a xlink:title=" ">
<path fill="none" stroke="#63b8ff" d="M484.58,-40.93C476.72,-39.72 468.51,-38.45 460.48,-37.21"/>
<polygon fill="#63b8ff" stroke="#63b8ff" points="483.84,-44.36 494.25,-42.43 484.91,-37.44 483.84,-44.36"/>
</a>
</g>
</g>
<!-- Node6 -->
<g id="Node000006" class="node">
<title>Node6</title>
<g id="a_Node000006"><a xlink:href="wi_npo_s-_app_8cpp.html#a30a1e3b0304f1b083637664cbda94e72" target="_top" xlink:title="the main window procedure of this app">
<polygon fill="white" stroke="#666666" points="298.12,-77 241.62,-77 241.62,-57 298.12,-57 298.12,-77"/>
<text text-anchor="middle" x="269.88" y="-63.5" font-family="Helvetica,sans-Serif" font-size="10.00">WndProc</text>
</a>
</g>
</g>
<!-- Node5&#45;&gt;Node6 -->
<g id="edge5_Node000005_Node000006" class="edge">
<title>Node5&#45;&gt;Node6</title>
<g id="a_edge5_Node000005_Node000006"><a xlink:title=" ">
<path fill="none" stroke="#63b8ff" d="M348.87,-67C331.44,-67 313.01,-67 298.45,-67"/>
<polygon fill="#63b8ff" stroke="#63b8ff" points="348.62,-70.5 358.62,-67 348.62,-63.5 348.62,-70.5"/>
</a>
</g>
</g>
<!-- Node7 -->
<g id="Node000007" class="node">
<title>Node7</title>
<g id="a_Node000007"><a xlink:href="wi_npo_s-_app_8cpp.html#aa0d0c9beb94350f8eac8fc4026a65375" target="_top" xlink:title=" ">
<polygon fill="white" stroke="#666666" points="187.25,-77 97,-77 97,-57 187.25,-57 187.25,-77"/>
<text text-anchor="middle" x="142.12" y="-63.5" font-family="Helvetica,sans-Serif" font-size="10.00">MyRegisterClass</text>
</a>
</g>
</g>
<!-- Node6&#45;&gt;Node7 -->
<g id="edge6_Node000006_Node000007" class="edge">
<title>Node6&#45;&gt;Node7</title>
<g id="a_edge6_Node000006_Node000007"><a xlink:title=" ">
<path fill="none" stroke="#63b8ff" d="M229.97,-67C216.51,-67 201.32,-67 187.46,-67"/>
<polygon fill="#63b8ff" stroke="#63b8ff" points="229.77,-70.5 239.77,-67 229.77,-63.5 229.77,-70.5"/>
</a>
</g>
</g>
<!-- Node8 -->
<g id="Node000008" class="node">
<title>Node8</title>
<g id="a_Node000008"><a xlink:href="wi_npo_s-_app_8cpp.html#a8c6630df6bab43efe8254a603885b62e" target="_top" xlink:title=" ">
<polygon fill="white" stroke="#666666" points="61,-77 0,-77 0,-57 61,-57 61,-77"/>
<text text-anchor="middle" x="30.5" y="-63.5" font-family="Helvetica,sans-Serif" font-size="10.00">wWinMain</text>
</a>
</g>
</g>
<!-- Node7&#45;&gt;Node8 -->
<g id="edge7_Node000007_Node000008" class="edge">
<title>Node7&#45;&gt;Node8</title>
<g id="a_edge7_Node000007_Node000008"><a xlink:title=" ">
<path fill="none" stroke="#63b8ff" d="M85.3,-67C77.02,-67 68.77,-67 61.31,-67"/>
<polygon fill="#63b8ff" stroke="#63b8ff" points="85.02,-70.5 95.02,-67 85.02,-63.5 85.02,-70.5"/>
</a>
</g>
</g>
<!-- Node10 -->
<g id="Node000010" class="node">
<title>Node10</title>
<g id="a_Node000010"><a xlink:href="class_hooks_mgr.html#a5f8aa4cd119cb5d489b0a6f1a2971a79" target="_top" xlink:title=" ">
<polygon fill="white" stroke="#666666" points="316.5,-39 223.25,-39 223.25,-19 316.5,-19 316.5,-39"/>
<text text-anchor="middle" x="269.88" y="-25.5" font-family="Helvetica,sans-Serif" font-size="10.00">HooksMgr::attach</text>
</a>
</g>
</g>
<!-- Node9&#45;&gt;Node10 -->
<g id="edge9_Node000009_Node000010" class="edge">
<title>Node9&#45;&gt;Node10</title>
<g id="a_edge9_Node000009_Node000010"><a xlink:title=" ">
<path fill="none" stroke="#63b8ff" d="M340.73,-29C332.59,-29 324.41,-29 316.65,-29"/>
<polygon fill="#63b8ff" stroke="#63b8ff" points="340.63,-32.5 350.63,-29 340.63,-25.5 340.63,-32.5"/>
</a>
</g>
</g>
<!-- Node11&#45;&gt;Node3 -->
<g id="edge11_Node000011_Node000003" class="edge">
<title>Node11&#45;&gt;Node3</title>
<g id="a_edge11_Node000011_Node000003"><a xlink:title=" ">
<path fill="none" stroke="#63b8ff" d="M923.84,-48C862.35,-48 779,-48 723.43,-48"/>
<polygon fill="#63b8ff" stroke="#63b8ff" points="923.55,-51.5 933.55,-48 923.55,-44.5 923.55,-51.5"/>
</a>
</g>
</g>
<!-- Node12 -->
<g id="Node000012" class="node">
<title>Node12</title>
<g id="a_Node000012"><a xlink:href="class_hooks_impl.html#ae0d26e76e300b5392e64fb070aafe8d5" target="_top" xlink:title="do the work, if necessary">
<polygon fill="white" stroke="#666666" points="895.75,-20 762.75,-20 762.75,0 895.75,0 895.75,-20"/>
<text text-anchor="middle" x="829.25" y="-6.5" font-family="Helvetica,sans-Serif" font-size="10.00">HooksImpl::onCaptionClick</text>
</a>
</g>
</g>
<!-- Node11&#45;&gt;Node12 -->
<g id="edge12_Node000011_Node000012" class="edge">
<title>Node11&#45;&gt;Node12</title>
<g id="a_edge12_Node000011_Node000012"><a xlink:title=" ">
<path fill="none" stroke="#63b8ff" d="M945.18,-35.08C923.33,-30.31 898.86,-24.97 878.13,-20.45"/>
<polygon fill="#63b8ff" stroke="#63b8ff" points="944.34,-38.48 954.85,-37.19 945.83,-31.64 944.34,-38.48"/>
</a>
</g>
</g>
<!-- Node12&#45;&gt;Node3 -->
<g id="edge13_Node000012_Node000003" class="edge">
<title>Node12&#45;&gt;Node3</title>
<g id="a_edge13_Node000012_Node000003"><a xlink:title=" ">
<path fill="none" stroke="#63b8ff" d="M771.8,-23.05C751.32,-27.78 728.46,-33.07 709.08,-37.55"/>
<polygon fill="#63b8ff" stroke="#63b8ff" points="772.47,-26.49 781.42,-20.83 770.89,-19.67 772.47,-26.49"/>
</a>
</g>
</g>
</g>
</svg>

<g id="navigator" transform="translate(0 0)" fill="#404254">
  <rect fill="#f2f5e9" fill-opacity="0.5" stroke="#606060" stroke-width=".5" x="0" y="0" width="60" height="60"/>
  <use id="zoomplus" xlink:href="#zoomPlus" x="17" y="9" onmousedown="handleZoom(evt,'in')"/>
  <use id="zoomminus" xlink:href="#zoomMin" x="42" y="9" onmousedown="handleZoom(evt,'out')"/>
  <use id="reset" xlink:href="#resetDef" x="30" y="36" onmousedown="handleReset()"/>
   <use id="arrowup" xlink:href="#arrowUp" x="0" y="0" onmousedown="handlePan(0,-1)"/>
  <use id="arrowright" xlink:href="#arrowRight" x="0" y="0" onmousedown="handlePan(1,0)"/>
  <use id="arrowdown" xlink:href="#arrowDown" x="0" y="0" onmousedown="handlePan(0,1)"/>
  <use id="arrowleft" xlink:href="#arrowLeft" x="0" y="0" onmousedown="handlePan(-1,0)"/>
</g>
<svg viewBox="0 0 15 15" width="100%" height="30px" preserveAspectRatio="xMaxYMin meet">
 <g id="arrow_out" transform="scale(0.3 0.3)">
  <a xlink:href="class_win_pos_wnd_acb456c59641ec336d5c7646764fe7e6a_icgraph_org.svg" target="_base">
   <rect id="button" ry="5" rx="5" y="6" x="6" height="38" width="38"
        fill="#f2f5e9" fill-opacity="0.5" stroke="#606060" stroke-width="1.0"/>
   <path id="arrow"
     d="M 11.500037,31.436501 C 11.940474,20.09759 22.043105,11.32322 32.158766,21.979434 L 37.068811,17.246167 C 37.068811,17.246167 37.088388,32 37.088388,32 L 22.160133,31.978069 C 22.160133,31.978069 26.997745,27.140456 26.997745,27.140456 C 18.528582,18.264221 13.291696,25.230495 11.500037,31.436501 z"
     style="fill:#404040;"/>
  </a>
 </g>
</svg>

<style type='text/css'>
<![CDATA[
[data-mouse-over-selected='false'] { opacity: 0.7; }
[data-mouse-over-selected='true']  { opacity: 1.0; }
]]>
</style>
<script type="application/ecmascript"><![CDATA[
document.addEventListener('DOMContentLoaded', (event) => {
  highlightEdges();
  highlightAdjacentNodes();
});
]]></script>
</svg>
