<?xml version="1.0" encoding="UTF-8" standalone="no"?>
<!DOCTYPE svg PUBLIC "-//W3C//DTD SVG 1.1//EN"
 "http://www.w3.org/Graphics/SVG/1.1/DTD/svg11.dtd">
<!-- Generated by graphviz version 8.1.0 (20230707.0739)
 -->
<!-- Title: HooksImpl::onWindowPosChanged Pages: 1 -->
<svg width="343pt" height="78pt"
 viewBox="0.00 0.00 343.00 78.00" xmlns="http://www.w3.org/2000/svg" xmlns:xlink="http://www.w3.org/1999/xlink">
<g id="graph0" class="graph" transform="scale(1 1) rotate(0) translate(4 74)">
<title>HooksImpl::onWindowPosChanged</title>
<!-- Node1 -->
<g id="Node000001" class="node">
<title>Node1</title>
<g id="a_Node000001"><a xlink:title="here we react to position changes of the main window">
<polygon fill="#999999" stroke="#666666" points="168.25,-42 0,-42 0,-22 168.25,-22 168.25,-42"/>
<text text-anchor="middle" x="84.12" y="-28.5" font-family="Helvetica,sans-Serif" font-size="10.00">HooksImpl::onWindowPosChanged</text>
</a>
</g>
</g>
<!-- Node2 -->
<g id="Node000002" class="node">
<title>Node2</title>
<g id="a_Node000002"><a xlink:href="class_hooks_impl.html#a8ef5405a747979c1f5197848e4a8e684" target="_top" xlink:title=" ">
<polygon fill="white" stroke="#666666" points="335,-70 204.25,-70 204.25,-38 335,-38 335,-70"/>
<text text-anchor="start" x="212.25" y="-56.5" font-family="Helvetica,sans-Serif" font-size="10.00">HooksImpl::hasCaptionDbl</text>
<text text-anchor="middle" x="269.62" y="-44.5" font-family="Helvetica,sans-Serif" font-size="10.00">Clicked</text>
</a>
</g>
</g>
<!-- Node1&#45;&gt;Node2 -->
<g id="edge1_Node000001_Node000002" class="edge">
<title>Node1&#45;&gt;Node2</title>
<g id="a_edge1_Node000001_Node000002"><a xlink:title=" ">
<path fill="none" stroke="#63b8ff" d="M168.55,-42C176.69,-42.98 184.91,-43.96 192.97,-44.93"/>
<polygon fill="#63b8ff" stroke="#63b8ff" points="192.47,-48.51 202.82,-46.23 193.31,-41.56 192.47,-48.51"/>
</a>
</g>
</g>
<!-- Node3 -->
<g id="Node000003" class="node">
<title>Node3</title>
<g id="a_Node000003"><a xlink:href="class_hooks_impl.html#a7a48621aa5b57024ae963b861fd508cb" target="_top" xlink:title=" ">
<polygon fill="white" stroke="#666666" points="330.88,-20 208.38,-20 208.38,0 330.88,0 330.88,-20"/>
<text text-anchor="middle" x="269.62" y="-6.5" font-family="Helvetica,sans-Serif" font-size="10.00">HooksImpl::hasLastRect</text>
</a>
</g>
</g>
<!-- Node1&#45;&gt;Node3 -->
<g id="edge2_Node000001_Node000003" class="edge">
<title>Node1&#45;&gt;Node3</title>
<g id="a_edge2_Node000001_Node000003"><a xlink:title=" ">
<path fill="none" stroke="#63b8ff" d="M168.55,-22C178.08,-20.86 187.73,-19.7 197.08,-18.58"/>
<polygon fill="#63b8ff" stroke="#63b8ff" points="197.39,-21.95 206.9,-17.28 196.55,-15 197.39,-21.95"/>
</a>
</g>
</g>
</g>
</svg>
