<?xml version="1.0" encoding="UTF-8" standalone="no"?>
<!DOCTYPE svg PUBLIC "-//W3C//DTD SVG 1.1//EN"
 "http://www.w3.org/Graphics/SVG/1.1/DTD/svg11.dtd">
<!-- Generated by graphviz version 8.1.0 (20230707.0739)
 -->
<!-- Title: std::unique_ptr&lt; HooksMgr &gt; Pages: 1 -->
<svg width="303pt" height="188pt"
 viewBox="0.00 0.00 302.50 188.00" xmlns="http://www.w3.org/2000/svg" xmlns:xlink="http://www.w3.org/1999/xlink">
<g id="graph0" class="graph" transform="scale(1 1) rotate(0) translate(4 184)">
<title>std::unique_ptr&lt; HooksMgr &gt;</title>
<!-- Node1 -->
<g id="Node000001" class="node">
<title>Node1</title>
<g id="a_Node000001"><a xlink:title=" ">
<polygon fill="#999999" stroke="#666666" points="179.38,-20 36.62,-20 36.62,0 179.38,0 179.38,-20"/>
<text text-anchor="middle" x="108" y="-6.5" font-family="Helvetica,sans-Serif" font-size="10.00">std::unique_ptr&lt; HooksMgr &gt;</text>
</a>
</g>
</g>
<!-- Node2 -->
<g id="Node000002" class="node">
<title>Node2</title>
<g id="a_Node000002"><a xlink:href="class_hooks_mgr.html" target="_top" xlink:title="Manage the Hooks install / uninstall.">
<polygon fill="white" stroke="#666666" points="138.12,-88 77.88,-88 77.88,-68 138.12,-68 138.12,-88"/>
<text text-anchor="middle" x="108" y="-74.5" font-family="Helvetica,sans-Serif" font-size="10.00">HooksMgr</text>
</a>
</g>
</g>
<!-- Node2&#45;&gt;Node1 -->
<g id="edge1_Node000001_Node000002" class="edge">
<title>Node2&#45;&gt;Node1</title>
<g id="a_edge1_Node000001_Node000002"><a xlink:title=" ">
<path fill="none" stroke="#9a32cd" stroke-dasharray="5,2" d="M108,-56.65C108,-44.58 108,-29.84 108,-20.44"/>
<polygon fill="#9a32cd" stroke="#9a32cd" points="104.5,-56.54 108,-66.54 111.5,-56.54 104.5,-56.54"/>
</a>
</g>
<text text-anchor="middle" x="112.12" y="-40.5" font-family="Helvetica,sans-Serif" font-size="10.00" fill="grey"> p</text>
</g>
<!-- Node3 -->
<g id="Node000003" class="node">
<title>Node3</title>
<g id="a_Node000003"><a xlink:title=" ">
<polygon fill="white" stroke="#666666" points="64,-180 0,-180 0,-160 64,-160 64,-180"/>
<text text-anchor="middle" x="32" y="-166.5" font-family="Helvetica,sans-Serif" font-size="10.00">HMODULE</text>
</a>
</g>
</g>
<!-- Node3&#45;&gt;Node2 -->
<g id="edge2_Node000002_Node000003" class="edge">
<title>Node3&#45;&gt;Node2</title>
<g id="a_edge2_Node000002_Node000003"><a xlink:title=" ">
<path fill="none" stroke="#9a32cd" stroke-dasharray="5,2" d="M36.79,-149.3C40.87,-135.83 47.88,-118.28 59,-106 65.72,-98.59 74.96,-92.77 83.61,-88.46"/>
<polygon fill="#9a32cd" stroke="#9a32cd" points="33.17,-148.27 33.92,-158.84 39.92,-150.1 33.17,-148.27"/>
</a>
</g>
<text text-anchor="middle" x="81.5" y="-120.5" font-family="Helvetica,sans-Serif" font-size="10.00" fill="grey"> _hModule</text>
</g>
<!-- Node4 -->
<g id="Node000004" class="node">
<title>Node4</title>
<g id="a_Node000004"><a xlink:title=" ">
<polygon fill="white" stroke="#666666" points="133.62,-180 82.38,-180 82.38,-160 133.62,-160 133.62,-180"/>
<text text-anchor="middle" x="108" y="-166.5" font-family="Helvetica,sans-Serif" font-size="10.00">HHOOK</text>
</a>
</g>
</g>
<!-- Node4&#45;&gt;Node2 -->
<g id="edge3_Node000002_Node000004" class="edge">
<title>Node4&#45;&gt;Node2</title>
<g id="a_edge3_Node000002_Node000004"><a xlink:title=" ">
<path fill="none" stroke="#9a32cd" stroke-dasharray="5,2" d="M108,-148.75C108,-129.87 108,-102.58 108,-88.38"/>
<polygon fill="#9a32cd" stroke="#9a32cd" points="104.5,-148.71 108,-158.71 111.5,-148.71 104.5,-148.71"/>
</a>
</g>
<text text-anchor="middle" x="150.75" y="-132.5" font-family="Helvetica,sans-Serif" font-size="10.00" fill="grey"> _hhkCallWndProc</text>
<text text-anchor="middle" x="150.75" y="-120.5" font-family="Helvetica,sans-Serif" font-size="10.00" fill="grey">_hhkGetMessage</text>
<text text-anchor="middle" x="150.75" y="-108.5" font-family="Helvetica,sans-Serif" font-size="10.00" fill="grey">_hhkShellHookProc</text>
</g>
<!-- Node5 -->
<g id="Node000005" class="node">
<title>Node5</title>
<g id="a_Node000005"><a xlink:title=" ">
<polygon fill="white" stroke="#666666" points="286.62,-180 151.38,-180 151.38,-160 286.62,-160 286.62,-180"/>
<text text-anchor="middle" x="219" y="-166.5" font-family="Helvetica,sans-Serif" font-size="10.00">PROCESS_INFORMATION</text>
</a>
</g>
</g>
<!-- Node5&#45;&gt;Node2 -->
<g id="edge4_Node000002_Node000005" class="edge">
<title>Node5&#45;&gt;Node2</title>
<g id="a_edge4_Node000002_Node000005"><a xlink:title=" ">
<path fill="none" stroke="#9a32cd" stroke-dasharray="5,2" d="M216.79,-149.06C214.25,-135.21 208.77,-117.29 197,-106 181.27,-90.91 157.38,-84.23 138.31,-81.28"/>
<polygon fill="#9a32cd" stroke="#9a32cd" points="213.47,-149.51 218.36,-158.91 220.4,-148.51 213.47,-149.51"/>
</a>
</g>
<text text-anchor="middle" x="254.75" y="-120.5" font-family="Helvetica,sans-Serif" font-size="10.00" fill="grey"> _childProcessInfo</text>
</g>
</g>
</svg>
