<?xml version="1.0" encoding="UTF-8" standalone="no"?>
<!DOCTYPE svg PUBLIC "-//W3C//DTD SVG 1.1//EN"
 "http://www.w3.org/Graphics/SVG/1.1/DTD/svg11.dtd">
<!-- Generated by graphviz version 8.1.0 (20230707.0739)
 -->
<!-- Title: anonymous_namespace{Utils::cpp}::EnumWindowsProc Pages: 1 -->
<svg width="480pt" height="78pt"
 viewBox="0.00 0.00 479.75 78.00" xmlns="http://www.w3.org/2000/svg" xmlns:xlink="http://www.w3.org/1999/xlink">
<g id="graph0" class="graph" transform="scale(1 1) rotate(0) translate(4 74)">
<title>anonymous_namespace{Utils::cpp}::EnumWindowsProc</title>
<!-- Node1 -->
<g id="Node000001" class="node">
<title>Node1</title>
<g id="a_Node000001"><a xlink:title=" ">
<polygon fill="#999999" stroke="#666666" points="471.75,-48 317,-48 317,-16 471.75,-16 471.75,-48"/>
<text text-anchor="start" x="325" y="-34.5" font-family="Helvetica,sans-Serif" font-size="10.00">anonymous_namespace</text>
<text text-anchor="middle" x="394.38" y="-22.5" font-family="Helvetica,sans-Serif" font-size="10.00">{Utils::cpp}::EnumWindowsProc</text>
</a>
</g>
</g>
<!-- Node2 -->
<g id="Node000002" class="node">
<title>Node2</title>
<g id="a_Node000002"><a xlink:href="namespaceanonymous__namespace_02_utils_8cpp_03.html#a56891ad55436366351fef991050aae78" target="_top" xlink:title=" ">
<polygon fill="white" stroke="#666666" points="281,-70 134.5,-70 134.5,-38 281,-38 281,-70"/>
<text text-anchor="start" x="142.5" y="-56.5" font-family="Helvetica,sans-Serif" font-size="10.00">anonymous_namespace</text>
<text text-anchor="middle" x="207.75" y="-44.5" font-family="Helvetica,sans-Serif" font-size="10.00">{Utils::cpp}::GetDesktopWnds</text>
</a>
</g>
</g>
<!-- Node1&#45;&gt;Node2 -->
<g id="edge1_Node000001_Node000002" class="edge">
<title>Node1&#45;&gt;Node2</title>
<g id="a_edge1_Node000001_Node000002"><a xlink:title=" ">
<path fill="none" stroke="#63b8ff" d="M305.92,-42.42C297.7,-43.4 289.42,-44.39 281.36,-45.35"/>
<polygon fill="#63b8ff" stroke="#63b8ff" points="306.17,-45.8 315.68,-41.14 305.34,-38.85 306.17,-45.8"/>
</a>
</g>
</g>
<!-- Node4 -->
<g id="Node000004" class="node">
<title>Node4</title>
<g id="a_Node000004"><a xlink:href="namespace_utils.html#aefbf8eb72aa82ae8ad287e32d201133e" target="_top" xlink:title=" ">
<polygon fill="white" stroke="#666666" points="259.62,-20 155.88,-20 155.88,0 259.62,0 259.62,-20"/>
<text text-anchor="middle" x="207.75" y="-6.5" font-family="Helvetica,sans-Serif" font-size="10.00">Utils::GetMainWnds</text>
</a>
</g>
</g>
<!-- Node1&#45;&gt;Node4 -->
<g id="edge3_Node000001_Node000004" class="edge">
<title>Node1&#45;&gt;Node4</title>
<g id="a_edge3_Node000001_Node000004"><a xlink:title=" ">
<path fill="none" stroke="#63b8ff" d="M305.85,-21.57C290.13,-19.7 274.23,-17.8 259.97,-16.1"/>
<polygon fill="#63b8ff" stroke="#63b8ff" points="305.34,-25.15 315.68,-22.86 306.17,-18.2 305.34,-25.15"/>
</a>
</g>
</g>
<!-- Node3 -->
<g id="Node000003" class="node">
<title>Node3</title>
<g id="a_Node000003"><a xlink:href="namespace_utils.html#ab14703b5ec22bc4ca2de4f2372ad8f68" target="_top" xlink:title=" ">
<polygon fill="white" stroke="#666666" points="98.5,-64 0,-64 0,-44 98.5,-44 98.5,-64"/>
<text text-anchor="middle" x="49.25" y="-50.5" font-family="Helvetica,sans-Serif" font-size="10.00">Utils::GetMainWnd</text>
</a>
</g>
</g>
<!-- Node2&#45;&gt;Node3 -->
<g id="edge2_Node000002_Node000003" class="edge">
<title>Node2&#45;&gt;Node3</title>
<g id="a_edge2_Node000002_Node000003"><a xlink:title=" ">
<path fill="none" stroke="#63b8ff" d="M123.74,-54C115.28,-54 106.9,-54 98.99,-54"/>
<polygon fill="#63b8ff" stroke="#63b8ff" points="123.46,-57.5 133.46,-54 123.46,-50.5 123.46,-57.5"/>
</a>
</g>
</g>
</g>
</svg>
