<?xml version="1.0" encoding="UTF-8" standalone="no"?>
<!DOCTYPE svg PUBLIC "-//W3C//DTD SVG 1.1//EN"
 "http://www.w3.org/Graphics/SVG/1.1/DTD/svg11.dtd">
<!-- Generated by graphviz version 8.1.0 (20230707.0739)
 -->
<!-- Title: Utils::dformat Pages: 1 -->
<svg width="680pt" height="66pt"
 viewBox="0.00 0.00 680.00 66.00" xmlns="http://www.w3.org/2000/svg" xmlns:xlink="http://www.w3.org/1999/xlink">
<g id="graph0" class="graph" transform="scale(1 1) rotate(0) translate(4 62)">
<title>Utils::dformat</title>
<!-- Node1 -->
<g id="Node000001" class="node">
<title>Node1</title>
<g id="a_Node000001"><a xlink:title=" ">
<polygon fill="#999999" stroke="#666666" points="672,-39 598.25,-39 598.25,-19 672,-19 672,-39"/>
<text text-anchor="middle" x="635.12" y="-25.5" font-family="Helvetica,sans-Serif" font-size="10.00">Utils::dformat</text>
</a>
</g>
</g>
<!-- Node1&#45;&gt;Node1 -->
<g id="edge1_Node000001_Node000001" class="edge">
<title>Node1&#45;&gt;Node1</title>
<g id="a_edge1_Node000001_Node000001"><a xlink:title=" ">
<path fill="none" stroke="#63b8ff" d="M657.75,-49.77C655.28,-53.98 647.74,-57 635.12,-57 613.31,-57 606.66,-47.98 615.18,-39.34"/>
<polygon fill="#63b8ff" stroke="#63b8ff" points="660.95,-49.15 655.07,-40.34 654.17,-50.9 660.95,-49.15"/>
</a>
</g>
</g>
<!-- Node2 -->
<g id="Node000002" class="node">
<title>Node2</title>
<g id="a_Node000002"><a xlink:href="namespace_utils.html#aad1c305219375bf7d3fc42f22b325710" target="_top" xlink:title=" ">
<polygon fill="white" stroke="#666666" points="562.25,-39 457,-39 457,-19 562.25,-19 562.25,-39"/>
<text text-anchor="middle" x="509.62" y="-25.5" font-family="Helvetica,sans-Serif" font-size="10.00">Utils::ShowLastError</text>
</a>
</g>
</g>
<!-- Node1&#45;&gt;Node2 -->
<g id="edge2_Node000001_Node000002" class="edge">
<title>Node1&#45;&gt;Node2</title>
<g id="a_edge2_Node000001_Node000002"><a xlink:title=" ">
<path fill="none" stroke="#63b8ff" d="M587.32,-29C579.23,-29 570.77,-29 562.56,-29"/>
<polygon fill="#63b8ff" stroke="#63b8ff" points="587.07,-32.5 597.07,-29 587.07,-25.5 587.07,-32.5"/>
</a>
</g>
</g>
<!-- Node3 -->
<g id="Node000003" class="node">
<title>Node3</title>
<g id="a_Node000003"><a xlink:href="wi_npo_s-_app_8cpp.html#a14fd7ace25a44831aa57b9ac432860e0" target="_top" xlink:title=" ">
<polygon fill="white" stroke="#666666" points="413.88,-58 322.88,-58 322.88,-38 413.88,-38 413.88,-58"/>
<text text-anchor="middle" x="368.38" y="-44.5" font-family="Helvetica,sans-Serif" font-size="10.00">AttachToProcess</text>
</a>
</g>
</g>
<!-- Node2&#45;&gt;Node3 -->
<g id="edge3_Node000002_Node000003" class="edge">
<title>Node2&#45;&gt;Node3</title>
<g id="a_edge3_Node000002_Node000003"><a xlink:title=" ">
<path fill="none" stroke="#63b8ff" d="M446.06,-37.54C435.24,-39.01 424.18,-40.52 413.96,-41.92"/>
<polygon fill="#63b8ff" stroke="#63b8ff" points="446.34,-40.89 455.77,-36.07 445.39,-33.96 446.34,-40.89"/>
</a>
</g>
</g>
<!-- Node7 -->
<g id="Node000007" class="node">
<title>Node7</title>
<g id="a_Node000007"><a xlink:href="wi_npo_s-_app_8cpp.html#a3257690457ad75cd36bc864f91f8b9c3" target="_top" xlink:title=" ">
<polygon fill="white" stroke="#666666" points="421,-20 315.75,-20 315.75,0 421,0 421,-20"/>
<text text-anchor="middle" x="368.38" y="-6.5" font-family="Helvetica,sans-Serif" font-size="10.00">DetachFromProcess</text>
</a>
</g>
</g>
<!-- Node2&#45;&gt;Node7 -->
<g id="edge7_Node000002_Node000007" class="edge">
<title>Node2&#45;&gt;Node7</title>
<g id="a_edge7_Node000002_Node000007"><a xlink:title=" ">
<path fill="none" stroke="#63b8ff" d="M446.01,-20.46C437.74,-19.33 429.34,-18.18 421.27,-17.08"/>
<polygon fill="#63b8ff" stroke="#63b8ff" points="445.39,-24.04 455.77,-21.93 446.34,-17.11 445.39,-24.04"/>
</a>
</g>
</g>
<!-- Node4 -->
<g id="Node000004" class="node">
<title>Node4</title>
<g id="a_Node000004"><a xlink:href="wi_npo_s-_app_8cpp.html#a30a1e3b0304f1b083637664cbda94e72" target="_top" xlink:title="the main window procedure of this app">
<polygon fill="white" stroke="#666666" points="279.75,-39 223.25,-39 223.25,-19 279.75,-19 279.75,-39"/>
<text text-anchor="middle" x="251.5" y="-25.5" font-family="Helvetica,sans-Serif" font-size="10.00">WndProc</text>
</a>
</g>
</g>
<!-- Node3&#45;&gt;Node4 -->
<g id="edge4_Node000003_Node000004" class="edge">
<title>Node3&#45;&gt;Node4</title>
<g id="a_edge4_Node000003_Node000004"><a xlink:title=" ">
<path fill="none" stroke="#63b8ff" d="M312.05,-38.85C300.93,-37.01 289.7,-35.15 280.04,-33.55"/>
<polygon fill="#63b8ff" stroke="#63b8ff" points="311.2,-42.42 321.63,-40.6 312.34,-35.51 311.2,-42.42"/>
</a>
</g>
</g>
<!-- Node5 -->
<g id="Node000005" class="node">
<title>Node5</title>
<g id="a_Node000005"><a xlink:href="wi_npo_s-_app_8cpp.html#aa0d0c9beb94350f8eac8fc4026a65375" target="_top" xlink:title=" ">
<polygon fill="white" stroke="#666666" points="187.25,-39 97,-39 97,-19 187.25,-19 187.25,-39"/>
<text text-anchor="middle" x="142.12" y="-25.5" font-family="Helvetica,sans-Serif" font-size="10.00">MyRegisterClass</text>
</a>
</g>
</g>
<!-- Node4&#45;&gt;Node5 -->
<g id="edge5_Node000004_Node000005" class="edge">
<title>Node4&#45;&gt;Node5</title>
<g id="a_edge5_Node000004_Node000005"><a xlink:title=" ">
<path fill="none" stroke="#63b8ff" d="M211.97,-29C203.99,-29 195.52,-29 187.35,-29"/>
<polygon fill="#63b8ff" stroke="#63b8ff" points="211.85,-32.5 221.85,-29 211.85,-25.5 211.85,-32.5"/>
</a>
</g>
</g>
<!-- Node6 -->
<g id="Node000006" class="node">
<title>Node6</title>
<g id="a_Node000006"><a xlink:href="wi_npo_s-_app_8cpp.html#a8c6630df6bab43efe8254a603885b62e" target="_top" xlink:title=" ">
<polygon fill="white" stroke="#666666" points="61,-39 0,-39 0,-19 61,-19 61,-39"/>
<text text-anchor="middle" x="30.5" y="-25.5" font-family="Helvetica,sans-Serif" font-size="10.00">wWinMain</text>
</a>
</g>
</g>
<!-- Node5&#45;&gt;Node6 -->
<g id="edge6_Node000005_Node000006" class="edge">
<title>Node5&#45;&gt;Node6</title>
<g id="a_edge6_Node000005_Node000006"><a xlink:title=" ">
<path fill="none" stroke="#63b8ff" d="M85.58,-29C77.21,-29 68.86,-29 61.31,-29"/>
<polygon fill="#63b8ff" stroke="#63b8ff" points="85.54,-32.5 95.54,-29 85.54,-25.5 85.54,-32.5"/>
</a>
</g>
</g>
<!-- Node7&#45;&gt;Node4 -->
<g id="edge8_Node000007_Node000004" class="edge">
<title>Node7&#45;&gt;Node4</title>
<g id="a_edge8_Node000007_Node000004"><a xlink:title=" ">
<path fill="none" stroke="#63b8ff" d="M304.5,-20.4C295.99,-21.81 287.63,-23.19 280.2,-24.42"/>
<polygon fill="#63b8ff" stroke="#63b8ff" points="305.02,-23.7 314.32,-18.61 303.88,-16.79 305.02,-23.7"/>
</a>
</g>
</g>
</g>
</svg>
