<?xml version="1.0" encoding="UTF-8" standalone="no"?>
<!DOCTYPE svg PUBLIC "-//W3C//DTD SVG 1.1//EN"
 "http://www.w3.org/Graphics/SVG/1.1/DTD/svg11.dtd">
<!-- Generated by graphviz version 9.0.0 (20230911.1827)
 -->
<!-- Title: Utils::is_each_of Pages: 1 -->
<svg width="220pt" height="46pt"
 viewBox="0.00 0.00 220.00 46.00" xmlns="http://www.w3.org/2000/svg" xmlns:xlink="http://www.w3.org/1999/xlink">
<g id="graph0" class="graph" transform="scale(1 1) rotate(0) translate(4 42)">
<title>Utils::is_each_of</title>
<!-- Node1 -->
<g id="Node000001" class="node">
<title>Node1</title>
<g id="a_Node000001"><a xlink:title=" ">
<polygon fill="#999999" stroke="#666666" points="88,-20 0,-20 0,0 88,0 88,-20"/>
<text text-anchor="middle" x="44" y="-6.5" font-family="Helvetica,sans-Serif" font-size="10.00">Utils::is_each_of</text>
</a>
</g>
</g>
<!-- Node2 -->
<g id="Node000002" class="node">
<title>Node2</title>
<g id="a_Node000002"><a xlink:href="namespace_utils.html#af8e5c5f8404717acbb753a3111d1c716" target="_top" xlink:title=" ">
<polygon fill="white" stroke="#666666" points="212,-20 124,-20 124,0 212,0 212,-20"/>
<text text-anchor="middle" x="168" y="-6.5" font-family="Helvetica,sans-Serif" font-size="10.00">Utils::is_each_of</text>
</a>
</g>
</g>
<!-- Node1&#45;&gt;Node2 -->
<g id="edge1_Node000001_Node000002" class="edge">
<title>Node1&#45;&gt;Node2</title>
<g id="a_edge1_Node000001_Node000002"><a xlink:title=" ">
<path fill="none" stroke="#63b8ff" d="M88.36,-10C96.18,-10 104.42,-10 112.51,-10"/>
<polygon fill="#63b8ff" stroke="#63b8ff" points="112.27,-13.5 122.27,-10 112.27,-6.5 112.27,-13.5"/>
</a>
</g>
</g>
<!-- Node2&#45;&gt;Node2 -->
<g id="edge2_Node000002_Node000002" class="edge">
<title>Node2&#45;&gt;Node2</title>
<g id="a_edge2_Node000002_Node000002"><a xlink:title=" ">
<path fill="none" stroke="#63b8ff" d="M148.3,-20.34C139.88,-28.98 146.45,-38 168,-38 179.79,-38 187.09,-35.3 189.92,-31.44"/>
<polygon fill="#63b8ff" stroke="#63b8ff" points="193.39,-30.95 188,-21.82 186.52,-32.31 193.39,-30.95"/>
</a>
</g>
</g>
</g>
</svg>
