<?xml version="1.0" encoding="UTF-8" standalone="no"?>
<!DOCTYPE svg PUBLIC "-//W3C//DTD SVG 1.1//EN"
 "http://www.w3.org/Graphics/SVG/1.1/DTD/svg11.dtd">
<!-- Generated by graphviz version 9.0.0 (20230911.1827)
 -->
<!-- Title: Utils::ShowLastError Pages: 1 -->
<svg width="570pt" height="66pt"
 viewBox="0.00 0.00 570.25 66.00" xmlns="http://www.w3.org/2000/svg" xmlns:xlink="http://www.w3.org/1999/xlink">
<g id="graph0" class="graph" transform="scale(1 1) rotate(0) translate(4 62)">
<title>Utils::ShowLastError</title>
<!-- Node1 -->
<g id="Node000001" class="node">
<title>Node1</title>
<g id="a_Node000001"><a xlink:title=" ">
<polygon fill="#999999" stroke="#666666" points="562.25,-39 457,-39 457,-19 562.25,-19 562.25,-39"/>
<text text-anchor="middle" x="509.62" y="-25.5" font-family="Helvetica,sans-Serif" font-size="10.00">Utils::ShowLastError</text>
</a>
</g>
</g>
<!-- Node2 -->
<g id="Node000002" class="node">
<title>Node2</title>
<g id="a_Node000002"><a xlink:href="wi_npo_s-_app_8cpp.html#a14fd7ace25a44831aa57b9ac432860e0" target="_top" xlink:title=" ">
<polygon fill="white" stroke="#666666" points="413.88,-58 322.88,-58 322.88,-38 413.88,-38 413.88,-58"/>
<text text-anchor="middle" x="368.38" y="-44.5" font-family="Helvetica,sans-Serif" font-size="10.00">AttachToProcess</text>
</a>
</g>
</g>
<!-- Node1&#45;&gt;Node2 -->
<g id="edge1_Node000001_Node000002" class="edge">
<title>Node1&#45;&gt;Node2</title>
<g id="a_edge1_Node000001_Node000002"><a xlink:title=" ">
<path fill="none" stroke="#63b8ff" d="M445.39,-37.63C434.78,-39.08 423.97,-40.55 413.96,-41.92"/>
<polygon fill="#63b8ff" stroke="#63b8ff" points="445.84,-41.1 455.27,-36.28 444.89,-34.16 445.84,-41.1"/>
</a>
</g>
</g>
<!-- Node6 -->
<g id="Node000006" class="node">
<title>Node6</title>
<g id="a_Node000006"><a xlink:href="wi_npo_s-_app_8cpp.html#a3257690457ad75cd36bc864f91f8b9c3" target="_top" xlink:title=" ">
<polygon fill="white" stroke="#666666" points="421,-20 315.75,-20 315.75,0 421,0 421,-20"/>
<text text-anchor="middle" x="368.38" y="-6.5" font-family="Helvetica,sans-Serif" font-size="10.00">DetachFromProcess</text>
</a>
</g>
</g>
<!-- Node1&#45;&gt;Node6 -->
<g id="edge5_Node000001_Node000006" class="edge">
<title>Node1&#45;&gt;Node6</title>
<g id="a_edge5_Node000001_Node000006"><a xlink:title=" ">
<path fill="none" stroke="#63b8ff" d="M445.46,-20.38C437.36,-19.28 429.15,-18.16 421.27,-17.08"/>
<polygon fill="#63b8ff" stroke="#63b8ff" points="444.89,-23.84 455.27,-21.72 445.84,-16.9 444.89,-23.84"/>
</a>
</g>
</g>
<!-- Node3 -->
<g id="Node000003" class="node">
<title>Node3</title>
<g id="a_Node000003"><a xlink:href="wi_npo_s-_app_8cpp.html#a30a1e3b0304f1b083637664cbda94e72" target="_top" xlink:title="the main window procedure of this app">
<polygon fill="white" stroke="#666666" points="279.75,-39 223.25,-39 223.25,-19 279.75,-19 279.75,-39"/>
<text text-anchor="middle" x="251.5" y="-25.5" font-family="Helvetica,sans-Serif" font-size="10.00">WndProc</text>
</a>
</g>
</g>
<!-- Node2&#45;&gt;Node3 -->
<g id="edge2_Node000002_Node000003" class="edge">
<title>Node2&#45;&gt;Node3</title>
<g id="a_edge2_Node000002_Node000003"><a xlink:title=" ">
<path fill="none" stroke="#63b8ff" d="M311.37,-38.74C300.47,-36.93 289.5,-35.12 280.04,-33.55"/>
<polygon fill="#63b8ff" stroke="#63b8ff" points="310.7,-42.17 321.14,-40.35 311.84,-35.27 310.7,-42.17"/>
</a>
</g>
</g>
<!-- Node4 -->
<g id="Node000004" class="node">
<title>Node4</title>
<g id="a_Node000004"><a xlink:href="wi_npo_s-_app_8cpp.html#aa0d0c9beb94350f8eac8fc4026a65375" target="_top" xlink:title=" ">
<polygon fill="white" stroke="#666666" points="187.25,-39 97,-39 97,-19 187.25,-19 187.25,-39"/>
<text text-anchor="middle" x="142.12" y="-25.5" font-family="Helvetica,sans-Serif" font-size="10.00">MyRegisterClass</text>
</a>
</g>
</g>
<!-- Node3&#45;&gt;Node4 -->
<g id="edge3_Node000003_Node000004" class="edge">
<title>Node3&#45;&gt;Node4</title>
<g id="a_edge3_Node000003_Node000004"><a xlink:title=" ">
<path fill="none" stroke="#63b8ff" d="M211.42,-29C203.6,-29 195.33,-29 187.35,-29"/>
<polygon fill="#63b8ff" stroke="#63b8ff" points="211.33,-32.5 221.33,-29 211.33,-25.5 211.33,-32.5"/>
</a>
</g>
</g>
<!-- Node5 -->
<g id="Node000005" class="node">
<title>Node5</title>
<g id="a_Node000005"><a xlink:href="wi_npo_s-_app_8cpp.html#a8c6630df6bab43efe8254a603885b62e" target="_top" xlink:title=" ">
<polygon fill="white" stroke="#666666" points="61,-39 0,-39 0,-19 61,-19 61,-39"/>
<text text-anchor="middle" x="30.5" y="-25.5" font-family="Helvetica,sans-Serif" font-size="10.00">wWinMain</text>
</a>
</g>
</g>
<!-- Node4&#45;&gt;Node5 -->
<g id="edge4_Node000004_Node000005" class="edge">
<title>Node4&#45;&gt;Node5</title>
<g id="a_edge4_Node000004_Node000005"><a xlink:title=" ">
<path fill="none" stroke="#63b8ff" d="M85.3,-29C77.02,-29 68.77,-29 61.31,-29"/>
<polygon fill="#63b8ff" stroke="#63b8ff" points="85.02,-32.5 95.02,-29 85.02,-25.5 85.02,-32.5"/>
</a>
</g>
</g>
<!-- Node6&#45;&gt;Node3 -->
<g id="edge6_Node000006_Node000003" class="edge">
<title>Node6&#45;&gt;Node3</title>
<g id="a_edge6_Node000006_Node000003"><a xlink:title=" ">
<path fill="none" stroke="#63b8ff" d="M304.22,-20.45C295.8,-21.84 287.55,-23.2 280.2,-24.42"/>
<polygon fill="#63b8ff" stroke="#63b8ff" points="304.53,-23.94 313.82,-18.86 303.38,-17.04 304.53,-23.94"/>
</a>
</g>
</g>
</g>
</svg>
