<?xml version="1.0" encoding="UTF-8" standalone="no"?>
<!DOCTYPE svg PUBLIC "-//W3C//DTD SVG 1.1//EN"
 "http://www.w3.org/Graphics/SVG/1.1/DTD/svg11.dtd">
<!-- Generated by graphviz version 8.1.0 (20230707.0739)
 -->
<!-- Title: Utils::GetMainWnds Pages: 1 -->
<svg width="306pt" height="90pt"
 viewBox="0.00 0.00 305.50 90.00" xmlns="http://www.w3.org/2000/svg" xmlns:xlink="http://www.w3.org/1999/xlink">
<g id="graph0" class="graph" transform="scale(1 1) rotate(0) translate(4 86)">
<title>Utils::GetMainWnds</title>
<!-- Node1 -->
<g id="Node000001" class="node">
<title>Node1</title>
<g id="a_Node000001"><a xlink:title=" ">
<polygon fill="#999999" stroke="#666666" points="103.75,-51 0,-51 0,-31 103.75,-31 103.75,-51"/>
<text text-anchor="middle" x="51.88" y="-37.5" font-family="Helvetica,sans-Serif" font-size="10.00">Utils::GetMainWnds</text>
</a>
</g>
</g>
<!-- Node2 -->
<g id="Node000002" class="node">
<title>Node2</title>
<g id="a_Node000002"><a xlink:href="namespaceanonymous__namespace_02_utils_8cpp_03.html#a22b1f611333509d9c72eaae66db0405e" target="_top" xlink:title=" ">
<polygon fill="white" stroke="#666666" points="297.5,-82 139.75,-82 139.75,-50 297.5,-50 297.5,-82"/>
<text text-anchor="start" x="147.75" y="-68.5" font-family="Helvetica,sans-Serif" font-size="10.00">anonymous_namespace</text>
<text text-anchor="middle" x="218.62" y="-56.5" font-family="Helvetica,sans-Serif" font-size="10.00">{Utils::cpp}::EnumDesktopProcA</text>
</a>
</g>
</g>
<!-- Node1&#45;&gt;Node2 -->
<g id="edge1_Node000001_Node000002" class="edge">
<title>Node1&#45;&gt;Node2</title>
<g id="a_edge1_Node000001_Node000002"><a xlink:title=" ">
<path fill="none" stroke="#63b8ff" d="M104.1,-48.77C112,-49.97 120.36,-51.24 128.8,-52.52"/>
<polygon fill="#63b8ff" stroke="#63b8ff" points="128.1,-56.11 138.51,-54.15 129.15,-49.19 128.1,-56.11"/>
</a>
</g>
</g>
<!-- Node3 -->
<g id="Node000003" class="node">
<title>Node3</title>
<g id="a_Node000003"><a xlink:href="namespaceanonymous__namespace_02_utils_8cpp_03.html#a93de0f4cd5b604498deff24571ac5f85" target="_top" xlink:title=" ">
<polygon fill="white" stroke="#666666" points="296,-32 141.25,-32 141.25,0 296,0 296,-32"/>
<text text-anchor="start" x="149.25" y="-18.5" font-family="Helvetica,sans-Serif" font-size="10.00">anonymous_namespace</text>
<text text-anchor="middle" x="218.62" y="-6.5" font-family="Helvetica,sans-Serif" font-size="10.00">{Utils::cpp}::EnumWindowsProc</text>
</a>
</g>
</g>
<!-- Node1&#45;&gt;Node3 -->
<g id="edge2_Node000001_Node000003" class="edge">
<title>Node1&#45;&gt;Node3</title>
<g id="a_edge2_Node000001_Node000003"><a xlink:title=" ">
<path fill="none" stroke="#63b8ff" d="M104.1,-33.23C112.43,-31.96 121.25,-30.62 130.16,-29.27"/>
<polygon fill="#63b8ff" stroke="#63b8ff" points="130.67,-32.58 140.03,-27.62 129.62,-25.66 130.67,-32.58"/>
</a>
</g>
</g>
</g>
</svg>
