<?xml version="1.0" encoding="UTF-8" standalone="no"?>
<!DOCTYPE svg PUBLIC "-//W3C//DTD SVG 1.1//EN"
 "http://www.w3.org/Graphics/SVG/1.1/DTD/svg11.dtd">
<!-- Generated by graphviz version 8.1.0 (20230707.0739)
 -->
<!-- Title: WinPosWnd::MonitorPreview Pages: 1 -->
<svg width="1925pt" height="626pt"
 viewBox="0.00 0.00 1924.80 626.21" xmlns="http://www.w3.org/2000/svg" xmlns:xlink="http://www.w3.org/1999/xlink">
<g id="graph0" class="graph" transform="scale(1 1) rotate(0) translate(4 622.21)">
<title>WinPosWnd::MonitorPreview</title>
<!-- Node1 -->
<g id="Node000001" class="node">
<title>Node1</title>
<g id="a_Node000001"><a xlink:title=" ">
<polygon fill="#999999" stroke="#666666" points="811.8,-292.21 669.8,-292.21 669.8,-272.21 811.8,-272.21 811.8,-292.21"/>
<text text-anchor="middle" x="740.8" y="-278.71" font-family="Helvetica,sans-Serif" font-size="10.00">WinPosWnd::MonitorPreview</text>
</a>
</g>
</g>
<!-- Node12 -->
<g id="Node000012" class="node">
<title>Node12</title>
<g id="a_Node000012"><a xlink:title=" ">
<polygon fill="white" stroke="#666666" points="1066.68,-412.21 944.18,-412.21 944.18,-380.21 1066.68,-380.21 1066.68,-412.21"/>
<text text-anchor="start" x="952.18" y="-398.71" font-family="Helvetica,sans-Serif" font-size="10.00">std::shared_ptr&lt; Monitor</text>
<text text-anchor="middle" x="1005.43" y="-386.71" font-family="Helvetica,sans-Serif" font-size="10.00">Preview &gt;</text>
</a>
</g>
</g>
<!-- Node1&#45;&gt;Node12 -->
<g id="edge15_Node000012_Node000001" class="edge">
<title>Node1&#45;&gt;Node12</title>
<g id="a_edge15_Node000012_Node000001"><a xlink:title=" ">
<path fill="none" stroke="#9a32cd" stroke-dasharray="5,2" d="M775.97,-296.82C811.55,-312.06 868.89,-336.68 918.3,-358.21 934.48,-365.27 952.34,-373.13 967.58,-379.87"/>
<polygon fill="#9a32cd" stroke="#9a32cd" points="777.67,-293.31 767.1,-292.59 774.91,-299.75 777.67,-293.31"/>
</a>
</g>
<text text-anchor="middle" x="874.05" y="-372.71" font-family="Helvetica,sans-Serif" font-size="10.00" fill="grey"> dummy</text>
<text text-anchor="middle" x="874.05" y="-360.71" font-family="Helvetica,sans-Serif" font-size="10.00" fill="grey">ptr</text>
</g>
<!-- Node22 -->
<g id="Node000022" class="node">
<title>Node22</title>
<g id="a_Node000022"><a xlink:title=" ">
<polygon fill="white" stroke="#666666" points="1074.55,-178.21 936.3,-178.21 936.3,-146.21 1074.55,-146.21 1074.55,-178.21"/>
<text text-anchor="start" x="944.3" y="-164.71" font-family="Helvetica,sans-Serif" font-size="10.00">std::weak_ptr&lt; WinPosWnd</text>
<text text-anchor="middle" x="1005.43" y="-152.71" font-family="Helvetica,sans-Serif" font-size="10.00">::MonitorPreview &gt;</text>
</a>
</g>
</g>
<!-- Node1&#45;&gt;Node22 -->
<g id="edge34_Node000022_Node000001" class="edge">
<title>Node1&#45;&gt;Node22</title>
<g id="a_edge34_Node000022_Node000001"><a xlink:title=" ">
<path fill="none" stroke="#9a32cd" stroke-dasharray="5,2" d="M761.14,-264.82C778.12,-250.41 804.06,-230.38 829.8,-218.21 866.54,-200.85 879.6,-207.61 918.3,-195.21 933.55,-190.33 950.03,-184.22 964.45,-178.6"/>
<polygon fill="#9a32cd" stroke="#9a32cd" points="759.39,-262.58 754.13,-271.77 763.98,-267.86 759.39,-262.58"/>
</a>
</g>
<text text-anchor="middle" x="874.05" y="-220.71" font-family="Helvetica,sans-Serif" font-size="10.00" fill="grey"> ptr</text>
</g>
<!-- Node2 -->
<g id="Node000002" class="node">
<title>Node2</title>
<g id="a_Node000002"><a xlink:href="class_win_pos_wnd.html" target="_top" xlink:title=" ">
<polygon fill="white" stroke="#666666" points="1570.8,-444.21 1500.05,-444.21 1500.05,-424.21 1570.8,-424.21 1570.8,-444.21"/>
<text text-anchor="middle" x="1535.43" y="-430.71" font-family="Helvetica,sans-Serif" font-size="10.00">WinPosWnd</text>
</a>
</g>
</g>
<!-- Node2&#45;&gt;Node1 -->
<g id="edge1_Node000001_Node000002" class="edge">
<title>Node2&#45;&gt;Node1</title>
<g id="a_edge1_Node000001_Node000002"><a xlink:title=" ">
<path fill="none" stroke="#9a32cd" stroke-dasharray="5,2" d="M1489.33,-431.03C1424.92,-425.46 1303.54,-411.11 1205.8,-377.21 1143.14,-355.48 1138.22,-324.79 1074.55,-306.21 986.7,-280.58 880.54,-277.44 812.13,-278.8"/>
<polygon fill="#9a32cd" stroke="#9a32cd" points="1488.67,-434.57 1498.93,-431.91 1489.25,-427.6 1488.67,-434.57"/>
</a>
</g>
<text text-anchor="middle" x="1140.18" y="-371.71" font-family="Helvetica,sans-Serif" font-size="10.00" fill="grey"> winPosWnd</text>
</g>
<!-- Node4 -->
<g id="Node000004" class="node">
<title>Node4</title>
<g id="a_Node000004"><a xlink:title=" ">
<polygon fill="white" stroke="#666666" points="1916.8,-540.21 1747.05,-540.21 1747.05,-520.21 1916.8,-520.21 1916.8,-540.21"/>
<text text-anchor="middle" x="1831.93" y="-526.71" font-family="Helvetica,sans-Serif" font-size="10.00">std::map&lt; HWND, WinPosWnd * &gt;</text>
</a>
</g>
</g>
<!-- Node2&#45;&gt;Node4 -->
<g id="edge5_Node000004_Node000002" class="edge">
<title>Node2&#45;&gt;Node4</title>
<g id="a_edge5_Node000004_Node000002"><a xlink:title=" ">
<path fill="none" stroke="#9a32cd" stroke-dasharray="5,2" d="M1558.6,-451.01C1578.16,-464.98 1607.96,-484.28 1636.8,-495.21 1671.71,-508.44 1712.08,-516.75 1746.94,-521.93"/>
<polygon fill="#9a32cd" stroke="#9a32cd" points="1561.01,-447.7 1550.87,-444.64 1556.89,-453.36 1561.01,-447.7"/>
</a>
</g>
<text text-anchor="middle" x="1682.93" y="-520.71" font-family="Helvetica,sans-Serif" font-size="10.00" fill="grey"> elements</text>
</g>
<!-- Node3 -->
<g id="Node000003" class="node">
<title>Node3</title>
<g id="a_Node000003"><a xlink:title=" ">
<polygon fill="white" stroke="#666666" points="1344.05,-444.21 1211.8,-444.21 1211.8,-424.21 1344.05,-424.21 1344.05,-444.21"/>
<text text-anchor="middle" x="1277.93" y="-430.71" font-family="Helvetica,sans-Serif" font-size="10.00">static const WNDCLASS *</text>
</a>
</g>
</g>
<!-- Node3&#45;&gt;Node2 -->
<g id="edge2_Node000002_Node000003" class="edge">
<title>Node3&#45;&gt;Node2</title>
<g id="a_edge2_Node000002_Node000003"><a xlink:title=" ">
<path fill="none" stroke="#9a32cd" stroke-dasharray="5,2" d="M1355.37,-434.21C1403.33,-434.21 1462.86,-434.21 1499.75,-434.21"/>
<polygon fill="#9a32cd" stroke="#9a32cd" points="1355.39,-430.71 1345.39,-434.21 1355.39,-437.71 1355.39,-430.71"/>
</a>
</g>
<text text-anchor="middle" x="1401.05" y="-436.71" font-family="Helvetica,sans-Serif" font-size="10.00" fill="grey"> wndClass</text>
</g>
<!-- Node4&#45;&gt;Node2 -->
<g id="edge3_Node000002_Node000004" class="edge">
<title>Node4&#45;&gt;Node2</title>
<g id="a_edge3_Node000002_Node000004"><a xlink:title=" ">
<path fill="none" stroke="#9a32cd" stroke-dasharray="5,2" d="M1801.33,-514.8C1781.31,-504.82 1754.06,-492.08 1729.05,-483.21 1675.06,-464.07 1610.1,-449.15 1571.09,-441.03"/>
<polygon fill="#9a32cd" stroke="#9a32cd" points="1799.58,-518.35 1810.08,-519.74 1802.74,-512.1 1799.58,-518.35"/>
</a>
</g>
<text text-anchor="middle" x="1682.93" y="-485.71" font-family="Helvetica,sans-Serif" font-size="10.00" fill="grey"> hWndToWinPosMap</text>
</g>
<!-- Node5 -->
<g id="Node000005" class="node">
<title>Node5</title>
<g id="a_Node000005"><a xlink:title=" ">
<polygon fill="white" stroke="#666666" points="441.05,-499.21 395.05,-499.21 395.05,-479.21 441.05,-479.21 441.05,-499.21"/>
<text text-anchor="middle" x="418.05" y="-485.71" font-family="Helvetica,sans-Serif" font-size="10.00">HWND</text>
</a>
</g>
</g>
<!-- Node5&#45;&gt;Node1 -->
<g id="edge22_Node000001_Node000005" class="edge">
<title>Node5&#45;&gt;Node1</title>
<g id="a_edge22_Node000001_Node000005"><a xlink:title=" ">
<path fill="none" stroke="#9a32cd" stroke-dasharray="5,2" d="M452.14,-484.53C500.26,-476.34 590.46,-455.65 651.8,-409.21 695,-376.51 724.82,-316.34 735.47,-292.42"/>
<polygon fill="#9a32cd" stroke="#9a32cd" points="451.73,-481.21 442.42,-486.27 452.85,-488.12 451.73,-481.21"/>
</a>
</g>
<text text-anchor="middle" x="578.3" y="-474.71" font-family="Helvetica,sans-Serif" font-size="10.00" fill="grey"> hWnd</text>
</g>
<!-- Node5&#45;&gt;Node4 -->
<g id="edge4_Node000004_Node000005" class="edge">
<title>Node5&#45;&gt;Node4</title>
<g id="a_edge4_Node000004_Node000005"><a xlink:title=" ">
<path fill="none" stroke="#9a32cd" stroke-dasharray="5,2" d="M452.08,-492.18C463.67,-494.32 476.39,-497.97 486.8,-504.21 497.34,-510.53 494.04,-519.27 504.8,-525.21 597.21,-576.3 634.2,-560.21 739.8,-560.21 739.8,-560.21 739.8,-560.21 1536.43,-560.21 1615.57,-560.21 1706.07,-549.36 1765.62,-540.71"/>
<polygon fill="#9a32cd" stroke="#9a32cd" points="452.84,-488.61 442.42,-490.57 451.79,-495.53 452.84,-488.61"/>
</a>
</g>
<text text-anchor="middle" x="1140.18" y="-562.71" font-family="Helvetica,sans-Serif" font-size="10.00" fill="grey"> keys</text>
</g>
<!-- Node9 -->
<g id="Node000009" class="node">
<title>Node9</title>
<g id="a_Node000009"><a xlink:title=" ">
<polygon fill="white" stroke="#666666" points="795.3,-532.21 686.3,-532.21 686.3,-512.21 795.3,-512.21 795.3,-532.21"/>
<text text-anchor="middle" x="740.8" y="-518.71" font-family="Helvetica,sans-Serif" font-size="10.00">std::vector&lt; HWND &gt;</text>
</a>
</g>
</g>
<!-- Node5&#45;&gt;Node9 -->
<g id="edge10_Node000009_Node000005" class="edge">
<title>Node5&#45;&gt;Node9</title>
<g id="a_edge10_Node000009_Node000005"><a xlink:title=" ">
<path fill="none" stroke="#9a32cd" stroke-dasharray="5,2" d="M452.13,-491.42C497.32,-494.58 580.83,-500.93 651.8,-509.21 662.84,-510.5 674.64,-512.09 685.88,-513.72"/>
<polygon fill="#9a32cd" stroke="#9a32cd" points="452.46,-487.86 442.24,-490.67 451.97,-494.85 452.46,-487.86"/>
</a>
</g>
<text text-anchor="middle" x="578.3" y="-511.71" font-family="Helvetica,sans-Serif" font-size="10.00" fill="grey"> elements</text>
</g>
<!-- Node6 -->
<g id="Node000006" class="node">
<title>Node6</title>
<g id="a_Node000006"><a xlink:title=" ">
<polygon fill="white" stroke="#666666" points="204.93,-510.21 114.68,-510.21 114.68,-490.21 204.93,-490.21 204.93,-510.21"/>
<text text-anchor="middle" x="159.8" y="-496.71" font-family="Helvetica,sans-Serif" font-size="10.00">std::map&lt; K, T &gt;</text>
</a>
</g>
</g>
<!-- Node6&#45;&gt;Node4 -->
<g id="edge6_Node000004_Node000006" class="edge">
<title>Node6&#45;&gt;Node4</title>
<g id="a_edge6_Node000004_Node000006"><a xlink:title=" ">
<path fill="none" stroke="orange" stroke-dasharray="5,2" d="M183.52,-516.79C226.71,-546.6 324.62,-606.21 417.05,-606.21 417.05,-606.21 417.05,-606.21 1536.43,-606.21 1640.18,-606.21 1758.17,-561.44 1807.41,-540.62"/>
<polygon fill="orange" stroke="orange" points="185.88,-513.46 175.69,-510.57 181.85,-519.19 185.88,-513.46"/>
</a>
</g>
<text text-anchor="middle" x="1005.43" y="-608.71" font-family="Helvetica,sans-Serif" font-size="10.00" fill="grey"> &lt; HWND, WinPosWnd * &gt;</text>
</g>
<!-- Node7 -->
<g id="Node000007" class="node">
<title>Node7</title>
<g id="a_Node000007"><a xlink:title=" ">
<polygon fill="white" stroke="#666666" points="28.8,-510.21 0,-510.21 0,-490.21 28.8,-490.21 28.8,-510.21"/>
<text text-anchor="middle" x="14.4" y="-496.71" font-family="Helvetica,sans-Serif" font-size="10.00">K</text>
</a>
</g>
</g>
<!-- Node7&#45;&gt;Node6 -->
<g id="edge7_Node000006_Node000007" class="edge">
<title>Node7&#45;&gt;Node6</title>
<g id="a_edge7_Node000006_Node000007"><a xlink:title=" ">
<path fill="none" stroke="#9a32cd" stroke-dasharray="5,2" d="M39.97,-500.21C60.31,-500.21 89.73,-500.21 114.21,-500.21"/>
<polygon fill="#9a32cd" stroke="#9a32cd" points="40.15,-496.71 30.15,-500.21 40.15,-503.71 40.15,-496.71"/>
</a>
</g>
<text text-anchor="middle" x="68.18" y="-502.71" font-family="Helvetica,sans-Serif" font-size="10.00" fill="grey"> keys</text>
</g>
<!-- Node8 -->
<g id="Node000008" class="node">
<title>Node8</title>
<g id="a_Node000008"><a xlink:title=" ">
<polygon fill="white" stroke="#666666" points="28.8,-409.21 0,-409.21 0,-389.21 28.8,-389.21 28.8,-409.21"/>
<text text-anchor="middle" x="14.4" y="-395.71" font-family="Helvetica,sans-Serif" font-size="10.00">T</text>
</a>
</g>
</g>
<!-- Node8&#45;&gt;Node6 -->
<g id="edge8_Node000006_Node000008" class="edge">
<title>Node8&#45;&gt;Node6</title>
<g id="a_edge8_Node000006_Node000008"><a xlink:title=" ">
<path fill="none" stroke="#9a32cd" stroke-dasharray="5,2" d="M29.25,-418.05C34.35,-424.27 40.44,-430.93 46.8,-436.21 74.54,-459.25 111.68,-478.63 135.44,-489.83"/>
<polygon fill="#9a32cd" stroke="#9a32cd" points="31.48,-416.22 22.57,-410.48 25.95,-420.52 31.48,-416.22"/>
</a>
</g>
<text text-anchor="middle" x="68.18" y="-466.71" font-family="Helvetica,sans-Serif" font-size="10.00" fill="grey"> elements</text>
</g>
<!-- Node10 -->
<g id="Node000010" class="node">
<title>Node10</title>
<g id="a_Node000010"><a xlink:title=" ">
<polygon fill="white" stroke="#666666" points="201.93,-452.21 117.68,-452.21 117.68,-432.21 201.93,-432.21 201.93,-452.21"/>
<text text-anchor="middle" x="159.8" y="-438.71" font-family="Helvetica,sans-Serif" font-size="10.00">std::vector&lt; T &gt;</text>
</a>
</g>
</g>
<!-- Node8&#45;&gt;Node10 -->
<g id="edge12_Node000010_Node000008" class="edge">
<title>Node8&#45;&gt;Node10</title>
<g id="a_edge12_Node000010_Node000008"><a xlink:title=" ">
<path fill="none" stroke="#9a32cd" stroke-dasharray="5,2" d="M39.45,-406.42C62.59,-413.36 97.84,-423.93 124.03,-431.79"/>
<polygon fill="#9a32cd" stroke="#9a32cd" points="40.73,-402.86 30.15,-403.34 38.72,-409.56 40.73,-402.86"/>
</a>
</g>
<text text-anchor="middle" x="68.18" y="-422.71" font-family="Helvetica,sans-Serif" font-size="10.00" fill="grey"> elements</text>
</g>
<!-- Node13 -->
<g id="Node000013" class="node">
<title>Node13</title>
<g id="a_Node000013"><a xlink:title=" ">
<polygon fill="white" stroke="#666666" points="212.05,-355.21 107.55,-355.21 107.55,-335.21 212.05,-335.21 212.05,-355.21"/>
<text text-anchor="middle" x="159.8" y="-341.71" font-family="Helvetica,sans-Serif" font-size="10.00">std::shared_ptr&lt; T &gt;</text>
</a>
</g>
</g>
<!-- Node8&#45;&gt;Node13 -->
<g id="edge17_Node000013_Node000008" class="edge">
<title>Node8&#45;&gt;Node13</title>
<g id="a_edge17_Node000013_Node000008"><a xlink:title=" ">
<path fill="none" stroke="#9a32cd" stroke-dasharray="5,2" d="M38.59,-385.21C41.32,-383.78 44.09,-382.41 46.8,-381.21 70.25,-370.86 97.62,-362.01 119.44,-355.67"/>
<polygon fill="#9a32cd" stroke="#9a32cd" points="37.15,-382.56 30.14,-390.5 40.58,-388.67 37.15,-382.56"/>
</a>
</g>
<text text-anchor="middle" x="68.18" y="-395.71" font-family="Helvetica,sans-Serif" font-size="10.00" fill="grey"> dummy</text>
<text text-anchor="middle" x="68.18" y="-383.71" font-family="Helvetica,sans-Serif" font-size="10.00" fill="grey">ptr</text>
</g>
<!-- Node23 -->
<g id="Node000023" class="node">
<title>Node23</title>
<g id="a_Node000023"><a xlink:title=" ">
<polygon fill="white" stroke="#666666" points="329.55,-56.21 231.8,-56.21 231.8,-36.21 329.55,-36.21 329.55,-56.21"/>
<text text-anchor="middle" x="280.68" y="-42.71" font-family="Helvetica,sans-Serif" font-size="10.00">std::weak_ptr&lt; T &gt;</text>
</a>
</g>
</g>
<!-- Node8&#45;&gt;Node23 -->
<g id="edge36_Node000023_Node000008" class="edge">
<title>Node8&#45;&gt;Node23</title>
<g id="a_edge36_Node000023_Node000008"><a xlink:title=" ">
<path fill="none" stroke="#9a32cd" stroke-dasharray="5,2" d="M15.92,-378.06C18.35,-325.1 32.01,-185.44 107.55,-107.21 140.25,-73.35 192.94,-58.25 231.41,-51.53"/>
<polygon fill="#9a32cd" stroke="#9a32cd" points="12.39,-377.67 15.53,-387.79 19.39,-377.92 12.39,-377.67"/>
</a>
</g>
<text text-anchor="middle" x="68.18" y="-209.71" font-family="Helvetica,sans-Serif" font-size="10.00" fill="grey"> ptr</text>
</g>
<!-- Node9&#45;&gt;Node2 -->
<g id="edge9_Node000002_Node000009" class="edge">
<title>Node9&#45;&gt;Node2</title>
<g id="a_edge9_Node000002_Node000009"><a xlink:title=" ">
<path fill="none" stroke="#9a32cd" stroke-dasharray="5,2" d="M806.54,-522.3C941.11,-522.13 1247.08,-519.86 1350.05,-503.21 1412.81,-493.07 1481.7,-461.24 1514.68,-444.59"/>
<polygon fill="#9a32cd" stroke="#9a32cd" points="806.6,-518.8 796.61,-522.31 806.61,-525.8 806.6,-518.8"/>
</a>
</g>
<text text-anchor="middle" x="1140.18" y="-520.71" font-family="Helvetica,sans-Serif" font-size="10.00" fill="grey"> _hWnds</text>
</g>
<!-- Node10&#45;&gt;Node9 -->
<g id="edge11_Node000009_Node000010" class="edge">
<title>Node10&#45;&gt;Node9</title>
<g id="a_edge11_Node000009_Node000010"><a xlink:title=" ">
<path fill="none" stroke="orange" stroke-dasharray="5,2" d="M194.12,-456.78C231.22,-472.32 293.35,-496.28 349.3,-508.21 467.4,-533.4 610.06,-530.33 686.03,-526.12"/>
<polygon fill="orange" stroke="orange" points="195.92,-453.32 185.34,-452.64 193.19,-459.77 195.92,-453.32"/>
</a>
</g>
<text text-anchor="middle" x="418.05" y="-527.71" font-family="Helvetica,sans-Serif" font-size="10.00" fill="grey"> &lt; HWND &gt;</text>
</g>
<!-- Node11 -->
<g id="Node000011" class="node">
<title>Node11</title>
<g id="a_Node000011"><a xlink:title=" ">
<polygon fill="white" stroke="#666666" points="1340.3,-494.21 1215.55,-494.21 1215.55,-462.21 1340.3,-462.21 1340.3,-494.21"/>
<text text-anchor="start" x="1223.55" y="-480.71" font-family="Helvetica,sans-Serif" font-size="10.00">std::vector&lt; std::shared</text>
<text text-anchor="middle" x="1277.93" y="-468.71" font-family="Helvetica,sans-Serif" font-size="10.00">_ptr&lt; MonitorPreview &gt; &gt;</text>
</a>
</g>
</g>
<!-- Node10&#45;&gt;Node11 -->
<g id="edge18_Node000011_Node000010" class="edge">
<title>Node10&#45;&gt;Node11</title>
<g id="a_edge18_Node000011_Node000010"><a xlink:title=" ">
<path fill="none" stroke="orange" stroke-dasharray="5,2" d="M212.92,-443.89C397.13,-449.84 1017.13,-469.83 1215.4,-476.23"/>
<polygon fill="orange" stroke="orange" points="213.29,-440.37 203.18,-443.55 213.06,-447.37 213.29,-440.37"/>
</a>
</g>
<text text-anchor="start" x="697.68" y="-476.71" font-family="Helvetica,sans-Serif" font-size="10.00" fill="grey"> &lt; std::shared_ptr&lt;</text>
<text text-anchor="middle" x="740.8" y="-464.71" font-family="Helvetica,sans-Serif" font-size="10.00" fill="grey"> MonitorPreview &gt; &gt;</text>
</g>
<!-- Node19 -->
<g id="Node000019" class="node">
<title>Node19</title>
<g id="a_Node000019"><a xlink:title=" ">
<polygon fill="white" stroke="#666666" points="486.8,-368.21 349.3,-368.21 349.3,-336.21 486.8,-336.21 486.8,-368.21"/>
<text text-anchor="start" x="357.3" y="-354.71" font-family="Helvetica,sans-Serif" font-size="10.00">std::vector&lt; WinPosPreview</text>
<text text-anchor="middle" x="418.05" y="-342.71" font-family="Helvetica,sans-Serif" font-size="10.00">Ptr &gt;</text>
</a>
</g>
</g>
<!-- Node10&#45;&gt;Node19 -->
<g id="edge28_Node000019_Node000010" class="edge">
<title>Node10&#45;&gt;Node19</title>
<g id="a_edge28_Node000019_Node000010"><a xlink:title=" ">
<path fill="none" stroke="orange" stroke-dasharray="5,2" d="M200.6,-428.23C246.47,-412.12 321.76,-385.68 370.35,-368.61"/>
<polygon fill="orange" stroke="orange" points="199.72,-425.19 191.45,-431.8 202.04,-431.79 199.72,-425.19"/>
</a>
</g>
<text text-anchor="middle" x="280.68" y="-417.71" font-family="Helvetica,sans-Serif" font-size="10.00" fill="grey"> &lt; WinPosPreviewPtr &gt;</text>
</g>
<!-- Node11&#45;&gt;Node2 -->
<g id="edge13_Node000002_Node000011" class="edge">
<title>Node11&#45;&gt;Node2</title>
<g id="a_edge13_Node000002_Node000011"><a xlink:title=" ">
<path fill="none" stroke="#9a32cd" stroke-dasharray="5,2" d="M1351.56,-465.7C1400.18,-457.33 1461.96,-446.69 1499.83,-440.17"/>
<polygon fill="#9a32cd" stroke="#9a32cd" points="1351.04,-462.42 1341.77,-467.56 1352.22,-469.31 1351.04,-462.42"/>
</a>
</g>
<text text-anchor="middle" x="1401.05" y="-464.71" font-family="Helvetica,sans-Serif" font-size="10.00" fill="grey"> _previews</text>
</g>
<!-- Node12&#45;&gt;Node11 -->
<g id="edge14_Node000011_Node000012" class="edge">
<title>Node12&#45;&gt;Node11</title>
<g id="a_edge14_Node000011_Node000012"><a xlink:title=" ">
<path fill="none" stroke="#9a32cd" stroke-dasharray="5,2" d="M1077.78,-399.48C1112.87,-403.7 1154.65,-412.83 1187.8,-432.21 1198.41,-438.42 1195.65,-446.27 1205.8,-453.21 1210.55,-456.47 1215.77,-459.34 1221.16,-461.87"/>
<polygon fill="#9a32cd" stroke="#9a32cd" points="1078.43,-395.92 1068.11,-398.32 1077.68,-402.88 1078.43,-395.92"/>
</a>
</g>
<text text-anchor="middle" x="1140.18" y="-434.71" font-family="Helvetica,sans-Serif" font-size="10.00" fill="grey"> elements</text>
</g>
<!-- Node13&#45;&gt;Node12 -->
<g id="edge16_Node000012_Node000013" class="edge">
<title>Node13&#45;&gt;Node12</title>
<g id="a_edge16_Node000012_Node000013"><a xlink:title=" ">
<path fill="none" stroke="orange" stroke-dasharray="5,2" d="M184.4,-361.43C197.28,-369.33 213.86,-378 230.05,-382.21 264.35,-391.13 767.58,-394.86 943.92,-395.89"/>
<polygon fill="orange" stroke="orange" points="186.65,-358.08 176.34,-355.64 182.88,-363.98 186.65,-358.08"/>
</a>
</g>
<text text-anchor="middle" x="578.3" y="-395.71" font-family="Helvetica,sans-Serif" font-size="10.00" fill="grey"> &lt; MonitorPreview &gt;</text>
</g>
<!-- Node13&#45;&gt;Node19 -->
<g id="edge27_Node000019_Node000013" class="edge">
<title>Node13&#45;&gt;Node19</title>
<g id="a_edge27_Node000019_Node000013"><a xlink:title=" ">
<path fill="none" stroke="#9a32cd" stroke-dasharray="5,2" d="M223.28,-335.77C225.56,-335.56 227.83,-335.37 230.05,-335.21 274.93,-331.99 286.52,-330.82 331.3,-335.21 337.04,-335.78 342.96,-336.55 348.89,-337.45"/>
<polygon fill="#9a32cd" stroke="#9a32cd" points="223.09,-332.38 213.52,-336.92 223.83,-339.34 223.09,-332.38"/>
</a>
</g>
<text text-anchor="middle" x="280.68" y="-337.71" font-family="Helvetica,sans-Serif" font-size="10.00" fill="grey"> elements</text>
</g>
<!-- Node20 -->
<g id="Node000020" class="node">
<title>Node20</title>
<g id="a_Node000020"><a xlink:title=" ">
<polygon fill="white" stroke="#666666" points="1618.8,-216.21 1452.05,-216.21 1452.05,-196.21 1618.8,-196.21 1618.8,-216.21"/>
<text text-anchor="middle" x="1535.43" y="-202.71" font-family="Helvetica,sans-Serif" font-size="10.00">std::shared_ptr&lt; WinPosPreview &gt;</text>
</a>
</g>
</g>
<!-- Node13&#45;&gt;Node20 -->
<g id="edge37_Node000020_Node000013" class="edge">
<title>Node13&#45;&gt;Node20</title>
<g id="a_edge37_Node000020_Node000013"><a xlink:title=" ">
<path fill="none" stroke="orange" stroke-dasharray="5,2" d="M190.05,-329.86C226.42,-311.39 290.86,-280.7 349.3,-263.21 556.93,-201.1 613.87,-198.73 829.8,-180.21 868.99,-176.85 879.64,-172.96 918.3,-180.21 926.74,-181.8 927.89,-185.5 936.3,-187.21 1117.24,-224.14 1335.27,-218.95 1451.65,-212.32"/>
<polygon fill="orange" stroke="orange" points="188.87,-327.05 181.57,-334.72 192.06,-333.27 188.87,-327.05"/>
</a>
</g>
<text text-anchor="middle" x="874.05" y="-182.71" font-family="Helvetica,sans-Serif" font-size="10.00" fill="grey"> &lt; WinPosPreview &gt;</text>
</g>
<!-- Node14 -->
<g id="Node000014" class="node">
<title>Node14</title>
<g id="a_Node000014"><a xlink:title=" ">
<polygon fill="white" stroke="#666666" points="438.8,-292.21 397.3,-292.21 397.3,-272.21 438.8,-272.21 438.8,-292.21"/>
<text text-anchor="middle" x="418.05" y="-278.71" font-family="Helvetica,sans-Serif" font-size="10.00">RECT</text>
</a>
</g>
</g>
<!-- Node14&#45;&gt;Node1 -->
<g id="edge23_Node000001_Node000014" class="edge">
<title>Node14&#45;&gt;Node1</title>
<g id="a_edge23_Node000001_Node000014"><a xlink:title=" ">
<path fill="none" stroke="#9a32cd" stroke-dasharray="5,2" d="M449.89,-282.21C500.12,-282.21 600.86,-282.21 669.31,-282.21"/>
<polygon fill="#9a32cd" stroke="#9a32cd" points="450.11,-278.71 440.11,-282.21 450.11,-285.71 450.11,-278.71"/>
</a>
</g>
<text text-anchor="middle" x="578.3" y="-296.71" font-family="Helvetica,sans-Serif" font-size="10.00" fill="grey"> monitorRect</text>
<text text-anchor="middle" x="578.3" y="-284.71" font-family="Helvetica,sans-Serif" font-size="10.00" fill="grey">prvRect</text>
</g>
<!-- Node14&#45;&gt;Node2 -->
<g id="edge19_Node000002_Node000014" class="edge">
<title>Node14&#45;&gt;Node2</title>
<g id="a_edge19_Node000002_Node000014"><a xlink:title=" ">
<path fill="none" stroke="#9a32cd" stroke-dasharray="5,2" d="M449.01,-294.58C465.22,-300.6 485.77,-307.19 504.8,-310.21 569.32,-320.48 586.47,-310.74 651.8,-310.21 962.15,-307.69 1041.24,-270.28 1350.05,-301.21 1387.95,-305.01 1401.16,-299 1434.05,-318.21 1480.04,-345.07 1515.44,-400.77 1528.72,-423.85"/>
<polygon fill="#9a32cd" stroke="#9a32cd" points="450.64,-291.07 440.05,-290.74 448.12,-297.6 450.64,-291.07"/>
</a>
</g>
<text text-anchor="middle" x="1005.43" y="-299.71" font-family="Helvetica,sans-Serif" font-size="10.00" fill="grey"> _totalRect</text>
</g>
<!-- Node21 -->
<g id="Node000021" class="node">
<title>Node21</title>
<g id="a_Node000021"><a xlink:href="struct_win_pos_wnd_1_1_win_pos_preview.html" target="_top" xlink:title=" ">
<polygon fill="white" stroke="#666666" points="1350.05,-140.21 1205.8,-140.21 1205.8,-120.21 1350.05,-120.21 1350.05,-140.21"/>
<text text-anchor="middle" x="1277.93" y="-126.71" font-family="Helvetica,sans-Serif" font-size="10.00">WinPosWnd::WinPosPreview</text>
</a>
</g>
</g>
<!-- Node14&#45;&gt;Node21 -->
<g id="edge31_Node000021_Node000014" class="edge">
<title>Node14&#45;&gt;Node21</title>
<g id="a_edge31_Node000021_Node000014"><a xlink:title=" ">
<path fill="none" stroke="#9a32cd" stroke-dasharray="5,2" d="M449.38,-270.78C537.64,-237.62 790.56,-143.25 829.8,-136.21 960.66,-112.74 1116.53,-117.99 1205.38,-124.03"/>
<polygon fill="#9a32cd" stroke="#9a32cd" points="448.35,-267.81 440.23,-274.6 450.82,-274.36 448.35,-267.81"/>
</a>
</g>
<text text-anchor="middle" x="874.05" y="-150.71" font-family="Helvetica,sans-Serif" font-size="10.00" fill="grey"> prvRect</text>
<text text-anchor="middle" x="874.05" y="-138.71" font-family="Helvetica,sans-Serif" font-size="10.00" fill="grey">wndRect</text>
</g>
<!-- Node15 -->
<g id="Node000015" class="node">
<title>Node15</title>
<g id="a_Node000015"><a xlink:title=" ">
<polygon fill="white" stroke="#666666" points="1296.43,-368.21 1259.43,-368.21 1259.43,-348.21 1296.43,-348.21 1296.43,-368.21"/>
<text text-anchor="middle" x="1277.93" y="-354.71" font-family="Helvetica,sans-Serif" font-size="10.00">UINT</text>
</a>
</g>
</g>
<!-- Node15&#45;&gt;Node2 -->
<g id="edge20_Node000002_Node000015" class="edge">
<title>Node15&#45;&gt;Node2</title>
<g id="a_edge20_Node000002_Node000015"><a xlink:title=" ">
<path fill="none" stroke="#9a32cd" stroke-dasharray="5,2" d="M1307.39,-356.34C1339.14,-355.18 1391.61,-356.04 1434.05,-370.21 1469.33,-382 1504.62,-408.85 1522.47,-423.76"/>
<polygon fill="#9a32cd" stroke="#9a32cd" points="1307.51,-352.88 1297.69,-356.84 1307.84,-359.87 1307.51,-352.88"/>
</a>
</g>
<text text-anchor="middle" x="1401.05" y="-372.71" font-family="Helvetica,sans-Serif" font-size="10.00" fill="grey"> _closeTimeout</text>
</g>
<!-- Node16 -->
<g id="Node000016" class="node">
<title>Node16</title>
<g id="a_Node000016"><a xlink:title=" ">
<polygon fill="white" stroke="#666666" points="1301.3,-330.21 1254.55,-330.21 1254.55,-310.21 1301.3,-310.21 1301.3,-330.21"/>
<text text-anchor="middle" x="1277.93" y="-316.71" font-family="Helvetica,sans-Serif" font-size="10.00">FLOAT</text>
</a>
</g>
</g>
<!-- Node16&#45;&gt;Node2 -->
<g id="edge21_Node000002_Node000016" class="edge">
<title>Node16&#45;&gt;Node2</title>
<g id="a_edge21_Node000002_Node000016"><a xlink:title=" ">
<path fill="none" stroke="#9a32cd" stroke-dasharray="5,2" d="M1312.44,-319.03C1345.02,-319.17 1395.14,-322.85 1434.05,-341.21 1475.73,-360.88 1511.88,-404.15 1526.95,-423.95"/>
<polygon fill="#9a32cd" stroke="#9a32cd" points="1312.67,-315.54 1302.7,-319.11 1312.72,-322.54 1312.67,-315.54"/>
</a>
</g>
<text text-anchor="middle" x="1401.05" y="-343.71" font-family="Helvetica,sans-Serif" font-size="10.00" fill="grey"> _scale</text>
</g>
<!-- Node17 -->
<g id="Node000017" class="node">
<title>Node17</title>
<g id="a_Node000017"><a xlink:title=" ">
<polygon fill="white" stroke="#666666" points="447.8,-142.21 388.3,-142.21 388.3,-122.21 447.8,-122.21 447.8,-142.21"/>
<text text-anchor="middle" x="418.05" y="-128.71" font-family="Helvetica,sans-Serif" font-size="10.00">std::string</text>
</a>
</g>
</g>
<!-- Node17&#45;&gt;Node1 -->
<g id="edge24_Node000001_Node000017" class="edge">
<title>Node17&#45;&gt;Node1</title>
<g id="a_edge24_Node000001_Node000017"><a xlink:title=" ">
<path fill="none" stroke="#9a32cd" stroke-dasharray="5,2" d="M451.06,-147.18C516.04,-177.57 661.98,-245.82 717.65,-271.85"/>
<polygon fill="#9a32cd" stroke="#9a32cd" points="452.89,-143.71 442.35,-142.64 449.93,-150.05 452.89,-143.71"/>
</a>
</g>
<text text-anchor="middle" x="578.3" y="-251.71" font-family="Helvetica,sans-Serif" font-size="10.00" fill="grey"> device</text>
<text text-anchor="middle" x="578.3" y="-239.71" font-family="Helvetica,sans-Serif" font-size="10.00" fill="grey">name</text>
</g>
<!-- Node17&#45;&gt;Node21 -->
<g id="edge32_Node000021_Node000017" class="edge">
<title>Node17&#45;&gt;Node21</title>
<g id="a_edge32_Node000021_Node000017"><a xlink:title=" ">
<path fill="none" stroke="#9a32cd" stroke-dasharray="5,2" d="M458.96,-125.24C573.36,-106.44 911.97,-59.04 1187.8,-104.21 1208.16,-107.55 1230.44,-114.05 1247.63,-119.71"/>
<polygon fill="#9a32cd" stroke="#9a32cd" points="458.57,-121.93 449.28,-127.02 459.72,-128.83 458.57,-121.93"/>
</a>
</g>
<text text-anchor="middle" x="874.05" y="-89.71" font-family="Helvetica,sans-Serif" font-size="10.00" fill="grey"> name</text>
</g>
<!-- Node18 -->
<g id="Node000018" class="node">
<title>Node18</title>
<g id="a_Node000018"><a xlink:title=" ">
<polygon fill="white" stroke="#666666" points="206.8,-148.21 112.8,-148.21 112.8,-116.21 206.8,-116.21 206.8,-148.21"/>
<text text-anchor="start" x="120.8" y="-134.71" font-family="Helvetica,sans-Serif" font-size="10.00">std::basic_string&lt;</text>
<text text-anchor="middle" x="159.8" y="-122.71" font-family="Helvetica,sans-Serif" font-size="10.00"> Char &gt;</text>
</a>
</g>
</g>
<!-- Node18&#45;&gt;Node17 -->
<g id="edge25_Node000017_Node000018" class="edge">
<title>Node18&#45;&gt;Node17</title>
<g id="a_edge25_Node000017_Node000018"><a xlink:title=" ">
<path fill="none" stroke="#63b8ff" d="M218.09,-132.21C270.86,-132.21 347,-132.21 388.11,-132.21"/>
<polygon fill="#63b8ff" stroke="#63b8ff" points="218.2,-128.71 208.2,-132.21 218.2,-135.71 218.2,-128.71"/>
</a>
</g>
</g>
<!-- Node19&#45;&gt;Node1 -->
<g id="edge26_Node000001_Node000019" class="edge">
<title>Node19&#45;&gt;Node1</title>
<g id="a_edge26_Node000001_Node000019"><a xlink:title=" ">
<path fill="none" stroke="#9a32cd" stroke-dasharray="5,2" d="M497.92,-340.59C543.24,-333.26 601.07,-322.8 651.8,-310.21 671.56,-305.31 693.37,-298.38 710.34,-292.64"/>
<polygon fill="#9a32cd" stroke="#9a32cd" points="497.59,-337.26 488.27,-342.29 498.7,-344.17 497.59,-337.26"/>
</a>
</g>
<text text-anchor="middle" x="578.3" y="-340.71" font-family="Helvetica,sans-Serif" font-size="10.00" fill="grey"> previews</text>
</g>
<!-- Node20&#45;&gt;Node1 -->
<g id="edge29_Node000001_Node000020" class="edge">
<title>Node20&#45;&gt;Node1</title>
<g id="a_edge29_Node000001_Node000020"><a xlink:title=" ">
<path fill="none" stroke="#9a32cd" stroke-dasharray="5,2" d="M1452.63,-218.03C1446.35,-218.81 1440.1,-219.55 1434.05,-220.21 1166.25,-249.5 1097.31,-236.36 829.8,-268.21 821.35,-269.22 812.47,-270.44 803.73,-271.74"/>
<polygon fill="#9a32cd" stroke="#9a32cd" points="1452.73,-221.42 1462.21,-216.68 1451.84,-214.48 1452.73,-221.42"/>
</a>
</g>
<text text-anchor="middle" x="1140.18" y="-247.71" font-family="Helvetica,sans-Serif" font-size="10.00" fill="grey"> activeWinPosPreview</text>
</g>
<!-- Node21&#45;&gt;Node20 -->
<g id="edge30_Node000020_Node000021" class="edge">
<title>Node21&#45;&gt;Node20</title>
<g id="a_edge30_Node000020_Node000021"><a xlink:title=" ">
<path fill="none" stroke="#9a32cd" stroke-dasharray="5,2" d="M1338.64,-143.05C1367.67,-149.74 1402.92,-158.55 1434.05,-168.21 1460.21,-176.34 1489.42,-187.66 1509.56,-195.83"/>
<polygon fill="#9a32cd" stroke="#9a32cd" points="1339.78,-139.49 1329.25,-140.68 1338.22,-146.32 1339.78,-139.49"/>
</a>
</g>
<text text-anchor="middle" x="1401.05" y="-182.71" font-family="Helvetica,sans-Serif" font-size="10.00" fill="grey"> dummy</text>
<text text-anchor="middle" x="1401.05" y="-170.71" font-family="Helvetica,sans-Serif" font-size="10.00" fill="grey">ptr</text>
</g>
<!-- Node22&#45;&gt;Node21 -->
<g id="edge33_Node000021_Node000022" class="edge">
<title>Node22&#45;&gt;Node21</title>
<g id="a_edge33_Node000021_Node000022"><a xlink:title=" ">
<path fill="none" stroke="#9a32cd" stroke-dasharray="5,2" d="M1085.54,-152.85C1123.51,-148.36 1168.65,-143.02 1205.56,-138.66"/>
<polygon fill="#9a32cd" stroke="#9a32cd" points="1085.55,-149.45 1076.03,-154.1 1086.38,-156.4 1085.55,-149.45"/>
</a>
</g>
<text text-anchor="middle" x="1140.18" y="-154.71" font-family="Helvetica,sans-Serif" font-size="10.00" fill="grey"> monitorPreview</text>
</g>
<!-- Node23&#45;&gt;Node22 -->
<g id="edge35_Node000022_Node000023" class="edge">
<title>Node23&#45;&gt;Node22</title>
<g id="a_edge35_Node000022_Node000023"><a xlink:title=" ">
<path fill="none" stroke="orange" stroke-dasharray="5,2" d="M333.52,-33.38C446.48,-8.26 720.52,37.08 918.3,-58.21 956.74,-76.73 984.05,-121.49 996.63,-145.81"/>
<polygon fill="orange" stroke="orange" points="333.08,-30.12 324.1,-35.74 334.63,-36.94 333.08,-30.12"/>
</a>
</g>
<text text-anchor="middle" x="578.3" y="-8.71" font-family="Helvetica,sans-Serif" font-size="10.00" fill="grey"> &lt; WinPosWnd::MonitorPreview &gt;</text>
</g>
</g>
</svg>
