<?xml version="1.0" encoding="UTF-8" standalone="no"?>
<!DOCTYPE svg PUBLIC "-//W3C//DTD SVG 1.1//EN"
 "http://www.w3.org/Graphics/SVG/1.1/DTD/svg11.dtd">
<!-- Generated by graphviz version 8.1.0 (20230707.0739)
 -->
<!-- Title: WinPosWndCfg::MonitorConfig Pages: 1 -->
<svg width="399pt" height="337pt"
 viewBox="0.00 0.00 399.00 337.00" xmlns="http://www.w3.org/2000/svg" xmlns:xlink="http://www.w3.org/1999/xlink">

<svg id="main" version="1.1" xmlns="http://www.w3.org/2000/svg" xmlns:xlink="http://www.w3.org/1999/xlink" xml:space="preserve" onload="init(evt)">
<style type="text/css"><![CDATA[
.node, .edge {opacity: 0.7;}
.node.selected, .edge.selected {opacity: 1;}
.edge:hover path { stroke: red; }
.edge:hover polygon { stroke: red; fill: red; }
]]></style>
<script type="application/ecmascript" xlink:href="svg.min.js"/>
<svg id="graph" class="graph">
<g id="graph0" class="graph" transform="scale(1 1) rotate(0) translate(4 333)">
<title>WinPosWndCfg::MonitorConfig</title>
<!-- Node1 -->
<g id="Node000001" class="node">
<title>Node1</title>
<g id="a_Node000001"><a xlink:title=" ">
<polygon fill="#999999" stroke="#666666" points="186.88,-20 36.62,-20 36.62,0 186.88,0 186.88,-20"/>
<text text-anchor="middle" x="111.75" y="-6.5" font-family="Helvetica,sans-Serif" font-size="10.00">WinPosWndCfg::MonitorConfig</text>
</a>
</g>
</g>
<!-- Node2 -->
<g id="Node000002" class="node">
<title>Node2</title>
<g id="a_Node000002"><a xlink:title=" ">
<polygon fill="white" stroke="#666666" points="41.5,-260 0,-260 0,-240 41.5,-240 41.5,-260"/>
<text text-anchor="middle" x="20.75" y="-246.5" font-family="Helvetica,sans-Serif" font-size="10.00">RECT</text>
</a>
</g>
</g>
<!-- Node2&#45;&gt;Node1 -->
<g id="edge1_Node000001_Node000002" class="edge">
<title>Node2&#45;&gt;Node1</title>
<g id="a_edge1_Node000001_Node000002"><a xlink:title=" ">
<path fill="none" stroke="#9a32cd" stroke-dasharray="5,2" d="M20.57,-228.62C21,-200.12 24.29,-147.21 41.25,-106 55.87,-70.48 86.75,-36.16 102.33,-20.24"/>
<polygon fill="#9a32cd" stroke="#9a32cd" points="17.07,-228.54 20.53,-238.55 24.07,-228.56 17.07,-228.54"/>
</a>
</g>
<text text-anchor="middle" x="69.5" y="-120.5" font-family="Helvetica,sans-Serif" font-size="10.00" fill="grey"> monitorRect</text>
<text text-anchor="middle" x="69.5" y="-108.5" font-family="Helvetica,sans-Serif" font-size="10.00" fill="grey">previewRect</text>
</g>
<!-- Node7 -->
<g id="Node000007" class="node">
<title>Node7</title>
<g id="a_Node000007"><a xlink:href="struct_win_pos_wnd_cfg_1_1_pos_preview_config.html" target="_top" xlink:title=" ">
<polygon fill="white" stroke="#666666" points="255.38,-180 114.12,-180 114.12,-148 255.38,-148 255.38,-180"/>
<text text-anchor="start" x="122.12" y="-166.5" font-family="Helvetica,sans-Serif" font-size="10.00">WinPosWndCfg::PosPreview</text>
<text text-anchor="middle" x="184.75" y="-154.5" font-family="Helvetica,sans-Serif" font-size="10.00">Config</text>
</a>
</g>
</g>
<!-- Node2&#45;&gt;Node7 -->
<g id="edge7_Node000007_Node000002" class="edge">
<title>Node2&#45;&gt;Node7</title>
<g id="a_edge7_Node000007_Node000002"><a xlink:title=" ">
<path fill="none" stroke="#9a32cd" stroke-dasharray="5,2" d="M37.75,-232.51C49.88,-221.48 67.05,-207.33 84.25,-198 97.16,-191 111.82,-185.15 125.87,-180.41"/>
<polygon fill="#9a32cd" stroke="#9a32cd" points="35.78,-229.49 30.87,-238.88 40.56,-234.6 35.78,-229.49"/>
</a>
</g>
<text text-anchor="middle" x="102.5" y="-212.5" font-family="Helvetica,sans-Serif" font-size="10.00" fill="grey"> prvRect</text>
<text text-anchor="middle" x="102.5" y="-200.5" font-family="Helvetica,sans-Serif" font-size="10.00" fill="grey">wndRect</text>
</g>
<!-- Node3 -->
<g id="Node000003" class="node">
<title>Node3</title>
<g id="a_Node000003"><a xlink:title=" ">
<polygon fill="white" stroke="#666666" points="127.5,-260 68,-260 68,-240 127.5,-240 127.5,-260"/>
<text text-anchor="middle" x="97.75" y="-246.5" font-family="Helvetica,sans-Serif" font-size="10.00">std::string</text>
</a>
</g>
</g>
<!-- Node3&#45;&gt;Node1 -->
<g id="edge2_Node000001_Node000003" class="edge">
<title>Node3&#45;&gt;Node1</title>
<g id="a_edge2_Node000001_Node000003"><a xlink:title=" ">
<path fill="none" stroke="#9a32cd" stroke-dasharray="5,2" d="M97.98,-228.96C98.48,-195.54 100.05,-126.35 104.75,-68 106.11,-51.11 108.75,-31.51 110.37,-20.26"/>
<polygon fill="#9a32cd" stroke="#9a32cd" points="94.47,-228.52 97.84,-238.56 101.47,-228.61 94.47,-228.52"/>
</a>
</g>
<text text-anchor="middle" x="116.75" y="-120.5" font-family="Helvetica,sans-Serif" font-size="10.00" fill="grey"> device</text>
<text text-anchor="middle" x="116.75" y="-108.5" font-family="Helvetica,sans-Serif" font-size="10.00" fill="grey">name</text>
</g>
<!-- Node3&#45;&gt;Node7 -->
<g id="edge8_Node000007_Node000003" class="edge">
<title>Node3&#45;&gt;Node7</title>
<g id="a_edge8_Node000007_Node000003"><a xlink:title=" ">
<path fill="none" stroke="#9a32cd" stroke-dasharray="5,2" d="M115.28,-232.08C130.96,-216.94 153.73,-194.95 168.88,-180.32"/>
<polygon fill="#9a32cd" stroke="#9a32cd" points="113.16,-229.23 108.39,-238.69 118.02,-234.26 113.16,-229.23"/>
</a>
</g>
<text text-anchor="middle" x="162.25" y="-206.5" font-family="Helvetica,sans-Serif" font-size="10.00" fill="grey"> name</text>
</g>
<!-- Node4 -->
<g id="Node000004" class="node">
<title>Node4</title>
<g id="a_Node000004"><a xlink:title=" ">
<polygon fill="white" stroke="#666666" points="144.75,-329 50.75,-329 50.75,-297 144.75,-297 144.75,-329"/>
<text text-anchor="start" x="58.75" y="-315.5" font-family="Helvetica,sans-Serif" font-size="10.00">std::basic_string&lt;</text>
<text text-anchor="middle" x="97.75" y="-303.5" font-family="Helvetica,sans-Serif" font-size="10.00"> Char &gt;</text>
</a>
</g>
</g>
<!-- Node4&#45;&gt;Node3 -->
<g id="edge3_Node000003_Node000004" class="edge">
<title>Node4&#45;&gt;Node3</title>
<g id="a_edge3_Node000003_Node000004"><a xlink:title=" ">
<path fill="none" stroke="#63b8ff" d="M97.75,-285.67C97.75,-276.62 97.75,-267.08 97.75,-260.31"/>
<polygon fill="#63b8ff" stroke="#63b8ff" points="94.25,-285.61 97.75,-295.61 101.25,-285.61 94.25,-285.61"/>
</a>
</g>
</g>
<!-- Node5 -->
<g id="Node000005" class="node">
<title>Node5</title>
<g id="a_Node000005"><a xlink:title=" ">
<polygon fill="white" stroke="#666666" points="164,-88 113.5,-88 113.5,-68 164,-68 164,-88"/>
<text text-anchor="middle" x="138.75" y="-74.5" font-family="Helvetica,sans-Serif" font-size="10.00">uint32_t</text>
</a>
</g>
</g>
<!-- Node5&#45;&gt;Node1 -->
<g id="edge4_Node000001_Node000005" class="edge">
<title>Node5&#45;&gt;Node1</title>
<g id="a_edge4_Node000001_Node000005"><a xlink:title=" ">
<path fill="none" stroke="#9a32cd" stroke-dasharray="5,2" d="M130.73,-57.4C125.74,-45.2 119.54,-30.04 115.61,-20.44"/>
<polygon fill="#9a32cd" stroke="#9a32cd" points="127.86,-58.61 134.88,-66.54 134.33,-55.96 127.86,-58.61"/>
</a>
</g>
<text text-anchor="middle" x="139.88" y="-40.5" font-family="Helvetica,sans-Serif" font-size="10.00" fill="grey"> index</text>
</g>
<!-- Node6 -->
<g id="Node000006" class="node">
<title>Node6</title>
<g id="a_Node000006"><a xlink:title=" ">
<polygon fill="white" stroke="#666666" points="337.88,-88 181.62,-88 181.62,-68 337.88,-68 337.88,-88"/>
<text text-anchor="middle" x="259.75" y="-74.5" font-family="Helvetica,sans-Serif" font-size="10.00">std::vector&lt; PosPreviewConfig &gt;</text>
</a>
</g>
</g>
<!-- Node6&#45;&gt;Node1 -->
<g id="edge5_Node000001_Node000006" class="edge">
<title>Node6&#45;&gt;Node1</title>
<g id="a_edge5_Node000001_Node000006"><a xlink:title=" ">
<path fill="none" stroke="#9a32cd" stroke-dasharray="5,2" d="M228.61,-63.11C199.86,-50.29 157.96,-31.61 132.92,-20.44"/>
<polygon fill="#9a32cd" stroke="#9a32cd" points="226.99,-66.67 237.55,-67.54 229.84,-60.27 226.99,-66.67"/>
</a>
</g>
<text text-anchor="middle" x="218.62" y="-40.5" font-family="Helvetica,sans-Serif" font-size="10.00" fill="grey"> previews</text>
</g>
<!-- Node7&#45;&gt;Node6 -->
<g id="edge6_Node000006_Node000007" class="edge">
<title>Node7&#45;&gt;Node6</title>
<g id="a_edge6_Node000006_Node000007"><a xlink:title=" ">
<path fill="none" stroke="#9a32cd" stroke-dasharray="5,2" d="M203.1,-138.93C211.32,-128.53 221.33,-116.39 231,-106 236.69,-99.88 243.49,-93.46 249.04,-88.42"/>
<polygon fill="#9a32cd" stroke="#9a32cd" points="199.78,-136.5 196.38,-146.53 205.3,-140.8 199.78,-136.5"/>
</a>
</g>
<text text-anchor="middle" x="252.12" y="-114.5" font-family="Helvetica,sans-Serif" font-size="10.00" fill="grey"> elements</text>
</g>
<!-- Node8 -->
<g id="Node000008" class="node">
<title>Node8</title>
<g id="a_Node000008"><a xlink:title=" ">
<polygon fill="white" stroke="#666666" points="204,-260 165.5,-260 165.5,-240 204,-240 204,-260"/>
<text text-anchor="middle" x="184.75" y="-246.5" font-family="Helvetica,sans-Serif" font-size="10.00">Units</text>
</a>
</g>
</g>
<!-- Node8&#45;&gt;Node7 -->
<g id="edge9_Node000007_Node000008" class="edge">
<title>Node8&#45;&gt;Node7</title>
<g id="a_edge9_Node000007_Node000008"><a xlink:title=" ">
<path fill="none" stroke="#9a32cd" stroke-dasharray="5,2" d="M184.75,-229.05C184.75,-214.12 184.75,-194 184.75,-180.32"/>
<polygon fill="#9a32cd" stroke="#9a32cd" points="181.25,-228.69 184.75,-238.69 188.25,-228.69 181.25,-228.69"/>
</a>
</g>
<text text-anchor="middle" x="196.75" y="-206.5" font-family="Helvetica,sans-Serif" font-size="10.00" fill="grey"> units</text>
</g>
<!-- Node9 -->
<g id="Node000009" class="node">
<title>Node9</title>
<g id="a_Node000009"><a xlink:title=" ">
<polygon fill="white" stroke="#666666" points="357.88,-174 273.62,-174 273.62,-154 357.88,-154 357.88,-174"/>
<text text-anchor="middle" x="315.75" y="-160.5" font-family="Helvetica,sans-Serif" font-size="10.00">std::vector&lt; T &gt;</text>
</a>
</g>
</g>
<!-- Node9&#45;&gt;Node6 -->
<g id="edge10_Node000006_Node000009" class="edge">
<title>Node9&#45;&gt;Node6</title>
<g id="a_edge10_Node000006_Node000009"><a xlink:title=" ">
<path fill="none" stroke="orange" stroke-dasharray="5,2" d="M303.76,-145.01C292.17,-127.64 275.08,-102 265.98,-88.35"/>
<polygon fill="orange" stroke="orange" points="301.08,-146.31 309.54,-152.69 306.91,-142.43 301.08,-146.31"/>
</a>
</g>
<text text-anchor="middle" x="341.88" y="-114.5" font-family="Helvetica,sans-Serif" font-size="10.00" fill="grey"> &lt; PosPreviewConfig &gt;</text>
</g>
<!-- Node10 -->
<g id="Node000010" class="node">
<title>Node10</title>
<g id="a_Node000010"><a xlink:title=" ">
<polygon fill="white" stroke="#666666" points="330.15,-260 301.35,-260 301.35,-240 330.15,-240 330.15,-260"/>
<text text-anchor="middle" x="315.75" y="-246.5" font-family="Helvetica,sans-Serif" font-size="10.00">T</text>
</a>
</g>
</g>
<!-- Node10&#45;&gt;Node9 -->
<g id="edge11_Node000009_Node000010" class="edge">
<title>Node10&#45;&gt;Node9</title>
<g id="a_edge11_Node000009_Node000010"><a xlink:title=" ">
<path fill="none" stroke="#9a32cd" stroke-dasharray="5,2" d="M315.75,-228.8C315.75,-211.52 315.75,-187.43 315.75,-174.35"/>
<polygon fill="#9a32cd" stroke="#9a32cd" points="312.25,-228.69 315.75,-238.69 319.25,-228.69 312.25,-228.69"/>
</a>
</g>
<text text-anchor="middle" x="337.12" y="-206.5" font-family="Helvetica,sans-Serif" font-size="10.00" fill="grey"> elements</text>
</g>
</g>
</svg>
</svg>

<style type='text/css'>
<![CDATA[
[data-mouse-over-selected='false'] { opacity: 0.7; }
[data-mouse-over-selected='true']  { opacity: 1.0; }
]]>
</style>
<script type="application/ecmascript"><![CDATA[
document.addEventListener('DOMContentLoaded', (event) => {
  highlightEdges();
  highlightAdjacentNodes();
});
]]></script>
</svg>
