<?xml version="1.0" encoding="UTF-8" standalone="no"?>
<!DOCTYPE svg PUBLIC "-//W3C//DTD SVG 1.1//EN"
 "http://www.w3.org/Graphics/SVG/1.1/DTD/svg11.dtd">
<!-- Generated by graphviz version 8.1.0 (20230707.0739)
 -->
<!-- Title: WinPosWndCfg::PosPreviewConfig Pages: 1 -->
<svg width="184pt" height="189pt"
 viewBox="0.00 0.00 184.00 189.00" xmlns="http://www.w3.org/2000/svg" xmlns:xlink="http://www.w3.org/1999/xlink">
<g id="graph0" class="graph" transform="scale(1 1) rotate(0) translate(4 185)">
<title>WinPosWndCfg::PosPreviewConfig</title>
<!-- Node1 -->
<g id="Node000001" class="node">
<title>Node1</title>
<g id="a_Node000001"><a xlink:title=" ">
<polygon fill="#999999" stroke="#666666" points="160.38,-32 19.12,-32 19.12,0 160.38,0 160.38,-32"/>
<text text-anchor="start" x="27.12" y="-18.5" font-family="Helvetica,sans-Serif" font-size="10.00">WinPosWndCfg::PosPreview</text>
<text text-anchor="middle" x="89.75" y="-6.5" font-family="Helvetica,sans-Serif" font-size="10.00">Config</text>
</a>
</g>
</g>
<!-- Node2 -->
<g id="Node000002" class="node">
<title>Node2</title>
<g id="a_Node000002"><a xlink:title=" ">
<polygon fill="white" stroke="#666666" points="41.5,-112 0,-112 0,-92 41.5,-92 41.5,-112"/>
<text text-anchor="middle" x="20.75" y="-98.5" font-family="Helvetica,sans-Serif" font-size="10.00">RECT</text>
</a>
</g>
</g>
<!-- Node2&#45;&gt;Node1 -->
<g id="edge1_Node000001_Node000002" class="edge">
<title>Node2&#45;&gt;Node1</title>
<g id="a_edge1_Node000001_Node000002"><a xlink:title=" ">
<path fill="none" stroke="#9a32cd" stroke-dasharray="5,2" d="M28.83,-81.78C33.61,-71.71 40.29,-59.52 48.25,-50 53.68,-43.51 60.57,-37.42 67.17,-32.28"/>
<polygon fill="#9a32cd" stroke="#9a32cd" points="25.3,-80.1 24.42,-90.66 31.69,-82.96 25.3,-80.1"/>
</a>
</g>
<text text-anchor="middle" x="66.5" y="-64.5" font-family="Helvetica,sans-Serif" font-size="10.00" fill="grey"> prvRect</text>
<text text-anchor="middle" x="66.5" y="-52.5" font-family="Helvetica,sans-Serif" font-size="10.00" fill="grey">wndRect</text>
</g>
<!-- Node3 -->
<g id="Node000003" class="node">
<title>Node3</title>
<g id="a_Node000003"><a xlink:title=" ">
<polygon fill="white" stroke="#666666" points="119.5,-112 60,-112 60,-92 119.5,-92 119.5,-112"/>
<text text-anchor="middle" x="89.75" y="-98.5" font-family="Helvetica,sans-Serif" font-size="10.00">std::string</text>
</a>
</g>
</g>
<!-- Node3&#45;&gt;Node1 -->
<g id="edge2_Node000001_Node000003" class="edge">
<title>Node3&#45;&gt;Node1</title>
<g id="a_edge2_Node000001_Node000003"><a xlink:title=" ">
<path fill="none" stroke="#9a32cd" stroke-dasharray="5,2" d="M89.75,-81.05C89.75,-66.12 89.75,-46 89.75,-32.32"/>
<polygon fill="#9a32cd" stroke="#9a32cd" points="86.25,-80.69 89.75,-90.69 93.25,-80.69 86.25,-80.69"/>
</a>
</g>
<text text-anchor="middle" x="103.25" y="-58.5" font-family="Helvetica,sans-Serif" font-size="10.00" fill="grey"> name</text>
</g>
<!-- Node4 -->
<g id="Node000004" class="node">
<title>Node4</title>
<g id="a_Node000004"><a xlink:title=" ">
<polygon fill="white" stroke="#666666" points="136.75,-181 42.75,-181 42.75,-149 136.75,-149 136.75,-181"/>
<text text-anchor="start" x="50.75" y="-167.5" font-family="Helvetica,sans-Serif" font-size="10.00">std::basic_string&lt;</text>
<text text-anchor="middle" x="89.75" y="-155.5" font-family="Helvetica,sans-Serif" font-size="10.00"> Char &gt;</text>
</a>
</g>
</g>
<!-- Node4&#45;&gt;Node3 -->
<g id="edge3_Node000003_Node000004" class="edge">
<title>Node4&#45;&gt;Node3</title>
<g id="a_edge3_Node000003_Node000004"><a xlink:title=" ">
<path fill="none" stroke="#63b8ff" d="M89.75,-137.67C89.75,-128.62 89.75,-119.08 89.75,-112.31"/>
<polygon fill="#63b8ff" stroke="#63b8ff" points="86.25,-137.61 89.75,-147.61 93.25,-137.61 86.25,-137.61"/>
</a>
</g>
</g>
<!-- Node5 -->
<g id="Node000005" class="node">
<title>Node5</title>
<g id="a_Node000005"><a xlink:title=" ">
<polygon fill="white" stroke="#666666" points="176,-112 137.5,-112 137.5,-92 176,-92 176,-112"/>
<text text-anchor="middle" x="156.75" y="-98.5" font-family="Helvetica,sans-Serif" font-size="10.00">Units</text>
</a>
</g>
</g>
<!-- Node5&#45;&gt;Node1 -->
<g id="edge4_Node000001_Node000005" class="edge">
<title>Node5&#45;&gt;Node1</title>
<g id="a_edge4_Node000001_Node000005"><a xlink:title=" ">
<path fill="none" stroke="#9a32cd" stroke-dasharray="5,2" d="M144.76,-82.73C138.03,-72.8 129.28,-60.45 120.75,-50 115.88,-44.03 110.2,-37.8 105.03,-32.37"/>
<polygon fill="#9a32cd" stroke="#9a32cd" points="142.28,-84.32 150.75,-90.69 148.11,-80.43 142.28,-84.32"/>
</a>
</g>
<text text-anchor="middle" x="149.75" y="-58.5" font-family="Helvetica,sans-Serif" font-size="10.00" fill="grey"> units</text>
</g>
</g>
</svg>
