<?xml version="1.0" encoding="UTF-8" standalone="no"?>
<!DOCTYPE svg PUBLIC "-//W3C//DTD SVG 1.1//EN"
 "http://www.w3.org/Graphics/SVG/1.1/DTD/svg11.dtd">
<!-- Generated by graphviz version 9.0.0 (20230911.1827)
 -->
<!-- Title: WinPosWnd::MonitorPreview Pages: 1 -->
<svg width="1925pt" height="626pt"
 viewBox="0.00 0.00 1924.80 626.21" xmlns="http://www.w3.org/2000/svg" xmlns:xlink="http://www.w3.org/1999/xlink">
<g id="graph0" class="graph" transform="scale(1 1) rotate(0) translate(4 622.21)">
<title>WinPosWnd::MonitorPreview</title>
<!-- Node1 -->
<g id="Node000001" class="node">
<title>Node1</title>
<g id="a_Node000001"><a xlink:title=" ">
<polygon fill="#999999" stroke="#666666" points="811.8,-292.21 669.8,-292.21 669.8,-272.21 811.8,-272.21 811.8,-292.21"/>
<text text-anchor="middle" x="740.8" y="-278.71" font-family="Helvetica,sans-Serif" font-size="10.00">WinPosWnd::MonitorPreview</text>
</a>
</g>
</g>
<!-- Node12 -->
<g id="Node000012" class="node">
<title>Node12</title>
<g id="a_Node000012"><a xlink:title=" ">
<polygon fill="white" stroke="#666666" points="1066.68,-412.21 944.18,-412.21 944.18,-380.21 1066.68,-380.21 1066.68,-412.21"/>
<text text-anchor="start" x="952.18" y="-398.71" font-family="Helvetica,sans-Serif" font-size="10.00">std::shared_ptr&lt; Monitor</text>
<text text-anchor="middle" x="1005.43" y="-386.71" font-family="Helvetica,sans-Serif" font-size="10.00">Preview &gt;</text>
</a>
</g>
</g>
<!-- Node1&#45;&gt;Node12 -->
<g id="edge15_Node000012_Node000001" class="edge">
<title>Node1&#45;&gt;Node12</title>
<g id="a_edge15_Node000012_Node000001"><a xlink:title=" ">
<path fill="none" stroke="#9a32cd" stroke-dasharray="5,2" d="M776.43,-297.02C812.05,-312.27 869.1,-336.77 918.3,-358.21 934.48,-365.27 952.34,-373.13 967.58,-379.87"/>
<polygon fill="#9a32cd" stroke="#9a32cd" points="778.06,-293.91 767.49,-293.19 775.3,-300.34 778.06,-293.91"/>
</a>
</g>
<text text-anchor="middle" x="874.05" y="-372.71" font-family="Helvetica,sans-Serif" font-size="10.00" fill="grey"> dummy</text>
<text text-anchor="middle" x="874.05" y="-360.71" font-family="Helvetica,sans-Serif" font-size="10.00" fill="grey">ptr</text>
</g>
<!-- Node22 -->
<g id="Node000022" class="node">
<title>Node22</title>
<g id="a_Node000022"><a xlink:title=" ">
<polygon fill="white" stroke="#666666" points="1074.55,-178.21 936.3,-178.21 936.3,-146.21 1074.55,-146.21 1074.55,-178.21"/>
<text text-anchor="start" x="944.3" y="-164.71" font-family="Helvetica,sans-Serif" font-size="10.00">std::weak_ptr&lt; WinPosWnd</text>
<text text-anchor="middle" x="1005.43" y="-152.71" font-family="Helvetica,sans-Serif" font-size="10.00">::MonitorPreview &gt;</text>
</a>
</g>
</g>
<!-- Node1&#45;&gt;Node22 -->
<g id="edge34_Node000022_Node000001" class="edge">
<title>Node1&#45;&gt;Node22</title>
<g id="a_edge34_Node000022_Node000001"><a xlink:title=" ">
<path fill="none" stroke="#9a32cd" stroke-dasharray="5,2" d="M761.61,-264.42C778.6,-250.04 804.29,-230.27 829.8,-218.21 866.54,-200.85 879.6,-207.61 918.3,-195.21 933.55,-190.33 950.03,-184.22 964.45,-178.6"/>
<polygon fill="#9a32cd" stroke="#9a32cd" points="759.54,-261.59 754.28,-270.78 764.12,-266.88 759.54,-261.59"/>
</a>
</g>
<text text-anchor="middle" x="874.05" y="-220.71" font-family="Helvetica,sans-Serif" font-size="10.00" fill="grey"> ptr</text>
</g>
<!-- Node2 -->
<g id="Node000002" class="node">
<title>Node2</title>
<g id="a_Node000002"><a xlink:href="class_win_pos_wnd.html" target="_top" xlink:title=" ">
<polygon fill="white" stroke="#666666" points="1570.8,-444.21 1500.05,-444.21 1500.05,-424.21 1570.8,-424.21 1570.8,-444.21"/>
<text text-anchor="middle" x="1535.43" y="-430.71" font-family="Helvetica,sans-Serif" font-size="10.00">WinPosWnd</text>
</a>
</g>
</g>
<!-- Node2&#45;&gt;Node1 -->
<g id="edge1_Node000001_Node000002" class="edge">
<title>Node2&#45;&gt;Node1</title>
<g id="a_edge1_Node000001_Node000002"><a xlink:title=" ">
<path fill="none" stroke="#9a32cd" stroke-dasharray="5,2" d="M1488.53,-430.96C1423.92,-425.34 1303.14,-410.97 1205.8,-377.21 1143.14,-355.48 1138.22,-324.79 1074.55,-306.21 986.7,-280.58 880.54,-277.44 812.13,-278.8"/>
<polygon fill="#9a32cd" stroke="#9a32cd" points="1488.16,-434.44 1498.42,-431.79 1488.74,-427.47 1488.16,-434.44"/>
</a>
</g>
<text text-anchor="middle" x="1140.18" y="-371.71" font-family="Helvetica,sans-Serif" font-size="10.00" fill="grey"> winPosWnd</text>
</g>
<!-- Node4 -->
<g id="Node000004" class="node">
<title>Node4</title>
<g id="a_Node000004"><a xlink:title=" ">
<polygon fill="white" stroke="#666666" points="1916.8,-540.21 1747.05,-540.21 1747.05,-520.21 1916.8,-520.21 1916.8,-540.21"/>
<text text-anchor="middle" x="1831.93" y="-526.71" font-family="Helvetica,sans-Serif" font-size="10.00">std::map&lt; HWND, WinPosWnd * &gt;</text>
</a>
</g>
</g>
<!-- Node2&#45;&gt;Node4 -->
<g id="edge5_Node000004_Node000002" class="edge">
<title>Node2&#45;&gt;Node4</title>
<g id="a_edge5_Node000004_Node000002"><a xlink:title=" ">
<path fill="none" stroke="#9a32cd" stroke-dasharray="5,2" d="M1559.14,-451.39C1578.7,-465.33 1608.22,-484.38 1636.8,-495.21 1671.71,-508.44 1712.08,-516.75 1746.94,-521.93"/>
<polygon fill="#9a32cd" stroke="#9a32cd" points="1561.24,-448.59 1551.1,-445.53 1557.12,-454.24 1561.24,-448.59"/>
</a>
</g>
<text text-anchor="middle" x="1682.93" y="-520.71" font-family="Helvetica,sans-Serif" font-size="10.00" fill="grey"> elements</text>
</g>
<!-- Node3 -->
<g id="Node000003" class="node">
<title>Node3</title>
<g id="a_Node000003"><a xlink:title=" ">
<polygon fill="white" stroke="#666666" points="1344.05,-444.21 1211.8,-444.21 1211.8,-424.21 1344.05,-424.21 1344.05,-444.21"/>
<text text-anchor="middle" x="1277.93" y="-430.71" font-family="Helvetica,sans-Serif" font-size="10.00">static const WNDCLASS *</text>
</a>
</g>
</g>
<!-- Node3&#45;&gt;Node2 -->
<g id="edge2_Node000002_Node000003" class="edge">
<title>Node3&#45;&gt;Node2</title>
<g id="a_edge2_Node000002_Node000003"><a xlink:title=" ">
<path fill="none" stroke="#9a32cd" stroke-dasharray="5,2" d="M1355.67,-434.21C1403.58,-434.21 1462.94,-434.21 1499.75,-434.21"/>
<polygon fill="#9a32cd" stroke="#9a32cd" points="1355.9,-430.71 1345.9,-434.21 1355.9,-437.71 1355.9,-430.71"/>
</a>
</g>
<text text-anchor="middle" x="1401.05" y="-436.71" font-family="Helvetica,sans-Serif" font-size="10.00" fill="grey"> wndClass</text>
</g>
<!-- Node4&#45;&gt;Node2 -->
<g id="edge3_Node000002_Node000004" class="edge">
<title>Node4&#45;&gt;Node2</title>
<g id="a_edge3_Node000002_Node000004"><a xlink:title=" ">
<path fill="none" stroke="#9a32cd" stroke-dasharray="5,2" d="M1801.05,-514.66C1781.06,-504.7 1753.95,-492.04 1729.05,-483.21 1675.06,-464.07 1610.1,-449.15 1571.09,-441.03"/>
<polygon fill="#9a32cd" stroke="#9a32cd" points="1799.23,-517.67 1809.73,-519.05 1802.39,-511.42 1799.23,-517.67"/>
</a>
</g>
<text text-anchor="middle" x="1682.93" y="-485.71" font-family="Helvetica,sans-Serif" font-size="10.00" fill="grey"> hWndToWinPosMap</text>
</g>
<!-- Node5 -->
<g id="Node000005" class="node">
<title>Node5</title>
<g id="a_Node000005"><a xlink:title=" ">
<polygon fill="white" stroke="#666666" points="441.05,-499.21 395.05,-499.21 395.05,-479.21 441.05,-479.21 441.05,-499.21"/>
<text text-anchor="middle" x="418.05" y="-485.71" font-family="Helvetica,sans-Serif" font-size="10.00">HWND</text>
</a>
</g>
</g>
<!-- Node5&#45;&gt;Node1 -->
<g id="edge22_Node000001_Node000005" class="edge">
<title>Node5&#45;&gt;Node1</title>
<g id="a_edge22_Node000001_Node000005"><a xlink:title=" ">
<path fill="none" stroke="#9a32cd" stroke-dasharray="5,2" d="M452.76,-484.42C501.02,-476.16 590.71,-455.45 651.8,-409.21 695,-376.51 724.82,-316.34 735.47,-292.42"/>
<polygon fill="#9a32cd" stroke="#9a32cd" points="452.23,-480.96 442.92,-486.02 453.35,-487.87 452.23,-480.96"/>
</a>
</g>
<text text-anchor="middle" x="578.3" y="-474.71" font-family="Helvetica,sans-Serif" font-size="10.00" fill="grey"> hWnd</text>
</g>
<!-- Node5&#45;&gt;Node4 -->
<g id="edge4_Node000004_Node000005" class="edge">
<title>Node5&#45;&gt;Node4</title>
<g id="a_edge4_Node000004_Node000005"><a xlink:title=" ">
<path fill="none" stroke="#9a32cd" stroke-dasharray="5,2" d="M452.8,-492.32C464.19,-494.47 476.6,-498.1 486.8,-504.21 497.34,-510.53 494.04,-519.26 504.8,-525.21 597.21,-576.3 634.2,-560.21 739.8,-560.21 739.8,-560.21 739.8,-560.21 1536.43,-560.21 1615.57,-560.21 1706.07,-549.36 1765.62,-540.7"/>
<polygon fill="#9a32cd" stroke="#9a32cd" points="453.34,-488.86 442.92,-490.8 452.27,-495.78 453.34,-488.86"/>
</a>
</g>
<text text-anchor="middle" x="1140.18" y="-562.71" font-family="Helvetica,sans-Serif" font-size="10.00" fill="grey"> keys</text>
</g>
<!-- Node9 -->
<g id="Node000009" class="node">
<title>Node9</title>
<g id="a_Node000009"><a xlink:title=" ">
<polygon fill="white" stroke="#666666" points="795.3,-532.21 686.3,-532.21 686.3,-512.21 795.3,-512.21 795.3,-532.21"/>
<text text-anchor="middle" x="740.8" y="-518.71" font-family="Helvetica,sans-Serif" font-size="10.00">std::vector&lt; HWND &gt;</text>
</a>
</g>
</g>
<!-- Node5&#45;&gt;Node9 -->
<g id="edge10_Node000009_Node000005" class="edge">
<title>Node5&#45;&gt;Node9</title>
<g id="a_edge10_Node000009_Node000005"><a xlink:title=" ">
<path fill="none" stroke="#9a32cd" stroke-dasharray="5,2" d="M452.71,-491.46C498.03,-494.63 581.14,-500.96 651.8,-509.21 662.84,-510.5 674.64,-512.09 685.88,-513.72"/>
<polygon fill="#9a32cd" stroke="#9a32cd" points="452.97,-487.97 442.75,-490.77 452.48,-494.95 452.97,-487.97"/>
</a>
</g>
<text text-anchor="middle" x="578.3" y="-511.71" font-family="Helvetica,sans-Serif" font-size="10.00" fill="grey"> elements</text>
</g>
<!-- Node6 -->
<g id="Node000006" class="node">
<title>Node6</title>
<g id="a_Node000006"><a xlink:title=" ">
<polygon fill="white" stroke="#666666" points="204.93,-510.21 114.68,-510.21 114.68,-490.21 204.93,-490.21 204.93,-510.21"/>
<text text-anchor="middle" x="159.8" y="-496.71" font-family="Helvetica,sans-Serif" font-size="10.00">std::map&lt; K, T &gt;</text>
</a>
</g>
</g>
<!-- Node6&#45;&gt;Node4 -->
<g id="edge6_Node000004_Node000006" class="edge">
<title>Node6&#45;&gt;Node4</title>
<g id="a_edge6_Node000004_Node000006"><a xlink:title=" ">
<path fill="none" stroke="orange" stroke-dasharray="5,2" d="M184.07,-517.16C227.53,-547.1 325.01,-606.21 417.05,-606.21 417.05,-606.21 417.05,-606.21 1536.43,-606.21 1640.18,-606.21 1758.17,-561.44 1807.41,-540.62"/>
<polygon fill="orange" stroke="orange" points="186.12,-514.32 175.92,-511.44 182.09,-520.05 186.12,-514.32"/>
</a>
</g>
<text text-anchor="middle" x="1005.43" y="-608.71" font-family="Helvetica,sans-Serif" font-size="10.00" fill="grey"> &lt; HWND, WinPosWnd * &gt;</text>
</g>
<!-- Node7 -->
<g id="Node000007" class="node">
<title>Node7</title>
<g id="a_Node000007"><a xlink:title=" ">
<polygon fill="white" stroke="#666666" points="28.8,-510.21 0,-510.21 0,-490.21 28.8,-490.21 28.8,-510.21"/>
<text text-anchor="middle" x="14.4" y="-496.71" font-family="Helvetica,sans-Serif" font-size="10.00">K</text>
</a>
</g>
</g>
<!-- Node7&#45;&gt;Node6 -->
<g id="edge7_Node000006_Node000007" class="edge">
<title>Node7&#45;&gt;Node6</title>
<g id="a_edge7_Node000006_Node000007"><a xlink:title=" ">
<path fill="none" stroke="#9a32cd" stroke-dasharray="5,2" d="M40.54,-500.21C60.86,-500.21 89.96,-500.21 114.21,-500.21"/>
<polygon fill="#9a32cd" stroke="#9a32cd" points="40.66,-496.71 30.66,-500.21 40.66,-503.71 40.66,-496.71"/>
</a>
</g>
<text text-anchor="middle" x="68.18" y="-502.71" font-family="Helvetica,sans-Serif" font-size="10.00" fill="grey"> keys</text>
</g>
<!-- Node8 -->
<g id="Node000008" class="node">
<title>Node8</title>
<g id="a_Node000008"><a xlink:title=" ">
<polygon fill="white" stroke="#666666" points="28.8,-409.21 0,-409.21 0,-389.21 28.8,-389.21 28.8,-409.21"/>
<text text-anchor="middle" x="14.4" y="-395.71" font-family="Helvetica,sans-Serif" font-size="10.00">T</text>
</a>
</g>
</g>
<!-- Node8&#45;&gt;Node6 -->
<g id="edge8_Node000006_Node000008" class="edge">
<title>Node8&#45;&gt;Node6</title>
<g id="a_edge8_Node000006_Node000008"><a xlink:title=" ">
<path fill="none" stroke="#9a32cd" stroke-dasharray="5,2" d="M29.6,-418.49C34.63,-424.58 40.59,-431.05 46.8,-436.21 74.54,-459.25 111.68,-478.62 135.44,-489.83"/>
<polygon fill="#9a32cd" stroke="#9a32cd" points="32.42,-416.4 23.5,-410.68 26.9,-420.71 32.42,-416.4"/>
</a>
</g>
<text text-anchor="middle" x="68.18" y="-466.71" font-family="Helvetica,sans-Serif" font-size="10.00" fill="grey"> elements</text>
</g>
<!-- Node10 -->
<g id="Node000010" class="node">
<title>Node10</title>
<g id="a_Node000010"><a xlink:title=" ">
<polygon fill="white" stroke="#666666" points="201.93,-452.21 117.68,-452.21 117.68,-432.21 201.93,-432.21 201.93,-452.21"/>
<text text-anchor="middle" x="159.8" y="-438.71" font-family="Helvetica,sans-Serif" font-size="10.00">std::vector&lt; T &gt;</text>
</a>
</g>
</g>
<!-- Node8&#45;&gt;Node10 -->
<g id="edge12_Node000010_Node000008" class="edge">
<title>Node8&#45;&gt;Node10</title>
<g id="a_edge12_Node000010_Node000008"><a xlink:title=" ">
<path fill="none" stroke="#9a32cd" stroke-dasharray="5,2" d="M40.08,-406.61C63.23,-413.55 98.07,-424 124.03,-431.79"/>
<polygon fill="#9a32cd" stroke="#9a32cd" points="41.18,-403.29 30.6,-403.77 39.17,-410 41.18,-403.29"/>
</a>
</g>
<text text-anchor="middle" x="68.18" y="-422.71" font-family="Helvetica,sans-Serif" font-size="10.00" fill="grey"> elements</text>
</g>
<!-- Node13 -->
<g id="Node000013" class="node">
<title>Node13</title>
<g id="a_Node000013"><a xlink:title=" ">
<polygon fill="white" stroke="#666666" points="212.05,-355.21 107.55,-355.21 107.55,-335.21 212.05,-335.21 212.05,-355.21"/>
<text text-anchor="middle" x="159.8" y="-341.71" font-family="Helvetica,sans-Serif" font-size="10.00">std::shared_ptr&lt; T &gt;</text>
</a>
</g>
</g>
<!-- Node8&#45;&gt;Node13 -->
<g id="edge17_Node000013_Node000008" class="edge">
<title>Node8&#45;&gt;Node13</title>
<g id="a_edge17_Node000013_Node000008"><a xlink:title=" ">
<path fill="none" stroke="#9a32cd" stroke-dasharray="5,2" d="M39.15,-384.91C41.7,-383.59 44.28,-382.33 46.8,-381.21 70.25,-370.86 97.62,-362.01 119.44,-355.67"/>
<polygon fill="#9a32cd" stroke="#9a32cd" points="37.49,-381.83 30.46,-389.76 40.9,-387.94 37.49,-381.83"/>
</a>
</g>
<text text-anchor="middle" x="68.18" y="-395.71" font-family="Helvetica,sans-Serif" font-size="10.00" fill="grey"> dummy</text>
<text text-anchor="middle" x="68.18" y="-383.71" font-family="Helvetica,sans-Serif" font-size="10.00" fill="grey">ptr</text>
</g>
<!-- Node23 -->
<g id="Node000023" class="node">
<title>Node23</title>
<g id="a_Node000023"><a xlink:title=" ">
<polygon fill="white" stroke="#666666" points="329.55,-56.21 231.8,-56.21 231.8,-36.21 329.55,-36.21 329.55,-56.21"/>
<text text-anchor="middle" x="280.68" y="-42.71" font-family="Helvetica,sans-Serif" font-size="10.00">std::weak_ptr&lt; T &gt;</text>
</a>
</g>
</g>
<!-- Node8&#45;&gt;Node23 -->
<g id="edge36_Node000023_Node000008" class="edge">
<title>Node8&#45;&gt;Node23</title>
<g id="a_edge36_Node000023_Node000008"><a xlink:title=" ">
<path fill="none" stroke="#9a32cd" stroke-dasharray="5,2" d="M15.95,-377.39C18.47,-323.92 32.33,-185.11 107.55,-107.21 140.25,-73.35 192.94,-58.24 231.41,-51.53"/>
<polygon fill="#9a32cd" stroke="#9a32cd" points="12.45,-377.15 15.58,-387.28 19.45,-377.41 12.45,-377.15"/>
</a>
</g>
<text text-anchor="middle" x="68.18" y="-209.71" font-family="Helvetica,sans-Serif" font-size="10.00" fill="grey"> ptr</text>
</g>
<!-- Node9&#45;&gt;Node2 -->
<g id="edge9_Node000002_Node000009" class="edge">
<title>Node9&#45;&gt;Node2</title>
<g id="a_edge9_Node000002_Node000009"><a xlink:title=" ">
<path fill="none" stroke="#9a32cd" stroke-dasharray="5,2" d="M806.95,-522.3C941.73,-522.12 1247.19,-519.84 1350.05,-503.21 1412.81,-493.07 1481.7,-461.24 1514.68,-444.59"/>
<polygon fill="#9a32cd" stroke="#9a32cd" points="807.12,-518.8 797.12,-522.31 807.12,-525.8 807.12,-518.8"/>
</a>
</g>
<text text-anchor="middle" x="1140.18" y="-520.71" font-family="Helvetica,sans-Serif" font-size="10.00" fill="grey"> _hWnds</text>
</g>
<!-- Node10&#45;&gt;Node9 -->
<g id="edge11_Node000009_Node000010" class="edge">
<title>Node10&#45;&gt;Node9</title>
<g id="a_edge11_Node000009_Node000010"><a xlink:title=" ">
<path fill="none" stroke="orange" stroke-dasharray="5,2" d="M194.6,-456.98C231.75,-472.52 293.59,-496.33 349.3,-508.21 467.4,-533.4 610.06,-530.33 686.03,-526.12"/>
<polygon fill="orange" stroke="orange" points="196.31,-453.91 185.74,-453.23 193.58,-460.35 196.31,-453.91"/>
</a>
</g>
<text text-anchor="middle" x="418.05" y="-527.71" font-family="Helvetica,sans-Serif" font-size="10.00" fill="grey"> &lt; HWND &gt;</text>
</g>
<!-- Node11 -->
<g id="Node000011" class="node">
<title>Node11</title>
<g id="a_Node000011"><a xlink:title=" ">
<polygon fill="white" stroke="#666666" points="1340.3,-494.21 1215.55,-494.21 1215.55,-462.21 1340.3,-462.21 1340.3,-494.21"/>
<text text-anchor="start" x="1223.55" y="-480.71" font-family="Helvetica,sans-Serif" font-size="10.00">std::vector&lt; std::shared</text>
<text text-anchor="middle" x="1277.93" y="-468.71" font-family="Helvetica,sans-Serif" font-size="10.00">_ptr&lt; MonitorPreview &gt; &gt;</text>
</a>
</g>
</g>
<!-- Node10&#45;&gt;Node11 -->
<g id="edge18_Node000011_Node000010" class="edge">
<title>Node10&#45;&gt;Node11</title>
<g id="a_edge18_Node000011_Node000010"><a xlink:title=" ">
<path fill="none" stroke="orange" stroke-dasharray="5,2" d="M213.47,-443.91C398.37,-449.88 1017.33,-469.84 1215.4,-476.23"/>
<polygon fill="orange" stroke="orange" points="213.8,-440.42 203.69,-443.6 213.58,-447.42 213.8,-440.42"/>
</a>
</g>
<text text-anchor="start" x="697.68" y="-476.71" font-family="Helvetica,sans-Serif" font-size="10.00" fill="grey"> &lt; std::shared_ptr&lt;</text>
<text text-anchor="middle" x="740.8" y="-464.71" font-family="Helvetica,sans-Serif" font-size="10.00" fill="grey"> MonitorPreview &gt; &gt;</text>
</g>
<!-- Node19 -->
<g id="Node000019" class="node">
<title>Node19</title>
<g id="a_Node000019"><a xlink:title=" ">
<polygon fill="white" stroke="#666666" points="486.8,-368.21 349.3,-368.21 349.3,-336.21 486.8,-336.21 486.8,-368.21"/>
<text text-anchor="start" x="357.3" y="-354.71" font-family="Helvetica,sans-Serif" font-size="10.00">std::vector&lt; WinPosPreview</text>
<text text-anchor="middle" x="418.05" y="-342.71" font-family="Helvetica,sans-Serif" font-size="10.00">Ptr &gt;</text>
</a>
</g>
</g>
<!-- Node10&#45;&gt;Node19 -->
<g id="edge28_Node000019_Node000010" class="edge">
<title>Node10&#45;&gt;Node19</title>
<g id="a_edge28_Node000019_Node000010"><a xlink:title=" ">
<path fill="none" stroke="orange" stroke-dasharray="5,2" d="M201.18,-428.03C247.1,-411.9 321.96,-385.61 370.35,-368.61"/>
<polygon fill="orange" stroke="orange" points="200.15,-424.68 191.87,-431.3 202.47,-431.29 200.15,-424.68"/>
</a>
</g>
<text text-anchor="middle" x="280.68" y="-417.71" font-family="Helvetica,sans-Serif" font-size="10.00" fill="grey"> &lt; WinPosPreviewPtr &gt;</text>
</g>
<!-- Node11&#45;&gt;Node2 -->
<g id="edge13_Node000002_Node000011" class="edge">
<title>Node11&#45;&gt;Node2</title>
<g id="a_edge13_Node000002_Node000011"><a xlink:title=" ">
<path fill="none" stroke="#9a32cd" stroke-dasharray="5,2" d="M1351.87,-465.65C1400.43,-457.29 1462.04,-446.68 1499.83,-440.17"/>
<polygon fill="#9a32cd" stroke="#9a32cd" points="1351.53,-462.16 1342.27,-467.3 1352.71,-469.06 1351.53,-462.16"/>
</a>
</g>
<text text-anchor="middle" x="1401.05" y="-464.71" font-family="Helvetica,sans-Serif" font-size="10.00" fill="grey"> _previews</text>
</g>
<!-- Node12&#45;&gt;Node11 -->
<g id="edge14_Node000011_Node000012" class="edge">
<title>Node12&#45;&gt;Node11</title>
<g id="a_edge14_Node000011_Node000012"><a xlink:title=" ">
<path fill="none" stroke="#9a32cd" stroke-dasharray="5,2" d="M1078.23,-399.53C1113.23,-403.78 1154.79,-412.91 1187.8,-432.21 1198.41,-438.42 1195.65,-446.27 1205.8,-453.21 1210.55,-456.46 1215.77,-459.34 1221.16,-461.87"/>
<polygon fill="#9a32cd" stroke="#9a32cd" points="1078.94,-396.09 1068.62,-398.48 1078.18,-403.05 1078.94,-396.09"/>
</a>
</g>
<text text-anchor="middle" x="1140.18" y="-434.71" font-family="Helvetica,sans-Serif" font-size="10.00" fill="grey"> elements</text>
</g>
<!-- Node13&#45;&gt;Node12 -->
<g id="edge16_Node000012_Node000013" class="edge">
<title>Node13&#45;&gt;Node12</title>
<g id="a_edge16_Node000012_Node000013"><a xlink:title=" ">
<path fill="none" stroke="orange" stroke-dasharray="5,2" d="M184.78,-361.67C197.6,-369.5 214.02,-378.04 230.05,-382.21 264.35,-391.13 767.58,-394.86 943.92,-395.89"/>
<polygon fill="orange" stroke="orange" points="186.93,-358.89 176.62,-356.45 183.16,-364.79 186.93,-358.89"/>
</a>
</g>
<text text-anchor="middle" x="578.3" y="-395.71" font-family="Helvetica,sans-Serif" font-size="10.00" fill="grey"> &lt; MonitorPreview &gt;</text>
</g>
<!-- Node13&#45;&gt;Node19 -->
<g id="edge27_Node000019_Node000013" class="edge">
<title>Node13&#45;&gt;Node19</title>
<g id="a_edge27_Node000019_Node000013"><a xlink:title=" ">
<path fill="none" stroke="#9a32cd" stroke-dasharray="5,2" d="M223.83,-335.72C225.93,-335.53 228,-335.36 230.05,-335.21 274.93,-331.99 286.52,-330.82 331.3,-335.21 337.04,-335.78 342.96,-336.55 348.89,-337.45"/>
<polygon fill="#9a32cd" stroke="#9a32cd" points="223.6,-332.23 214.02,-336.76 224.34,-339.19 223.6,-332.23"/>
</a>
</g>
<text text-anchor="middle" x="280.68" y="-337.71" font-family="Helvetica,sans-Serif" font-size="10.00" fill="grey"> elements</text>
</g>
<!-- Node20 -->
<g id="Node000020" class="node">
<title>Node20</title>
<g id="a_Node000020"><a xlink:title=" ">
<polygon fill="white" stroke="#666666" points="1618.8,-216.21 1452.05,-216.21 1452.05,-196.21 1618.8,-196.21 1618.8,-216.21"/>
<text text-anchor="middle" x="1535.43" y="-202.71" font-family="Helvetica,sans-Serif" font-size="10.00">std::shared_ptr&lt; WinPosPreview &gt;</text>
</a>
</g>
</g>
<!-- Node13&#45;&gt;Node20 -->
<g id="edge37_Node000020_Node000013" class="edge">
<title>Node13&#45;&gt;Node20</title>
<g id="a_edge37_Node000020_Node000013"><a xlink:title=" ">
<path fill="none" stroke="orange" stroke-dasharray="5,2" d="M190.52,-329.62C226.97,-311.13 291.11,-280.62 349.3,-263.21 556.93,-201.1 613.87,-198.72 829.8,-180.21 868.99,-176.85 879.64,-172.96 918.3,-180.21 926.74,-181.8 927.89,-185.5 936.3,-187.21 1117.24,-224.14 1335.27,-218.95 1451.65,-212.32"/>
<polygon fill="orange" stroke="orange" points="189.22,-326.36 181.91,-334.03 192.41,-332.58 189.22,-326.36"/>
</a>
</g>
<text text-anchor="middle" x="874.05" y="-182.71" font-family="Helvetica,sans-Serif" font-size="10.00" fill="grey"> &lt; WinPosPreview &gt;</text>
</g>
<!-- Node14 -->
<g id="Node000014" class="node">
<title>Node14</title>
<g id="a_Node000014"><a xlink:title=" ">
<polygon fill="white" stroke="#666666" points="438.8,-292.21 397.3,-292.21 397.3,-272.21 438.8,-272.21 438.8,-292.21"/>
<text text-anchor="middle" x="418.05" y="-278.71" font-family="Helvetica,sans-Serif" font-size="10.00">RECT</text>
</a>
</g>
</g>
<!-- Node14&#45;&gt;Node1 -->
<g id="edge23_Node000001_Node000014" class="edge">
<title>Node14&#45;&gt;Node1</title>
<g id="a_edge23_Node000001_Node000014"><a xlink:title=" ">
<path fill="none" stroke="#9a32cd" stroke-dasharray="5,2" d="M450.53,-282.21C500.97,-282.21 601.15,-282.21 669.31,-282.21"/>
<polygon fill="#9a32cd" stroke="#9a32cd" points="450.63,-278.71 440.63,-282.21 450.63,-285.71 450.63,-278.71"/>
</a>
</g>
<text text-anchor="middle" x="578.3" y="-296.71" font-family="Helvetica,sans-Serif" font-size="10.00" fill="grey"> monitorRect</text>
<text text-anchor="middle" x="578.3" y="-284.71" font-family="Helvetica,sans-Serif" font-size="10.00" fill="grey">prvRect</text>
</g>
<!-- Node14&#45;&gt;Node2 -->
<g id="edge19_Node000002_Node000014" class="edge">
<title>Node14&#45;&gt;Node2</title>
<g id="a_edge19_Node000002_Node000014"><a xlink:title=" ">
<path fill="none" stroke="#9a32cd" stroke-dasharray="5,2" d="M449.48,-294.75C465.61,-300.72 485.95,-307.21 504.8,-310.21 569.32,-320.48 586.47,-310.74 651.8,-310.21 962.15,-307.69 1041.24,-270.28 1350.05,-301.21 1387.95,-305.01 1401.16,-299 1434.05,-318.21 1480.04,-345.07 1515.44,-400.77 1528.72,-423.84"/>
<polygon fill="#9a32cd" stroke="#9a32cd" points="451.05,-291.6 440.46,-291.28 448.54,-298.14 451.05,-291.6"/>
</a>
</g>
<text text-anchor="middle" x="1005.43" y="-299.71" font-family="Helvetica,sans-Serif" font-size="10.00" fill="grey"> _totalRect</text>
</g>
<!-- Node21 -->
<g id="Node000021" class="node">
<title>Node21</title>
<g id="a_Node000021"><a xlink:href="struct_win_pos_wnd_1_1_win_pos_preview.html" target="_top" xlink:title=" ">
<polygon fill="white" stroke="#666666" points="1350.05,-140.21 1205.8,-140.21 1205.8,-120.21 1350.05,-120.21 1350.05,-140.21"/>
<text text-anchor="middle" x="1277.93" y="-126.71" font-family="Helvetica,sans-Serif" font-size="10.00">WinPosWnd::WinPosPreview</text>
</a>
</g>
</g>
<!-- Node14&#45;&gt;Node21 -->
<g id="edge31_Node000021_Node000014" class="edge">
<title>Node14&#45;&gt;Node21</title>
<g id="a_edge31_Node000021_Node000014"><a xlink:title=" ">
<path fill="none" stroke="#9a32cd" stroke-dasharray="5,2" d="M449.92,-270.58C538.67,-237.23 790.64,-143.24 829.8,-136.21 960.66,-112.74 1116.53,-117.99 1205.38,-124.03"/>
<polygon fill="#9a32cd" stroke="#9a32cd" points="448.77,-267.27 440.64,-274.07 451.23,-273.82 448.77,-267.27"/>
</a>
</g>
<text text-anchor="middle" x="874.05" y="-150.71" font-family="Helvetica,sans-Serif" font-size="10.00" fill="grey"> prvRect</text>
<text text-anchor="middle" x="874.05" y="-138.71" font-family="Helvetica,sans-Serif" font-size="10.00" fill="grey">wndRect</text>
</g>
<!-- Node15 -->
<g id="Node000015" class="node">
<title>Node15</title>
<g id="a_Node000015"><a xlink:title=" ">
<polygon fill="white" stroke="#666666" points="1296.43,-368.21 1259.43,-368.21 1259.43,-348.21 1296.43,-348.21 1296.43,-368.21"/>
<text text-anchor="middle" x="1277.93" y="-354.71" font-family="Helvetica,sans-Serif" font-size="10.00">UINT</text>
</a>
</g>
</g>
<!-- Node15&#45;&gt;Node2 -->
<g id="edge20_Node000002_Node000015" class="edge">
<title>Node15&#45;&gt;Node2</title>
<g id="a_edge20_Node000002_Node000015"><a xlink:title=" ">
<path fill="none" stroke="#9a32cd" stroke-dasharray="5,2" d="M1307.81,-356.33C1339.6,-355.19 1391.79,-356.1 1434.05,-370.21 1469.33,-382 1504.62,-408.85 1522.47,-423.76"/>
<polygon fill="#9a32cd" stroke="#9a32cd" points="1308.03,-352.81 1298.2,-356.77 1308.35,-359.81 1308.03,-352.81"/>
</a>
</g>
<text text-anchor="middle" x="1401.05" y="-372.71" font-family="Helvetica,sans-Serif" font-size="10.00" fill="grey"> _closeTimeout</text>
</g>
<!-- Node16 -->
<g id="Node000016" class="node">
<title>Node16</title>
<g id="a_Node000016"><a xlink:title=" ">
<polygon fill="white" stroke="#666666" points="1301.3,-330.21 1254.55,-330.21 1254.55,-310.21 1301.3,-310.21 1301.3,-330.21"/>
<text text-anchor="middle" x="1277.93" y="-316.71" font-family="Helvetica,sans-Serif" font-size="10.00">FLOAT</text>
</a>
</g>
</g>
<!-- Node16&#45;&gt;Node2 -->
<g id="edge21_Node000002_Node000016" class="edge">
<title>Node16&#45;&gt;Node2</title>
<g id="a_edge21_Node000002_Node000016"><a xlink:title=" ">
<path fill="none" stroke="#9a32cd" stroke-dasharray="5,2" d="M1312.87,-319.03C1345.46,-319.2 1395.31,-322.93 1434.05,-341.21 1475.73,-360.88 1511.88,-404.15 1526.95,-423.95"/>
<polygon fill="#9a32cd" stroke="#9a32cd" points="1313.19,-315.53 1303.21,-319.1 1313.24,-322.53 1313.19,-315.53"/>
</a>
</g>
<text text-anchor="middle" x="1401.05" y="-343.71" font-family="Helvetica,sans-Serif" font-size="10.00" fill="grey"> _scale</text>
</g>
<!-- Node17 -->
<g id="Node000017" class="node">
<title>Node17</title>
<g id="a_Node000017"><a xlink:title=" ">
<polygon fill="white" stroke="#666666" points="447.8,-142.21 388.3,-142.21 388.3,-122.21 447.8,-122.21 447.8,-142.21"/>
<text text-anchor="middle" x="418.05" y="-128.71" font-family="Helvetica,sans-Serif" font-size="10.00">std::string</text>
</a>
</g>
</g>
<!-- Node17&#45;&gt;Node1 -->
<g id="edge24_Node000001_Node000017" class="edge">
<title>Node17&#45;&gt;Node1</title>
<g id="a_edge24_Node000001_Node000017"><a xlink:title=" ">
<path fill="none" stroke="#9a32cd" stroke-dasharray="5,2" d="M451.46,-147.37C516.64,-177.85 662.09,-245.87 717.65,-271.85"/>
<polygon fill="#9a32cd" stroke="#9a32cd" points="453.26,-144.35 442.72,-143.28 450.3,-150.69 453.26,-144.35"/>
</a>
</g>
<text text-anchor="middle" x="578.3" y="-251.71" font-family="Helvetica,sans-Serif" font-size="10.00" fill="grey"> device</text>
<text text-anchor="middle" x="578.3" y="-239.71" font-family="Helvetica,sans-Serif" font-size="10.00" fill="grey">name</text>
</g>
<!-- Node17&#45;&gt;Node21 -->
<g id="edge32_Node000021_Node000017" class="edge">
<title>Node17&#45;&gt;Node21</title>
<g id="a_edge32_Node000021_Node000017"><a xlink:title=" ">
<path fill="none" stroke="#9a32cd" stroke-dasharray="5,2" d="M459.3,-125.19C574.04,-106.34 912.25,-59.09 1187.8,-104.21 1208.16,-107.55 1230.44,-114.05 1247.63,-119.71"/>
<polygon fill="#9a32cd" stroke="#9a32cd" points="459.06,-121.68 449.78,-126.77 460.22,-128.58 459.06,-121.68"/>
</a>
</g>
<text text-anchor="middle" x="874.05" y="-89.71" font-family="Helvetica,sans-Serif" font-size="10.00" fill="grey"> name</text>
</g>
<!-- Node18 -->
<g id="Node000018" class="node">
<title>Node18</title>
<g id="a_Node000018"><a xlink:title=" ">
<polygon fill="white" stroke="#666666" points="206.8,-148.21 112.8,-148.21 112.8,-116.21 206.8,-116.21 206.8,-148.21"/>
<text text-anchor="start" x="120.8" y="-134.71" font-family="Helvetica,sans-Serif" font-size="10.00">std::basic_string&lt;</text>
<text text-anchor="middle" x="159.8" y="-122.71" font-family="Helvetica,sans-Serif" font-size="10.00"> Char &gt;</text>
</a>
</g>
</g>
<!-- Node18&#45;&gt;Node17 -->
<g id="edge25_Node000017_Node000018" class="edge">
<title>Node18&#45;&gt;Node17</title>
<g id="a_edge25_Node000017_Node000018"><a xlink:title=" ">
<path fill="none" stroke="#63b8ff" d="M218.42,-132.21C271.18,-132.21 347.09,-132.21 388.11,-132.21"/>
<polygon fill="#63b8ff" stroke="#63b8ff" points="218.72,-128.71 208.72,-132.21 218.72,-135.71 218.72,-128.71"/>
</a>
</g>
</g>
<!-- Node19&#45;&gt;Node1 -->
<g id="edge26_Node000001_Node000019" class="edge">
<title>Node19&#45;&gt;Node1</title>
<g id="a_edge26_Node000001_Node000019"><a xlink:title=" ">
<path fill="none" stroke="#9a32cd" stroke-dasharray="5,2" d="M498.49,-340.49C543.73,-333.17 601.29,-322.75 651.8,-310.21 671.56,-305.31 693.37,-298.38 710.34,-292.64"/>
<polygon fill="#9a32cd" stroke="#9a32cd" points="498.09,-337.01 488.76,-342.05 499.19,-343.93 498.09,-337.01"/>
</a>
</g>
<text text-anchor="middle" x="578.3" y="-340.71" font-family="Helvetica,sans-Serif" font-size="10.00" fill="grey"> previews</text>
</g>
<!-- Node20&#45;&gt;Node1 -->
<g id="edge29_Node000001_Node000020" class="edge">
<title>Node20&#45;&gt;Node1</title>
<g id="a_edge29_Node000001_Node000020"><a xlink:title=" ">
<path fill="none" stroke="#9a32cd" stroke-dasharray="5,2" d="M1452.17,-218.09C1446.04,-218.85 1439.95,-219.57 1434.05,-220.21 1166.25,-249.5 1097.31,-236.36 829.8,-268.21 821.35,-269.22 812.47,-270.44 803.73,-271.73"/>
<polygon fill="#9a32cd" stroke="#9a32cd" points="1452.23,-221.61 1461.7,-216.87 1451.34,-214.66 1452.23,-221.61"/>
</a>
</g>
<text text-anchor="middle" x="1140.18" y="-247.71" font-family="Helvetica,sans-Serif" font-size="10.00" fill="grey"> activeWinPosPreview</text>
</g>
<!-- Node21&#45;&gt;Node20 -->
<g id="edge30_Node000020_Node000021" class="edge">
<title>Node21&#45;&gt;Node20</title>
<g id="a_edge30_Node000020_Node000021"><a xlink:title=" ">
<path fill="none" stroke="#9a32cd" stroke-dasharray="5,2" d="M1339.41,-143.23C1368.28,-149.9 1403.19,-158.63 1434.05,-168.21 1460.21,-176.33 1489.42,-187.66 1509.56,-195.83"/>
<polygon fill="#9a32cd" stroke="#9a32cd" points="1340.25,-139.83 1329.73,-141.02 1338.7,-146.66 1340.25,-139.83"/>
</a>
</g>
<text text-anchor="middle" x="1401.05" y="-182.71" font-family="Helvetica,sans-Serif" font-size="10.00" fill="grey"> dummy</text>
<text text-anchor="middle" x="1401.05" y="-170.71" font-family="Helvetica,sans-Serif" font-size="10.00" fill="grey">ptr</text>
</g>
<!-- Node22&#45;&gt;Node21 -->
<g id="edge33_Node000021_Node000022" class="edge">
<title>Node22&#45;&gt;Node21</title>
<g id="a_edge33_Node000021_Node000022"><a xlink:title=" ">
<path fill="none" stroke="#9a32cd" stroke-dasharray="5,2" d="M1086.03,-152.8C1123.89,-148.32 1168.81,-143 1205.56,-138.66"/>
<polygon fill="#9a32cd" stroke="#9a32cd" points="1086.06,-149.27 1076.54,-153.92 1086.88,-156.22 1086.06,-149.27"/>
</a>
</g>
<text text-anchor="middle" x="1140.18" y="-154.71" font-family="Helvetica,sans-Serif" font-size="10.00" fill="grey"> monitorPreview</text>
</g>
<!-- Node23&#45;&gt;Node22 -->
<g id="edge35_Node000022_Node000023" class="edge">
<title>Node23&#45;&gt;Node22</title>
<g id="a_edge35_Node000022_Node000023"><a xlink:title=" ">
<path fill="none" stroke="orange" stroke-dasharray="5,2" d="M334.21,-33.22C447.58,-8.07 720.92,36.89 918.3,-58.21 956.74,-76.73 984.05,-121.48 996.63,-145.81"/>
<polygon fill="orange" stroke="orange" points="333.56,-29.78 324.58,-35.41 335.1,-36.61 333.56,-29.78"/>
</a>
</g>
<text text-anchor="middle" x="578.3" y="-8.71" font-family="Helvetica,sans-Serif" font-size="10.00" fill="grey"> &lt; WinPosWnd::MonitorPreview &gt;</text>
</g>
</g>
</svg>
