<?xml version="1.0" encoding="UTF-8" standalone="no"?>
<!DOCTYPE svg PUBLIC "-//W3C//DTD SVG 1.1//EN"
 "http://www.w3.org/Graphics/SVG/1.1/DTD/svg11.dtd">
<!-- Generated by graphviz version 9.0.0 (20230911.1827)
 -->
<!-- Title: WinPosWnd::WinPosPreview Pages: 1 -->
<!--zoomable 589 -->

<svg id="main" version="1.1" xmlns="http://www.w3.org/2000/svg" xmlns:xlink="http://www.w3.org/1999/xlink" xml:space="preserve" onload="init(evt)">
<style type="text/css"><![CDATA[
.node, .edge {opacity: 0.7;}
.node.selected, .edge.selected {opacity: 1;}
.edge:hover path { stroke: red; }
.edge:hover polygon { stroke: red; fill: red; }
]]></style>

<defs>
  <circle id="rim" cx="0" cy="0" r="7"/>
  <circle id="rim2" cx="0" cy="0" r="3.5"/>
  <g id="zoomPlus">
    <use xlink:href="#rim" fill="#404040"><set attributeName="fill" to="#808080" begin="zoomplus.mouseover" end="zoomplus.mouseout"/></use>
    <path d="M-4,0h8M0,-4v8" fill="none" stroke="white" stroke-width="1.5" pointer-events="none"/>
  </g>
  <g id="zoomMin">
    <use xlink:href="#rim" fill="#404040"><set attributeName="fill" to="#808080" begin="zoomminus.mouseover" end="zoomminus.mouseout"/></use>
    <path d="M-4,0h8" fill="none" stroke="white" stroke-width="1.5" pointer-events="none"/>
  </g>
  <g id="arrowUp" transform="translate(30 24)">
    <use xlink:href="#rim"/>
    <path pointer-events="none" fill="none" stroke="white" stroke-width="1.5" d="M0,-3.0v7 M-2.5,-0.5L0,-3.0L2.5,-0.5"/>
  </g>
  <g id="arrowRight" transform="rotate(90) translate(36 -43)">
    <use xlink:href="#rim"/>
    <path pointer-events="none" fill="none" stroke="white" stroke-width="1.5" d="M0,-3.0v7 M-2.5,-0.5L0,-3.0L2.5,-0.5"/>
  </g>
  <g id="arrowDown" transform="rotate(180) translate(-30 -48)">
    <use xlink:href="#rim"/>
    <path pointer-events="none" fill="none" stroke="white" stroke-width="1.5" d="M0,-3.0v7 M-2.5,-0.5L0,-3.0L2.5,-0.5"/>
  </g>
  <g id="arrowLeft" transform="rotate(270) translate(-36 17)">
    <use xlink:href="#rim"/>
    <path pointer-events="none" fill="none" stroke="white" stroke-width="1.5" d="M0,-3.0v7 M-2.5,-0.5L0,-3.0L2.5,-0.5"/>
  </g>
  <g id="resetDef">
    <use xlink:href="#rim2" fill="#404040"><set attributeName="fill" to="#808080" begin="reset.mouseover" end="reset.mouseout"/></use>
  </g>
</defs>
<script type="application/ecmascript">
var viewWidth = 1954;
var viewHeight = 589;
var sectionId = 'dynsection-0';
</script>
<script type="application/ecmascript" xlink:href="svg.min.js"/>
<svg id="graph" class="graph">
<g id="viewport">
<title>WinPosWnd::WinPosPreview</title>
<!-- Node1 -->
<g id="Node000001" class="node">
<title>Node1</title>
<g id="a_Node000001"><a xlink:title=" ">
<polygon fill="#999999" stroke="#666666" points="413.5,-468 269.25,-468 269.25,-448 413.5,-448 413.5,-468"/>
<text text-anchor="middle" x="341.38" y="-454.5" font-family="Helvetica,sans-Serif" font-size="10.00">WinPosWnd::WinPosPreview</text>
</a>
</g>
</g>
<!-- Node22 -->
<g id="Node000022" class="node">
<title>Node22</title>
<g id="a_Node000022"><a xlink:title=" ">
<polygon fill="white" stroke="#666666" points="717.5,-342 550.75,-342 550.75,-322 717.5,-322 717.5,-342"/>
<text text-anchor="middle" x="634.12" y="-328.5" font-family="Helvetica,sans-Serif" font-size="10.00">std::shared_ptr&lt; WinPosPreview &gt;</text>
</a>
</g>
</g>
<!-- Node1&#45;&gt;Node22 -->
<g id="edge34_Node000022_Node000001" class="edge">
<title>Node1&#45;&gt;Node22</title>
<g id="a_edge34_Node000022_Node000001"><a xlink:title=" ">
<path fill="none" stroke="#9a32cd" stroke-dasharray="5,2" d="M369.05,-441.94C386.31,-432.21 409.58,-420.31 431.5,-413 474.86,-398.55 490.11,-411.45 532.75,-395 566.92,-381.82 602.1,-356.51 620.36,-342.31"/>
<polygon fill="#9a32cd" stroke="#9a32cd" points="367.37,-438.87 360.46,-446.9 370.87,-444.93 367.37,-438.87"/>
</a>
</g>
<text text-anchor="middle" x="482.12" y="-427.5" font-family="Helvetica,sans-Serif" font-size="10.00" fill="grey"> dummy</text>
<text text-anchor="middle" x="482.12" y="-415.5" font-family="Helvetica,sans-Serif" font-size="10.00" fill="grey">ptr</text>
</g>
<!-- Node2 -->
<g id="Node000002" class="node">
<title>Node2</title>
<g id="a_Node000002"><a xlink:title=" ">
<polygon fill="white" stroke="#666666" points="181.5,-498 140,-498 140,-478 181.5,-478 181.5,-498"/>
<text text-anchor="middle" x="160.75" y="-484.5" font-family="Helvetica,sans-Serif" font-size="10.00">RECT</text>
</a>
</g>
</g>
<!-- Node2&#45;&gt;Node1 -->
<g id="edge1_Node000001_Node000002" class="edge">
<title>Node2&#45;&gt;Node1</title>
<g id="a_edge1_Node000001_Node000002"><a xlink:title=" ">
<path fill="none" stroke="#9a32cd" stroke-dasharray="5,2" d="M193.2,-482.72C216.58,-478.79 249.24,-473.31 277.86,-468.5"/>
<polygon fill="#9a32cd" stroke="#9a32cd" points="192.67,-479.26 183.39,-484.37 193.83,-486.16 192.67,-479.26"/>
</a>
</g>
<text text-anchor="middle" x="229.88" y="-493.5" font-family="Helvetica,sans-Serif" font-size="10.00" fill="grey"> prvRect</text>
<text text-anchor="middle" x="229.88" y="-481.5" font-family="Helvetica,sans-Serif" font-size="10.00" fill="grey">wndRect</text>
</g>
<!-- Node6 -->
<g id="Node000006" class="node">
<title>Node6</title>
<g id="a_Node000006"><a xlink:href="struct_win_pos_wnd_1_1_monitor_preview.html" target="_top" xlink:title=" ">
<polygon fill="white" stroke="#666666" points="1042.5,-297 900.5,-297 900.5,-277 1042.5,-277 1042.5,-297"/>
<text text-anchor="middle" x="971.5" y="-283.5" font-family="Helvetica,sans-Serif" font-size="10.00">WinPosWnd::MonitorPreview</text>
</a>
</g>
</g>
<!-- Node2&#45;&gt;Node6 -->
<g id="edge28_Node000006_Node000002" class="edge">
<title>Node2&#45;&gt;Node6</title>
<g id="a_edge28_Node000006_Node000002"><a xlink:title=" ">
<path fill="none" stroke="#9a32cd" stroke-dasharray="5,2" d="M192.09,-474.23C209.9,-465.62 232.52,-453.77 251.25,-441 338.78,-381.31 332.22,-322 431.5,-285 474.19,-269.09 763.86,-278.54 900.03,-283.98"/>
<polygon fill="#9a32cd" stroke="#9a32cd" points="190.61,-471.06 183.06,-478.5 193.6,-477.39 190.61,-471.06"/>
</a>
</g>
<text text-anchor="middle" x="482.12" y="-299.5" font-family="Helvetica,sans-Serif" font-size="10.00" fill="grey"> monitorRect</text>
<text text-anchor="middle" x="482.12" y="-287.5" font-family="Helvetica,sans-Serif" font-size="10.00" fill="grey">prvRect</text>
</g>
<!-- Node7 -->
<g id="Node000007" class="node">
<title>Node7</title>
<g id="a_Node000007"><a xlink:href="class_win_pos_wnd.html" target="_top" xlink:title=" ">
<polygon fill="white" stroke="#666666" points="1647.75,-181 1577,-181 1577,-161 1647.75,-161 1647.75,-181"/>
<text text-anchor="middle" x="1612.38" y="-167.5" font-family="Helvetica,sans-Serif" font-size="10.00">WinPosWnd</text>
</a>
</g>
</g>
<!-- Node2&#45;&gt;Node7 -->
<g id="edge24_Node000007_Node000002" class="edge">
<title>Node2&#45;&gt;Node7</title>
<g id="a_edge24_Node000007_Node000002"><a xlink:title=" ">
<path fill="none" stroke="#9a32cd" stroke-dasharray="5,2" d="M192.34,-501.63C197.66,-503.65 203.18,-505.54 208.5,-507 265.66,-522.71 281.09,-527 340.38,-527 340.38,-527 340.38,-527 1409.88,-527 1573.22,-527 1605.7,-239.64 1610.62,-181.27"/>
<polygon fill="#9a32cd" stroke="#9a32cd" points="193.86,-498.46 183.27,-497.96 191.23,-504.95 193.86,-498.46"/>
</a>
</g>
<text text-anchor="middle" x="971.5" y="-529.5" font-family="Helvetica,sans-Serif" font-size="10.00" fill="grey"> _totalRect</text>
</g>
<!-- Node3 -->
<g id="Node000003" class="node">
<title>Node3</title>
<g id="a_Node000003"><a xlink:title=" ">
<polygon fill="white" stroke="#666666" points="190.5,-404 131,-404 131,-384 190.5,-384 190.5,-404"/>
<text text-anchor="middle" x="160.75" y="-390.5" font-family="Helvetica,sans-Serif" font-size="10.00">std::string</text>
</a>
</g>
</g>
<!-- Node3&#45;&gt;Node1 -->
<g id="edge2_Node000001_Node000003" class="edge">
<title>Node3&#45;&gt;Node1</title>
<g id="a_edge2_Node000001_Node000003"><a xlink:title=" ">
<path fill="none" stroke="#9a32cd" stroke-dasharray="5,2" d="M201.57,-408.27C234.82,-420.18 281.45,-436.89 311.29,-447.58"/>
<polygon fill="#9a32cd" stroke="#9a32cd" points="202.87,-405.01 192.27,-404.94 200.51,-411.6 202.87,-405.01"/>
</a>
</g>
<text text-anchor="middle" x="229.88" y="-428.5" font-family="Helvetica,sans-Serif" font-size="10.00" fill="grey"> name</text>
</g>
<!-- Node3&#45;&gt;Node6 -->
<g id="edge29_Node000006_Node000003" class="edge">
<title>Node3&#45;&gt;Node6</title>
<g id="a_edge29_Node000006_Node000003"><a xlink:title=" ">
<path fill="none" stroke="#9a32cd" stroke-dasharray="5,2" d="M192.17,-379.14C197.5,-377.08 203.08,-375.24 208.5,-374 500.99,-307.15 595.81,-424.48 882.5,-336 910.57,-327.34 939.7,-308.94 956.4,-297.32"/>
<polygon fill="#9a32cd" stroke="#9a32cd" points="190.92,-375.87 183.09,-383 193.66,-382.31 190.92,-375.87"/>
</a>
</g>
<text text-anchor="middle" x="482.12" y="-375.5" font-family="Helvetica,sans-Serif" font-size="10.00" fill="grey"> device</text>
<text text-anchor="middle" x="482.12" y="-363.5" font-family="Helvetica,sans-Serif" font-size="10.00" fill="grey">name</text>
</g>
<!-- Node4 -->
<g id="Node000004" class="node">
<title>Node4</title>
<g id="a_Node000004"><a xlink:title=" ">
<polygon fill="white" stroke="#666666" points="94,-410 0,-410 0,-378 94,-378 94,-410"/>
<text text-anchor="start" x="8" y="-396.5" font-family="Helvetica,sans-Serif" font-size="10.00">std::basic_string&lt;</text>
<text text-anchor="middle" x="47" y="-384.5" font-family="Helvetica,sans-Serif" font-size="10.00"> Char &gt;</text>
</a>
</g>
</g>
<!-- Node4&#45;&gt;Node3 -->
<g id="edge3_Node000003_Node000004" class="edge">
<title>Node4&#45;&gt;Node3</title>
<g id="a_edge3_Node000003_Node000004"><a xlink:title=" ">
<path fill="none" stroke="#63b8ff" d="M105.71,-394C114.32,-394 122.87,-394 130.55,-394"/>
<polygon fill="#63b8ff" stroke="#63b8ff" points="105.93,-390.5 95.93,-394 105.93,-397.5 105.93,-390.5"/>
</a>
</g>
</g>
<!-- Node5 -->
<g id="Node000005" class="node">
<title>Node5</title>
<g id="a_Node000005"><a xlink:title=" ">
<polygon fill="white" stroke="#666666" points="1252,-459 1113.75,-459 1113.75,-427 1252,-427 1252,-459"/>
<text text-anchor="start" x="1121.75" y="-445.5" font-family="Helvetica,sans-Serif" font-size="10.00">std::weak_ptr&lt; WinPosWnd</text>
<text text-anchor="middle" x="1182.88" y="-433.5" font-family="Helvetica,sans-Serif" font-size="10.00">::MonitorPreview &gt;</text>
</a>
</g>
</g>
<!-- Node5&#45;&gt;Node1 -->
<g id="edge4_Node000001_Node000005" class="edge">
<title>Node5&#45;&gt;Node1</title>
<g id="a_edge4_Node000001_Node000005"><a xlink:title=" ">
<path fill="none" stroke="#9a32cd" stroke-dasharray="5,2" d="M1102,-456.39C1099.9,-456.61 1097.81,-456.81 1095.75,-457 1086.01,-457.88 656.02,-466 532.75,-467 487.75,-467.37 476.44,-469.26 431.5,-467 425.75,-466.71 419.81,-466.32 413.84,-465.85"/>
<polygon fill="#9a32cd" stroke="#9a32cd" points="1102.33,-459.87 1111.85,-455.22 1101.51,-452.92 1102.33,-459.87"/>
</a>
</g>
<text text-anchor="middle" x="809" y="-465.5" font-family="Helvetica,sans-Serif" font-size="10.00" fill="grey"> monitorPreview</text>
</g>
<!-- Node6&#45;&gt;Node5 -->
<g id="edge5_Node000005_Node000006" class="edge">
<title>Node6&#45;&gt;Node5</title>
<g id="a_edge5_Node000005_Node000006"><a xlink:title=" ">
<path fill="none" stroke="#9a32cd" stroke-dasharray="5,2" d="M995.71,-304.29C1036.43,-334.64 1120.21,-397.05 1159.98,-426.69"/>
<polygon fill="#9a32cd" stroke="#9a32cd" points="997.89,-301.55 987.78,-298.38 993.7,-307.16 997.89,-301.55"/>
</a>
</g>
<text text-anchor="middle" x="1078.12" y="-376.5" font-family="Helvetica,sans-Serif" font-size="10.00" fill="grey"> ptr</text>
</g>
<!-- Node17 -->
<g id="Node000017" class="node">
<title>Node17</title>
<g id="a_Node000017"><a xlink:title=" ">
<polygon fill="white" stroke="#666666" points="1244.12,-231 1121.62,-231 1121.62,-199 1244.12,-199 1244.12,-231"/>
<text text-anchor="start" x="1129.62" y="-217.5" font-family="Helvetica,sans-Serif" font-size="10.00">std::shared_ptr&lt; Monitor</text>
<text text-anchor="middle" x="1182.88" y="-205.5" font-family="Helvetica,sans-Serif" font-size="10.00">Preview &gt;</text>
</a>
</g>
</g>
<!-- Node6&#45;&gt;Node17 -->
<g id="edge20_Node000017_Node000006" class="edge">
<title>Node6&#45;&gt;Node17</title>
<g id="a_edge20_Node000017_Node000006"><a xlink:title=" ">
<path fill="none" stroke="#9a32cd" stroke-dasharray="5,2" d="M1004.44,-271.97C1020.96,-264.52 1041.58,-255.7 1060.5,-249 1079.99,-242.1 1101.63,-235.66 1121.18,-230.28"/>
<polygon fill="#9a32cd" stroke="#9a32cd" points="1003.25,-268.67 995.61,-276.01 1006.16,-275.04 1003.25,-268.67"/>
</a>
</g>
<text text-anchor="middle" x="1078.12" y="-263.5" font-family="Helvetica,sans-Serif" font-size="10.00" fill="grey"> dummy</text>
<text text-anchor="middle" x="1078.12" y="-251.5" font-family="Helvetica,sans-Serif" font-size="10.00" fill="grey">ptr</text>
</g>
<!-- Node7&#45;&gt;Node6 -->
<g id="edge6_Node000006_Node000007" class="edge">
<title>Node7&#45;&gt;Node6</title>
<g id="a_edge6_Node000006_Node000007"><a xlink:title=" ">
<path fill="none" stroke="#9a32cd" stroke-dasharray="5,2" d="M1594.51,-189.4C1584.92,-198.86 1572.22,-209.88 1559,-217 1524.92,-235.35 1513.08,-233.06 1475,-240 1322.42,-267.81 1140.62,-279.63 1042.94,-284.28"/>
<polygon fill="#9a32cd" stroke="#9a32cd" points="1596.86,-192 1601.3,-182.38 1591.83,-187.12 1596.86,-192"/>
</a>
</g>
<text text-anchor="middle" x="1297.38" y="-270.5" font-family="Helvetica,sans-Serif" font-size="10.00" fill="grey"> winPosWnd</text>
</g>
<!-- Node9 -->
<g id="Node000009" class="node">
<title>Node9</title>
<g id="a_Node000009"><a xlink:title=" ">
<polygon fill="white" stroke="#666666" points="1945.75,-66 1776,-66 1776,-46 1945.75,-46 1945.75,-66"/>
<text text-anchor="middle" x="1860.88" y="-52.5" font-family="Helvetica,sans-Serif" font-size="10.00">std::map&lt; HWND, WinPosWnd * &gt;</text>
</a>
</g>
</g>
<!-- Node7&#45;&gt;Node9 -->
<g id="edge10_Node000009_Node000007" class="edge">
<title>Node7&#45;&gt;Node9</title>
<g id="a_edge10_Node000009_Node000007"><a xlink:title=" ">
<path fill="none" stroke="#9a32cd" stroke-dasharray="5,2" d="M1658.73,-157.39C1687.74,-148.03 1725.82,-134.52 1758,-119 1790.59,-103.28 1825.94,-79.82 1845.24,-66.41"/>
<polygon fill="#9a32cd" stroke="#9a32cd" points="1658.01,-153.95 1649.54,-160.31 1660.13,-160.62 1658.01,-153.95"/>
</a>
</g>
<text text-anchor="middle" x="1711.88" y="-157.5" font-family="Helvetica,sans-Serif" font-size="10.00" fill="grey"> elements</text>
</g>
<!-- Node8 -->
<g id="Node000008" class="node">
<title>Node8</title>
<g id="a_Node000008"><a xlink:title=" ">
<polygon fill="white" stroke="#666666" points="1475,-575 1342.75,-575 1342.75,-555 1475,-555 1475,-575"/>
<text text-anchor="middle" x="1408.88" y="-561.5" font-family="Helvetica,sans-Serif" font-size="10.00">static const WNDCLASS *</text>
</a>
</g>
</g>
<!-- Node8&#45;&gt;Node7 -->
<g id="edge7_Node000007_Node000008" class="edge">
<title>Node8&#45;&gt;Node7</title>
<g id="a_edge7_Node000007_Node000008"><a xlink:title=" ">
<path fill="none" stroke="#9a32cd" stroke-dasharray="5,2" d="M1486.55,-570.12C1512.82,-567.77 1540.28,-560.08 1559,-541 1610.8,-488.21 1611.88,-235.96 1611.49,-181.42"/>
<polygon fill="#9a32cd" stroke="#9a32cd" points="1486.67,-566.6 1476.91,-570.72 1487.11,-573.59 1486.67,-566.6"/>
</a>
</g>
<text text-anchor="middle" x="1526" y="-571.5" font-family="Helvetica,sans-Serif" font-size="10.00" fill="grey"> wndClass</text>
</g>
<!-- Node9&#45;&gt;Node7 -->
<g id="edge8_Node000007_Node000009" class="edge">
<title>Node9&#45;&gt;Node7</title>
<g id="a_edge8_Node000007_Node000009"><a xlink:title=" ">
<path fill="none" stroke="#9a32cd" stroke-dasharray="5,2" d="M1764.75,-68.61C1731.55,-76.12 1695.25,-88.05 1665.75,-107 1644.25,-120.81 1627.33,-146.36 1619.01,-160.64"/>
<polygon fill="#9a32cd" stroke="#9a32cd" points="1765.35,-72.07 1774.4,-66.55 1763.89,-65.22 1765.35,-72.07"/>
</a>
</g>
<text text-anchor="middle" x="1711.88" y="-109.5" font-family="Helvetica,sans-Serif" font-size="10.00" fill="grey"> hWndToWinPosMap</text>
</g>
<!-- Node10 -->
<g id="Node000010" class="node">
<title>Node10</title>
<g id="a_Node000010"><a xlink:title=" ">
<polygon fill="white" stroke="#666666" points="657.12,-115 611.12,-115 611.12,-95 657.12,-95 657.12,-115"/>
<text text-anchor="middle" x="634.12" y="-101.5" font-family="Helvetica,sans-Serif" font-size="10.00">HWND</text>
</a>
</g>
</g>
<!-- Node10&#45;&gt;Node6 -->
<g id="edge27_Node000006_Node000010" class="edge">
<title>Node10&#45;&gt;Node6</title>
<g id="a_edge27_Node000006_Node000010"><a xlink:title=" ">
<path fill="none" stroke="#9a32cd" stroke-dasharray="5,2" d="M668.78,-107.29C719.18,-112.14 815.46,-127.01 882.5,-172 903.9,-186.36 947.46,-251.47 963.96,-276.84"/>
<polygon fill="#9a32cd" stroke="#9a32cd" points="669.36,-103.83 659.1,-106.44 668.75,-110.8 669.36,-103.83"/>
</a>
</g>
<text text-anchor="middle" x="809" y="-174.5" font-family="Helvetica,sans-Serif" font-size="10.00" fill="grey"> hWnd</text>
</g>
<!-- Node10&#45;&gt;Node9 -->
<g id="edge9_Node000009_Node000010" class="edge">
<title>Node10&#45;&gt;Node9</title>
<g id="a_edge9_Node000009_Node000010"><a xlink:title=" ">
<path fill="none" stroke="#9a32cd" stroke-dasharray="5,2" d="M668.79,-98.99C683.72,-96.29 701.5,-93.04 717.5,-90 830.11,-68.62 855.88,-40 970.5,-40 970.5,-40 970.5,-40 1613.38,-40 1667.41,-40 1727.97,-43.88 1775.54,-47.81"/>
<polygon fill="#9a32cd" stroke="#9a32cd" points="668.23,-95.53 659.01,-100.75 669.47,-102.42 668.23,-95.53"/>
</a>
</g>
<text text-anchor="middle" x="1297.38" y="-42.5" font-family="Helvetica,sans-Serif" font-size="10.00" fill="grey"> keys</text>
</g>
<!-- Node14 -->
<g id="Node000014" class="node">
<title>Node14</title>
<g id="a_Node000014"><a xlink:title=" ">
<polygon fill="white" stroke="#666666" points="1026,-105 917,-105 917,-85 1026,-85 1026,-105"/>
<text text-anchor="middle" x="971.5" y="-91.5" font-family="Helvetica,sans-Serif" font-size="10.00">std::vector&lt; HWND &gt;</text>
</a>
</g>
</g>
<!-- Node10&#45;&gt;Node14 -->
<g id="edge15_Node000014_Node000010" class="edge">
<title>Node10&#45;&gt;Node14</title>
<g id="a_edge15_Node000014_Node000010"><a xlink:title=" ">
<path fill="none" stroke="#9a32cd" stroke-dasharray="5,2" d="M668.78,-102.63C688.26,-101.35 713.25,-99.85 735.5,-99 797.68,-96.61 869.17,-95.65 916.81,-95.26"/>
<polygon fill="#9a32cd" stroke="#9a32cd" points="668.69,-99.13 658.95,-103.29 669.16,-106.11 668.69,-99.13"/>
</a>
</g>
<text text-anchor="middle" x="809" y="-101.5" font-family="Helvetica,sans-Serif" font-size="10.00" fill="grey"> elements</text>
</g>
<!-- Node11 -->
<g id="Node000011" class="node">
<title>Node11</title>
<g id="a_Node000011"><a xlink:title=" ">
<polygon fill="white" stroke="#666666" points="386.5,-28 296.25,-28 296.25,-8 386.5,-8 386.5,-28"/>
<text text-anchor="middle" x="341.38" y="-14.5" font-family="Helvetica,sans-Serif" font-size="10.00">std::map&lt; K, T &gt;</text>
</a>
</g>
</g>
<!-- Node11&#45;&gt;Node9 -->
<g id="edge11_Node000009_Node000011" class="edge">
<title>Node11&#45;&gt;Node9</title>
<g id="a_edge11_Node000009_Node000011"><a xlink:title=" ">
<path fill="none" stroke="orange" stroke-dasharray="5,2" d="M397.85,-12.52C456.31,-7.22 551.1,0 633.12,0 633.12,0 633.12,0 1613.38,0 1694.78,0 1787.64,-29.4 1832.61,-45.6"/>
<polygon fill="orange" stroke="orange" points="397.8,-9.01 388.16,-13.41 398.44,-15.98 397.8,-9.01"/>
</a>
</g>
<text text-anchor="middle" x="1182.88" y="-2.5" font-family="Helvetica,sans-Serif" font-size="10.00" fill="grey"> &lt; HWND, WinPosWnd * &gt;</text>
</g>
<!-- Node12 -->
<g id="Node000012" class="node">
<title>Node12</title>
<g id="a_Node000012"><a xlink:title=" ">
<polygon fill="white" stroke="#666666" points="175.15,-28 146.35,-28 146.35,-8 175.15,-8 175.15,-28"/>
<text text-anchor="middle" x="160.75" y="-14.5" font-family="Helvetica,sans-Serif" font-size="10.00">K</text>
</a>
</g>
</g>
<!-- Node12&#45;&gt;Node11 -->
<g id="edge12_Node000011_Node000012" class="edge">
<title>Node12&#45;&gt;Node11</title>
<g id="a_edge12_Node000011_Node000012"><a xlink:title=" ">
<path fill="none" stroke="#9a32cd" stroke-dasharray="5,2" d="M186.69,-18C214.89,-18 261.36,-18 295.83,-18"/>
<polygon fill="#9a32cd" stroke="#9a32cd" points="186.98,-14.5 176.98,-18 186.98,-21.5 186.98,-14.5"/>
</a>
</g>
<text text-anchor="middle" x="229.88" y="-20.5" font-family="Helvetica,sans-Serif" font-size="10.00" fill="grey"> keys</text>
</g>
<!-- Node13 -->
<g id="Node000013" class="node">
<title>Node13</title>
<g id="a_Node000013"><a xlink:title=" ">
<polygon fill="white" stroke="#666666" points="175.15,-226 146.35,-226 146.35,-206 175.15,-206 175.15,-226"/>
<text text-anchor="middle" x="160.75" y="-212.5" font-family="Helvetica,sans-Serif" font-size="10.00">T</text>
</a>
</g>
</g>
<!-- Node13&#45;&gt;Node11 -->
<g id="edge13_Node000011_Node000013" class="edge">
<title>Node13&#45;&gt;Node11</title>
<g id="a_edge13_Node000011_Node000013"><a xlink:title=" ">
<path fill="none" stroke="#9a32cd" stroke-dasharray="5,2" d="M178.8,-197.1C215.84,-156.04 302.6,-59.87 331.12,-28.26"/>
<polygon fill="#9a32cd" stroke="#9a32cd" points="176.22,-194.74 172.12,-204.51 181.41,-199.43 176.22,-194.74"/>
</a>
</g>
<text text-anchor="middle" x="229.88" y="-165.5" font-family="Helvetica,sans-Serif" font-size="10.00" fill="grey"> elements</text>
</g>
<!-- Node15 -->
<g id="Node000015" class="node">
<title>Node15</title>
<g id="a_Node000015"><a xlink:title=" ">
<polygon fill="white" stroke="#666666" points="383.5,-189 299.25,-189 299.25,-169 383.5,-169 383.5,-189"/>
<text text-anchor="middle" x="341.38" y="-175.5" font-family="Helvetica,sans-Serif" font-size="10.00">std::vector&lt; T &gt;</text>
</a>
</g>
</g>
<!-- Node13&#45;&gt;Node15 -->
<g id="edge17_Node000015_Node000013" class="edge">
<title>Node13&#45;&gt;Node15</title>
<g id="a_edge17_Node000015_Node000013"><a xlink:title=" ">
<path fill="none" stroke="#9a32cd" stroke-dasharray="5,2" d="M186.39,-210.69C193.52,-209.16 201.32,-207.5 208.5,-206 238.69,-199.68 272.81,-192.7 298.78,-187.42"/>
<polygon fill="#9a32cd" stroke="#9a32cd" points="185.77,-207.24 176.73,-212.76 187.24,-214.08 185.77,-207.24"/>
</a>
</g>
<text text-anchor="middle" x="229.88" y="-208.5" font-family="Helvetica,sans-Serif" font-size="10.00" fill="grey"> elements</text>
</g>
<!-- Node18 -->
<g id="Node000018" class="node">
<title>Node18</title>
<g id="a_Node000018"><a xlink:title=" ">
<polygon fill="white" stroke="#666666" points="393.62,-245 289.12,-245 289.12,-225 393.62,-225 393.62,-245"/>
<text text-anchor="middle" x="341.38" y="-231.5" font-family="Helvetica,sans-Serif" font-size="10.00">std::shared_ptr&lt; T &gt;</text>
</a>
</g>
</g>
<!-- Node13&#45;&gt;Node18 -->
<g id="edge22_Node000018_Node000013" class="edge">
<title>Node13&#45;&gt;Node18</title>
<g id="a_edge22_Node000018_Node000013"><a xlink:title=" ">
<path fill="none" stroke="#9a32cd" stroke-dasharray="5,2" d="M186.68,-218.65C213.01,-221.45 255.26,-225.95 288.81,-229.52"/>
<polygon fill="#9a32cd" stroke="#9a32cd" points="187.29,-215.2 176.97,-217.62 186.55,-222.16 187.29,-215.2"/>
</a>
</g>
<text text-anchor="middle" x="229.88" y="-240.5" font-family="Helvetica,sans-Serif" font-size="10.00" fill="grey"> dummy</text>
<text text-anchor="middle" x="229.88" y="-228.5" font-family="Helvetica,sans-Serif" font-size="10.00" fill="grey">ptr</text>
</g>
<!-- Node23 -->
<g id="Node000023" class="node">
<title>Node23</title>
<g id="a_Node000023"><a xlink:title=" ">
<polygon fill="white" stroke="#666666" points="531,-466 433.25,-466 433.25,-446 531,-446 531,-466"/>
<text text-anchor="middle" x="482.12" y="-452.5" font-family="Helvetica,sans-Serif" font-size="10.00">std::weak_ptr&lt; T &gt;</text>
</a>
</g>
</g>
<!-- Node13&#45;&gt;Node23 -->
<g id="edge37_Node000023_Node000013" class="edge">
<title>Node13&#45;&gt;Node23</title>
<g id="a_edge37_Node000023_Node000013"><a xlink:title=" ">
<path fill="none" stroke="#9a32cd" stroke-dasharray="5,2" d="M178.95,-234.79C219.08,-277.55 323.72,-382.91 431.5,-441 434.59,-442.67 437.89,-444.17 441.26,-445.53"/>
<polygon fill="#9a32cd" stroke="#9a32cd" points="181.58,-232.48 172.21,-227.54 176.46,-237.25 181.58,-232.48"/>
</a>
</g>
<text text-anchor="middle" x="229.88" y="-307.5" font-family="Helvetica,sans-Serif" font-size="10.00" fill="grey"> ptr</text>
</g>
<!-- Node14&#45;&gt;Node7 -->
<g id="edge14_Node000007_Node000014" class="edge">
<title>Node14&#45;&gt;Node7</title>
<g id="a_edge14_Node000007_Node000014"><a xlink:title=" ">
<path fill="none" stroke="#9a32cd" stroke-dasharray="5,2" d="M1037.44,-92.06C1133.74,-88.92 1319.74,-87.51 1475,-114 1513.52,-120.57 1523.27,-124.16 1559,-140 1572.14,-145.82 1586.1,-154.21 1596.3,-160.79"/>
<polygon fill="#9a32cd" stroke="#9a32cd" points="1037.54,-88.56 1027.66,-92.4 1037.78,-95.55 1037.54,-88.56"/>
</a>
</g>
<text text-anchor="middle" x="1297.38" y="-99.5" font-family="Helvetica,sans-Serif" font-size="10.00" fill="grey"> _hWnds</text>
</g>
<!-- Node15&#45;&gt;Node14 -->
<g id="edge16_Node000014_Node000015" class="edge">
<title>Node15&#45;&gt;Node14</title>
<g id="a_edge16_Node000014_Node000015"><a xlink:title=" ">
<path fill="none" stroke="orange" stroke-dasharray="5,2" d="M366.06,-162.36C403.29,-137.34 478.7,-91.13 550.75,-74 684.03,-42.32 847.59,-68.4 925.32,-84.56"/>
<polygon fill="orange" stroke="orange" points="364.15,-159.43 357.86,-167.96 368.09,-165.21 364.15,-159.43"/>
</a>
</g>
<text text-anchor="middle" x="634.12" y="-76.5" font-family="Helvetica,sans-Serif" font-size="10.00" fill="grey"> &lt; HWND &gt;</text>
</g>
<!-- Node16 -->
<g id="Node000016" class="node">
<title>Node16</title>
<g id="a_Node000016"><a xlink:title=" ">
<polygon fill="white" stroke="#666666" points="1471.25,-231 1346.5,-231 1346.5,-199 1471.25,-199 1471.25,-231"/>
<text text-anchor="start" x="1354.5" y="-217.5" font-family="Helvetica,sans-Serif" font-size="10.00">std::vector&lt; std::shared</text>
<text text-anchor="middle" x="1408.88" y="-205.5" font-family="Helvetica,sans-Serif" font-size="10.00">_ptr&lt; MonitorPreview &gt; &gt;</text>
</a>
</g>
</g>
<!-- Node15&#45;&gt;Node16 -->
<g id="edge23_Node000016_Node000015" class="edge">
<title>Node15&#45;&gt;Node16</title>
<g id="a_edge23_Node000016_Node000015"><a xlink:title=" ">
<path fill="none" stroke="orange" stroke-dasharray="5,2" d="M394.83,-173.5C453,-167.89 549.66,-160 633.12,-160 633.12,-160 633.12,-160 1183.88,-160 1249.35,-160 1322.56,-182.43 1366.92,-198.65"/>
<polygon fill="orange" stroke="orange" points="394.84,-169.99 385.23,-174.45 395.53,-176.95 394.84,-169.99"/>
</a>
</g>
<text text-anchor="start" x="928.38" y="-174.5" font-family="Helvetica,sans-Serif" font-size="10.00" fill="grey"> &lt; std::shared_ptr&lt;</text>
<text text-anchor="middle" x="971.5" y="-162.5" font-family="Helvetica,sans-Serif" font-size="10.00" fill="grey"> MonitorPreview &gt; &gt;</text>
</g>
<!-- Node21 -->
<g id="Node000021" class="node">
<title>Node21</title>
<g id="a_Node000021"><a xlink:title=" ">
<polygon fill="white" stroke="#666666" points="702.88,-260 565.38,-260 565.38,-228 702.88,-228 702.88,-260"/>
<text text-anchor="start" x="573.38" y="-246.5" font-family="Helvetica,sans-Serif" font-size="10.00">std::vector&lt; WinPosPreview</text>
<text text-anchor="middle" x="634.12" y="-234.5" font-family="Helvetica,sans-Serif" font-size="10.00">Ptr &gt;</text>
</a>
</g>
</g>
<!-- Node15&#45;&gt;Node21 -->
<g id="edge32_Node000021_Node000015" class="edge">
<title>Node15&#45;&gt;Node21</title>
<g id="a_edge32_Node000021_Node000015"><a xlink:title=" ">
<path fill="none" stroke="orange" stroke-dasharray="5,2" d="M394.72,-190.7C442.36,-201.35 512.99,-217.14 565.01,-228.77"/>
<polygon fill="orange" stroke="orange" points="395.72,-187.34 385.2,-188.57 394.2,-194.17 395.72,-187.34"/>
</a>
</g>
<text text-anchor="middle" x="482.12" y="-224.5" font-family="Helvetica,sans-Serif" font-size="10.00" fill="grey"> &lt; WinPosPreviewPtr &gt;</text>
</g>
<!-- Node16&#45;&gt;Node7 -->
<g id="edge18_Node000007_Node000016" class="edge">
<title>Node16&#45;&gt;Node7</title>
<g id="a_edge18_Node000007_Node000016"><a xlink:title=" ">
<path fill="none" stroke="#9a32cd" stroke-dasharray="5,2" d="M1482.84,-202.97C1507.19,-198.51 1534.38,-193.05 1559,-187 1565.56,-185.39 1572.5,-183.44 1579.12,-181.47"/>
<polygon fill="#9a32cd" stroke="#9a32cd" points="1482.22,-199.52 1473,-204.74 1483.46,-206.41 1482.22,-199.52"/>
</a>
</g>
<text text-anchor="middle" x="1526" y="-203.5" font-family="Helvetica,sans-Serif" font-size="10.00" fill="grey"> _previews</text>
</g>
<!-- Node17&#45;&gt;Node16 -->
<g id="edge19_Node000016_Node000017" class="edge">
<title>Node17&#45;&gt;Node16</title>
<g id="a_edge19_Node000016_Node000017"><a xlink:title=" ">
<path fill="none" stroke="#9a32cd" stroke-dasharray="5,2" d="M1255.82,-215C1284.89,-215 1318.09,-215 1346.04,-215"/>
<polygon fill="#9a32cd" stroke="#9a32cd" points="1256.01,-211.5 1246.01,-215 1256.01,-218.5 1256.01,-211.5"/>
</a>
</g>
<text text-anchor="middle" x="1297.38" y="-217.5" font-family="Helvetica,sans-Serif" font-size="10.00" fill="grey"> elements</text>
</g>
<!-- Node18&#45;&gt;Node17 -->
<g id="edge21_Node000017_Node000018" class="edge">
<title>Node18&#45;&gt;Node17</title>
<g id="a_edge21_Node000017_Node000018"><a xlink:title=" ">
<path fill="none" stroke="orange" stroke-dasharray="5,2" d="M372.21,-219.59C389.12,-211.73 410.94,-203 431.5,-199 475.67,-190.42 487.75,-198.45 532.75,-199 749.46,-201.67 1006.76,-209.35 1121.48,-213.01"/>
<polygon fill="orange" stroke="orange" points="370.73,-216.42 363.24,-223.91 373.77,-222.72 370.73,-216.42"/>
</a>
</g>
<text text-anchor="middle" x="809" y="-209.5" font-family="Helvetica,sans-Serif" font-size="10.00" fill="grey"> &lt; MonitorPreview &gt;</text>
</g>
<!-- Node18&#45;&gt;Node21 -->
<g id="edge31_Node000021_Node000018" class="edge">
<title>Node18&#45;&gt;Node21</title>
<g id="a_edge31_Node000021_Node000018"><a xlink:title=" ">
<path fill="none" stroke="#9a32cd" stroke-dasharray="5,2" d="M405.3,-236.95C452.39,-238.41 516.72,-240.4 565.02,-241.89"/>
<polygon fill="#9a32cd" stroke="#9a32cd" points="405.64,-233.46 395.53,-236.65 405.42,-240.45 405.64,-233.46"/>
</a>
</g>
<text text-anchor="middle" x="482.12" y="-243.5" font-family="Helvetica,sans-Serif" font-size="10.00" fill="grey"> elements</text>
</g>
<!-- Node18&#45;&gt;Node22 -->
<g id="edge35_Node000022_Node000018" class="edge">
<title>Node18&#45;&gt;Node22</title>
<g id="a_edge35_Node000022_Node000018"><a xlink:title=" ">
<path fill="none" stroke="orange" stroke-dasharray="5,2" d="M357.8,-254.16C373.99,-272.74 401.26,-299.99 431.5,-313 468.48,-328.92 512.71,-334.4 550.31,-335.59"/>
<polygon fill="orange" stroke="orange" points="360.48,-251.91 351.36,-246.51 355.12,-256.41 360.48,-251.91"/>
</a>
</g>
<text text-anchor="middle" x="482.12" y="-336.5" font-family="Helvetica,sans-Serif" font-size="10.00" fill="grey"> &lt; WinPosPreview &gt;</text>
</g>
<!-- Node19 -->
<g id="Node000019" class="node">
<title>Node19</title>
<g id="a_Node000019"><a xlink:title=" ">
<polygon fill="white" stroke="#666666" points="1427.38,-181 1390.38,-181 1390.38,-161 1427.38,-161 1427.38,-181"/>
<text text-anchor="middle" x="1408.88" y="-167.5" font-family="Helvetica,sans-Serif" font-size="10.00">UINT</text>
</a>
</g>
</g>
<!-- Node19&#45;&gt;Node7 -->
<g id="edge25_Node000007_Node000019" class="edge">
<title>Node19&#45;&gt;Node7</title>
<g id="a_edge25_Node000007_Node000019"><a xlink:title=" ">
<path fill="none" stroke="#9a32cd" stroke-dasharray="5,2" d="M1439.08,-171C1475.6,-171 1538.03,-171 1576.87,-171"/>
<polygon fill="#9a32cd" stroke="#9a32cd" points="1439.27,-167.5 1429.27,-171 1439.27,-174.5 1439.27,-167.5"/>
</a>
</g>
<text text-anchor="middle" x="1526" y="-173.5" font-family="Helvetica,sans-Serif" font-size="10.00" fill="grey"> _closeTimeout</text>
</g>
<!-- Node20 -->
<g id="Node000020" class="node">
<title>Node20</title>
<g id="a_Node000020"><a xlink:title=" ">
<polygon fill="white" stroke="#666666" points="1432.25,-143 1385.5,-143 1385.5,-123 1432.25,-123 1432.25,-143"/>
<text text-anchor="middle" x="1408.88" y="-129.5" font-family="Helvetica,sans-Serif" font-size="10.00">FLOAT</text>
</a>
</g>
</g>
<!-- Node20&#45;&gt;Node7 -->
<g id="edge26_Node000007_Node000020" class="edge">
<title>Node20&#45;&gt;Node7</title>
<g id="a_edge26_Node000007_Node000020"><a xlink:title=" ">
<path fill="none" stroke="#9a32cd" stroke-dasharray="5,2" d="M1443.8,-136.54C1474.2,-140.05 1519.9,-146.19 1559,-155 1565.86,-156.55 1573.14,-158.53 1580.01,-160.58"/>
<polygon fill="#9a32cd" stroke="#9a32cd" points="1444.39,-133.08 1434.06,-135.44 1443.61,-140.04 1444.39,-133.08"/>
</a>
</g>
<text text-anchor="middle" x="1526" y="-157.5" font-family="Helvetica,sans-Serif" font-size="10.00" fill="grey"> _scale</text>
</g>
<!-- Node21&#45;&gt;Node6 -->
<g id="edge30_Node000006_Node000021" class="edge">
<title>Node21&#45;&gt;Node6</title>
<g id="a_edge30_Node000006_Node000021"><a xlink:title=" ">
<path fill="none" stroke="#9a32cd" stroke-dasharray="5,2" d="M714.73,-245.67C763.48,-247.71 826.95,-252.19 882.5,-262 901.74,-265.4 922.8,-271.3 939.5,-276.52"/>
<polygon fill="#9a32cd" stroke="#9a32cd" points="714.95,-242.18 704.82,-245.28 714.68,-249.17 714.95,-242.18"/>
</a>
</g>
<text text-anchor="middle" x="809" y="-264.5" font-family="Helvetica,sans-Serif" font-size="10.00" fill="grey"> previews</text>
</g>
<!-- Node22&#45;&gt;Node6 -->
<g id="edge33_Node000006_Node000022" class="edge">
<title>Node22&#45;&gt;Node6</title>
<g id="a_edge33_Node000006_Node000022"><a xlink:title=" ">
<path fill="none" stroke="#9a32cd" stroke-dasharray="5,2" d="M729.22,-321.67C775.46,-316.32 831.98,-309.37 882.5,-302 891.85,-300.64 901.75,-299.07 911.39,-297.48"/>
<polygon fill="#9a32cd" stroke="#9a32cd" points="729.04,-318.17 719.5,-322.79 729.84,-325.12 729.04,-318.17"/>
</a>
</g>
<text text-anchor="middle" x="809" y="-322.5" font-family="Helvetica,sans-Serif" font-size="10.00" fill="grey"> activeWinPosPreview</text>
</g>
<!-- Node23&#45;&gt;Node5 -->
<g id="edge36_Node000005_Node000023" class="edge">
<title>Node23&#45;&gt;Node5</title>
<g id="a_edge36_Node000005_Node000023"><a xlink:title=" ">
<path fill="none" stroke="orange" stroke-dasharray="5,2" d="M542.98,-453.42C594.11,-451.32 669.62,-448.47 735.5,-447 869.35,-444.01 1025.81,-443.24 1113.42,-443.05"/>
<polygon fill="orange" stroke="orange" points="542.85,-449.92 533.01,-453.83 543.14,-456.91 542.85,-449.92"/>
</a>
</g>
<text text-anchor="middle" x="809" y="-449.5" font-family="Helvetica,sans-Serif" font-size="10.00" fill="grey"> &lt; WinPosWnd::MonitorPreview &gt;</text>
</g>
</g>
</svg>

<g id="navigator" transform="translate(0 0)" fill="#404254">
  <rect fill="#f2f5e9" fill-opacity="0.5" stroke="#606060" stroke-width=".5" x="0" y="0" width="60" height="60"/>
  <use id="zoomplus" xlink:href="#zoomPlus" x="17" y="9" onmousedown="handleZoom(evt,'in')"/>
  <use id="zoomminus" xlink:href="#zoomMin" x="42" y="9" onmousedown="handleZoom(evt,'out')"/>
  <use id="reset" xlink:href="#resetDef" x="30" y="36" onmousedown="handleReset()"/>
   <use id="arrowup" xlink:href="#arrowUp" x="0" y="0" onmousedown="handlePan(0,-1)"/>
  <use id="arrowright" xlink:href="#arrowRight" x="0" y="0" onmousedown="handlePan(1,0)"/>
  <use id="arrowdown" xlink:href="#arrowDown" x="0" y="0" onmousedown="handlePan(0,1)"/>
  <use id="arrowleft" xlink:href="#arrowLeft" x="0" y="0" onmousedown="handlePan(-1,0)"/>
</g>
<svg viewBox="0 0 15 15" width="100%" height="30px" preserveAspectRatio="xMaxYMin meet">
 <g id="arrow_out" transform="scale(0.3 0.3)">
  <a xlink:href="struct_win_pos_wnd_1_1_win_pos_preview__coll__graph_org.svg" target="_base">
   <rect id="button" ry="5" rx="5" y="6" x="6" height="38" width="38"
        fill="#f2f5e9" fill-opacity="0.5" stroke="#606060" stroke-width="1.0"/>
   <path id="arrow"
     d="M 11.500037,31.436501 C 11.940474,20.09759 22.043105,11.32322 32.158766,21.979434 L 37.068811,17.246167 C 37.068811,17.246167 37.088388,32 37.088388,32 L 22.160133,31.978069 C 22.160133,31.978069 26.997745,27.140456 26.997745,27.140456 C 18.528582,18.264221 13.291696,25.230495 11.500037,31.436501 z"
     style="fill:#404040;"/>
  </a>
 </g>
</svg>

<style type='text/css'>
<![CDATA[
[data-mouse-over-selected='false'] { opacity: 0.7; }
[data-mouse-over-selected='true']  { opacity: 1.0; }
]]>
</style>
<script type="application/ecmascript"><![CDATA[
document.addEventListener('DOMContentLoaded', (event) => {
  highlightEdges();
  highlightAdjacentNodes();
});
]]></script>
</svg>
