<?xml version="1.0" encoding="UTF-8" standalone="no"?>
<!DOCTYPE svg PUBLIC "-//W3C//DTD SVG 1.1//EN"
 "http://www.w3.org/Graphics/SVG/1.1/DTD/svg11.dtd">
<!-- Generated by graphviz version 9.0.0 (20230911.1827)
 -->
<!-- Title: wiNpoS&#45;App/framework.h Pages: 1 -->
<svg width="435pt" height="140pt"
 viewBox="0.00 0.00 434.88 140.00" xmlns="http://www.w3.org/2000/svg" xmlns:xlink="http://www.w3.org/1999/xlink">
<g id="graph0" class="graph" transform="scale(1 1) rotate(0) translate(4 136)">
<title>wiNpoS&#45;App/framework.h</title>
<!-- Node1 -->
<g id="Node000001" class="node">
<title>Node1</title>
<g id="a_Node000001"><a xlink:title=" ">
<polygon fill="#999999" stroke="#666666" points="287.25,-132 162.5,-132 162.5,-112 287.25,-112 287.25,-132"/>
<text text-anchor="middle" x="224.88" y="-118.5" font-family="Helvetica,sans-Serif" font-size="10.00">wiNpoS&#45;App/framework.h</text>
</a>
</g>
</g>
<!-- Node2 -->
<g id="Node000002" class="node">
<title>Node2</title>
<g id="a_Node000002"><a xlink:href="targetver_8h.html" target="_top" xlink:title=" ">
<polygon fill="white" stroke="#666666" points="70.38,-76 9.38,-76 9.38,-56 70.38,-56 70.38,-76"/>
<text text-anchor="middle" x="39.88" y="-62.5" font-family="Helvetica,sans-Serif" font-size="10.00">targetver.h</text>
</a>
</g>
</g>
<!-- Node1&#45;&gt;Node2 -->
<g id="edge1_Node000001_Node000002" class="edge">
<title>Node1&#45;&gt;Node2</title>
<g id="a_edge1_Node000001_Node000002"><a xlink:title=" ">
<path fill="none" stroke="#63b8ff" d="M192.65,-111.59C161.86,-102.61 115.3,-89.02 81.67,-79.2"/>
<polygon fill="#63b8ff" stroke="#63b8ff" points="82.84,-75.9 72.26,-76.45 80.88,-82.61 82.84,-75.9"/>
</a>
</g>
</g>
<!-- Node4 -->
<g id="Node000004" class="node">
<title>Node4</title>
<g id="a_Node000004"><a xlink:title=" ">
<polygon fill="#e0e0e0" stroke="#999999" points="149.38,-76 88.38,-76 88.38,-56 149.38,-56 149.38,-76"/>
<text text-anchor="middle" x="118.88" y="-62.5" font-family="Helvetica,sans-Serif" font-size="10.00">windows.h</text>
</a>
</g>
</g>
<!-- Node1&#45;&gt;Node4 -->
<g id="edge3_Node000001_Node000004" class="edge">
<title>Node1&#45;&gt;Node4</title>
<g id="a_edge3_Node000001_Node000004"><a xlink:title=" ">
<path fill="none" stroke="#63b8ff" d="M206.41,-111.59C190.17,-103.32 166.27,-91.14 147.54,-81.6"/>
<polygon fill="#63b8ff" stroke="#63b8ff" points="149.33,-78.59 138.83,-77.17 146.15,-84.82 149.33,-78.59"/>
</a>
</g>
</g>
<!-- Node5 -->
<g id="Node000005" class="node">
<title>Node5</title>
<g id="a_Node000005"><a xlink:title=" ">
<polygon fill="#e0e0e0" stroke="#999999" points="214.62,-76 167.12,-76 167.12,-56 214.62,-56 214.62,-76"/>
<text text-anchor="middle" x="190.88" y="-62.5" font-family="Helvetica,sans-Serif" font-size="10.00">stdlib.h</text>
</a>
</g>
</g>
<!-- Node1&#45;&gt;Node5 -->
<g id="edge4_Node000001_Node000005" class="edge">
<title>Node1&#45;&gt;Node5</title>
<g id="a_edge4_Node000001_Node000005"><a xlink:title=" ">
<path fill="none" stroke="#63b8ff" d="M218.95,-111.59C214.52,-104.55 208.3,-94.67 202.84,-86"/>
<polygon fill="#63b8ff" stroke="#63b8ff" points="205.83,-84.18 197.54,-77.58 199.9,-87.91 205.83,-84.18"/>
</a>
</g>
</g>
<!-- Node6 -->
<g id="Node000006" class="node">
<title>Node6</title>
<g id="a_Node000006"><a xlink:title=" ">
<polygon fill="#e0e0e0" stroke="#999999" points="285.25,-76 232.5,-76 232.5,-56 285.25,-56 285.25,-76"/>
<text text-anchor="middle" x="258.88" y="-62.5" font-family="Helvetica,sans-Serif" font-size="10.00">malloc.h</text>
</a>
</g>
</g>
<!-- Node1&#45;&gt;Node6 -->
<g id="edge5_Node000001_Node000006" class="edge">
<title>Node1&#45;&gt;Node6</title>
<g id="a_edge5_Node000001_Node000006"><a xlink:title=" ">
<path fill="none" stroke="#63b8ff" d="M230.8,-111.59C235.23,-104.55 241.45,-94.67 246.91,-86"/>
<polygon fill="#63b8ff" stroke="#63b8ff" points="249.85,-87.91 252.21,-77.58 243.92,-84.18 249.85,-87.91"/>
</a>
</g>
</g>
<!-- Node7 -->
<g id="Node000007" class="node">
<title>Node7</title>
<g id="a_Node000007"><a xlink:title=" ">
<polygon fill="#e0e0e0" stroke="#999999" points="362.62,-76 303.12,-76 303.12,-56 362.62,-56 362.62,-76"/>
<text text-anchor="middle" x="332.88" y="-62.5" font-family="Helvetica,sans-Serif" font-size="10.00">memory.h</text>
</a>
</g>
</g>
<!-- Node1&#45;&gt;Node7 -->
<g id="edge6_Node000001_Node000007" class="edge">
<title>Node1&#45;&gt;Node7</title>
<g id="a_edge6_Node000001_Node000007"><a xlink:title=" ">
<path fill="none" stroke="#63b8ff" d="M243.69,-111.59C260.23,-103.32 284.59,-91.14 303.67,-81.6"/>
<polygon fill="#63b8ff" stroke="#63b8ff" points="305.18,-84.76 312.56,-77.16 302.05,-78.5 305.18,-84.76"/>
</a>
</g>
</g>
<!-- Node8 -->
<g id="Node000008" class="node">
<title>Node8</title>
<g id="a_Node000008"><a xlink:title=" ">
<polygon fill="#e0e0e0" stroke="#999999" points="426.88,-76 380.88,-76 380.88,-56 426.88,-56 426.88,-76"/>
<text text-anchor="middle" x="403.88" y="-62.5" font-family="Helvetica,sans-Serif" font-size="10.00">tchar.h</text>
</a>
</g>
</g>
<!-- Node1&#45;&gt;Node8 -->
<g id="edge7_Node000001_Node000008" class="edge">
<title>Node1&#45;&gt;Node8</title>
<g id="a_edge7_Node000001_Node000008"><a xlink:title=" ">
<path fill="none" stroke="#63b8ff" d="M256.05,-111.59C287.77,-102.03 336.8,-87.23 369.6,-77.34"/>
<polygon fill="#63b8ff" stroke="#63b8ff" points="370.45,-80.74 379.01,-74.5 368.43,-74.04 370.45,-80.74"/>
</a>
</g>
</g>
<!-- Node3 -->
<g id="Node000003" class="node">
<title>Node3</title>
<g id="a_Node000003"><a xlink:title=" ">
<polygon fill="#e0e0e0" stroke="#999999" points="79.75,-20 0,-20 0,0 79.75,0 79.75,-20"/>
<text text-anchor="middle" x="39.88" y="-6.5" font-family="Helvetica,sans-Serif" font-size="10.00">SDKDDKVer.h</text>
</a>
</g>
</g>
<!-- Node2&#45;&gt;Node3 -->
<g id="edge2_Node000002_Node000003" class="edge">
<title>Node2&#45;&gt;Node3</title>
<g id="a_edge2_Node000002_Node000003"><a xlink:title=" ">
<path fill="none" stroke="#63b8ff" d="M39.88,-55.59C39.88,-49.01 39.88,-39.96 39.88,-31.73"/>
<polygon fill="#63b8ff" stroke="#63b8ff" points="43.38,-31.81 39.88,-21.81 36.38,-31.81 43.38,-31.81"/>
</a>
</g>
</g>
</g>
</svg>
