<?xml version="1.0" encoding="UTF-8" standalone="no"?>
<!DOCTYPE svg PUBLIC "-//W3C//DTD SVG 1.1//EN"
 "http://www.w3.org/Graphics/SVG/1.1/DTD/svg11.dtd">
<!-- Generated by graphviz version 8.1.0 (20230707.0739)
 -->
<!-- Title: wiNpoS&#45;App/framework.h Pages: 1 -->
<svg width="278pt" height="140pt"
 viewBox="0.00 0.00 277.50 140.00" xmlns="http://www.w3.org/2000/svg" xmlns:xlink="http://www.w3.org/1999/xlink">

<svg id="main" version="1.1" xmlns="http://www.w3.org/2000/svg" xmlns:xlink="http://www.w3.org/1999/xlink" xml:space="preserve" onload="init(evt)">
<style type="text/css"><![CDATA[
.node, .edge {opacity: 0.7;}
.node.selected, .edge.selected {opacity: 1;}
.edge:hover path { stroke: red; }
.edge:hover polygon { stroke: red; fill: red; }
]]></style>
<script type="application/ecmascript" xlink:href="svg.min.js"/>
<svg id="graph" class="graph">
<g id="graph0" class="graph" transform="scale(1 1) rotate(0) translate(4 136)">
<title>wiNpoS&#45;App/framework.h</title>
<!-- Node1 -->
<g id="Node000001" class="node">
<title>Node1</title>
<g id="a_Node000001"><a xlink:title=" ">
<polygon fill="#999999" stroke="#666666" points="221.75,-132 97,-132 97,-112 221.75,-112 221.75,-132"/>
<text text-anchor="middle" x="159.38" y="-118.5" font-family="Helvetica,sans-Serif" font-size="10.00">wiNpoS&#45;App/framework.h</text>
</a>
</g>
</g>
<!-- Node2 -->
<g id="Node000002" class="node">
<title>Node2</title>
<g id="a_Node000002"><a xlink:href="wi_npo_s-_app_2pch_8h.html" target="_top" xlink:title=" ">
<polygon fill="white" stroke="#666666" points="169.5,-76 73.25,-76 73.25,-56 169.5,-56 169.5,-76"/>
<text text-anchor="middle" x="121.38" y="-62.5" font-family="Helvetica,sans-Serif" font-size="10.00">wiNpoS&#45;App/pch.h</text>
</a>
</g>
</g>
<!-- Node1&#45;&gt;Node2 -->
<g id="edge1_Node000001_Node000002" class="edge">
<title>Node1&#45;&gt;Node2</title>
<g id="a_edge1_Node000001_Node000002"><a xlink:title=" ">
<path fill="none" stroke="#63b8ff" d="M146.51,-102.72C140.26,-93.84 133.02,-83.55 127.92,-76.3"/>
<polygon fill="#63b8ff" stroke="#63b8ff" points="144.14,-104.43 152.76,-110.59 149.86,-100.4 144.14,-104.43"/>
</a>
</g>
</g>
<!-- Node4 -->
<g id="Node000004" class="node">
<title>Node4</title>
<g id="a_Node000004"><a xlink:href="wi_npo_s-_app_8cpp.html" target="_top" xlink:title=" ">
<polygon fill="white" stroke="#666666" points="269.5,-20 125.25,-20 125.25,0 269.5,0 269.5,-20"/>
<text text-anchor="middle" x="197.38" y="-6.5" font-family="Helvetica,sans-Serif" font-size="10.00">wiNpoS&#45;App/wiNpoS&#45;App.cpp</text>
</a>
</g>
</g>
<!-- Node1&#45;&gt;Node4 -->
<g id="edge4_Node000001_Node000004" class="edge">
<title>Node1&#45;&gt;Node4</title>
<g id="a_edge4_Node000001_Node000004"><a xlink:title=" ">
<path fill="none" stroke="#63b8ff" d="M168.06,-101.79C171.49,-93.88 175.32,-84.58 178.38,-76 185.31,-56.51 191.69,-33.09 195,-20.36"/>
<polygon fill="#63b8ff" stroke="#63b8ff" points="164.47,-100.25 163.62,-110.81 170.87,-103.09 164.47,-100.25"/>
</a>
</g>
</g>
<!-- Node3 -->
<g id="Node000003" class="node">
<title>Node3</title>
<g id="a_Node000003"><a xlink:href="wi_npo_s-_app_2pch_8cpp.html" target="_top" xlink:title=" ">
<polygon fill="white" stroke="#666666" points="106.75,-20 0,-20 0,0 106.75,0 106.75,-20"/>
<text text-anchor="middle" x="53.38" y="-6.5" font-family="Helvetica,sans-Serif" font-size="10.00">wiNpoS&#45;App/pch.cpp</text>
</a>
</g>
</g>
<!-- Node2&#45;&gt;Node3 -->
<g id="edge2_Node000002_Node000003" class="edge">
<title>Node2&#45;&gt;Node3</title>
<g id="a_edge2_Node000002_Node000003"><a xlink:title=" ">
<path fill="none" stroke="#63b8ff" d="M101.17,-48.95C89.41,-39.61 74.99,-28.16 65.08,-20.3"/>
<polygon fill="#63b8ff" stroke="#63b8ff" points="98.52,-52.12 108.53,-55.59 102.88,-46.63 98.52,-52.12"/>
</a>
</g>
</g>
<!-- Node2&#45;&gt;Node4 -->
<g id="edge3_Node000002_Node000004" class="edge">
<title>Node2&#45;&gt;Node4</title>
<g id="a_edge3_Node000002_Node000004"><a xlink:title=" ">
<path fill="none" stroke="#63b8ff" d="M143.51,-49.27C156.64,-39.94 172.85,-28.43 184.03,-20.48"/>
<polygon fill="#63b8ff" stroke="#63b8ff" points="141.74,-46.95 135.61,-55.59 145.79,-52.65 141.74,-46.95"/>
</a>
</g>
</g>
</g>
</svg>
</svg>

<style type='text/css'>
<![CDATA[
[data-mouse-over-selected='false'] { opacity: 0.7; }
[data-mouse-over-selected='true']  { opacity: 1.0; }
]]>
</style>
<script type="application/ecmascript"><![CDATA[
document.addEventListener('DOMContentLoaded', (event) => {
  highlightEdges();
  highlightAdjacentNodes();
});
]]></script>
</svg>
