<?xml version="1.0" encoding="UTF-8" standalone="no"?>
<!DOCTYPE svg PUBLIC "-//W3C//DTD SVG 1.1//EN"
 "http://www.w3.org/Graphics/SVG/1.1/DTD/svg11.dtd">
<!-- Generated by graphviz version 9.0.0 (20230911.1827)
 -->
<!-- Title: CreateNewWindow Pages: 1 -->
<svg width="556pt" height="66pt"
 viewBox="0.00 0.00 556.00 66.00" xmlns="http://www.w3.org/2000/svg" xmlns:xlink="http://www.w3.org/1999/xlink">
<g id="graph0" class="graph" transform="scale(1 1) rotate(0) translate(4 62)">
<title>CreateNewWindow</title>
<!-- Node1 -->
<g id="Node000001" class="node">
<title>Node1</title>
<g id="a_Node000001"><a xlink:title=" ">
<polygon fill="#999999" stroke="#666666" points="548,-39 450.25,-39 450.25,-19 548,-19 548,-39"/>
<text text-anchor="middle" x="499.12" y="-25.5" font-family="Helvetica,sans-Serif" font-size="10.00">CreateNewWindow</text>
</a>
</g>
</g>
<!-- Node2 -->
<g id="Node000002" class="node">
<title>Node2</title>
<g id="a_Node000002"><a xlink:href="wi_npo_s-_app_8cpp.html#a96e0b05d8a298452b48bf21c2d91e6b3" target="_top" xlink:title=" ">
<polygon fill="white" stroke="#666666" points="288.75,-58 223.25,-58 223.25,-38 288.75,-38 288.75,-58"/>
<text text-anchor="middle" x="256" y="-44.5" font-family="Helvetica,sans-Serif" font-size="10.00">InitInstance</text>
</a>
</g>
</g>
<!-- Node1&#45;&gt;Node2 -->
<g id="edge1_Node000001_Node000002" class="edge">
<title>Node1&#45;&gt;Node2</title>
<g id="a_edge1_Node000001_Node000002"><a xlink:title=" ">
<path fill="none" stroke="#63b8ff" d="M438.58,-33.69C391.3,-37.42 327.01,-42.48 288.98,-45.48"/>
<polygon fill="#63b8ff" stroke="#63b8ff" points="438.71,-37.19 448.4,-32.92 438.16,-30.21 438.71,-37.19"/>
</a>
</g>
</g>
<!-- Node4 -->
<g id="Node000004" class="node">
<title>Node4</title>
<g id="a_Node000004"><a xlink:href="wi_npo_s-_app_8cpp.html#a753ee9c862066d7e289d1da14855db15" target="_top" xlink:title=" ">
<polygon fill="white" stroke="#666666" points="414.25,-20 324.75,-20 324.75,0 414.25,0 414.25,-20"/>
<text text-anchor="middle" x="369.5" y="-6.5" font-family="Helvetica,sans-Serif" font-size="10.00">NewWindowProc</text>
</a>
</g>
</g>
<!-- Node1&#45;&gt;Node4 -->
<g id="edge3_Node000001_Node000004" class="edge">
<title>Node1&#45;&gt;Node4</title>
<g id="a_edge3_Node000001_Node000004"><a xlink:title=" ">
<path fill="none" stroke="#63b8ff" d="M438.58,-20.14C430.51,-18.93 422.35,-17.72 414.62,-16.57"/>
<polygon fill="#63b8ff" stroke="#63b8ff" points="437.97,-23.58 448.38,-21.59 439,-16.66 437.97,-23.58"/>
</a>
</g>
</g>
<!-- Node3 -->
<g id="Node000003" class="node">
<title>Node3</title>
<g id="a_Node000003"><a xlink:href="wi_npo_s-_app_8cpp.html#a8c6630df6bab43efe8254a603885b62e" target="_top" xlink:title=" ">
<polygon fill="white" stroke="#666666" points="61,-39 0,-39 0,-19 61,-19 61,-39"/>
<text text-anchor="middle" x="30.5" y="-25.5" font-family="Helvetica,sans-Serif" font-size="10.00">wWinMain</text>
</a>
</g>
</g>
<!-- Node2&#45;&gt;Node3 -->
<g id="edge2_Node000002_Node000003" class="edge">
<title>Node2&#45;&gt;Node3</title>
<g id="a_edge2_Node000002_Node000003"><a xlink:title=" ">
<path fill="none" stroke="#63b8ff" d="M211.71,-44.32C167.46,-40.56 99.92,-34.82 61.32,-31.54"/>
<polygon fill="#63b8ff" stroke="#63b8ff" points="211.21,-47.79 221.47,-45.15 211.8,-40.81 211.21,-47.79"/>
</a>
</g>
</g>
<!-- Node5 -->
<g id="Node000005" class="node">
<title>Node5</title>
<g id="a_Node000005"><a xlink:href="wi_npo_s-_app_8cpp.html#a30a1e3b0304f1b083637664cbda94e72" target="_top" xlink:title="the main window procedure of this app">
<polygon fill="white" stroke="#666666" points="284.25,-20 227.75,-20 227.75,0 284.25,0 284.25,-20"/>
<text text-anchor="middle" x="256" y="-6.5" font-family="Helvetica,sans-Serif" font-size="10.00">WndProc</text>
</a>
</g>
</g>
<!-- Node4&#45;&gt;Node5 -->
<g id="edge4_Node000004_Node000005" class="edge">
<title>Node4&#45;&gt;Node5</title>
<g id="a_edge4_Node000004_Node000005"><a xlink:title=" ">
<path fill="none" stroke="#63b8ff" d="M312.98,-10C303.16,-10 293.33,-10 284.71,-10"/>
<polygon fill="#63b8ff" stroke="#63b8ff" points="312.92,-13.5 322.92,-10 312.92,-6.5 312.92,-13.5"/>
</a>
</g>
</g>
<!-- Node6 -->
<g id="Node000006" class="node">
<title>Node6</title>
<g id="a_Node000006"><a xlink:href="wi_npo_s-_app_8cpp.html#aa0d0c9beb94350f8eac8fc4026a65375" target="_top" xlink:title=" ">
<polygon fill="white" stroke="#666666" points="187.25,-20 97,-20 97,0 187.25,0 187.25,-20"/>
<text text-anchor="middle" x="142.12" y="-6.5" font-family="Helvetica,sans-Serif" font-size="10.00">MyRegisterClass</text>
</a>
</g>
</g>
<!-- Node5&#45;&gt;Node6 -->
<g id="edge5_Node000005_Node000006" class="edge">
<title>Node5&#45;&gt;Node6</title>
<g id="a_edge5_Node000005_Node000006"><a xlink:title=" ">
<path fill="none" stroke="#63b8ff" d="M216.09,-10C206.84,-10 196.91,-10 187.44,-10"/>
<polygon fill="#63b8ff" stroke="#63b8ff" points="215.83,-13.5 225.83,-10 215.83,-6.5 215.83,-13.5"/>
</a>
</g>
</g>
<!-- Node6&#45;&gt;Node3 -->
<g id="edge6_Node000006_Node000003" class="edge">
<title>Node6&#45;&gt;Node3</title>
<g id="a_edge6_Node000006_Node000003"><a xlink:title=" ">
<path fill="none" stroke="#63b8ff" d="M85.3,-19.68C77.02,-21.11 68.77,-22.54 61.31,-23.83"/>
<polygon fill="#63b8ff" stroke="#63b8ff" points="85.79,-23.14 95.05,-17.99 84.59,-16.25 85.79,-23.14"/>
</a>
</g>
</g>
</g>
</svg>
