<?xml version="1.0" encoding="UTF-8" standalone="no"?>
<!DOCTYPE svg PUBLIC "-//W3C//DTD SVG 1.1//EN"
 "http://www.w3.org/Graphics/SVG/1.1/DTD/svg11.dtd">
<!-- Generated by graphviz version 9.0.0 (20230911.1827)
 -->
<!-- Title: wiNpoS&#45;App/wiNpoS&#45;App.cpp Pages: 1 -->
<!--zoomable 252 -->

<svg id="main" version="1.1" xmlns="http://www.w3.org/2000/svg" xmlns:xlink="http://www.w3.org/1999/xlink" xml:space="preserve" onload="init(evt)">
<style type="text/css"><![CDATA[
.node, .edge {opacity: 0.7;}
.node.selected, .edge.selected {opacity: 1;}
.edge:hover path { stroke: red; }
.edge:hover polygon { stroke: red; fill: red; }
]]></style>

<defs>
  <circle id="rim" cx="0" cy="0" r="7"/>
  <circle id="rim2" cx="0" cy="0" r="3.5"/>
  <g id="zoomPlus">
    <use xlink:href="#rim" fill="#404040"><set attributeName="fill" to="#808080" begin="zoomplus.mouseover" end="zoomplus.mouseout"/></use>
    <path d="M-4,0h8M0,-4v8" fill="none" stroke="white" stroke-width="1.5" pointer-events="none"/>
  </g>
  <g id="zoomMin">
    <use xlink:href="#rim" fill="#404040"><set attributeName="fill" to="#808080" begin="zoomminus.mouseover" end="zoomminus.mouseout"/></use>
    <path d="M-4,0h8" fill="none" stroke="white" stroke-width="1.5" pointer-events="none"/>
  </g>
  <g id="arrowUp" transform="translate(30 24)">
    <use xlink:href="#rim"/>
    <path pointer-events="none" fill="none" stroke="white" stroke-width="1.5" d="M0,-3.0v7 M-2.5,-0.5L0,-3.0L2.5,-0.5"/>
  </g>
  <g id="arrowRight" transform="rotate(90) translate(36 -43)">
    <use xlink:href="#rim"/>
    <path pointer-events="none" fill="none" stroke="white" stroke-width="1.5" d="M0,-3.0v7 M-2.5,-0.5L0,-3.0L2.5,-0.5"/>
  </g>
  <g id="arrowDown" transform="rotate(180) translate(-30 -48)">
    <use xlink:href="#rim"/>
    <path pointer-events="none" fill="none" stroke="white" stroke-width="1.5" d="M0,-3.0v7 M-2.5,-0.5L0,-3.0L2.5,-0.5"/>
  </g>
  <g id="arrowLeft" transform="rotate(270) translate(-36 17)">
    <use xlink:href="#rim"/>
    <path pointer-events="none" fill="none" stroke="white" stroke-width="1.5" d="M0,-3.0v7 M-2.5,-0.5L0,-3.0L2.5,-0.5"/>
  </g>
  <g id="resetDef">
    <use xlink:href="#rim2" fill="#404040"><set attributeName="fill" to="#808080" begin="reset.mouseover" end="reset.mouseout"/></use>
  </g>
</defs>
<script type="application/ecmascript">
var viewWidth = 1192;
var viewHeight = 252;
var sectionId = 'dynsection-0';
</script>
<script type="application/ecmascript" xlink:href="svg.min.js"/>
<svg id="graph" class="graph">
<g id="viewport">
<title>wiNpoS&#45;App/wiNpoS&#45;App.cpp</title>
<!-- Node1 -->
<g id="Node000001" class="node">
<title>Node1</title>
<g id="a_Node000001"><a xlink:title=" ">
<polygon fill="#999999" stroke="#666666" points="816.62,-244 672.38,-244 672.38,-224 816.62,-224 816.62,-244"/>
<text text-anchor="middle" x="744.5" y="-230.5" font-family="Helvetica,sans-Serif" font-size="10.00">wiNpoS&#45;App/wiNpoS&#45;App.cpp</text>
</a>
</g>
</g>
<!-- Node2 -->
<g id="Node000002" class="node">
<title>Node2</title>
<g id="a_Node000002"><a xlink:href="wi_npo_s-_app_2pch_8h.html" target="_top" xlink:title=" ">
<polygon fill="white" stroke="#666666" points="418.5,-188 378.5,-188 378.5,-168 418.5,-168 418.5,-188"/>
<text text-anchor="middle" x="398.5" y="-174.5" font-family="Helvetica,sans-Serif" font-size="10.00">pch.h</text>
</a>
</g>
</g>
<!-- Node1&#45;&gt;Node2 -->
<g id="edge1_Node000001_Node000002" class="edge">
<title>Node1&#45;&gt;Node2</title>
<g id="a_edge1_Node000001_Node000002"><a xlink:title=" ">
<path fill="none" stroke="#63b8ff" d="M678.58,-223.5C618.54,-214.73 527.47,-201.11 448.5,-188 442.56,-187.01 436.24,-185.91 430.15,-184.83"/>
<polygon fill="#63b8ff" stroke="#63b8ff" points="430.86,-181.4 420.4,-183.07 429.62,-188.29 430.86,-181.4"/>
</a>
</g>
</g>
<!-- Node3 -->
<g id="Node000003" class="node">
<title>Node3</title>
<g id="a_Node000003"><a xlink:href="wi_npo_s-_app_2framework_8h.html" target="_top" xlink:title=" ">
<polygon fill="white" stroke="#666666" points="288.75,-132 220.25,-132 220.25,-112 288.75,-112 288.75,-132"/>
<text text-anchor="middle" x="254.5" y="-118.5" font-family="Helvetica,sans-Serif" font-size="10.00">framework.h</text>
</a>
</g>
</g>
<!-- Node1&#45;&gt;Node3 -->
<g id="edge19_Node000001_Node000003" class="edge">
<title>Node1&#45;&gt;Node3</title>
<g id="a_edge19_Node000001_Node000003"><a xlink:title=" ">
<path fill="none" stroke="#63b8ff" d="M672.2,-232.69C595.32,-230.45 471.06,-221.31 369.5,-188 334.73,-176.6 298.63,-154.16 276.36,-138.87"/>
<polygon fill="#63b8ff" stroke="#63b8ff" points="278.59,-136.16 268.4,-133.28 274.57,-141.89 278.59,-136.16"/>
</a>
</g>
</g>
<!-- Node11 -->
<g id="Node000011" class="node">
<title>Node11</title>
<g id="a_Node000011"><a xlink:href="_debug_new_8h.html" target="_top" xlink:title=" ">
<polygon fill="white" stroke="#666666" points="527.88,-188 457.12,-188 457.12,-168 527.88,-168 527.88,-188"/>
<text text-anchor="middle" x="492.5" y="-174.5" font-family="Helvetica,sans-Serif" font-size="10.00">DebugNew.h</text>
</a>
</g>
</g>
<!-- Node1&#45;&gt;Node11 -->
<g id="edge10_Node000001_Node000011" class="edge">
<title>Node1&#45;&gt;Node11</title>
<g id="a_edge10_Node000001_Node000011"><a xlink:title=" ">
<path fill="none" stroke="#63b8ff" d="M700.32,-223.53C655.16,-213.86 585.31,-198.89 539.25,-189.02"/>
<polygon fill="#63b8ff" stroke="#63b8ff" points="540.07,-185.61 529.56,-186.94 538.6,-192.46 540.07,-185.61"/>
</a>
</g>
</g>
<!-- Node12 -->
<g id="Node000012" class="node">
<title>Node12</title>
<g id="a_Node000012"><a xlink:href="_utils_8h.html" target="_top" xlink:title=" ">
<polygon fill="white" stroke="#666666" points="648.38,-132 604.62,-132 604.62,-112 648.38,-112 648.38,-132"/>
<text text-anchor="middle" x="626.5" y="-118.5" font-family="Helvetica,sans-Serif" font-size="10.00">Utils.h</text>
</a>
</g>
</g>
<!-- Node1&#45;&gt;Node12 -->
<g id="edge11_Node000001_Node000012" class="edge">
<title>Node1&#45;&gt;Node12</title>
<g id="a_edge11_Node000001_Node000012"><a xlink:title=" ">
<path fill="none" stroke="#63b8ff" d="M676.26,-223.53C634.7,-216.21 587.21,-204.51 574.5,-188 561.36,-170.93 581.14,-151.71 599.97,-138.62"/>
<polygon fill="#63b8ff" stroke="#63b8ff" points="601.81,-141.6 608.28,-133.21 597.99,-135.74 601.81,-141.6"/>
</a>
</g>
</g>
<!-- Node20 -->
<g id="Node000020" class="node">
<title>Node20</title>
<g id="a_Node000020"><a xlink:title=" ">
<polygon fill="#e0e0e0" stroke="#999999" points="819.62,-188 753.38,-188 753.38,-168 819.62,-168 819.62,-188"/>
<text text-anchor="middle" x="786.5" y="-174.5" font-family="Helvetica,sans-Serif" font-size="10.00">windowsx.h</text>
</a>
</g>
</g>
<!-- Node1&#45;&gt;Node20 -->
<g id="edge20_Node000001_Node000020" class="edge">
<title>Node1&#45;&gt;Node20</title>
<g id="a_edge20_Node000001_Node000020"><a xlink:title=" ">
<path fill="none" stroke="#63b8ff" d="M751.82,-223.59C757.48,-216.32 765.49,-206.02 772.39,-197.15"/>
<polygon fill="#63b8ff" stroke="#63b8ff" points="774.96,-199.54 778.34,-189.49 769.44,-195.24 774.96,-199.54"/>
</a>
</g>
</g>
<!-- Node21 -->
<g id="Node000021" class="node">
<title>Node21</title>
<g id="a_Node000021"><a xlink:href="wi_npo_s-_app_8h.html" target="_top" xlink:title=" ">
<polygon fill="white" stroke="#666666" points="915.25,-188 837.75,-188 837.75,-168 915.25,-168 915.25,-188"/>
<text text-anchor="middle" x="876.5" y="-174.5" font-family="Helvetica,sans-Serif" font-size="10.00">wiNpoS&#45;App.h</text>
</a>
</g>
</g>
<!-- Node1&#45;&gt;Node21 -->
<g id="edge21_Node000001_Node000021" class="edge">
<title>Node1&#45;&gt;Node21</title>
<g id="a_edge21_Node000001_Node000021"><a xlink:title=" ">
<path fill="none" stroke="#63b8ff" d="M767.49,-223.59C788.28,-215.09 819.15,-202.46 842.74,-192.81"/>
<polygon fill="#63b8ff" stroke="#63b8ff" points="844,-196.08 851.93,-189.05 841.35,-189.6 844,-196.08"/>
</a>
</g>
</g>
<!-- Node23 -->
<g id="Node000023" class="node">
<title>Node23</title>
<g id="a_Node000023"><a xlink:href="_hooks_mgr_8h.html" target="_top" xlink:title=" ">
<polygon fill="white" stroke="#666666" points="651.75,-188 583.25,-188 583.25,-168 651.75,-168 651.75,-188"/>
<text text-anchor="middle" x="617.5" y="-174.5" font-family="Helvetica,sans-Serif" font-size="10.00">HooksMgr.h</text>
</a>
</g>
</g>
<!-- Node1&#45;&gt;Node23 -->
<g id="edge23_Node000001_Node000023" class="edge">
<title>Node1&#45;&gt;Node23</title>
<g id="a_edge23_Node000001_Node000023"><a xlink:title=" ">
<path fill="none" stroke="#63b8ff" d="M722.38,-223.59C702.47,-215.13 672.95,-202.58 650.29,-192.94"/>
<polygon fill="#63b8ff" stroke="#63b8ff" points="651.76,-189.76 641.19,-189.07 649.02,-196.21 651.76,-189.76"/>
</a>
</g>
</g>
<!-- Node24 -->
<g id="Node000024" class="node">
<title>Node24</title>
<g id="a_Node000024"><a xlink:href="_hooks_cfg_8h.html" target="_top" xlink:title=" ">
<polygon fill="white" stroke="#666666" points="735.62,-188 669.38,-188 669.38,-168 735.62,-168 735.62,-188"/>
<text text-anchor="middle" x="702.5" y="-174.5" font-family="Helvetica,sans-Serif" font-size="10.00">HooksCfg.h</text>
</a>
</g>
</g>
<!-- Node1&#45;&gt;Node24 -->
<g id="edge25_Node000001_Node000024" class="edge">
<title>Node1&#45;&gt;Node24</title>
<g id="a_edge25_Node000001_Node000024"><a xlink:title=" ">
<path fill="none" stroke="#63b8ff" d="M737.18,-223.59C731.52,-216.32 723.51,-206.02 716.61,-197.15"/>
<polygon fill="#63b8ff" stroke="#63b8ff" points="719.56,-195.24 710.66,-189.49 714.04,-199.54 719.56,-195.24"/>
</a>
</g>
</g>
<!-- Node26 -->
<g id="Node000026" class="node">
<title>Node26</title>
<g id="a_Node000026"><a xlink:title=" ">
<polygon fill="#e0e0e0" stroke="#999999" points="991.5,-188 933.5,-188 933.5,-168 991.5,-168 991.5,-188"/>
<text text-anchor="middle" x="962.5" y="-174.5" font-family="Helvetica,sans-Serif" font-size="10.00">Shlwapi.h</text>
</a>
</g>
</g>
<!-- Node1&#45;&gt;Node26 -->
<g id="edge29_Node000001_Node000026" class="edge">
<title>Node1&#45;&gt;Node26</title>
<g id="a_edge29_Node000001_Node000026"><a xlink:title=" ">
<path fill="none" stroke="#63b8ff" d="M782.72,-223.53C821.73,-213.87 882.05,-198.93 921.9,-189.06"/>
<polygon fill="#63b8ff" stroke="#63b8ff" points="922.73,-192.46 931.6,-186.66 921.05,-185.66 922.73,-192.46"/>
</a>
</g>
</g>
<!-- Node27 -->
<g id="Node000027" class="node">
<title>Node27</title>
<g id="a_Node000027"><a xlink:title=" ">
<polygon fill="#e0e0e0" stroke="#999999" points="1049.5,-188 1009.5,-188 1009.5,-168 1049.5,-168 1049.5,-188"/>
<text text-anchor="middle" x="1029.5" y="-174.5" font-family="Helvetica,sans-Serif" font-size="10.00">future</text>
</a>
</g>
</g>
<!-- Node1&#45;&gt;Node27 -->
<g id="edge30_Node000001_Node000027" class="edge">
<title>Node1&#45;&gt;Node27</title>
<g id="a_edge30_Node000001_Node000027"><a xlink:title=" ">
<path fill="none" stroke="#63b8ff" d="M812.09,-223.52C861.35,-216.06 929.85,-204.55 998.32,-188.28"/>
<polygon fill="#63b8ff" stroke="#63b8ff" points="998.94,-191.73 1007.84,-185.98 997.3,-184.93 998.94,-191.73"/>
</a>
</g>
</g>
<!-- Node28 -->
<g id="Node000028" class="node">
<title>Node28</title>
<g id="a_Node000028"><a xlink:title=" ">
<polygon fill="#e0e0e0" stroke="#999999" points="1125.12,-188 1067.88,-188 1067.88,-168 1125.12,-168 1125.12,-188"/>
<text text-anchor="middle" x="1096.5" y="-174.5" font-family="Helvetica,sans-Serif" font-size="10.00">shellapi.h</text>
</a>
</g>
</g>
<!-- Node1&#45;&gt;Node28 -->
<g id="edge31_Node000001_Node000028" class="edge">
<title>Node1&#45;&gt;Node28</title>
<g id="a_edge31_Node000001_Node000028"><a xlink:title=" ">
<path fill="none" stroke="#63b8ff" d="M816.83,-224.52C878.05,-216.91 968.35,-204.68 1056.25,-188.28"/>
<polygon fill="#63b8ff" stroke="#63b8ff" points="1056.85,-191.73 1066.02,-186.43 1055.55,-184.85 1056.85,-191.73"/>
</a>
</g>
</g>
<!-- Node29 -->
<g id="Node000029" class="node">
<title>Node29</title>
<g id="a_Node000029"><a xlink:title=" ">
<polygon fill="#e0e0e0" stroke="#999999" points="1183.5,-188 1143.5,-188 1143.5,-168 1183.5,-168 1183.5,-188"/>
<text text-anchor="middle" x="1163.5" y="-174.5" font-family="Helvetica,sans-Serif" font-size="10.00">regex</text>
</a>
</g>
</g>
<!-- Node1&#45;&gt;Node29 -->
<g id="edge32_Node000001_Node000029" class="edge">
<title>Node1&#45;&gt;Node29</title>
<g id="a_edge32_Node000001_Node000029"><a xlink:title=" ">
<path fill="none" stroke="#63b8ff" d="M817.03,-228.68C893.37,-223.23 1017.1,-211.81 1131.94,-188.19"/>
<polygon fill="#63b8ff" stroke="#63b8ff" points="1132.48,-191.66 1141.55,-186.18 1131.04,-184.81 1132.48,-191.66"/>
</a>
</g>
</g>
<!-- Node2&#45;&gt;Node3 -->
<g id="edge2_Node000002_Node000003" class="edge">
<title>Node2&#45;&gt;Node3</title>
<g id="a_edge2_Node000002_Node000003"><a xlink:title=" ">
<path fill="none" stroke="#63b8ff" d="M378.17,-169.38C355.38,-160.83 317.99,-146.81 290.28,-136.42"/>
<polygon fill="#63b8ff" stroke="#63b8ff" points="291.82,-133.26 281.23,-133.02 289.36,-139.81 291.82,-133.26"/>
</a>
</g>
</g>
<!-- Node4 -->
<g id="Node000004" class="node">
<title>Node4</title>
<g id="a_Node000004"><a xlink:href="targetver_8h.html" target="_top" xlink:title=" ">
<polygon fill="white" stroke="#666666" points="418,-76 357,-76 357,-56 418,-56 418,-76"/>
<text text-anchor="middle" x="387.5" y="-62.5" font-family="Helvetica,sans-Serif" font-size="10.00">targetver.h</text>
</a>
</g>
</g>
<!-- Node3&#45;&gt;Node4 -->
<g id="edge3_Node000003_Node000004" class="edge">
<title>Node3&#45;&gt;Node4</title>
<g id="a_edge3_Node000003_Node000004"><a xlink:title=" ">
<path fill="none" stroke="#63b8ff" d="M277.67,-111.59C298.71,-103.05 330,-90.35 353.8,-80.68"/>
<polygon fill="#63b8ff" stroke="#63b8ff" points="354.8,-84.05 362.75,-77.05 352.17,-77.57 354.8,-84.05"/>
</a>
</g>
</g>
<!-- Node6 -->
<g id="Node000006" class="node">
<title>Node6</title>
<g id="a_Node000006"><a xlink:title=" ">
<polygon fill="#e0e0e0" stroke="#999999" points="61,-76 0,-76 0,-56 61,-56 61,-76"/>
<text text-anchor="middle" x="30.5" y="-62.5" font-family="Helvetica,sans-Serif" font-size="10.00">windows.h</text>
</a>
</g>
</g>
<!-- Node3&#45;&gt;Node6 -->
<g id="edge5_Node000003_Node000006" class="edge">
<title>Node3&#45;&gt;Node6</title>
<g id="a_edge5_Node000003_Node000006"><a xlink:title=" ">
<path fill="none" stroke="#63b8ff" d="M219.99,-112.68C180.31,-103.11 115.17,-87.41 72.56,-77.14"/>
<polygon fill="#63b8ff" stroke="#63b8ff" points="73.45,-73.75 62.91,-74.81 71.81,-80.56 73.45,-73.75"/>
</a>
</g>
</g>
<!-- Node7 -->
<g id="Node000007" class="node">
<title>Node7</title>
<g id="a_Node000007"><a xlink:title=" ">
<polygon fill="#e0e0e0" stroke="#999999" points="126.25,-76 78.75,-76 78.75,-56 126.25,-56 126.25,-76"/>
<text text-anchor="middle" x="102.5" y="-62.5" font-family="Helvetica,sans-Serif" font-size="10.00">stdlib.h</text>
</a>
</g>
</g>
<!-- Node3&#45;&gt;Node7 -->
<g id="edge6_Node000003_Node000007" class="edge">
<title>Node3&#45;&gt;Node7</title>
<g id="a_edge6_Node000003_Node000007"><a xlink:title=" ">
<path fill="none" stroke="#63b8ff" d="M228.02,-111.59C202.91,-102.67 165,-89.21 137.42,-79.41"/>
<polygon fill="#63b8ff" stroke="#63b8ff" points="138.69,-76.14 128.1,-76.09 136.35,-82.74 138.69,-76.14"/>
</a>
</g>
</g>
<!-- Node8 -->
<g id="Node000008" class="node">
<title>Node8</title>
<g id="a_Node000008"><a xlink:title=" ">
<polygon fill="#e0e0e0" stroke="#999999" points="196.88,-76 144.12,-76 144.12,-56 196.88,-56 196.88,-76"/>
<text text-anchor="middle" x="170.5" y="-62.5" font-family="Helvetica,sans-Serif" font-size="10.00">malloc.h</text>
</a>
</g>
</g>
<!-- Node3&#45;&gt;Node8 -->
<g id="edge7_Node000003_Node000008" class="edge">
<title>Node3&#45;&gt;Node8</title>
<g id="a_edge7_Node000003_Node000008"><a xlink:title=" ">
<path fill="none" stroke="#63b8ff" d="M239.87,-111.59C227.42,-103.59 209.28,-91.93 194.68,-82.54"/>
<polygon fill="#63b8ff" stroke="#63b8ff" points="196.82,-79.76 186.52,-77.3 193.04,-85.65 196.82,-79.76"/>
</a>
</g>
</g>
<!-- Node9 -->
<g id="Node000009" class="node">
<title>Node9</title>
<g id="a_Node000009"><a xlink:title=" ">
<polygon fill="#e0e0e0" stroke="#999999" points="274.25,-76 214.75,-76 214.75,-56 274.25,-56 274.25,-76"/>
<text text-anchor="middle" x="244.5" y="-62.5" font-family="Helvetica,sans-Serif" font-size="10.00">memory.h</text>
</a>
</g>
</g>
<!-- Node3&#45;&gt;Node9 -->
<g id="edge8_Node000003_Node000009" class="edge">
<title>Node3&#45;&gt;Node9</title>
<g id="a_edge8_Node000003_Node000009"><a xlink:title=" ">
<path fill="none" stroke="#63b8ff" d="M252.76,-111.59C251.52,-104.93 249.82,-95.75 248.29,-87.44"/>
<polygon fill="#63b8ff" stroke="#63b8ff" points="251.76,-86.98 246.5,-77.79 244.88,-88.26 251.76,-86.98"/>
</a>
</g>
</g>
<!-- Node10 -->
<g id="Node000010" class="node">
<title>Node10</title>
<g id="a_Node000010"><a xlink:title=" ">
<polygon fill="#e0e0e0" stroke="#999999" points="338.5,-76 292.5,-76 292.5,-56 338.5,-56 338.5,-76"/>
<text text-anchor="middle" x="315.5" y="-62.5" font-family="Helvetica,sans-Serif" font-size="10.00">tchar.h</text>
</a>
</g>
</g>
<!-- Node3&#45;&gt;Node10 -->
<g id="edge9_Node000003_Node000010" class="edge">
<title>Node3&#45;&gt;Node10</title>
<g id="a_edge9_Node000003_Node000010"><a xlink:title=" ">
<path fill="none" stroke="#63b8ff" d="M265.13,-111.59C273.78,-103.93 286.23,-92.91 296.58,-83.75"/>
<polygon fill="#63b8ff" stroke="#63b8ff" points="298.7,-86.55 303.86,-77.3 294.06,-81.31 298.7,-86.55"/>
</a>
</g>
</g>
<!-- Node5 -->
<g id="Node000005" class="node">
<title>Node5</title>
<g id="a_Node000005"><a xlink:title=" ">
<polygon fill="#e0e0e0" stroke="#999999" points="427.38,-20 347.62,-20 347.62,0 427.38,0 427.38,-20"/>
<text text-anchor="middle" x="387.5" y="-6.5" font-family="Helvetica,sans-Serif" font-size="10.00">SDKDDKVer.h</text>
</a>
</g>
</g>
<!-- Node4&#45;&gt;Node5 -->
<g id="edge4_Node000004_Node000005" class="edge">
<title>Node4&#45;&gt;Node5</title>
<g id="a_edge4_Node000004_Node000005"><a xlink:title=" ">
<path fill="none" stroke="#63b8ff" d="M387.5,-55.59C387.5,-49.01 387.5,-39.96 387.5,-31.73"/>
<polygon fill="#63b8ff" stroke="#63b8ff" points="391,-31.81 387.5,-21.81 384,-31.81 391,-31.81"/>
</a>
</g>
</g>
<!-- Node13 -->
<g id="Node000013" class="node">
<title>Node13</title>
<g id="a_Node000013"><a xlink:title=" ">
<polygon fill="#e0e0e0" stroke="#999999" points="944.5,-76 904.5,-76 904.5,-56 944.5,-56 944.5,-76"/>
<text text-anchor="middle" x="924.5" y="-62.5" font-family="Helvetica,sans-Serif" font-size="10.00">string</text>
</a>
</g>
</g>
<!-- Node12&#45;&gt;Node13 -->
<g id="edge12_Node000012_Node000013" class="edge">
<title>Node12&#45;&gt;Node13</title>
<g id="a_edge12_Node000012_Node000013"><a xlink:title=" ">
<path fill="none" stroke="#63b8ff" d="M648.72,-115.58C654.19,-114.33 660.04,-113.06 665.5,-112 763.61,-93.03 792.74,-98.95 893.08,-76.28"/>
<polygon fill="#63b8ff" stroke="#63b8ff" points="893.57,-79.76 902.53,-74.1 892,-72.94 893.57,-79.76"/>
</a>
</g>
</g>
<!-- Node14 -->
<g id="Node000014" class="node">
<title>Node14</title>
<g id="a_Node000014"><a xlink:title=" ">
<polygon fill="#e0e0e0" stroke="#999999" points="481.12,-76 435.88,-76 435.88,-56 481.12,-56 481.12,-76"/>
<text text-anchor="middle" x="458.5" y="-62.5" font-family="Helvetica,sans-Serif" font-size="10.00">xstring</text>
</a>
</g>
</g>
<!-- Node12&#45;&gt;Node14 -->
<g id="edge13_Node000012_Node000014" class="edge">
<title>Node12&#45;&gt;Node14</title>
<g id="a_edge13_Node000012_Node000014"><a xlink:title=" ">
<path fill="none" stroke="#63b8ff" d="M604.19,-113.83C575.48,-104.6 525.35,-88.49 492.04,-77.78"/>
<polygon fill="#63b8ff" stroke="#63b8ff" points="493.47,-74.56 482.88,-74.84 491.33,-81.23 493.47,-74.56"/>
</a>
</g>
</g>
<!-- Node15 -->
<g id="Node000015" class="node">
<title>Node15</title>
<g id="a_Node000015"><a xlink:title=" ">
<polygon fill="#e0e0e0" stroke="#999999" points="542,-76 499,-76 499,-56 542,-56 542,-76"/>
<text text-anchor="middle" x="520.5" y="-62.5" font-family="Helvetica,sans-Serif" font-size="10.00">format</text>
</a>
</g>
</g>
<!-- Node12&#45;&gt;Node15 -->
<g id="edge14_Node000012_Node000015" class="edge">
<title>Node12&#45;&gt;Node15</title>
<g id="a_edge14_Node000012_Node000015"><a xlink:title=" ">
<path fill="none" stroke="#63b8ff" d="M608.04,-111.59C591.8,-103.32 567.89,-91.14 549.17,-81.6"/>
<polygon fill="#63b8ff" stroke="#63b8ff" points="550.96,-78.59 540.46,-77.17 547.78,-84.82 550.96,-78.59"/>
</a>
</g>
</g>
<!-- Node16 -->
<g id="Node000016" class="node">
<title>Node16</title>
<g id="a_Node000016"><a xlink:title=" ">
<polygon fill="#e0e0e0" stroke="#999999" points="623.12,-76 559.88,-76 559.88,-56 623.12,-56 623.12,-76"/>
<text text-anchor="middle" x="591.5" y="-62.5" font-family="Helvetica,sans-Serif" font-size="10.00">debugapi.h</text>
</a>
</g>
</g>
<!-- Node12&#45;&gt;Node16 -->
<g id="edge15_Node000012_Node000016" class="edge">
<title>Node12&#45;&gt;Node16</title>
<g id="a_edge15_Node000012_Node000016"><a xlink:title=" ">
<path fill="none" stroke="#63b8ff" d="M620.4,-111.59C615.79,-104.47 609.29,-94.45 603.63,-85.72"/>
<polygon fill="#63b8ff" stroke="#63b8ff" points="606.73,-84.06 598.35,-77.57 600.85,-87.86 606.73,-84.06"/>
</a>
</g>
</g>
<!-- Node17 -->
<g id="Node000017" class="node">
<title>Node17</title>
<g id="a_Node000017"><a xlink:title=" ">
<polygon fill="#e0e0e0" stroke="#999999" points="682.25,-76 640.75,-76 640.75,-56 682.25,-56 682.25,-76"/>
<text text-anchor="middle" x="661.5" y="-62.5" font-family="Helvetica,sans-Serif" font-size="10.00">vector</text>
</a>
</g>
</g>
<!-- Node12&#45;&gt;Node17 -->
<g id="edge16_Node000012_Node000017" class="edge">
<title>Node12&#45;&gt;Node17</title>
<g id="a_edge16_Node000012_Node000017"><a xlink:title=" ">
<path fill="none" stroke="#63b8ff" d="M632.6,-111.59C637.21,-104.47 643.71,-94.45 649.37,-85.72"/>
<polygon fill="#63b8ff" stroke="#63b8ff" points="652.15,-87.86 654.65,-77.57 646.27,-84.06 652.15,-87.86"/>
</a>
</g>
</g>
<!-- Node18 -->
<g id="Node000018" class="node">
<title>Node18</title>
<g id="a_Node000018"><a xlink:title=" ">
<polygon fill="#e0e0e0" stroke="#999999" points="756.38,-76 700.62,-76 700.62,-56 756.38,-56 756.38,-76"/>
<text text-anchor="middle" x="728.5" y="-62.5" font-family="Helvetica,sans-Serif" font-size="10.00">algorithm</text>
</a>
</g>
</g>
<!-- Node12&#45;&gt;Node18 -->
<g id="edge17_Node000012_Node000018" class="edge">
<title>Node12&#45;&gt;Node18</title>
<g id="a_edge17_Node000012_Node000018"><a xlink:title=" ">
<path fill="none" stroke="#63b8ff" d="M644.27,-111.59C659.82,-103.36 682.68,-91.26 700.66,-81.74"/>
<polygon fill="#63b8ff" stroke="#63b8ff" points="702.06,-84.96 709.26,-77.19 698.78,-78.77 702.06,-84.96"/>
</a>
</g>
</g>
<!-- Node19 -->
<g id="Node000019" class="node">
<title>Node19</title>
<g id="a_Node000019"><a xlink:title=" ">
<polygon fill="#e0e0e0" stroke="#999999" points="886.88,-76 774.12,-76 774.12,-56 886.88,-56 886.88,-76"/>
<text text-anchor="middle" x="830.5" y="-62.5" font-family="Helvetica,sans-Serif" font-size="10.00">vcruntime_exception.h</text>
</a>
</g>
</g>
<!-- Node12&#45;&gt;Node19 -->
<g id="edge18_Node000012_Node000019" class="edge">
<title>Node12&#45;&gt;Node19</title>
<g id="a_edge18_Node000012_Node000019"><a xlink:title=" ">
<path fill="none" stroke="#63b8ff" d="M648.72,-115.12C680.95,-106.59 741.44,-90.58 783.75,-79.37"/>
<polygon fill="#63b8ff" stroke="#63b8ff" points="784.39,-82.83 793.16,-76.88 782.6,-76.06 784.39,-82.83"/>
</a>
</g>
</g>
<!-- Node22 -->
<g id="Node000022" class="node">
<title>Node22</title>
<g id="a_Node000022"><a xlink:href="wi_npo_s-_app_2resource_8h.html" target="_top" xlink:title=" ">
<polygon fill="white" stroke="#666666" points="907.38,-132 845.62,-132 845.62,-112 907.38,-112 907.38,-132"/>
<text text-anchor="middle" x="876.5" y="-118.5" font-family="Helvetica,sans-Serif" font-size="10.00">resource.h</text>
</a>
</g>
</g>
<!-- Node21&#45;&gt;Node22 -->
<g id="edge22_Node000021_Node000022" class="edge">
<title>Node21&#45;&gt;Node22</title>
<g id="a_edge22_Node000021_Node000022"><a xlink:title=" ">
<path fill="none" stroke="#63b8ff" d="M876.5,-167.59C876.5,-161.01 876.5,-151.96 876.5,-143.73"/>
<polygon fill="#63b8ff" stroke="#63b8ff" points="880,-143.81 876.5,-133.81 873,-143.81 880,-143.81"/>
</a>
</g>
</g>
<!-- Node23&#45;&gt;Node12 -->
<g id="edge24_Node000023_Node000012" class="edge">
<title>Node23&#45;&gt;Node12</title>
<g id="a_edge24_Node000023_Node000012"><a xlink:title=" ">
<path fill="none" stroke="#63b8ff" d="M619.07,-167.59C620.18,-160.93 621.71,-151.75 623.09,-143.44"/>
<polygon fill="#63b8ff" stroke="#63b8ff" points="626.51,-144.23 624.7,-133.79 619.61,-143.08 626.51,-144.23"/>
</a>
</g>
</g>
<!-- Node24&#45;&gt;Node12 -->
<g id="edge28_Node000024_Node000012" class="edge">
<title>Node24&#45;&gt;Node12</title>
<g id="a_edge28_Node000024_Node000012"><a xlink:title=" ">
<path fill="none" stroke="#63b8ff" d="M689.26,-167.59C678.21,-159.74 662.22,-148.38 649.14,-139.09"/>
<polygon fill="#63b8ff" stroke="#63b8ff" points="651.25,-136.3 641.08,-133.36 647.2,-142 651.25,-136.3"/>
</a>
</g>
</g>
<!-- Node24&#45;&gt;Node13 -->
<g id="edge27_Node000024_Node000013" class="edge">
<title>Node24&#45;&gt;Node13</title>
<g id="a_edge27_Node000024_Node000013"><a xlink:title=" ">
<path fill="none" stroke="#63b8ff" d="M721.43,-167.62C760.26,-148.38 849.15,-104.34 895.37,-81.43"/>
<polygon fill="#63b8ff" stroke="#63b8ff" points="896.86,-84.6 904.26,-77.03 893.75,-78.33 896.86,-84.6"/>
</a>
</g>
</g>
<!-- Node25 -->
<g id="Node000025" class="node">
<title>Node25</title>
<g id="a_Node000025"><a xlink:title=" ">
<polygon fill="#e0e0e0" stroke="#999999" points="730,-132 675,-132 675,-112 730,-112 730,-132"/>
<text text-anchor="middle" x="702.5" y="-118.5" font-family="Helvetica,sans-Serif" font-size="10.00">wtypes.h</text>
</a>
</g>
</g>
<!-- Node24&#45;&gt;Node25 -->
<g id="edge26_Node000024_Node000025" class="edge">
<title>Node24&#45;&gt;Node25</title>
<g id="a_edge26_Node000024_Node000025"><a xlink:title=" ">
<path fill="none" stroke="#63b8ff" d="M702.5,-167.59C702.5,-161.01 702.5,-151.96 702.5,-143.73"/>
<polygon fill="#63b8ff" stroke="#63b8ff" points="706,-143.81 702.5,-133.81 699,-143.81 706,-143.81"/>
</a>
</g>
</g>
</g>
</svg>

<g id="navigator" transform="translate(0 0)" fill="#404254">
  <rect fill="#f2f5e9" fill-opacity="0.5" stroke="#606060" stroke-width=".5" x="0" y="0" width="60" height="60"/>
  <use id="zoomplus" xlink:href="#zoomPlus" x="17" y="9" onmousedown="handleZoom(evt,'in')"/>
  <use id="zoomminus" xlink:href="#zoomMin" x="42" y="9" onmousedown="handleZoom(evt,'out')"/>
  <use id="reset" xlink:href="#resetDef" x="30" y="36" onmousedown="handleReset()"/>
   <use id="arrowup" xlink:href="#arrowUp" x="0" y="0" onmousedown="handlePan(0,-1)"/>
  <use id="arrowright" xlink:href="#arrowRight" x="0" y="0" onmousedown="handlePan(1,0)"/>
  <use id="arrowdown" xlink:href="#arrowDown" x="0" y="0" onmousedown="handlePan(0,1)"/>
  <use id="arrowleft" xlink:href="#arrowLeft" x="0" y="0" onmousedown="handlePan(-1,0)"/>
</g>
<svg viewBox="0 0 15 15" width="100%" height="30px" preserveAspectRatio="xMaxYMin meet">
 <g id="arrow_out" transform="scale(0.3 0.3)">
  <a xlink:href="wi_npo_s-_app_8cpp__incl_org.svg" target="_base">
   <rect id="button" ry="5" rx="5" y="6" x="6" height="38" width="38"
        fill="#f2f5e9" fill-opacity="0.5" stroke="#606060" stroke-width="1.0"/>
   <path id="arrow"
     d="M 11.500037,31.436501 C 11.940474,20.09759 22.043105,11.32322 32.158766,21.979434 L 37.068811,17.246167 C 37.068811,17.246167 37.088388,32 37.088388,32 L 22.160133,31.978069 C 22.160133,31.978069 26.997745,27.140456 26.997745,27.140456 C 18.528582,18.264221 13.291696,25.230495 11.500037,31.436501 z"
     style="fill:#404040;"/>
  </a>
 </g>
</svg>

<style type='text/css'>
<![CDATA[
[data-mouse-over-selected='false'] { opacity: 0.7; }
[data-mouse-over-selected='true']  { opacity: 1.0; }
]]>
</style>
<script type="application/ecmascript"><![CDATA[
document.addEventListener('DOMContentLoaded', (event) => {
  highlightEdges();
  highlightAdjacentNodes();
});
]]></script>
</svg>
