<?xml version="1.0" encoding="UTF-8" standalone="no"?>
<!DOCTYPE svg PUBLIC "-//W3C//DTD SVG 1.1//EN"
 "http://www.w3.org/Graphics/SVG/1.1/DTD/svg11.dtd">
<!-- Generated by graphviz version 9.0.0 (20230911.1827)
 -->
<!-- Title: DetachFromProcess Pages: 1 -->
<svg width="364pt" height="46pt"
 viewBox="0.00 0.00 364.25 46.00" xmlns="http://www.w3.org/2000/svg" xmlns:xlink="http://www.w3.org/1999/xlink">
<g id="graph0" class="graph" transform="scale(1 1) rotate(0) translate(4 42)">
<title>DetachFromProcess</title>
<!-- Node1 -->
<g id="Node000001" class="node">
<title>Node1</title>
<g id="a_Node000001"><a xlink:title=" ">
<polygon fill="#999999" stroke="#666666" points="105.25,-20 0,-20 0,0 105.25,0 105.25,-20"/>
<text text-anchor="middle" x="52.62" y="-6.5" font-family="Helvetica,sans-Serif" font-size="10.00">DetachFromProcess</text>
</a>
</g>
</g>
<!-- Node2 -->
<g id="Node000002" class="node">
<title>Node2</title>
<g id="a_Node000002"><a xlink:href="namespace_utils.html#aad1c305219375bf7d3fc42f22b325710" target="_top" xlink:title=" ">
<polygon fill="white" stroke="#666666" points="246.5,-20 141.25,-20 141.25,0 246.5,0 246.5,-20"/>
<text text-anchor="middle" x="193.88" y="-6.5" font-family="Helvetica,sans-Serif" font-size="10.00">Utils::ShowLastError</text>
</a>
</g>
</g>
<!-- Node1&#45;&gt;Node2 -->
<g id="edge1_Node000001_Node000002" class="edge">
<title>Node1&#45;&gt;Node2</title>
<g id="a_edge1_Node000001_Node000002"><a xlink:title=" ">
<path fill="none" stroke="#63b8ff" d="M105.48,-10C113.36,-10 121.57,-10 129.66,-10"/>
<polygon fill="#63b8ff" stroke="#63b8ff" points="129.47,-13.5 139.47,-10 129.47,-6.5 129.47,-13.5"/>
</a>
</g>
</g>
<!-- Node3 -->
<g id="Node000003" class="node">
<title>Node3</title>
<g id="a_Node000003"><a xlink:href="namespace_utils.html#a1be1e6106c4ac75be529963a672f3038" target="_top" xlink:title=" ">
<polygon fill="white" stroke="#666666" points="356.25,-20 282.5,-20 282.5,0 356.25,0 356.25,-20"/>
<text text-anchor="middle" x="319.38" y="-6.5" font-family="Helvetica,sans-Serif" font-size="10.00">Utils::dformat</text>
</a>
</g>
</g>
<!-- Node2&#45;&gt;Node3 -->
<g id="edge2_Node000002_Node000003" class="edge">
<title>Node2&#45;&gt;Node3</title>
<g id="a_edge2_Node000002_Node000003"><a xlink:title=" ">
<path fill="none" stroke="#63b8ff" d="M246.89,-10C254.77,-10 262.87,-10 270.65,-10"/>
<polygon fill="#63b8ff" stroke="#63b8ff" points="270.64,-13.5 280.64,-10 270.64,-6.5 270.64,-13.5"/>
</a>
</g>
</g>
<!-- Node3&#45;&gt;Node3 -->
<g id="edge3_Node000003_Node000003" class="edge">
<title>Node3&#45;&gt;Node3</title>
<g id="a_edge3_Node000003_Node000003"><a xlink:title=" ">
<path fill="none" stroke="#63b8ff" d="M299.43,-20.34C290.91,-28.98 297.56,-38 319.38,-38 331.31,-38 338.7,-35.3 341.56,-31.44"/>
<polygon fill="#63b8ff" stroke="#63b8ff" points="345.02,-30.93 339.62,-21.82 338.16,-32.32 345.02,-30.93"/>
</a>
</g>
</g>
</g>
</svg>
