<?xml version="1.0" encoding="UTF-8" standalone="no"?>
<!DOCTYPE svg PUBLIC "-//W3C//DTD SVG 1.1//EN"
 "http://www.w3.org/Graphics/SVG/1.1/DTD/svg11.dtd">
<!-- Generated by graphviz version 8.1.0 (20230707.0739)
 -->
<!-- Title: wiNpoS&#45;App/wiNpoS&#45;App.cpp Pages: 1 -->
<svg width="1192pt" height="252pt"
 viewBox="0.00 0.00 1191.50 252.00" xmlns="http://www.w3.org/2000/svg" xmlns:xlink="http://www.w3.org/1999/xlink">
<g id="graph0" class="graph" transform="scale(1 1) rotate(0) translate(4 248)">
<title>wiNpoS&#45;App/wiNpoS&#45;App.cpp</title>
<!-- Node1 -->
<g id="Node000001" class="node">
<title>Node1</title>
<g id="a_Node000001"><a xlink:title=" ">
<polygon fill="#999999" stroke="#666666" points="816.62,-244 672.38,-244 672.38,-224 816.62,-224 816.62,-244"/>
<text text-anchor="middle" x="744.5" y="-230.5" font-family="Helvetica,sans-Serif" font-size="10.00">wiNpoS&#45;App/wiNpoS&#45;App.cpp</text>
</a>
</g>
</g>
<!-- Node2 -->
<g id="Node000002" class="node">
<title>Node2</title>
<g id="a_Node000002"><a xlink:href="wi_npo_s-_app_2pch_8h.html" target="_top" xlink:title=" ">
<polygon fill="white" stroke="#666666" points="418.5,-188 378.5,-188 378.5,-168 418.5,-168 418.5,-188"/>
<text text-anchor="middle" x="398.5" y="-174.5" font-family="Helvetica,sans-Serif" font-size="10.00">pch.h</text>
</a>
</g>
</g>
<!-- Node1&#45;&gt;Node2 -->
<g id="edge1_Node000001_Node000002" class="edge">
<title>Node1&#45;&gt;Node2</title>
<g id="a_edge1_Node000001_Node000002"><a xlink:title=" ">
<path fill="none" stroke="#63b8ff" d="M678.58,-223.5C618.54,-214.73 527.47,-201.11 448.5,-188 442.41,-186.99 435.91,-185.86 429.68,-184.75"/>
<polygon fill="#63b8ff" stroke="#63b8ff" points="430.38,-181.14 419.91,-182.8 429.13,-188.02 430.38,-181.14"/>
</a>
</g>
</g>
<!-- Node3 -->
<g id="Node000003" class="node">
<title>Node3</title>
<g id="a_Node000003"><a xlink:href="wi_npo_s-_app_2framework_8h.html" target="_top" xlink:title=" ">
<polygon fill="white" stroke="#666666" points="288.75,-132 220.25,-132 220.25,-112 288.75,-112 288.75,-132"/>
<text text-anchor="middle" x="254.5" y="-118.5" font-family="Helvetica,sans-Serif" font-size="10.00">framework.h</text>
</a>
</g>
</g>
<!-- Node1&#45;&gt;Node3 -->
<g id="edge19_Node000001_Node000003" class="edge">
<title>Node1&#45;&gt;Node3</title>
<g id="a_edge19_Node000001_Node000003"><a xlink:title=" ">
<path fill="none" stroke="#63b8ff" d="M672.2,-232.69C595.32,-230.45 471.06,-221.31 369.5,-188 334.57,-176.54 298.3,-153.95 276.06,-138.66"/>
<polygon fill="#63b8ff" stroke="#63b8ff" points="278.35,-135.29 268.16,-132.41 274.33,-141.02 278.35,-135.29"/>
</a>
</g>
</g>
<!-- Node11 -->
<g id="Node000011" class="node">
<title>Node11</title>
<g id="a_Node000011"><a xlink:href="_debug_new_8h.html" target="_top" xlink:title=" ">
<polygon fill="white" stroke="#666666" points="527.88,-188 457.12,-188 457.12,-168 527.88,-168 527.88,-188"/>
<text text-anchor="middle" x="492.5" y="-174.5" font-family="Helvetica,sans-Serif" font-size="10.00">DebugNew.h</text>
</a>
</g>
</g>
<!-- Node1&#45;&gt;Node11 -->
<g id="edge10_Node000001_Node000011" class="edge">
<title>Node1&#45;&gt;Node11</title>
<g id="a_edge10_Node000001_Node000011"><a xlink:title=" ">
<path fill="none" stroke="#63b8ff" d="M700.32,-223.53C654.97,-213.82 584.72,-198.76 538.66,-188.89"/>
<polygon fill="#63b8ff" stroke="#63b8ff" points="539.59,-185.3 529.08,-186.62 538.12,-192.14 539.59,-185.3"/>
</a>
</g>
</g>
<!-- Node12 -->
<g id="Node000012" class="node">
<title>Node12</title>
<g id="a_Node000012"><a xlink:href="_utils_8h.html" target="_top" xlink:title=" ">
<polygon fill="white" stroke="#666666" points="648.38,-132 604.62,-132 604.62,-112 648.38,-112 648.38,-132"/>
<text text-anchor="middle" x="626.5" y="-118.5" font-family="Helvetica,sans-Serif" font-size="10.00">Utils.h</text>
</a>
</g>
</g>
<!-- Node1&#45;&gt;Node12 -->
<g id="edge11_Node000001_Node000012" class="edge">
<title>Node1&#45;&gt;Node12</title>
<g id="a_edge11_Node000001_Node000012"><a xlink:title=" ">
<path fill="none" stroke="#63b8ff" d="M676.26,-223.53C634.7,-216.21 587.21,-204.51 574.5,-188 561.24,-170.78 581.51,-151.36 600.48,-138.27"/>
<polygon fill="#63b8ff" stroke="#63b8ff" points="602.06,-140.77 608.54,-132.39 598.25,-134.89 602.06,-140.77"/>
</a>
</g>
</g>
<!-- Node20 -->
<g id="Node000020" class="node">
<title>Node20</title>
<g id="a_Node000020"><a xlink:title=" ">
<polygon fill="#e0e0e0" stroke="#999999" points="819.62,-188 753.38,-188 753.38,-168 819.62,-168 819.62,-188"/>
<text text-anchor="middle" x="786.5" y="-174.5" font-family="Helvetica,sans-Serif" font-size="10.00">windowsx.h</text>
</a>
</g>
</g>
<!-- Node1&#45;&gt;Node20 -->
<g id="edge20_Node000001_Node000020" class="edge">
<title>Node1&#45;&gt;Node20</title>
<g id="a_edge20_Node000001_Node000020"><a xlink:title=" ">
<path fill="none" stroke="#63b8ff" d="M751.82,-223.59C757.54,-216.24 765.66,-205.8 772.6,-196.87"/>
<polygon fill="#63b8ff" stroke="#63b8ff" points="775.89,-199.34 779.27,-189.3 770.37,-195.04 775.89,-199.34"/>
</a>
</g>
</g>
<!-- Node21 -->
<g id="Node000021" class="node">
<title>Node21</title>
<g id="a_Node000021"><a xlink:href="wi_npo_s-_app_8h.html" target="_top" xlink:title=" ">
<polygon fill="white" stroke="#666666" points="915.25,-188 837.75,-188 837.75,-168 915.25,-168 915.25,-188"/>
<text text-anchor="middle" x="876.5" y="-174.5" font-family="Helvetica,sans-Serif" font-size="10.00">wiNpoS&#45;App.h</text>
</a>
</g>
</g>
<!-- Node1&#45;&gt;Node21 -->
<g id="edge21_Node000001_Node000021" class="edge">
<title>Node1&#45;&gt;Node21</title>
<g id="a_edge21_Node000001_Node000021"><a xlink:title=" ">
<path fill="none" stroke="#63b8ff" d="M767.49,-223.59C788.47,-215.01 819.71,-202.23 843.38,-192.55"/>
<polygon fill="#63b8ff" stroke="#63b8ff" points="844.4,-195.51 852.33,-188.48 841.75,-189.03 844.4,-195.51"/>
</a>
</g>
</g>
<!-- Node23 -->
<g id="Node000023" class="node">
<title>Node23</title>
<g id="a_Node000023"><a xlink:href="_hooks_mgr_8h.html" target="_top" xlink:title=" ">
<polygon fill="white" stroke="#666666" points="651.75,-188 583.25,-188 583.25,-168 651.75,-168 651.75,-188"/>
<text text-anchor="middle" x="617.5" y="-174.5" font-family="Helvetica,sans-Serif" font-size="10.00">HooksMgr.h</text>
</a>
</g>
</g>
<!-- Node1&#45;&gt;Node23 -->
<g id="edge23_Node000001_Node000023" class="edge">
<title>Node1&#45;&gt;Node23</title>
<g id="a_edge23_Node000001_Node000023"><a xlink:title=" ">
<path fill="none" stroke="#63b8ff" d="M722.38,-223.59C702.29,-215.05 672.41,-202.35 649.68,-192.68"/>
<polygon fill="#63b8ff" stroke="#63b8ff" points="651.37,-189.17 640.79,-188.48 648.63,-195.61 651.37,-189.17"/>
</a>
</g>
</g>
<!-- Node24 -->
<g id="Node000024" class="node">
<title>Node24</title>
<g id="a_Node000024"><a xlink:href="_hooks_cfg_8h.html" target="_top" xlink:title=" ">
<polygon fill="white" stroke="#666666" points="735.62,-188 669.38,-188 669.38,-168 735.62,-168 735.62,-188"/>
<text text-anchor="middle" x="702.5" y="-174.5" font-family="Helvetica,sans-Serif" font-size="10.00">HooksCfg.h</text>
</a>
</g>
</g>
<!-- Node1&#45;&gt;Node24 -->
<g id="edge25_Node000001_Node000024" class="edge">
<title>Node1&#45;&gt;Node24</title>
<g id="a_edge25_Node000001_Node000024"><a xlink:title=" ">
<path fill="none" stroke="#63b8ff" d="M737.18,-223.59C731.46,-216.24 723.34,-205.8 716.4,-196.87"/>
<polygon fill="#63b8ff" stroke="#63b8ff" points="718.63,-195.04 709.73,-189.3 713.11,-199.34 718.63,-195.04"/>
</a>
</g>
</g>
<!-- Node26 -->
<g id="Node000026" class="node">
<title>Node26</title>
<g id="a_Node000026"><a xlink:title=" ">
<polygon fill="#e0e0e0" stroke="#999999" points="991.5,-188 933.5,-188 933.5,-168 991.5,-168 991.5,-188"/>
<text text-anchor="middle" x="962.5" y="-174.5" font-family="Helvetica,sans-Serif" font-size="10.00">Shlwapi.h</text>
</a>
</g>
</g>
<!-- Node1&#45;&gt;Node26 -->
<g id="edge29_Node000001_Node000026" class="edge">
<title>Node1&#45;&gt;Node26</title>
<g id="a_edge29_Node000001_Node000026"><a xlink:title=" ">
<path fill="none" stroke="#63b8ff" d="M782.72,-223.53C821.9,-213.83 882.57,-198.8 922.41,-188.93"/>
<polygon fill="#63b8ff" stroke="#63b8ff" points="923.2,-192.09 932.06,-186.29 921.52,-185.3 923.2,-192.09"/>
</a>
</g>
</g>
<!-- Node27 -->
<g id="Node000027" class="node">
<title>Node27</title>
<g id="a_Node000027"><a xlink:title=" ">
<polygon fill="#e0e0e0" stroke="#999999" points="1049.5,-188 1009.5,-188 1009.5,-168 1049.5,-168 1049.5,-188"/>
<text text-anchor="middle" x="1029.5" y="-174.5" font-family="Helvetica,sans-Serif" font-size="10.00">future</text>
</a>
</g>
</g>
<!-- Node1&#45;&gt;Node27 -->
<g id="edge30_Node000001_Node000027" class="edge">
<title>Node1&#45;&gt;Node27</title>
<g id="a_edge30_Node000001_Node000027"><a xlink:title=" ">
<path fill="none" stroke="#63b8ff" d="M812.09,-223.52C861.45,-216.04 930.13,-204.51 998.75,-188.18"/>
<polygon fill="#63b8ff" stroke="#63b8ff" points="999.41,-191.38 1008.31,-185.62 997.77,-184.57 999.41,-191.38"/>
</a>
</g>
</g>
<!-- Node28 -->
<g id="Node000028" class="node">
<title>Node28</title>
<g id="a_Node000028"><a xlink:title=" ">
<polygon fill="#e0e0e0" stroke="#999999" points="1125.12,-188 1067.88,-188 1067.88,-168 1125.12,-168 1125.12,-188"/>
<text text-anchor="middle" x="1096.5" y="-174.5" font-family="Helvetica,sans-Serif" font-size="10.00">shellapi.h</text>
</a>
</g>
</g>
<!-- Node1&#45;&gt;Node28 -->
<g id="edge31_Node000001_Node000028" class="edge">
<title>Node1&#45;&gt;Node28</title>
<g id="a_edge31_Node000001_Node000028"><a xlink:title=" ">
<path fill="none" stroke="#63b8ff" d="M816.83,-224.52C878.17,-216.89 968.71,-204.63 1056.79,-188.18"/>
<polygon fill="#63b8ff" stroke="#63b8ff" points="1057.34,-191.45 1066.51,-186.15 1056.04,-184.57 1057.34,-191.45"/>
</a>
</g>
</g>
<!-- Node29 -->
<g id="Node000029" class="node">
<title>Node29</title>
<g id="a_Node000029"><a xlink:title=" ">
<polygon fill="#e0e0e0" stroke="#999999" points="1183.5,-188 1143.5,-188 1143.5,-168 1183.5,-168 1183.5,-188"/>
<text text-anchor="middle" x="1163.5" y="-174.5" font-family="Helvetica,sans-Serif" font-size="10.00">regex</text>
</a>
</g>
</g>
<!-- Node1&#45;&gt;Node29 -->
<g id="edge32_Node000001_Node000029" class="edge">
<title>Node1&#45;&gt;Node29</title>
<g id="a_edge32_Node000001_Node000029"><a xlink:title=" ">
<path fill="none" stroke="#63b8ff" d="M817.03,-228.68C893.45,-223.22 1017.35,-211.79 1132.29,-188.12"/>
<polygon fill="#63b8ff" stroke="#63b8ff" points="1132.96,-191.35 1142.03,-185.87 1131.52,-184.5 1132.96,-191.35"/>
</a>
</g>
</g>
<!-- Node2&#45;&gt;Node3 -->
<g id="edge2_Node000002_Node000003" class="edge">
<title>Node2&#45;&gt;Node3</title>
<g id="a_edge2_Node000002_Node000003"><a xlink:title=" ">
<path fill="none" stroke="#63b8ff" d="M378.17,-169.38C355.28,-160.79 317.66,-146.69 289.91,-136.28"/>
<polygon fill="#63b8ff" stroke="#63b8ff" points="291.41,-132.73 280.81,-132.49 288.95,-139.28 291.41,-132.73"/>
</a>
</g>
</g>
<!-- Node4 -->
<g id="Node000004" class="node">
<title>Node4</title>
<g id="a_Node000004"><a xlink:href="targetver_8h.html" target="_top" xlink:title=" ">
<polygon fill="white" stroke="#666666" points="418,-76 357,-76 357,-56 418,-56 418,-76"/>
<text text-anchor="middle" x="387.5" y="-62.5" font-family="Helvetica,sans-Serif" font-size="10.00">targetver.h</text>
</a>
</g>
</g>
<!-- Node3&#45;&gt;Node4 -->
<g id="edge3_Node000003_Node000004" class="edge">
<title>Node3&#45;&gt;Node4</title>
<g id="a_edge3_Node000003_Node000004"><a xlink:title=" ">
<path fill="none" stroke="#63b8ff" d="M277.67,-111.59C298.8,-103.01 330.28,-90.23 354.13,-80.55"/>
<polygon fill="#63b8ff" stroke="#63b8ff" points="355.2,-83.48 363.15,-76.48 352.57,-77 355.2,-83.48"/>
</a>
</g>
</g>
<!-- Node6 -->
<g id="Node000006" class="node">
<title>Node6</title>
<g id="a_Node000006"><a xlink:title=" ">
<polygon fill="#e0e0e0" stroke="#999999" points="61,-76 0,-76 0,-56 61,-56 61,-76"/>
<text text-anchor="middle" x="30.5" y="-62.5" font-family="Helvetica,sans-Serif" font-size="10.00">windows.h</text>
</a>
</g>
</g>
<!-- Node3&#45;&gt;Node6 -->
<g id="edge5_Node000003_Node000006" class="edge">
<title>Node3&#45;&gt;Node6</title>
<g id="a_edge5_Node000003_Node000006"><a xlink:title=" ">
<path fill="none" stroke="#63b8ff" d="M219.99,-112.68C180.14,-103.07 114.61,-87.28 72.01,-77.01"/>
<polygon fill="#63b8ff" stroke="#63b8ff" points="72.98,-73.4 62.44,-74.46 71.34,-80.2 72.98,-73.4"/>
</a>
</g>
</g>
<!-- Node7 -->
<g id="Node000007" class="node">
<title>Node7</title>
<g id="a_Node000007"><a xlink:title=" ">
<polygon fill="#e0e0e0" stroke="#999999" points="126.25,-76 78.75,-76 78.75,-56 126.25,-56 126.25,-76"/>
<text text-anchor="middle" x="102.5" y="-62.5" font-family="Helvetica,sans-Serif" font-size="10.00">stdlib.h</text>
</a>
</g>
</g>
<!-- Node3&#45;&gt;Node7 -->
<g id="edge6_Node000003_Node000007" class="edge">
<title>Node3&#45;&gt;Node7</title>
<g id="a_edge6_Node000003_Node000007"><a xlink:title=" ">
<path fill="none" stroke="#63b8ff" d="M228.02,-111.59C202.68,-102.59 164.33,-88.97 136.69,-79.15"/>
<polygon fill="#63b8ff" stroke="#63b8ff" points="138.26,-75.64 127.67,-75.59 135.92,-82.23 138.26,-75.64"/>
</a>
</g>
</g>
<!-- Node8 -->
<g id="Node000008" class="node">
<title>Node8</title>
<g id="a_Node000008"><a xlink:title=" ">
<polygon fill="#e0e0e0" stroke="#999999" points="196.88,-76 144.12,-76 144.12,-56 196.88,-56 196.88,-76"/>
<text text-anchor="middle" x="170.5" y="-62.5" font-family="Helvetica,sans-Serif" font-size="10.00">malloc.h</text>
</a>
</g>
</g>
<!-- Node3&#45;&gt;Node8 -->
<g id="edge7_Node000003_Node000008" class="edge">
<title>Node3&#45;&gt;Node8</title>
<g id="a_edge7_Node000003_Node000008"><a xlink:title=" ">
<path fill="none" stroke="#63b8ff" d="M239.87,-111.59C227.3,-103.51 208.93,-91.71 194.26,-82.27"/>
<polygon fill="#63b8ff" stroke="#63b8ff" points="196.55,-78.94 186.25,-76.48 192.76,-84.83 196.55,-78.94"/>
</a>
</g>
</g>
<!-- Node9 -->
<g id="Node000009" class="node">
<title>Node9</title>
<g id="a_Node000009"><a xlink:title=" ">
<polygon fill="#e0e0e0" stroke="#999999" points="274.25,-76 214.75,-76 214.75,-56 274.25,-56 274.25,-76"/>
<text text-anchor="middle" x="244.5" y="-62.5" font-family="Helvetica,sans-Serif" font-size="10.00">memory.h</text>
</a>
</g>
</g>
<!-- Node3&#45;&gt;Node9 -->
<g id="edge8_Node000003_Node000009" class="edge">
<title>Node3&#45;&gt;Node9</title>
<g id="a_edge8_Node000003_Node000009"><a xlink:title=" ">
<path fill="none" stroke="#63b8ff" d="M252.76,-111.59C251.5,-104.78 249.74,-95.32 248.18,-86.86"/>
<polygon fill="#63b8ff" stroke="#63b8ff" points="251.48,-86.49 246.22,-77.3 244.6,-87.77 251.48,-86.49"/>
</a>
</g>
</g>
<!-- Node10 -->
<g id="Node000010" class="node">
<title>Node10</title>
<g id="a_Node000010"><a xlink:title=" ">
<polygon fill="#e0e0e0" stroke="#999999" points="338.5,-76 292.5,-76 292.5,-56 338.5,-56 338.5,-76"/>
<text text-anchor="middle" x="315.5" y="-62.5" font-family="Helvetica,sans-Serif" font-size="10.00">tchar.h</text>
</a>
</g>
</g>
<!-- Node3&#45;&gt;Node10 -->
<g id="edge9_Node000003_Node000010" class="edge">
<title>Node3&#45;&gt;Node10</title>
<g id="a_edge9_Node000003_Node000010"><a xlink:title=" ">
<path fill="none" stroke="#63b8ff" d="M265.13,-111.59C273.87,-103.85 286.48,-92.69 296.9,-83.47"/>
<polygon fill="#63b8ff" stroke="#63b8ff" points="298.83,-86.55 304,-77.3 294.19,-81.31 298.83,-86.55"/>
</a>
</g>
</g>
<!-- Node5 -->
<g id="Node000005" class="node">
<title>Node5</title>
<g id="a_Node000005"><a xlink:title=" ">
<polygon fill="#e0e0e0" stroke="#999999" points="427.38,-20 347.62,-20 347.62,0 427.38,0 427.38,-20"/>
<text text-anchor="middle" x="387.5" y="-6.5" font-family="Helvetica,sans-Serif" font-size="10.00">SDKDDKVer.h</text>
</a>
</g>
</g>
<!-- Node4&#45;&gt;Node5 -->
<g id="edge4_Node000004_Node000005" class="edge">
<title>Node4&#45;&gt;Node5</title>
<g id="a_edge4_Node000004_Node000005"><a xlink:title=" ">
<path fill="none" stroke="#63b8ff" d="M387.5,-55.59C387.5,-48.86 387.5,-39.53 387.5,-31.15"/>
<polygon fill="#63b8ff" stroke="#63b8ff" points="391,-31.3 387.5,-21.3 384,-31.3 391,-31.3"/>
</a>
</g>
</g>
<!-- Node13 -->
<g id="Node000013" class="node">
<title>Node13</title>
<g id="a_Node000013"><a xlink:title=" ">
<polygon fill="#e0e0e0" stroke="#999999" points="944.5,-76 904.5,-76 904.5,-56 944.5,-56 944.5,-76"/>
<text text-anchor="middle" x="924.5" y="-62.5" font-family="Helvetica,sans-Serif" font-size="10.00">string</text>
</a>
</g>
</g>
<!-- Node12&#45;&gt;Node13 -->
<g id="edge12_Node000012_Node000013" class="edge">
<title>Node12&#45;&gt;Node13</title>
<g id="a_edge12_Node000012_Node000013"><a xlink:title=" ">
<path fill="none" stroke="#63b8ff" d="M648.72,-115.58C654.19,-114.33 660.04,-113.06 665.5,-112 763.71,-93.01 792.8,-98.96 893.38,-76.21"/>
<polygon fill="#63b8ff" stroke="#63b8ff" points="894.05,-79.42 903.01,-73.77 892.48,-72.6 894.05,-79.42"/>
</a>
</g>
</g>
<!-- Node14 -->
<g id="Node000014" class="node">
<title>Node14</title>
<g id="a_Node000014"><a xlink:title=" ">
<polygon fill="#e0e0e0" stroke="#999999" points="481.12,-76 435.88,-76 435.88,-56 481.12,-56 481.12,-76"/>
<text text-anchor="middle" x="458.5" y="-62.5" font-family="Helvetica,sans-Serif" font-size="10.00">xstring</text>
</a>
</g>
</g>
<!-- Node12&#45;&gt;Node14 -->
<g id="edge13_Node000012_Node000014" class="edge">
<title>Node12&#45;&gt;Node14</title>
<g id="a_edge13_Node000012_Node000014"><a xlink:title=" ">
<path fill="none" stroke="#63b8ff" d="M604.19,-113.83C575.36,-104.56 524.91,-88.35 491.6,-77.64"/>
<polygon fill="#63b8ff" stroke="#63b8ff" points="493.03,-74.1 482.44,-74.37 490.89,-80.77 493.03,-74.1"/>
</a>
</g>
</g>
<!-- Node15 -->
<g id="Node000015" class="node">
<title>Node15</title>
<g id="a_Node000015"><a xlink:title=" ">
<polygon fill="#e0e0e0" stroke="#999999" points="542,-76 499,-76 499,-56 542,-56 542,-76"/>
<text text-anchor="middle" x="520.5" y="-62.5" font-family="Helvetica,sans-Serif" font-size="10.00">format</text>
</a>
</g>
</g>
<!-- Node12&#45;&gt;Node15 -->
<g id="edge14_Node000012_Node000015" class="edge">
<title>Node12&#45;&gt;Node15</title>
<g id="a_edge14_Node000012_Node000015"><a xlink:title=" ">
<path fill="none" stroke="#63b8ff" d="M608.04,-111.59C591.72,-103.28 567.67,-91.03 548.91,-81.47"/>
<polygon fill="#63b8ff" stroke="#63b8ff" points="550.61,-77.9 540.11,-76.48 547.43,-84.14 550.61,-77.9"/>
</a>
</g>
</g>
<!-- Node16 -->
<g id="Node000016" class="node">
<title>Node16</title>
<g id="a_Node000016"><a xlink:title=" ">
<polygon fill="#e0e0e0" stroke="#999999" points="623.12,-76 559.88,-76 559.88,-56 623.12,-56 623.12,-76"/>
<text text-anchor="middle" x="591.5" y="-62.5" font-family="Helvetica,sans-Serif" font-size="10.00">debugapi.h</text>
</a>
</g>
</g>
<!-- Node12&#45;&gt;Node16 -->
<g id="edge15_Node000012_Node000016" class="edge">
<title>Node12&#45;&gt;Node16</title>
<g id="a_edge15_Node000012_Node000016"><a xlink:title=" ">
<path fill="none" stroke="#63b8ff" d="M620.4,-111.59C615.74,-104.39 609.15,-94.23 603.45,-85.43"/>
<polygon fill="#63b8ff" stroke="#63b8ff" points="605.9,-83.79 597.53,-77.3 600.03,-87.59 605.9,-83.79"/>
</a>
</g>
</g>
<!-- Node17 -->
<g id="Node000017" class="node">
<title>Node17</title>
<g id="a_Node000017"><a xlink:title=" ">
<polygon fill="#e0e0e0" stroke="#999999" points="682.25,-76 640.75,-76 640.75,-56 682.25,-56 682.25,-76"/>
<text text-anchor="middle" x="661.5" y="-62.5" font-family="Helvetica,sans-Serif" font-size="10.00">vector</text>
</a>
</g>
</g>
<!-- Node12&#45;&gt;Node17 -->
<g id="edge16_Node000012_Node000017" class="edge">
<title>Node12&#45;&gt;Node17</title>
<g id="a_edge16_Node000012_Node000017"><a xlink:title=" ">
<path fill="none" stroke="#63b8ff" d="M632.6,-111.59C637.26,-104.39 643.85,-94.23 649.55,-85.43"/>
<polygon fill="#63b8ff" stroke="#63b8ff" points="652.97,-87.59 655.47,-77.3 647.1,-83.79 652.97,-87.59"/>
</a>
</g>
</g>
<!-- Node18 -->
<g id="Node000018" class="node">
<title>Node18</title>
<g id="a_Node000018"><a xlink:title=" ">
<polygon fill="#e0e0e0" stroke="#999999" points="756.38,-76 700.62,-76 700.62,-56 756.38,-56 756.38,-76"/>
<text text-anchor="middle" x="728.5" y="-62.5" font-family="Helvetica,sans-Serif" font-size="10.00">algorithm</text>
</a>
</g>
</g>
<!-- Node12&#45;&gt;Node18 -->
<g id="edge17_Node000012_Node000018" class="edge">
<title>Node12&#45;&gt;Node18</title>
<g id="a_edge17_Node000012_Node000018"><a xlink:title=" ">
<path fill="none" stroke="#63b8ff" d="M644.27,-111.59C659.89,-103.32 682.89,-91.14 700.91,-81.6"/>
<polygon fill="#63b8ff" stroke="#63b8ff" points="702.39,-84.25 709.59,-76.48 699.12,-78.07 702.39,-84.25"/>
</a>
</g>
</g>
<!-- Node19 -->
<g id="Node000019" class="node">
<title>Node19</title>
<g id="a_Node000019"><a xlink:title=" ">
<polygon fill="#e0e0e0" stroke="#999999" points="886.88,-76 774.12,-76 774.12,-56 886.88,-56 886.88,-76"/>
<text text-anchor="middle" x="830.5" y="-62.5" font-family="Helvetica,sans-Serif" font-size="10.00">vcruntime_exception.h</text>
</a>
</g>
</g>
<!-- Node12&#45;&gt;Node19 -->
<g id="edge18_Node000012_Node000019" class="edge">
<title>Node12&#45;&gt;Node19</title>
<g id="a_edge18_Node000012_Node000019"><a xlink:title=" ">
<path fill="none" stroke="#63b8ff" d="M648.72,-115.12C681.02,-106.57 741.69,-90.51 784.02,-79.3"/>
<polygon fill="#63b8ff" stroke="#63b8ff" points="784.86,-82.44 793.63,-76.5 783.06,-75.67 784.86,-82.44"/>
</a>
</g>
</g>
<!-- Node22 -->
<g id="Node000022" class="node">
<title>Node22</title>
<g id="a_Node000022"><a xlink:href="wi_npo_s-_app_2resource_8h.html" target="_top" xlink:title=" ">
<polygon fill="white" stroke="#666666" points="907.38,-132 845.62,-132 845.62,-112 907.38,-112 907.38,-132"/>
<text text-anchor="middle" x="876.5" y="-118.5" font-family="Helvetica,sans-Serif" font-size="10.00">resource.h</text>
</a>
</g>
</g>
<!-- Node21&#45;&gt;Node22 -->
<g id="edge22_Node000021_Node000022" class="edge">
<title>Node21&#45;&gt;Node22</title>
<g id="a_edge22_Node000021_Node000022"><a xlink:title=" ">
<path fill="none" stroke="#63b8ff" d="M876.5,-167.59C876.5,-160.86 876.5,-151.53 876.5,-143.15"/>
<polygon fill="#63b8ff" stroke="#63b8ff" points="880,-143.3 876.5,-133.3 873,-143.3 880,-143.3"/>
</a>
</g>
</g>
<!-- Node23&#45;&gt;Node12 -->
<g id="edge24_Node000023_Node000012" class="edge">
<title>Node23&#45;&gt;Node12</title>
<g id="a_edge24_Node000023_Node000012"><a xlink:title=" ">
<path fill="none" stroke="#63b8ff" d="M619.07,-167.59C620.2,-160.78 621.78,-151.32 623.19,-142.86"/>
<polygon fill="#63b8ff" stroke="#63b8ff" points="626.76,-143.74 624.95,-133.3 619.85,-142.59 626.76,-143.74"/>
</a>
</g>
</g>
<!-- Node24&#45;&gt;Node12 -->
<g id="edge28_Node000024_Node000012" class="edge">
<title>Node24&#45;&gt;Node12</title>
<g id="a_edge28_Node000024_Node000012"><a xlink:title=" ">
<path fill="none" stroke="#63b8ff" d="M689.26,-167.59C678.11,-159.67 661.91,-148.16 648.76,-138.82"/>
<polygon fill="#63b8ff" stroke="#63b8ff" points="651.02,-135.42 640.84,-132.48 646.97,-141.12 651.02,-135.42"/>
</a>
</g>
</g>
<!-- Node24&#45;&gt;Node13 -->
<g id="edge27_Node000024_Node000013" class="edge">
<title>Node24&#45;&gt;Node13</title>
<g id="a_edge27_Node000024_Node000013"><a xlink:title=" ">
<path fill="none" stroke="#63b8ff" d="M721.43,-167.62C760.42,-148.3 849.9,-103.96 895.96,-81.14"/>
<polygon fill="#63b8ff" stroke="#63b8ff" points="897.21,-83.93 904.62,-76.35 894.11,-77.66 897.21,-83.93"/>
</a>
</g>
</g>
<!-- Node25 -->
<g id="Node000025" class="node">
<title>Node25</title>
<g id="a_Node000025"><a xlink:title=" ">
<polygon fill="#e0e0e0" stroke="#999999" points="730,-132 675,-132 675,-112 730,-112 730,-132"/>
<text text-anchor="middle" x="702.5" y="-118.5" font-family="Helvetica,sans-Serif" font-size="10.00">wtypes.h</text>
</a>
</g>
</g>
<!-- Node24&#45;&gt;Node25 -->
<g id="edge26_Node000024_Node000025" class="edge">
<title>Node24&#45;&gt;Node25</title>
<g id="a_edge26_Node000024_Node000025"><a xlink:title=" ">
<path fill="none" stroke="#63b8ff" d="M702.5,-167.59C702.5,-160.86 702.5,-151.53 702.5,-143.15"/>
<polygon fill="#63b8ff" stroke="#63b8ff" points="706,-143.3 702.5,-133.3 699,-143.3 706,-143.3"/>
</a>
</g>
</g>
</g>
</svg>
