<?xml version="1.0" encoding="UTF-8" standalone="no"?>
<!DOCTYPE svg PUBLIC "-//W3C//DTD SVG 1.1//EN"
 "http://www.w3.org/Graphics/SVG/1.1/DTD/svg11.dtd">
<!-- Generated by graphviz version 9.0.0 (20230911.1827)
 -->
<!-- Title: wiNpoS&#45;Hook/pch.h Pages: 1 -->
<svg width="110pt" height="140pt"
 viewBox="0.00 0.00 109.50 140.00" xmlns="http://www.w3.org/2000/svg" xmlns:xlink="http://www.w3.org/1999/xlink">
<g id="graph0" class="graph" transform="scale(1 1) rotate(0) translate(4 136)">
<title>wiNpoS&#45;Hook/pch.h</title>
<!-- Node1 -->
<g id="Node000001" class="node">
<title>Node1</title>
<g id="a_Node000001"><a xlink:title=" ">
<polygon fill="#999999" stroke="#666666" points="101.5,-132 0,-132 0,-112 101.5,-112 101.5,-132"/>
<text text-anchor="middle" x="50.75" y="-118.5" font-family="Helvetica,sans-Serif" font-size="10.00">wiNpoS&#45;Hook/pch.h</text>
</a>
</g>
</g>
<!-- Node2 -->
<g id="Node000002" class="node">
<title>Node2</title>
<g id="a_Node000002"><a xlink:href="wi_npo_s-_hook_2framework_8h.html" target="_top" xlink:title=" ">
<polygon fill="white" stroke="#666666" points="85,-76 16.5,-76 16.5,-56 85,-56 85,-76"/>
<text text-anchor="middle" x="50.75" y="-62.5" font-family="Helvetica,sans-Serif" font-size="10.00">framework.h</text>
</a>
</g>
</g>
<!-- Node1&#45;&gt;Node2 -->
<g id="edge1_Node000001_Node000002" class="edge">
<title>Node1&#45;&gt;Node2</title>
<g id="a_edge1_Node000001_Node000002"><a xlink:title=" ">
<path fill="none" stroke="#63b8ff" d="M50.75,-111.59C50.75,-105.01 50.75,-95.96 50.75,-87.73"/>
<polygon fill="#63b8ff" stroke="#63b8ff" points="54.25,-87.81 50.75,-77.81 47.25,-87.81 54.25,-87.81"/>
</a>
</g>
</g>
<!-- Node3 -->
<g id="Node000003" class="node">
<title>Node3</title>
<g id="a_Node000003"><a xlink:title=" ">
<polygon fill="#e0e0e0" stroke="#999999" points="81.25,-20 20.25,-20 20.25,0 81.25,0 81.25,-20"/>
<text text-anchor="middle" x="50.75" y="-6.5" font-family="Helvetica,sans-Serif" font-size="10.00">windows.h</text>
</a>
</g>
</g>
<!-- Node2&#45;&gt;Node3 -->
<g id="edge2_Node000002_Node000003" class="edge">
<title>Node2&#45;&gt;Node3</title>
<g id="a_edge2_Node000002_Node000003"><a xlink:title=" ">
<path fill="none" stroke="#63b8ff" d="M50.75,-55.59C50.75,-49.01 50.75,-39.96 50.75,-31.73"/>
<polygon fill="#63b8ff" stroke="#63b8ff" points="54.25,-31.81 50.75,-21.81 47.25,-31.81 54.25,-31.81"/>
</a>
</g>
</g>
</g>
</svg>
