<?xml version="1.0" encoding="UTF-8" standalone="no"?>
<!DOCTYPE svg PUBLIC "-//W3C//DTD SVG 1.1//EN"
 "http://www.w3.org/Graphics/SVG/1.1/DTD/svg11.dtd">
<!-- Generated by graphviz version 9.0.0 (20230911.1827)
 -->
<!-- Title: wiNpoS&#45;App/pch.h Pages: 1 -->
<svg width="278pt" height="84pt"
 viewBox="0.00 0.00 277.50 84.00" xmlns="http://www.w3.org/2000/svg" xmlns:xlink="http://www.w3.org/1999/xlink">
<g id="graph0" class="graph" transform="scale(1 1) rotate(0) translate(4 80)">
<title>wiNpoS&#45;App/pch.h</title>
<!-- Node1 -->
<g id="Node000001" class="node">
<title>Node1</title>
<g id="a_Node000001"><a xlink:title=" ">
<polygon fill="#999999" stroke="#666666" points="173.5,-76 77.25,-76 77.25,-56 173.5,-56 173.5,-76"/>
<text text-anchor="middle" x="125.38" y="-62.5" font-family="Helvetica,sans-Serif" font-size="10.00">wiNpoS&#45;App/pch.h</text>
</a>
</g>
</g>
<!-- Node2 -->
<g id="Node000002" class="node">
<title>Node2</title>
<g id="a_Node000002"><a xlink:href="wi_npo_s-_app_2pch_8cpp.html" target="_top" xlink:title=" ">
<polygon fill="white" stroke="#666666" points="106.75,-20 0,-20 0,0 106.75,0 106.75,-20"/>
<text text-anchor="middle" x="53.38" y="-6.5" font-family="Helvetica,sans-Serif" font-size="10.00">wiNpoS&#45;App/pch.cpp</text>
</a>
</g>
</g>
<!-- Node1&#45;&gt;Node2 -->
<g id="edge1_Node000001_Node000002" class="edge">
<title>Node1&#45;&gt;Node2</title>
<g id="a_edge1_Node000001_Node000002"><a xlink:title=" ">
<path fill="none" stroke="#63b8ff" d="M103.98,-48.95C91.53,-39.61 76.26,-28.16 65.77,-20.3"/>
<polygon fill="#63b8ff" stroke="#63b8ff" points="101.52,-51.49 111.62,-54.69 105.72,-45.89 101.52,-51.49"/>
</a>
</g>
</g>
<!-- Node3 -->
<g id="Node000003" class="node">
<title>Node3</title>
<g id="a_Node000003"><a xlink:href="wi_npo_s-_app_8cpp.html" target="_top" xlink:title=" ">
<polygon fill="white" stroke="#666666" points="269.5,-20 125.25,-20 125.25,0 269.5,0 269.5,-20"/>
<text text-anchor="middle" x="197.38" y="-6.5" font-family="Helvetica,sans-Serif" font-size="10.00">wiNpoS&#45;App/wiNpoS&#45;App.cpp</text>
</a>
</g>
</g>
<!-- Node1&#45;&gt;Node3 -->
<g id="edge2_Node000001_Node000003" class="edge">
<title>Node1&#45;&gt;Node3</title>
<g id="a_edge2_Node000001_Node000003"><a xlink:title=" ">
<path fill="none" stroke="#63b8ff" d="M146.77,-48.95C159.22,-39.61 174.49,-28.16 184.98,-20.3"/>
<polygon fill="#63b8ff" stroke="#63b8ff" points="145.03,-45.89 139.13,-54.69 149.23,-51.49 145.03,-45.89"/>
</a>
</g>
</g>
</g>
</svg>
