<?xml version="1.0" encoding="UTF-8" standalone="no"?>
<!DOCTYPE svg PUBLIC "-//W3C//DTD SVG 1.1//EN"
 "http://www.w3.org/Graphics/SVG/1.1/DTD/svg11.dtd">
<!-- Generated by graphviz version 8.1.0 (20230707.0739)
 -->
<!-- Title: CreateNewWindow Pages: 1 -->
<svg width="556pt" height="66pt"
 viewBox="0.00 0.00 556.00 66.00" xmlns="http://www.w3.org/2000/svg" xmlns:xlink="http://www.w3.org/1999/xlink">
<g id="graph0" class="graph" transform="scale(1 1) rotate(0) translate(4 62)">
<title>CreateNewWindow</title>
<!-- Node1 -->
<g id="Node000001" class="node">
<title>Node1</title>
<g id="a_Node000001"><a xlink:title=" ">
<polygon fill="#999999" stroke="#666666" points="548,-39 450.25,-39 450.25,-19 548,-19 548,-39"/>
<text text-anchor="middle" x="499.12" y="-25.5" font-family="Helvetica,sans-Serif" font-size="10.00">CreateNewWindow</text>
</a>
</g>
</g>
<!-- Node2 -->
<g id="Node000002" class="node">
<title>Node2</title>
<g id="a_Node000002"><a xlink:href="wi_npo_s-_app_8cpp.html#a96e0b05d8a298452b48bf21c2d91e6b3" target="_top" xlink:title=" ">
<polygon fill="white" stroke="#666666" points="288.75,-58 223.25,-58 223.25,-38 288.75,-38 288.75,-58"/>
<text text-anchor="middle" x="256" y="-44.5" font-family="Helvetica,sans-Serif" font-size="10.00">InitInstance</text>
</a>
</g>
</g>
<!-- Node1&#45;&gt;Node2 -->
<g id="edge1_Node000001_Node000002" class="edge">
<title>Node1&#45;&gt;Node2</title>
<g id="a_edge1_Node000001_Node000002"><a xlink:title=" ">
<path fill="none" stroke="#63b8ff" d="M439.18,-33.64C391.85,-37.37 327.18,-42.47 288.98,-45.48"/>
<polygon fill="#63b8ff" stroke="#63b8ff" points="439.22,-37.07 448.91,-32.8 438.67,-30.1 439.22,-37.07"/>
</a>
</g>
</g>
<!-- Node4 -->
<g id="Node000004" class="node">
<title>Node4</title>
<g id="a_Node000004"><a xlink:href="wi_npo_s-_app_8cpp.html#a753ee9c862066d7e289d1da14855db15" target="_top" xlink:title=" ">
<polygon fill="white" stroke="#666666" points="414.25,-20 324.75,-20 324.75,0 414.25,0 414.25,-20"/>
<text text-anchor="middle" x="369.5" y="-6.5" font-family="Helvetica,sans-Serif" font-size="10.00">NewWindowProc</text>
</a>
</g>
</g>
<!-- Node1&#45;&gt;Node4 -->
<g id="edge3_Node000001_Node000004" class="edge">
<title>Node1&#45;&gt;Node4</title>
<g id="a_edge3_Node000001_Node000004"><a xlink:title=" ">
<path fill="none" stroke="#63b8ff" d="M439.14,-20.22C430.89,-18.99 422.53,-17.75 414.62,-16.57"/>
<polygon fill="#63b8ff" stroke="#63b8ff" points="438.47,-23.81 448.88,-21.82 439.5,-16.88 438.47,-23.81"/>
</a>
</g>
</g>
<!-- Node3 -->
<g id="Node000003" class="node">
<title>Node3</title>
<g id="a_Node000003"><a xlink:href="wi_npo_s-_app_8cpp.html#a8c6630df6bab43efe8254a603885b62e" target="_top" xlink:title=" ">
<polygon fill="white" stroke="#666666" points="61,-39 0,-39 0,-19 61,-19 61,-39"/>
<text text-anchor="middle" x="30.5" y="-25.5" font-family="Helvetica,sans-Serif" font-size="10.00">wWinMain</text>
</a>
</g>
</g>
<!-- Node2&#45;&gt;Node3 -->
<g id="edge2_Node000002_Node000003" class="edge">
<title>Node2&#45;&gt;Node3</title>
<g id="a_edge2_Node000002_Node000003"><a xlink:title=" ">
<path fill="none" stroke="#63b8ff" d="M212.27,-44.37C168.04,-40.61 100.08,-34.83 61.32,-31.54"/>
<polygon fill="#63b8ff" stroke="#63b8ff" points="211.72,-47.92 221.98,-45.28 212.31,-40.94 211.72,-47.92"/>
</a>
</g>
</g>
<!-- Node5 -->
<g id="Node000005" class="node">
<title>Node5</title>
<g id="a_Node000005"><a xlink:href="wi_npo_s-_app_8cpp.html#a30a1e3b0304f1b083637664cbda94e72" target="_top" xlink:title="the main window procedure of this app">
<polygon fill="white" stroke="#666666" points="284.25,-20 227.75,-20 227.75,0 284.25,0 284.25,-20"/>
<text text-anchor="middle" x="256" y="-6.5" font-family="Helvetica,sans-Serif" font-size="10.00">WndProc</text>
</a>
</g>
</g>
<!-- Node4&#45;&gt;Node5 -->
<g id="edge4_Node000004_Node000005" class="edge">
<title>Node4&#45;&gt;Node5</title>
<g id="a_edge4_Node000004_Node000005"><a xlink:title=" ">
<path fill="none" stroke="#63b8ff" d="M313.62,-10C303.59,-10 293.52,-10 284.71,-10"/>
<polygon fill="#63b8ff" stroke="#63b8ff" points="313.43,-13.5 323.43,-10 313.43,-6.5 313.43,-13.5"/>
</a>
</g>
</g>
<!-- Node6 -->
<g id="Node000006" class="node">
<title>Node6</title>
<g id="a_Node000006"><a xlink:href="wi_npo_s-_app_8cpp.html#aa0d0c9beb94350f8eac8fc4026a65375" target="_top" xlink:title=" ">
<polygon fill="white" stroke="#666666" points="187.25,-20 97,-20 97,0 187.25,0 187.25,-20"/>
<text text-anchor="middle" x="142.12" y="-6.5" font-family="Helvetica,sans-Serif" font-size="10.00">MyRegisterClass</text>
</a>
</g>
</g>
<!-- Node5&#45;&gt;Node6 -->
<g id="edge5_Node000005_Node000006" class="edge">
<title>Node5&#45;&gt;Node6</title>
<g id="a_edge5_Node000005_Node000006"><a xlink:title=" ">
<path fill="none" stroke="#63b8ff" d="M216.39,-10C207.06,-10 197.01,-10 187.44,-10"/>
<polygon fill="#63b8ff" stroke="#63b8ff" points="216.35,-13.5 226.35,-10 216.35,-6.5 216.35,-13.5"/>
</a>
</g>
</g>
<!-- Node6&#45;&gt;Node3 -->
<g id="edge6_Node000006_Node000003" class="edge">
<title>Node6&#45;&gt;Node3</title>
<g id="a_edge6_Node000006_Node000003"><a xlink:title=" ">
<path fill="none" stroke="#63b8ff" d="M85.86,-19.58C77.4,-21.05 68.94,-22.51 61.31,-23.83"/>
<polygon fill="#63b8ff" stroke="#63b8ff" points="86.28,-22.88 95.54,-17.73 85.09,-15.99 86.28,-22.88"/>
</a>
</g>
</g>
</g>
</svg>
